/* XPM */
static char *google[] = {
/* columns rows colors chars-per-pixel */
"32 32 215 2",
"   c #000000",
".  c #00230F",
"X  c #0E2C1B",
"o  c #023E1A",
"O  c #01441C",
"+  c #014B1F",
"@  c #014E20",
"#  c #0C6831",
"$  c #0D7235",
"%  c #137D3D",
"&  c #73590B",
"*  c #7F6007",
"=  c #585D3F",
"-  c #7B5C2B",
";  c #4A7039",
":  c #667639",
">  c #526459",
",  c #57695E",
"<  c #7C6E47",
"1  c #656F59",
"2  c #5E6D64",
"3  c #4E7E62",
"4  c #727372",
"5  c #C33333",
"6  c #D93C37",
"7  c #D93E3A",
"8  c #E12424",
"9  c #E02C2C",
"0  c #E23434",
"q  c #E33C3C",
"w  c #846507",
"e  c #886907",
"r  c #955938",
"t  c #BA402C",
"y  c #CA473B",
"u  c #C34A3A",
"i  c #BB514C",
"p  c #BE604D",
"a  c #B3635C",
"s  c #CA4443",
"d  c #DC4242",
"f  c #E44242",
"g  c #E54D4D",
"h  c #E65757",
"j  c #C06653",
"k  c #028937",
"l  c #058B39",
"z  c #0B8C3C",
"x  c #128D3E",
"c  c #069339",
"v  c #0B933D",
"b  c #069C39",
"n  c #0B9B3D",
"m  c #16913E",
"M  c #0BA13C",
"N  c #50833F",
"B  c #0E8E40",
"V  c #158041",
"C  c #0E9440",
"Z  c #0F9940",
"A  c #119741",
"S  c #139C43",
"D  c #189C43",
"F  c #218943",
"G  c #299D42",
"H  c #26974C",
"J  c #3C8C56",
"K  c #2F9A54",
"L  c #369C5A",
"P  c #3B9B5E",
"I  c #15A344",
"U  c #18A547",
"Y  c #16A845",
"T  c #19A947",
"R  c #1CAA48",
"E  c #3F9C60",
"W  c #488F44",
"Q  c #569E70",
"!  c #679D79",
"~  c #6C9D7F",
"^  c #A89C1C",
"/  c #B7AC17",
"(  c #B0AA1E",
")  c #969735",
"_  c #A59D20",
"`  c #C59A18",
"'  c #D7A90B",
"]  c #D6B70E",
"[  c #CDA31C",
"{  c #CEA81F",
"}  c #CEB816",
"|  c #C1B619",
" . c #C7B818",
".. c #CBBE19",
"X. c #E8B70D",
"o. c #E2BA0E",
"O. c #E8BC0E",
"+. c #E8BF10",
"@. c #C09E22",
"#. c #CFA920",
"$. c #D3C017",
"%. c #DEC312",
"&. c #DBC817",
"*. c #E8C20F",
"=. c #E4C413",
"-. c #E8C412",
";. c #E9CC15",
":. c #E6D219",
">. c #E9D319",
",. c #918F4D",
"<. c #949F53",
"1. c #949F5C",
"2. c #9CA252",
"3. c #AF8F7D",
"4. c #97A26A",
"5. c #9BA86D",
"6. c #9EAC7A",
"7. c #14599C",
"8. c #387096",
"9. c #31729F",
"0. c #0856A9",
"q. c #1359A2",
"w. c #125BA8",
"e. c #075EB6",
"r. c #055FBD",
"t. c #115EB0",
"y. c #1D69A6",
"u. c #1A63AD",
"i. c #0C62BB",
"p. c #1061B5",
"a. c #2669A7",
"s. c #3573A2",
"d. c #3A7AA4",
"f. c #2C78B0",
"g. c #2576BA",
"h. c #337FB6",
"j. c #477890",
"k. c #0562C4",
"l. c #0B65C4",
"z. c #0F68C7",
"x. c #0464CA",
"c. c #0967C9",
"v. c #0D69C9",
"b. c #1169C6",
"n. c #196EC5",
"m. c #126DCB",
"M. c #0568D1",
"N. c #046DDB",
"B. c #096ED8",
"V. c #116ED0",
"C. c #0D72DC",
"Z. c #1573D4",
"A. c #1676DB",
"S. c #1778DE",
"D. c #0571E3",
"F. c #0C75E4",
"G. c #1177E2",
"H. c #1578E1",
"J. c #4982A0",
"K. c #4D8CA5",
"L. c #518FA9",
"P. c #4A8FB2",
"I. c #6292A0",
"U. c #75A5AB",
"Y. c #77A9AE",
"T. c #65A1B2",
"R. c #79ACB3",
"E. c #919191",
"W. c #A38F82",
"Q. c #82AB92",
"!. c #8FB29C",
"~. c #A4B490",
"^. c #A7B897",
"/. c #ADB19F",
"(. c #84AEAE",
"). c #8DB1AF",
"_. c #99BAA6",
"`. c #95B2AF",
"'. c #8BB4B4",
"]. c #92B4B1",
"[. c #96B8B4",
"{. c #9FBEB9",
"}. c #AEBEA5",
"|. c #AEB9AD",
" X c #A6BEBA",
".X c #B1B2B1",
"XX c #9DC0BA",
"oX c #B2C1AC",
"OX c #A1C0BA",
"+X c #A8C4BE",
"@X c #B0C4B4",
"#X c #BECCBC",
"$X c #ABD3B7",
"%X c #ADD5B9",
"&X c #B7CBC5",
"*X c #BED3CC",
"=X c #C1C1C1",
"-X c #C4D1C3",
";X c #C8D3C8",
":X c #CCD9CE",
">X c #CBDAD3",
",X c #D6D6D6",
"<X c #D1DBD3",
"1X c #D4E1D9",
"2X c #DDE5E0",
"3X c #DFE8E4",
"4X c #E3EAE6",
"5X c #E7EDEA",
"6X c #EBEEEC",
"7X c #EBF0EC",
"8X c #EFF3F0",
"9X c #F5F5F5",
"0X c #F5F8F6",
"qX c #FBFBFB",
"wX c None",
/* pixels */
"wXwXwXwXwXwXwXwXwXwXwXwXwXwXwXwXwXwXwXwXwXwXwXwXwXwXwXwXwXwXwXwX",
"wXwXwXwXwXwXwXwXwXwXwXwXwXwXwXwXwXwXwXwXwXwXwXwXwXwXwXwXwXwXwXwX",
"wXwXwX%XqXqX5XI.s.a.J.{.qXqXqXqX3.g h h h h h h h h h h j < wXwX",
"wXwX$XqXqX0Xy.N.D.D.N.k.[.qXqXqX6Xj f g f f f f f f f f q j wXwX",
"wXwXqXqXqXOXM.F.F.F.F.F.i.4XqXqXqX/.d f f g f f f f q f q g wXwX",
"wXwXqXqXqX[.B.F.F.G.F.F.Z.].qXqXqX6Xs f f f f f f q q q 0 g wXwX",
"wXwXqXqXqX(.C.F.G.H.H.H.G.d.qXqXqXqXa f f f f f q q 0 0 0 f wXwX",
"wXwXqXqXqX(.Z.H.H.H.H.H.H.m.>XqXqXqXa f f f f q q q q 0 0 q wXwX",
"wXwXqXqXqX*XV.G.A.H.S.S.S.Z.[.qXqXqXi f q q q q q 0 0 9 9 q wXwX",
"wXwXqXqXqXqXg.A.A.S.A.A.A.Z.].qXqX4X5 0 0 7 y u 7 0 0 9 9 0 wXwX",
"wXwXqXqXqX0XY.Z.A.A.S.A.A.Z. XqX0XW.r W R R T T R G : t 8 0 wXwX",
"wXwX].qXqXqX0XP.Z.A.Z.A.Z.n.3XqX@X; T T R R T T T T I M - 9 wXwX",
"wXwXu.:X0XqX0X5Xh.Z.Z.Z.m. X0X1XF D T T T T T T T T Y M M N wXwX",
"wXwXZ.7. X0XqXqX5X'.T.R.,X0X9XJ D T U T U U T I I I M M M Y wXwX",
"wXwXm.k.0.j.].<X2X6X0XqXqX0X! D U U U U U I I I I I I b M I wXwX",
"wXwXV.x.c.l.t.w.q.8.qX0XqX>XA D S U U D U I I I I I M M b I wXwX",
"wXwXm.x.x.z.m.m.b.d.qX9XqX6XH D I U I I I I S I S I Z M M I wXwX",
"wXwXm.k.c.c.z.m.b.s.9XqX0X9X1XK S S S S U S S I S S Z Z b S wXwX",
"wXwXb.k.k.z.z.b.b.t.&X9X9X0X9X4XE S S D D S S S S S Z b b I wXwX",
"wXwXl.k.k.i.i.f.L.U.&XqX0X0XqX0X3XE S S S S S S S S Z Z c S wXwX",
"wXwXl.e.K.+X6X0X9X<X#X}.:X0X9X0X0X5XE A S S S S A A n v c A wXwX",
"wXwX'.1X0X7X~.<._ / | } ( ^.9X9X0X0X:XB S A A A A n v v c n wXwX",
"wXwX9X9X-X) } &.:.>.>.>.:. .1.5X9X9X9XQ A A A A Z n c c c A wXwX",
"wXwX9X8X^ %.;.>.;.>.>.>.>.>.} <.8X9X9X_.B C A C C v v c c C wXwX",
"wXwX9X}.] -.-.;.;.;.;.;.;.;.;.} ^.9X8X!.z C B B z v l c l C wXwX",
"wXwX9X4.o.-.-.-.-.-.;.-.;.;.;.=.5.9X8XQ.z v l z z l l l l v wXwX",
"wXwX9X~.o.O.O.*.+.-.+.-.-.+.-.=.2.9X9XI.k z z z l l l k l B wXwX",
"wXwX=X;X' X.X.X.X.+.X.X.+.+.X.O.6.9X,X# k k k k l l l l l $ wXwX",
"wXwX, .X,.` [ [ [ [ [ #.#.#.#.@.}.,X3 % V x % % % % % % # o wXwX",
"wXwXX , 4 = & & w w w e e e e 1 E.1 O @ @ + @ @ + + O O o . wXwX",
"wXwXwXwX                                                wXwXwXwX",
"wXwXwXwXwXwXwXwXwXwXwXwXwXwXwXwXwXwXwXwXwXwXwXwXwXwXwXwXwXwXwXwX"
};
