<?xml version="1.0" encoding="UTF-8" standalone="no"?>
<!-- Created with Inkscape (http://www.inkscape.org/) -->

<svg
   xmlns:dc="http://purl.org/dc/elements/1.1/"
   xmlns:cc="http://creativecommons.org/ns#"
   xmlns:rdf="http://www.w3.org/1999/02/22-rdf-syntax-ns#"
   xmlns:svg="http://www.w3.org/2000/svg"
   xmlns="http://www.w3.org/2000/svg"
   xmlns:xlink="http://www.w3.org/1999/xlink"
   xmlns:sodipodi="http://sodipodi.sourceforge.net/DTD/sodipodi-0.dtd"
   xmlns:inkscape="http://www.inkscape.org/namespaces/inkscape"
   version="1.0"
   width="96"
   height="96"
   id="svg2408"
   inkscape:version="0.48.3.1 r9886"
   sodipodi:docname="gdm-setup.svg"
   inkscape:export-filename="/home/rowen/MATE/Icon themes/sources/Faience-Ocre/apps/16/gdm-setup.png"
   inkscape:export-xdpi="15"
   inkscape:export-ydpi="15">
  <sodipodi:namedview
     pagecolor="#ffffff"
     bordercolor="#666666"
     borderopacity="1"
     objecttolerance="10"
     gridtolerance="10"
     guidetolerance="10"
     inkscape:pageopacity="0"
     inkscape:pageshadow="2"
     inkscape:window-width="705"
     inkscape:window-height="480"
     id="namedview3464"
     showgrid="false"
     inkscape:zoom="2.4583333"
     inkscape:cx="25.834338"
     inkscape:cy="68.0561"
     inkscape:window-x="45"
     inkscape:window-y="103"
     inkscape:window-maximized="0"
     inkscape:current-layer="svg2408" />
  <defs
     id="defs2410">
    <radialGradient
       gradientTransform="matrix(-2.4655e-8,-1.4401,1.8933,0,48.22,78.499)"
       gradientUnits="userSpaceOnUse"
       id="radialGradient4336"
       r="23"
       cy="-2.0645001"
       cx="26.617001">
      <stop
         offset="0"
         style="stop-color:#8ed79a;stop-opacity:1;"
         id="stop4338" />
      <stop
         offset="0.26238"
         style="stop-color:#64c574;stop-opacity:1;"
         id="stop4340" />
      <stop
         offset="0.66093999"
         style="stop-color:#3ea44f;stop-opacity:1;"
         id="stop4342" />
      <stop
         offset="1"
         style="stop-color:#2c7338;stop-opacity:1;"
         id="stop4344" />
    </radialGradient>
    <linearGradient
       id="linearGradient4384">
      <stop
         id="stop4386"
         style="stop-color:#ffffff;stop-opacity:1"
         offset="0" />
      <stop
         id="stop4388"
         style="stop-color:#ffffff;stop-opacity:0"
         offset="1" />
    </linearGradient>
    <linearGradient
       id="linearGradient4367">
      <stop
         id="stop4369"
         style="stop-color:#ffffff;stop-opacity:0.71755725"
         offset="0" />
      <stop
         id="stop4371"
         style="stop-color:#ffffff;stop-opacity:1"
         offset="1" />
    </linearGradient>
    <linearGradient
       x1="45.447727"
       y1="92.539597"
       x2="45.447727"
       y2="7.0165396"
       id="ButtonShadow"
       gradientUnits="userSpaceOnUse"
       gradientTransform="scale(1.0058652,0.994169)">
      <stop
         id="stop3750"
         style="stop-color:#000000;stop-opacity:1"
         offset="0" />
      <stop
         id="stop3752"
         style="stop-color:#000000;stop-opacity:0.58823532"
         offset="1" />
    </linearGradient>
    <linearGradient
       id="linearGradient3737">
      <stop
         id="stop3739"
         style="stop-color:#ffffff;stop-opacity:1"
         offset="0" />
      <stop
         id="stop3741"
         style="stop-color:#ffffff;stop-opacity:0"
         offset="1" />
    </linearGradient>
    <filter
       color-interpolation-filters="sRGB"
       id="filter3174">
      <feGaussianBlur
         id="feGaussianBlur3176"
         stdDeviation="1.71" />
    </filter>
    <filter
       x="-0.192"
       y="-0.192"
       width="1.3839999"
       height="1.3839999"
       color-interpolation-filters="sRGB"
       id="filter3794">
      <feGaussianBlur
         id="feGaussianBlur3796"
         stdDeviation="5.28" />
    </filter>
    <linearGradient
       x1="48"
       y1="20.220806"
       x2="48"
       y2="138.66119"
       id="linearGradient3613"
       xlink:href="#linearGradient3737"
       gradientUnits="userSpaceOnUse" />
    <linearGradient
       x1="45.447727"
       y1="92.539597"
       x2="45.447727"
       y2="7.0165396"
       id="ButtonShadow-0"
       gradientUnits="userSpaceOnUse"
       gradientTransform="matrix(1.0058652,0,0,0.994169,100,0)">
      <stop
         id="stop3750-8"
         style="stop-color:#000000;stop-opacity:1"
         offset="0" />
      <stop
         id="stop3752-5"
         style="stop-color:#000000;stop-opacity:0.58823532"
         offset="1" />
    </linearGradient>
    <linearGradient
       x1="32.251034"
       y1="6.1317081"
       x2="32.251034"
       y2="90.238609"
       id="linearGradient3780"
       xlink:href="#ButtonShadow-0"
       gradientUnits="userSpaceOnUse"
       gradientTransform="matrix(1.0238095,0,0,1.0119048,-1.1428571,-98.071429)" />
    <linearGradient
       x1="32.251034"
       y1="6.1317081"
       x2="32.251034"
       y2="90.238609"
       id="linearGradient3772"
       xlink:href="#ButtonShadow-0"
       gradientUnits="userSpaceOnUse"
       gradientTransform="matrix(1.0238095,0,0,1.0119048,-1.1428571,-98.071429)" />
    <linearGradient
       x1="32.251034"
       y1="6.1317081"
       x2="32.251034"
       y2="90.238609"
       id="linearGradient3725"
       xlink:href="#ButtonShadow-0"
       gradientUnits="userSpaceOnUse"
       gradientTransform="matrix(1.0238095,0,0,1.0119048,-1.1428571,-98.071429)" />
    <linearGradient
       x1="32.251034"
       y1="6.1317081"
       x2="32.251034"
       y2="90.238609"
       id="linearGradient3721"
       xlink:href="#ButtonShadow-0"
       gradientUnits="userSpaceOnUse"
       gradientTransform="translate(0,-97)" />
    <linearGradient
       x1="32.251034"
       y1="6.1317081"
       x2="32.251034"
       y2="90.238609"
       id="linearGradient3026"
       xlink:href="#ButtonShadow-0"
       gradientUnits="userSpaceOnUse"
       gradientTransform="matrix(1.0238095,0,0,1.0119048,-1.1428571,-98.071429)" />
    <clipPath
       id="clipPath4355">
      <rect
         width="84"
         height="80"
         rx="6"
         ry="6"
         x="6"
         y="6"
         id="rect4357"
         style="fill:#ffffff;fill-opacity:1;fill-rule:nonzero;stroke:none" />
    </clipPath>
    <radialGradient
       cx="48"
       cy="87.792389"
       r="42"
       fx="48"
       fy="87.792389"
       id="radialGradient4375"
       xlink:href="#linearGradient4367"
       gradientUnits="userSpaceOnUse"
       gradientTransform="matrix(1,-6.7114942e-8,8.4282233e-8,1.2557894,109.99999,-24.505592)" />
    <linearGradient
       x1="48"
       y1="88"
       x2="48"
       y2="-40"
       id="linearGradient4390"
       xlink:href="#linearGradient4384"
       gradientUnits="userSpaceOnUse"
       gradientTransform="matrix(1,0,0,-1,0,92)" />
    <linearGradient
       x1="48"
       y1="82"
       x2="112.12357"
       y2="82.454597"
       id="linearGradient4429"
       xlink:href="#linearGradient4384"
       gradientUnits="userSpaceOnUse"
       spreadMethod="reflect" />
    <linearGradient
       id="linearGradient3892">
      <stop
         id="stop3894"
         style="stop-color:#000000;stop-opacity:0.58823532"
         offset="0" />
      <stop
         id="stop3896"
         style="stop-color:#000000;stop-opacity:0.47058824"
         offset="0.11780351" />
      <stop
         id="stop3898"
         style="stop-color:#000000;stop-opacity:0.39215687"
         offset="0.23809524" />
      <stop
         id="stop3900"
         style="stop-color:#000000;stop-opacity:0.3137255"
         offset="1" />
    </linearGradient>
    <linearGradient
       x1="90"
       y1="88"
       x2="48"
       y2="88"
       id="linearGradient3228"
       xlink:href="#linearGradient3892"
       gradientUnits="userSpaceOnUse"
       spreadMethod="reflect" />
    <linearGradient
       id="linearGradient3187">
      <stop
         id="stop3189"
         style="stop-color:#b4b4b4;stop-opacity:1"
         offset="0" />
      <stop
         id="stop3191"
         style="stop-color:#e6e6e6;stop-opacity:1"
         offset="1" />
    </linearGradient>
    <linearGradient
       x1="43.17857"
       y1="13"
       x2="43.17857"
       y2="83.294571"
       id="linearGradient3436-4"
       xlink:href="#linearGradient3465-9"
       gradientUnits="userSpaceOnUse"
       gradientTransform="matrix(1.0294118,0,0,1.0294118,-1.4117647,-1.4117647)" />
    <linearGradient
       id="linearGradient3465-9">
      <stop
         id="stop3467-0"
         style="stop-color:#919191;stop-opacity:1"
         offset="0" />
      <stop
         id="stop3469-9"
         style="stop-color:#fdfdfd;stop-opacity:1"
         offset="1" />
    </linearGradient>
    <linearGradient
       x1="48"
       y1="90"
       x2="48"
       y2="5.9877172"
       id="linearGradient3388"
       xlink:href="#linearGradient3187"
       gradientUnits="userSpaceOnUse" />
    <linearGradient
       id="linearGradient3687">
      <stop
         id="stop3689"
         style="stop-color:#ffffff;stop-opacity:1"
         offset="0" />
      <stop
         id="stop3691"
         style="stop-color:#ffffff;stop-opacity:0"
         offset="1" />
    </linearGradient>
    <linearGradient
       x1="76.45089"
       y1="8.0625"
       x2="76.45089"
       y2="72.765785"
       id="linearGradient3483"
       xlink:href="#linearGradient3687"
       gradientUnits="userSpaceOnUse" />
    <linearGradient
       id="linearGradient4199">
      <stop
         id="stop4201"
         style="stop-color:#f2cdd8;stop-opacity:0.81679392"
         offset="0" />
      <stop
         id="stop4203"
         style="stop-color:#ffffff;stop-opacity:0"
         offset="1" />
    </linearGradient>
    <linearGradient
       x1="65.15625"
       y1="16.125"
       x2="65.15625"
       y2="69.687508"
       id="linearGradient2675-1"
       xlink:href="#linearGradient3737-0-5"
       gradientUnits="userSpaceOnUse" />
    <linearGradient
       id="linearGradient3737-0-5">
      <stop
         id="stop3739-6-9"
         style="stop-color:#ffffff;stop-opacity:1"
         offset="0" />
      <stop
         id="stop3741-4-4"
         style="stop-color:#ffffff;stop-opacity:0"
         offset="1" />
    </linearGradient>
    <linearGradient
       x1="65.15625"
       y1="16.125"
       x2="65.15625"
       y2="69.687508"
       id="linearGradient3343"
       xlink:href="#linearGradient4199"
       gradientUnits="userSpaceOnUse" />
    <radialGradient
       cx="26.617001"
       cy="-2.0645001"
       r="23"
       id="radialGradient2446"
       gradientUnits="userSpaceOnUse"
       gradientTransform="matrix(-2.4655e-8,-1.4401,1.8933,0,48.22,78.499)">
      <stop
         id="stop2749"
         style="stop-color:#8ed79a;stop-opacity:1;"
         offset="0" />
      <stop
         id="stop2751"
         style="stop-color:#64c574;stop-opacity:1;"
         offset="0.26238" />
      <stop
         id="stop2753"
         style="stop-color:#3ea44f;stop-opacity:1;"
         offset="0.66093999" />
      <stop
         id="stop2755"
         style="stop-color:#2c7338;stop-opacity:1;"
         offset="1" />
    </radialGradient>
    <radialGradient
       cx="56.065952"
       cy="-15.871236"
       r="35.9375"
       fx="56.065952"
       fy="-15.871236"
       id="radialGradient3364"
       xlink:href="#radialGradient4336"
       gradientUnits="userSpaceOnUse"
       gradientTransform="matrix(0.00225966,0.925477,-1.3844339,0,25.901984,-30.21143)" />
  </defs>
  <metadata
     id="metadata2413">
    <rdf:RDF>
      <cc:Work
         rdf:about="">
        <dc:format>image/svg+xml</dc:format>
        <dc:type
           rdf:resource="http://purl.org/dc/dcmitype/StillImage" />
        <dc:title></dc:title>
      </cc:Work>
    </rdf:RDF>
  </metadata>
  <g
     id="layer2"
     style="display:none">
    <rect
       width="86"
       height="85"
       rx="6"
       ry="6"
       x="5"
       y="7"
       id="rect3745"
       style="opacity:0.9;fill:url(#ButtonShadow);fill-opacity:1;fill-rule:nonzero;stroke:none;filter:url(#filter3174)" />
  </g>
  <g
     id="layer3"
     style="display:inline">
    <path
       d="m 12,-95.03125 c -5.5110903,0 -10.03125,4.52016 -10.03125,10.03125 l 0,71 c 0,5.5110902 4.5201598,10.03125 10.03125,10.03125 l 72,0 c 5.51109,0 10.03125,-4.5201597 10.03125,-10.03125 l 0,-71 c 0,-5.51109 -4.52016,-10.03125 -10.03125,-10.03125 l -72,0 z"
       transform="scale(1,-1)"
       id="path3786"
       style="opacity:0.07999998;fill:url(#linearGradient3026);fill-opacity:1;fill-rule:nonzero;stroke:none;display:inline" />
    <path
       d="m 12,-94.03125 c -4.971633,0 -9.03125,4.059617 -9.03125,9.03125 l 0,71 c 0,4.9716329 4.0596171,9.03125 9.03125,9.03125 l 72,0 c 4.971633,0 9.03125,-4.059617 9.03125,-9.03125 l 0,-71 c 0,-4.971633 -4.059617,-9.03125 -9.03125,-9.03125 l -72,0 z"
       transform="scale(1,-1)"
       id="path3778"
       style="opacity:0.1;fill:url(#linearGradient3780);fill-opacity:1;fill-rule:nonzero;stroke:none;display:inline" />
    <path
       d="m 12,-93 c -4.4091333,0 -8,3.590867 -8,8 l 0,71 c 0,4.4091333 3.5908667,8 8,8 l 72,0 c 4.409133,0 8,-3.5908667 8,-8 l 0,-71 c 0,-4.409133 -3.590867,-8 -8,-8 l -72,0 z"
       transform="scale(1,-1)"
       id="path3770"
       style="opacity:0.2;fill:url(#linearGradient3772);fill-opacity:1;fill-rule:nonzero;stroke:none;display:inline" />
    <rect
       width="86"
       height="85"
       rx="7"
       ry="7"
       x="5"
       y="-92"
       transform="scale(1,-1)"
       id="rect3723"
       style="opacity:0.3;fill:url(#linearGradient3725);fill-opacity:1;fill-rule:nonzero;stroke:none;display:inline" />
    <rect
       width="84"
       height="84"
       rx="6"
       ry="6"
       x="6"
       y="-91"
       transform="scale(1,-1)"
       id="rect3716"
       style="opacity:0.45;fill:url(#linearGradient3721);fill-opacity:1;fill-rule:nonzero;stroke:none;display:inline" />
  </g>
  <g
     id="layer1">
    <path
       d="m 12.0625,12.0625 0,53.875 71.875,0 0,-53.875 -71.875,0 z"
       transform="matrix(-1.0008688,0,0,-1.3339699,96.010451,99.96593)"
       id="path3215"
       style="fill:url(#radialGradient3364);fill-opacity:1.0;fill-rule:nonzero;stroke:none;display:inline" />
    <rect
       width="72.535713"
       height="10"
       rx="3.0290828"
       ry="2.3829787"
       x="11.785716"
       y="70"
       id="rect4832"
       style="opacity:0.4;fill:#f4d7ee;fill-opacity:1;fill-rule:nonzero;stroke:none;display:inline" />
    <path
       d="m 19,13 c -3.289406,0 -6,2.71059 -6,6 l 0,54 c 0,3.28941 2.710594,6 6,6 l 58,0 c 3.289411,0 6.000001,-2.71059 6.000001,-6 l 0,-54 c 0,-3.28941 -2.71059,-6 -6.000001,-6 z m 0,4 58,0 c 1.142594,0 2,0.85741 2,2 l 0,54 c 0,1.14259 -0.857406,2 -2,2 l -58,0 c -1.142594,0 -2,-0.85741 -2,-2 l 0,-54 c 0,-1.14259 0.857406,-2 2,-2 z"
       inkscape:connector-curvature="0"
       id="rect3222"
       style="font-size:medium;font-style:normal;font-variant:normal;font-weight:normal;font-stretch:normal;text-indent:0;text-align:start;text-decoration:none;line-height:normal;letter-spacing:normal;word-spacing:normal;text-transform:none;direction:ltr;block-progression:tb;writing-mode:lr-tb;text-anchor:start;opacity:0.07999998;color:#000000;fill:#000000;fill-opacity:1;stroke:none;stroke-width:4;marker:none;visibility:visible;display:inline;overflow:visible;enable-background:accumulate;font-family:Abandoned Bitplane;-inkscape-font-specification:Abandoned Bitplane" />
    <path
       d="m 17,14 c -1.662,0 -3,1.338 -3,3 l 0,58 c 0,1.662 1.338,3 3,3 l 62,0 c 1.662001,0 3.000001,-1.338 3.000001,-3 l 0,-58 c 0,-1.662 -1.338,-3 -3.000001,-3 z m 0,1.9375 62,0 c 0.618163,0 1.062501,0.44434 1.062501,1.0625 l 0,58 c 0,0.61816 -0.444338,1.0625 -1.062501,1.0625 l -62,0 c -0.618163,0 -1.0625,-0.44434 -1.0625,-1.0625 l 0,-58 c 0,-0.61816 0.444337,-1.0625 1.0625,-1.0625 z"
       inkscape:connector-curvature="0"
       id="rect3981"
       style="opacity:0.1;color:#000000;fill:#000000;fill-opacity:1;fill-rule:nonzero;stroke:none;stroke-width:1;marker:none;visibility:visible;display:inline;overflow:visible;enable-background:accumulate" />
    <path
       d="m 17,14 c -1.662,0 -3,1.338 -3,3 l 0,58 c 0,1.662 1.338,3 3,3 l 62,0 c 1.662001,0 3.000001,-1.338 3.000001,-3 l 0,-58 c 0,-1.662 -1.338,-3 -3.000001,-3 z m 0,0.96875 62,0 c 1.140081,0 2.031251,0.89117 2.031251,2.03125 l 0,58 c 0,1.14008 -0.89117,2.03125 -2.031251,2.03125 l -62,0 c -1.140081,0 -2.03125,-0.89117 -2.03125,-2.03125 l 0,-58 c 0,-1.14008 0.891169,-2.03125 2.03125,-2.03125 z"
       inkscape:connector-curvature="0"
       id="rect3977"
       style="opacity:0.25;color:#000000;fill:#000000;fill-opacity:1;fill-rule:nonzero;stroke:none;stroke-width:1;marker:none;visibility:visible;display:inline;overflow:visible;enable-background:accumulate" />
    <path
       d="M 12,6 C 8.676,6 6,8.676 6,12 l 0,72 c 0,3.324 2.676,6 6,6 l 72,0 c 3.324,0 6,-2.676 6,-6 L 90,12 C 90,8.676 87.324,6 84,6 z m 5,8 1,0 60,0 1,0 c 1.683774,0 3,1.316227 3,3 l 0,1 c 0,20.333333 0,36.666667 0,57 10e-7,1.683774 -1.316227,3 -3,3 -21.545716,0 -43.541072,0 -62,0 -1.683771,0 -3,-1.316227 -3,-3 0,-20.333333 0,-36.666667 0,-57 l 0,-1 c 0,-1.683772 1.316227,-3 3,-3 z"
       inkscape:connector-curvature="0"
       id="rect2419"
       style="fill:url(#linearGradient3388);fill-opacity:1;fill-rule:nonzero;stroke:none;display:inline" />
    <rect
       width="70"
       height="66"
       rx="4"
       ry="4"
       x="13.000001"
       y="13.000001"
       id="rect3425"
       style="fill:none;stroke:url(#linearGradient3436-4);stroke-width:2;stroke-linecap:square;stroke-linejoin:round;stroke-miterlimit:4;stroke-opacity:0.69658119;stroke-dasharray:none;stroke-dashoffset:0;display:inline" />
    <path
       d="M 120.78125,6.125 C 118.04223,6.6826484 116,9.0915 116,12 l 0,68 c 0,3.324 2.676,6 6,6 l 72,0 c 3.324,0 6,-2.676 6,-6 l 0,-68 c 0,-2.9085 -2.04223,-5.3173516 -4.78125,-5.875 2.20512,0.5362071 3.8125,2.4908437 3.8125,4.875 l 0,68 c 0,2.80489 -2.22636,5.03125 -5.03125,5.03125 l -72,0 c -2.80489,0 -5.03125,-2.22636 -5.03125,-5.03125 l 0,-68 c 0,-2.3841563 1.60738,-4.3387929 3.8125,-4.875 z"
       inkscape:connector-curvature="0"
       id="rect4359"
       style="opacity:0.2;fill:url(#radialGradient4375);fill-opacity:1;fill-rule:nonzero;stroke:none" />
    <path
       d="M 12,86 C 8.676,86 6,83.324 6,80 L 6,12 C 6,8.676 8.676,6 12,6 l 72,0 c 3.324,0 6,2.676 6,6 l 0,68 c 0,3.324 -2.676,6 -6,6 z m 0,-0.96875 72,0 c 2.80489,0 5.03125,-2.22636 5.03125,-5.03125 l 0,-68 C 89.03125,9.19511 86.80489,6.96875 84,6.96875 l -72,0 C 9.1951102,6.96875 6.96875,9.19511 6.96875,12 l 0,68 c 0,2.80489 2.2263602,5.03125 5.03125,5.03125 z"
       inkscape:connector-curvature="0"
       id="rect4377"
       style="opacity:0.45;fill:url(#linearGradient4390);fill-opacity:1;fill-rule:nonzero;stroke:none" />
    <path
       d="m 6,78 0,2 c 0,3.324 2.676,6 6,6 l 72,0 c 3.324,0 6,-2.676 6,-6 l 0,-2 c 0,3.324 -2.676,6 -6,6 L 12,84 C 8.676,84 6,81.324 6,78 z"
       inkscape:connector-curvature="0"
       id="rect4414"
       style="opacity:0.15;fill:url(#linearGradient4429);fill-opacity:1;fill-rule:nonzero;stroke:none" />
    <path
       d="m 6,100 0,1 c 0,3.324 2.676,6 6,6 l 72,0 c 3.324,0 6,-2.676 6,-6 l 0,-1 c 0,3.324 -2.676,6 -6,6 l -72,0 c -3.324,0 -6,-2.676 -6,-6 z"
       inkscape:connector-curvature="0"
       id="path4412"
       style="opacity:0.15;fill:#000000;fill-opacity:1;fill-rule:nonzero;stroke:none" />
    <rect
       width="44"
       height="32"
       rx="3.5198207"
       ry="4.0226521"
       x="26"
       y="26"
       id="rect3889"
       style="opacity:0.3;fill:#ffffff;fill-opacity:1;stroke:none;display:inline;enable-background:new" />
    <rect
       width="34"
       height="12"
       rx="2"
       ry="2"
       x="31"
       y="39"
       id="rect3899"
       style="fill:#ffffff;fill-opacity:1;stroke:none;display:inline;enable-background:new" />
    <path
       d="m 33,38.03125 c -1.620765,0 -2.96875,1.347985 -2.96875,2.96875 l 0,8 c 0,1.620765 1.347985,2.96875 2.96875,2.96875 l 30,0 c 1.620765,0 2.96875,-1.347985 2.96875,-2.96875 l 0,-8 c 0,-1.620765 -1.347985,-2.96875 -2.96875,-2.96875 l -30,0 z m 0,2.03125 30,0 c 0.500577,0 0.9375,0.436923 0.9375,0.9375 l 0,8 c 0,0.500577 -0.436923,0.9375 -0.9375,0.9375 l -30,0 c -0.500577,0 -0.9375,-0.436923 -0.9375,-0.9375 l 0,-8 c 0,-0.500577 0.436923,-0.9375 0.9375,-0.9375 z"
       inkscape:connector-curvature="0"
       id="path3915"
       style="fill:#2c7338;fill-opacity:1;stroke:none;display:inline;enable-background:new" />
    <path
       d="m 33,40.0625 c -0.500577,0 -0.9375,0.436923 -0.9375,0.9375 l 0,8 c 0,0.309921 0.191124,0.577464 0.4375,0.75 l 0,-7.75 c 0,-0.500577 0.421386,-0.9375 0.90625,-0.9375 l 29.1875,0 C 63.078617,41.0625 63.5,41.499423 63.5,42 l 0,7.75 c 0.246376,-0.172536 0.4375,-0.440079 0.4375,-0.75 l 0,-8 c 0,-0.500577 -0.43692,-0.9375 -0.9375,-0.9375 l -30,0 z"
       inkscape:connector-curvature="0"
       id="rect3927"
       style="opacity:0.3;fill:#000000;fill-opacity:1;stroke:none;display:inline;enable-background:new" />
    <path
       d="m 40.658639,50.795673 a 3.0304575,3.0304575 0 1 1 -6.060915,0 3.0304575,3.0304575 0 1 1 6.060915,0 z"
       transform="matrix(0.82495795,0,0,0.82495795,6.458333,3.095705)"
       id="path3935"
       style="fill:#000000;fill-opacity:1;stroke:none;display:inline;enable-background:new" />
    <path
       d="m 40.658639,50.795673 a 3.0304575,3.0304575 0 1 1 -6.060915,0 3.0304575,3.0304575 0 1 1 6.060915,0 z"
       transform="matrix(0.82495795,0,0,0.82495795,13.458333,3.095705)"
       id="path3941"
       style="fill:#000000;fill-opacity:1;stroke:none;display:inline;enable-background:new" />
    <path
       d="m 40.658639,50.795673 a 3.0304575,3.0304575 0 1 1 -6.060915,0 3.0304575,3.0304575 0 1 1 6.060915,0 z"
       transform="matrix(0.82495795,0,0,0.82495795,20.458333,3.095705)"
       id="path3943"
       style="fill:#000000;fill-opacity:1;stroke:none;display:inline;enable-background:new" />
    <path
       d="m 40.658639,50.795673 a 3.0304575,3.0304575 0 1 1 -6.060915,0 3.0304575,3.0304575 0 1 1 6.060915,0 z"
       transform="matrix(0.82495795,0,0,0.82495795,27.458333,3.095705)"
       id="path3945"
       style="fill:#000000;fill-opacity:1;stroke:none;display:inline;enable-background:new" />
    <g
       transform="translate(0,-4)"
       id="text3947"
       style="font-size:4.78869057px;font-style:normal;font-variant:normal;font-weight:normal;font-stretch:normal;text-align:start;line-height:125%;writing-mode:lr-tb;text-anchor:start;fill:#ffffff;fill-opacity:1;stroke:none;display:inline;enable-background:new;font-family:Liberation Sans;-inkscape-font-specification:Liberation Sans">
      <path
         d="m 32.54867,35.650077 c -3e-6,0.143414 -0.02416,0.277472 -0.07249,0.402176 -0.04677,0.123148 -0.117693,0.230706 -0.212779,0.322675 -0.09353,0.09041 -0.211222,0.162119 -0.353072,0.215117 -0.141855,0.053 -0.307089,0.0795 -0.495704,0.0795 l -0.968027,0 0,1.283687 -0.446601,0 0,-3.294563 1.386569,0 c 0.19485,3e-6 0.364761,0.02416 0.509734,0.07248 0.144967,0.04677 0.265776,0.113797 0.362425,0.201087 0.09664,0.08574 0.169129,0.190179 0.217455,0.313323 0.04832,0.12159 0.07248,0.256428 0.07249,0.404513 m -0.44894,0.0047 c -2e-6,-0.208879 -0.06391,-0.367099 -0.191734,-0.47466 -0.127825,-0.109115 -0.31956,-0.163673 -0.575204,-0.163676 l -0.886189,0 0,1.300054 0.904895,0 c 0.257203,2e-6 0.44582,-0.05689 0.565851,-0.17069 0.121585,-0.113792 0.182379,-0.277468 0.182381,-0.491028"
         inkscape:connector-curvature="0"
         id="path3952" />
      <path
         d="m 33.773902,37.999996 c -0.254089,0 -0.445044,-0.06703 -0.572866,-0.201087 -0.127824,-0.134058 -0.191735,-0.317999 -0.191735,-0.551822 0,-0.166793 0.03118,-0.303189 0.09353,-0.40919 0.06391,-0.107557 0.146529,-0.191733 0.247852,-0.252528 0.102882,-0.06079 0.219793,-0.102881 0.350735,-0.126265 0.130939,-0.02338 0.264218,-0.03663 0.399837,-0.03975 l 0.568189,-0.0094 0,-0.137955 c -2e-6,-0.104439 -0.01091,-0.193292 -0.03274,-0.266558 -0.02183,-0.07326 -0.05534,-0.132497 -0.100544,-0.177705 -0.04521,-0.0452 -0.102104,-0.07794 -0.170691,-0.09821 -0.06703,-0.02182 -0.14653,-0.03273 -0.238499,-0.03274 -0.08106,2e-6 -0.154324,0.0062 -0.219793,0.01871 -0.06547,0.01091 -0.122369,0.03196 -0.170691,0.06313 -0.04832,0.02962 -0.0873,0.07093 -0.116911,0.123926 -0.02962,0.05144 -0.0491,0.116913 -0.05846,0.196411 l -0.439587,-0.03975 c 0.01559,-0.09976 0.04521,-0.190953 0.08885,-0.273572 0.04365,-0.08417 0.105219,-0.156659 0.18472,-0.217456 0.08106,-0.06079 0.181601,-0.107556 0.301631,-0.140293 0.121587,-0.03429 0.268116,-0.05144 0.439587,-0.05144 0.317997,2e-6 0.557276,0.07327 0.717836,0.219793 0.160556,0.144973 0.240835,0.355413 0.240837,0.631322 l 0,1.089614 c -2e-6,0.124706 0.01637,0.219014 0.0491,0.282925 0.03273,0.06235 0.09509,0.09353 0.187058,0.09353 0.02338,0 0.04676,-0.0016 0.07015,-0.0047 0.02338,-0.0031 0.04598,-0.007 0.06781,-0.01169 l 0,0.261881 c -0.053,0.01247 -0.106002,0.02182 -0.159,0.02806 -0.05144,0.0062 -0.106781,0.0094 -0.166014,0.0094 -0.0795,0 -0.14809,-0.01013 -0.205764,-0.0304 -0.05612,-0.02182 -0.102105,-0.05378 -0.137955,-0.09587 -0.03585,-0.04365 -0.06313,-0.09665 -0.08184,-0.159 -0.01871,-0.06391 -0.0304,-0.137955 -0.03507,-0.222131 l -0.01403,0 c -0.04521,0.08106 -0.09509,0.154323 -0.149647,0.219793 -0.053,0.06547 -0.115354,0.121588 -0.187058,0.168352 -0.07171,0.04521 -0.153545,0.08028 -0.245514,0.105221 -0.09041,0.02494 -0.194853,0.03741 -0.313322,0.03741 m 0.09587,-0.31566 c 0.134057,0 0.250968,-0.02416 0.350734,-0.07249 0.101322,-0.04988 0.184719,-0.113014 0.250191,-0.189397 0.06703,-0.07638 0.116909,-0.159778 0.149646,-0.25019 0.03273,-0.09041 0.0491,-0.176925 0.0491,-0.259544 l 0,-0.208102 -0.460631,0.0094 c -0.102883,0.0016 -0.201089,0.0094 -0.294617,0.02338 -0.09197,0.01247 -0.17303,0.03819 -0.243175,0.07716 -0.07015,0.03897 -0.126265,0.09353 -0.168353,0.163676 -0.04053,0.07015 -0.06079,0.162118 -0.06079,0.275911 0,0.137176 0.03663,0.243176 0.109897,0.317999 0.07482,0.07482 0.180822,0.112235 0.317999,0.112235"
         inkscape:connector-curvature="0"
         id="path3954" />
      <path
         d="m 37.692772,37.254102 c -3e-6,0.11847 -0.02338,0.22447 -0.07015,0.317999 -0.04521,0.09197 -0.111458,0.169911 -0.19875,0.233822 -0.0873,0.06235 -0.194854,0.110677 -0.322675,0.144971 -0.126266,0.03274 -0.271236,0.0491 -0.43491,0.0491 -0.14653,0 -0.27903,-0.01169 -0.397499,-0.03507 -0.116912,-0.02182 -0.219794,-0.05768 -0.308646,-0.107559 -0.08885,-0.04988 -0.163677,-0.115352 -0.22447,-0.196411 -0.05924,-0.08262 -0.102882,-0.18316 -0.130941,-0.301631 l 0.371778,-0.07249 c 0.03585,0.135618 0.109896,0.235382 0.222132,0.299293 0.112234,0.06235 0.268116,0.09353 0.467646,0.09353 0.09041,0 0.173027,-0.0062 0.247852,-0.01871 0.07638,-0.01247 0.141851,-0.03351 0.196411,-0.06313 0.05456,-0.03118 0.09664,-0.07171 0.126264,-0.121588 0.03117,-0.05144 0.04676,-0.114572 0.04677,-0.189396 -2e-6,-0.07638 -0.01793,-0.138734 -0.05378,-0.187058 -0.03585,-0.04988 -0.08574,-0.09119 -0.149646,-0.123926 -0.06391,-0.03274 -0.141854,-0.06079 -0.233823,-0.08418 -0.09041,-0.02494 -0.190177,-0.05222 -0.299293,-0.08184 -0.101324,-0.0265 -0.201868,-0.05612 -0.301631,-0.08885 -0.09977,-0.03273 -0.190177,-0.0756 -0.271235,-0.128603 -0.0795,-0.05456 -0.144191,-0.121586 -0.194073,-0.201087 -0.04988,-0.0795 -0.07482,-0.179263 -0.07482,-0.299294 0,-0.230703 0.08184,-0.406069 0.245514,-0.526101 0.165234,-0.121585 0.405292,-0.182379 0.720174,-0.182382 0.279027,3e-6 0.500379,0.04911 0.664057,0.147309 0.165232,0.09821 0.269673,0.255648 0.313322,0.472322 l -0.378793,0.04676 c -0.01403,-0.06547 -0.03975,-0.120027 -0.07716,-0.163676 -0.03741,-0.0452 -0.08262,-0.08106 -0.135617,-0.107558 -0.053,-0.02806 -0.113016,-0.04754 -0.180044,-0.05846 -0.06547,-0.01247 -0.13406,-0.0187 -0.205764,-0.01871 -0.190177,3e-6 -0.33047,0.02884 -0.420881,0.08651 -0.09041,0.05768 -0.135618,0.144972 -0.135617,0.261881 -1e-6,0.06859 0.01637,0.125487 0.0491,0.170691 0.03429,0.04365 0.08106,0.08106 0.140293,0.112235 0.06079,0.02962 0.133278,0.05612 0.217455,0.0795 0.08418,0.02182 0.176925,0.04521 0.278249,0.07015 0.06703,0.01715 0.135616,0.03585 0.205765,0.05612 0.07014,0.01871 0.137953,0.04209 0.203425,0.07015 0.06703,0.0265 0.12938,0.05846 0.187059,0.09587 0.05923,0.03585 0.110674,0.0795 0.154323,0.130941 0.04364,0.05144 0.07794,0.111456 0.102882,0.180043 0.0265,0.06859 0.03975,0.148089 0.03975,0.2385"
         inkscape:connector-curvature="0"
         id="path3956" />
      <path
         d="m 40.087117,37.254102 c -2e-6,0.11847 -0.02338,0.22447 -0.07015,0.317999 -0.04521,0.09197 -0.111457,0.169911 -0.198749,0.233822 -0.0873,0.06235 -0.194854,0.110677 -0.322675,0.144971 -0.126266,0.03274 -0.271236,0.0491 -0.434911,0.0491 -0.14653,0 -0.279029,-0.01169 -0.397498,-0.03507 -0.116913,-0.02182 -0.219794,-0.05768 -0.308647,-0.107559 -0.08885,-0.04988 -0.163676,-0.115352 -0.224469,-0.196411 -0.05924,-0.08262 -0.102883,-0.18316 -0.130941,-0.301631 l 0.371778,-0.07249 c 0.03585,0.135618 0.109896,0.235382 0.222132,0.299293 0.112234,0.06235 0.268116,0.09353 0.467645,0.09353 0.09041,0 0.173028,-0.0062 0.247852,-0.01871 0.07638,-0.01247 0.141851,-0.03351 0.196412,-0.06313 0.05456,-0.03118 0.09664,-0.07171 0.126264,-0.121588 0.03117,-0.05144 0.04676,-0.114572 0.04676,-0.189396 -10e-7,-0.07638 -0.01793,-0.138734 -0.05378,-0.187058 -0.03585,-0.04988 -0.08574,-0.09119 -0.149646,-0.123926 -0.06391,-0.03274 -0.141854,-0.06079 -0.233823,-0.08418 -0.09041,-0.02494 -0.190177,-0.05222 -0.299293,-0.08184 -0.101325,-0.0265 -0.201868,-0.05612 -0.301632,-0.08885 -0.09977,-0.03273 -0.190176,-0.0756 -0.271234,-0.128603 -0.0795,-0.05456 -0.144191,-0.121586 -0.194073,-0.201087 -0.04988,-0.0795 -0.07482,-0.179263 -0.07482,-0.299294 -10e-7,-0.230703 0.08184,-0.406069 0.245514,-0.526101 0.165234,-0.121585 0.405291,-0.182379 0.720174,-0.182382 0.279027,3e-6 0.500379,0.04911 0.664056,0.147309 0.165233,0.09821 0.269674,0.255648 0.313323,0.472322 l -0.378793,0.04676 c -0.01403,-0.06547 -0.03975,-0.120027 -0.07716,-0.163676 -0.03741,-0.0452 -0.08262,-0.08106 -0.135618,-0.107558 -0.053,-0.02806 -0.113015,-0.04754 -0.180043,-0.05846 -0.06547,-0.01247 -0.13406,-0.0187 -0.205764,-0.01871 -0.190177,3e-6 -0.330471,0.02884 -0.420881,0.08651 -0.09041,0.05768 -0.135618,0.144972 -0.135617,0.261881 -10e-7,0.06859 0.01637,0.125487 0.0491,0.170691 0.03429,0.04365 0.08106,0.08106 0.140294,0.112235 0.06079,0.02962 0.133278,0.05612 0.217455,0.0795 0.08418,0.02182 0.176925,0.04521 0.278249,0.07015 0.06703,0.01715 0.135616,0.03585 0.205764,0.05612 0.07015,0.01871 0.137954,0.04209 0.203426,0.07015 0.06703,0.0265 0.12938,0.05846 0.187058,0.09587 0.05923,0.03585 0.110674,0.0795 0.154323,0.130941 0.04364,0.05144 0.07794,0.111456 0.102882,0.180043 0.0265,0.06859 0.03975,0.148089 0.03975,0.2385"
         inkscape:connector-curvature="0"
         id="path3958" />
      <path
         d="m 43.005225,37.953232 -0.48869,0 -0.404513,-1.632083 c -0.01247,-0.04209 -0.02572,-0.09431 -0.03975,-0.156661 -0.01247,-0.06235 -0.02494,-0.123145 -0.03741,-0.182382 -0.01559,-0.06859 -0.0304,-0.139512 -0.04443,-0.212779 -0.01403,0.07015 -0.02884,0.139516 -0.04443,0.208102 -0.01247,0.05924 -0.0265,0.120811 -0.04209,0.18472 -0.01403,0.06391 -0.02728,0.120031 -0.03975,0.168353 l -0.416204,1.62273 -0.486351,0 -0.708483,-2.529963 0.416204,0 0.427896,1.718598 c 0.01091,0.03585 0.02182,0.08028 0.03274,0.133279 0.01091,0.05144 0.02182,0.102103 0.03273,0.151985 0.01091,0.05768 0.0226,0.116911 0.03507,0.177705 0.01247,-0.05924 0.02572,-0.116911 0.03975,-0.173029 0.01247,-0.04832 0.02494,-0.09743 0.03741,-0.147308 0.01247,-0.04988 0.02338,-0.09119 0.03274,-0.123926 l 0.458293,-1.737304 0.451278,0 0.441925,1.737304 c 0.01091,0.04053 0.0226,0.08651 0.03507,0.137955 0.01247,0.05144 0.02416,0.09977 0.03507,0.14497 0.01247,0.053 0.02494,0.10678 0.03741,0.161338 0.01247,-0.05924 0.02494,-0.116911 0.03741,-0.173029 0.01091,-0.04832 0.02182,-0.09821 0.03274,-0.149647 0.01247,-0.053 0.02416,-0.09976 0.03507,-0.140293 l 0.446601,-1.718598 0.411528,0 -0.72485,2.529963"
         inkscape:connector-curvature="0"
         id="path3960" />
      <path
         d="m 46.182877,36.685912 c -2e-6,0.442706 -0.09743,0.772395 -0.292278,0.989071 -0.194855,0.216676 -0.47778,0.325013 -0.848777,0.325013 -0.176148,0 -0.333588,-0.0265 -0.472322,-0.0795 -0.138736,-0.053 -0.256426,-0.134059 -0.353073,-0.243176 -0.09509,-0.109117 -0.168352,-0.245513 -0.219793,-0.40919 -0.04988,-0.165234 -0.07482,-0.359307 -0.07482,-0.582219 0,-0.872936 0.378013,-1.309405 1.13404,-1.309407 0.19641,2e-6 0.365541,0.02728 0.507396,0.08184 0.143409,0.05456 0.26032,0.136399 0.350734,0.245514 0.09197,0.109119 0.159776,0.245516 0.203426,0.40919 0.04364,0.163677 0.06547,0.354632 0.06547,0.572865 m -0.441925,0 c -2e-6,-0.196409 -0.01559,-0.358526 -0.04677,-0.486351 -0.02962,-0.127821 -0.07404,-0.229924 -0.133279,-0.306308 -0.05768,-0.07638 -0.128604,-0.12938 -0.212778,-0.158999 -0.08418,-0.03117 -0.179266,-0.04676 -0.285264,-0.04677 -0.10756,2e-6 -0.204986,0.01637 -0.292279,0.0491 -0.08574,0.03118 -0.159,0.08574 -0.219793,0.163676 -0.0608,0.07638 -0.107559,0.178486 -0.140294,0.306308 -0.03118,0.127824 -0.04677,0.287603 -0.04676,0.479336 -10e-7,0.196413 0.01715,0.359309 0.05144,0.48869 0.03429,0.127824 0.08106,0.229926 0.140293,0.306308 0.06079,0.07638 0.13172,0.130161 0.212779,0.161338 0.08262,0.03118 0.172248,0.04676 0.268896,0.04676 0.107557,0 0.204984,-0.01481 0.292279,-0.04443 0.08729,-0.03118 0.161336,-0.08495 0.222132,-0.161338 0.06079,-0.07638 0.107556,-0.179263 0.140293,-0.308646 0.03273,-0.129381 0.0491,-0.292277 0.0491,-0.48869"
         inkscape:connector-curvature="0"
         id="path3962" />
      <path
         d="m 46.718331,37.953232 0,-1.940729 c 0,-0.053 -7.79e-4,-0.106777 -0.0023,-0.161338 0,-0.05611 -7.8e-4,-0.109894 -0.0023,-0.161338 -0.0016,-0.05144 -0.0031,-0.09976 -0.0047,-0.14497 -0.0016,-0.0452 -0.0031,-0.08573 -0.0047,-0.121588 l 0.397499,0 c 0.0016,0.03586 0.0031,0.07716 0.0047,0.123926 0.0031,0.04521 0.0055,0.09197 0.007,0.140294 0.0031,0.04833 0.0047,0.09509 0.0047,0.140294 0.0016,0.04365 0.0023,0.08106 0.0023,0.112235 l 0.0094,0 c 0.02962,-0.09665 0.06079,-0.180042 0.09353,-0.250191 0.03429,-0.0717 0.07404,-0.130159 0.119249,-0.175367 0.0452,-0.04676 0.09898,-0.08106 0.161338,-0.102882 0.06235,-0.02338 0.137954,-0.03507 0.226808,-0.03507 0.03429,2e-6 0.06703,0.0031 0.09821,0.0094 0.03117,0.0047 0.05534,0.0094 0.07249,0.01403 l 0,0.385808 c -0.02806,-0.0078 -0.0608,-0.01325 -0.09821,-0.01637 -0.03741,-0.0047 -0.0795,-0.007 -0.126264,-0.007 -0.09665,3e-6 -0.179266,0.02183 -0.247852,0.06547 -0.06703,0.04365 -0.122369,0.104443 -0.166015,0.182381 -0.04209,0.07638 -0.07326,0.168355 -0.09353,0.275911 -0.02027,0.106002 -0.0304,0.222133 -0.0304,0.348396 l 0,1.318761 -0.420881,0"
         inkscape:connector-curvature="0"
         id="path3964" />
      <path
         d="m 49.905336,37.54638 c -0.07794,0.162118 -0.181604,0.278249 -0.310984,0.348396 -0.127825,0.07015 -0.286824,0.10522 -0.476999,0.10522 -0.319558,0 -0.55494,-0.107558 -0.706145,-0.322675 -0.149646,-0.215117 -0.22447,-0.540909 -0.224469,-0.977379 -1e-6,-0.882289 0.310204,-1.323435 0.930614,-1.323437 0.191734,2e-6 0.351512,0.03508 0.479337,0.10522 0.127821,0.07015 0.230703,0.181605 0.308646,0.334367 l 0.0047,0 c -2e-6,-0.01559 -7.82e-4,-0.03975 -0.0023,-0.07249 -2e-6,-0.03429 -7.81e-4,-0.06937 -0.0023,-0.105221 -2e-6,-0.03741 -2e-6,-0.07248 0,-0.10522 -2e-6,-0.03273 -2e-6,-0.05611 0,-0.07015 l 0,-0.979717 0.420881,0 0,2.948505 c -2e-6,0.06079 -2e-6,0.11925 0,0.175367 0.0016,0.05612 0.0031,0.107559 0.0047,0.154323 0.0016,0.04677 0.0031,0.08729 0.0047,0.121588 0.0016,0.03273 0.0031,0.05612 0.0047,0.07015 l -0.402175,0 c -0.0031,-0.01559 -0.0062,-0.03741 -0.0094,-0.06547 -0.0016,-0.02962 -0.0039,-0.06313 -0.007,-0.100543 -0.0016,-0.03741 -0.0031,-0.07638 -0.0047,-0.116912 -0.0016,-0.04209 -0.0023,-0.0834 -0.0023,-0.123926 l -0.0094,0 M 48.62877,36.685908 c -1e-6,0.174589 0.01091,0.324236 0.03274,0.44894 0.02182,0.124706 0.0569,0.227588 0.10522,0.308646 0.04832,0.0795 0.109896,0.137956 0.18472,0.175367 0.07482,0.03741 0.166013,0.05612 0.273573,0.05612 0.110675,0 0.208101,-0.01793 0.292278,-0.05378 0.08573,-0.03585 0.15666,-0.09353 0.212779,-0.173028 0.05767,-0.08106 0.101321,-0.186279 0.130941,-0.315661 0.02961,-0.129381 0.04442,-0.287601 0.04443,-0.47466 -2e-6,-0.179263 -0.01481,-0.330468 -0.04443,-0.453617 -0.02962,-0.124703 -0.07327,-0.225247 -0.130941,-0.301631 -0.05768,-0.07638 -0.128604,-0.130939 -0.212779,-0.163676 -0.08262,-0.03429 -0.178486,-0.05144 -0.287602,-0.05144 -0.102883,2e-6 -0.191736,0.01793 -0.266558,0.05378 -0.07482,0.03586 -0.137177,0.09353 -0.187058,0.173029 -0.04988,0.0795 -0.0873,0.183163 -0.112235,0.310984 -0.02338,0.126266 -0.03507,0.27981 -0.03507,0.460631"
         inkscape:connector-curvature="0"
         id="path3966" />
      <path
         d="m 52.416592,35.907282 0,-0.484013 0.455954,0 0,0.484013 -0.455954,0 m 0,2.04595 0,-0.484013 0.455954,0 0,0.484013 -0.455954,0"
         inkscape:connector-curvature="0"
         id="path3968" />
    </g>
    <path
       d="M 29.53125,26 C 27.581269,26 26,27.802701 26,30.03125 l 0,23.9375 C 26,56.197299 27.581269,58 29.53125,58 l 36.9375,0 C 68.418731,58 70,56.197299 70,53.96875 l 0,-23.9375 C 70,27.802701 68.418731,26 66.46875,26 l -36.9375,0 z m 0,1 36.9375,0 C 67.79616,27 69,28.280537 69,30.03125 l 0,23.9375 C 69,55.719463 67.79616,57 66.46875,57 l -36.9375,0 C 28.20384,57 27,55.719463 27,53.96875 l 0,-23.9375 C 27,28.280537 28.20384,27 29.53125,27 z"
       inkscape:connector-curvature="0"
       id="rect3970"
       style="opacity:0.3;fill:#ffffff;fill-opacity:1;stroke:none;display:inline;enable-background:new" />
  </g>
  <g
     id="layer4"
     style="display:inline">
    <path
       d="m 6,80 0,4 c 0,3.324 2.676,6 6,6 l 72,0 c 3.324,0 6,-2.676 6,-6 l 0,-4 c 0,3.324 -2.676,6 -6,6 L 12,86 C 8.676,86 6,83.324 6,80 z"
       inkscape:connector-curvature="0"
       id="path3888"
       style="fill:url(#linearGradient3228);fill-opacity:1;fill-rule:nonzero;stroke:none;display:inline" />
    <path
       d="m 6,82 0,2 c 0,3.324 2.676,6 6,6 l 72,0 c 3.324,0 6,-2.676 6,-6 l 0,-2 c 0,3.324 -2.676,6 -6,6 L 12,88 C 8.676,88 6,85.324 6,82 z"
       inkscape:connector-curvature="0"
       id="rect4345"
       style="opacity:0.1;color:#000000;fill:#000000;fill-opacity:1;fill-rule:nonzero;stroke:none;stroke-width:1.5;marker:none;visibility:visible;display:inline;overflow:visible;enable-background:accumulate" />
    <path
       d="m 6,83 0,1 c 0,3.324 2.676,6 6,6 l 72,0 c 3.324,0 6,-2.676 6,-6 l 0,-1 c 0,3.324 -2.676,6 -6,6 L 12,89 C 8.676,89 6,86.324 6,83 z"
       inkscape:connector-curvature="0"
       id="rect4336"
       style="opacity:0.15;color:#000000;fill:#000000;fill-opacity:1;fill-rule:nonzero;stroke:none;stroke-width:1.5;marker:none;visibility:visible;display:inline;overflow:visible;enable-background:accumulate" />
  </g>
  <g
     id="layer5"
     style="display:none">
    <rect
       width="66"
       height="62"
       rx="12"
       ry="12"
       x="15"
       y="15"
       clip-path="url(#clipPath4355)"
       id="rect3171"
       style="opacity:0.1;fill:url(#linearGradient3613);fill-opacity:1;fill-rule:nonzero;stroke:#ffffff;stroke-width:0.5;stroke-linecap:round;stroke-linejoin:miter;stroke-miterlimit:4;stroke-opacity:1;stroke-dasharray:none;stroke-dashoffset:0;filter:url(#filter3794)" />
  </g>
  <g
     id="layer6">
    <path
       d="m 44.84375,8.0625 1.34375,3.875 31.8125,0 1,0 c 2.753976,0 5.0625,2.308526 5.0625,5.0625 l 0,1 0,56 0,1 c 0,2.753977 -3.115146,3.115146 -5.0625,5.0625 l -1,0 -6.875,0 1.34375,3.875 11.53125,0 c 2.221843,0 3.9375,-1.715657 3.9375,-3.9375 l 0,-68 C 87.9375,9.7781575 86.221843,8.0625 84,8.0625 z"
       inkscape:connector-curvature="0"
       id="path3660"
       style="opacity:0.4;fill:url(#linearGradient3483);fill-opacity:1;fill-rule:evenodd;stroke:none;display:inline" />
    <path
       d="m 47.65625,16.125 22.03125,59.75 9.3125,0 c 0.538805,0 0.875,-0.336196 0.875,-0.875 l 0,-58 c 0,-0.538805 -0.336194,-0.875 -0.875,-0.875 z"
       inkscape:connector-curvature="0"
       id="path3664"
       style="opacity:0.5;fill:url(#linearGradient3343);fill-opacity:1;fill-rule:evenodd;stroke:none;display:inline" />
    <path
       d="m 47.65625,16.125 22.03125,59.75 1,0 -22.03125,-59.75 z"
       inkscape:connector-curvature="0"
       id="path2669"
       style="opacity:0.5;fill:url(#linearGradient2675-1);fill-opacity:1;fill-rule:evenodd;stroke:none;display:inline" />
  </g>
</svg>
