<?xml version="1.0" encoding="UTF-8" standalone="no"?>
<!-- Created with Inkscape (http://www.inkscape.org/) -->

<svg
   xmlns:dc="http://purl.org/dc/elements/1.1/"
   xmlns:cc="http://creativecommons.org/ns#"
   xmlns:rdf="http://www.w3.org/1999/02/22-rdf-syntax-ns#"
   xmlns:svg="http://www.w3.org/2000/svg"
   xmlns="http://www.w3.org/2000/svg"
   xmlns:xlink="http://www.w3.org/1999/xlink"
   xmlns:inkscape="http://www.inkscape.org/namespaces/inkscape"
   version="1.0"
   width="96"
   height="96"
   id="svg2408">
  <defs
     id="defs2410">
    <linearGradient
       id="linearGradient3894">
      <stop
         id="stop3901"
         style="stop-color:#c75026;stop-opacity:1"
         offset="0" />
      <stop
         id="stop3905"
         style="stop-color:#eb9d48;stop-opacity:1"
         offset="1" />
    </linearGradient>
    <linearGradient
       id="linearGradient3885">
      <stop
         id="stop3887"
         style="stop-color:#eb7731;stop-opacity:1"
         offset="0" />
      <stop
         id="stop3889"
         style="stop-color:#e59343;stop-opacity:1"
         offset="0.5" />
      <stop
         id="stop3891"
         style="stop-color:#e5b66b;stop-opacity:1"
         offset="1" />
    </linearGradient>
    <linearGradient
       id="linearGradient3874">
      <stop
         id="stop3876"
         style="stop-color:#ffa32d;stop-opacity:1"
         offset="0" />
      <stop
         id="stop3878"
         style="stop-color:#ffe4c1;stop-opacity:0"
         offset="1" />
    </linearGradient>
    <linearGradient
       x1="11.794092"
       y1="3.2126782"
       x2="11.794092"
       y2="20.137329"
       id="linearGradient3317"
       gradientUnits="userSpaceOnUse"
       gradientTransform="scale(1.0598527,0.9435274)">
      <stop
         id="stop3319"
         style="stop-color:#c6953a;stop-opacity:1"
         offset="0" />
      <stop
         id="stop3321"
         style="stop-color:#ab7a1f;stop-opacity:1"
         offset="1" />
    </linearGradient>
    <linearGradient
       x1="48.035713"
       y1="25.910715"
       x2="48.035713"
       y2="85.821426"
       id="linearGradient3361"
       xlink:href="#linearGradient3317"
       gradientUnits="userSpaceOnUse" />
    <linearGradient
       x1="45.447727"
       y1="80.471962"
       x2="45.447727"
       y2="7.0165396"
       id="ButtonShadow"
       gradientUnits="userSpaceOnUse"
       gradientTransform="matrix(1.0058652,0,0,0.994169,0,12)">
      <stop
         id="stop3750"
         style="stop-color:#000000;stop-opacity:1"
         offset="0" />
      <stop
         id="stop3752"
         style="stop-color:#000000;stop-opacity:0.58823532"
         offset="1" />
    </linearGradient>
    <linearGradient
       x1="48"
       y1="78"
       x2="48"
       y2="5.9877172"
       id="linearGradient3706"
       xlink:href="#linearGradient3885"
       gradientUnits="userSpaceOnUse"
       gradientTransform="translate(0,8)" />
    <filter
       color-interpolation-filters="sRGB"
       id="filter3174">
      <feGaussianBlur
         id="feGaussianBlur3176"
         stdDeviation="1.71" />
    </filter>
    <linearGradient
       x1="45.447727"
       y1="80.471962"
       x2="45.447727"
       y2="5.297224"
       id="linearGradient3664"
       xlink:href="#ButtonShadow"
       gradientUnits="userSpaceOnUse"
       gradientTransform="matrix(1.0058652,0,0,0.994169,0,12)" />
    <clipPath
       id="clipPath3860">
      <rect
         width="84"
         height="72"
         rx="6"
         ry="6"
         x="6"
         y="18"
         id="rect3862"
         style="fill:#ff00ff;fill-opacity:1;fill-rule:nonzero;stroke:none" />
    </clipPath>
    <filter
       x="-0.16558799"
       y="-0.19715989"
       width="1.331176"
       height="1.3943198"
       color-interpolation-filters="sRGB"
       id="filter3870">
      <feGaussianBlur
         id="feGaussianBlur3872"
         stdDeviation="5.1703125" />
    </filter>
    <linearGradient
       id="linearGradient3892">
      <stop
         id="stop3894"
         style="stop-color:#000000;stop-opacity:0.58823532"
         offset="0" />
      <stop
         id="stop3896"
         style="stop-color:#000000;stop-opacity:0.47058824"
         offset="0.11780351" />
      <stop
         id="stop3898"
         style="stop-color:#000000;stop-opacity:0.39215687"
         offset="0.23809524" />
      <stop
         id="stop3900"
         style="stop-color:#000000;stop-opacity:0.3137255"
         offset="1" />
    </linearGradient>
    <linearGradient
       id="linearGradient4384">
      <stop
         id="stop4386"
         style="stop-color:#ffffff;stop-opacity:1"
         offset="0" />
      <stop
         id="stop4388"
         style="stop-color:#ffffff;stop-opacity:0"
         offset="1" />
    </linearGradient>
    <linearGradient
       x1="48"
       y1="75.08329"
       x2="48"
       y2="-40"
       id="linearGradient3094"
       xlink:href="#linearGradient4384"
       gradientUnits="userSpaceOnUse"
       gradientTransform="matrix(1,0,0,-1,0,92)" />
    <linearGradient
       x1="48.021698"
       y1="22.933374"
       x2="48.021698"
       y2="81.481377"
       id="linearGradient3123"
       xlink:href="#linearGradient3874"
       gradientUnits="userSpaceOnUse" />
    <linearGradient
       x1="37.611111"
       y1="27.111111"
       x2="37.611111"
       y2="21.555555"
       id="linearGradient3105"
       xlink:href="#linearGradient3894"
       gradientUnits="userSpaceOnUse"
       gradientTransform="matrix(0.72,0,0,0.72,1.92,-5.52)" />
    <linearGradient
       x1="43"
       y1="91"
       x2="43"
       y2="7"
       id="linearGradient3952"
       xlink:href="#ButtonShadow"
       gradientUnits="userSpaceOnUse" />
    <linearGradient
       x1="45"
       y1="92"
       x2="45"
       y2="7"
       id="linearGradient3961"
       xlink:href="#ButtonShadow"
       gradientUnits="userSpaceOnUse" />
    <linearGradient
       x1="45"
       y1="92"
       x2="45"
       y2="7"
       id="linearGradient3969"
       xlink:href="#ButtonShadow"
       gradientUnits="userSpaceOnUse" />
    <linearGradient
       x1="45"
       y1="92"
       x2="45"
       y2="7"
       id="linearGradient3977"
       xlink:href="#ButtonShadow"
       gradientUnits="userSpaceOnUse" />
    <linearGradient
       x1="45"
       y1="92"
       x2="45"
       y2="7"
       id="linearGradient3986"
       xlink:href="#ButtonShadow"
       gradientUnits="userSpaceOnUse" />
    <linearGradient
       x1="90"
       y1="88"
       x2="48"
       y2="88"
       id="linearGradient3906"
       xlink:href="#linearGradient3892"
       gradientUnits="userSpaceOnUse"
       gradientTransform="translate(0,10)"
       spreadMethod="reflect" />
    <linearGradient
       id="linearGradient3877">
      <stop
         id="stop3879"
         style="stop-color:#da682a;stop-opacity:0.78431374"
         offset="0" />
      <stop
         id="stop3883"
         style="stop-color:#da682a;stop-opacity:0.39215687"
         offset="1" />
    </linearGradient>
    <linearGradient
       x1="48"
       y1="76"
       x2="48"
       y2="27.531422"
       id="linearGradient3098"
       xlink:href="#linearGradient3877"
       gradientUnits="userSpaceOnUse"
       gradientTransform="translate(0,-2)" />
    <linearGradient
       x1="48"
       y1="76"
       x2="48"
       y2="27.531422"
       id="linearGradient4845"
       xlink:href="#linearGradient3877"
       gradientUnits="userSpaceOnUse"
       gradientTransform="translate(0,-2)" />
    <linearGradient
       x1="48"
       y1="76"
       x2="48"
       y2="27.531422"
       id="linearGradient4830"
       xlink:href="#linearGradient3877"
       gradientUnits="userSpaceOnUse"
       gradientTransform="translate(0,-2)" />
    <linearGradient
       x1="48"
       y1="76"
       x2="48"
       y2="27.531422"
       id="linearGradient4828"
       xlink:href="#linearGradient3877"
       gradientUnits="userSpaceOnUse"
       gradientTransform="translate(0,-2)" />
  </defs>
  <metadata
     id="metadata2413">
    <rdf:RDF>
      <cc:Work
         rdf:about="">
        <dc:format>image/svg+xml</dc:format>
        <dc:type
           rdf:resource="http://purl.org/dc/dcmitype/StillImage" />
        <dc:title />
      </cc:Work>
    </rdf:RDF>
  </metadata>
  <g
     id="layer2"
     style="display:none">
    <path
       d="M 14.96875,8.8028918 C 13.32891,8.8028918 12,10.085142 12,11.677892 L 12,19 c -3.324,0 -7,2.676 -7,6 l 0,61 c 0,3.324 2.676,6 6,6 l 74,0 c 3.324,0 6,-2.676 6,-6 l 0,-61 c 0,-3.324 -3.74743,-6 -7.07143,-6 l 0,-0.134608 c 0,-2.389125 -1.97774,-4.3125 -4.4375,-4.3125 l -43.33482,0 -1.46875,-2.875 C 33.95414,10.253293 33.35859,8.8028918 31.71875,8.8028918 l -16.75,0 z"
       inkscape:connector-curvature="0"
       id="rect3745"
       style="opacity:0.9;fill:url(#linearGradient3664);fill-opacity:1;fill-rule:nonzero;stroke:none;filter:url(#filter3174)" />
  </g>
  <g
     id="layer4"
     style="display:inline">
    <path
       d="M 14.125,4 C 9.6910704,4 6,7.568413 6,12 l 0,2.15625 C 3.6235961,15.958367 2,18.759045 2,22 l 0,63 c 0,5.503629 4.496371,10 10,10 l 72,0 c 5.503629,0 10,-4.496371 10,-10 L 94,22 C 94,18.516601 92.146607,15.546894 89.46875,13.78125 88.481551,10.491738 85.526024,8 81.875,8 l -39.5,0 C 40.972352,6.645177 39.835329,5.4903784 38.6875,4.84375 37.192287,4.0014231 35.756649,4.0295412 34.875,4 a 0.92780092,0.92780092 0 0 0 -0.03125,0 c -0.0012,-1.73e-5 -0.03009,-1.73e-5 -0.03125,0 L 34.78125,4 14.125,4 z"
       id="path3984"
       style="opacity:0.07999998;fill:url(#linearGradient3986);fill-opacity:1;fill-rule:nonzero;stroke:none;display:inline" />
    <path
       d="M 14.125,4.9375 C 10.184407,4.9375 6.9375,8.0807925 6.9375,12 l 0,2.59375 c -2.3826099,1.622076 -4,4.293928 -4,7.40625 l 0,63 c 0,5.001444 4.0610559,9.0625 9.0625,9.0625 l 72,0 c 5.001444,0 9.0625,-4.061056 9.0625,-9.0625 l 0,-63 c 0,-3.260846 -1.77319,-6.039741 -4.34375,-7.625 C 87.957559,11.279325 85.241489,8.9375 81.875,8.9375 l -39.8125,0 C 40.465021,7.3963057 39.290438,6.2599842 38.21875,5.65625 36.945571,4.9390059 35.771277,4.9685784 34.84375,4.9375 a 1.043776,1.043776 0 0 0 -0.03125,0 c -10e-7,0 -0.03125,0 -0.03125,0 l -20.65625,0 z"
       id="path3975"
       style="opacity:0.1;fill:url(#linearGradient3977);fill-opacity:1;fill-rule:nonzero;stroke:none;display:inline" />
    <path
       d="M 14.125,5.96875 C 10.736326,5.96875 7.96875,8.6567706 7.96875,12 l 0,3.125 c -2.3751432,1.394016 -4,3.920462 -4,6.875 l 0,63 c 0,4.438141 3.5931086,8.03125 8.03125,8.03125 l 72,0 c 4.438141,0 8.03125,-3.593109 8.03125,-8.03125 l 0,-63 c 0,-3.031992 -1.712245,-5.604362 -4.1875,-6.96875 -0.491893,-2.85962 -2.928643,-5.0625 -5.96875,-5.0625 l -40.1875,0 C 39.852667,8.1939079 38.678863,7.1033787 37.71875,6.5625 36.681475,5.9781523 35.778304,6.0011109 34.8125,5.96875 a 1.043776,1.043776 0 0 0 -0.03125,0 l -20.65625,0 z"
       id="path3967"
       style="opacity:0.2;fill:url(#linearGradient3969);fill-opacity:1;fill-rule:nonzero;stroke:none;display:inline" />
    <path
       d="M 14.125,7 C 11.282105,7 9,9.23 9,12 l 0,3.6875 C 6.6359408,16.808884 5,19.200342 5,22 l 0,63 c 0,3.878 3.122,7 7,7 l 72,0 c 3.878,0 7,-3.122 7,-7 L 91,22 C 91,19.190264 89.346632,16.803629 86.96875,15.6875 86.799101,13.069075 84.606585,11 81.875,11 l -40.59375,0 c -4.220528,-4.1123102 -4.502768,-3.9330794 -6.5,-4 L 14.125,7 z"
       inkscape:connector-curvature="0"
       id="path3908-1"
       style="opacity:0.3;fill:url(#linearGradient3961);fill-opacity:1;fill-rule:nonzero;stroke:none;display:inline" />
    <path
       d="m 15,7 c -2.77,0 -5,2.23 -5,5 l 0,3.34375 C 7.6664933,16.164656 6,18.378887 6,21 l 0,64 c 0,3.324 2.676,6 6,6 l 72,0 c 3.324,0 6,-2.676 6,-6 L 90,21 C 90,18.358112 88.300137,16.148775 85.9375,15.34375 85.611464,12.893448 83.542274,11 81,11 L 40.46875,11 C 36.35644,6.8876898 36.102271,7.0669206 34.15625,7 L 15,7 z"
       inkscape:connector-curvature="0"
       id="path3941"
       style="opacity:0.45;fill:url(#linearGradient3952);fill-opacity:1;fill-rule:nonzero;stroke:none;display:inline" />
  </g>
  <g
     id="layer3"
     style="display:inline">
    <rect
       width="75"
       height="62.678574"
       rx="6"
       ry="6"
       x="10.535714"
       y="23.142857"
       id="rect3352"
       style="fill:url(#linearGradient3361);fill-opacity:1;fill-rule:nonzero;stroke:none;display:inline" />
    <path
       d="m 15,6 c -2.77,0 -5,2.23 -5,5 l 0,59.8125 c 0,2.39328 1.91922,4.3125 4.3125,4.3125 l 67.375,0 C 84.08078,75.125 86,73.20578 86,70.8125 L 86,15 c 0,-2.77 -2.23,-5 -5,-5 L 40.46875,10 C 36.35644,5.8876898 36.102271,6.0669206 34.15625,6 z"
       inkscape:connector-curvature="0"
       id="path3908"
       style="fill:url(#linearGradient3105);fill-opacity:1;fill-rule:nonzero;stroke:none;display:inline" />
    <path
       d="m 15,6 c -2.77,0 -5,2.23 -5,5 l 0,59.8125 c 0,2.39328 1.91922,4.3125 4.3125,4.3125 l 67.375,0 C 84.08078,75.125 86,73.20578 86,70.8125 L 86,15 c 0,-2.77 -2.23,-5 -5,-5 L 40.46875,10 C 36.35644,5.8876898 36.102271,6.0669206 34.15625,6 L 15,6 z m 0,1.03125 19.125,0 0.03125,0 c 0.964976,0.031157 1.192535,-0.016972 1.8125,0.34375 0.630289,0.366729 1.706808,1.3318077 3.75,3.375 a 1.043776,1.043776 0 0 0 0.75,0.28125 l 40.53125,0 c 2.209859,0 3.96875,1.758891 3.96875,3.96875 l 0,55.8125 c 0,1.835319 -1.445931,3.28125 -3.28125,3.28125 l -67.375,0 c -1.835319,0 -3.28125,-1.445931 -3.28125,-3.28125 l 0,-59.8125 c 0,-2.2098586 1.758891,-3.96875 3.96875,-3.96875 z"
       inkscape:connector-curvature="0"
       id="path3108"
       style="opacity:0.2;fill:#ffffff;fill-opacity:1;fill-rule:nonzero;stroke:none;display:inline" />
  </g>
  <g
     id="layer1"
     style="display:inline">
    <rect
       width="84"
       height="76"
       rx="6"
       ry="6"
       x="6"
       y="14"
       id="rect2419"
       style="fill:url(#linearGradient3706);fill-opacity:1;fill-rule:nonzero;stroke:none" />
    <path
       d="M 12,86 C 8.676,86 6,83.324 6,80 L 6,20 c 0,-3.324 2.676,-6 6,-6 l 72,0 c 3.324,0 6,2.676 6,6 l 0,60 c 0,3.324 -2.676,6 -6,6 z m 0,-0.96875 72,0 c 2.80489,0 5.03125,-2.22636 5.03125,-5.03125 l 0,-60 c 0,-2.80489 -2.22636,-5.03125 -5.03125,-5.03125 l -72,0 c -2.8048898,0 -5.03125,2.22636 -5.03125,5.03125 l 0,60 c 0,2.80489 2.2263602,5.03125 5.03125,5.03125 z"
       inkscape:connector-curvature="0"
       id="rect4377"
       style="opacity:0.35;fill:url(#linearGradient3094);fill-opacity:1;fill-rule:nonzero;stroke:none" />
    <path
       d="m 6,78 0,2 c 0,3.324 2.676,6 6,6 l 72,0 c 3.324,0 6,-2.676 6,-6 l 0,-2 c 0,3.324 -2.676,6 -6,6 L 12,84 C 8.676,84 6,81.324 6,78 z"
       inkscape:connector-curvature="0"
       id="rect3841"
       style="opacity:0.1;fill:#ffffff;fill-opacity:1;fill-rule:nonzero;stroke:none" />
  </g>
  <g
     id="layer7">
    <path
       d="m 6,80 0,4 c 0,3.324 2.676,6 6,6 l 72,0 c 3.324,0 6,-2.676 6,-6 l 0,-4 c 0,3.324 -2.676,6 -6,6 L 12,86 C 8.676,86 6,83.324 6,80 z"
       inkscape:connector-curvature="0"
       id="path3067"
       style="opacity:0.8;fill:#ce4f16;fill-opacity:1;fill-rule:nonzero;stroke:none;display:inline" />
    <g
       transform="translate(0,-10)"
       id="g3901">
      <path
         d="m 6,90 0,4 c 0,3.324 2.676,6 6,6 l 72,0 c 3.324,0 6,-2.676 6,-6 l 0,-4 c 0,3.324 -2.676,6 -6,6 L 12,96 C 8.676,96 6,93.324 6,90 z"
         inkscape:connector-curvature="0"
         id="path3888"
         style="opacity:0.5;fill:url(#linearGradient3906);fill-opacity:1;fill-rule:nonzero;stroke:none;display:inline" />
      <path
         d="m 6,92 0,2 c 0,3.324 2.676,6 6,6 l 72,0 c 3.324,0 6,-2.676 6,-6 l 0,-2 c 0,3.324 -2.676,6 -6,6 L 12,98 C 8.676,98 6,95.324 6,92 z"
         inkscape:connector-curvature="0"
         id="rect4345"
         style="opacity:0.1;color:#000000;fill:#000000;fill-opacity:1;fill-rule:nonzero;stroke:none;stroke-width:1.5;marker:none;visibility:visible;display:inline;overflow:visible;enable-background:accumulate" />
      <path
         d="m 6,93 0,1 c 0,3.324 2.676,6 6,6 l 72,0 c 3.324,0 6,-2.676 6,-6 l 0,-1 c 0,3.324 -2.676,6 -6,6 L 12,99 C 8.676,99 6,96.324 6,93 z"
         inkscape:connector-curvature="0"
         id="rect4336"
         style="opacity:0.15;color:#000000;fill:#000000;fill-opacity:1;fill-rule:nonzero;stroke:none;stroke-width:1.5;marker:none;visibility:visible;display:inline;overflow:visible;enable-background:accumulate" />
    </g>
  </g>
  <g
     id="layer5"
     style="display:inline">
    <path
       d="m 15.96875,22.53125 c -2.845903,0.0043 -5.433244,2.591597 -5.4375,5.4375 l 0,48.0625 c 0.0043,2.845903 2.591597,5.433244 5.4375,5.4375 l 64.0625,0 c 2.845903,-0.0043 5.433244,-2.591597 5.4375,-5.4375 l 0,-48.0625 c -0.0043,-2.845903 -2.591597,-5.433244 -5.4375,-5.4375 z"
       inkscape:connector-curvature="0"
       transform="translate(0,-4)"
       clip-path="url(#clipPath3860)"
       id="path3850"
       style="opacity:0.3;fill:url(#linearGradient3123);fill-opacity:1;fill-rule:nonzero;stroke:none;filter:url(#filter3870)" />
  </g>
  <g
     id="layer6">
    <path
       d="m 47,24 c -1.624225,0 -3,1.375775 -3,3 l 0,6.1875 c -2.364818,1.392641 -4,3.889542 -4,6.8125 0,1.30903 0.408316,2.504763 0.96875,3.59375 L 39.0625,50 36,50 c -1.624225,0 -3,1.375775 -3,3 0,1.624225 1.375775,3 3,3 l 1.28125,0 -1.46875,4.875 c -1.152568,3.863762 -1.75108,7.473102 -1.78125,10.375 -0.01508,1.450949 0.07724,2.70719 0.4375,3.84375 0.360258,1.13656 1.103065,2.38647 2.53125,2.8125 A 1.9942736,1.9942736 0 0 0 39.46875,76.5625 L 45.59375,56 l 4.84375,0 6.125,20.5625 a 1.9942736,1.9942736 0 0 0 2.46875,1.34375 c 1.428185,-0.42603 2.170992,-1.67594 2.53125,-2.8125 C 61.922758,73.95719 62.015085,72.700949 62,71.25 61.96983,68.348102 61.371318,64.738762 60.21875,60.875 L 58.75,56 60,56 c 1.624225,0 3,-1.375775 3,-3 0,-1.624225 -1.375775,-3 -3,-3 L 56.96875,50 55.0625,43.5625 C 55.613617,42.47604 56,41.293356 56,40 56,37.077042 54.364818,34.580141 52,33.1875 L 52,27 c 0,-1.624225 -1.375775,-3 -3,-3 l -2,0 z m 0,2 2,0 c 0.554,0 1,0.446 1,1 l 0,7.34375 c 2.331167,0.82325 4,3.043253 4,5.65625 0,1.267182 -0.391978,2.437702 -1.0625,3.40625 L 55.5,52 60,52 c 0.554,0 1,0.446 1,1 0,0.554 -0.446,1 -1,1 l -3.90625,0 2.21875,7.4375 C 60.52959,68.869865 60.592283,75.366546 58.46875,76 L 51.90625,54 44.125,54 37.5625,76 C 35.438967,75.366546 35.50166,68.869865 37.71875,61.4375 L 39.9375,54 36,54 c -0.554,0 -1,-0.446 -1,-1 0,-0.554 0.446,-1 1,-1 l 4.53125,0 2.5625,-8.5625 C 42.408105,42.462218 42,41.282745 42,40 c 0,-2.612997 1.668833,-4.833 4,-5.65625 L 46,27 c 0,-0.554 0.446,-1 1,-1 z m 1,10 c -2.209139,0 -4,1.790861 -4,4 0,0.321651 0.05331,0.63782 0.125,0.9375 0.0446,0.186425 0.0872,0.35625 0.15625,0.53125 0.07164,0.181827 0.15362,0.36358 0.25,0.53125 0.02663,0.04695 0.06532,0.07928 0.09375,0.125 0.02436,0.03886 0.03686,0.08705 0.0625,0.125 0.04673,0.06947 0.10537,0.12129 0.15625,0.1875 0.112387,0.146256 0.243737,0.308563 0.375,0.4375 0.102083,0.09862 0.200406,0.19385 0.3125,0.28125 0.04161,0.03271 0.08205,0.0627 0.125,0.09375 0.06081,0.04366 0.12421,0.08474 0.1875,0.125 0.166493,0.105914 0.349246,0.20049 0.53125,0.28125 0.02115,0.0094 0.04116,0.02225 0.0625,0.03125 0.226094,0.09492 0.472596,0.1664 0.71875,0.21875 C 47.4259,43.96359 47.713254,44 48,44 c 0.300443,0 0.593483,-0.0622 0.875,-0.125 0.185884,-0.04146 0.356545,-0.0908 0.53125,-0.15625 0.34941,-0.130908 0.67525,-0.314785 0.96875,-0.53125 0.14675,-0.108233 0.307525,-0.216729 0.4375,-0.34375 0.129975,-0.127021 0.232417,-0.262176 0.34375,-0.40625 0.102769,-0.132992 0.19589,-0.291398 0.28125,-0.4375 0.007,-0.01207 0.02435,-0.01911 0.03125,-0.03125 0.08629,-0.151424 0.18386,-0.305026 0.25,-0.46875 0.07263,-0.180337 0.11026,-0.370261 0.15625,-0.5625 C 51.94669,40.63782 52,40.321651 52,40 52,37.790861 50.209139,36 48,36 z m 0,2 c 1.131461,0 2,0.868539 2,2 0,0.101321 -0.0126,0.260171 -0.0625,0.46875 -0.05787,0.241897 -0.08196,0.329555 -0.0625,0.28125 0.02386,-0.05906 -0.0335,0.02487 -0.125,0.1875 -0.0087,0.01474 0.0088,0.0157 0,0.03125 -0.01539,0.02478 -0.01549,0.0041 -0.03125,0.03125 -0.0834,0.142749 -0.134308,0.230795 -0.125,0.21875 -0.118394,0.153212 -0.188633,0.188607 -0.1875,0.1875 0.05196,-0.05078 -0.0244,0.04416 -0.21875,0.1875 -0.160247,0.118187 -0.312419,0.19143 -0.46875,0.25 -0.08344,0.03126 -0.170275,0.069 -0.28125,0.09375 C 48.169858,41.9972 48.025202,42 48,42 c -0.117946,0 -0.281781,0.0019 -0.4375,-0.03125 -0.09296,-0.01977 -0.152887,-0.0342 -0.21875,-0.0625 0.0055,-0.0016 -0.02771,-0.02147 -0.125,-0.0625 -0.01538,-0.0066 -0.01289,0.0081 -0.03125,0 C 47.080709,41.79636 46.968756,41.727263 46.90625,41.6875 46.85242,41.65326 46.82129,41.63131 46.8125,41.625 46.78198,41.60294 46.76366,41.60449 46.75,41.59375 c -0.0033,-0.0026 -0.06029,-0.06362 -0.125,-0.125 -0.0081,-0.0077 0.0092,-0.02245 0,-0.03125 C 46.6161,41.4288 46.5268,41.334967 46.4375,41.21875 46.38992,41.15684 46.3715,41.16037 46.34375,41.125 46.31173,41.0774 46.325,41.08252 46.3125,41.0625 46.29749,41.03835 46.29424,41.05221 46.28125,41.03125 46.267485,41.006981 46.26188,41.020837 46.25,41 c -0.01183,-0.02058 -0.04601,-0.06368 -0.0625,-0.09375 -0.0041,-0.0071 0.0033,-0.02548 0,-0.03125 -0.01279,-0.02078 -0.0618,-0.093 -0.0625,-0.09375 -0.0047,-0.01123 0.0048,-0.01917 0,-0.03125 C 46.11485,40.72429 46.10401,40.642264 46.0625,40.46875 46.012608,40.260204 46,40.101337 46,40 c 0,-1.131461 0.868539,-2 2,-2 z M 46.59375,45.8125 44.75,52 51.3125,52 49.46875,45.8125 C 48.999675,45.93026 48.505602,46 48,46 47.515762,46 47.044767,45.9208 46.59375,45.8125 z M 48,48 c 0.01076,0 0.0205,4.6e-5 0.03125,0 l 0.625,2 -1.25,0 L 48,48 z"
       inkscape:connector-curvature="0"
       id="path4873"
       style="opacity:0.05;fill:#ffffff;fill-opacity:1;stroke:none;display:inline" />
    <path
       d="m 47,24.96875 c -1.113559,0 -2.03125,0.917691 -2.03125,2.03125 l 0,6.75 c -2.351574,1.142654 -4,3.471081 -4,6.25 0,1.288322 0.394865,2.463896 1,3.5 l -2.21875,7.46875 -3.75,0 c -1.113559,0 -2.03125,0.917691 -2.03125,2.03125 0,1.113559 0.917691,2.03125 2.03125,2.03125 l 2.53125,0 -1.8125,6.09375 c -1.131562,3.793344 -1.721167,7.351696 -1.75,10.125 -0.01442,1.386652 0.09474,2.579721 0.40625,3.5625 0.311514,0.982779 0.874969,1.889189 1.875,2.1875 a 1.0426913,1.0426913 0 0 0 1.3125,-0.6875 l 6.34375,-21.28125 6.21875,0 6.34375,21.28125 A 1.0426913,1.0426913 0 0 0 58.78125,77 c 1.000031,-0.298311 1.563486,-1.204721 1.875,-2.1875 0.311514,-0.982779 0.420666,-2.175848 0.40625,-3.5625 -0.02883,-2.773304 -0.618438,-6.331656 -1.75,-10.125 L 57.5,55.03125 l 2.5,0 c 1.113559,0 2.03125,-0.917691 2.03125,-2.03125 0,-1.113559 -0.917691,-2.03125 -2.03125,-2.03125 l -3.71875,0 -2.21875,-7.5 C 54.653838,42.438076 55.03125,41.269738 55.03125,40 c 0,-2.778919 -1.648426,-5.107346 -4,-6.25 l 0,-6.75 c 0,-1.113559 -0.917691,-2.03125 -2.03125,-2.03125 l -2,0 z M 47,26 l 2,0 c 0.554,0 1,0.446 1,1 l 0,7.34375 c 2.331167,0.82325 4,3.043253 4,5.65625 0,1.267182 -0.391978,2.437702 -1.0625,3.40625 L 55.5,52 60,52 c 0.554,0 1,0.446 1,1 0,0.554 -0.446,1 -1,1 l -3.90625,0 2.21875,7.4375 C 60.52959,68.869865 60.592283,75.366546 58.46875,76 L 51.90625,54 44.125,54 37.5625,76 C 35.438967,75.366546 35.50166,68.869865 37.71875,61.4375 L 39.9375,54 36,54 c -0.554,0 -1,-0.446 -1,-1 0,-0.554 0.446,-1 1,-1 l 4.53125,0 2.5625,-8.5625 C 42.408105,42.462218 42,41.282745 42,40 c 0,-2.612997 1.668833,-4.833 4,-5.65625 L 46,27 c 0,-0.554 0.446,-1 1,-1 z m 1,10 c -2.209139,0 -4,1.790861 -4,4 0,0.321651 0.05331,0.63782 0.125,0.9375 0.0446,0.186425 0.0872,0.35625 0.15625,0.53125 0.07164,0.181827 0.15362,0.36358 0.25,0.53125 0.02663,0.04695 0.06532,0.07928 0.09375,0.125 0.02436,0.03886 0.03686,0.08705 0.0625,0.125 0.04673,0.06947 0.10537,0.12129 0.15625,0.1875 0.112387,0.146256 0.243737,0.308563 0.375,0.4375 0.102083,0.09862 0.200406,0.19385 0.3125,0.28125 0.04161,0.03271 0.08205,0.0627 0.125,0.09375 0.06081,0.04366 0.12421,0.08474 0.1875,0.125 0.166493,0.105914 0.349246,0.20049 0.53125,0.28125 0.02115,0.0094 0.04116,0.02225 0.0625,0.03125 0.226094,0.09492 0.472596,0.1664 0.71875,0.21875 C 47.4259,43.96359 47.713254,44 48,44 c 0.300443,0 0.593483,-0.0622 0.875,-0.125 0.185884,-0.04146 0.356545,-0.0908 0.53125,-0.15625 0.34941,-0.130908 0.67525,-0.314785 0.96875,-0.53125 0.14675,-0.108233 0.307525,-0.216729 0.4375,-0.34375 0.129975,-0.127021 0.232417,-0.262176 0.34375,-0.40625 0.102769,-0.132992 0.19589,-0.291398 0.28125,-0.4375 0.007,-0.01207 0.02435,-0.01911 0.03125,-0.03125 0.08629,-0.151424 0.18386,-0.305026 0.25,-0.46875 0.07263,-0.180337 0.11026,-0.370261 0.15625,-0.5625 C 51.94669,40.63782 52,40.321651 52,40 52,37.790861 50.209139,36 48,36 z m 0,1.03125 c 1.645683,0 2.96875,1.323067 2.96875,2.96875 0,0.206453 -0.03345,0.435451 -0.09375,0.6875 -0.0522,0.218202 -0.100516,0.376707 -0.125,0.4375 -0.01758,0.04351 -0.08398,0.130829 -0.1875,0.3125 -0.0078,0.01178 0.008,0.01833 0,0.03125 -0.0072,0.01163 -0.02394,-0.0126 -0.03125,0 -0.08434,0.144349 -0.14333,0.28659 -0.1875,0.34375 -0.115025,0.148852 -0.188574,0.22122 -0.25,0.28125 -0.03485,0.03406 -0.172112,0.123411 -0.34375,0.25 -0.22383,0.165081 -0.47029,0.313163 -0.71875,0.40625 -0.126988,0.04758 -0.228281,0.06102 -0.375,0.09375 -0.274262,0.06118 -0.499715,0.125 -0.65625,0.125 -0.19849,0 -0.414918,-0.04908 -0.625,-0.09375 -0.171475,-0.03647 -0.330499,-0.0725 -0.46875,-0.125 0.0041,-0.0019 -0.01672,-0.01194 -0.0625,-0.03125 -0.01291,-0.0051 -0.01303,0.0081 -0.03125,0 -0.142679,-0.06331 -0.294126,-0.147423 -0.40625,-0.21875 -0.04976,-0.03166 -0.093,-0.07146 -0.125,-0.09375 -0.0084,-0.0061 -0.02364,0.0056 -0.03125,0 -0.02535,-0.01857 -0.04173,-0.04617 -0.0625,-0.0625 C 46.13187,42.30037 46.040192,42.224209 45.9375,42.125 45.87023,42.05892 45.756568,41.94305 45.65625,41.8125 45.529711,41.647835 45.517826,41.589844 45.5625,41.65625 45.678068,41.827303 45.64513,41.794022 45.5,41.5625 45.46184,41.50114 45.45675,41.49662 45.4375,41.46875 45.37605,41.36185 45.309066,41.243661 45.25,41.09375 45.21175,40.99681 45.16798,40.867174 45.125,40.6875 45.0647,40.435468 45.03125,40.206462 45.03125,40 c 0,-1.645683 1.323067,-2.96875 2.96875,-2.96875 z M 46.59375,45.8125 44.75,52 51.3125,52 49.46875,45.8125 C 48.999675,45.93026 48.505602,46 48,46 47.515762,46 47.044767,45.9208 46.59375,45.8125 z m 0.75,1.125 c 0.222482,0.02581 0.419009,0.09375 0.65625,0.09375 0.251625,0 0.47609,-0.06694 0.71875,-0.09375 l 1.1875,4.03125 -3.75,0 1.1875,-4.03125 z"
       inkscape:connector-curvature="0"
       id="path4862"
       style="opacity:0.1;fill:#ffffff;fill-opacity:1;stroke:none;display:inline" />
    <path
       d="m 47,26 c -0.554,0 -1,0.446 -1,1 l 0,7.34375 C 43.668833,35.167 42,37.387003 42,40 c 0,1.282745 0.408105,2.462218 1.09375,3.4375 L 40.53125,52 36,52 c -0.554,0 -1,0.446 -1,1 0,0.554 0.446,1 1,1 l 3.9375,0 -2.21875,7.4375 C 35.50166,68.869865 35.438967,75.366546 37.5625,76 l 6.5625,-22 7.78125,0 6.5625,22 C 60.592283,75.366546 60.52959,68.869865 58.3125,61.4375 L 56.09375,54 60,54 c 0.554,0 1,-0.446 1,-1 0,-0.554 -0.446,-1 -1,-1 l -4.5,0 -2.5625,-8.59375 C 53.608022,42.437702 54,41.267182 54,40 54,37.387003 52.331167,35.167 50,34.34375 L 50,27 c 0,-0.554 -0.446,-1 -1,-1 l -2,0 z m 1,10 c 2.209139,0 4,1.790861 4,4 0,0.321651 -0.05331,0.63782 -0.125,0.9375 -0.04599,0.192239 -0.08362,0.382163 -0.15625,0.5625 -0.06614,0.163724 -0.163714,0.317326 -0.25,0.46875 -0.0069,0.01214 -0.02425,0.01918 -0.03125,0.03125 -0.08536,0.146102 -0.178481,0.304508 -0.28125,0.4375 -0.111333,0.144074 -0.213775,0.279229 -0.34375,0.40625 -0.129975,0.127021 -0.29075,0.235517 -0.4375,0.34375 -0.2935,0.216465 -0.61934,0.400342 -0.96875,0.53125 C 49.231545,43.784204 49.060884,43.833537 48.875,43.875 48.593483,43.937795 48.300443,44 48,44 47.713254,44 47.4259,43.96359 47.15625,43.90625 46.910096,43.8539 46.663594,43.782417 46.4375,43.6875 46.41616,43.6785 46.39615,43.66563 46.375,43.65625 46.192996,43.57549 46.010243,43.480914 45.84375,43.375 45.78046,43.33474 45.71706,43.29366 45.65625,43.25 45.6133,43.21895 45.57286,43.18896 45.53125,43.15625 45.419156,43.06885 45.320833,42.973621 45.21875,42.875 45.087487,42.746063 44.956137,42.583756 44.84375,42.4375 44.79287,42.37129 44.734233,42.319467 44.6875,42.25 44.66186,42.21205 44.64936,42.16386 44.625,42.125 44.59657,42.07928 44.55788,42.04695 44.53125,42 44.43487,41.83233 44.352891,41.650577 44.28125,41.46875 44.212195,41.29375 44.169599,41.123925 44.125,40.9375 44.053306,40.63782 44,40.321651 44,40 c 0,-2.209139 1.790861,-4 4,-4 z m -1.40625,9.8125 C 47.044767,45.920804 47.515762,46 48,46 c 0.505602,0 0.999675,-0.06974 1.46875,-0.1875 L 51.3125,52 44.75,52 46.59375,45.8125 z"
       inkscape:connector-curvature="0"
       id="rect2957"
       style="opacity:0.9;fill:url(#linearGradient3098);fill-opacity:1;stroke:none;display:inline" />
    <path
       d="m 47,26 c -0.554,0 -1,0.446 -1,1 l 0,7.34375 C 43.668833,35.167 42,37.387003 42,40 c 0,1.282745 0.408105,2.462218 1.09375,3.4375 L 40.53125,52 36,52 c -0.554,0 -1,0.446 -1,1 0,0.554 0.446,1 1,1 l 3.9375,0 -2.21875,7.4375 C 35.50166,68.869865 35.438967,75.366546 37.5625,76 l 6.5625,-22 7.78125,0 6.5625,22 C 60.592283,75.366546 60.52959,68.869865 58.3125,61.4375 L 56.09375,54 60,54 c 0.554,0 1,-0.446 1,-1 0,-0.554 -0.446,-1 -1,-1 l -4.5,0 -2.5625,-8.59375 C 53.608022,42.437702 54,41.267182 54,40 54,37.387003 52.331167,35.167 50,34.34375 L 50,27 c 0,-0.554 -0.446,-1 -1,-1 l -2,0 z m 1,10 c 2.209139,0 4,1.790861 4,4 0,0.321651 -0.05331,0.63782 -0.125,0.9375 -0.04599,0.192239 -0.08362,0.382163 -0.15625,0.5625 -0.06614,0.163724 -0.163714,0.317326 -0.25,0.46875 -0.0069,0.01214 -0.02425,0.01918 -0.03125,0.03125 -0.08536,0.146102 -0.178481,0.304508 -0.28125,0.4375 -0.111333,0.144074 -0.213775,0.279229 -0.34375,0.40625 -0.129975,0.127021 -0.29075,0.235517 -0.4375,0.34375 -0.2935,0.216465 -0.61934,0.400342 -0.96875,0.53125 C 49.231545,43.784204 49.060884,43.833537 48.875,43.875 48.593483,43.937795 48.300443,44 48,44 47.713254,44 47.4259,43.96359 47.15625,43.90625 46.910096,43.8539 46.663594,43.782417 46.4375,43.6875 46.41616,43.6785 46.39615,43.66563 46.375,43.65625 46.192996,43.57549 46.010243,43.480914 45.84375,43.375 45.78046,43.33474 45.71706,43.29366 45.65625,43.25 45.6133,43.21895 45.57286,43.18896 45.53125,43.15625 45.419156,43.06885 45.320833,42.973621 45.21875,42.875 45.087487,42.746063 44.956137,42.583756 44.84375,42.4375 44.79287,42.37129 44.734233,42.319467 44.6875,42.25 44.66186,42.21205 44.64936,42.16386 44.625,42.125 44.59657,42.07928 44.55788,42.04695 44.53125,42 44.43487,41.83233 44.352891,41.650577 44.28125,41.46875 44.212195,41.29375 44.169599,41.123925 44.125,40.9375 44.053306,40.63782 44,40.321651 44,40 c 0,-2.209139 1.790861,-4 4,-4 z m 3.3125,8.9375 0.0625,0.1875 a 2.0002,2.0002 0 0 0 -0.09375,-0.15625 c 0.01141,-0.0076 0.01991,-0.0236 0.03125,-0.03125 z M 44.6875,45 c 0.02231,0.01448 0.04298,0.05006 0.0625,0.0625 A 2.0002,2.0002 0 0 0 44.6875,45.25 l -1.84375,6.1875 A 2.0002,2.0002 0 0 0 42.8125,52.5 a 2.0002,2.0002 0 0 0 0,0.03125 2.0002,2.0002 0 0 0 -0.59375,0.90625 l -2.75,9.15625 C 39.527547,62.386068 39.562553,62.209341 39.625,62 l 2.21875,-7.4375 A 2.0002,2.0002 0 0 0 41.875,53.46875 2.0002,2.0002 0 0 0 42.4375,52.5625 L 44.6875,45 z m 6.6875,0.25 2.21875,7.3125 a 2.0002,2.0002 0 0 0 0.5625,0.90625 2.0002,2.0002 0 0 0 0.03125,1.09375 L 56.40625,62 c 0.06245,0.209341 0.09745,0.386068 0.15625,0.59375 l -2.75,-9.15625 A 2.0002,2.0002 0 0 0 53.25,52.53125 2.0002,2.0002 0 0 0 53.21875,51.4375 L 51.375,45.25 z m -4.78125,0.5625 C 47.044767,45.920804 47.515762,46 48,46 c 0.505602,0 0.999675,-0.06974 1.46875,-0.1875 L 51.3125,52 44.75,52 46.59375,45.8125 z"
       inkscape:connector-curvature="0"
       id="path4832"
       style="opacity:0.25;fill:url(#linearGradient4845);fill-opacity:1;stroke:none;display:inline" />
    <path
       d="m 47,26 c -0.554,0 -1,0.446 -1,1 l 0,1 c 0,-0.554 0.446,-1 1,-1 l 2,0 c 0.554,0 1,0.446 1,1 l 0,-1 c 0,-0.554 -0.446,-1 -1,-1 l -2,0 z m -1,8.34375 C 43.668833,35.167 42,37.387003 42,40 c 0,0.170985 0.01706,0.332924 0.03125,0.5 C 42.228748,38.106901 43.819211,36.113894 46,35.34375 l 0,-1 z m 4,0 0,1 C 52.180789,36.113894 53.771252,38.106901 53.96875,40.5 53.982411,40.334774 54,40.168911 54,40 54,37.387003 52.331167,35.167 50,34.34375 z M 44.0625,40.5625 C 44.046594,40.707421 44,40.850843 44,41 c 0,0.321651 0.05331,0.63782 0.125,0.9375 0.0446,0.186425 0.0872,0.35625 0.15625,0.53125 0.07164,0.181827 0.15362,0.36358 0.25,0.53125 0.02663,0.04695 0.06532,0.07928 0.09375,0.125 0.02436,0.03886 0.03686,0.08705 0.0625,0.125 0.04673,0.06947 0.10537,0.12129 0.15625,0.1875 0.112387,0.146256 0.243737,0.308563 0.375,0.4375 0.102083,0.09862 0.200406,0.19385 0.3125,0.28125 0.04161,0.03271 0.08205,0.0627 0.125,0.09375 0.06081,0.04366 0.12421,0.08474 0.1875,0.125 0.166493,0.105914 0.349246,0.20049 0.53125,0.28125 0.02115,0.0094 0.04116,0.02225 0.0625,0.03125 0.226094,0.09492 0.472596,0.1664 0.71875,0.21875 C 47.4259,44.96359 47.713254,45 48,45 c 0.300443,0 0.593483,-0.0622 0.875,-0.125 0.185884,-0.04146 0.356545,-0.0908 0.53125,-0.15625 0.34941,-0.130908 0.67525,-0.314785 0.96875,-0.53125 0.14675,-0.108233 0.307525,-0.216729 0.4375,-0.34375 0.129975,-0.127021 0.232417,-0.262176 0.34375,-0.40625 0.102769,-0.132992 0.19589,-0.291398 0.28125,-0.4375 0.007,-0.01207 0.02435,-0.01911 0.03125,-0.03125 0.08629,-0.151424 0.18386,-0.305026 0.25,-0.46875 0.07263,-0.180337 0.11026,-0.370261 0.15625,-0.5625 C 51.94669,41.63782 52,41.321651 52,41 c 0,-0.149157 -0.04659,-0.292579 -0.0625,-0.4375 -0.02049,0.123622 -0.03401,0.255896 -0.0625,0.375 -0.04599,0.192239 -0.08362,0.382163 -0.15625,0.5625 -0.06614,0.163724 -0.163714,0.317326 -0.25,0.46875 -0.0069,0.01214 -0.02425,0.01918 -0.03125,0.03125 -0.08536,0.146102 -0.178481,0.304508 -0.28125,0.4375 -0.111333,0.144074 -0.213775,0.279229 -0.34375,0.40625 -0.129975,0.127021 -0.29075,0.235517 -0.4375,0.34375 -0.2935,0.216465 -0.61934,0.400342 -0.96875,0.53125 C 49.231545,43.784204 49.060884,43.833537 48.875,43.875 48.593483,43.937795 48.300443,44 48,44 47.713254,44 47.4259,43.96359 47.15625,43.90625 46.910096,43.8539 46.663594,43.782417 46.4375,43.6875 46.41616,43.6785 46.39615,43.66563 46.375,43.65625 46.192996,43.57549 46.010243,43.480914 45.84375,43.375 45.78046,43.33474 45.71706,43.29366 45.65625,43.25 45.6133,43.21895 45.57286,43.18896 45.53125,43.15625 45.419156,43.06885 45.320833,42.973621 45.21875,42.875 45.087487,42.746063 44.956137,42.583756 44.84375,42.4375 44.79287,42.37129 44.734233,42.319467 44.6875,42.25 44.66186,42.21205 44.64936,42.16386 44.625,42.125 44.59657,42.07928 44.55788,42.04695 44.53125,42 c -0.09638,-0.16767 -0.178359,-0.349423 -0.25,-0.53125 -0.06905,-0.175 -0.111651,-0.344825 -0.15625,-0.53125 -0.02849,-0.119104 -0.04201,-0.251378 -0.0625,-0.375 z m 9.0625,3.5 c -0.06833,0.114129 -0.111936,0.2346 -0.1875,0.34375 L 55.5,53 60,53 c 0.366099,0 0.669517,0.208009 0.84375,0.5 C 60.933176,53.350135 61,53.187901 61,53 61,52.446 60.554,52 60,52 l -4.5,0 -2.375,-7.9375 z M 42.90625,44.09375 40.53125,52 36,52 c -0.554,0 -1,0.446 -1,1 0,0.187901 0.06682,0.350135 0.15625,0.5 C 35.330483,53.208009 35.633901,53 36,53 l 4.53125,0 2.5625,-8.5625 c -0.07361,-0.104699 -0.120453,-0.234469 -0.1875,-0.34375 z M 45.0625,52 44.75,53 51.3125,53 51,52 45.0625,52 z m -5.4375,3 -1.90625,6.4375 c -1.200975,4.026036 -1.755904,7.775043 -1.6875,10.46875 0.07198,-2.586724 0.627932,-5.916752 1.6875,-9.46875 L 39.9375,55 39.625,55 z m 16.46875,0 2.21875,7.4375 C 59.372068,65.989498 59.928024,69.319526 60,71.90625 60.0684,69.212543 59.513475,65.463536 58.3125,61.4375 L 56.40625,55 l -0.3125,0 z"
       inkscape:connector-curvature="0"
       id="path4806"
       style="fill:url(#linearGradient4830);fill-opacity:1;stroke:none;display:inline" />
    <path
       d="m 47,26 c -0.554,0 -1,0.446 -1,1 l 0,7.34375 C 43.668833,35.167 42,37.387003 42,40 c 0,1.282745 0.408105,2.462218 1.09375,3.4375 L 40.53125,52 36,52 c -0.554,0 -1,0.446 -1,1 0,0.554 0.446,1 1,1 l 3.9375,0 -2.21875,7.4375 C 35.50166,68.869865 35.438967,75.366546 37.5625,76 l 6.5625,-22 7.78125,0 6.5625,22 C 60.592283,75.366546 60.52959,68.869865 58.3125,61.4375 L 56.09375,54 60,54 c 0.554,0 1,-0.446 1,-1 0,-0.554 -0.446,-1 -1,-1 l -4.5,0 -2.5625,-8.59375 C 53.608022,42.437702 54,41.267182 54,40 54,37.387003 52.331167,35.167 50,34.34375 L 50,27 c 0,-0.554 -0.446,-1 -1,-1 l -2,0 z m 0,1 2,0 0,7.34375 a 1.0001,1.0001 0 0 0 0.65625,0.9375 c 0.05032,0.01777 0.07543,0.07444 0.125,0.09375 C 49.223211,35.158432 48.632067,35 48,35 c -0.632067,0 -1.223211,0.158432 -1.78125,0.375 0.04957,-0.01931 0.07468,-0.07598 0.125,-0.09375 A 1.0001,1.0001 0 0 0 47,34.34375 L 47,27 z m 1,9 c 2.209139,0 4,1.790861 4,4 0,0.321651 -0.05331,0.63782 -0.125,0.9375 -0.04599,0.192239 -0.08362,0.382163 -0.15625,0.5625 -0.06614,0.163724 -0.163714,0.317326 -0.25,0.46875 -0.0069,0.01214 -0.02425,0.01918 -0.03125,0.03125 -0.08536,0.146102 -0.178481,0.304508 -0.28125,0.4375 -0.111333,0.144074 -0.213775,0.279229 -0.34375,0.40625 -0.129975,0.127021 -0.29075,0.235517 -0.4375,0.34375 -0.2935,0.216465 -0.61934,0.400342 -0.96875,0.53125 C 49.231545,43.784204 49.060884,43.833537 48.875,43.875 48.593483,43.937795 48.300443,44 48,44 47.713254,44 47.4259,43.96359 47.15625,43.90625 46.910096,43.8539 46.663594,43.782417 46.4375,43.6875 46.41616,43.6785 46.39615,43.66563 46.375,43.65625 46.192996,43.57549 46.010243,43.480914 45.84375,43.375 45.78046,43.33474 45.71706,43.29366 45.65625,43.25 45.6133,43.21895 45.57286,43.18896 45.53125,43.15625 45.419156,43.06885 45.320833,42.973621 45.21875,42.875 45.087487,42.746063 44.956137,42.583756 44.84375,42.4375 44.79287,42.37129 44.734233,42.319467 44.6875,42.25 44.66186,42.21205 44.64936,42.16386 44.625,42.125 44.59657,42.07928 44.55788,42.04695 44.53125,42 44.43487,41.83233 44.352891,41.650577 44.28125,41.46875 44.212195,41.29375 44.169599,41.123925 44.125,40.9375 44.053306,40.63782 44,40.321651 44,40 c 0,-2.209139 1.790861,-4 4,-4 z m 4.15625,6.71875 c -0.02332,0.03555 -0.007,0.09004 -0.03125,0.125 a 1.0001,1.0001 0 0 0 -0.0625,0.0625 c 0.04046,-0.05986 0.06045,-0.132845 0.09375,-0.1875 z m -8.1875,0.21875 c 0.02441,0.02586 0.103045,0.105846 0.09375,0.09375 0.123963,0.16132 0.27611,0.373273 0.46875,0.5625 0.101499,0.09806 0.20875,0.214124 0.375,0.34375 0.05562,0.04373 0.107066,0.08944 0.15625,0.125 0.0869,0.06239 0.181964,0.112971 0.25,0.15625 0.218641,0.139088 0.436528,0.246253 0.65625,0.34375 -0.07506,-0.03329 -0.03587,-0.02342 0.09375,0.03125 a 1.0001,1.0001 0 0 0 0,0.03125 c 0.215139,0.09032 0.412535,0.134963 0.625,0.1875 a 1.0001,1.0001 0 0 0 -1.0625,0.71875 l -1.84375,6.1875 A 1.0001,1.0001 0 0 0 44.5625,53 l -0.4375,0 a 1.0001,1.0001 0 0 0 -0.96875,0.71875 l -5.90625,19.75 c -0.122763,-0.621612 -0.259766,-1.248114 -0.25,-2.1875 0.02596,-2.497247 0.601032,-5.920327 1.6875,-9.5625 l 2.21875,-7.4375 A 1.0001,1.0001 0 0 0 40.125,53 l 0.40625,0 A 1.0001,1.0001 0 0 0 41.5,52.28125 l 2.5625,-8.5625 A 1.0001,1.0001 0 0 0 43.96875,42.9375 z M 52,43 a 1.0001,1.0001 0 0 0 -0.03125,0.6875 l 2.5625,8.59375 A 1.0001,1.0001 0 0 0 55.5,53 l 0.40625,0 A 1.0001,1.0001 0 0 0 55.125,54.28125 l 2.21875,7.4375 c 1.086468,3.642173 1.661537,7.065253 1.6875,9.5625 0.0098,0.939386 -0.127237,1.565888 -0.25,2.1875 L 52.875,53.71875 A 1.0001,1.0001 0 0 0 51.90625,53 L 51.5,53 a 1.0001,1.0001 0 0 0 0.78125,-1.28125 l -1.84375,-6.1875 a 1.0001,1.0001 0 0 0 -1.21875,-0.6875 c -0.04023,0.0101 -0.08449,-0.0092 -0.125,0 0.22345,-0.04984 0.435777,-0.104899 0.65625,-0.1875 0.446236,-0.167184 0.858426,-0.3905 1.21875,-0.65625 0.122879,-0.09063 0.310039,-0.221316 0.53125,-0.4375 0.195724,-0.191275 0.329708,-0.360508 0.4375,-0.5 C 51.95808,43.035867 51.981734,43.0215 52,43 z m -5.40625,2.8125 C 47.044767,45.920804 47.515762,46 48,46 c 0.505602,0 0.999675,-0.06974 1.46875,-0.1875 L 51.3125,52 44.75,52 46.59375,45.8125 z"
       inkscape:connector-curvature="0"
       id="path4815"
       style="opacity:0.5;fill:url(#linearGradient4828);fill-opacity:1;stroke:none;display:inline" />
    <path
       d="m 48,36 c -2.209139,0 -4,1.790861 -4,4 0,0.193815 0.03143,0.375074 0.0625,0.5625 C 44.282169,38.561022 45.940018,37 48,37 c 2.059982,0 3.717831,1.561022 3.9375,3.5625 C 51.96857,40.375074 52,40.193815 52,40 52,37.790861 50.209139,36 48,36 z m -5.96875,4.5 C 42.017631,40.665018 42,40.831441 42,41 c 0,1.145039 0.348747,2.185071 0.90625,3.09375 l 0.1875,-0.65625 C 42.499499,42.59222 42.123535,41.586344 42.03125,40.5 z m 11.9375,0 c -0.08882,1.074315 -0.450106,2.066806 -1.03125,2.90625 L 53.125,44.0625 C 53.662974,43.163896 54,42.124378 54,41 54,40.831441 53.98237,40.665018 53.96875,40.5 z m -7.375,5.3125 L 44.75,52 l 0.3125,0 1.53125,-5.1875 C 47.044767,46.920804 47.515762,47 48,47 c 0.505602,0 0.999675,-0.06974 1.46875,-0.1875 L 51,52 51.3125,52 49.46875,45.8125 C 48.999675,45.93026 48.505602,46 48,46 47.515762,46 47.044767,45.9208 46.59375,45.8125 z M 35.15625,53.5 C 35.066824,53.649865 35,53.812099 35,54 c 0,0.554 0.446,1 1,1 l 3.625,0 0.3125,-1 L 36,54 c -0.366099,0 -0.669517,-0.208009 -0.84375,-0.5 z m 25.6875,0 C 60.669517,53.791991 60.366099,54 60,54 l -3.90625,0 0.3125,1 L 60,55 c 0.554,0 1,-0.446 1,-1 0,-0.187901 -0.06682,-0.350135 -0.15625,-0.5 z M 44.125,54 37.5625,76 C 36.589263,75.709682 36.089125,74.185329 36.03125,71.90625 35.95262,74.732108 36.453824,76.66928 37.5625,77 l 6.5625,-22 7.78125,0 6.5625,22 C 59.577426,76.66928 60.07863,74.732108 60,71.90625 59.942125,74.185329 59.441987,75.709682 58.46875,76 L 51.90625,54 44.125,54 z"
       inkscape:connector-curvature="0"
       id="path4847"
       style="opacity:0.2;fill:#ffffff;fill-opacity:1;stroke:none;display:inline" />
  </g>
</svg>
