<?xml version="1.0" encoding="UTF-8" standalone="no"?>
<!-- Created with Inkscape (http://www.inkscape.org/) -->

<svg
   xmlns:dc="http://purl.org/dc/elements/1.1/"
   xmlns:cc="http://creativecommons.org/ns#"
   xmlns:rdf="http://www.w3.org/1999/02/22-rdf-syntax-ns#"
   xmlns:svg="http://www.w3.org/2000/svg"
   xmlns="http://www.w3.org/2000/svg"
   xmlns:xlink="http://www.w3.org/1999/xlink"
   xmlns:inkscape="http://www.inkscape.org/namespaces/inkscape"
   version="1.0"
   width="96"
   height="96"
   id="svg2408">
  <defs
     id="defs2410">
    <linearGradient
       id="linearGradient3894">
      <stop
         id="stop3901"
         style="stop-color:#c75026;stop-opacity:1"
         offset="0" />
      <stop
         id="stop3905"
         style="stop-color:#eb9d48;stop-opacity:1"
         offset="1" />
    </linearGradient>
    <linearGradient
       id="linearGradient3885">
      <stop
         id="stop3887"
         style="stop-color:#eb7731;stop-opacity:1"
         offset="0" />
      <stop
         id="stop3889"
         style="stop-color:#e59343;stop-opacity:1"
         offset="0.5" />
      <stop
         id="stop3891"
         style="stop-color:#e5b66b;stop-opacity:1"
         offset="1" />
    </linearGradient>
    <linearGradient
       id="linearGradient3874">
      <stop
         id="stop3876"
         style="stop-color:#ffa32d;stop-opacity:1"
         offset="0" />
      <stop
         id="stop3878"
         style="stop-color:#ffe4c1;stop-opacity:0"
         offset="1" />
    </linearGradient>
    <linearGradient
       x1="11.794092"
       y1="3.2126782"
       x2="11.794092"
       y2="20.137329"
       id="linearGradient3317"
       gradientUnits="userSpaceOnUse"
       gradientTransform="scale(1.0598527,0.9435274)">
      <stop
         id="stop3319"
         style="stop-color:#c6953a;stop-opacity:1"
         offset="0" />
      <stop
         id="stop3321"
         style="stop-color:#ab7a1f;stop-opacity:1"
         offset="1" />
    </linearGradient>
    <linearGradient
       x1="48.035713"
       y1="25.910715"
       x2="48.035713"
       y2="85.821426"
       id="linearGradient3361"
       xlink:href="#linearGradient3317"
       gradientUnits="userSpaceOnUse" />
    <linearGradient
       x1="45.447727"
       y1="80.471962"
       x2="45.447727"
       y2="7.0165396"
       id="ButtonShadow"
       gradientUnits="userSpaceOnUse"
       gradientTransform="matrix(1.0058652,0,0,0.994169,0,12)">
      <stop
         id="stop3750"
         style="stop-color:#000000;stop-opacity:1"
         offset="0" />
      <stop
         id="stop3752"
         style="stop-color:#000000;stop-opacity:0.58823532"
         offset="1" />
    </linearGradient>
    <linearGradient
       x1="48"
       y1="78"
       x2="48"
       y2="5.9877172"
       id="linearGradient3706"
       xlink:href="#linearGradient3885"
       gradientUnits="userSpaceOnUse"
       gradientTransform="translate(0,8)" />
    <filter
       color-interpolation-filters="sRGB"
       id="filter3174">
      <feGaussianBlur
         id="feGaussianBlur3176"
         stdDeviation="1.71" />
    </filter>
    <linearGradient
       x1="45.447727"
       y1="80.471962"
       x2="45.447727"
       y2="5.297224"
       id="linearGradient3664"
       xlink:href="#ButtonShadow"
       gradientUnits="userSpaceOnUse"
       gradientTransform="matrix(1.0058652,0,0,0.994169,0,12)" />
    <clipPath
       id="clipPath3860">
      <rect
         width="84"
         height="72"
         rx="6"
         ry="6"
         x="6"
         y="18"
         id="rect3862"
         style="fill:#ff00ff;fill-opacity:1;fill-rule:nonzero;stroke:none" />
    </clipPath>
    <filter
       x="-0.16558799"
       y="-0.19715989"
       width="1.331176"
       height="1.3943198"
       color-interpolation-filters="sRGB"
       id="filter3870">
      <feGaussianBlur
         id="feGaussianBlur3872"
         stdDeviation="5.1703125" />
    </filter>
    <linearGradient
       id="linearGradient3892">
      <stop
         id="stop3894"
         style="stop-color:#000000;stop-opacity:0.58823532"
         offset="0" />
      <stop
         id="stop3896"
         style="stop-color:#000000;stop-opacity:0.47058824"
         offset="0.11780351" />
      <stop
         id="stop3898"
         style="stop-color:#000000;stop-opacity:0.39215687"
         offset="0.23809524" />
      <stop
         id="stop3900"
         style="stop-color:#000000;stop-opacity:0.3137255"
         offset="1" />
    </linearGradient>
    <linearGradient
       id="linearGradient4384">
      <stop
         id="stop4386"
         style="stop-color:#ffffff;stop-opacity:1"
         offset="0" />
      <stop
         id="stop4388"
         style="stop-color:#ffffff;stop-opacity:0"
         offset="1" />
    </linearGradient>
    <linearGradient
       x1="48"
       y1="75.08329"
       x2="48"
       y2="-40"
       id="linearGradient3094"
       xlink:href="#linearGradient4384"
       gradientUnits="userSpaceOnUse"
       gradientTransform="matrix(1,0,0,-1,0,92)" />
    <linearGradient
       x1="48.021698"
       y1="22.933374"
       x2="48.021698"
       y2="81.481377"
       id="linearGradient3123"
       xlink:href="#linearGradient3874"
       gradientUnits="userSpaceOnUse" />
    <linearGradient
       x1="37.611111"
       y1="27.111111"
       x2="37.611111"
       y2="21.555555"
       id="linearGradient3105"
       xlink:href="#linearGradient3894"
       gradientUnits="userSpaceOnUse"
       gradientTransform="matrix(0.72,0,0,0.72,1.92,-5.52)" />
    <linearGradient
       x1="43"
       y1="91"
       x2="43"
       y2="7"
       id="linearGradient3952"
       xlink:href="#ButtonShadow"
       gradientUnits="userSpaceOnUse" />
    <linearGradient
       x1="45"
       y1="92"
       x2="45"
       y2="7"
       id="linearGradient3961"
       xlink:href="#ButtonShadow"
       gradientUnits="userSpaceOnUse" />
    <linearGradient
       x1="45"
       y1="92"
       x2="45"
       y2="7"
       id="linearGradient3969"
       xlink:href="#ButtonShadow"
       gradientUnits="userSpaceOnUse" />
    <linearGradient
       x1="45"
       y1="92"
       x2="45"
       y2="7"
       id="linearGradient3977"
       xlink:href="#ButtonShadow"
       gradientUnits="userSpaceOnUse" />
    <linearGradient
       x1="45"
       y1="92"
       x2="45"
       y2="7"
       id="linearGradient3986"
       xlink:href="#ButtonShadow"
       gradientUnits="userSpaceOnUse" />
    <linearGradient
       x1="90"
       y1="88"
       x2="48"
       y2="88"
       id="linearGradient3906"
       xlink:href="#linearGradient3892"
       gradientUnits="userSpaceOnUse"
       gradientTransform="translate(0,10)"
       spreadMethod="reflect" />
    <linearGradient
       id="linearGradient3877">
      <stop
         id="stop3879"
         style="stop-color:#da682a;stop-opacity:0.78431374"
         offset="0" />
      <stop
         id="stop3883"
         style="stop-color:#da682a;stop-opacity:0.39215687"
         offset="1" />
    </linearGradient>
    <linearGradient
       x1="51.17857"
       y1="76.408951"
       x2="51.17857"
       y2="31.782455"
       id="linearGradient3093"
       xlink:href="#linearGradient3877"
       gradientUnits="userSpaceOnUse"
       gradientTransform="translate(0,-4)" />
    <linearGradient
       x1="51.17857"
       y1="76.408951"
       x2="51.17857"
       y2="31.782455"
       id="linearGradient5048"
       xlink:href="#linearGradient3877"
       gradientUnits="userSpaceOnUse"
       gradientTransform="translate(0,-4)" />
    <linearGradient
       x1="51.17857"
       y1="76.408951"
       x2="51.17857"
       y2="31.782455"
       id="linearGradient5035"
       xlink:href="#linearGradient3877"
       gradientUnits="userSpaceOnUse"
       gradientTransform="translate(0,-4)" />
    <linearGradient
       x1="51.17857"
       y1="76.408951"
       x2="51.17857"
       y2="31.782455"
       id="linearGradient5022"
       xlink:href="#linearGradient3877"
       gradientUnits="userSpaceOnUse"
       gradientTransform="translate(0,-4)" />
  </defs>
  <metadata
     id="metadata2413">
    <rdf:RDF>
      <cc:Work
         rdf:about="">
        <dc:format>image/svg+xml</dc:format>
        <dc:type
           rdf:resource="http://purl.org/dc/dcmitype/StillImage" />
        <dc:title />
      </cc:Work>
    </rdf:RDF>
  </metadata>
  <g
     id="layer2"
     style="display:none">
    <path
       d="M 14.96875,8.8028918 C 13.32891,8.8028918 12,10.085142 12,11.677892 L 12,19 c -3.324,0 -7,2.676 -7,6 l 0,61 c 0,3.324 2.676,6 6,6 l 74,0 c 3.324,0 6,-2.676 6,-6 l 0,-61 c 0,-3.324 -3.74743,-6 -7.07143,-6 l 0,-0.134608 c 0,-2.389125 -1.97774,-4.3125 -4.4375,-4.3125 l -43.33482,0 -1.46875,-2.875 C 33.95414,10.253293 33.35859,8.8028918 31.71875,8.8028918 l -16.75,0 z"
       inkscape:connector-curvature="0"
       id="rect3745"
       style="opacity:0.9;fill:url(#linearGradient3664);fill-opacity:1;fill-rule:nonzero;stroke:none;filter:url(#filter3174)" />
  </g>
  <g
     id="layer4"
     style="display:inline">
    <path
       d="M 14.125,4 C 9.6910704,4 6,7.568413 6,12 l 0,2.15625 C 3.6235961,15.958367 2,18.759045 2,22 l 0,63 c 0,5.503629 4.496371,10 10,10 l 72,0 c 5.503629,0 10,-4.496371 10,-10 L 94,22 C 94,18.516601 92.146607,15.546894 89.46875,13.78125 88.481551,10.491738 85.526024,8 81.875,8 l -39.5,0 C 40.972352,6.645177 39.835329,5.4903784 38.6875,4.84375 37.192287,4.0014231 35.756649,4.0295412 34.875,4 a 0.92780092,0.92780092 0 0 0 -0.03125,0 c -0.0012,-1.73e-5 -0.03009,-1.73e-5 -0.03125,0 L 34.78125,4 14.125,4 z"
       id="path3984"
       style="opacity:0.07999998;fill:url(#linearGradient3986);fill-opacity:1;fill-rule:nonzero;stroke:none;display:inline" />
    <path
       d="M 14.125,4.9375 C 10.184407,4.9375 6.9375,8.0807925 6.9375,12 l 0,2.59375 c -2.3826099,1.622076 -4,4.293928 -4,7.40625 l 0,63 c 0,5.001444 4.0610559,9.0625 9.0625,9.0625 l 72,0 c 5.001444,0 9.0625,-4.061056 9.0625,-9.0625 l 0,-63 c 0,-3.260846 -1.77319,-6.039741 -4.34375,-7.625 C 87.957559,11.279325 85.241489,8.9375 81.875,8.9375 l -39.8125,0 C 40.465021,7.3963057 39.290438,6.2599842 38.21875,5.65625 36.945571,4.9390059 35.771277,4.9685784 34.84375,4.9375 a 1.043776,1.043776 0 0 0 -0.03125,0 c -10e-7,0 -0.03125,0 -0.03125,0 l -20.65625,0 z"
       id="path3975"
       style="opacity:0.1;fill:url(#linearGradient3977);fill-opacity:1;fill-rule:nonzero;stroke:none;display:inline" />
    <path
       d="M 14.125,5.96875 C 10.736326,5.96875 7.96875,8.6567706 7.96875,12 l 0,3.125 c -2.3751432,1.394016 -4,3.920462 -4,6.875 l 0,63 c 0,4.438141 3.5931086,8.03125 8.03125,8.03125 l 72,0 c 4.438141,0 8.03125,-3.593109 8.03125,-8.03125 l 0,-63 c 0,-3.031992 -1.712245,-5.604362 -4.1875,-6.96875 -0.491893,-2.85962 -2.928643,-5.0625 -5.96875,-5.0625 l -40.1875,0 C 39.852667,8.1939079 38.678863,7.1033787 37.71875,6.5625 36.681475,5.9781523 35.778304,6.0011109 34.8125,5.96875 a 1.043776,1.043776 0 0 0 -0.03125,0 l -20.65625,0 z"
       id="path3967"
       style="opacity:0.2;fill:url(#linearGradient3969);fill-opacity:1;fill-rule:nonzero;stroke:none;display:inline" />
    <path
       d="M 14.125,7 C 11.282105,7 9,9.23 9,12 l 0,3.6875 C 6.6359408,16.808884 5,19.200342 5,22 l 0,63 c 0,3.878 3.122,7 7,7 l 72,0 c 3.878,0 7,-3.122 7,-7 L 91,22 C 91,19.190264 89.346632,16.803629 86.96875,15.6875 86.799101,13.069075 84.606585,11 81.875,11 l -40.59375,0 c -4.220528,-4.1123102 -4.502768,-3.9330794 -6.5,-4 L 14.125,7 z"
       inkscape:connector-curvature="0"
       id="path3908-1"
       style="opacity:0.3;fill:url(#linearGradient3961);fill-opacity:1;fill-rule:nonzero;stroke:none;display:inline" />
    <path
       d="m 15,7 c -2.77,0 -5,2.23 -5,5 l 0,3.34375 C 7.6664933,16.164656 6,18.378887 6,21 l 0,64 c 0,3.324 2.676,6 6,6 l 72,0 c 3.324,0 6,-2.676 6,-6 L 90,21 C 90,18.358112 88.300137,16.148775 85.9375,15.34375 85.611464,12.893448 83.542274,11 81,11 L 40.46875,11 C 36.35644,6.8876898 36.102271,7.0669206 34.15625,7 L 15,7 z"
       inkscape:connector-curvature="0"
       id="path3941"
       style="opacity:0.45;fill:url(#linearGradient3952);fill-opacity:1;fill-rule:nonzero;stroke:none;display:inline" />
  </g>
  <g
     id="layer3"
     style="display:inline">
    <rect
       width="75"
       height="62.678574"
       rx="6"
       ry="6"
       x="10.535714"
       y="23.142857"
       id="rect3352"
       style="fill:url(#linearGradient3361);fill-opacity:1;fill-rule:nonzero;stroke:none;display:inline" />
    <path
       d="m 15,6 c -2.77,0 -5,2.23 -5,5 l 0,59.8125 c 0,2.39328 1.91922,4.3125 4.3125,4.3125 l 67.375,0 C 84.08078,75.125 86,73.20578 86,70.8125 L 86,15 c 0,-2.77 -2.23,-5 -5,-5 L 40.46875,10 C 36.35644,5.8876898 36.102271,6.0669206 34.15625,6 z"
       inkscape:connector-curvature="0"
       id="path3908"
       style="fill:url(#linearGradient3105);fill-opacity:1;fill-rule:nonzero;stroke:none;display:inline" />
    <path
       d="m 15,6 c -2.77,0 -5,2.23 -5,5 l 0,59.8125 c 0,2.39328 1.91922,4.3125 4.3125,4.3125 l 67.375,0 C 84.08078,75.125 86,73.20578 86,70.8125 L 86,15 c 0,-2.77 -2.23,-5 -5,-5 L 40.46875,10 C 36.35644,5.8876898 36.102271,6.0669206 34.15625,6 L 15,6 z m 0,1.03125 19.125,0 0.03125,0 c 0.964976,0.031157 1.192535,-0.016972 1.8125,0.34375 0.630289,0.366729 1.706808,1.3318077 3.75,3.375 a 1.043776,1.043776 0 0 0 0.75,0.28125 l 40.53125,0 c 2.209859,0 3.96875,1.758891 3.96875,3.96875 l 0,55.8125 c 0,1.835319 -1.445931,3.28125 -3.28125,3.28125 l -67.375,0 c -1.835319,0 -3.28125,-1.445931 -3.28125,-3.28125 l 0,-59.8125 c 0,-2.2098586 1.758891,-3.96875 3.96875,-3.96875 z"
       inkscape:connector-curvature="0"
       id="path3108"
       style="opacity:0.2;fill:#ffffff;fill-opacity:1;fill-rule:nonzero;stroke:none;display:inline" />
  </g>
  <g
     id="layer1"
     style="display:inline">
    <rect
       width="84"
       height="76"
       rx="6"
       ry="6"
       x="6"
       y="14"
       id="rect2419"
       style="fill:url(#linearGradient3706);fill-opacity:1;fill-rule:nonzero;stroke:none" />
    <path
       d="M 12,86 C 8.676,86 6,83.324 6,80 L 6,20 c 0,-3.324 2.676,-6 6,-6 l 72,0 c 3.324,0 6,2.676 6,6 l 0,60 c 0,3.324 -2.676,6 -6,6 z m 0,-0.96875 72,0 c 2.80489,0 5.03125,-2.22636 5.03125,-5.03125 l 0,-60 c 0,-2.80489 -2.22636,-5.03125 -5.03125,-5.03125 l -72,0 c -2.8048898,0 -5.03125,2.22636 -5.03125,5.03125 l 0,60 c 0,2.80489 2.2263602,5.03125 5.03125,5.03125 z"
       inkscape:connector-curvature="0"
       id="rect4377"
       style="opacity:0.35;fill:url(#linearGradient3094);fill-opacity:1;fill-rule:nonzero;stroke:none" />
    <path
       d="m 6,78 0,2 c 0,3.324 2.676,6 6,6 l 72,0 c 3.324,0 6,-2.676 6,-6 l 0,-2 c 0,3.324 -2.676,6 -6,6 L 12,84 C 8.676,84 6,81.324 6,78 z"
       inkscape:connector-curvature="0"
       id="rect3841"
       style="opacity:0.1;fill:#ffffff;fill-opacity:1;fill-rule:nonzero;stroke:none" />
  </g>
  <g
     id="layer7">
    <path
       d="m 6,80 0,4 c 0,3.324 2.676,6 6,6 l 72,0 c 3.324,0 6,-2.676 6,-6 l 0,-4 c 0,3.324 -2.676,6 -6,6 L 12,86 C 8.676,86 6,83.324 6,80 z"
       inkscape:connector-curvature="0"
       id="path3067"
       style="opacity:0.8;fill:#ce4f16;fill-opacity:1;fill-rule:nonzero;stroke:none;display:inline" />
    <g
       transform="translate(0,-10)"
       id="g3901">
      <path
         d="m 6,90 0,4 c 0,3.324 2.676,6 6,6 l 72,0 c 3.324,0 6,-2.676 6,-6 l 0,-4 c 0,3.324 -2.676,6 -6,6 L 12,96 C 8.676,96 6,93.324 6,90 z"
         inkscape:connector-curvature="0"
         id="path3888"
         style="opacity:0.5;fill:url(#linearGradient3906);fill-opacity:1;fill-rule:nonzero;stroke:none;display:inline" />
      <path
         d="m 6,92 0,2 c 0,3.324 2.676,6 6,6 l 72,0 c 3.324,0 6,-2.676 6,-6 l 0,-2 c 0,3.324 -2.676,6 -6,6 L 12,98 C 8.676,98 6,95.324 6,92 z"
         inkscape:connector-curvature="0"
         id="rect4345"
         style="opacity:0.1;color:#000000;fill:#000000;fill-opacity:1;fill-rule:nonzero;stroke:none;stroke-width:1.5;marker:none;visibility:visible;display:inline;overflow:visible;enable-background:accumulate" />
      <path
         d="m 6,93 0,1 c 0,3.324 2.676,6 6,6 l 72,0 c 3.324,0 6,-2.676 6,-6 l 0,-1 c 0,3.324 -2.676,6 -6,6 L 12,99 C 8.676,99 6,96.324 6,93 z"
         inkscape:connector-curvature="0"
         id="rect4336"
         style="opacity:0.15;color:#000000;fill:#000000;fill-opacity:1;fill-rule:nonzero;stroke:none;stroke-width:1.5;marker:none;visibility:visible;display:inline;overflow:visible;enable-background:accumulate" />
    </g>
  </g>
  <g
     id="layer5"
     style="display:inline">
    <path
       d="m 15.96875,22.53125 c -2.845903,0.0043 -5.433244,2.591597 -5.4375,5.4375 l 0,48.0625 c 0.0043,2.845903 2.591597,5.433244 5.4375,5.4375 l 64.0625,0 c 2.845903,-0.0043 5.433244,-2.591597 5.4375,-5.4375 l 0,-48.0625 c -0.0043,-2.845903 -2.591597,-5.433244 -5.4375,-5.4375 z"
       inkscape:connector-curvature="0"
       transform="translate(0,-4)"
       clip-path="url(#clipPath3860)"
       id="path3850"
       style="opacity:0.3;fill:url(#linearGradient3123);fill-opacity:1;fill-rule:nonzero;stroke:none;filter:url(#filter3870)" />
  </g>
  <g
     id="layer6">
    <path
       d="m 38,26.03125 c -7.687478,0 -13.96875,6.281273 -13.96875,13.96875 0,4.695004 2.434473,8.753495 6,11.28125 -1.638144,0.51195 -3,1.842285 -3,3.71875 0,1.876465 1.361856,3.2068 3,3.71875 l 0,4.28125 c 0,2.714729 2.25402,4.96875 4.96875,4.96875 l 0.59375,0 L 34.8125,69 c -0.852406,1.106895 -0.59842,2.691288 0.0625,3.5625 0.66092,0.871212 1.675478,1.413497 2.875,1.40625 l 9,0 9.03125,0 c 1.199512,0.0072 2.21408,-0.535041 2.875,-1.40625 0.66092,-0.871209 0.914903,-2.455608 0.0625,-3.5625 l -0.78125,-1.03125 0.0625,0 1,0 c 2.580214,0 4.66753,-2.061766 4.875,-4.59375 l 2.375,1.65625 0.03125,0 0.15625,0.125 0.03125,-0.0625 c 1.130336,0.839102 2.944902,0.883043 4,-0.0625 1.111058,-0.995624 1.466702,-2.266935 1.46875,-3.625 l 0,-4.9375 0,-3.9375 c 0.0085,-1.135309 -0.318312,-2.145948 -0.9375,-3 -0.619188,-0.854052 -1.785073,-1.723604 -3.21875,-1.4375 A 1.9616722,1.9616722 0 0 0 67.75,48.125 c -0.509947,0.104161 -0.908627,0.364834 -1.28125,0.65625 L 66.4375,48.75 66.28125,48.84375 c -0.01024,0.009 -0.02114,0.0222 -0.03125,0.03125 l -2.40625,1.6875 c -0.02077,-0.231147 -0.135927,-0.431619 -0.1875,-0.65625 2.5976,-2.522676 4.3125,-5.991639 4.3125,-9.90625 0,-7.687477 -6.281273,-13.96875 -13.96875,-13.96875 -3.015061,0 -5.713389,1.11321 -8,2.75 -2.286611,-1.63679 -4.984939,-2.75 -8,-2.75 z M 38,28 c 3.078097,0 5.876514,1.153599 8,3.0625 C 48.123486,29.153599 50.921903,28 54,28 c 6.627416,0 12,5.372584 12,12 0,3.780028 -1.769036,7.11566 -4.5,9.3125 C 61.82284,49.791152 62,50.37675 62,51 l 0,2.96875 0.40625,0 5.15625,-3.625 c 0.182176,-0.163052 0.38519,-0.2699 0.59375,-0.3125 0.908906,-0.181381 1.82309,1.079559 1.8125,2.5 l 0,3.9375 0,4.9375 c -0.0013,0.867332 -0.328089,1.722167 -0.8125,2.15625 -0.484411,0.434113 -1.108223,0.431077 -1.59375,0 L 62.40625,59.96875 62,59.96875 62,63 c 0,1.662 -1.338,3 -3,3 l -1,0 -4.03125,0 3.1875,4.1875 c 0.562048,0.72985 -0.264363,1.8192 -1.375,1.8125 l -9.03125,0 -9,0 c -1.110637,0.0067 -1.937048,-1.08265 -1.375,-1.8125 L 39.5625,66 36,66 35,66 c -1.662001,0 -3,-1.338 -3,-3 l 0,-6.03125 C 31.836963,56.9953 31.673125,57 31.5,57 30.115,57 29,56.108 29,55 c 0,-1.108 1.115,-2 2.5,-2 0.173125,0 0.336963,0.0047 0.5,0.03125 L 32,51 c 0,-0.20775 0.02267,-0.398105 0.0625,-0.59375 C 28.45369,48.336505 26,44.456718 26,40 26,33.372584 31.372583,28 38,28 z m 0,6 c -3.313709,0 -6,2.686291 -6,6 0,3.313709 2.686291,6 6,6 1.863961,0 3.524512,-0.854017 4.625,-2.1875 0.427968,-0.518577 0.763242,-1.107738 1,-1.75 0.03375,-0.09154 0.06442,-0.18767 0.09375,-0.28125 0.07391,-0.23764 0.14335,-0.46946 0.1875,-0.71875 0.0054,-0.03015 -0.005,-0.06344 0,-0.09375 C 43.95811,40.652916 44,40.330704 44,40 c 0,-0.330704 -0.04189,-0.652916 -0.09375,-0.96875 -0.0049,-0.03052 0.0054,-0.06339 0,-0.09375 -0.0095,-0.05266 -0.02039,-0.10408 -0.03125,-0.15625 -0.05994,-0.292939 -0.149056,-0.56806 -0.25,-0.84375 -0.236758,-0.642262 -0.572032,-1.231423 -1,-1.75 C 41.524512,34.854017 39.863961,34 38,34 z m 16,0 c -1.863961,0 -3.524512,0.854017 -4.625,2.1875 -0.427968,0.518577 -0.763242,1.107738 -1,1.75 -0.111856,0.305494 -0.21996,0.611051 -0.28125,0.9375 -0.0095,0.04992 0.0083,0.1059 0,0.15625 C 48.04189,39.347084 48,39.669296 48,40 c 0,0.330704 0.04189,0.652916 0.09375,0.96875 0.0083,0.05035 -0.0095,0.10633 0,0.15625 0.06129,0.326449 0.169394,0.632006 0.28125,0.9375 0.236758,0.642262 0.572032,1.231423 1,1.75 C 50.475488,45.145983 52.136039,46 54,46 c 3.313709,0 6,-2.686291 6,-6 0,-3.313709 -2.686291,-6 -6,-6 z m -16,2 c 2.209138,0 4,1.790862 4,4 0,2.209138 -1.790862,4 -4,4 -2.209138,0 -4,-1.790862 -4,-4 0,-2.209138 1.790862,-4 4,-4 z m 16,0 c 2.209138,0 4,1.790862 4,4 0,2.209138 -1.790862,4 -4,4 -2.209138,0 -4,-1.790862 -4,-4 0,-2.209138 1.790862,-4 4,-4 z"
       inkscape:connector-curvature="0"
       id="path5077"
       style="opacity:0.05;fill:#ffffff;fill-opacity:1;stroke:none;display:inline" />
    <path
       d="m 38,27.03125 c -7.144335,0 -12.96875,5.824416 -12.96875,12.96875 0,4.569173 2.451244,8.539405 6.03125,10.84375 C 31.06,50.89849 31.03125,50.944009 31.03125,51 l 0,1.1875 c -1.585183,0.205541 -3,1.232322 -3,2.8125 0,1.580178 1.414817,2.606959 3,2.8125 l 0,5.1875 c 0,2.175343 1.793406,3.96875 3.96875,3.96875 l 1,0 1.625,0 -2,2.625 c -0.559647,0.726733 -0.400777,1.733067 0.0625,2.34375 0.463277,0.610683 1.193048,1.036503 2.0625,1.03125 l 9,0 9.03125,0 c 0.869447,0.0052 1.599223,-0.420569 2.0625,-1.03125 0.463277,-0.610681 0.622146,-1.617019 0.0625,-2.34375 l -2,-2.625 2.09375,0 1,0 c 2.175344,0 3.96875,-1.793406 3.96875,-3.96875 l 0,-1.46875 3.96875,2.75 0.0625,0.0625 0.03125,-0.03125 c 0.79288,0.633782 1.985464,0.653902 2.75,-0.03125 0.789984,-0.707908 1.154581,-1.768372 1.15625,-2.875 l 0,-4.9375 0,-3.9375 c 0.0068,-0.917507 -0.273431,-1.748914 -0.75,-2.40625 -0.476569,-0.657336 -1.286797,-1.21723 -2.21875,-1.03125 -0.363184,0.07418 -0.661873,0.272053 -0.9375,0.5 L 67,49.5625 l -0.0625,0.0625 -3.96875,2.78125 0,-1.40625 c 0,-0.499739 -0.266398,-0.922698 -0.4375,-1.375 2.672576,-2.363946 4.4375,-5.769594 4.4375,-9.625 0,-7.144334 -5.824416,-12.96875 -12.96875,-12.96875 -3.053604,0 -5.784884,1.162366 -8,2.9375 -2.215116,-1.775134 -4.946396,-2.9375 -8,-2.9375 z M 38,28 c 3.078097,0 5.876514,1.153599 8,3.0625 C 48.123486,29.153599 50.921903,28 54,28 c 6.627416,0 12,5.372584 12,12 0,3.780028 -1.769036,7.11566 -4.5,9.3125 C 61.82284,49.791152 62,50.37675 62,51 l 0,2.96875 0.40625,0 5.15625,-3.625 c 0.182176,-0.163052 0.38519,-0.2699 0.59375,-0.3125 0.908906,-0.181381 1.82309,1.079559 1.8125,2.5 l 0,3.9375 0,4.9375 c -0.0013,0.867332 -0.328089,1.722167 -0.8125,2.15625 -0.484411,0.434113 -1.108223,0.431077 -1.59375,0 L 62.40625,59.96875 62,59.96875 62,63 c 0,1.662 -1.338,3 -3,3 l -1,0 -4.03125,0 3.1875,4.1875 c 0.562048,0.72985 -0.264363,1.8192 -1.375,1.8125 l -9.03125,0 -9,0 c -1.110637,0.0067 -1.937048,-1.08265 -1.375,-1.8125 L 39.5625,66 36,66 35,66 c -1.662001,0 -3,-1.338 -3,-3 l 0,-6.03125 C 31.836963,56.9953 31.673125,57 31.5,57 30.115,57 29,56.108 29,55 c 0,-1.108 1.115,-2 2.5,-2 0.173125,0 0.336963,0.0047 0.5,0.03125 L 32,51 c 0,-0.20775 0.02267,-0.398105 0.0625,-0.59375 C 28.45369,48.336505 26,44.456718 26,40 26,33.372584 31.372583,28 38,28 z m 0,6 c -3.313709,0 -6,2.686291 -6,6 0,3.313709 2.686291,6 6,6 1.863961,0 3.524512,-0.854017 4.625,-2.1875 0.427968,-0.518577 0.763242,-1.107738 1,-1.75 0.03375,-0.09154 0.06442,-0.18767 0.09375,-0.28125 0.07391,-0.23764 0.14335,-0.46946 0.1875,-0.71875 0.0054,-0.03015 -0.005,-0.06344 0,-0.09375 C 43.95811,40.652916 44,40.330704 44,40 c 0,-0.330704 -0.04189,-0.652916 -0.09375,-0.96875 -0.0049,-0.03052 0.0054,-0.06339 0,-0.09375 -0.0095,-0.05266 -0.02039,-0.10408 -0.03125,-0.15625 -0.05994,-0.292939 -0.149056,-0.56806 -0.25,-0.84375 -0.236758,-0.642262 -0.572032,-1.231423 -1,-1.75 C 41.524512,34.854017 39.863961,34 38,34 z m 16,0 c -1.863961,0 -3.524512,0.854017 -4.625,2.1875 -0.427968,0.518577 -0.763242,1.107738 -1,1.75 -0.111856,0.305494 -0.21996,0.611051 -0.28125,0.9375 -0.0095,0.04992 0.0083,0.1059 0,0.15625 C 48.04189,39.347084 48,39.669296 48,40 c 0,0.330704 0.04189,0.652916 0.09375,0.96875 0.0083,0.05035 -0.0095,0.10633 0,0.15625 0.06129,0.326449 0.169394,0.632006 0.28125,0.9375 0.236758,0.642262 0.572032,1.231423 1,1.75 C 50.475488,45.145983 52.136039,46 54,46 c 3.313709,0 6,-2.686291 6,-6 0,-3.313709 -2.686291,-6 -6,-6 z m -16,0.96875 c 1.049634,0 1.965283,0.346532 2.75,0.90625 -0.784274,-0.525159 -1.742731,-0.84375 -2.75,-0.84375 -2.726057,0 -4.96875,2.242693 -4.96875,4.96875 0,2.726057 2.242693,4.96875 4.96875,4.96875 1.007269,0 1.965726,-0.318591 2.75,-0.84375 -0.784717,0.559718 -1.700366,0.90625 -2.75,0.90625 -2.796791,0 -5.03125,-2.234459 -5.03125,-5.03125 0,-2.796791 2.234459,-5.03125 5.03125,-5.03125 z m 16,0 c 2.796791,0 5.03125,2.234459 5.03125,5.03125 0,2.796791 -2.234459,5.03125 -5.03125,5.03125 -1.049634,0 -1.965283,-0.346532 -2.75,-0.90625 0.784274,0.525159 1.742731,0.84375 2.75,0.84375 2.726057,0 4.96875,-2.242693 4.96875,-4.96875 0,-2.726057 -2.242693,-4.96875 -4.96875,-4.96875 -1.007269,0 -1.965726,0.318591 -2.75,0.84375 0.784717,-0.559718 1.700366,-0.90625 2.75,-0.90625 z M 38,36 c 2.209138,0 4,1.790862 4,4 0,2.209138 -1.790862,4 -4,4 -2.209138,0 -4,-1.790862 -4,-4 0,-2.209138 1.790862,-4 4,-4 z m 16,0 c 2.209138,0 4,1.790862 4,4 0,2.209138 -1.790862,4 -4,4 -2.209138,0 -4,-1.790862 -4,-4 0,-2.209138 1.790862,-4 4,-4 z m -12.5,0.5 c 0.112366,0.112981 0.273338,0.158064 0.375,0.28125 0.357692,0.433423 0.642693,0.954584 0.84375,1.5 0.09279,0.253429 0.17255,0.461726 0.21875,0.6875 0.01133,0.05443 0.02516,0.09121 0.03125,0.125 0.006,0.04015 -0.0091,0.03715 0,0.09375 0.04835,0.294461 0.0625,0.562567 0.0625,0.8125 0,0.249933 -0.01415,0.518039 -0.0625,0.8125 -0.02899,0.175718 -0.03178,0.264255 -0.03125,0.28125 -0.03074,0.128578 -0.07521,0.246183 -0.125,0.40625 -0.02832,0.09037 -0.07012,0.154646 -0.09375,0.21875 -0.201057,0.545416 -0.486058,1.066577 -0.84375,1.5 -0.101662,0.123186 -0.262634,0.168269 -0.375,0.28125 0.898362,-0.898362 1.46875,-2.136972 1.46875,-3.5 0,-1.363028 -0.570388,-2.601638 -1.46875,-3.5 z m 9,0 c -0.898362,0.898362 -1.46875,2.136972 -1.46875,3.5 0,1.363028 0.570388,2.601638 1.46875,3.5 -0.112366,-0.112981 -0.273338,-0.158064 -0.375,-0.28125 -0.357692,-0.433423 -0.642693,-0.954584 -0.84375,-1.5 -0.109468,-0.298973 -0.206377,-0.548893 -0.25,-0.78125 -0.0071,-0.04854 0.01237,-0.04993 0,-0.125 -0.04835,-0.294461 -0.0625,-0.562567 -0.0625,-0.8125 0,-0.249933 0.01415,-0.518039 0.0625,-0.8125 0.01238,-0.07508 -0.0071,-0.07645 0,-0.125 0.04363,-0.232364 0.140533,-0.482281 0.25,-0.78125 0.201057,-0.545416 0.486058,-1.066577 0.84375,-1.5 C 50.226662,36.658064 50.387634,36.612981 50.5,36.5 z"
       inkscape:connector-curvature="0"
       id="path5066"
       style="opacity:0.1;fill:#ffffff;fill-opacity:1;stroke:none;display:inline" />
    <path
       d="m 38,28 c -6.627417,0 -12.000001,5.372584 -12.000001,12 0,4.456718 2.45369,8.336505 6.0625,10.40625 -0.03983,0.195645 -0.0625,0.386 -0.0625,0.59375 l 0,2.03125 C 31.836962,53.00469 31.673124,53 31.499999,53 c -1.385,0 -2.5,0.892 -2.5,2 0,1.108 1.115,2 2.5,2 0.173125,0 0.336963,-0.0047 0.5,-0.03125 l 0,6.03125 c 0,1.662 1.338,3 3.000001,3 l 1,0 3.5625,0 -3.1875,4.1875 C 35.812952,70.91735 36.639363,72.00671 37.75,72 l 9,0 9.03125,0 c 1.110637,0.0067 1.937048,-1.08265 1.375,-1.8125 L 53.96875,66 58,66 l 1,0 c 1.662,0 3,-1.338 3,-3 l 0,-3.03125 0.40625,0 5.15625,3.59375 c 0.485527,0.431077 1.109339,0.434113 1.59375,0 0.484411,-0.434083 0.811192,-1.288918 0.8125,-2.15625 l 0,-4.9375 0,-3.9375 c 0.01059,-1.420441 -0.903594,-2.681381 -1.8125,-2.5 -0.20856,0.0426 -0.411574,0.149448 -0.59375,0.3125 l -5.15625,3.625 -0.40625,0 L 62,51 C 62,50.37675 61.82284,49.791152 61.5,49.3125 64.230964,47.11566 66,43.780028 66,40 66,33.372584 60.627416,28 54,28 50.921903,28 48.123486,29.153599 46,31.0625 43.876514,29.153599 41.078097,28 38,28 z m 0,6 c 1.863961,0 3.524512,0.854017 4.625,2.1875 0.427968,0.518577 0.763242,1.107738 1,1.75 0.100944,0.27569 0.190056,0.550811 0.25,0.84375 0.01086,0.05217 0.02176,0.103585 0.03125,0.15625 0.0054,0.03036 -0.0049,0.06323 0,0.09375 C 43.95811,39.347084 44,39.669296 44,40 c 0,0.330704 -0.04189,0.652916 -0.09375,0.96875 -0.005,0.03031 0.0054,0.0636 0,0.09375 -0.04415,0.24929 -0.113586,0.48111 -0.1875,0.71875 -0.02933,0.09358 -0.06,0.189706 -0.09375,0.28125 -0.236758,0.642262 -0.572032,1.231423 -1,1.75 C 41.524512,45.145983 39.863961,46 38,46 c -3.313709,0 -6.000001,-2.686291 -6.000001,-6 0,-3.313709 2.686292,-6 6.000001,-6 z m 16,0 c 3.313709,0 6,2.686291 6,6 0,3.313709 -2.686291,6 -6,6 -1.863961,0 -3.524512,-0.854017 -4.625,-2.1875 -0.427968,-0.518577 -0.763242,-1.107738 -1,-1.75 -0.111856,-0.305494 -0.219962,-0.611051 -0.28125,-0.9375 -0.0095,-0.04992 0.0083,-0.105896 0,-0.15625 C 48.04189,40.652916 48,40.330704 48,40 c 0,-0.330704 0.04189,-0.652916 0.09375,-0.96875 0.0083,-0.05035 -0.0095,-0.106332 0,-0.15625 0.06129,-0.326449 0.169394,-0.632006 0.28125,-0.9375 0.236758,-0.642262 0.572032,-1.231423 1,-1.75 C 50.475488,34.854017 52.136039,34 54,34 z m -16,2 c -2.209138,0 -4,1.790862 -4,4 0,2.209138 1.790862,4 4,4 2.209138,0 4,-1.790862 4,-4 0,-2.209138 -1.790862,-4 -4,-4 z m 16,0 c -2.209138,0 -4,1.790862 -4,4 0,2.209138 1.790862,4 4,4 2.209138,0 4,-1.790862 4,-4 0,-2.209138 -1.790862,-4 -4,-4 z"
       inkscape:connector-curvature="0"
       id="path3729"
       style="opacity:0.9;fill:url(#linearGradient3093);fill-opacity:1;stroke:none;display:inline" />
    <path
       d="m 38,28 c -6.627417,0 -12,5.372584 -12,12 0,4.456718 2.45369,8.336505 6.0625,10.40625 C 32.02267,50.601895 32,50.79225 32,51 l 0,2.03125 C 31.836963,53.00469 31.673125,53 31.5,53 30.115,53 29,53.892 29,55 c 0,1.108 1.115,2 2.5,2 0.173125,0 0.336963,-0.0047 0.5,-0.03125 L 32,63 c 0,1.662 1.337999,3 3,3 l 1,0 3.5625,0 -3.1875,4.1875 C 35.812952,70.91735 36.639363,72.00671 37.75,72 l 9,0 9.03125,0 c 1.110637,0.0067 1.937048,-1.08265 1.375,-1.8125 L 53.96875,66 58,66 l 1,0 c 1.662,0 3,-1.338 3,-3 l 0,-3.03125 0.40625,0 5.15625,3.59375 c 0.485527,0.431077 1.109339,0.434113 1.59375,0 0.484411,-0.434083 0.811192,-1.288918 0.8125,-2.15625 l 0,-4.9375 0,-3.9375 c 0.01059,-1.420441 -0.903594,-2.681381 -1.8125,-2.5 -0.20856,0.0426 -0.411574,0.149448 -0.59375,0.3125 l -5.15625,3.625 -0.40625,0 L 62,51 C 62,50.37675 61.82284,49.791152 61.5,49.3125 64.230964,47.11566 66,43.780028 66,40 66,33.372584 60.627416,28 54,28 50.921903,28 48.123486,29.153599 46,31.0625 43.876514,29.153599 41.078097,28 38,28 z m 0,1.9375 c 2.594423,0 4.935736,0.959666 6.71875,2.5625 a 1.9360436,1.9360436 0 0 0 2.5625,0 C 49.064264,30.897166 51.405577,29.9375 54,29.9375 c 5.581205,0 10.0625,4.481295 10.0625,10.0625 0,3.176049 -1.477858,5.959607 -3.78125,7.8125 a 1.9360436,1.9360436 0 0 0 -0.375,2.59375 C 60.00338,50.550256 60.0625,50.743596 60.0625,51 l 0,2.96875 A 1.9360436,1.9360436 0 0 0 62,55.90625 l 0.40625,0 a 1.9360436,1.9360436 0 0 0 1.125,-0.34375 L 68,52.40625 c 0.0065,0.05074 0.03163,0.07458 0.03125,0.125 l 0,3.9375 0,4.9375 C 68.031149,61.47331 68.01462,61.46327 68,61.53125 L 63.5,58.375 a 1.9360436,1.9360436 0 0 0 -1.09375,-0.34375 l -0.40625,0 a 1.9360436,1.9360436 0 0 0 -1.9375,1.9375 l 0,3.03125 c 0,0.623024 -0.439476,1.0625 -1.0625,1.0625 l -1,0 -4.03125,0 a 1.9360436,1.9360436 0 0 0 -1.53125,3.125 l 2.1875,2.875 -7.875,0 -7.84375,0 2.1875,-2.875 a 1.9360436,1.9360436 0 0 0 -1.53125,-3.125 l -3.5625,0 -1,0 c -0.623026,0 -1.0625,-0.439475 -1.0625,-1.0625 l 0,-6.03125 a 1.9360436,1.9360436 0 0 0 -2.25,-1.90625 c 0.0043,-6.93e-4 -0.04941,0 -0.1875,0 -0.207682,0 -0.323598,-0.02805 -0.40625,-0.0625 -0.137753,0.05742 -0.15625,0.1192 -0.15625,0 0,-0.1192 0.0185,-0.05742 0.15625,0 0.08265,-0.03445 0.198568,-0.0625 0.40625,-0.0625 0.138163,0 0.191905,7.18e-4 0.1875,0 a 1.9360436,1.9360436 0 0 0 2.25,-1.90625 l 0,-2.03125 c 0,-0.06692 0.01174,-0.122927 0.03125,-0.21875 a 1.9360436,1.9360436 0 0 0 -0.9375,-2.0625 C 29.999611,46.980027 27.9375,43.746184 27.9375,40 27.9375,34.418795 32.418794,29.9375 38,29.9375 z m 0,2.125 c -4.35992,0 -7.9375,3.57758 -7.9375,7.9375 0,4.35992 3.57758,7.9375 7.9375,7.9375 2.455264,0 4.67428,-1.148384 6.125,-2.90625 0.570202,-0.690924 1.003486,-1.474227 1.3125,-2.3125 0.05423,-0.147081 0.09363,-0.243675 0.125,-0.34375 a 1.9360436,1.9360436 0 0 0 0,-0.03125 c 0.07784,-0.250254 0.181008,-0.547939 0.25,-0.9375 0.12504,-0.698141 0.102215,-0.744627 0,-0.125 0.05896,-0.359092 0.125,-0.787071 0.125,-1.28125 0,-0.494179 -0.06604,-0.922158 -0.125,-1.28125 0.09689,0.603509 0.121909,0.560397 0,-0.125 -0.01408,-0.07814 -0.02158,-0.141405 -0.03125,-0.1875 -0.0022,-0.0109 0.0023,-0.02043 0,-0.03125 C 45.693974,37.959849 45.551957,37.593846 45.4375,37.28125 45.128486,36.442977 44.695202,35.659674 44.125,34.96875 42.67428,33.210884 40.455264,32.0625 38,32.0625 z m 16,0 c -2.455264,0 -4.67428,1.148384 -6.125,2.90625 -0.570202,0.690924 -1.003486,1.474227 -1.3125,2.3125 -0.114015,0.31139 -0.277755,0.718502 -0.375,1.21875 -0.0023,0.01174 0.0022,0.0194 0,0.03125 -0.04049,0.237393 -0.06176,0.415317 -0.0625,0.46875 -0.04425,0.298156 -0.0625,0.624023 -0.0625,1 0,0.375977 0.01825,0.701844 0.0625,1 7.42e-4,0.05343 0.02202,0.231378 0.0625,0.46875 0.0022,0.01185 -0.0023,0.01951 0,0.03125 0.09725,0.500262 0.260988,0.907367 0.375,1.21875 0.309014,0.838273 0.742298,1.621576 1.3125,2.3125 1.45072,1.757866 3.669736,2.90625 6.125,2.90625 4.35992,0 7.9375,-3.57758 7.9375,-7.9375 0,-4.35992 -3.57758,-7.9375 -7.9375,-7.9375 z M 38,34 c 1.863961,0 3.524512,0.854017 4.625,2.1875 0.427968,0.518577 0.763242,1.107738 1,1.75 0.100944,0.27569 0.190056,0.550811 0.25,0.84375 0.01086,0.05217 0.02176,0.103585 0.03125,0.15625 0.0054,0.03036 -0.0049,0.06323 0,0.09375 C 43.95811,39.347084 44,39.669296 44,40 c 0,0.330704 -0.04189,0.652916 -0.09375,0.96875 -0.005,0.03031 0.0054,0.0636 0,0.09375 -0.04415,0.24929 -0.113586,0.48111 -0.1875,0.71875 -0.02933,0.09358 -0.06,0.189706 -0.09375,0.28125 -0.236758,0.642262 -0.572032,1.231423 -1,1.75 C 41.524512,45.145983 39.863961,46 38,46 c -3.313709,0 -6,-2.686291 -6,-6 0,-3.313709 2.686291,-6 6,-6 z m 16,0 c 3.313709,0 6,2.686291 6,6 0,3.313709 -2.686291,6 -6,6 -1.863961,0 -3.524512,-0.854017 -4.625,-2.1875 -0.427968,-0.518577 -0.763242,-1.107738 -1,-1.75 -0.111856,-0.305494 -0.219962,-0.611051 -0.28125,-0.9375 -0.0095,-0.04992 0.0083,-0.105896 0,-0.15625 C 48.04189,40.652916 48,40.330704 48,40 c 0,-0.330704 0.04189,-0.652916 0.09375,-0.96875 0.0083,-0.05035 -0.0095,-0.106332 0,-0.15625 0.06129,-0.326449 0.169394,-0.632006 0.28125,-0.9375 0.236758,-0.642262 0.572032,-1.231423 1,-1.75 C 50.475488,34.854017 52.136039,34 54,34 z m -16,2 c -2.209138,0 -4,1.790862 -4,4 0,2.209138 1.790862,4 4,4 2.209138,0 4,-1.790862 4,-4 0,-2.209138 -1.790862,-4 -4,-4 z m 16,0 c -2.209138,0 -4,1.790862 -4,4 0,2.209138 1.790862,4 4,4 2.209138,0 4,-1.790862 4,-4 0,-2.209138 -1.790862,-4 -4,-4 z m -16,1.9375 c 1.162926,0 2.0625,0.899574 2.0625,2.0625 0,1.162926 -0.899574,2.0625 -2.0625,2.0625 -1.162926,0 -2.0625,-0.899574 -2.0625,-2.0625 0,-1.162926 0.899574,-2.0625 2.0625,-2.0625 z m 16,0 c 1.162926,0 2.0625,0.899574 2.0625,2.0625 0,1.162926 -0.899574,2.0625 -2.0625,2.0625 -1.162926,0 -2.0625,-0.899574 -2.0625,-2.0625 0,-1.162926 0.899574,-2.0625 2.0625,-2.0625 z"
       inkscape:connector-curvature="0"
       id="path5038"
       style="opacity:0.25;fill:url(#linearGradient5048);fill-opacity:1;stroke:none;display:inline" />
    <path
       d="m 38,28 c -6.627417,0 -12,5.372584 -12,12 0,4.456718 2.45369,8.336505 6.0625,10.40625 C 32.02267,50.601895 32,50.79225 32,51 l 0,2.03125 C 31.836963,53.00469 31.673125,53 31.5,53 30.115,53 29,53.892 29,55 c 0,1.108 1.115,2 2.5,2 0.173125,0 0.336963,-0.0047 0.5,-0.03125 L 32,63 c 0,1.662 1.337999,3 3,3 l 1,0 3.5625,0 -3.1875,4.1875 C 35.812952,70.91735 36.639363,72.00671 37.75,72 l 9,0 9.03125,0 c 1.110637,0.0067 1.937048,-1.08265 1.375,-1.8125 L 53.96875,66 58,66 l 1,0 c 1.662,0 3,-1.338 3,-3 l 0,-3.03125 0.40625,0 5.15625,3.59375 c 0.485527,0.431077 1.109339,0.434113 1.59375,0 0.484411,-0.434083 0.811192,-1.288918 0.8125,-2.15625 l 0,-4.9375 0,-3.9375 c 0.01059,-1.420441 -0.903594,-2.681381 -1.8125,-2.5 -0.20856,0.0426 -0.411574,0.149448 -0.59375,0.3125 l -5.15625,3.625 -0.40625,0 L 62,51 C 62,50.37675 61.82284,49.791152 61.5,49.3125 64.230964,47.11566 66,43.780028 66,40 66,33.372584 60.627416,28 54,28 50.921903,28 48.123486,29.153599 46,31.0625 43.876514,29.153599 41.078097,28 38,28 z m 0,1.03125 c 2.819033,0 5.371377,1.067533 7.3125,2.8125 a 1.0369768,1.0369768 0 0 0 1.375,0 c 1.941123,-1.744967 4.493467,-2.8125 7.3125,-2.8125 6.067048,0 10.96875,4.901702 10.96875,10.96875 0,3.456527 -1.623051,6.487384 -4.125,8.5 A 1.0369768,1.0369768 0 0 0 60.625,49.90625 c 0.201946,0.29941 0.34375,0.666989 0.34375,1.09375 l 0,2.96875 A 1.0369768,1.0369768 0 0 0 62,55 l 0.40625,0 A 1.0369768,1.0369768 0 0 0 63,54.8125 l 5.15625,-3.625 A 1.0369768,1.0369768 0 0 0 68.25,51.125 c 0.05173,-0.0463 0.07892,-0.0575 0.09375,-0.0625 -0.0045,9.01e-4 0.03433,-5.08e-4 0.03125,0 -0.04004,0.0066 0.0076,-0.02933 0.1875,0.21875 0.193693,0.267162 0.37862,0.764489 0.375,1.25 l 0,3.9375 0,4.9375 c -9.17e-4,0.607921 -0.315596,1.237758 -0.46875,1.375 -0.153143,0.137241 -0.06115,0.139928 -0.21875,0 a 1.0369768,1.0369768 0 0 0 -0.09375,-0.0625 L 63,59.125 a 1.0369768,1.0369768 0 0 0 -0.59375,-0.1875 l -0.40625,0 a 1.0369768,1.0369768 0 0 0 -1.03125,1.03125 l 0,3.03125 c 0,1.105507 -0.863243,1.96875 -1.96875,1.96875 l -1,0 -4.03125,0 a 1.0369768,1.0369768 0 0 0 -0.8125,1.65625 l 3.125,4.125 c -0.07126,0.09394 -0.285214,0.220046 -0.5,0.21875 l -9.03125,0 -9,0 c -0.21478,0.0013 -0.428735,-0.124809 -0.5,-0.21875 l 3.125,-4.125 a 1.0369768,1.0369768 0 0 0 -0.8125,-1.65625 l -3.5625,0 -1,0 c -1.105509,0 -1.96875,-0.863242 -1.96875,-1.96875 l 0,-6.03125 a 1.0369768,1.0369768 0 0 0 -1.1875,-1.03125 c -0.07343,0.01196 -0.189391,0.03125 -0.34375,0.03125 -0.939806,0 -1.46875,-0.556366 -1.46875,-0.96875 0,-0.412384 0.528944,-0.96875 1.46875,-0.96875 0.154399,0 0.270397,0.0193 0.34375,0.03125 a 1.0369768,1.0369768 0 0 0 1.1875,-1.03125 l 0,-2.03125 c 0,-0.13232 0.03355,-0.232821 0.0625,-0.375 a 1.0369768,1.0369768 0 0 0 -0.5,-1.125 c -3.299668,-1.892444 -5.5625,-5.423856 -5.5625,-9.5 0,-6.067048 4.901701,-10.96875 10.96875,-10.96875 z m 0,3.9375 c -3.874077,0 -7.03125,3.157173 -7.03125,7.03125 0,3.874077 3.157173,7.03125 7.03125,7.03125 2.180673,0 4.149422,-1.001711 5.4375,-2.5625 0.504151,-0.610889 0.880791,-1.315251 1.15625,-2.0625 0.04472,-0.12129 0.09458,-0.215441 0.125,-0.3125 0.07601,-0.244396 0.161294,-0.519328 0.21875,-0.84375 0.01376,-0.07682 -0.0074,-0.07461 0,-0.125 0.05566,-0.339004 0.09375,-0.706736 0.09375,-1.125 0,-0.344033 -0.02238,-0.649708 -0.0625,-0.9375 0.0023,-0.02223 0.0027,-0.121896 -0.03125,-0.3125 -0.01318,-0.07312 -0.05215,-0.137781 -0.0625,-0.1875 l 0.03125,0 C 44.831407,38.19675 44.70353,37.893572 44.59375,37.59375 44.318291,36.846501 43.941651,36.142139 43.4375,35.53125 42.149422,33.970461 40.180673,32.96875 38,32.96875 z m 16,0 c -2.180673,0 -4.149422,1.001711 -5.4375,2.5625 -0.504151,0.610889 -0.880791,1.315251 -1.15625,2.0625 -0.114446,0.312567 -0.263311,0.665308 -0.34375,1.09375 -0.08059,0.423464 -0.05046,0.493592 0,0.1875 -0.05566,0.339004 -0.09375,0.706736 -0.09375,1.125 0,0.418264 0.03809,0.785996 0.09375,1.125 -0.05045,-0.30604 -0.08058,-0.235932 0,0.1875 0.08044,0.42845 0.229306,0.781187 0.34375,1.09375 0.275459,0.747249 0.652099,1.451611 1.15625,2.0625 1.288078,1.560789 3.256827,2.5625 5.4375,2.5625 3.874077,0 7.03125,-3.157173 7.03125,-7.03125 0,-3.874077 -3.157173,-7.03125 -7.03125,-7.03125 z M 38,34 c 1.863961,0 3.524512,0.854017 4.625,2.1875 0.427968,0.518577 0.763242,1.107738 1,1.75 0.100944,0.27569 0.190056,0.550811 0.25,0.84375 0.01086,0.05217 0.02176,0.103585 0.03125,0.15625 0.0054,0.03036 -0.0049,0.06323 0,0.09375 C 43.95811,39.347084 44,39.669296 44,40 c 0,0.330704 -0.04189,0.652916 -0.09375,0.96875 -0.005,0.03031 0.0054,0.0636 0,0.09375 -0.04415,0.24929 -0.113586,0.48111 -0.1875,0.71875 -0.02933,0.09358 -0.06,0.189706 -0.09375,0.28125 -0.236758,0.642262 -0.572032,1.231423 -1,1.75 C 41.524512,45.145983 39.863961,46 38,46 c -3.313709,0 -6,-2.686291 -6,-6 0,-3.313709 2.686291,-6 6,-6 z m 16,0 c 3.313709,0 6,2.686291 6,6 0,3.313709 -2.686291,6 -6,6 -1.863961,0 -3.524512,-0.854017 -4.625,-2.1875 -0.427968,-0.518577 -0.763242,-1.107738 -1,-1.75 -0.111856,-0.305494 -0.219962,-0.611051 -0.28125,-0.9375 -0.0095,-0.04992 0.0083,-0.105896 0,-0.15625 C 48.04189,40.652916 48,40.330704 48,40 c 0,-0.330704 0.04189,-0.652916 0.09375,-0.96875 0.0083,-0.05035 -0.0095,-0.106332 0,-0.15625 0.06129,-0.326449 0.169394,-0.632006 0.28125,-0.9375 0.236758,-0.642262 0.572032,-1.231423 1,-1.75 C 50.475488,34.854017 52.136039,34 54,34 z m -16,2 c -2.209138,0 -4,1.790862 -4,4 0,2.209138 1.790862,4 4,4 2.209138,0 4,-1.790862 4,-4 0,-2.209138 -1.790862,-4 -4,-4 z m 16,0 c -2.209138,0 -4,1.790862 -4,4 0,2.209138 1.790862,4 4,4 2.209138,0 4,-1.790862 4,-4 0,-2.209138 -1.790862,-4 -4,-4 z m -16,1.03125 c 1.64877,0 2.96875,1.31998 2.96875,2.96875 0,1.64877 -1.31998,2.96875 -2.96875,2.96875 -1.64877,0 -2.96875,-1.31998 -2.96875,-2.96875 0,-1.64877 1.31998,-2.96875 2.96875,-2.96875 z m 16,0 c 1.64877,0 2.96875,1.31998 2.96875,2.96875 0,1.64877 -1.31998,2.96875 -2.96875,2.96875 -1.64877,0 -2.96875,-1.31998 -2.96875,-2.96875 0,-1.64877 1.31998,-2.96875 2.96875,-2.96875 z"
       inkscape:connector-curvature="0"
       id="path5025"
       style="opacity:0.5;fill:url(#linearGradient5035);fill-opacity:1;stroke:none;display:inline" />
    <path
       d="m 38,28 c -6.627417,0 -12,5.372584 -12,12 0,0.196126 0.02186,0.399964 0.03125,0.59375 C 26.248971,34.157602 31.510835,29 38,29 c 3.078097,0 5.876514,1.153599 8,3.0625 C 48.123486,30.153599 50.921903,29 54,29 60.436199,29 65.670999,34.074951 65.96875,40.4375 65.97405,40.291838 66,40.147048 66,40 66,33.372584 60.627416,28 54,28 50.921903,28 48.123486,29.153599 46,31.0625 43.876514,29.153599 41.078097,28 38,28 z m 0,8 c -2.209138,0 -4,1.790862 -4,4 0,0.17012 0.04189,0.335468 0.0625,0.5 C 34.309566,38.527954 35.960982,37 38,37 c 2.039018,0 3.690434,1.527954 3.9375,3.5 C 41.95811,40.335468 42,40.17012 42,40 42,37.790862 40.209138,36 38,36 z m 16,0 c -2.209138,0 -4,1.790862 -4,4 0,0.17012 0.04189,0.335468 0.0625,0.5 C 50.309566,38.527954 51.960982,37 54,37 c 2.039018,0 3.690434,1.527954 3.9375,3.5 C 57.95811,40.335468 58,40.17012 58,40 58,37.790862 56.209138,36 54,36 z m -10.0625,4.5 c -0.01679,0.155589 -0.0062,0.316368 -0.03125,0.46875 -0.005,0.03031 0.0054,0.0636 0,0.09375 -0.04415,0.24929 -0.113586,0.48111 -0.1875,0.71875 -0.02933,0.09358 -0.06,0.189706 -0.09375,0.28125 -0.236758,0.642262 -0.572032,1.231423 -1,1.75 C 41.524512,45.145983 39.863961,46 38,46 34.893398,46 32.33851,43.650537 32.03125,40.625 32.02378,40.747591 32,40.875529 32,41 c 0,3.313709 2.686291,6 6,6 1.863961,0 3.524512,-0.854017 4.625,-2.1875 0.427968,-0.518577 0.763242,-1.107738 1,-1.75 0.03375,-0.09154 0.06442,-0.18767 0.09375,-0.28125 0.07391,-0.23764 0.14335,-0.46946 0.1875,-0.71875 0.0054,-0.03015 -0.005,-0.06344 0,-0.09375 C 43.95811,41.652916 44,41.330704 44,41 44,40.828852 43.95551,40.666892 43.9375,40.5 z m 4.125,0 C 48.04449,40.666892 48,40.828852 48,41 c 0,0.330704 0.04189,0.652916 0.09375,0.96875 0.0083,0.05035 -0.0095,0.10633 0,0.15625 0.06129,0.326449 0.169394,0.632006 0.28125,0.9375 0.236758,0.642262 0.572032,1.231423 1,1.75 C 50.475488,46.145983 52.136039,47 54,47 c 3.313709,0 6,-2.686291 6,-6 0,-0.124471 -0.02378,-0.252409 -0.03125,-0.375 C 59.66149,43.650537 57.106602,46 54,46 c -1.863961,0 -3.524512,-0.854017 -4.625,-2.1875 -0.427968,-0.518577 -0.763242,-1.107738 -1,-1.75 -0.111856,-0.305494 -0.219962,-0.611051 -0.28125,-0.9375 -0.0095,-0.04992 0.0083,-0.105896 0,-0.15625 C 48.06873,40.816368 48.07929,40.655589 48.0625,40.5 z M 61.84375,50 C 61.726143,50.102171 61.621485,50.214775 61.5,50.3125 61.82284,50.791152 62,51.37675 62,52 l 0,-1 c 0,-0.346964 -0.05187,-0.688329 -0.15625,-1 z m 6.3125,0.03125 c -0.20856,0.0426 -0.411574,0.149448 -0.59375,0.3125 l -5.15625,3.625 -0.40625,0 0,1 0.40625,0 5.15625,-3.625 c 0.182176,-0.163052 0.38519,-0.2699 0.59375,-0.3125 0.908906,-0.181381 1.82309,1.079559 1.8125,2.5 l 0,-1 c 0.01059,-1.420441 -0.903594,-2.681381 -1.8125,-2.5 z M 32,51.375 32,52 c 0,-0.20775 0.02267,-0.398105 0.0625,-0.59375 C 32.042163,51.39459 32.020263,51.38678 32,51.375 z M 31.5,53 c -1.385,0 -2.5,0.892 -2.5,2 0,0.173125 0.04253,0.340001 0.09375,0.5 C 29.370338,54.636003 30.331406,54 31.5,54 c 0.173125,0 0.336963,0.0047 0.5,0.03125 l 0,-1 C 31.836963,53.00469 31.673125,53 31.5,53 z m 7.3125,14 -2.4375,3.1875 c -0.241256,0.313285 -0.214312,0.700605 -0.03125,1.03125 0.0085,-0.01224 0.02197,-0.0192 0.03125,-0.03125 L 39.5625,67 l -0.75,0 z m 15.15625,0 3.1875,4.1875 c 0.0093,0.01205 0.02272,0.01901 0.03125,0.03125 0.183062,-0.330643 0.210006,-0.717965 -0.03125,-1.03125 L 54.71875,67 l -0.75,0 z"
       inkscape:connector-curvature="0"
       id="path5016"
       style="fill:url(#linearGradient5022);fill-opacity:1;stroke:none;display:inline" />
    <path
       d="m 38,34 c -3.313709,0 -6,2.686291 -6,6 0,0.124471 0.02378,0.252409 0.03125,0.375 C 32.33851,37.349463 34.893398,35 38,35 c 1.863961,0 3.524512,0.854017 4.625,2.1875 0.427968,0.518577 0.763242,1.107738 1,1.75 0.100944,0.27569 0.190056,0.550811 0.25,0.84375 0.01086,0.05217 0.02176,0.103585 0.03125,0.15625 0.0054,0.03036 -0.0049,0.06323 0,0.09375 0.02502,0.152382 0.01446,0.313161 0.03125,0.46875 C 43.95551,40.333108 44,40.171148 44,40 c 0,-0.330704 -0.04189,-0.652916 -0.09375,-0.96875 -0.0049,-0.03052 0.0054,-0.06339 0,-0.09375 -0.0095,-0.05266 -0.02039,-0.10408 -0.03125,-0.15625 -0.05994,-0.292939 -0.149056,-0.56806 -0.25,-0.84375 -0.236758,-0.642262 -0.572032,-1.231423 -1,-1.75 C 41.524512,34.854017 39.863961,34 38,34 z m 16,0 c -1.863961,0 -3.524512,0.854017 -4.625,2.1875 -0.427968,0.518577 -0.763242,1.107738 -1,1.75 -0.111856,0.305494 -0.21996,0.611051 -0.28125,0.9375 -0.0095,0.04992 0.0083,0.1059 0,0.15625 C 48.04189,39.347084 48,39.669296 48,40 c 0,0.171148 0.04449,0.333108 0.0625,0.5 0.01679,-0.155589 0.0062,-0.316368 0.03125,-0.46875 0.0083,-0.05035 -0.0095,-0.106332 0,-0.15625 0.06129,-0.326449 0.169394,-0.632006 0.28125,-0.9375 0.236758,-0.642262 0.572032,-1.231423 1,-1.75 C 50.475488,35.854017 52.136039,35 54,35 c 3.106602,0 5.66149,2.349463 5.96875,5.375 C 59.97625,40.252409 60,40.124471 60,40 60,36.686291 57.313709,34 54,34 z m 11.96875,6.4375 C 65.837643,44.03624 64.124726,47.20112 61.5,49.3125 61.643115,49.524686 61.760634,49.751818 61.84375,50 64.369929,47.805388 66,44.611876 66,41 66,40.808783 65.9776,40.626529 65.96875,40.4375 z M 34.0625,40.5 C 34.04189,40.664532 34,40.82988 34,41 c 0,2.209138 1.790862,4 4,4 2.209138,0 4,-1.790862 4,-4 0,-0.17012 -0.04189,-0.335468 -0.0625,-0.5 C 41.690434,42.472046 40.039018,44 38,44 35.960982,44 34.309566,42.472046 34.0625,40.5 z m 16,0 C 50.04189,40.664532 50,40.82988 50,41 c 0,2.209138 1.790862,4 4,4 2.209138,0 4,-1.790862 4,-4 0,-0.17012 -0.04189,-0.335468 -0.0625,-0.5 C 57.690434,42.472046 56.039018,44 54,44 51.960982,44 50.309566,42.472046 50.0625,40.5 z M 26.03125,40.59375 C 26.02661,40.730873 26,40.861748 26,41 c 0,4.431603 2.424513,8.296672 6,10.375 L 32,51 c 0,-0.20775 0.02267,-0.398105 0.0625,-0.59375 -3.449998,-1.978662 -5.827199,-5.602734 -6.03125,-9.8125 z M 29.09375,55.5 C 29.04253,55.659999 29,55.826875 29,56 c 0,1.108 1.115,2 2.5,2 0.173125,0 0.336963,-0.0047 0.5,-0.03125 l 0,-1 C 31.836963,56.9953 31.673125,57 31.5,57 30.331406,57 29.370338,56.363997 29.09375,55.5 z M 62,59.96875 l 0,1 0.40625,0 5.15625,3.59375 c 0.485527,0.431077 1.109339,0.434113 1.59375,0 0.484411,-0.434083 0.811192,-1.288918 0.8125,-2.15625 l 0,-1 c -0.0013,0.867332 -0.328089,1.722167 -0.8125,2.15625 -0.484411,0.434113 -1.108223,0.431077 -1.59375,0 l -5.15625,-3.59375 -0.40625,0 z M 32,63 l 0,1 c 0,1.662 1.337999,3 3,3 l 1,0 2.8125,0 0.75,-1 L 36,66 35,66 c -1.662001,0 -3,-1.338 -3,-3 z m 30,0 c 0,1.662 -1.338,3 -3,3 l -1,0 -4.03125,0 0.75,1 3.28125,0 1,0 c 1.662,0 3,-1.338 3,-3 l 0,-1 z M 36.34375,71.21875 C 35.835774,71.947835 36.657699,73.006599 37.75,73 l 9,0 9.03125,0 c 1.092301,0.0066 1.914226,-1.052165 1.40625,-1.78125 C 56.944088,71.658397 56.415151,72.003824 55.78125,72 l -9.03125,0 -9,0 c -0.633901,0.0038 -1.162838,-0.341602 -1.40625,-0.78125 z"
       inkscape:connector-curvature="0"
       id="path5051"
       style="opacity:0.2;fill:#ffffff;fill-opacity:1;stroke:none;display:inline" />
  </g>
</svg>
