<?xml version="1.0" encoding="UTF-8" standalone="no"?>
<!-- Created with Inkscape (http://www.inkscape.org/) -->

<svg
   xmlns:dc="http://purl.org/dc/elements/1.1/"
   xmlns:cc="http://creativecommons.org/ns#"
   xmlns:rdf="http://www.w3.org/1999/02/22-rdf-syntax-ns#"
   xmlns:svg="http://www.w3.org/2000/svg"
   xmlns="http://www.w3.org/2000/svg"
   xmlns:xlink="http://www.w3.org/1999/xlink"
   xmlns:inkscape="http://www.inkscape.org/namespaces/inkscape"
   version="1.0"
   width="96"
   height="96"
   id="svg2408">
  <defs
     id="defs2410">
    <linearGradient
       id="linearGradient3894">
      <stop
         id="stop3901"
         style="stop-color:#c75026;stop-opacity:1"
         offset="0" />
      <stop
         id="stop3905"
         style="stop-color:#eb9d48;stop-opacity:1"
         offset="1" />
    </linearGradient>
    <linearGradient
       id="linearGradient3885">
      <stop
         id="stop3887"
         style="stop-color:#eb7731;stop-opacity:1"
         offset="0" />
      <stop
         id="stop3889"
         style="stop-color:#e59343;stop-opacity:1"
         offset="0.5" />
      <stop
         id="stop3891"
         style="stop-color:#e5b66b;stop-opacity:1"
         offset="1" />
    </linearGradient>
    <linearGradient
       id="linearGradient3874">
      <stop
         id="stop3876"
         style="stop-color:#ffa32d;stop-opacity:1"
         offset="0" />
      <stop
         id="stop3878"
         style="stop-color:#ffe4c1;stop-opacity:0"
         offset="1" />
    </linearGradient>
    <linearGradient
       x1="11.794092"
       y1="3.2126782"
       x2="11.794092"
       y2="20.137329"
       id="linearGradient3317"
       gradientUnits="userSpaceOnUse"
       gradientTransform="scale(1.0598527,0.9435274)">
      <stop
         id="stop3319"
         style="stop-color:#c6953a;stop-opacity:1"
         offset="0" />
      <stop
         id="stop3321"
         style="stop-color:#ab7a1f;stop-opacity:1"
         offset="1" />
    </linearGradient>
    <linearGradient
       x1="48.035713"
       y1="25.910715"
       x2="48.035713"
       y2="85.821426"
       id="linearGradient3361"
       xlink:href="#linearGradient3317"
       gradientUnits="userSpaceOnUse" />
    <linearGradient
       x1="45.447727"
       y1="80.471962"
       x2="45.447727"
       y2="7.0165396"
       id="ButtonShadow"
       gradientUnits="userSpaceOnUse"
       gradientTransform="matrix(1.0058652,0,0,0.994169,0,12)">
      <stop
         id="stop3750"
         style="stop-color:#000000;stop-opacity:1"
         offset="0" />
      <stop
         id="stop3752"
         style="stop-color:#000000;stop-opacity:0.58823532"
         offset="1" />
    </linearGradient>
    <linearGradient
       x1="48"
       y1="78"
       x2="48"
       y2="5.9877172"
       id="linearGradient3706"
       xlink:href="#linearGradient3885"
       gradientUnits="userSpaceOnUse"
       gradientTransform="translate(0,8)" />
    <filter
       color-interpolation-filters="sRGB"
       id="filter3174">
      <feGaussianBlur
         id="feGaussianBlur3176"
         stdDeviation="1.71" />
    </filter>
    <linearGradient
       x1="45.447727"
       y1="80.471962"
       x2="45.447727"
       y2="5.297224"
       id="linearGradient3664"
       xlink:href="#ButtonShadow"
       gradientUnits="userSpaceOnUse"
       gradientTransform="matrix(1.0058652,0,0,0.994169,0,12)" />
    <clipPath
       id="clipPath3860">
      <rect
         width="84"
         height="72"
         rx="6"
         ry="6"
         x="6"
         y="18"
         id="rect3862"
         style="fill:#ff00ff;fill-opacity:1;fill-rule:nonzero;stroke:none" />
    </clipPath>
    <filter
       x="-0.16558799"
       y="-0.19715989"
       width="1.331176"
       height="1.3943198"
       color-interpolation-filters="sRGB"
       id="filter3870">
      <feGaussianBlur
         id="feGaussianBlur3872"
         stdDeviation="5.1703125" />
    </filter>
    <linearGradient
       id="linearGradient3892">
      <stop
         id="stop3894"
         style="stop-color:#000000;stop-opacity:0.58823532"
         offset="0" />
      <stop
         id="stop3896"
         style="stop-color:#000000;stop-opacity:0.47058824"
         offset="0.11780351" />
      <stop
         id="stop3898"
         style="stop-color:#000000;stop-opacity:0.39215687"
         offset="0.23809524" />
      <stop
         id="stop3900"
         style="stop-color:#000000;stop-opacity:0.3137255"
         offset="1" />
    </linearGradient>
    <linearGradient
       id="linearGradient4384">
      <stop
         id="stop4386"
         style="stop-color:#ffffff;stop-opacity:1"
         offset="0" />
      <stop
         id="stop4388"
         style="stop-color:#ffffff;stop-opacity:0"
         offset="1" />
    </linearGradient>
    <linearGradient
       x1="48"
       y1="75.08329"
       x2="48"
       y2="-40"
       id="linearGradient3094"
       xlink:href="#linearGradient4384"
       gradientUnits="userSpaceOnUse"
       gradientTransform="matrix(1,0,0,-1,0,92)" />
    <linearGradient
       x1="48.021698"
       y1="22.933374"
       x2="48.021698"
       y2="81.481377"
       id="linearGradient3123"
       xlink:href="#linearGradient3874"
       gradientUnits="userSpaceOnUse" />
    <linearGradient
       x1="37.611111"
       y1="27.111111"
       x2="37.611111"
       y2="21.555555"
       id="linearGradient3105"
       xlink:href="#linearGradient3894"
       gradientUnits="userSpaceOnUse"
       gradientTransform="matrix(0.72,0,0,0.72,1.92,-5.52)" />
    <linearGradient
       x1="43"
       y1="91"
       x2="43"
       y2="7"
       id="linearGradient3952"
       xlink:href="#ButtonShadow"
       gradientUnits="userSpaceOnUse" />
    <linearGradient
       x1="45"
       y1="92"
       x2="45"
       y2="7"
       id="linearGradient3961"
       xlink:href="#ButtonShadow"
       gradientUnits="userSpaceOnUse" />
    <linearGradient
       x1="45"
       y1="92"
       x2="45"
       y2="7"
       id="linearGradient3969"
       xlink:href="#ButtonShadow"
       gradientUnits="userSpaceOnUse" />
    <linearGradient
       x1="45"
       y1="92"
       x2="45"
       y2="7"
       id="linearGradient3977"
       xlink:href="#ButtonShadow"
       gradientUnits="userSpaceOnUse" />
    <linearGradient
       x1="45"
       y1="92"
       x2="45"
       y2="7"
       id="linearGradient3986"
       xlink:href="#ButtonShadow"
       gradientUnits="userSpaceOnUse" />
    <linearGradient
       x1="90"
       y1="88"
       x2="48"
       y2="88"
       id="linearGradient3906"
       xlink:href="#linearGradient3892"
       gradientUnits="userSpaceOnUse"
       gradientTransform="translate(0,10)"
       spreadMethod="reflect" />
    <linearGradient
       id="linearGradient3877">
      <stop
         id="stop3879"
         style="stop-color:#da682a;stop-opacity:0.78431374"
         offset="0" />
      <stop
         id="stop3883"
         style="stop-color:#da682a;stop-opacity:0.39215687"
         offset="1" />
    </linearGradient>
    <linearGradient
       x1="41.018513"
       y1="75.720016"
       x2="41.018513"
       y2="31.847706"
       id="linearGradient4323"
       xlink:href="#linearGradient3877"
       gradientUnits="userSpaceOnUse"
       gradientTransform="translate(0,-4)" />
    <linearGradient
       x1="41.018513"
       y1="75.720016"
       x2="41.018513"
       y2="31.847706"
       id="linearGradient4310"
       xlink:href="#linearGradient3877"
       gradientUnits="userSpaceOnUse"
       gradientTransform="translate(0,-4)" />
    <linearGradient
       x1="41.018513"
       y1="75.720016"
       x2="41.018513"
       y2="31.847706"
       id="linearGradient4297"
       xlink:href="#linearGradient3877"
       gradientUnits="userSpaceOnUse"
       gradientTransform="translate(0,-4)" />
    <linearGradient
       x1="41.018513"
       y1="75.720016"
       x2="41.018513"
       y2="31.847706"
       id="linearGradient3089"
       xlink:href="#linearGradient3877"
       gradientUnits="userSpaceOnUse"
       gradientTransform="translate(0,-4)" />
    <linearGradient
       x1="41.018513"
       y1="75.720016"
       x2="41.018513"
       y2="31.847706"
       id="linearGradient3132"
       xlink:href="#linearGradient3877"
       gradientUnits="userSpaceOnUse"
       gradientTransform="translate(0,-4)" />
  </defs>
  <metadata
     id="metadata2413">
    <rdf:RDF>
      <cc:Work
         rdf:about="">
        <dc:format>image/svg+xml</dc:format>
        <dc:type
           rdf:resource="http://purl.org/dc/dcmitype/StillImage" />
        <dc:title />
      </cc:Work>
    </rdf:RDF>
  </metadata>
  <g
     id="layer2"
     style="display:none">
    <path
       d="M 14.96875,8.8028918 C 13.32891,8.8028918 12,10.085142 12,11.677892 L 12,19 c -3.324,0 -7,2.676 -7,6 l 0,61 c 0,3.324 2.676,6 6,6 l 74,0 c 3.324,0 6,-2.676 6,-6 l 0,-61 c 0,-3.324 -3.74743,-6 -7.07143,-6 l 0,-0.134608 c 0,-2.389125 -1.97774,-4.3125 -4.4375,-4.3125 l -43.33482,0 -1.46875,-2.875 C 33.95414,10.253293 33.35859,8.8028918 31.71875,8.8028918 l -16.75,0 z"
       inkscape:connector-curvature="0"
       id="rect3745"
       style="opacity:0.9;fill:url(#linearGradient3664);fill-opacity:1;fill-rule:nonzero;stroke:none;filter:url(#filter3174)" />
  </g>
  <g
     id="layer4"
     style="display:inline">
    <path
       d="M 14.125,4 C 9.6910704,4 6,7.568413 6,12 l 0,2.15625 C 3.6235961,15.958367 2,18.759045 2,22 l 0,63 c 0,5.503629 4.496371,10 10,10 l 72,0 c 5.503629,0 10,-4.496371 10,-10 L 94,22 C 94,18.516601 92.146607,15.546894 89.46875,13.78125 88.481551,10.491738 85.526024,8 81.875,8 l -39.5,0 C 40.972352,6.645177 39.835329,5.4903784 38.6875,4.84375 37.192287,4.0014231 35.756649,4.0295412 34.875,4 a 0.92780092,0.92780092 0 0 0 -0.03125,0 c -0.0012,-1.73e-5 -0.03009,-1.73e-5 -0.03125,0 L 34.78125,4 14.125,4 z"
       id="path3984"
       style="opacity:0.07999998;fill:url(#linearGradient3986);fill-opacity:1;fill-rule:nonzero;stroke:none;display:inline" />
    <path
       d="M 14.125,4.9375 C 10.184407,4.9375 6.9375,8.0807925 6.9375,12 l 0,2.59375 c -2.3826099,1.622076 -4,4.293928 -4,7.40625 l 0,63 c 0,5.001444 4.0610559,9.0625 9.0625,9.0625 l 72,0 c 5.001444,0 9.0625,-4.061056 9.0625,-9.0625 l 0,-63 c 0,-3.260846 -1.77319,-6.039741 -4.34375,-7.625 C 87.957559,11.279325 85.241489,8.9375 81.875,8.9375 l -39.8125,0 C 40.465021,7.3963057 39.290438,6.2599842 38.21875,5.65625 36.945571,4.9390059 35.771277,4.9685784 34.84375,4.9375 a 1.043776,1.043776 0 0 0 -0.03125,0 c -10e-7,0 -0.03125,0 -0.03125,0 l -20.65625,0 z"
       id="path3975"
       style="opacity:0.1;fill:url(#linearGradient3977);fill-opacity:1;fill-rule:nonzero;stroke:none;display:inline" />
    <path
       d="M 14.125,5.96875 C 10.736326,5.96875 7.96875,8.6567706 7.96875,12 l 0,3.125 c -2.3751432,1.394016 -4,3.920462 -4,6.875 l 0,63 c 0,4.438141 3.5931086,8.03125 8.03125,8.03125 l 72,0 c 4.438141,0 8.03125,-3.593109 8.03125,-8.03125 l 0,-63 c 0,-3.031992 -1.712245,-5.604362 -4.1875,-6.96875 -0.491893,-2.85962 -2.928643,-5.0625 -5.96875,-5.0625 l -40.1875,0 C 39.852667,8.1939079 38.678863,7.1033787 37.71875,6.5625 36.681475,5.9781523 35.778304,6.0011109 34.8125,5.96875 a 1.043776,1.043776 0 0 0 -0.03125,0 l -20.65625,0 z"
       id="path3967"
       style="opacity:0.2;fill:url(#linearGradient3969);fill-opacity:1;fill-rule:nonzero;stroke:none;display:inline" />
    <path
       d="M 14.125,7 C 11.282105,7 9,9.23 9,12 l 0,3.6875 C 6.6359408,16.808884 5,19.200342 5,22 l 0,63 c 0,3.878 3.122,7 7,7 l 72,0 c 3.878,0 7,-3.122 7,-7 L 91,22 C 91,19.190264 89.346632,16.803629 86.96875,15.6875 86.799101,13.069075 84.606585,11 81.875,11 l -40.59375,0 c -4.220528,-4.1123102 -4.502768,-3.9330794 -6.5,-4 L 14.125,7 z"
       inkscape:connector-curvature="0"
       id="path3908-1"
       style="opacity:0.3;fill:url(#linearGradient3961);fill-opacity:1;fill-rule:nonzero;stroke:none;display:inline" />
    <path
       d="m 15,7 c -2.77,0 -5,2.23 -5,5 l 0,3.34375 C 7.6664933,16.164656 6,18.378887 6,21 l 0,64 c 0,3.324 2.676,6 6,6 l 72,0 c 3.324,0 6,-2.676 6,-6 L 90,21 C 90,18.358112 88.300137,16.148775 85.9375,15.34375 85.611464,12.893448 83.542274,11 81,11 L 40.46875,11 C 36.35644,6.8876898 36.102271,7.0669206 34.15625,7 L 15,7 z"
       inkscape:connector-curvature="0"
       id="path3941"
       style="opacity:0.45;fill:url(#linearGradient3952);fill-opacity:1;fill-rule:nonzero;stroke:none;display:inline" />
  </g>
  <g
     id="layer3"
     style="display:inline">
    <rect
       width="75"
       height="62.678574"
       rx="6"
       ry="6"
       x="10.535714"
       y="23.142857"
       id="rect3352"
       style="fill:url(#linearGradient3361);fill-opacity:1;fill-rule:nonzero;stroke:none;display:inline" />
    <path
       d="m 15,6 c -2.77,0 -5,2.23 -5,5 l 0,59.8125 c 0,2.39328 1.91922,4.3125 4.3125,4.3125 l 67.375,0 C 84.08078,75.125 86,73.20578 86,70.8125 L 86,15 c 0,-2.77 -2.23,-5 -5,-5 L 40.46875,10 C 36.35644,5.8876898 36.102271,6.0669206 34.15625,6 z"
       inkscape:connector-curvature="0"
       id="path3908"
       style="fill:url(#linearGradient3105);fill-opacity:1;fill-rule:nonzero;stroke:none;display:inline" />
    <path
       d="m 15,6 c -2.77,0 -5,2.23 -5,5 l 0,59.8125 c 0,2.39328 1.91922,4.3125 4.3125,4.3125 l 67.375,0 C 84.08078,75.125 86,73.20578 86,70.8125 L 86,15 c 0,-2.77 -2.23,-5 -5,-5 L 40.46875,10 C 36.35644,5.8876898 36.102271,6.0669206 34.15625,6 L 15,6 z m 0,1.03125 19.125,0 0.03125,0 c 0.964976,0.031157 1.192535,-0.016972 1.8125,0.34375 0.630289,0.366729 1.706808,1.3318077 3.75,3.375 a 1.043776,1.043776 0 0 0 0.75,0.28125 l 40.53125,0 c 2.209859,0 3.96875,1.758891 3.96875,3.96875 l 0,55.8125 c 0,1.835319 -1.445931,3.28125 -3.28125,3.28125 l -67.375,0 c -1.835319,0 -3.28125,-1.445931 -3.28125,-3.28125 l 0,-59.8125 c 0,-2.2098586 1.758891,-3.96875 3.96875,-3.96875 z"
       inkscape:connector-curvature="0"
       id="path3108"
       style="opacity:0.2;fill:#ffffff;fill-opacity:1;fill-rule:nonzero;stroke:none;display:inline" />
  </g>
  <g
     id="layer1"
     style="display:inline">
    <rect
       width="84"
       height="76"
       rx="6"
       ry="6"
       x="6"
       y="14"
       id="rect2419"
       style="fill:url(#linearGradient3706);fill-opacity:1;fill-rule:nonzero;stroke:none" />
    <path
       d="M 12,86 C 8.676,86 6,83.324 6,80 L 6,20 c 0,-3.324 2.676,-6 6,-6 l 72,0 c 3.324,0 6,2.676 6,6 l 0,60 c 0,3.324 -2.676,6 -6,6 z m 0,-0.96875 72,0 c 2.80489,0 5.03125,-2.22636 5.03125,-5.03125 l 0,-60 c 0,-2.80489 -2.22636,-5.03125 -5.03125,-5.03125 l -72,0 c -2.8048898,0 -5.03125,2.22636 -5.03125,5.03125 l 0,60 c 0,2.80489 2.2263602,5.03125 5.03125,5.03125 z"
       inkscape:connector-curvature="0"
       id="rect4377"
       style="opacity:0.35;fill:url(#linearGradient3094);fill-opacity:1;fill-rule:nonzero;stroke:none" />
    <path
       d="m 6,78 0,2 c 0,3.324 2.676,6 6,6 l 72,0 c 3.324,0 6,-2.676 6,-6 l 0,-2 c 0,3.324 -2.676,6 -6,6 L 12,84 C 8.676,84 6,81.324 6,78 z"
       inkscape:connector-curvature="0"
       id="rect3841"
       style="opacity:0.1;fill:#ffffff;fill-opacity:1;fill-rule:nonzero;stroke:none" />
  </g>
  <g
     id="layer7">
    <path
       d="m 6,80 0,4 c 0,3.324 2.676,6 6,6 l 72,0 c 3.324,0 6,-2.676 6,-6 l 0,-4 c 0,3.324 -2.676,6 -6,6 L 12,86 C 8.676,86 6,83.324 6,80 z"
       inkscape:connector-curvature="0"
       id="path3067"
       style="opacity:0.8;fill:#ce4f16;fill-opacity:1;fill-rule:nonzero;stroke:none;display:inline" />
    <g
       transform="translate(0,-10)"
       id="g3901">
      <path
         d="m 6,90 0,4 c 0,3.324 2.676,6 6,6 l 72,0 c 3.324,0 6,-2.676 6,-6 l 0,-4 c 0,3.324 -2.676,6 -6,6 L 12,96 C 8.676,96 6,93.324 6,90 z"
         inkscape:connector-curvature="0"
         id="path3888"
         style="opacity:0.5;fill:url(#linearGradient3906);fill-opacity:1;fill-rule:nonzero;stroke:none;display:inline" />
      <path
         d="m 6,92 0,2 c 0,3.324 2.676,6 6,6 l 72,0 c 3.324,0 6,-2.676 6,-6 l 0,-2 c 0,3.324 -2.676,6 -6,6 L 12,98 C 8.676,98 6,95.324 6,92 z"
         inkscape:connector-curvature="0"
         id="rect4345"
         style="opacity:0.1;color:#000000;fill:#000000;fill-opacity:1;fill-rule:nonzero;stroke:none;stroke-width:1.5;marker:none;visibility:visible;display:inline;overflow:visible;enable-background:accumulate" />
      <path
         d="m 6,93 0,1 c 0,3.324 2.676,6 6,6 l 72,0 c 3.324,0 6,-2.676 6,-6 l 0,-1 c 0,3.324 -2.676,6 -6,6 L 12,99 C 8.676,99 6,96.324 6,93 z"
         inkscape:connector-curvature="0"
         id="rect4336"
         style="opacity:0.15;color:#000000;fill:#000000;fill-opacity:1;fill-rule:nonzero;stroke:none;stroke-width:1.5;marker:none;visibility:visible;display:inline;overflow:visible;enable-background:accumulate" />
    </g>
  </g>
  <g
     id="layer5"
     style="display:inline">
    <path
       d="m 15.96875,22.53125 c -2.845903,0.0043 -5.433244,2.591597 -5.4375,5.4375 l 0,48.0625 c 0.0043,2.845903 2.591597,5.433244 5.4375,5.4375 l 64.0625,0 c 2.845903,-0.0043 5.433244,-2.591597 5.4375,-5.4375 l 0,-48.0625 c -0.0043,-2.845903 -2.591597,-5.433244 -5.4375,-5.4375 z"
       inkscape:connector-curvature="0"
       transform="translate(0,-4)"
       clip-path="url(#clipPath3860)"
       id="path3850"
       style="opacity:0.3;fill:url(#linearGradient3123);fill-opacity:1;fill-rule:nonzero;stroke:none;filter:url(#filter3870)" />
  </g>
  <g
     id="layer6">
    <path
       d="M 39.71875,26.03125 A 2.1288862,2.1288862 0 0 0 37.75,28.156251 l 0,23.781249 c -1.653973,-0.177503 -3.394983,-0.141161 -5.1875,0.34375 -2.697267,0.729661 -4.971509,2.110848 -6.5625,3.90625 -1.590991,1.795402 -2.540101,4.174255 -1.90625,6.5625 0.63337,2.386434 2.633204,4.014612 4.90625,4.78125 2.273046,0.766638 4.953208,0.824973 7.65625,0.09375 C 40.884944,66.481063 44.182423,63.756116 45,60.1875 a 2.1288862,2.1288862 0 0 0 0.3125,-1.09375 l 0,-16.9375 12.375,1.5625 0,14.28125 c -1.65959,-0.188001 -3.4136,-0.175828 -5.21875,0.3125 -2.701542,0.730818 -4.973147,2.102859 -6.5625,3.90625 -1.589353,1.803391 -2.540556,4.203787 -1.90625,6.59375 0.63337,2.386434 2.633204,4.014612 4.90625,4.78125 2.273046,0.766638 4.953208,0.824973 7.65625,0.09375 4.237977,-1.146449 7.527553,-3.89737 8.34375,-7.46875 a 2.1288862,2.1288862 0 0 0 0.3125,-1.09375 l 0,-33.843749 a 2.1288862,2.1288862 0 0 0 -1.84375,-2.125 L 40.15625,26.03125 a 2.1288862,2.1288862 0 0 0 -0.4375,0 z m 0.15625,2.125001 23.21875,3.125 0,33.843749 -0.03125,0 c -0.262771,2.690288 -3.100788,5.428286 -7.0625,6.5 -4.663064,1.261445 -9.115954,-0.2483 -9.9375,-3.34375 -0.821545,-3.095448 2.305688,-6.644804 6.96875,-7.90625 2.495083,-0.674968 4.931046,-0.537065 6.78125,0.1875 l 0,-18.75 -16.625,-2.09375 0,19.375 -0.03125,0 c -0.262771,2.690287 -3.100789,5.397037 -7.0625,6.46875 -4.663064,1.261445 -9.115954,-0.2483 -9.9375,-3.34375 -0.821545,-3.095444 2.305685,-6.613554 6.96875,-7.875 2.495081,-0.674968 4.899795,-0.568315 6.75,0.15625 l 0,-26.343749 z m 3.3125,6.34375 0,2.406249 16.625,2.09375 0,-2.125 -16.625,-2.374999 z"
       inkscape:connector-curvature="0"
       id="path4352"
       style="opacity:0.05;fill:#ffffff;fill-opacity:1;stroke:none;display:inline" />
    <path
       d="m 39.6875,26.96875 a 1.1793655,1.1793655 0 0 0 -1,1.187501 l 0,24.937499 c -1.806314,-0.377479 -3.788512,-0.439436 -5.875,0.125 -2.534143,0.685533 -4.680746,1.963938 -6.125,3.59375 -1.444254,1.629812 -2.190604,3.705393 -1.65625,5.71875 0.534088,2.012355 2.219726,3.429703 4.28125,4.125 2.061524,0.695297 4.556408,0.717648 7.09375,0.03125 4.087414,-1.105718 7.181577,-3.767636 7.78125,-6.96875 a 1.1793655,1.1793655 0 0 0 0.15625,-0.4375 1.1793655,1.1793655 0 0 0 0,-0.0625 1.1793655,1.1793655 0 0 0 0.03125,-0.125 l 0,-18.0625 14.25,1.8125 0,16.28125 c -1.810242,-0.385478 -3.812355,-0.441439 -5.90625,0.125 -2.536511,0.686174 -4.681653,1.987278 -6.125,3.625 -1.443347,1.637722 -2.190856,3.704441 -1.65625,5.71875 0.534088,2.012355 2.219726,3.429703 4.28125,4.125 2.061524,0.695297 4.556408,0.717648 7.09375,0.03125 4.092707,-1.10715 7.182143,-3.796812 7.78125,-7 a 1.1793655,1.1793655 0 0 0 0.15625,-0.4375 1.1793655,1.1793655 0 0 0 0,-0.0625 1.1793655,1.1793655 0 0 0 0.03125,-0.125 l 0,-33.843749 A 1.1793655,1.1793655 0 0 0 63.25,30.125001 L 40.03125,27 a 1.1793655,1.1793655 0 0 0 -0.21875,-0.03125 1.1793655,1.1793655 0 0 0 -0.125,0 z m 0.1875,1.187501 23.21875,3.125 0,33.843749 -0.03125,0 c -0.262771,2.690288 -3.100788,5.428286 -7.0625,6.5 -4.663064,1.261445 -9.115954,-0.2483 -9.9375,-3.34375 -0.821545,-3.095448 2.305688,-6.644804 6.96875,-7.90625 2.495083,-0.674968 4.931046,-0.537065 6.78125,0.1875 l 0,-18.75 -16.625,-2.09375 0,19.375 -0.03125,0 c -0.262771,2.690287 -3.100789,5.397037 -7.0625,6.46875 -4.663064,1.261445 -9.115954,-0.2483 -9.9375,-3.34375 -0.821545,-3.095444 2.305685,-6.613554 6.96875,-7.875 2.495081,-0.674968 4.899795,-0.568315 6.75,0.15625 l 0,-26.343749 z m 3.3125,6.34375 0,2.406249 16.625,2.09375 0,-2.125 -16.625,-2.374999 z m 1.1875,1.34375 1.875,0.281249 -1.875,-0.249999 0,-0.03125 z"
       inkscape:connector-curvature="0"
       id="path4341"
       style="opacity:0.1;fill:#ffffff;fill-opacity:1;stroke:none;display:inline" />
    <path
       d="m 39.88072,28.163526 -2e-6,26.345596 c -1.850205,-0.724565 -4.268014,-0.848381 -6.763095,-0.173413 -4.663065,1.261446 -7.789585,4.802715 -6.96804,7.898159 0.821546,3.09545 5.268755,4.587818 9.931819,3.326373 3.961711,-1.071713 6.799858,-3.789045 7.062629,-6.479332 l 0.03153,0 0,-19.374929 16.631556,2.096716 0,18.760107 c -1.850204,-0.724565 -4.268014,-0.848381 -6.763097,-0.173413 -4.663062,1.261446 -7.789584,4.80271 -6.968039,7.898158 0.821546,3.09545 5.268757,4.587819 9.931821,3.326374 3.961712,-1.071714 6.799857,-3.789045 7.062628,-6.479333 l 0.03153,0 0,-33.849634 -23.22124,-3.121429 z m 3.29484,6.340072 16.631556,2.380483 0,2.128248 -16.631556,-2.096719 0,-2.412012 z"
       inkscape:connector-curvature="0"
       id="path3261"
       style="opacity:0.9;fill:url(#linearGradient3089);fill-opacity:1;stroke:none;display:inline" />
    <path
       d="m 39.875,28.156251 0,26.343749 c -1.850205,-0.724565 -4.254919,-0.831218 -6.75,-0.15625 -4.663065,1.261446 -7.790295,4.779556 -6.96875,7.875 0.821546,3.09545 5.274436,4.605195 9.9375,3.34375 3.961711,-1.071713 6.799729,-3.778463 7.0625,-6.46875 l 0.03125,0 0,-19.375 16.625,2.09375 0,18.75 c -1.850204,-0.724565 -4.286167,-0.862468 -6.78125,-0.1875 -4.663062,1.261446 -7.790295,4.810802 -6.96875,7.90625 0.821546,3.09545 5.274436,4.605195 9.9375,3.34375 3.961712,-1.071714 6.799729,-3.809712 7.0625,-6.5 l 0.03125,0 0,-33.843749 -23.21875,-3.125 z m 1.75,1.96875 19.71875,2.65625 0,3.281249 A 1.7488761,1.7488761 0 0 0 60.0625,35.156251 l -16.625,-2.375 a 1.7488761,1.7488761 0 0 0 -1.8125,0.9375 l 0,-3.59375 z m 1.5625,4.375 16.625,2.374999 0,2.125 -16.625,-2.09375 0,-2.406249 z M 41.625,37.65625 a 1.7488761,1.7488761 0 0 0 0.53125,0.65625 1.7488761,1.7488761 0 0 0 -0.53125,0.625 l 0,-1.28125 z m 19.71875,2.1875 0,1.15625 a 1.7488761,1.7488761 0 0 0 -0.5,-0.59375 1.7488761,1.7488761 0 0 0 0.5,-0.5625 z m -19.90625,15.4375 0,3.46875 a 1.7488761,1.7488761 0 0 0 -0.03125,0.1875 c -0.15538,1.590805 -2.332772,4.004625 -5.78125,4.9375 -2.026337,0.548162 -3.965795,0.475287 -5.375,0 -1.409205,-0.475287 -2.17834,-1.235023 -2.40625,-2.09375 -0.227514,-0.857234 0.07077,-1.912103 1.0625,-3.03125 0.99173,-1.119147 2.656418,-2.169304 4.6875,-2.71875 2.176862,-0.588883 4.230838,-0.464461 5.65625,0.09375 a 1.7488761,1.7488761 0 0 0 2.1875,-0.84375 z m 19.90625,6.125 0,3.375 a 1.7488761,1.7488761 0 0 0 -0.03125,0.1875 c -0.155508,1.592111 -2.341041,4.038112 -5.78125,4.96875 -2.026337,0.548162 -3.965795,0.475287 -5.375,0 -1.409205,-0.475287 -2.17834,-1.235023 -2.40625,-2.09375 -0.22714,-0.855826 0.06942,-1.935687 1.0625,-3.0625 0.993076,-1.126813 2.659932,-2.170255 4.6875,-2.71875 2.160178,-0.58437 4.252417,-0.436998 5.6875,0.125 a 1.7488761,1.7488761 0 0 0 2.15625,-0.78125 z"
       inkscape:connector-curvature="0"
       id="path4313"
       style="opacity:0.25;fill:url(#linearGradient3132);fill-opacity:1;stroke:none;display:inline" />
    <path
       d="m 39.875,28.156251 0,1 23.21875,3.125 0,-1 -23.21875,-3.125 z m 3.3125,8.749999 0,1 16.625,2.09375 0,-1 -16.625,-2.09375 z m -7.3125,17 c -0.888065,0.0389 -1.814345,0.184387 -2.75,0.4375 -4.436769,1.200229 -7.484981,4.457212 -7.0625,7.4375 0.288886,-2.678279 3.120453,-5.371103 7.0625,-6.4375 2.495081,-0.674968 4.899795,-0.568315 6.75,0.15625 l 0,-1 c -1.156378,-0.452853 -2.519891,-0.65858 -4,-0.59375 z m 20.78125,6.03125 c -1.147613,-0.03715 -2.377459,0.100016 -3.625,0.4375 -4.371621,1.182606 -7.378866,4.368255 -7.0625,7.3125 0.379238,-2.626803 3.196311,-5.266623 7.0625,-6.3125 2.495083,-0.674968 4.931046,-0.537065 6.78125,0.1875 l 0,-1 c -0.925102,-0.362282 -2.008637,-0.587846 -3.15625,-0.625 z"
       inkscape:connector-curvature="0"
       id="path4291"
       style="fill:url(#linearGradient4297);fill-opacity:1;stroke:none;display:inline" />
    <path
       d="m 39.875,28.156251 0,26.343749 c -1.850205,-0.724565 -4.254919,-0.831218 -6.75,-0.15625 -4.663065,1.261446 -7.790295,4.779556 -6.96875,7.875 0.821546,3.09545 5.274436,4.605195 9.9375,3.34375 3.961711,-1.071713 6.799729,-3.778463 7.0625,-6.46875 l 0.03125,0 0,-19.375 16.625,2.09375 0,18.75 c -1.850204,-0.724565 -4.286167,-0.862468 -6.78125,-0.1875 -4.663062,1.261446 -7.790295,4.810802 -6.96875,7.90625 0.821546,3.09545 5.274436,4.605195 9.9375,3.34375 3.961712,-1.071714 6.799729,-3.809712 7.0625,-6.5 l 0.03125,0 0,-33.843749 -23.21875,-3.125 z m 0.78125,0.90625 21.65625,2.90625 0,32.937499 a 0.79106295,0.79106295 0 0 0 -0.03125,0.15625 c -0.214253,2.193554 -2.774178,4.804598 -6.5,5.8125 -2.193484,0.593378 -4.314925,0.516001 -5.9375,-0.03125 -1.622575,-0.547251 -2.703191,-1.513927 -3.03125,-2.75 -0.327711,-1.23476 0.140893,-2.643571 1.28125,-3.9375 1.140357,-1.293929 2.96221,-2.437721 5.15625,-3.03125 2.343597,-0.633988 4.618816,-0.463532 6.28125,0.1875 a 0.79106295,0.79106295 0 0 0 1.0625,-0.75 l 0,-18.75 a 0.79106295,0.79106295 0 0 0 -0.6875,-0.78125 l -16.625,-2.09375 a 0.79106295,0.79106295 0 0 0 -0.875,0.78125 l 0,19.15625 A 0.79106295,0.79106295 0 0 0 42.375,59.03125 c -0.214195,2.192962 -2.770438,4.772337 -6.5,5.78125 -2.193484,0.593378 -4.314925,0.516001 -5.9375,-0.03125 -1.622575,-0.547251 -2.703191,-1.513927 -3.03125,-2.75 -0.32788,-1.235396 0.141502,-2.620067 1.28125,-3.90625 1.139748,-1.286183 2.960619,-2.437291 5.15625,-3.03125 2.351142,-0.63603 4.59194,-0.493068 6.25,0.15625 a 0.79106295,0.79106295 0 0 0 1.0625,-0.75 l 0,-25.437499 z m 2.40625,4.65625 a 0.79106295,0.79106295 0 0 0 -0.65625,0.78125 l 0,2.406249 a 0.79106295,0.79106295 0 0 0 0.6875,0.78125 l 16.625,2.09375 A 0.79106295,0.79106295 0 0 0 60.59375,39 l 0,-2.125 A 0.79106295,0.79106295 0 0 0 59.9375,36.09375 l -16.625,-2.374999 a 0.79106295,0.79106295 0 0 0 -0.25,0 z m 0.125,0.78125 16.625,2.374999 0,2.125 -16.625,-2.09375 0,-2.406249 z"
       inkscape:connector-curvature="0"
       id="path4300"
       style="opacity:0.5;fill:url(#linearGradient4310);fill-opacity:1;stroke:none;display:inline" />
    <path
       d="m 43.1875,34.500001 0,1 16.625,2.374999 0,-1 -16.625,-2.374999 z m 0,5.218749 0,1 16.625,2.09375 0,-1 -16.625,-2.09375 z m -0.03125,19.375 c -0.262771,2.690287 -3.100789,5.397037 -7.0625,6.46875 -4.663064,1.261445 -9.115954,-0.2483 -9.9375,-3.34375 -0.03987,-0.15022 -0.0722,-0.285492 -0.09375,-0.4375 -0.05284,0.489869 -0.03328,0.958872 0.09375,1.4375 0.821546,3.09545 5.274436,4.605195 9.9375,3.34375 3.961711,-1.071713 6.799729,-3.778463 7.0625,-6.46875 l 0.03125,0 0,-1 -0.03125,0 z M 63.0625,65.125 c -0.262771,2.690288 -3.100788,5.428286 -7.0625,6.5 -4.663064,1.261445 -9.115954,-0.2483 -9.9375,-3.34375 -0.04607,-0.173596 -0.07209,-0.35533 -0.09375,-0.53125 -0.06761,0.520827 -0.0413,1.022409 0.09375,1.53125 0.821546,3.09545 5.274436,4.605195 9.9375,3.34375 3.961712,-1.071714 6.799729,-3.809712 7.0625,-6.5 l 0.03125,0 0,-1 -0.03125,0 z"
       inkscape:connector-curvature="0"
       id="path4326"
       style="opacity:0.2;fill:#ffffff;fill-opacity:1;stroke:none;display:inline" />
    <path
       d="m 39.875,28.156251 0,26.343749 c -1.850205,-0.724565 -4.254919,-0.831218 -6.75,-0.15625 -4.663065,1.261446 -7.790295,4.779556 -6.96875,7.875 0.821546,3.09545 5.274436,4.605195 9.9375,3.34375 3.961711,-1.071713 6.799729,-3.778463 7.0625,-6.46875 l 0.03125,0 0,-19.375 16.625,2.09375 0,18.75 c -1.850204,-0.724565 -4.286167,-0.862468 -6.78125,-0.1875 -4.663062,1.261446 -7.790295,4.810802 -6.96875,7.90625 0.821546,3.09545 5.274436,4.605195 9.9375,3.34375 3.961712,-1.071714 6.799729,-3.809712 7.0625,-6.5 l 0.03125,0 0,-33.843749 -23.21875,-3.125 z m 1.75,1.96875 19.71875,2.65625 0,3.281249 A 1.7488761,1.7488761 0 0 0 60.0625,35.156251 l -16.625,-2.375 a 1.7488761,1.7488761 0 0 0 -1.8125,0.9375 l 0,-3.59375 z m 1.5625,4.375 16.625,2.374999 0,2.125 -16.625,-2.09375 0,-2.406249 z M 41.625,37.65625 a 1.7488761,1.7488761 0 0 0 0.53125,0.65625 1.7488761,1.7488761 0 0 0 -0.53125,0.625 l 0,-1.28125 z m 19.71875,2.1875 0,1.15625 a 1.7488761,1.7488761 0 0 0 -0.5,-0.59375 1.7488761,1.7488761 0 0 0 0.5,-0.5625 z m -19.90625,15.4375 0,3.46875 a 1.7488761,1.7488761 0 0 0 -0.03125,0.1875 c -0.15538,1.590805 -2.332772,4.004625 -5.78125,4.9375 -2.026337,0.548162 -3.965795,0.475287 -5.375,0 -1.409205,-0.475287 -2.17834,-1.235023 -2.40625,-2.09375 -0.227514,-0.857234 0.07077,-1.912103 1.0625,-3.03125 0.99173,-1.119147 2.656418,-2.169304 4.6875,-2.71875 2.176862,-0.588883 4.230838,-0.464461 5.65625,0.09375 a 1.7488761,1.7488761 0 0 0 2.1875,-0.84375 z m 19.90625,6.125 0,3.375 a 1.7488761,1.7488761 0 0 0 -0.03125,0.1875 c -0.155508,1.592111 -2.341041,4.038112 -5.78125,4.96875 -2.026337,0.548162 -3.965795,0.475287 -5.375,0 -1.409205,-0.475287 -2.17834,-1.235023 -2.40625,-2.09375 -0.22714,-0.855826 0.06942,-1.935687 1.0625,-3.0625 0.993076,-1.126813 2.659932,-2.170255 4.6875,-2.71875 2.160178,-0.58437 4.252417,-0.436998 5.6875,0.125 a 1.7488761,1.7488761 0 0 0 2.15625,-0.78125 z"
       inkscape:connector-curvature="0"
       id="path4346"
       style="opacity:0.25;fill:url(#linearGradient4323);fill-opacity:1;stroke:none;display:inline" />
  </g>
</svg>
