<?xml version="1.0" encoding="UTF-8" standalone="no"?>
<!-- Created with Inkscape (http://www.inkscape.org/) -->

<svg
   xmlns:dc="http://purl.org/dc/elements/1.1/"
   xmlns:cc="http://creativecommons.org/ns#"
   xmlns:rdf="http://www.w3.org/1999/02/22-rdf-syntax-ns#"
   xmlns:svg="http://www.w3.org/2000/svg"
   xmlns="http://www.w3.org/2000/svg"
   xmlns:xlink="http://www.w3.org/1999/xlink"
   xmlns:inkscape="http://www.inkscape.org/namespaces/inkscape"
   version="1.0"
   width="96"
   height="96"
   id="svg2408">
  <defs
     id="defs2410">
    <linearGradient
       id="linearGradient3894">
      <stop
         id="stop3901"
         style="stop-color:#c75026;stop-opacity:1"
         offset="0" />
      <stop
         id="stop3905"
         style="stop-color:#eb9d48;stop-opacity:1"
         offset="1" />
    </linearGradient>
    <linearGradient
       id="linearGradient3885">
      <stop
         id="stop3887"
         style="stop-color:#eb7731;stop-opacity:1"
         offset="0" />
      <stop
         id="stop3889"
         style="stop-color:#e59343;stop-opacity:1"
         offset="0.5" />
      <stop
         id="stop3891"
         style="stop-color:#e5b66b;stop-opacity:1"
         offset="1" />
    </linearGradient>
    <linearGradient
       id="linearGradient3874">
      <stop
         id="stop3876"
         style="stop-color:#ffa32d;stop-opacity:1"
         offset="0" />
      <stop
         id="stop3878"
         style="stop-color:#ffe4c1;stop-opacity:0"
         offset="1" />
    </linearGradient>
    <linearGradient
       x1="11.794092"
       y1="3.2126782"
       x2="11.794092"
       y2="20.137329"
       id="linearGradient3317"
       gradientUnits="userSpaceOnUse"
       gradientTransform="scale(1.0598527,0.9435274)">
      <stop
         id="stop3319"
         style="stop-color:#c6953a;stop-opacity:1"
         offset="0" />
      <stop
         id="stop3321"
         style="stop-color:#ab7a1f;stop-opacity:1"
         offset="1" />
    </linearGradient>
    <linearGradient
       x1="48.035713"
       y1="25.910715"
       x2="48.035713"
       y2="85.821426"
       id="linearGradient3361"
       xlink:href="#linearGradient3317"
       gradientUnits="userSpaceOnUse" />
    <linearGradient
       x1="45.447727"
       y1="80.471962"
       x2="45.447727"
       y2="7.0165396"
       id="ButtonShadow"
       gradientUnits="userSpaceOnUse"
       gradientTransform="matrix(1.0058652,0,0,0.994169,0,12)">
      <stop
         id="stop3750"
         style="stop-color:#000000;stop-opacity:1"
         offset="0" />
      <stop
         id="stop3752"
         style="stop-color:#000000;stop-opacity:0.58823532"
         offset="1" />
    </linearGradient>
    <linearGradient
       x1="48"
       y1="78"
       x2="48"
       y2="16"
       id="linearGradient3706"
       xlink:href="#linearGradient3885"
       gradientUnits="userSpaceOnUse"
       gradientTransform="translate(0,8)" />
    <filter
       color-interpolation-filters="sRGB"
       id="filter3174">
      <feGaussianBlur
         id="feGaussianBlur3176"
         stdDeviation="1.71" />
    </filter>
    <linearGradient
       x1="45.447727"
       y1="80.471962"
       x2="45.447727"
       y2="5.297224"
       id="linearGradient3664"
       xlink:href="#ButtonShadow"
       gradientUnits="userSpaceOnUse"
       gradientTransform="matrix(1.0058652,0,0,0.994169,0,12)" />
    <clipPath
       id="clipPath3860">
      <rect
         width="84"
         height="72"
         rx="6"
         ry="6"
         x="6"
         y="18"
         id="rect3862"
         style="fill:#ff00ff;fill-opacity:1;fill-rule:nonzero;stroke:none" />
    </clipPath>
    <filter
       x="-0.16558799"
       y="-0.19715989"
       width="1.331176"
       height="1.3943198"
       color-interpolation-filters="sRGB"
       id="filter3870">
      <feGaussianBlur
         id="feGaussianBlur3872"
         stdDeviation="5.1703125" />
    </filter>
    <linearGradient
       id="linearGradient3892">
      <stop
         id="stop3894"
         style="stop-color:#000000;stop-opacity:0.58823532"
         offset="0" />
      <stop
         id="stop3896"
         style="stop-color:#000000;stop-opacity:0.47058824"
         offset="0.11780351" />
      <stop
         id="stop3898"
         style="stop-color:#000000;stop-opacity:0.39215687"
         offset="0.23809524" />
      <stop
         id="stop3900"
         style="stop-color:#000000;stop-opacity:0.3137255"
         offset="1" />
    </linearGradient>
    <linearGradient
       id="linearGradient4384">
      <stop
         id="stop4386"
         style="stop-color:#ffffff;stop-opacity:1"
         offset="0" />
      <stop
         id="stop4388"
         style="stop-color:#ffffff;stop-opacity:0"
         offset="1" />
    </linearGradient>
    <linearGradient
       x1="48"
       y1="68"
       x2="48"
       y2="-40"
       id="linearGradient3094"
       xlink:href="#linearGradient4384"
       gradientUnits="userSpaceOnUse"
       gradientTransform="matrix(1,0,0,-1,0,92)" />
    <linearGradient
       x1="48.021698"
       y1="32"
       x2="48.021698"
       y2="81.481377"
       id="linearGradient3123"
       xlink:href="#linearGradient3874"
       gradientUnits="userSpaceOnUse" />
    <linearGradient
       x1="37.611111"
       y1="27.111111"
       x2="37.611111"
       y2="21.555555"
       id="linearGradient3105"
       xlink:href="#linearGradient3894"
       gradientUnits="userSpaceOnUse"
       gradientTransform="matrix(0.72,0,0,0.72,1.92,-5.52)" />
    <linearGradient
       x1="90"
       y1="88"
       x2="48"
       y2="88"
       id="linearGradient3906"
       xlink:href="#linearGradient3892"
       gradientUnits="userSpaceOnUse"
       gradientTransform="translate(0,10)"
       spreadMethod="reflect" />
    <linearGradient
       x1="45.447727"
       y1="80.471962"
       x2="45.447727"
       y2="7.0165396"
       id="ButtonShadow-5"
       gradientUnits="userSpaceOnUse"
       gradientTransform="matrix(1.0058652,0,0,0.994169,0,12)">
      <stop
         id="stop3750-9"
         style="stop-color:#000000;stop-opacity:1"
         offset="0" />
      <stop
         id="stop3752-4"
         style="stop-color:#000000;stop-opacity:0.58823532"
         offset="1" />
    </linearGradient>
    <linearGradient
       x1="45"
       y1="92"
       x2="45"
       y2="7"
       id="linearGradient4093"
       xlink:href="#ButtonShadow-5"
       gradientUnits="userSpaceOnUse" />
    <linearGradient
       x1="45"
       y1="92"
       x2="45"
       y2="7"
       id="linearGradient4079"
       xlink:href="#ButtonShadow-5"
       gradientUnits="userSpaceOnUse" />
    <linearGradient
       x1="45"
       y1="92"
       x2="45"
       y2="7"
       id="linearGradient4071"
       xlink:href="#ButtonShadow-5"
       gradientUnits="userSpaceOnUse" />
    <linearGradient
       x1="43"
       y1="91"
       x2="43"
       y2="7"
       id="linearGradient4061"
       xlink:href="#ButtonShadow-5"
       gradientUnits="userSpaceOnUse" />
    <linearGradient
       x1="45"
       y1="92"
       x2="45"
       y2="7"
       id="linearGradient4171"
       xlink:href="#ButtonShadow-5"
       gradientUnits="userSpaceOnUse" />
    <linearGradient
       id="linearGradient3637">
      <stop
         id="stop3645"
         style="stop-color:#f0f0f0;stop-opacity:1"
         offset="0" />
      <stop
         id="stop3641"
         style="stop-color:#f5f5f5;stop-opacity:1"
         offset="1" />
    </linearGradient>
    <linearGradient
       x1="19.946079"
       y1="28.251511"
       x2="19.946079"
       y2="18.047863"
       id="linearGradient4192"
       xlink:href="#linearGradient3637"
       gradientUnits="userSpaceOnUse"
       gradientTransform="translate(0,-4)" />
  </defs>
  <metadata
     id="metadata2413">
    <rdf:RDF>
      <cc:Work
         rdf:about="">
        <dc:format>image/svg+xml</dc:format>
        <dc:type
           rdf:resource="http://purl.org/dc/dcmitype/StillImage" />
        <dc:title />
      </cc:Work>
    </rdf:RDF>
  </metadata>
  <g
     id="layer2"
     style="display:none">
    <path
       d="M 14.96875,8.8028918 C 13.32891,8.8028918 12,10.085142 12,11.677892 L 12,19 c -3.324,0 -7,2.676 -7,6 l 0,61 c 0,3.324 2.676,6 6,6 l 74,0 c 3.324,0 6,-2.676 6,-6 l 0,-61 c 0,-3.324 -3.74743,-6 -7.07143,-6 l 0,-0.134608 c 0,-2.389125 -1.97774,-4.3125 -4.4375,-4.3125 l -43.33482,0 -1.46875,-2.875 C 33.95414,10.253293 33.35859,8.8028918 31.71875,8.8028918 l -16.75,0 z"
       inkscape:connector-curvature="0"
       id="rect3745"
       style="opacity:0.9;fill:url(#linearGradient3664);fill-opacity:1;fill-rule:nonzero;stroke:none;filter:url(#filter3174)" />
  </g>
  <g
     id="layer4"
     style="display:inline">
    <path
       d="m 14.125,3.96875 c -5.0948606,-0.15037 -8.7948043,4.7479546 -8.15625,9.5625 0.00835,0.06297 -0.00985,0.124564 0,0.1875 l 0,10.5625 c -3.3296115,2.397374 -4.3234927,6.548623 -4,10.25 5.58e-5,0.03124 -5.48e-5,0.06251 0,0.09375 C 1.9987471,51.714428 1.8926539,68.8033 2,85.90625 A 1.1340355,1.1340355 0 0 0 2,86 c 0.4312091,5.889535 6.2451069,9.69724 11.78125,9.03125 0.05233,-0.0063 0.103971,0.0071 0.15625,0 C 37.593658,95.001176 61.240796,95.107514 84.90625,95 A 1.1340355,1.1340355 0 0 0 85,95 c 5.889535,-0.431209 9.69724,-6.245106 9.03125,-11.78125 -0.0063,-0.05233 0.0071,-0.103971 0,-0.15625 -0.0125,-17.170933 0.01294,-34.324809 -0.03125,-51.5 -1.07e-4,-0.04169 1.08e-4,-0.08331 0,-0.125 l -0.03125,0 c 0.178319,-2.041377 -0.825624,-3.629058 -1.8125,-4.84375 -0.997986,-1.228366 -1.89337,-2.240083 -2.125,-3.0625 -0.107937,-2.740464 0.28391,-5.74774 -0.1875,-8.78125 -0.0032,-0.0209 0.0033,-0.0416 0,-0.0625 l -0.03125,0 C 89.523983,12.370017 88.163934,10.499465 86.375,9.34375 84.611204,8.2042748 82.445186,7.7081739 80.34375,7.96875 c -0.05219,0.00647 -0.104143,-0.00743 -0.15625,0 l -37.84375,0 c -2.093676,-2.2394687 -4.843179,-4.289972 -8.3125,-4 l -0.09375,0 -19.78125,0 -0.03125,0 z"
       id="path4099"
       style="opacity:0.07999998;fill:url(#linearGradient4171);fill-opacity:1;fill-rule:nonzero;stroke:none;display:inline" />
    <path
       d="M 14.125,5.0937501 C 9.7174465,4.9452078 6.4369338,9.3203993 7.09375,13.515707 c 0,3.755181 0,7.510362 0,11.265543 -3.3716448,2.023424 -4.3417912,6.077211 -4,9.744929 0.030563,17.126716 -0.061293,34.256546 0.04619,51.381305 0.382073,5.218425 5.6647415,8.673123 10.628384,7.998766 23.712663,-0.03075 47.428454,0.06153 71.13916,-0.04619 5.218425,-0.382073 8.673123,-5.664742 7.998766,-10.628385 -0.0128,-17.266511 0.02558,-34.533885 -0.01919,-51.799856 0.383687,-3.362389 -3.315503,-5.134137 -3.980808,-7.66104 -0.14153,-2.950786 0.273733,-6.001349 -0.1875,-8.895779 -0.452636,-3.967334 -4.63991,-6.3118023 -8.359457,-5.7812499 -12.807264,0 -25.614529,0 -38.421793,0 -2.037486,-2.2968137 -4.713462,-4.3066901 -7.914104,-4 -6.632798,0 -13.265597,0 -19.898396,0 z"
       inkscape:connector-curvature="0"
       id="path4085"
       style="opacity:0.1;fill:url(#linearGradient4093);fill-opacity:1;fill-rule:nonzero;stroke:none;display:inline" />
    <path
       d="M 14.125,5.96875 C 10.750788,5.96875 7.96875,8.6719601 7.96875,12 l 0,7.71875 0,5.46875 c -2.3548255,1.39218 -4,3.877051 -4,6.8125 l 0,21 0,32 c 0,4.423299 3.6079513,8.03125 8.03125,8.03125 l 72,0 c 4.423299,0 8.03125,-3.607951 8.03125,-8.03125 l 0,-32 0,-21 c 0,-2.935448 -1.645174,-5.42032 -4,-6.8125 l 0,-9.1875 0,-0.28125 A 1.0161178,1.0161178 0 0 0 87.875,15.1875 c -0.06922,-0.51972 -0.133916,-1.045094 -0.34375,-1.53125 -0.01582,-0.03659 -0.05932,-0.115706 -0.125,-0.25 -0.171298,-0.353726 -0.273878,-0.43737 -0.1875,-0.28125 -0.103528,-0.185933 -0.217145,-0.402524 -0.40625,-0.65625 -0.228559,-0.306662 -0.477929,-0.593983 -0.75,-0.84375 -0.18396,-0.170587 -0.411443,-0.400501 -0.75,-0.625 -0.0096,-0.0064 -0.0587,-0.05212 -0.125,-0.09375 l 0,0.03125 c -0.343441,-0.216911 -0.667576,-0.357333 -0.9375,-0.46875 0.128039,0.05294 0.118536,0.0403 -0.0625,-0.03125 -0.317927,-0.126074 -0.690184,-0.263939 -1.09375,-0.34375 -0.386581,-0.07506 -0.392688,-0.06951 -0.03125,0 -0.38863,-0.07471 -0.781536,-0.125 -1.1875,-0.125 l -20.65625,0 -19.59375,0 C 39.833039,8.2378495 38.630956,7.1252451 37.6875,6.59375 36.655247,6.012231 35.779174,6.03239 34.8125,6 A 1.0161178,1.0161178 0 0 0 34.78125,5.96875 l -20.65625,0 z"
       id="path4077"
       style="opacity:0.15;fill:url(#linearGradient4079);fill-opacity:1;fill-rule:nonzero;stroke:none;display:inline" />
    <path
       d="M 14.125,7.0000001 C 11.282105,7.0000001 9,9.2300001 9,12 l 0,7.71875 0,5.96875 C 6.635941,26.808884 5,29.200342 5,32 l 0,21 0,32 c 0,3.878 3.122,7 7,7 l 72,0 c 3.878,0 7,-3.122 7,-7 l 0,-32 0,-21 c 0,-2.799658 -1.63594,-5.191116 -4,-6.3125 L 87,16 87,15.71875 C 86.987,15.71255 86.9818,15.69364 86.9687,15.6875 86.9316,15.112918 86.8116,14.567345 86.5937,14.0625 86.5628,13.99101 86.5341,13.913476 86.5,13.84375 86.4606,13.76239 86.38738,13.703857 86.34375,13.625 86.23689,13.433083 86.13083,13.238037 86,13.0625 85.81184,12.810042 85.60745,12.588394 85.375,12.375 85.17468,12.189242 84.97933,11.99582 84.75,11.84375 c -0.0311,-0.0205 -0.0621,-0.04266 -0.0937,-0.0625 -0.24507,-0.154782 -0.50916,-0.262689 -0.78125,-0.375 -0.0208,-0.0086 -0.0415,-0.02295 -0.0625,-0.03125 -0.28711,-0.113853 -0.59506,-0.219708 -0.90625,-0.28125 -0.0103,-0.002 -0.0209,0.002 -0.0313,0 C 82.5501,11.03129 82.21943,11 81.875,11 l -20.65625,0 -19.9375,0 c -4.220528,-4.1123101 -4.502768,-3.9330793 -6.5,-3.9999999 l -20.65625,0 z"
       inkscape:connector-curvature="0"
       id="path3908-1"
       style="opacity:0.3;fill:url(#linearGradient4071);fill-opacity:1;fill-rule:nonzero;stroke:none;display:inline" />
    <path
       d="m 15,7.0000001 c -2.77,0 -5,2.23 -5,4.9999999 l 0,12 0,1.34375 C 7.666493,26.164656 6,28.378887 6,31 l 0,4 0,50 c 0,3.324 2.676,6 6,6 l 72,0 c 3.324,0 6,-2.676 6,-6 l 0,-50 0,-4 c 0,-2.621113 -1.66649,-4.835344 -4,-5.65625 L 86,24 86,15.375 C 85.97779,15.3671 85.95983,15.35136 85.9375,15.34375 85.611464,12.893448 83.542274,11 81,11 L 40.46875,11 C 36.35644,6.8876899 36.102271,7.0669207 34.15625,7.0000001 l -19.15625,0 z"
       inkscape:connector-curvature="0"
       id="path3941"
       style="opacity:0.45;fill:url(#linearGradient4061);fill-opacity:1;fill-rule:nonzero;stroke:none;display:inline" />
  </g>
  <g
     id="layer3"
     style="display:inline">
    <rect
       width="75"
       height="62.678574"
       rx="6"
       ry="6"
       x="10.535714"
       y="23.142857"
       id="rect3352"
       style="fill:url(#linearGradient3361);fill-opacity:1;fill-rule:nonzero;stroke:none;display:inline" />
    <path
       d="m 15,6 c -2.77,0 -5,2.23 -5,5 l 0,59.8125 c 0,2.39328 1.91922,4.3125 4.3125,4.3125 l 67.375,0 C 84.08078,75.125 86,73.20578 86,70.8125 L 86,15 c 0,-2.77 -2.23,-5 -5,-5 L 40.46875,10 C 36.35644,5.8876898 36.102271,6.0669206 34.15625,6 z"
       inkscape:connector-curvature="0"
       id="path3908"
       style="fill:url(#linearGradient3105);fill-opacity:1;fill-rule:nonzero;stroke:none;display:inline" />
    <path
       d="m 15,6 c -2.77,0 -5,2.23 -5,5 l 0,59.8125 c 0,2.39328 1.91922,4.3125 4.3125,4.3125 l 67.375,0 C 84.08078,75.125 86,73.20578 86,70.8125 L 86,15 c 0,-2.77 -2.23,-5 -5,-5 L 40.46875,10 C 36.35644,5.8876898 36.102271,6.0669206 34.15625,6 L 15,6 z m 0,1.03125 19.125,0 0.03125,0 c 0.964976,0.031157 1.192535,-0.016972 1.8125,0.34375 0.630289,0.366729 1.706808,1.3318077 3.75,3.375 a 1.043776,1.043776 0 0 0 0.75,0.28125 l 40.53125,0 c 2.209859,0 3.96875,1.758891 3.96875,3.96875 l 0,55.8125 c 0,1.835319 -1.445931,3.28125 -3.28125,3.28125 l -67.375,0 c -1.835319,0 -3.28125,-1.445931 -3.28125,-3.28125 l 0,-59.8125 c 0,-2.2098586 1.758891,-3.96875 3.96875,-3.96875 z"
       inkscape:connector-curvature="0"
       id="path3108"
       style="opacity:0.2;fill:#ffffff;fill-opacity:1;fill-rule:nonzero;stroke:none;display:inline" />
  </g>
  <g
     id="layer8">
    <rect
       width="76.000008"
       height="32"
       rx="5"
       ry="5"
       x="10"
       y="14"
       id="rect2863"
       style="fill:url(#linearGradient4192);fill-opacity:1;stroke:none;display:inline" />
    <path
       d="m 15,14 c -2.77,0 -5,2.23 -5,5 l 0,22 c 0,2.77 2.23,5 5,5 l 66,0 c 2.77,0 5,-2.23 5,-5 l 0,-22 c 0,-2.77 -2.23,-5 -5,-5 l -66,0 z m 0,1.0625 66,0 c 2.201726,0 3.9375,1.735774 3.9375,3.9375 l 0,22 c 0,2.201726 -1.735774,3.9375 -3.9375,3.9375 l -66,0 c -2.201726,0 -3.9375,-1.735774 -3.9375,-3.9375 l 0,-22 c 0,-2.201726 1.735774,-3.9375 3.9375,-3.9375 z"
       inkscape:connector-curvature="0"
       id="rect3922"
       style="fill:#ffffff;fill-opacity:1;stroke:none;display:inline" />
    <path
       d="m 12,21 c -0.702887,0 -1.374238,0.123613 -2,0.34375 L 10,41 c 0,2.77 2.23,5 5,5 l 66,0 c 2.77,0 5,-2.23 5,-5 L 86,21.34375 C 85.374238,21.123613 84.702888,21 84,21 l -72,0 z"
       inkscape:connector-curvature="0"
       id="rect4034"
       style="opacity:0.05;fill:#000000;fill-opacity:1;fill-rule:nonzero;stroke:none;display:inline" />
    <path
       d="m 12,22 c -0.702887,0 -1.374238,0.123613 -2,0.34375 L 10,41 c 0,2.77 2.23,5 5,5 l 66,0 c 2.77,0 5,-2.23 5,-5 L 86,22.34375 C 85.374238,22.123613 84.702888,22 84,22 l -72,0 z"
       inkscape:connector-curvature="0"
       id="rect4032"
       style="opacity:0.07999998;fill:#000000;fill-opacity:1;fill-rule:nonzero;stroke:none;display:inline" />
    <path
       d="m 12,23 c -0.702887,0 -1.374238,0.123613 -2,0.34375 L 10,41 c 0,2.77 2.23,5 5,5 l 66,0 c 2.77,0 5,-2.23 5,-5 L 86,23.34375 C 85.374238,23.123613 84.702888,23 84,23 l -72,0 z"
       inkscape:connector-curvature="0"
       id="rect3996"
       style="opacity:0.15;fill:#000000;fill-opacity:1;fill-rule:nonzero;stroke:none;display:inline" />
  </g>
  <g
     id="layer1"
     style="display:inline">
    <rect
       width="84"
       height="66"
       rx="6"
       ry="6"
       x="6"
       y="24"
       id="rect2419"
       style="fill:url(#linearGradient3706);fill-opacity:1;fill-rule:nonzero;stroke:none" />
    <path
       d="M 12,86 C 8.676,86 6,83.324 6,80 L 6,30 c 0,-3.324 2.676,-6 6,-6 l 72,0 c 3.324,0 6,2.676 6,6 l 0,50 c 0,3.324 -2.676,6 -6,6 z m 0,-0.96875 72,0 c 2.80489,0 5.03125,-2.22636 5.03125,-5.03125 l 0,-50 c 0,-2.80489 -2.22636,-5.03125 -5.03125,-5.03125 l -72,0 c -2.8048898,0 -5.03125,2.22636 -5.03125,5.03125 l 0,50 c 0,2.80489 2.2263602,5.03125 5.03125,5.03125 z"
       inkscape:connector-curvature="0"
       id="rect4377"
       style="opacity:0.35;fill:url(#linearGradient3094);fill-opacity:1;fill-rule:nonzero;stroke:none" />
    <path
       d="m 6,78 0,2 c 0,3.324 2.676,6 6,6 l 72,0 c 3.324,0 6,-2.676 6,-6 l 0,-2 c 0,3.324 -2.676,6 -6,6 L 12,84 C 8.676,84 6,81.324 6,78 z"
       inkscape:connector-curvature="0"
       id="rect3841"
       style="opacity:0.1;fill:#ffffff;fill-opacity:1;fill-rule:nonzero;stroke:none" />
  </g>
  <g
     id="layer7">
    <path
       d="m 6,80 0,4 c 0,3.324 2.676,6 6,6 l 72,0 c 3.324,0 6,-2.676 6,-6 l 0,-4 c 0,3.324 -2.676,6 -6,6 L 12,86 C 8.676,86 6,83.324 6,80 z"
       inkscape:connector-curvature="0"
       id="path3067"
       style="opacity:0.8;fill:#ce4f16;fill-opacity:1;fill-rule:nonzero;stroke:none;display:inline" />
    <g
       transform="translate(0,-10)"
       id="g3901">
      <path
         d="m 6,90 0,4 c 0,3.324 2.676,6 6,6 l 72,0 c 3.324,0 6,-2.676 6,-6 l 0,-4 c 0,3.324 -2.676,6 -6,6 L 12,96 C 8.676,96 6,93.324 6,90 z"
         inkscape:connector-curvature="0"
         id="path3888"
         style="opacity:0.5;fill:url(#linearGradient3906);fill-opacity:1;fill-rule:nonzero;stroke:none;display:inline" />
      <path
         d="m 6,92 0,2 c 0,3.324 2.676,6 6,6 l 72,0 c 3.324,0 6,-2.676 6,-6 l 0,-2 c 0,3.324 -2.676,6 -6,6 L 12,98 C 8.676,98 6,95.324 6,92 z"
         inkscape:connector-curvature="0"
         id="rect4345"
         style="opacity:0.1;color:#000000;fill:#000000;fill-opacity:1;fill-rule:nonzero;stroke:none;stroke-width:1.5;marker:none;visibility:visible;display:inline;overflow:visible;enable-background:accumulate" />
      <path
         d="m 6,93 0,1 c 0,3.324 2.676,6 6,6 l 72,0 c 3.324,0 6,-2.676 6,-6 l 0,-1 c 0,3.324 -2.676,6 -6,6 L 12,99 C 8.676,99 6,96.324 6,93 z"
         inkscape:connector-curvature="0"
         id="rect4336"
         style="opacity:0.15;color:#000000;fill:#000000;fill-opacity:1;fill-rule:nonzero;stroke:none;stroke-width:1.5;marker:none;visibility:visible;display:inline;overflow:visible;enable-background:accumulate" />
    </g>
  </g>
  <g
     id="layer5"
     style="display:inline">
    <path
       d="m 15.96875,32.53125 c -2.845903,0.0043 -5.433244,2.591597 -5.4375,5.4375 l 0,38.0625 c 0.0043,2.845903 2.591597,5.433244 5.4375,5.4375 l 64.0625,0 c 2.845903,-0.0043 5.433244,-2.591597 5.4375,-5.4375 l 0,-38.0625 c -0.0043,-2.845903 -2.591597,-5.433244 -5.4375,-5.4375 z"
       inkscape:connector-curvature="0"
       transform="translate(0,-4)"
       clip-path="url(#clipPath3860)"
       id="path3850"
       style="opacity:0.3;fill:url(#linearGradient3123);fill-opacity:1;fill-rule:nonzero;stroke:none;filter:url(#filter3870)" />
  </g>
  <g
     id="layer6" />
</svg>
