<?xml version="1.0" encoding="UTF-8" standalone="no"?>
<!-- Created with Inkscape (http://www.inkscape.org/) -->

<svg
   xmlns:dc="http://purl.org/dc/elements/1.1/"
   xmlns:cc="http://creativecommons.org/ns#"
   xmlns:rdf="http://www.w3.org/1999/02/22-rdf-syntax-ns#"
   xmlns:svg="http://www.w3.org/2000/svg"
   xmlns="http://www.w3.org/2000/svg"
   xmlns:xlink="http://www.w3.org/1999/xlink"
   xmlns:inkscape="http://www.inkscape.org/namespaces/inkscape"
   version="1.0"
   width="96"
   height="96"
   id="svg2408">
  <defs
     id="defs2410">
    <linearGradient
       id="linearGradient3894">
      <stop
         id="stop3901"
         style="stop-color:#c75026;stop-opacity:1"
         offset="0" />
      <stop
         id="stop3905"
         style="stop-color:#eb9d48;stop-opacity:1"
         offset="1" />
    </linearGradient>
    <linearGradient
       id="linearGradient3885">
      <stop
         id="stop3887"
         style="stop-color:#eb7731;stop-opacity:1"
         offset="0" />
      <stop
         id="stop3889"
         style="stop-color:#e59343;stop-opacity:1"
         offset="0.5" />
      <stop
         id="stop3891"
         style="stop-color:#e5b66b;stop-opacity:1"
         offset="1" />
    </linearGradient>
    <linearGradient
       id="linearGradient3874">
      <stop
         id="stop3876"
         style="stop-color:#ffa32d;stop-opacity:1"
         offset="0" />
      <stop
         id="stop3878"
         style="stop-color:#ffe4c1;stop-opacity:0"
         offset="1" />
    </linearGradient>
    <linearGradient
       x1="11.794092"
       y1="3.2126782"
       x2="11.794092"
       y2="20.137329"
       id="linearGradient3317"
       gradientUnits="userSpaceOnUse"
       gradientTransform="scale(1.0598527,0.9435274)">
      <stop
         id="stop3319"
         style="stop-color:#c6953a;stop-opacity:1"
         offset="0" />
      <stop
         id="stop3321"
         style="stop-color:#ab7a1f;stop-opacity:1"
         offset="1" />
    </linearGradient>
    <linearGradient
       x1="48.035713"
       y1="25.910715"
       x2="48.035713"
       y2="85.821426"
       id="linearGradient3361"
       xlink:href="#linearGradient3317"
       gradientUnits="userSpaceOnUse" />
    <linearGradient
       x1="45.447727"
       y1="80.471962"
       x2="45.447727"
       y2="7.0165396"
       id="ButtonShadow"
       gradientUnits="userSpaceOnUse"
       gradientTransform="matrix(1.0058652,0,0,0.994169,0,12)">
      <stop
         id="stop3750"
         style="stop-color:#000000;stop-opacity:1"
         offset="0" />
      <stop
         id="stop3752"
         style="stop-color:#000000;stop-opacity:0.58823532"
         offset="1" />
    </linearGradient>
    <linearGradient
       x1="48"
       y1="78"
       x2="48"
       y2="5.9877172"
       id="linearGradient3706"
       xlink:href="#linearGradient3885"
       gradientUnits="userSpaceOnUse"
       gradientTransform="translate(0,8)" />
    <filter
       color-interpolation-filters="sRGB"
       id="filter3174">
      <feGaussianBlur
         id="feGaussianBlur3176"
         stdDeviation="1.71" />
    </filter>
    <linearGradient
       x1="45.447727"
       y1="80.471962"
       x2="45.447727"
       y2="5.297224"
       id="linearGradient3664"
       xlink:href="#ButtonShadow"
       gradientUnits="userSpaceOnUse"
       gradientTransform="matrix(1.0058652,0,0,0.994169,0,12)" />
    <clipPath
       id="clipPath3860">
      <rect
         width="84"
         height="72"
         rx="6"
         ry="6"
         x="6"
         y="18"
         id="rect3862"
         style="fill:#ff00ff;fill-opacity:1;fill-rule:nonzero;stroke:none" />
    </clipPath>
    <filter
       x="-0.16558799"
       y="-0.19715989"
       width="1.331176"
       height="1.3943198"
       color-interpolation-filters="sRGB"
       id="filter3870">
      <feGaussianBlur
         id="feGaussianBlur3872"
         stdDeviation="5.1703125" />
    </filter>
    <linearGradient
       id="linearGradient3892">
      <stop
         id="stop3894"
         style="stop-color:#000000;stop-opacity:0.58823532"
         offset="0" />
      <stop
         id="stop3896"
         style="stop-color:#000000;stop-opacity:0.47058824"
         offset="0.11780351" />
      <stop
         id="stop3898"
         style="stop-color:#000000;stop-opacity:0.39215687"
         offset="0.23809524" />
      <stop
         id="stop3900"
         style="stop-color:#000000;stop-opacity:0.3137255"
         offset="1" />
    </linearGradient>
    <linearGradient
       id="linearGradient4384">
      <stop
         id="stop4386"
         style="stop-color:#ffffff;stop-opacity:1"
         offset="0" />
      <stop
         id="stop4388"
         style="stop-color:#ffffff;stop-opacity:0"
         offset="1" />
    </linearGradient>
    <linearGradient
       x1="48"
       y1="75.08329"
       x2="48"
       y2="-40"
       id="linearGradient3094"
       xlink:href="#linearGradient4384"
       gradientUnits="userSpaceOnUse"
       gradientTransform="matrix(1,0,0,-1,0,92)" />
    <linearGradient
       x1="48.021698"
       y1="22.933374"
       x2="48.021698"
       y2="81.481377"
       id="linearGradient3123"
       xlink:href="#linearGradient3874"
       gradientUnits="userSpaceOnUse" />
    <linearGradient
       x1="37.611111"
       y1="27.111111"
       x2="37.611111"
       y2="21.555555"
       id="linearGradient3105"
       xlink:href="#linearGradient3894"
       gradientUnits="userSpaceOnUse"
       gradientTransform="matrix(0.72,0,0,0.72,1.92,-5.52)" />
    <linearGradient
       x1="43"
       y1="91"
       x2="43"
       y2="7"
       id="linearGradient3952"
       xlink:href="#ButtonShadow"
       gradientUnits="userSpaceOnUse" />
    <linearGradient
       x1="45"
       y1="92"
       x2="45"
       y2="7"
       id="linearGradient3961"
       xlink:href="#ButtonShadow"
       gradientUnits="userSpaceOnUse" />
    <linearGradient
       x1="45"
       y1="92"
       x2="45"
       y2="7"
       id="linearGradient3969"
       xlink:href="#ButtonShadow"
       gradientUnits="userSpaceOnUse" />
    <linearGradient
       x1="45"
       y1="92"
       x2="45"
       y2="7"
       id="linearGradient3977"
       xlink:href="#ButtonShadow"
       gradientUnits="userSpaceOnUse" />
    <linearGradient
       x1="45"
       y1="92"
       x2="45"
       y2="7"
       id="linearGradient3986"
       xlink:href="#ButtonShadow"
       gradientUnits="userSpaceOnUse" />
    <linearGradient
       x1="90"
       y1="88"
       x2="48"
       y2="88"
       id="linearGradient3906"
       xlink:href="#linearGradient3892"
       gradientUnits="userSpaceOnUse"
       gradientTransform="translate(0,10)"
       spreadMethod="reflect" />
    <linearGradient
       id="linearGradient3877">
      <stop
         id="stop3879"
         style="stop-color:#da682a;stop-opacity:0.78431374"
         offset="0" />
      <stop
         id="stop3883"
         style="stop-color:#da682a;stop-opacity:0.39215687"
         offset="1" />
    </linearGradient>
    <linearGradient
       x1="127.99561"
       y1="272.01312"
       x2="127.99561"
       y2="39.990356"
       id="linearGradient4405"
       xlink:href="#linearGradient3877"
       gradientUnits="userSpaceOnUse"
       gradientTransform="matrix(0.20233772,0,0,0.1982564,18.677242,20.071656)" />
    <linearGradient
       x1="127.99561"
       y1="272.01312"
       x2="127.99561"
       y2="39.990356"
       id="linearGradient4416"
       xlink:href="#linearGradient3877"
       gradientUnits="userSpaceOnUse"
       gradientTransform="matrix(0.20233772,0,0,0.1982564,18.677242,20.071656)" />
    <linearGradient
       x1="127.99561"
       y1="272.01312"
       x2="127.99561"
       y2="39.990356"
       id="linearGradient4387"
       xlink:href="#linearGradient3877"
       gradientUnits="userSpaceOnUse"
       gradientTransform="matrix(0.20233772,0,0,0.1982564,18.677242,20.071656)" />
    <linearGradient
       x1="127.99561"
       y1="272.01312"
       x2="127.99561"
       y2="39.990356"
       id="linearGradient4419"
       xlink:href="#linearGradient3877"
       gradientUnits="userSpaceOnUse"
       gradientTransform="matrix(0.20233772,0,0,0.1982564,18.677242,20.071656)" />
  </defs>
  <metadata
     id="metadata2413">
    <rdf:RDF>
      <cc:Work
         rdf:about="">
        <dc:format>image/svg+xml</dc:format>
        <dc:type
           rdf:resource="http://purl.org/dc/dcmitype/StillImage" />
        <dc:title />
      </cc:Work>
    </rdf:RDF>
  </metadata>
  <g
     id="layer2"
     style="display:none">
    <path
       d="M 14.96875,8.8028918 C 13.32891,8.8028918 12,10.085142 12,11.677892 L 12,19 c -3.324,0 -7,2.676 -7,6 l 0,61 c 0,3.324 2.676,6 6,6 l 74,0 c 3.324,0 6,-2.676 6,-6 l 0,-61 c 0,-3.324 -3.74743,-6 -7.07143,-6 l 0,-0.134608 c 0,-2.389125 -1.97774,-4.3125 -4.4375,-4.3125 l -43.33482,0 -1.46875,-2.875 C 33.95414,10.253293 33.35859,8.8028918 31.71875,8.8028918 l -16.75,0 z"
       inkscape:connector-curvature="0"
       id="rect3745"
       style="opacity:0.9;fill:url(#linearGradient3664);fill-opacity:1;fill-rule:nonzero;stroke:none;filter:url(#filter3174)" />
  </g>
  <g
     id="layer4"
     style="display:inline">
    <path
       d="M 14.125,4 C 9.6910704,4 6,7.568413 6,12 l 0,2.15625 C 3.6235961,15.958367 2,18.759045 2,22 l 0,63 c 0,5.503629 4.496371,10 10,10 l 72,0 c 5.503629,0 10,-4.496371 10,-10 L 94,22 C 94,18.516601 92.146607,15.546894 89.46875,13.78125 88.481551,10.491738 85.526024,8 81.875,8 l -39.5,0 C 40.972352,6.645177 39.835329,5.4903784 38.6875,4.84375 37.192287,4.0014231 35.756649,4.0295412 34.875,4 a 0.92780092,0.92780092 0 0 0 -0.03125,0 c -0.0012,-1.73e-5 -0.03009,-1.73e-5 -0.03125,0 L 34.78125,4 14.125,4 z"
       id="path3984"
       style="opacity:0.07999998;fill:url(#linearGradient3986);fill-opacity:1;fill-rule:nonzero;stroke:none;display:inline" />
    <path
       d="M 14.125,4.9375 C 10.184407,4.9375 6.9375,8.0807925 6.9375,12 l 0,2.59375 c -2.3826099,1.622076 -4,4.293928 -4,7.40625 l 0,63 c 0,5.001444 4.0610559,9.0625 9.0625,9.0625 l 72,0 c 5.001444,0 9.0625,-4.061056 9.0625,-9.0625 l 0,-63 c 0,-3.260846 -1.77319,-6.039741 -4.34375,-7.625 C 87.957559,11.279325 85.241489,8.9375 81.875,8.9375 l -39.8125,0 C 40.465021,7.3963057 39.290438,6.2599842 38.21875,5.65625 36.945571,4.9390059 35.771277,4.9685784 34.84375,4.9375 a 1.043776,1.043776 0 0 0 -0.03125,0 c -10e-7,0 -0.03125,0 -0.03125,0 l -20.65625,0 z"
       id="path3975"
       style="opacity:0.1;fill:url(#linearGradient3977);fill-opacity:1;fill-rule:nonzero;stroke:none;display:inline" />
    <path
       d="M 14.125,5.96875 C 10.736326,5.96875 7.96875,8.6567706 7.96875,12 l 0,3.125 c -2.3751432,1.394016 -4,3.920462 -4,6.875 l 0,63 c 0,4.438141 3.5931086,8.03125 8.03125,8.03125 l 72,0 c 4.438141,0 8.03125,-3.593109 8.03125,-8.03125 l 0,-63 c 0,-3.031992 -1.712245,-5.604362 -4.1875,-6.96875 -0.491893,-2.85962 -2.928643,-5.0625 -5.96875,-5.0625 l -40.1875,0 C 39.852667,8.1939079 38.678863,7.1033787 37.71875,6.5625 36.681475,5.9781523 35.778304,6.0011109 34.8125,5.96875 a 1.043776,1.043776 0 0 0 -0.03125,0 l -20.65625,0 z"
       id="path3967"
       style="opacity:0.2;fill:url(#linearGradient3969);fill-opacity:1;fill-rule:nonzero;stroke:none;display:inline" />
    <path
       d="M 14.125,7 C 11.282105,7 9,9.23 9,12 l 0,3.6875 C 6.6359408,16.808884 5,19.200342 5,22 l 0,63 c 0,3.878 3.122,7 7,7 l 72,0 c 3.878,0 7,-3.122 7,-7 L 91,22 C 91,19.190264 89.346632,16.803629 86.96875,15.6875 86.799101,13.069075 84.606585,11 81.875,11 l -40.59375,0 c -4.220528,-4.1123102 -4.502768,-3.9330794 -6.5,-4 L 14.125,7 z"
       inkscape:connector-curvature="0"
       id="path3908-1"
       style="opacity:0.3;fill:url(#linearGradient3961);fill-opacity:1;fill-rule:nonzero;stroke:none;display:inline" />
    <path
       d="m 15,7 c -2.77,0 -5,2.23 -5,5 l 0,3.34375 C 7.6664933,16.164656 6,18.378887 6,21 l 0,64 c 0,3.324 2.676,6 6,6 l 72,0 c 3.324,0 6,-2.676 6,-6 L 90,21 C 90,18.358112 88.300137,16.148775 85.9375,15.34375 85.611464,12.893448 83.542274,11 81,11 L 40.46875,11 C 36.35644,6.8876898 36.102271,7.0669206 34.15625,7 L 15,7 z"
       inkscape:connector-curvature="0"
       id="path3941"
       style="opacity:0.45;fill:url(#linearGradient3952);fill-opacity:1;fill-rule:nonzero;stroke:none;display:inline" />
  </g>
  <g
     id="layer3"
     style="display:inline">
    <rect
       width="75"
       height="62.678574"
       rx="6"
       ry="6"
       x="10.535714"
       y="23.142857"
       id="rect3352"
       style="fill:url(#linearGradient3361);fill-opacity:1;fill-rule:nonzero;stroke:none;display:inline" />
    <path
       d="m 15,6 c -2.77,0 -5,2.23 -5,5 l 0,59.8125 c 0,2.39328 1.91922,4.3125 4.3125,4.3125 l 67.375,0 C 84.08078,75.125 86,73.20578 86,70.8125 L 86,15 c 0,-2.77 -2.23,-5 -5,-5 L 40.46875,10 C 36.35644,5.8876898 36.102271,6.0669206 34.15625,6 z"
       inkscape:connector-curvature="0"
       id="path3908"
       style="fill:url(#linearGradient3105);fill-opacity:1;fill-rule:nonzero;stroke:none;display:inline" />
    <path
       d="m 15,6 c -2.77,0 -5,2.23 -5,5 l 0,59.8125 c 0,2.39328 1.91922,4.3125 4.3125,4.3125 l 67.375,0 C 84.08078,75.125 86,73.20578 86,70.8125 L 86,15 c 0,-2.77 -2.23,-5 -5,-5 L 40.46875,10 C 36.35644,5.8876898 36.102271,6.0669206 34.15625,6 L 15,6 z m 0,1.03125 19.125,0 0.03125,0 c 0.964976,0.031157 1.192535,-0.016972 1.8125,0.34375 0.630289,0.366729 1.706808,1.3318077 3.75,3.375 a 1.043776,1.043776 0 0 0 0.75,0.28125 l 40.53125,0 c 2.209859,0 3.96875,1.758891 3.96875,3.96875 l 0,55.8125 c 0,1.835319 -1.445931,3.28125 -3.28125,3.28125 l -67.375,0 c -1.835319,0 -3.28125,-1.445931 -3.28125,-3.28125 l 0,-59.8125 c 0,-2.2098586 1.758891,-3.96875 3.96875,-3.96875 z"
       inkscape:connector-curvature="0"
       id="path3108"
       style="opacity:0.2;fill:#ffffff;fill-opacity:1;fill-rule:nonzero;stroke:none;display:inline" />
  </g>
  <g
     id="layer1"
     style="display:inline">
    <rect
       width="84"
       height="76"
       rx="6"
       ry="6"
       x="6"
       y="14"
       id="rect2419"
       style="fill:url(#linearGradient3706);fill-opacity:1;fill-rule:nonzero;stroke:none" />
    <path
       d="M 12,86 C 8.676,86 6,83.324 6,80 L 6,20 c 0,-3.324 2.676,-6 6,-6 l 72,0 c 3.324,0 6,2.676 6,6 l 0,60 c 0,3.324 -2.676,6 -6,6 z m 0,-0.96875 72,0 c 2.80489,0 5.03125,-2.22636 5.03125,-5.03125 l 0,-60 c 0,-2.80489 -2.22636,-5.03125 -5.03125,-5.03125 l -72,0 c -2.8048898,0 -5.03125,2.22636 -5.03125,5.03125 l 0,60 c 0,2.80489 2.2263602,5.03125 5.03125,5.03125 z"
       inkscape:connector-curvature="0"
       id="rect4377"
       style="opacity:0.35;fill:url(#linearGradient3094);fill-opacity:1;fill-rule:nonzero;stroke:none" />
    <path
       d="m 6,78 0,2 c 0,3.324 2.676,6 6,6 l 72,0 c 3.324,0 6,-2.676 6,-6 l 0,-2 c 0,3.324 -2.676,6 -6,6 L 12,84 C 8.676,84 6,81.324 6,78 z"
       inkscape:connector-curvature="0"
       id="rect3841"
       style="opacity:0.1;fill:#ffffff;fill-opacity:1;fill-rule:nonzero;stroke:none" />
  </g>
  <g
     id="layer7">
    <path
       d="m 6,80 0,4 c 0,3.324 2.676,6 6,6 l 72,0 c 3.324,0 6,-2.676 6,-6 l 0,-4 c 0,3.324 -2.676,6 -6,6 L 12,86 C 8.676,86 6,83.324 6,80 z"
       inkscape:connector-curvature="0"
       id="path3067"
       style="opacity:0.8;fill:#ce4f16;fill-opacity:1;fill-rule:nonzero;stroke:none;display:inline" />
    <g
       transform="translate(0,-10)"
       id="g3901">
      <path
         d="m 6,90 0,4 c 0,3.324 2.676,6 6,6 l 72,0 c 3.324,0 6,-2.676 6,-6 l 0,-4 c 0,3.324 -2.676,6 -6,6 L 12,96 C 8.676,96 6,93.324 6,90 z"
         inkscape:connector-curvature="0"
         id="path3888"
         style="opacity:0.5;fill:url(#linearGradient3906);fill-opacity:1;fill-rule:nonzero;stroke:none;display:inline" />
      <path
         d="m 6,92 0,2 c 0,3.324 2.676,6 6,6 l 72,0 c 3.324,0 6,-2.676 6,-6 l 0,-2 c 0,3.324 -2.676,6 -6,6 L 12,98 C 8.676,98 6,95.324 6,92 z"
         inkscape:connector-curvature="0"
         id="rect4345"
         style="opacity:0.1;color:#000000;fill:#000000;fill-opacity:1;fill-rule:nonzero;stroke:none;stroke-width:1.5;marker:none;visibility:visible;display:inline;overflow:visible;enable-background:accumulate" />
      <path
         d="m 6,93 0,1 c 0,3.324 2.676,6 6,6 l 72,0 c 3.324,0 6,-2.676 6,-6 l 0,-1 c 0,3.324 -2.676,6 -6,6 L 12,99 C 8.676,99 6,96.324 6,93 z"
         inkscape:connector-curvature="0"
         id="rect4336"
         style="opacity:0.15;color:#000000;fill:#000000;fill-opacity:1;fill-rule:nonzero;stroke:none;stroke-width:1.5;marker:none;visibility:visible;display:inline;overflow:visible;enable-background:accumulate" />
    </g>
  </g>
  <g
     id="layer5"
     style="display:inline">
    <path
       d="m 15.96875,22.53125 c -2.845903,0.0043 -5.433244,2.591597 -5.4375,5.4375 l 0,48.0625 c 0.0043,2.845903 2.591597,5.433244 5.4375,5.4375 l 64.0625,0 c 2.845903,-0.0043 5.433244,-2.591597 5.4375,-5.4375 l 0,-48.0625 c -0.0043,-2.845903 -2.591597,-5.433244 -5.4375,-5.4375 z"
       inkscape:connector-curvature="0"
       transform="translate(0,-4)"
       clip-path="url(#clipPath3860)"
       id="path3850"
       style="opacity:0.3;fill:url(#linearGradient3123);fill-opacity:1;fill-rule:nonzero;stroke:none;filter:url(#filter3870)" />
  </g>
  <g
     id="layer6">
    <path
       d="m 55.687507,25.96875 c -2.265725,0.04822 -4.540182,0.886974 -6.375,2.4375 -2.83991,2.399891 -3.336504,5.347932 -3.53125,7.375 -0.194746,2.027068 -0.136898,3.002153 -1.6875,4.3125 -1.549058,1.309045 -2.577184,1.108187 -4.65625,1 -2.079066,-0.108187 -5.096243,-0.05728 -7.9375,2.34375 -1.325369,1.120015 -2.266044,2.514845 -2.84375,4 -0.0033,0.0085 0.0033,0.02274 0,0.03125 -6.97e-4,0.0023 0.0013,0.02685 0,0.03125 -0.0055,0.01863 -0.01847,0.07976 -0.03125,0.125 -0.08283,0.214784 -0.19071,0.448096 -0.28125,0.78125 -0.01361,0.05009 -0.0716,0.200193 -0.125,0.4375 -0.0034,0.015 0.003,0.01622 0,0.03125 -0.003,0.01503 0.0026,0.01624 0,0.03125 -0.0611,0.281469 -0.118851,0.574667 -0.15625,0.875 -0.0019,0.01517 0.0015,0.0161 0,0.03125 -0.01711,0.143879 -0.02479,0.26591 -0.03125,0.375 -0.01221,-0.01801 -0.05051,0.103418 -0.0625,0.375 -0.0078,0.185319 -0.002,0.235792 0,0.15625 -0.0049,0.173652 -0.0029,0.22018 0,0.09375 -0.0027,0.132668 -0.0029,0.238961 0,0.375 -0.0011,-0.05705 -0.0088,0.0397 0,0.25 0.01219,0.270153 0.05034,0.392558 0.0625,0.375 0.0039,0.09025 0.0064,0.208654 0.03125,0.40625 0.0387,0.310828 0.09239,0.615847 0.15625,0.90625 0.0028,0.01478 -0.0032,0.01651 0,0.03125 0.05183,0.228369 0.108491,0.377335 0.125,0.4375 0.07543,0.27754 0.145096,0.462648 0.21875,0.65625 0.02104,0.05532 0.04347,0.138093 0.0625,0.1875 0.0058,0.02098 -6.8e-5,0.09357 0,0.09375 a 2.0209955,2.0209955 0 0 0 0.03125,0 c 0.49866,1.292265 1.331718,2.450603 2.375,3.46875 0.01634,0.01595 0.01478,0.04664 0.03125,0.0625 a 2.0209955,2.0209955 0 0 0 0.09375,0.125 2.0209955,2.0209955 0 0 0 0.34375,0.34375 2.0209955,2.0209955 0 0 0 0,0.03125 c 2.841257,2.401026 5.858434,2.451937 7.9375,2.34375 2.079066,-0.108187 3.107193,-0.309045 4.65625,1 1.550602,1.310347 1.492754,2.285432 1.6875,4.3125 0.194746,2.027068 0.69134,4.975109 3.53125,7.375 4.212728,3.559997 10.606571,3.139277 14.25,-1 3.643432,-4.139277 3.15431,-10.499045 -1.0625,-14.0625 -2.841256,-2.401025 -5.858434,-2.451936 -7.9375,-2.34375 -2.079066,0.108186 -3.107191,0.309044 -4.65625,-1 -1.504282,-1.271207 -1.482411,-2.268192 -1.65625,-4.1875 0.173839,-1.919308 0.151968,-2.916293 1.65625,-4.1875 1.549059,-1.309045 2.577184,-1.108186 4.65625,-1 2.079066,0.108186 5.096244,0.05727 7.9375,-2.34375 4.216832,-3.563423 4.705937,-9.923215 1.0625,-14.0625 -2.049836,-2.328808 -4.975311,-3.499215 -7.875,-3.4375 z M 55.718757,28 c 2.331657,-0.04962 4.670374,0.884389 6.3125,2.75 2.919339,3.316642 2.541165,8.327086 -0.84375,11.1875 -4.762541,4.024621 -8.440658,-0.165853 -12.59375,3.34375 -2.097979,1.772916 -2.181096,3.709729 -2.375,5.71875 0.193904,2.009021 0.277021,3.945834 2.375,5.71875 4.153092,3.509602 7.831209,-0.680871 12.59375,3.34375 3.384915,2.860454 3.763089,7.87086 0.84375,11.1875 -2.919338,3.316642 -8.021332,3.67295 -11.40625,0.8125 -4.76254,-4.024626 -1.065656,-8.1779 -5.21875,-11.6875 -4.153088,-3.509605 -7.831209,0.680873 -12.59375,-3.34375 l 0,-0.03125 c -1.057786,-0.893893 -1.819692,-1.991384 -2.28125,-3.1875 -0.003,-0.008 0.0031,-0.02335 0,-0.03125 -0.09295,-0.243244 -0.1821,-0.468912 -0.25,-0.71875 -0.03066,-0.111737 -0.06819,-0.231129 -0.09375,-0.34375 -0.0027,-0.01233 0.0027,-0.0189 0,-0.03125 -0.05192,-0.236104 -0.0952,-0.479387 -0.125,-0.71875 -0.0156,-0.124259 -0.02165,-0.250355 -0.03125,-0.375 -0.0065,-0.08415 -0.02745,-0.16576 -0.03125,-0.25 -0.0024,-0.05743 0.0011,-0.13002 0,-0.1875 -0.0024,-0.112357 -0.0023,-0.200205 0,-0.3125 3.23e-4,-0.0143 -4.06e-4,-0.04821 0,-0.0625 0.0011,-0.04292 -0.0018,-0.08212 0,-0.125 0.0037,-0.08424 0.02475,-0.16585 0.03125,-0.25 0.0084,-0.111921 0.01799,-0.232259 0.03125,-0.34375 0.0015,-0.01247 -0.0016,-0.01878 0,-0.03125 0.02981,-0.239363 0.07308,-0.482646 0.125,-0.71875 0.0026,-0.01226 -0.0028,-0.01902 0,-0.03125 0.02519,-0.111943 0.06361,-0.232827 0.09375,-0.34375 0.0679,-0.249839 0.15705,-0.475506 0.25,-0.71875 0.003,-0.0079 -0.0031,-0.02345 0,-0.03125 0.461559,-1.196116 1.223464,-2.324858 2.28125,-3.21875 4.762542,-4.024623 8.440661,0.165855 12.59375,-3.34375 4.153094,-3.5096 0.456211,-7.662874 5.21875,-11.6875 1.480901,-1.251446 3.280239,-1.8989 5.09375,-1.9375 z"
       inkscape:connector-curvature="0"
       id="path4455"
       style="opacity:0.05;color:#000000;fill:#ffffff;fill-opacity:1;fill-rule:evenodd;stroke:none;stroke-width:1;marker:none;visibility:visible;display:inline;overflow:visible;enable-background:accumulate" />
    <path
       d="m 55.687507,27 c -2.040383,0.04343 -4.060292,0.754758 -5.71875,2.15625 -2.611365,2.206758 -2.995003,4.715088 -3.1875,6.71875 -0.192497,2.003662 -0.218565,3.436928 -2.03125,4.96875 -1.811909,1.53117 -3.318399,1.357018 -5.375,1.25 -2.056601,-0.107018 -4.606708,-0.113576 -7.21875,2.09375 -1.195839,1.010555 -2.043158,2.279142 -2.5625,3.625 -4.6e-5,1.15e-4 0.0015,0.02631 0,0.03125 -0.01095,0.03709 -0.05571,0.159378 -0.0625,0.21875 -0.07038,0.185136 -0.155265,0.36015 -0.21875,0.59375 -0.02185,0.0804 -0.08566,0.231413 -0.125,0.40625 -0.0035,0.01533 0.0026,0.01592 0,0.03125 -0.05792,0.263374 -0.09073,0.537328 -0.125,0.8125 -0.01406,0.109623 -5.35e-4,0.212274 0,0.21875 -0.0064,0.07091 -0.02657,0.156574 -0.03125,0.21875 0.0026,-0.03308 -0.02137,0.0576 -0.03125,0.28125 -0.0048,0.11434 -4.75e-4,0.14352 0,0.125 -0.0027,0.09424 -0.0013,0.118803 0,0.0625 -0.0025,0.122516 -0.0027,0.250762 0,0.375 0,2.2e-5 -0.0056,0.05338 0,0.1875 0.01005,0.222689 0.03379,0.314328 0.03125,0.28125 0.0081,0.104965 0.0091,0.261275 0.03125,0.4375 0.03426,0.275217 0.06709,0.549155 0.125,0.8125 0.0024,0.01509 -0.0033,0.01618 0,0.03125 0.03874,0.170691 0.10144,0.320386 0.125,0.40625 0.08628,0.317463 0.190821,0.575856 0.28125,0.8125 a 1.0139158,1.0139158 0 0 0 0,0.03125 c 0.483471,1.252904 1.287013,2.382104 2.34375,3.34375 0.0058,0.0053 -0.0058,0.026 0,0.03125 a 1.0139158,1.0139158 0 0 0 0.03125,0.03125 1.0139158,1.0139158 0 0 0 0.1875,0.1875 1.0139158,1.0139158 0 0 0 0,0.03125 c 2.612042,2.207326 5.162149,2.200768 7.21875,2.09375 2.056601,-0.107018 3.563092,-0.28117 5.375,1.25 1.812685,1.531822 1.838753,2.965088 2.03125,4.96875 0.192497,2.003662 0.576134,4.511992 3.1875,6.71875 3.800223,3.211407 9.529892,2.791851 12.8125,-0.9375 3.28261,-3.72935 2.864769,-9.411857 -0.9375,-12.625 -2.612041,-2.207325 -5.162149,-2.200767 -7.21875,-2.09375 -2.056601,0.107017 -3.563089,0.281169 -5.375,-1.25 -1.79917,-1.520404 -1.84355,-2.947924 -2.03125,-4.9375 0.1877,-1.989576 0.23208,-3.417096 2.03125,-4.9375 1.811911,-1.531169 3.318399,-1.357017 5.375,-1.25 2.056601,0.107017 4.606709,0.113575 7.21875,-2.09375 3.80228,-3.213108 4.220112,-8.895645 0.9375,-12.625 C 60.934586,27.995757 58.304141,26.94431 55.687507,27 z m 0.03125,1 c 2.331657,-0.04962 4.670374,0.884389 6.3125,2.75 2.919339,3.316642 2.541165,8.327086 -0.84375,11.1875 -4.762541,4.024621 -8.440658,-0.165853 -12.59375,3.34375 -2.097979,1.772916 -2.181096,3.709729 -2.375,5.71875 0.193904,2.009021 0.277021,3.945834 2.375,5.71875 4.153092,3.509602 7.831209,-0.680871 12.59375,3.34375 3.384915,2.860454 3.763089,7.87086 0.84375,11.1875 -2.919338,3.316642 -8.021332,3.67295 -11.40625,0.8125 -4.76254,-4.024626 -1.065656,-8.1779 -5.21875,-11.6875 -4.153088,-3.509605 -7.831209,0.680873 -12.59375,-3.34375 l 0,-0.03125 c -1.057786,-0.893893 -1.819692,-1.991384 -2.28125,-3.1875 -0.003,-0.008 0.0031,-0.02335 0,-0.03125 -0.09295,-0.243244 -0.1821,-0.468912 -0.25,-0.71875 -0.03066,-0.111737 -0.06819,-0.231129 -0.09375,-0.34375 -0.0027,-0.01233 0.0027,-0.0189 0,-0.03125 -0.05192,-0.236104 -0.0952,-0.479387 -0.125,-0.71875 -0.0156,-0.124259 -0.02165,-0.250355 -0.03125,-0.375 -0.0065,-0.08415 -0.02745,-0.16576 -0.03125,-0.25 -0.0024,-0.05743 0.0011,-0.13002 0,-0.1875 -0.0024,-0.112357 -0.0023,-0.200205 0,-0.3125 3.23e-4,-0.0143 -4.06e-4,-0.04821 0,-0.0625 0.0011,-0.04292 -0.0018,-0.08212 0,-0.125 0.0037,-0.08424 0.02475,-0.16585 0.03125,-0.25 0.0084,-0.111921 0.01799,-0.232259 0.03125,-0.34375 0.0015,-0.01247 -0.0016,-0.01878 0,-0.03125 0.02981,-0.239363 0.07308,-0.482646 0.125,-0.71875 0.0026,-0.01226 -0.0028,-0.01902 0,-0.03125 0.02519,-0.111943 0.06361,-0.232827 0.09375,-0.34375 0.0679,-0.249839 0.15705,-0.475506 0.25,-0.71875 0.003,-0.0079 -0.0031,-0.02345 0,-0.03125 0.461559,-1.196116 1.223464,-2.324858 2.28125,-3.21875 4.762542,-4.024623 8.440661,0.165855 12.59375,-3.34375 4.153094,-3.5096 0.456211,-7.662874 5.21875,-11.6875 1.480901,-1.251446 3.280239,-1.8989 5.09375,-1.9375 z"
       inkscape:connector-curvature="0"
       id="path4446"
       style="opacity:0.1;color:#000000;fill:#ffffff;fill-opacity:1;fill-rule:evenodd;stroke:none;stroke-width:1;marker:none;visibility:visible;display:inline;overflow:visible;enable-background:accumulate" />
    <path
       d="m 55.730339,28.001912 c -1.813511,0.0386 -3.628126,0.669162 -5.109027,1.920608 -4.762539,4.024626 -1.063426,8.206115 -5.21652,11.715715 -4.153089,3.509605 -7.832982,-0.685241 -12.595524,3.339382 l 0,0.0062 c -1.057786,0.893892 -1.821063,2.000768 -2.282622,3.196884 -0.0031,0.0078 -0.0033,0.01691 -0.0063,0.02479 -0.09295,0.243244 -0.172377,0.487426 -0.240275,0.737265 -0.03014,0.110923 -0.06334,0.222615 -0.08853,0.334558 -0.0028,0.01223 -0.0037,0.02492 -0.0063,0.03718 -0.05192,0.236104 -0.09033,0.473122 -0.120137,0.712485 -2.62e-4,0.002 2.43e-4,0.0041 0,0.0062 -0.0016,0.01247 -0.0048,0.0247 -0.0063,0.03717 -0.01326,0.111491 -0.02319,0.222636 -0.03162,0.334557 -0.0065,0.08415 -0.01525,0.169773 -0.01897,0.254016 -0.0018,0.04288 -0.0052,0.08719 -0.0063,0.130106 -4.06e-4,0.01429 3.23e-4,0.02907 0,0.04337 -0.0023,0.112295 -0.0024,0.222201 0,0.334558 0.0011,0.05748 0.0039,0.116048 0.0063,0.173475 0.0038,0.08424 0.01251,0.169864 0.01897,0.254016 0.0096,0.124645 0.02235,0.247471 0.03795,0.37173 2.44e-4,0.002 -2.62e-4,0.0041 0,0.0062 0.0298,0.239363 0.06822,0.47638 0.120138,0.712484 0.0027,0.01235 0.0036,0.02484 0.0063,0.03717 0.02556,0.112621 0.05787,0.222821 0.08853,0.334558 0.0679,0.249838 0.147324,0.494021 0.240275,0.737265 0.0031,0.0079 0.0033,0.01683 0.0063,0.02479 0.461558,1.196116 1.224836,2.302992 2.282622,3.196885 l 0,0.0062 c 4.762541,4.024623 8.442435,-0.170223 12.595523,3.339382 4.153094,3.5096 0.453981,7.691089 5.216521,11.715715 3.384918,2.86045 8.493774,2.486442 11.413112,-0.8302 2.919339,-3.31664 2.543949,-8.322446 -0.840966,-11.1829 -4.762541,-4.024621 -8.442431,0.176416 -12.595523,-3.333186 -2.097979,-1.772916 -2.189888,-3.721828 -2.383792,-5.730849 0.193904,-2.009021 0.285813,-3.957933 2.383792,-5.730849 4.153092,-3.509603 7.832982,0.691435 12.595523,-3.333186 3.384915,-2.860414 3.760305,-7.866219 0.840966,-11.182861 -1.642126,-1.865611 -3.972428,-2.800432 -6.304085,-2.750807 z"
       inkscape:connector-curvature="0"
       id="path3984-0-3-4-7"
       style="opacity:0.9;color:#000000;fill:url(#linearGradient4419);fill-opacity:1;fill-rule:evenodd;stroke:none;stroke-width:1;marker:none;visibility:visible;display:inline;overflow:visible;enable-background:accumulate" />
    <path
       d="m 55.718757,28 c -1.813511,0.0386 -3.612849,0.686054 -5.09375,1.9375 -4.762539,4.024626 -1.065656,8.1779 -5.21875,11.6875 -4.153089,3.509605 -7.831208,-0.680873 -12.59375,3.34375 -1.057786,0.893892 -1.819691,2.022634 -2.28125,3.21875 -0.0031,0.0078 0.003,0.02337 0,0.03125 -0.09295,0.243244 -0.182102,0.468911 -0.25,0.71875 -0.03014,0.110923 -0.06856,0.231807 -0.09375,0.34375 -0.0028,0.01223 0.0026,0.01899 0,0.03125 -0.05192,0.236104 -0.09519,0.479387 -0.125,0.71875 -0.0016,0.01247 0.0015,0.01878 0,0.03125 -0.01326,0.111491 -0.02282,0.231829 -0.03125,0.34375 -0.0065,0.08415 -0.02753,0.165757 -0.03125,0.25 -0.0018,0.04288 0.0011,0.08208 0,0.125 -4.06e-4,0.01429 3.23e-4,0.0482 0,0.0625 -0.0023,0.112295 -0.0024,0.200143 0,0.3125 0.0011,0.05748 -0.0024,0.130073 0,0.1875 0.0024,0.05314 0.02674,0.102729 0.03125,0.15625 0.0026,-0.03133 -0.0024,-0.06268 0,-0.09375 0.0084,-0.111921 0.01799,-0.232259 0.03125,-0.34375 0.0015,-0.01247 -0.0016,-0.01878 0,-0.03125 0.02981,-0.239363 0.07308,-0.482646 0.125,-0.71875 0.0026,-0.01226 -0.0028,-0.01902 0,-0.03125 0.02519,-0.111943 0.06361,-0.232827 0.09375,-0.34375 0.0679,-0.249839 0.15705,-0.475506 0.25,-0.71875 0.003,-0.0079 -0.0031,-0.02345 0,-0.03125 0.461559,-1.196116 1.223464,-2.324858 2.28125,-3.21875 4.762542,-4.024623 8.440661,0.165855 12.59375,-3.34375 4.153094,-3.5096 0.456211,-7.662874 5.21875,-11.6875 1.480901,-1.251446 3.280239,-1.8989 5.09375,-1.9375 2.331657,-0.04962 4.670374,0.884389 6.3125,2.75 1.193531,1.355963 1.825887,2.997647 1.9375,4.65625 0.125465,-1.993656 -0.500598,-4.023795 -1.9375,-5.65625 -1.642126,-1.865611 -3.980843,-2.799625 -6.3125,-2.75 z m -9.4375,23.5 c -0.016,0.166872 -0.04631,0.332222 -0.0625,0.5 0.193904,2.009021 0.277021,3.945834 2.375,5.71875 4.153092,3.509602 7.831209,-0.680871 12.59375,3.34375 1.692458,1.430227 2.629205,3.382662 2.78125,5.40625 0.120391,-2.357544 -0.815227,-4.744844 -2.78125,-6.40625 -4.762541,-4.024621 -8.440658,0.165852 -12.59375,-3.34375 -1.922772,-1.624856 -2.136928,-3.387449 -2.3125,-5.21875 z"
       inkscape:connector-curvature="0"
       id="path4380"
       style="color:#000000;fill:url(#linearGradient4387);fill-opacity:1;fill-rule:evenodd;stroke:none;stroke-width:1;marker:none;visibility:visible;display:inline;overflow:visible;enable-background:accumulate" />
    <path
       d="m 55.718757,28 c -1.813511,0.0386 -3.612849,0.686054 -5.09375,1.9375 -4.762539,4.024626 -1.065656,8.1779 -5.21875,11.6875 -4.153089,3.509605 -7.831208,-0.680873 -12.59375,3.34375 -1.057786,0.893892 -1.819691,2.022634 -2.28125,3.21875 -0.0031,0.0078 0.003,0.02337 0,0.03125 -0.09295,0.243244 -0.182102,0.468911 -0.25,0.71875 -0.03014,0.110923 -0.06856,0.231807 -0.09375,0.34375 -0.0028,0.01223 0.0026,0.01899 0,0.03125 -0.05192,0.236104 -0.09519,0.479387 -0.125,0.71875 -0.0016,0.01247 0.0015,0.01878 0,0.03125 -0.01326,0.111491 -0.02282,0.231829 -0.03125,0.34375 -0.0065,0.08415 -0.02753,0.165757 -0.03125,0.25 -0.0018,0.04288 0.0011,0.08208 0,0.125 -4.06e-4,0.01429 3.23e-4,0.0482 0,0.0625 -0.0023,0.112295 -0.0024,0.200143 0,0.3125 0.0011,0.05748 -0.0024,0.130073 0,0.1875 0.0038,0.08424 0.02479,0.165848 0.03125,0.25 0.0096,0.124645 0.01565,0.250741 0.03125,0.375 0.0298,0.239363 0.07308,0.482646 0.125,0.71875 0.0027,0.01235 -0.0027,0.01892 0,0.03125 0.02556,0.112621 0.06309,0.232013 0.09375,0.34375 0.0679,0.249838 0.157049,0.475506 0.25,0.71875 0.0031,0.0079 -0.003,0.02329 0,0.03125 0.461558,1.196116 1.223464,2.293607 2.28125,3.1875 l 0,0.03125 c 4.762541,4.024623 8.440662,-0.165855 12.59375,3.34375 4.153094,3.5096 0.45621,7.662874 5.21875,11.6875 3.384918,2.86045 8.486912,2.504142 11.40625,-0.8125 2.919339,-3.31664 2.541165,-8.327046 -0.84375,-11.1875 -4.762541,-4.024621 -8.440658,0.165852 -12.59375,-3.34375 -2.097979,-1.772916 -2.181096,-3.709729 -2.375,-5.71875 0.193904,-2.009021 0.277021,-3.945834 2.375,-5.71875 4.153092,-3.509603 7.831209,0.680871 12.59375,-3.34375 3.384915,-2.860414 3.763089,-7.870858 0.84375,-11.1875 -1.642126,-1.865611 -3.980843,-2.799625 -6.3125,-2.75 z m 0.03125,1.0625 c 2.032652,-0.04326 4.041237,0.75321 5.46875,2.375 2.538184,2.883614 2.228255,7.197141 -0.71875,9.6875 -2.13914,1.807696 -3.770997,1.729606 -5.78125,1.625 -2.010253,-0.104606 -4.458292,-0.270692 -6.8125,1.71875 -2.379115,2.010492 -2.559584,4.464619 -2.75,6.4375 a 1.063825,1.063825 0 0 0 0,0.1875 c 0.190416,1.972881 0.370885,4.427008 2.75,6.4375 2.354208,1.989441 4.802247,1.823356 6.8125,1.71875 2.010253,-0.104606 3.64211,-0.182696 5.78125,1.625 2.947017,2.490404 3.256936,6.803885 0.71875,9.6875 -2.538186,2.883618 -6.95708,3.179718 -9.90625,0.6875 -2.139848,-1.808297 -2.280892,-3.357128 -2.46875,-5.3125 -0.187858,-1.955372 -0.396603,-4.386246 -2.75,-6.375 -2.354206,-1.989443 -4.802247,-1.823356 -6.8125,-1.71875 -1.989054,0.103503 -3.61261,0.155532 -5.71875,-1.59375 a 1.063825,1.063825 0 0 0 -0.0625,-0.03125 1.063825,1.063825 0 0 0 0,-0.03125 c -0.915344,-0.773521 -1.56924,-1.69463 -1.96875,-2.71875 -0.003,-0.0078 0.003,-0.02349 0,-0.03125 -0.0015,-0.0051 4.6e-5,-0.03113 0,-0.03125 -0.0956,-0.250169 -0.170134,-0.446116 -0.21875,-0.625 -0.03461,-0.126142 -0.07977,-0.225242 -0.09375,-0.28125 -0.0025,-0.01568 0.0034,-0.01559 0,-0.03125 -0.04563,-0.207522 -0.06863,-0.423255 -0.09375,-0.625 -0.0088,-0.06974 -0.02006,-0.198456 -0.03125,-0.34375 -0.01368,-0.178151 -0.02941,-0.208246 -0.03125,-0.1875 1.61e-4,0.0038 -1.95e-4,-0.03019 0,-0.03125 9.74e-4,-0.0053 0.0019,-0.05811 0,-0.15625 -0.0021,-0.09989 -0.0021,-0.148429 0,-0.25 0.002,-0.08838 0.002,-0.132096 0,-0.0625 0.0021,-0.08053 0.001,-0.09316 0,-0.09375 -3.83e-4,0.0087 -2.95e-4,-0.03475 0,-0.03125 0.0018,0.02149 0.01749,-0.0094 0.03125,-0.1875 0.0082,-0.108805 0.02151,-0.230606 0.03125,-0.3125 0.002,-0.01623 -0.0011,-0.01534 0,-0.03125 0.02513,-0.201792 0.04812,-0.417509 0.09375,-0.625 a 1.063825,1.063825 0 0 0 0,-0.03125 c 0.01034,-0.04595 0.05491,-0.138306 0.09375,-0.28125 0.04861,-0.178871 0.12315,-0.37482 0.21875,-0.625 4e-5,-1.04e-4 -0.0012,-0.02707 0,-0.03125 0.400932,-1.039003 1.055813,-2.009764 1.96875,-2.78125 2.139141,-1.807697 3.770997,-1.729606 5.78125,-1.625 2.010253,0.104606 4.458293,0.270693 6.8125,-1.71875 2.353397,-1.988754 2.562142,-4.419628 2.75,-6.375 0.187858,-1.955372 0.328903,-3.504203 2.46875,-5.3125 1.294604,-1.094014 2.862028,-1.653967 4.4375,-1.6875 z"
       inkscape:connector-curvature="0"
       id="path4392"
       style="opacity:0.5;color:#000000;fill:url(#linearGradient4416);fill-opacity:1;fill-rule:evenodd;stroke:none;stroke-width:1;marker:none;visibility:visible;display:inline;overflow:visible;enable-background:accumulate" />
    <path
       d="m 55.718757,28 c -1.813511,0.0386 -3.612849,0.686054 -5.09375,1.9375 -4.762539,4.024626 -1.065656,8.1779 -5.21875,11.6875 -4.153089,3.509605 -7.831208,-0.680873 -12.59375,3.34375 -1.057786,0.893892 -1.819691,2.022634 -2.28125,3.21875 -0.0031,0.0078 0.003,0.02337 0,0.03125 -0.09295,0.243244 -0.182102,0.468911 -0.25,0.71875 -0.03014,0.110923 -0.06856,0.231807 -0.09375,0.34375 -0.0028,0.01223 0.0026,0.01899 0,0.03125 -0.05192,0.236104 -0.09519,0.479387 -0.125,0.71875 -0.0016,0.01247 0.0015,0.01878 0,0.03125 -0.01326,0.111491 -0.02282,0.231829 -0.03125,0.34375 -0.0065,0.08415 -0.02753,0.165757 -0.03125,0.25 -0.0018,0.04288 0.0011,0.08208 0,0.125 -4.06e-4,0.01429 3.23e-4,0.0482 0,0.0625 -0.0023,0.112295 -0.0024,0.200143 0,0.3125 0.0011,0.05748 -0.0024,0.130073 0,0.1875 0.0038,0.08424 0.02479,0.165848 0.03125,0.25 0.0096,0.124645 0.01565,0.250741 0.03125,0.375 0.0298,0.239363 0.07308,0.482646 0.125,0.71875 0.0027,0.01235 -0.0027,0.01892 0,0.03125 0.02556,0.112621 0.06309,0.232013 0.09375,0.34375 0.0679,0.249838 0.157049,0.475506 0.25,0.71875 0.0031,0.0079 -0.003,0.02329 0,0.03125 0.461558,1.196116 1.223464,2.293607 2.28125,3.1875 l 0,0.03125 c 4.762541,4.024623 8.440662,-0.165855 12.59375,3.34375 4.153094,3.5096 0.45621,7.662874 5.21875,11.6875 3.384918,2.86045 8.486912,2.504142 11.40625,-0.8125 2.919339,-3.31664 2.541165,-8.327046 -0.84375,-11.1875 -4.762541,-4.024621 -8.440658,0.165852 -12.59375,-3.34375 -2.097979,-1.772916 -2.181096,-3.709729 -2.375,-5.71875 0.193904,-2.009021 0.277021,-3.945834 2.375,-5.71875 4.153092,-3.509603 7.831209,0.680871 12.59375,-3.34375 3.384915,-2.860414 3.763089,-7.870858 0.84375,-11.1875 -1.642126,-1.865611 -3.980843,-2.799625 -6.3125,-2.75 z m 0.03125,1.96875 c 1.77568,-0.03779 3.538181,0.681506 4.78125,2.09375 2.210609,2.511459 1.945654,6.202675 -0.625,8.375 -1.931047,1.631846 -3.166392,1.478544 -5.15625,1.375 -1.989858,-0.103544 -4.844663,-0.222348 -7.4375,1.96875 -2.62073,2.214671 -2.875082,5.089428 -3.0625,7.03125 a 1.9781027,1.9781027 0 0 0 0,0.375 c 0.187418,1.941822 0.44177,4.816579 3.0625,7.03125 2.592838,2.191097 5.447642,2.072294 7.4375,1.96875 1.989858,-0.103544 3.225203,-0.256846 5.15625,1.375 2.570676,2.172374 2.835614,5.863538 0.625,8.375 -2.210615,2.511466 -6.050323,2.80075 -8.625,0.625 -1.932364,-1.632961 -1.970434,-2.784627 -2.15625,-4.71875 -0.185816,-1.934123 -0.471171,-4.77893 -3.0625,-6.96875 -2.592836,-2.1911 -5.447642,-2.072295 -7.4375,-1.96875 -1.965606,0.102283 -3.203021,0.226099 -5.09375,-1.34375 -0.02333,-0.01937 -0.03896,-0.01136 -0.0625,-0.03125 a 1.9781027,1.9781027 0 0 0 0,-0.03125 c -0.798881,-0.675103 -1.373343,-1.490844 -1.71875,-2.375 -0.003,-0.0077 0.003,-0.02357 0,-0.03125 -7.37e-4,-0.0025 2.3e-5,-0.03119 0,-0.03125 -0.09787,-0.256121 -0.155456,-0.413346 -0.1875,-0.53125 -0.04451,-0.162215 -0.06265,-0.25067 -0.0625,-0.25 -0.0028,-0.01508 0.0033,-0.01622 0,-0.03125 -0.04023,-0.182958 -0.07266,-0.361836 -0.09375,-0.53125 -0.0029,-0.02288 -0.01869,-0.11821 -0.03125,-0.28125 -0.02402,-0.312862 -0.03963,-0.373368 -0.03125,-0.1875 0.0039,0.09221 0.0032,0.04458 0,-0.125 -0.0019,-0.08918 -0.0019,-0.157646 0,-0.25 0.0034,-0.152043 0.004,-0.17294 0,-0.03125 0.0042,-0.162775 0.0041,-0.190286 0,-0.09375 -0.0083,0.187726 0.0071,0.125358 0.03125,-0.1875 0.0071,-0.09448 0.02499,-0.192304 0.03125,-0.25 7.72e-4,-0.0071 -7.37e-4,-0.02505 0,-0.03125 0.02111,-0.169502 0.05353,-0.348349 0.09375,-0.53125 a 1.9781027,1.9781027 0 0 0 0,-0.03125 c -0.0024,0.01076 0.01618,-0.07954 0.0625,-0.25 0.03204,-0.11788 0.08962,-0.27511 0.1875,-0.53125 2.2e-5,-5.8e-5 -7.09e-4,-0.02876 0,-0.03125 -2.3e-5,5.7e-5 -7.13e-4,-0.02883 0,-0.03125 0.349686,-0.895306 0.937051,-1.745668 1.71875,-2.40625 1.931048,-1.631847 3.166392,-1.478545 5.15625,-1.375 1.989858,0.103545 4.844664,0.222349 7.4375,-1.96875 2.591329,-2.18982 2.876683,-5.034627 3.0625,-6.96875 0.185817,-1.934123 0.223887,-3.085789 2.15625,-4.71875 1.134496,-0.958714 2.472855,-1.439571 3.84375,-1.46875 z"
       inkscape:connector-curvature="0"
       id="path4394"
       style="opacity:0.25;color:#000000;fill:url(#linearGradient4405);fill-opacity:1;fill-rule:evenodd;stroke:none;stroke-width:1;marker:none;visibility:visible;display:inline;overflow:visible;enable-background:accumulate" />
    <path
       d="m 63.968757,36.5 c -0.152045,2.023583 -1.088792,4.007293 -2.78125,5.4375 -4.762541,4.024621 -8.440658,-0.165853 -12.59375,3.34375 -2.097979,1.772916 -2.181096,3.709729 -2.375,5.71875 0.01619,0.167778 0.0465,0.333128 0.0625,0.5 0.175572,-1.831301 0.389728,-3.593894 2.3125,-5.21875 4.153092,-3.509603 7.831209,0.680871 12.59375,-3.34375 1.974777,-1.66878 2.911759,-4.069725 2.78125,-6.4375 z m -33.9375,15 c -0.0045,0.05352 -0.0289,0.103112 -0.03125,0.15625 -0.0018,0.04288 0.0011,0.08208 0,0.125 -4.06e-4,0.01429 3.23e-4,0.0482 0,0.0625 -0.0023,0.112295 -0.0024,0.200143 0,0.3125 0.0011,0.05748 -0.0024,0.130073 0,0.1875 0.0038,0.08424 0.02479,0.165848 0.03125,0.25 0.0096,0.124645 0.01565,0.250741 0.03125,0.375 0.0298,0.239363 0.07308,0.482646 0.125,0.71875 0.0027,0.01235 -0.0027,0.01892 0,0.03125 0.02556,0.112621 0.06309,0.232013 0.09375,0.34375 0.0679,0.249838 0.157049,0.475506 0.25,0.71875 0.0031,0.0079 -0.003,0.02329 0,0.03125 0.461558,1.196116 1.223464,2.293607 2.28125,3.1875 l 0,0.03125 c 4.762541,4.024623 8.440662,-0.165855 12.59375,3.34375 4.153094,3.5096 0.45621,7.662874 5.21875,11.6875 3.384918,2.86045 8.486912,2.504142 11.40625,-0.8125 1.437809,-1.633485 2.06401,-3.692641 1.9375,-5.6875 -0.105556,1.669346 -0.736419,3.32296 -1.9375,4.6875 -2.919338,3.316642 -8.021332,3.67295 -11.40625,0.8125 -4.76254,-4.024626 -1.065656,-8.1779 -5.21875,-11.6875 -4.153088,-3.509605 -7.831209,0.680873 -12.59375,-3.34375 l 0,-0.03125 c -1.057786,-0.893893 -1.819692,-1.991384 -2.28125,-3.1875 -0.003,-0.008 0.0031,-0.02335 0,-0.03125 -0.09295,-0.243244 -0.1821,-0.468912 -0.25,-0.71875 -0.03066,-0.111737 -0.06819,-0.231129 -0.09375,-0.34375 -0.0027,-0.01233 0.0027,-0.0189 0,-0.03125 -0.05192,-0.236104 -0.0952,-0.479387 -0.125,-0.71875 -0.0156,-0.124259 -0.02165,-0.250355 -0.03125,-0.375 -0.0024,-0.03107 0.0026,-0.06242 0,-0.09375 z"
       inkscape:connector-curvature="0"
       id="path4421"
       style="opacity:0.2;color:#000000;fill:#ffffff;fill-opacity:1;fill-rule:evenodd;stroke:none;stroke-width:1;marker:none;visibility:visible;display:inline;overflow:visible;enable-background:accumulate" />
  </g>
</svg>
