<?xml version="1.0" encoding="UTF-8" standalone="no"?>
<!-- Created with Inkscape (http://www.inkscape.org/) -->

<svg
   xmlns:dc="http://purl.org/dc/elements/1.1/"
   xmlns:cc="http://creativecommons.org/ns#"
   xmlns:rdf="http://www.w3.org/1999/02/22-rdf-syntax-ns#"
   xmlns:svg="http://www.w3.org/2000/svg"
   xmlns="http://www.w3.org/2000/svg"
   xmlns:xlink="http://www.w3.org/1999/xlink"
   xmlns:inkscape="http://www.inkscape.org/namespaces/inkscape"
   version="1.0"
   width="96"
   height="96"
   id="svg2408">
  <defs
     id="defs2410">
    <linearGradient
       id="linearGradient3894">
      <stop
         id="stop3901"
         style="stop-color:#c75026;stop-opacity:1"
         offset="0" />
      <stop
         id="stop3905"
         style="stop-color:#eb9d48;stop-opacity:1"
         offset="1" />
    </linearGradient>
    <linearGradient
       id="linearGradient3885">
      <stop
         id="stop3887"
         style="stop-color:#eb7731;stop-opacity:1"
         offset="0" />
      <stop
         id="stop3889"
         style="stop-color:#e59343;stop-opacity:1"
         offset="0.5" />
      <stop
         id="stop3891"
         style="stop-color:#e5b66b;stop-opacity:1"
         offset="1" />
    </linearGradient>
    <linearGradient
       id="linearGradient3874">
      <stop
         id="stop3876"
         style="stop-color:#ffa32d;stop-opacity:1"
         offset="0" />
      <stop
         id="stop3878"
         style="stop-color:#ffe4c1;stop-opacity:0"
         offset="1" />
    </linearGradient>
    <linearGradient
       x1="11.794092"
       y1="3.2126782"
       x2="11.794092"
       y2="20.137329"
       id="linearGradient3317"
       gradientUnits="userSpaceOnUse"
       gradientTransform="scale(1.0598527,0.9435274)">
      <stop
         id="stop3319"
         style="stop-color:#c6953a;stop-opacity:1"
         offset="0" />
      <stop
         id="stop3321"
         style="stop-color:#ab7a1f;stop-opacity:1"
         offset="1" />
    </linearGradient>
    <linearGradient
       x1="48.035713"
       y1="25.910715"
       x2="48.035713"
       y2="85.821426"
       id="linearGradient3361"
       xlink:href="#linearGradient3317"
       gradientUnits="userSpaceOnUse" />
    <linearGradient
       x1="45.447727"
       y1="80.471962"
       x2="45.447727"
       y2="7.0165396"
       id="ButtonShadow"
       gradientUnits="userSpaceOnUse"
       gradientTransform="matrix(1.0058652,0,0,0.994169,0,12)">
      <stop
         id="stop3750"
         style="stop-color:#000000;stop-opacity:1"
         offset="0" />
      <stop
         id="stop3752"
         style="stop-color:#000000;stop-opacity:0.58823532"
         offset="1" />
    </linearGradient>
    <linearGradient
       x1="48"
       y1="78"
       x2="48"
       y2="5.9877172"
       id="linearGradient3706"
       xlink:href="#linearGradient3885"
       gradientUnits="userSpaceOnUse"
       gradientTransform="translate(0,8)" />
    <filter
       color-interpolation-filters="sRGB"
       id="filter3174">
      <feGaussianBlur
         id="feGaussianBlur3176"
         stdDeviation="1.71" />
    </filter>
    <linearGradient
       x1="45.447727"
       y1="80.471962"
       x2="45.447727"
       y2="5.297224"
       id="linearGradient3664"
       xlink:href="#ButtonShadow"
       gradientUnits="userSpaceOnUse"
       gradientTransform="matrix(1.0058652,0,0,0.994169,0,12)" />
    <clipPath
       id="clipPath3860">
      <rect
         width="84"
         height="72"
         rx="6"
         ry="6"
         x="6"
         y="18"
         id="rect3862"
         style="fill:#ff00ff;fill-opacity:1;fill-rule:nonzero;stroke:none" />
    </clipPath>
    <filter
       x="-0.16558799"
       y="-0.19715989"
       width="1.331176"
       height="1.3943198"
       color-interpolation-filters="sRGB"
       id="filter3870">
      <feGaussianBlur
         id="feGaussianBlur3872"
         stdDeviation="5.1703125" />
    </filter>
    <linearGradient
       id="linearGradient3892">
      <stop
         id="stop3894"
         style="stop-color:#000000;stop-opacity:0.58823532"
         offset="0" />
      <stop
         id="stop3896"
         style="stop-color:#000000;stop-opacity:0.47058824"
         offset="0.11780351" />
      <stop
         id="stop3898"
         style="stop-color:#000000;stop-opacity:0.39215687"
         offset="0.23809524" />
      <stop
         id="stop3900"
         style="stop-color:#000000;stop-opacity:0.3137255"
         offset="1" />
    </linearGradient>
    <linearGradient
       id="linearGradient4384">
      <stop
         id="stop4386"
         style="stop-color:#ffffff;stop-opacity:1"
         offset="0" />
      <stop
         id="stop4388"
         style="stop-color:#ffffff;stop-opacity:0"
         offset="1" />
    </linearGradient>
    <linearGradient
       x1="48"
       y1="75.08329"
       x2="48"
       y2="-40"
       id="linearGradient3094"
       xlink:href="#linearGradient4384"
       gradientUnits="userSpaceOnUse"
       gradientTransform="matrix(1,0,0,-1,0,92)" />
    <linearGradient
       x1="48.021698"
       y1="22.933374"
       x2="48.021698"
       y2="81.481377"
       id="linearGradient3123"
       xlink:href="#linearGradient3874"
       gradientUnits="userSpaceOnUse" />
    <linearGradient
       x1="37.611111"
       y1="27.111111"
       x2="37.611111"
       y2="21.555555"
       id="linearGradient3105"
       xlink:href="#linearGradient3894"
       gradientUnits="userSpaceOnUse"
       gradientTransform="matrix(0.72,0,0,0.72,1.92,-5.52)" />
    <linearGradient
       x1="43"
       y1="91"
       x2="43"
       y2="7"
       id="linearGradient3952"
       xlink:href="#ButtonShadow"
       gradientUnits="userSpaceOnUse" />
    <linearGradient
       x1="45"
       y1="92"
       x2="45"
       y2="7"
       id="linearGradient3961"
       xlink:href="#ButtonShadow"
       gradientUnits="userSpaceOnUse" />
    <linearGradient
       x1="45"
       y1="92"
       x2="45"
       y2="7"
       id="linearGradient3969"
       xlink:href="#ButtonShadow"
       gradientUnits="userSpaceOnUse" />
    <linearGradient
       x1="45"
       y1="92"
       x2="45"
       y2="7"
       id="linearGradient3977"
       xlink:href="#ButtonShadow"
       gradientUnits="userSpaceOnUse" />
    <linearGradient
       x1="45"
       y1="92"
       x2="45"
       y2="7"
       id="linearGradient3986"
       xlink:href="#ButtonShadow"
       gradientUnits="userSpaceOnUse" />
    <linearGradient
       x1="90"
       y1="88"
       x2="48"
       y2="88"
       id="linearGradient3906"
       xlink:href="#linearGradient3892"
       gradientUnits="userSpaceOnUse"
       gradientTransform="translate(0,10)"
       spreadMethod="reflect" />
    <linearGradient
       id="linearGradient3877">
      <stop
         id="stop3879"
         style="stop-color:#da682a;stop-opacity:0.78431374"
         offset="0" />
      <stop
         id="stop3883"
         style="stop-color:#da682a;stop-opacity:0.39215687"
         offset="1" />
    </linearGradient>
    <linearGradient
       x1="55"
       y1="76"
       x2="55"
       y2="33.892994"
       id="linearGradient5172"
       xlink:href="#linearGradient3877"
       gradientUnits="userSpaceOnUse"
       gradientTransform="translate(0,-4)" />
    <linearGradient
       x1="55"
       y1="76"
       x2="55"
       y2="33.892994"
       id="linearGradient5206"
       xlink:href="#linearGradient3877"
       gradientUnits="userSpaceOnUse"
       gradientTransform="translate(0,-4)" />
    <linearGradient
       x1="55"
       y1="76"
       x2="55"
       y2="33.892994"
       id="linearGradient5180"
       xlink:href="#linearGradient3877"
       gradientUnits="userSpaceOnUse"
       gradientTransform="translate(0,-4)" />
    <linearGradient
       x1="55"
       y1="76"
       x2="55"
       y2="33.892994"
       id="linearGradient5193"
       xlink:href="#linearGradient3877"
       gradientUnits="userSpaceOnUse"
       gradientTransform="translate(0,-4)" />
  </defs>
  <metadata
     id="metadata2413">
    <rdf:RDF>
      <cc:Work
         rdf:about="">
        <dc:format>image/svg+xml</dc:format>
        <dc:type
           rdf:resource="http://purl.org/dc/dcmitype/StillImage" />
        <dc:title />
      </cc:Work>
    </rdf:RDF>
  </metadata>
  <g
     id="layer2"
     style="display:none">
    <path
       d="M 14.96875,8.8028918 C 13.32891,8.8028918 12,10.085142 12,11.677892 L 12,19 c -3.324,0 -7,2.676 -7,6 l 0,61 c 0,3.324 2.676,6 6,6 l 74,0 c 3.324,0 6,-2.676 6,-6 l 0,-61 c 0,-3.324 -3.74743,-6 -7.07143,-6 l 0,-0.134608 c 0,-2.389125 -1.97774,-4.3125 -4.4375,-4.3125 l -43.33482,0 -1.46875,-2.875 C 33.95414,10.253293 33.35859,8.8028918 31.71875,8.8028918 l -16.75,0 z"
       inkscape:connector-curvature="0"
       id="rect3745"
       style="opacity:0.9;fill:url(#linearGradient3664);fill-opacity:1;fill-rule:nonzero;stroke:none;filter:url(#filter3174)" />
  </g>
  <g
     id="layer4"
     style="display:inline">
    <path
       d="M 14.125,4 C 9.6910704,4 6,7.568413 6,12 l 0,2.15625 C 3.6235961,15.958367 2,18.759045 2,22 l 0,63 c 0,5.503629 4.496371,10 10,10 l 72,0 c 5.503629,0 10,-4.496371 10,-10 L 94,22 C 94,18.516601 92.146607,15.546894 89.46875,13.78125 88.481551,10.491738 85.526024,8 81.875,8 l -39.5,0 C 40.972352,6.645177 39.835329,5.4903784 38.6875,4.84375 37.192287,4.0014231 35.756649,4.0295412 34.875,4 a 0.92780092,0.92780092 0 0 0 -0.03125,0 c -0.0012,-1.73e-5 -0.03009,-1.73e-5 -0.03125,0 L 34.78125,4 14.125,4 z"
       id="path3984"
       style="opacity:0.07999998;fill:url(#linearGradient3986);fill-opacity:1;fill-rule:nonzero;stroke:none;display:inline" />
    <path
       d="M 14.125,4.9375 C 10.184407,4.9375 6.9375,8.0807925 6.9375,12 l 0,2.59375 c -2.3826099,1.622076 -4,4.293928 -4,7.40625 l 0,63 c 0,5.001444 4.0610559,9.0625 9.0625,9.0625 l 72,0 c 5.001444,0 9.0625,-4.061056 9.0625,-9.0625 l 0,-63 c 0,-3.260846 -1.77319,-6.039741 -4.34375,-7.625 C 87.957559,11.279325 85.241489,8.9375 81.875,8.9375 l -39.8125,0 C 40.465021,7.3963057 39.290438,6.2599842 38.21875,5.65625 36.945571,4.9390059 35.771277,4.9685784 34.84375,4.9375 a 1.043776,1.043776 0 0 0 -0.03125,0 c -10e-7,0 -0.03125,0 -0.03125,0 l -20.65625,0 z"
       id="path3975"
       style="opacity:0.1;fill:url(#linearGradient3977);fill-opacity:1;fill-rule:nonzero;stroke:none;display:inline" />
    <path
       d="M 14.125,5.96875 C 10.736326,5.96875 7.96875,8.6567706 7.96875,12 l 0,3.125 c -2.3751432,1.394016 -4,3.920462 -4,6.875 l 0,63 c 0,4.438141 3.5931086,8.03125 8.03125,8.03125 l 72,0 c 4.438141,0 8.03125,-3.593109 8.03125,-8.03125 l 0,-63 c 0,-3.031992 -1.712245,-5.604362 -4.1875,-6.96875 -0.491893,-2.85962 -2.928643,-5.0625 -5.96875,-5.0625 l -40.1875,0 C 39.852667,8.1939079 38.678863,7.1033787 37.71875,6.5625 36.681475,5.9781523 35.778304,6.0011109 34.8125,5.96875 a 1.043776,1.043776 0 0 0 -0.03125,0 l -20.65625,0 z"
       id="path3967"
       style="opacity:0.2;fill:url(#linearGradient3969);fill-opacity:1;fill-rule:nonzero;stroke:none;display:inline" />
    <path
       d="M 14.125,7 C 11.282105,7 9,9.23 9,12 l 0,3.6875 C 6.6359408,16.808884 5,19.200342 5,22 l 0,63 c 0,3.878 3.122,7 7,7 l 72,0 c 3.878,0 7,-3.122 7,-7 L 91,22 C 91,19.190264 89.346632,16.803629 86.96875,15.6875 86.799101,13.069075 84.606585,11 81.875,11 l -40.59375,0 c -4.220528,-4.1123102 -4.502768,-3.9330794 -6.5,-4 L 14.125,7 z"
       inkscape:connector-curvature="0"
       id="path3908-1"
       style="opacity:0.3;fill:url(#linearGradient3961);fill-opacity:1;fill-rule:nonzero;stroke:none;display:inline" />
    <path
       d="m 15,7 c -2.77,0 -5,2.23 -5,5 l 0,3.34375 C 7.6664933,16.164656 6,18.378887 6,21 l 0,64 c 0,3.324 2.676,6 6,6 l 72,0 c 3.324,0 6,-2.676 6,-6 L 90,21 C 90,18.358112 88.300137,16.148775 85.9375,15.34375 85.611464,12.893448 83.542274,11 81,11 L 40.46875,11 C 36.35644,6.8876898 36.102271,7.0669206 34.15625,7 L 15,7 z"
       inkscape:connector-curvature="0"
       id="path3941"
       style="opacity:0.45;fill:url(#linearGradient3952);fill-opacity:1;fill-rule:nonzero;stroke:none;display:inline" />
  </g>
  <g
     id="layer3"
     style="display:inline">
    <rect
       width="75"
       height="62.678574"
       rx="6"
       ry="6"
       x="10.535714"
       y="23.142857"
       id="rect3352"
       style="fill:url(#linearGradient3361);fill-opacity:1;fill-rule:nonzero;stroke:none;display:inline" />
    <path
       d="m 15,6 c -2.77,0 -5,2.23 -5,5 l 0,59.8125 c 0,2.39328 1.91922,4.3125 4.3125,4.3125 l 67.375,0 C 84.08078,75.125 86,73.20578 86,70.8125 L 86,15 c 0,-2.77 -2.23,-5 -5,-5 L 40.46875,10 C 36.35644,5.8876898 36.102271,6.0669206 34.15625,6 z"
       inkscape:connector-curvature="0"
       id="path3908"
       style="fill:url(#linearGradient3105);fill-opacity:1;fill-rule:nonzero;stroke:none;display:inline" />
    <path
       d="m 15,6 c -2.77,0 -5,2.23 -5,5 l 0,59.8125 c 0,2.39328 1.91922,4.3125 4.3125,4.3125 l 67.375,0 C 84.08078,75.125 86,73.20578 86,70.8125 L 86,15 c 0,-2.77 -2.23,-5 -5,-5 L 40.46875,10 C 36.35644,5.8876898 36.102271,6.0669206 34.15625,6 L 15,6 z m 0,1.03125 19.125,0 0.03125,0 c 0.964976,0.031157 1.192535,-0.016972 1.8125,0.34375 0.630289,0.366729 1.706808,1.3318077 3.75,3.375 a 1.043776,1.043776 0 0 0 0.75,0.28125 l 40.53125,0 c 2.209859,0 3.96875,1.758891 3.96875,3.96875 l 0,55.8125 c 0,1.835319 -1.445931,3.28125 -3.28125,3.28125 l -67.375,0 c -1.835319,0 -3.28125,-1.445931 -3.28125,-3.28125 l 0,-59.8125 c 0,-2.2098586 1.758891,-3.96875 3.96875,-3.96875 z"
       inkscape:connector-curvature="0"
       id="path3108"
       style="opacity:0.2;fill:#ffffff;fill-opacity:1;fill-rule:nonzero;stroke:none;display:inline" />
  </g>
  <g
     id="layer1"
     style="display:inline">
    <rect
       width="84"
       height="76"
       rx="6"
       ry="6"
       x="6"
       y="14"
       id="rect2419"
       style="fill:url(#linearGradient3706);fill-opacity:1;fill-rule:nonzero;stroke:none" />
    <path
       d="M 12,86 C 8.676,86 6,83.324 6,80 L 6,20 c 0,-3.324 2.676,-6 6,-6 l 72,0 c 3.324,0 6,2.676 6,6 l 0,60 c 0,3.324 -2.676,6 -6,6 z m 0,-0.96875 72,0 c 2.80489,0 5.03125,-2.22636 5.03125,-5.03125 l 0,-60 c 0,-2.80489 -2.22636,-5.03125 -5.03125,-5.03125 l -72,0 c -2.8048898,0 -5.03125,2.22636 -5.03125,5.03125 l 0,60 c 0,2.80489 2.2263602,5.03125 5.03125,5.03125 z"
       inkscape:connector-curvature="0"
       id="rect4377"
       style="opacity:0.35;fill:url(#linearGradient3094);fill-opacity:1;fill-rule:nonzero;stroke:none" />
    <path
       d="m 6,78 0,2 c 0,3.324 2.676,6 6,6 l 72,0 c 3.324,0 6,-2.676 6,-6 l 0,-2 c 0,3.324 -2.676,6 -6,6 L 12,84 C 8.676,84 6,81.324 6,78 z"
       inkscape:connector-curvature="0"
       id="rect3841"
       style="opacity:0.1;fill:#ffffff;fill-opacity:1;fill-rule:nonzero;stroke:none" />
  </g>
  <g
     id="layer7">
    <path
       d="m 6,80 0,4 c 0,3.324 2.676,6 6,6 l 72,0 c 3.324,0 6,-2.676 6,-6 l 0,-4 c 0,3.324 -2.676,6 -6,6 L 12,86 C 8.676,86 6,83.324 6,80 z"
       inkscape:connector-curvature="0"
       id="path3067"
       style="opacity:0.8;fill:#ce4f16;fill-opacity:1;fill-rule:nonzero;stroke:none;display:inline" />
    <g
       transform="translate(0,-10)"
       id="g3901">
      <path
         d="m 6,90 0,4 c 0,3.324 2.676,6 6,6 l 72,0 c 3.324,0 6,-2.676 6,-6 l 0,-4 c 0,3.324 -2.676,6 -6,6 L 12,96 C 8.676,96 6,93.324 6,90 z"
         inkscape:connector-curvature="0"
         id="path3888"
         style="opacity:0.5;fill:url(#linearGradient3906);fill-opacity:1;fill-rule:nonzero;stroke:none;display:inline" />
      <path
         d="m 6,92 0,2 c 0,3.324 2.676,6 6,6 l 72,0 c 3.324,0 6,-2.676 6,-6 l 0,-2 c 0,3.324 -2.676,6 -6,6 L 12,98 C 8.676,98 6,95.324 6,92 z"
         inkscape:connector-curvature="0"
         id="rect4345"
         style="opacity:0.1;color:#000000;fill:#000000;fill-opacity:1;fill-rule:nonzero;stroke:none;stroke-width:1.5;marker:none;visibility:visible;display:inline;overflow:visible;enable-background:accumulate" />
      <path
         d="m 6,93 0,1 c 0,3.324 2.676,6 6,6 l 72,0 c 3.324,0 6,-2.676 6,-6 l 0,-1 c 0,3.324 -2.676,6 -6,6 L 12,99 C 8.676,99 6,96.324 6,93 z"
         inkscape:connector-curvature="0"
         id="rect4336"
         style="opacity:0.15;color:#000000;fill:#000000;fill-opacity:1;fill-rule:nonzero;stroke:none;stroke-width:1.5;marker:none;visibility:visible;display:inline;overflow:visible;enable-background:accumulate" />
    </g>
  </g>
  <g
     id="layer5"
     style="display:inline">
    <path
       d="m 15.96875,22.53125 c -2.845903,0.0043 -5.433244,2.591597 -5.4375,5.4375 l 0,48.0625 c 0.0043,2.845903 2.591597,5.433244 5.4375,5.4375 l 64.0625,0 c 2.845903,-0.0043 5.433244,-2.591597 5.4375,-5.4375 l 0,-48.0625 c -0.0043,-2.845903 -2.591597,-5.433244 -5.4375,-5.4375 z"
       inkscape:connector-curvature="0"
       transform="translate(0,-4)"
       clip-path="url(#clipPath3860)"
       id="path3850"
       style="opacity:0.3;fill:url(#linearGradient3123);fill-opacity:1;fill-rule:nonzero;stroke:none;filter:url(#filter3870)" />
  </g>
  <g
     id="layer6">
    <path
       d="m 42.59375,28 c -2.672476,0.0409 -5.714673,0.716938 -9.375,2.21875 A 1.986989,1.986989 0 0 0 32.0625,31.5 l -4.625,15.78125 a 1.986989,1.986989 0 0 0 0.25,1.65625 1.986989,1.986989 0 0 0 -1.0625,1.25 L 22.09375,65.875 A 1.986989,1.986989 0 0 0 24.75,68.28125 c 4.434848,-1.819138 7.468285,-2.132446 9.8125,-1.78125 2.344215,0.351196 4.140477,1.384437 6.09375,2.6875 a 1.986989,1.986989 0 0 0 1.71875,0.25 1.986989,1.986989 0 0 0 0.8125,1.09375 c 2.092427,1.407617 4.519627,2.815671 7.71875,3.28125 3.199123,0.465579 7.025475,-0.02851 11.90625,-2.03125 A 1.986989,1.986989 0 0 0 63.96875,70.5 l 4.4375,-15.28125 a 1.986989,1.986989 0 0 0 -0.375,-1.8125 c 0.06826,-0.0298 0.118886,-0.03204 0.1875,-0.0625 a 1.986989,1.986989 0 0 0 1.09375,-1.25 L 73.90625,36.375 A 1.986989,1.986989 0 0 0 71.25,33.96875 c -4.425126,1.814218 -7.475884,2.126176 -9.84375,1.78125 -2.367866,-0.344926 -4.187693,-1.361447 -6.125,-2.65625 A 1.986989,1.986989 0 0 0 53.75,32.8125 1.986989,1.986989 0 0 0 52.875,31.4375 C 50.248708,29.675235 47.03942,27.931941 42.59375,28 z m 0.03125,2 c 3.940755,-0.06033 6.633857,1.401202 9.15625,3.09375 L 47.1875,48.8125 c -2.4295,-1.623818 -5.035734,-3.12906 -8.75,-3.15625 -2.449505,-0.01911 -5.389857,0.670271 -9.09375,2.1875 l 4.625,-15.78125 C 37.462406,30.629072 40.260547,30.03619 42.625,30 z m 11.5625,4.75 C 58.215179,37.441907 62.69618,39.62689 72,35.8125 L 67.40625,51.53125 C 58.48623,55.490453 53.618465,53.269842 49.59375,50.5625 L 54.1875,34.75 z M 37.25,48.65625 c 3.93739,-0.09503 6.640803,1.305613 9.15625,3 L 41.75,67.53125 C 37.710465,64.836404 33.322343,62.613553 24,66.4375 l 4.53125,-15.6875 0.0625,0 c 3.481986,-1.422953 6.293816,-2.03673 8.65625,-2.09375 z m 11.59375,4.5625 c 4.03657,2.694112 8.16868,4.655731 17.65625,1.4375 L 62.0625,69.9375 C 52.75053,73.758506 48.313375,71.587489 44.28125,68.875 l 4.5625,-15.65625 z"
       inkscape:connector-curvature="0"
       id="path5235"
       style="opacity:0.05;fill:#ffffff;fill-opacity:1" />
    <path
       d="m 42.59375,28.96875 c -2.523155,0.03862 -5.420471,0.687589 -9,2.15625 A 1.0237507,1.0237507 0 0 0 33,31.78125 L 28.375,47.5625 a 1.0237507,1.0237507 0 0 0 1.34375,1.21875 c 3.628692,-1.486424 6.467679,-2.111312 8.71875,-2.09375 3.441231,0.02519 5.796209,1.37047 8.1875,2.96875 a 1.0237507,1.0237507 0 0 0 1.53125,-0.5625 L 52.75,33.375 A 1.0237507,1.0237507 0 0 0 52.34375,32.25 c -2.575925,-1.728468 -5.549099,-3.345562 -9.75,-3.28125 z M 42.625,30 c 3.940755,-0.06033 6.633857,1.401202 9.15625,3.09375 L 47.1875,48.8125 c -2.4295,-1.623818 -5.035734,-3.12906 -8.75,-3.15625 -2.449505,-0.01911 -5.389857,0.670271 -9.09375,2.1875 l 4.625,-15.78125 C 37.462406,30.629072 40.260547,30.03619 42.625,30 z m 11.4375,3.71875 a 1.0237507,1.0237507 0 0 0 -0.84375,0.75 L 48.625,50.28125 a 1.0237507,1.0237507 0 0 0 0.40625,1.125 c 2.063395,1.388003 4.450068,2.72736 7.5,3.15625 3.049932,0.42889 6.693269,-0.05735 11.28125,-2.09375 A 1.0237507,1.0237507 0 0 0 68.375,51.8125 L 72.96875,36.09375 A 1.0237507,1.0237507 0 0 0 71.625,34.875 c -4.535065,1.859291 -7.804101,2.218252 -10.375,1.84375 -2.570899,-0.374502 -4.525592,-1.492901 -6.5,-2.8125 a 1.0237507,1.0237507 0 0 0 -0.6875,-0.1875 z M 54.1875,34.75 C 58.215179,37.441907 62.69618,39.62689 72,35.8125 L 67.40625,51.53125 C 58.48623,55.490453 53.618465,53.269842 49.59375,50.5625 L 54.1875,34.75 z M 37.21875,47.625 c -2.440031,0.05889 -5.274019,0.732289 -8.6875,2.09375 -0.03051,0.01217 -0.06315,-0.01229 -0.09375,0 a 1.0237507,1.0237507 0 0 0 -0.875,0.75 l -4.53125,15.6875 A 1.0237507,1.0237507 0 0 0 24.375,67.375 c 4.544564,-1.864142 7.794452,-2.194421 10.34375,-1.8125 2.549298,0.381921 4.483242,1.487932 6.46875,2.8125 a 1.0237507,1.0237507 0 0 0 1.53125,-0.5625 L 47.375,51.9375 a 1.0237507,1.0237507 0 0 0 -0.40625,-1.125 c -2.58051,-1.738213 -5.558762,-3.288659 -9.75,-3.1875 z M 37.25,48.65625 c 3.93739,-0.09503 6.640803,1.305613 9.15625,3 L 41.75,67.53125 C 37.710465,64.836404 33.322343,62.613553 24,66.4375 l 4.53125,-15.6875 0.0625,0 c 3.481986,-1.422953 6.293816,-2.03673 8.65625,-2.09375 z m 11.46875,3.53125 a 1.0237507,1.0237507 0 0 0 -0.84375,0.75 l -4.5625,15.65625 a 1.0237507,1.0237507 0 0 0 0.40625,1.125 c 2.055408,1.382713 4.317865,2.720431 7.3125,3.15625 2.994635,0.435819 6.634447,-0.04197 11.40625,-2 a 1.0237507,1.0237507 0 0 0 0.59375,-0.65625 l 4.4375,-15.28125 a 1.0237507,1.0237507 0 0 0 -1.3125,-1.25 c -4.641058,1.57427 -7.855766,1.861766 -10.375,1.46875 -2.519234,-0.393016 -4.395446,-1.460044 -6.375,-2.78125 a 1.0237507,1.0237507 0 0 0 -0.6875,-0.1875 z m 0.125,1.03125 c 4.03657,2.694112 8.16868,4.655731 17.65625,1.4375 L 62.0625,69.9375 C 52.75053,73.758506 48.313375,71.587489 44.28125,68.875 l 4.5625,-15.65625 z"
       inkscape:connector-curvature="0"
       id="path5224"
       style="opacity:0.1;fill:#ffffff;fill-opacity:1" />
    <path
       d="m 42.625,30 c -2.364453,0.03619 -5.162594,0.629072 -8.65625,2.0625 l -4.625,15.78125 c 3.703893,-1.517229 6.644245,-2.20661 9.09375,-2.1875 3.714266,0.02719 6.3205,1.532432 8.75,3.15625 L 51.78125,33.09375 C 49.258857,31.401202 46.565755,29.939671 42.625,30 z m 11.5625,4.75 -4.59375,15.8125 c 4.024715,2.707342 8.89248,4.927953 17.8125,0.96875 L 72,35.8125 C 62.69618,39.62689 58.215179,37.441907 54.1875,34.75 z M 37.25,48.65625 c -2.362434,0.05702 -5.174264,0.670797 -8.65625,2.09375 l -0.0625,0 L 24,66.4375 c 9.322343,-3.823947 13.710465,-1.601096 17.75,1.09375 l 4.65625,-15.875 c -2.515447,-1.694387 -5.21886,-3.095032 -9.15625,-3 z m 11.59375,4.5625 -4.5625,15.65625 c 4.032125,2.712489 8.46928,4.883506 17.78125,1.0625 L 66.5,54.65625 c -9.48757,3.218231 -13.61968,1.256612 -17.65625,-1.4375 z"
       inkscape:connector-curvature="0"
       id="path5142"
       style="opacity:0.9;fill:url(#linearGradient5172);fill-opacity:1" />
    <path
       d="m 42.625,30 c -2.364453,0.03619 -5.162594,0.629072 -8.65625,2.0625 l -4.625,15.78125 c 3.703893,-1.517229 6.644245,-2.20661 9.09375,-2.1875 3.714266,0.02719 6.3205,1.532432 8.75,3.15625 L 51.78125,33.09375 C 49.258857,31.401202 46.565755,29.939671 42.625,30 z m 0.03125,1.96875 c 2.841274,-0.0435 4.816528,0.865878 6.78125,2.0625 L 45.96875,45.875 c -2.084572,-1.161306 -4.444392,-2.164903 -7.53125,-2.1875 -1.842101,-0.01437 -3.901961,0.431297 -6.125,1.09375 L 35.59375,33.625 c 2.865079,-1.083964 5.207225,-1.627853 7.0625,-1.65625 z M 54.1875,34.75 49.59375,50.5625 c 4.024715,2.707342 8.89248,4.927953 17.8125,0.96875 L 72,35.8125 C 62.69618,39.62689 58.215179,37.441907 54.1875,34.75 z m 1.21875,2.96875 c 1.5781,0.86548 3.308823,1.658667 5.4375,1.96875 2.30741,0.336119 5.101737,-0.07092 8.21875,-0.9375 l -3.28125,11.21875 c -3.744022,1.527011 -6.602459,1.940176 -8.84375,1.625 -1.904563,-0.267825 -3.477011,-1.054651 -5,-1.96875 L 55.40625,37.71875 z M 37.25,48.65625 c -2.362434,0.05702 -5.174264,0.670797 -8.65625,2.09375 l -0.0625,0 L 24,66.4375 c 9.322343,-3.823947 13.710465,-1.601096 17.75,1.09375 l 4.65625,-15.875 c -2.515447,-1.694387 -5.21886,-3.095032 -9.15625,-3 z m 0.0625,1.96875 c 2.850553,-0.0688 4.800231,0.822507 6.75,2 l -3.5,11.90625 c -1.573449,-0.873126 -3.278893,-1.618792 -5.40625,-1.9375 -2.305456,-0.34539 -5.118583,0.0625 -8.25,0.9375 l 3.25,-11.1875 c 2.897732,-1.101234 5.28558,-1.673599 7.15625,-1.71875 z m 11.53125,2.59375 -4.5625,15.65625 c 4.032125,2.712489 8.46928,4.883506 17.78125,1.0625 L 66.5,54.65625 c -9.48757,3.218231 -13.61968,1.256612 -17.65625,-1.4375 z m 1.1875,2.96875 c 1.55023,0.851493 3.205728,1.613706 5.28125,1.9375 2.29805,0.35851 5.134949,0.0073 8.34375,-0.75 L 60.4375,68.34375 c -3.900281,1.47138 -6.792214,1.879258 -8.96875,1.5625 -1.848221,-0.268978 -3.346097,-1.025829 -4.84375,-1.9375 L 50.03125,56.1875 z"
       inkscape:connector-curvature="0"
       id="path5196"
       style="opacity:0.25;fill:url(#linearGradient5206);fill-opacity:1" />
    <path
       d="m 42.625,30 c -2.364453,0.03619 -5.162594,0.629072 -8.65625,2.0625 l -4.625,15.78125 c 0.12056,-0.04939 0.224799,-0.07737 0.34375,-0.125 L 33.96875,33.0625 C 37.462406,31.629072 40.260547,31.03619 42.625,31 c 3.814801,-0.0584 6.452849,1.314621 8.90625,2.9375 l 0.25,-0.84375 C 49.258857,31.401202 46.565755,29.939671 42.625,30 z m 11.5625,4.75 -4.59375,15.8125 c 0.08067,0.05427 0.168622,0.102419 0.25,0.15625 L 54.1875,35.75 c 3.976838,2.657927 8.401902,4.805059 17.46875,1.1875 L 72,35.8125 C 62.69618,39.62689 58.215179,37.441907 54.1875,34.75 z M 37.25,48.65625 c -2.362434,0.05702 -5.174264,0.670797 -8.65625,2.09375 l -0.0625,0 L 24,66.4375 c 0.108302,-0.04443 0.205522,-0.0822 0.3125,-0.125 l 4.21875,-14.5625 0.0625,0 c 3.481986,-1.422953 6.293816,-2.03673 8.65625,-2.09375 3.811544,-0.09199 6.458535,1.222884 8.90625,2.84375 l 0.25,-0.84375 c -2.515447,-1.694387 -5.21886,-3.095032 -9.15625,-3 z m 11.59375,4.5625 -4.5625,15.65625 c 0.082,0.05517 0.167624,0.101578 0.25,0.15625 l 4.3125,-14.8125 c 3.990818,2.663576 8.083075,4.597478 17.34375,1.53125 L 66.5,54.65625 c -9.48757,3.218231 -13.61968,1.256612 -17.65625,-1.4375 z"
       inkscape:connector-curvature="0"
       id="path5174"
       style="fill:url(#linearGradient5180);fill-opacity:1" />
    <path
       d="m 42.625,30 c -2.364453,0.03619 -5.162594,0.629072 -8.65625,2.0625 l -4.625,15.78125 c 3.703893,-1.517229 6.644245,-2.20661 9.09375,-2.1875 3.714266,0.02719 6.3205,1.532432 8.75,3.15625 L 51.78125,33.09375 C 49.258857,31.401202 46.565755,29.939671 42.625,30 z m 0.03125,1.0625 c 3.340407,-0.05114 5.598483,1.088384 7.84375,2.53125 L 46.53125,47.25 c -2.210113,-1.368476 -4.704651,-2.63144 -8.09375,-2.65625 -2.1425,-0.01671 -4.662162,0.594968 -7.5,1.59375 L 34.84375,32.875 c 3.159445,-1.244359 5.725153,-1.780551 7.8125,-1.8125 z M 54.1875,34.75 49.59375,50.5625 c 4.024715,2.707342 8.89248,4.927953 17.8125,0.96875 L 72,35.8125 C 62.69618,39.62689 58.215179,37.441907 54.1875,34.75 z m 0.65625,1.59375 c 1.756764,1.077092 3.68002,2.081341 6.125,2.4375 2.538591,0.369795 5.698,-0.139822 9.4375,-1.40625 l -3.875,13.3125 C 62.447835,52.424173 59.325569,52.853395 56.8125,52.5 54.48028,52.172037 52.616096,51.197206 50.84375,50.0625 l 4,-13.71875 z M 37.25,48.65625 c -2.362434,0.05702 -5.174264,0.670797 -8.65625,2.09375 l -0.0625,0 L 24,66.4375 c 9.322343,-3.823947 13.710465,-1.601096 17.75,1.09375 l 4.65625,-15.875 c -2.515447,-1.694387 -5.21886,-3.095032 -9.15625,-3 z m 0.03125,1.0625 c 3.342149,-0.08067 5.612706,1.008741 7.84375,2.4375 L 41.09375,65.9375 C 39.34267,64.858448 37.431042,63.864204 35,63.5 c -2.530854,-0.379157 -5.682524,0.0986 -9.4375,1.375 l 3.84375,-13.28125 c 3.187043,-1.258814 5.772718,-1.824259 7.875,-1.875 z m 11.5625,3.5 -4.5625,15.65625 c 4.032125,2.712489 8.46928,4.883506 17.78125,1.0625 L 66.5,54.65625 c -9.48757,3.218231 -13.61968,1.256612 -17.65625,-1.4375 z M 49.5,54.8125 c 1.732277,1.060192 3.590941,2.035297 5.96875,2.40625 2.505319,0.390845 5.664349,-0.0037 9.5,-1.09375 L 61.1875,69.09375 c -4.259237,1.675595 -7.392369,2.075507 -9.84375,1.71875 -2.276303,-0.331278 -4.049936,-1.299496 -5.8125,-2.4375 L 49.5,54.8125 z"
       inkscape:connector-curvature="0"
       id="path5183"
       style="opacity:0.5;fill:url(#linearGradient5193);fill-opacity:1" />
    <path
       d="m 51.53125,33.9375 -4.34375,14.875 c -2.4295,-1.623818 -5.035734,-3.12906 -8.75,-3.15625 -2.369775,-0.01849 -5.214475,0.646672 -8.75,2.0625 l -0.34375,1.125 c 3.703893,-1.517229 6.644245,-2.20661 9.09375,-2.1875 3.714266,0.02719 6.3205,1.532432 8.75,3.15625 l 4.59375,-15.71875 c -0.08062,-0.0541 -0.168996,-0.102667 -0.25,-0.15625 z M 72,36.8125 c -0.117441,0.04815 -0.227837,0.07875 -0.34375,0.125 l -4.25,14.59375 c -8.74122,3.879842 -13.584076,1.819211 -17.5625,-0.8125 l -0.25,0.84375 c 4.024715,2.707342 8.89248,4.927953 17.8125,0.96875 L 72,36.8125 z M 46.15625,52.5 41.75,67.53125 C 37.757394,64.867711 33.413837,62.671099 24.3125,66.3125 L 24,67.4375 c 9.322343,-3.823947 13.710465,-1.601096 17.75,1.09375 l 4.65625,-15.875 C 46.32585,52.60209 46.237066,52.553516 46.15625,52.5 z M 66.5,55.65625 c -0.107537,0.03648 -0.206332,0.0586 -0.3125,0.09375 l -4.125,14.1875 c -9.122587,3.743296 -13.563178,1.727288 -17.53125,-0.90625 l -0.25,0.84375 c 4.032125,2.712489 8.46928,4.883506 17.78125,1.0625 L 66.5,55.65625 z"
       inkscape:connector-curvature="0"
       id="path5209"
       style="opacity:0.2;fill:#ffffff;fill-opacity:1" />
  </g>
</svg>
