<?xml version="1.0" encoding="UTF-8" standalone="no"?>
<!-- Created with Inkscape (http://www.inkscape.org/) -->

<svg
   xmlns:dc="http://purl.org/dc/elements/1.1/"
   xmlns:cc="http://creativecommons.org/ns#"
   xmlns:rdf="http://www.w3.org/1999/02/22-rdf-syntax-ns#"
   xmlns:svg="http://www.w3.org/2000/svg"
   xmlns="http://www.w3.org/2000/svg"
   xmlns:xlink="http://www.w3.org/1999/xlink"
   xmlns:inkscape="http://www.inkscape.org/namespaces/inkscape"
   version="1.0"
   width="96"
   height="96"
   id="svg2408">
  <defs
     id="defs2410">
    <linearGradient
       id="linearGradient3894">
      <stop
         id="stop3901"
         style="stop-color:#c75026;stop-opacity:1"
         offset="0" />
      <stop
         id="stop3905"
         style="stop-color:#eb9d48;stop-opacity:1"
         offset="1" />
    </linearGradient>
    <linearGradient
       id="linearGradient3885">
      <stop
         id="stop3887"
         style="stop-color:#eb7731;stop-opacity:1"
         offset="0" />
      <stop
         id="stop3889"
         style="stop-color:#e59343;stop-opacity:1"
         offset="0.5" />
      <stop
         id="stop3891"
         style="stop-color:#e5b66b;stop-opacity:1"
         offset="1" />
    </linearGradient>
    <linearGradient
       id="linearGradient3874">
      <stop
         id="stop3876"
         style="stop-color:#ffa32d;stop-opacity:1"
         offset="0" />
      <stop
         id="stop3878"
         style="stop-color:#ffe4c1;stop-opacity:0"
         offset="1" />
    </linearGradient>
    <linearGradient
       x1="11.794092"
       y1="3.2126782"
       x2="11.794092"
       y2="20.137329"
       id="linearGradient3317"
       gradientUnits="userSpaceOnUse"
       gradientTransform="scale(1.0598527,0.9435274)">
      <stop
         id="stop3319"
         style="stop-color:#c6953a;stop-opacity:1"
         offset="0" />
      <stop
         id="stop3321"
         style="stop-color:#ab7a1f;stop-opacity:1"
         offset="1" />
    </linearGradient>
    <linearGradient
       x1="48.035713"
       y1="25.910715"
       x2="48.035713"
       y2="85.821426"
       id="linearGradient3361"
       xlink:href="#linearGradient3317"
       gradientUnits="userSpaceOnUse" />
    <linearGradient
       x1="45.447727"
       y1="80.471962"
       x2="45.447727"
       y2="7.0165396"
       id="ButtonShadow"
       gradientUnits="userSpaceOnUse"
       gradientTransform="matrix(1.0058652,0,0,0.994169,0,12)">
      <stop
         id="stop3750"
         style="stop-color:#000000;stop-opacity:1"
         offset="0" />
      <stop
         id="stop3752"
         style="stop-color:#000000;stop-opacity:0.58823532"
         offset="1" />
    </linearGradient>
    <linearGradient
       x1="48"
       y1="78"
       x2="48"
       y2="5.9877172"
       id="linearGradient3706"
       xlink:href="#linearGradient3885"
       gradientUnits="userSpaceOnUse"
       gradientTransform="translate(0,8)" />
    <filter
       color-interpolation-filters="sRGB"
       id="filter3174">
      <feGaussianBlur
         id="feGaussianBlur3176"
         stdDeviation="1.71" />
    </filter>
    <linearGradient
       x1="45.447727"
       y1="80.471962"
       x2="45.447727"
       y2="5.297224"
       id="linearGradient3664"
       xlink:href="#ButtonShadow"
       gradientUnits="userSpaceOnUse"
       gradientTransform="matrix(1.0058652,0,0,0.994169,0,12)" />
    <clipPath
       id="clipPath3860">
      <rect
         width="84"
         height="72"
         rx="6"
         ry="6"
         x="6"
         y="18"
         id="rect3862"
         style="fill:#ff00ff;fill-opacity:1;fill-rule:nonzero;stroke:none" />
    </clipPath>
    <filter
       x="-0.16558799"
       y="-0.19715989"
       width="1.331176"
       height="1.3943198"
       color-interpolation-filters="sRGB"
       id="filter3870">
      <feGaussianBlur
         id="feGaussianBlur3872"
         stdDeviation="5.1703125" />
    </filter>
    <linearGradient
       id="linearGradient3892">
      <stop
         id="stop3894"
         style="stop-color:#000000;stop-opacity:0.58823532"
         offset="0" />
      <stop
         id="stop3896"
         style="stop-color:#000000;stop-opacity:0.47058824"
         offset="0.11780351" />
      <stop
         id="stop3898"
         style="stop-color:#000000;stop-opacity:0.39215687"
         offset="0.23809524" />
      <stop
         id="stop3900"
         style="stop-color:#000000;stop-opacity:0.3137255"
         offset="1" />
    </linearGradient>
    <linearGradient
       id="linearGradient4384">
      <stop
         id="stop4386"
         style="stop-color:#ffffff;stop-opacity:1"
         offset="0" />
      <stop
         id="stop4388"
         style="stop-color:#ffffff;stop-opacity:0"
         offset="1" />
    </linearGradient>
    <linearGradient
       x1="48"
       y1="75.08329"
       x2="48"
       y2="-40"
       id="linearGradient3094"
       xlink:href="#linearGradient4384"
       gradientUnits="userSpaceOnUse"
       gradientTransform="matrix(1,0,0,-1,0,92)" />
    <linearGradient
       x1="48.021698"
       y1="22.933374"
       x2="48.021698"
       y2="81.481377"
       id="linearGradient3123"
       xlink:href="#linearGradient3874"
       gradientUnits="userSpaceOnUse" />
    <linearGradient
       x1="37.611111"
       y1="27.111111"
       x2="37.611111"
       y2="21.555555"
       id="linearGradient3105"
       xlink:href="#linearGradient3894"
       gradientUnits="userSpaceOnUse"
       gradientTransform="matrix(0.72,0,0,0.72,1.92,-5.52)" />
    <linearGradient
       x1="43"
       y1="91"
       x2="43"
       y2="7"
       id="linearGradient3952"
       xlink:href="#ButtonShadow"
       gradientUnits="userSpaceOnUse" />
    <linearGradient
       x1="45"
       y1="92"
       x2="45"
       y2="7"
       id="linearGradient3961"
       xlink:href="#ButtonShadow"
       gradientUnits="userSpaceOnUse" />
    <linearGradient
       x1="45"
       y1="92"
       x2="45"
       y2="7"
       id="linearGradient3969"
       xlink:href="#ButtonShadow"
       gradientUnits="userSpaceOnUse" />
    <linearGradient
       x1="45"
       y1="92"
       x2="45"
       y2="7"
       id="linearGradient3977"
       xlink:href="#ButtonShadow"
       gradientUnits="userSpaceOnUse" />
    <linearGradient
       x1="45"
       y1="92"
       x2="45"
       y2="7"
       id="linearGradient3986"
       xlink:href="#ButtonShadow"
       gradientUnits="userSpaceOnUse" />
    <linearGradient
       x1="90"
       y1="88"
       x2="48"
       y2="88"
       id="linearGradient3906"
       xlink:href="#linearGradient3892"
       gradientUnits="userSpaceOnUse"
       gradientTransform="translate(0,10)"
       spreadMethod="reflect" />
    <linearGradient
       id="linearGradient3877">
      <stop
         id="stop3879"
         style="stop-color:#da682a;stop-opacity:0.78431374"
         offset="0" />
      <stop
         id="stop3883"
         style="stop-color:#da682a;stop-opacity:0.39215687"
         offset="1" />
    </linearGradient>
    <linearGradient
       x1="49"
       y1="72"
       x2="49"
       y2="38.758461"
       id="linearGradient3877-2"
       xlink:href="#linearGradient3877"
       gradientUnits="userSpaceOnUse"
       gradientTransform="translate(-2,-6)" />
    <linearGradient
       x1="49"
       y1="72"
       x2="49"
       y2="38.758461"
       id="linearGradient3890"
       xlink:href="#linearGradient3877"
       gradientUnits="userSpaceOnUse"
       gradientTransform="translate(-2,-6)" />
    <linearGradient
       x1="49"
       y1="72"
       x2="49"
       y2="38.758461"
       id="linearGradient3903"
       xlink:href="#linearGradient3877"
       gradientUnits="userSpaceOnUse"
       gradientTransform="translate(-2,-6)" />
    <linearGradient
       x1="49"
       y1="72"
       x2="49"
       y2="38.758461"
       id="linearGradient3100"
       xlink:href="#linearGradient3877"
       gradientUnits="userSpaceOnUse"
       gradientTransform="translate(-2,-6)" />
  </defs>
  <metadata
     id="metadata2413">
    <rdf:RDF>
      <cc:Work
         rdf:about="">
        <dc:format>image/svg+xml</dc:format>
        <dc:type
           rdf:resource="http://purl.org/dc/dcmitype/StillImage" />
        <dc:title />
      </cc:Work>
    </rdf:RDF>
  </metadata>
  <g
     id="layer2"
     style="display:none">
    <path
       d="M 14.96875,8.8028918 C 13.32891,8.8028918 12,10.085142 12,11.677892 L 12,19 c -3.324,0 -7,2.676 -7,6 l 0,61 c 0,3.324 2.676,6 6,6 l 74,0 c 3.324,0 6,-2.676 6,-6 l 0,-61 c 0,-3.324 -3.74743,-6 -7.07143,-6 l 0,-0.134608 c 0,-2.389125 -1.97774,-4.3125 -4.4375,-4.3125 l -43.33482,0 -1.46875,-2.875 C 33.95414,10.253293 33.35859,8.8028918 31.71875,8.8028918 l -16.75,0 z"
       inkscape:connector-curvature="0"
       id="rect3745"
       style="opacity:0.9;fill:url(#linearGradient3664);fill-opacity:1;fill-rule:nonzero;stroke:none;filter:url(#filter3174)" />
  </g>
  <g
     id="layer4"
     style="display:inline">
    <path
       d="M 14.125,4 C 9.6910704,4 6,7.568413 6,12 l 0,2.15625 C 3.6235961,15.958367 2,18.759045 2,22 l 0,63 c 0,5.503629 4.496371,10 10,10 l 72,0 c 5.503629,0 10,-4.496371 10,-10 L 94,22 C 94,18.516601 92.146607,15.546894 89.46875,13.78125 88.481551,10.491738 85.526024,8 81.875,8 l -39.5,0 C 40.972352,6.645177 39.835329,5.4903784 38.6875,4.84375 37.192287,4.0014231 35.756649,4.0295412 34.875,4 a 0.92780092,0.92780092 0 0 0 -0.03125,0 c -0.0012,-1.73e-5 -0.03009,-1.73e-5 -0.03125,0 L 34.78125,4 14.125,4 z"
       id="path3984"
       style="opacity:0.07999998;fill:url(#linearGradient3986);fill-opacity:1;fill-rule:nonzero;stroke:none;display:inline" />
    <path
       d="M 14.125,4.9375 C 10.184407,4.9375 6.9375,8.0807925 6.9375,12 l 0,2.59375 c -2.3826099,1.622076 -4,4.293928 -4,7.40625 l 0,63 c 0,5.001444 4.0610559,9.0625 9.0625,9.0625 l 72,0 c 5.001444,0 9.0625,-4.061056 9.0625,-9.0625 l 0,-63 c 0,-3.260846 -1.77319,-6.039741 -4.34375,-7.625 C 87.957559,11.279325 85.241489,8.9375 81.875,8.9375 l -39.8125,0 C 40.465021,7.3963057 39.290438,6.2599842 38.21875,5.65625 36.945571,4.9390059 35.771277,4.9685784 34.84375,4.9375 a 1.043776,1.043776 0 0 0 -0.03125,0 c -10e-7,0 -0.03125,0 -0.03125,0 l -20.65625,0 z"
       id="path3975"
       style="opacity:0.1;fill:url(#linearGradient3977);fill-opacity:1;fill-rule:nonzero;stroke:none;display:inline" />
    <path
       d="M 14.125,5.96875 C 10.736326,5.96875 7.96875,8.6567706 7.96875,12 l 0,3.125 c -2.3751432,1.394016 -4,3.920462 -4,6.875 l 0,63 c 0,4.438141 3.5931086,8.03125 8.03125,8.03125 l 72,0 c 4.438141,0 8.03125,-3.593109 8.03125,-8.03125 l 0,-63 c 0,-3.031992 -1.712245,-5.604362 -4.1875,-6.96875 -0.491893,-2.85962 -2.928643,-5.0625 -5.96875,-5.0625 l -40.1875,0 C 39.852667,8.1939079 38.678863,7.1033787 37.71875,6.5625 36.681475,5.9781523 35.778304,6.0011109 34.8125,5.96875 a 1.043776,1.043776 0 0 0 -0.03125,0 l -20.65625,0 z"
       id="path3967"
       style="opacity:0.2;fill:url(#linearGradient3969);fill-opacity:1;fill-rule:nonzero;stroke:none;display:inline" />
    <path
       d="M 14.125,7 C 11.282105,7 9,9.23 9,12 l 0,3.6875 C 6.6359408,16.808884 5,19.200342 5,22 l 0,63 c 0,3.878 3.122,7 7,7 l 72,0 c 3.878,0 7,-3.122 7,-7 L 91,22 C 91,19.190264 89.346632,16.803629 86.96875,15.6875 86.799101,13.069075 84.606585,11 81.875,11 l -40.59375,0 c -4.220528,-4.1123102 -4.502768,-3.9330794 -6.5,-4 L 14.125,7 z"
       inkscape:connector-curvature="0"
       id="path3908-1"
       style="opacity:0.3;fill:url(#linearGradient3961);fill-opacity:1;fill-rule:nonzero;stroke:none;display:inline" />
    <path
       d="m 15,7 c -2.77,0 -5,2.23 -5,5 l 0,3.34375 C 7.6664933,16.164656 6,18.378887 6,21 l 0,64 c 0,3.324 2.676,6 6,6 l 72,0 c 3.324,0 6,-2.676 6,-6 L 90,21 C 90,18.358112 88.300137,16.148775 85.9375,15.34375 85.611464,12.893448 83.542274,11 81,11 L 40.46875,11 C 36.35644,6.8876898 36.102271,7.0669206 34.15625,7 L 15,7 z"
       inkscape:connector-curvature="0"
       id="path3941"
       style="opacity:0.45;fill:url(#linearGradient3952);fill-opacity:1;fill-rule:nonzero;stroke:none;display:inline" />
  </g>
  <g
     id="layer3"
     style="display:inline">
    <rect
       width="75"
       height="62.678574"
       rx="6"
       ry="6"
       x="10.535714"
       y="23.142857"
       id="rect3352"
       style="fill:url(#linearGradient3361);fill-opacity:1;fill-rule:nonzero;stroke:none;display:inline" />
    <path
       d="m 15,6 c -2.77,0 -5,2.23 -5,5 l 0,59.8125 c 0,2.39328 1.91922,4.3125 4.3125,4.3125 l 67.375,0 C 84.08078,75.125 86,73.20578 86,70.8125 L 86,15 c 0,-2.77 -2.23,-5 -5,-5 L 40.46875,10 C 36.35644,5.8876898 36.102271,6.0669206 34.15625,6 z"
       inkscape:connector-curvature="0"
       id="path3908"
       style="fill:url(#linearGradient3105);fill-opacity:1;fill-rule:nonzero;stroke:none;display:inline" />
    <path
       d="m 15,6 c -2.77,0 -5,2.23 -5,5 l 0,59.8125 c 0,2.39328 1.91922,4.3125 4.3125,4.3125 l 67.375,0 C 84.08078,75.125 86,73.20578 86,70.8125 L 86,15 c 0,-2.77 -2.23,-5 -5,-5 L 40.46875,10 C 36.35644,5.8876898 36.102271,6.0669206 34.15625,6 L 15,6 z m 0,1.03125 19.125,0 0.03125,0 c 0.964976,0.031157 1.192535,-0.016972 1.8125,0.34375 0.630289,0.366729 1.706808,1.3318077 3.75,3.375 a 1.043776,1.043776 0 0 0 0.75,0.28125 l 40.53125,0 c 2.209859,0 3.96875,1.758891 3.96875,3.96875 l 0,55.8125 c 0,1.835319 -1.445931,3.28125 -3.28125,3.28125 l -67.375,0 c -1.835319,0 -3.28125,-1.445931 -3.28125,-3.28125 l 0,-59.8125 c 0,-2.2098586 1.758891,-3.96875 3.96875,-3.96875 z"
       inkscape:connector-curvature="0"
       id="path3108"
       style="opacity:0.2;fill:#ffffff;fill-opacity:1;fill-rule:nonzero;stroke:none;display:inline" />
  </g>
  <g
     id="layer1"
     style="display:inline">
    <rect
       width="84"
       height="76"
       rx="6"
       ry="6"
       x="6"
       y="14"
       id="rect2419"
       style="fill:url(#linearGradient3706);fill-opacity:1;fill-rule:nonzero;stroke:none" />
    <path
       d="M 12,86 C 8.676,86 6,83.324 6,80 L 6,20 c 0,-3.324 2.676,-6 6,-6 l 72,0 c 3.324,0 6,2.676 6,6 l 0,60 c 0,3.324 -2.676,6 -6,6 z m 0,-0.96875 72,0 c 2.80489,0 5.03125,-2.22636 5.03125,-5.03125 l 0,-60 c 0,-2.80489 -2.22636,-5.03125 -5.03125,-5.03125 l -72,0 c -2.8048898,0 -5.03125,2.22636 -5.03125,5.03125 l 0,60 c 0,2.80489 2.2263602,5.03125 5.03125,5.03125 z"
       inkscape:connector-curvature="0"
       id="rect4377"
       style="opacity:0.35;fill:url(#linearGradient3094);fill-opacity:1;fill-rule:nonzero;stroke:none" />
    <path
       d="m 6,78 0,2 c 0,3.324 2.676,6 6,6 l 72,0 c 3.324,0 6,-2.676 6,-6 l 0,-2 c 0,3.324 -2.676,6 -6,6 L 12,84 C 8.676,84 6,81.324 6,78 z"
       inkscape:connector-curvature="0"
       id="rect3841"
       style="opacity:0.1;fill:#ffffff;fill-opacity:1;fill-rule:nonzero;stroke:none" />
  </g>
  <g
     id="layer7">
    <path
       d="m 6,80 0,4 c 0,3.324 2.676,6 6,6 l 72,0 c 3.324,0 6,-2.676 6,-6 l 0,-4 c 0,3.324 -2.676,6 -6,6 L 12,86 C 8.676,86 6,83.324 6,80 z"
       inkscape:connector-curvature="0"
       id="path3067"
       style="opacity:0.8;fill:#ce4f16;fill-opacity:1;fill-rule:nonzero;stroke:none;display:inline" />
    <g
       transform="translate(0,-10)"
       id="g3901">
      <path
         d="m 6,90 0,4 c 0,3.324 2.676,6 6,6 l 72,0 c 3.324,0 6,-2.676 6,-6 l 0,-4 c 0,3.324 -2.676,6 -6,6 L 12,96 C 8.676,96 6,93.324 6,90 z"
         inkscape:connector-curvature="0"
         id="path3888"
         style="opacity:0.5;fill:url(#linearGradient3906);fill-opacity:1;fill-rule:nonzero;stroke:none;display:inline" />
      <path
         d="m 6,92 0,2 c 0,3.324 2.676,6 6,6 l 72,0 c 3.324,0 6,-2.676 6,-6 l 0,-2 c 0,3.324 -2.676,6 -6,6 L 12,98 C 8.676,98 6,95.324 6,92 z"
         inkscape:connector-curvature="0"
         id="rect4345"
         style="opacity:0.1;color:#000000;fill:#000000;fill-opacity:1;fill-rule:nonzero;stroke:none;stroke-width:1.5;marker:none;visibility:visible;display:inline;overflow:visible;enable-background:accumulate" />
      <path
         d="m 6,93 0,1 c 0,3.324 2.676,6 6,6 l 72,0 c 3.324,0 6,-2.676 6,-6 l 0,-1 c 0,3.324 -2.676,6 -6,6 L 12,99 C 8.676,99 6,96.324 6,93 z"
         inkscape:connector-curvature="0"
         id="rect4336"
         style="opacity:0.15;color:#000000;fill:#000000;fill-opacity:1;fill-rule:nonzero;stroke:none;stroke-width:1.5;marker:none;visibility:visible;display:inline;overflow:visible;enable-background:accumulate" />
    </g>
  </g>
  <g
     id="layer5"
     style="display:inline">
    <path
       d="m 15.96875,22.53125 c -2.845903,0.0043 -5.433244,2.591597 -5.4375,5.4375 l 0,48.0625 c 0.0043,2.845903 2.591597,5.433244 5.4375,5.4375 l 64.0625,0 c 2.845903,-0.0043 5.433244,-2.591597 5.4375,-5.4375 l 0,-48.0625 c -0.0043,-2.845903 -2.591597,-5.433244 -5.4375,-5.4375 z"
       inkscape:connector-curvature="0"
       transform="translate(0,-4)"
       clip-path="url(#clipPath3860)"
       id="path3850"
       style="opacity:0.3;fill:url(#linearGradient3123);fill-opacity:1;fill-rule:nonzero;stroke:none;filter:url(#filter3870)" />
  </g>
  <g
     id="layer6">
    <path
       d="m 35.5,32.03125 c -1.362511,0 -2.527759,0.832945 -3.09375,2 l -3.40625,0 c -2.721874,0 -4.96875,2.246876 -4.96875,4.96875 l 0,24 c 0,2.721874 2.246876,4.96875 4.96875,4.96875 l 38,0 c 2.721874,0 4.96875,-2.246876 4.96875,-4.96875 l 0,-24 c 0,-2.721874 -2.246876,-4.96875 -4.96875,-4.96875 l -23.40625,0 c -0.565991,-1.167055 -1.731239,-2 -3.09375,-2 l -5,0 z m 0,1.96875 5,0 c 0.831,0 1.5,0.669 1.5,1.5 l 0,0.5 25,0 c 1.662,0 3,1.338 3,3 l 0,24 c 0,1.662 -1.338,3 -3,3 l -38,0 c -1.662,0 -3,-1.338 -3,-3 l 0,-24 c 0,-1.662 1.338,-3 3,-3 l 5,0 0,-0.5 C 34,34.669 34.669,34 35.5,34 z M 31,40 c -0.554,0 -1,0.446 -1,1 l 0,2 c 0,0.554 0.446,1 1,1 l 10,0 c 0.554,0 1,-0.446 1,-1 l 0,-2 c 0,-0.554 -0.446,-1 -1,-1 l -10,0 z m 0.96875,1.96875 8.0625,0 0,0.0625 -8.0625,0 0,-0.0625 z M 56,42 c -5.52285,0 -10,4.477152 -10,10 0,5.522848 4.47715,10 10,10 5.52285,0 10,-4.477152 10,-10 0,-5.522848 -4.47715,-10 -10,-10 z m 0,1.96875 c 4.455596,0 8.03125,3.575656 8.03125,8.03125 0,4.455594 -3.575654,8.03125 -8.03125,8.03125 -4.455596,0 -8.03125,-3.575656 -8.03125,-8.03125 0,-4.455594 3.575654,-8.03125 8.03125,-8.03125 z m 0,2.0625 c -3.276394,0 -5.96875,2.692357 -5.96875,5.96875 0,3.276393 2.692356,5.96875 5.96875,5.96875 3.276394,0 5.96875,-2.692357 5.96875,-5.96875 0,-3.276393 -2.692356,-5.96875 -5.96875,-5.96875 z M 56,48 c 2.20914,0 4,1.790861 4,4 0,2.209139 -1.79086,4 -4,4 -2.20914,0 -4,-1.790861 -4,-4 0,-2.209139 1.79086,-4 4,-4 z"
       inkscape:connector-curvature="0"
       id="path3930"
       style="opacity:0.05;fill:#ffffff;fill-opacity:1;stroke:none;display:inline" />
    <path
       d="m 35.5,33.0625 c -1.159145,0 -2.017496,0.904498 -2.25,2 l -4.25,0 c -2.159904,0 -3.9375,1.777596 -3.9375,3.9375 l 0,24 c 0,2.159904 1.777596,3.9375 3.9375,3.9375 l 38,0 c 2.159904,0 3.9375,-1.777596 3.9375,-3.9375 l 0,-24 c 0,-2.159904 -1.777596,-3.9375 -3.9375,-3.9375 l -24.25,0 c -0.232504,-1.095502 -1.090855,-2 -2.25,-2 l -5,0 z m 0,0.9375 5,0 c 0.831,0 1.5,0.669 1.5,1.5 l 0,0.5 25,0 c 1.662,0 3,1.338 3,3 l 0,24 c 0,1.662 -1.338,3 -3,3 l -38,0 c -1.662,0 -3,-1.338 -3,-3 l 0,-24 c 0,-1.662 1.338,-3 3,-3 l 5,0 0,-0.5 C 34,34.669 34.669,34 35.5,34 z M 31,40 c -0.554,0 -1,0.446 -1,1 l 0,2 c 0,0.554 0.446,1 1,1 l 10,0 c 0.554,0 1,-0.446 1,-1 l 0,-2 c 0,-0.554 -0.446,-1 -1,-1 l -10,0 z m -0.0625,0.9375 c 0.0086,-0.0086 0.03445,0 0.0625,0 l 10,0 c 0.0561,0 0.0625,0.0064 0.0625,0.0625 l 0,2 c 0,0.0561 -0.0064,0.0625 -0.0625,0.0625 l -10,0 c -0.0561,0 -0.0625,-0.0064 -0.0625,-0.0625 l 0,-2 c 0,-0.02805 -0.0086,-0.05389 0,-0.0625 z M 56,42 c -5.52285,0 -10,4.477152 -10,10 0,5.522848 4.47715,10 10,10 5.52285,0 10,-4.477152 10,-10 0,-5.522848 -4.47715,-10 -10,-10 z m 0,0.9375 c 5.02148,0 9.0625,4.041022 9.0625,9.0625 0,5.021478 -4.04102,9.0625 -9.0625,9.0625 -5.02148,0 -9.0625,-4.041022 -9.0625,-9.0625 0,-5.021478 4.04102,-9.0625 9.0625,-9.0625 z m 0,4.125 c -2.71051,0 -4.9375,2.226991 -4.9375,4.9375 0,2.710509 2.22699,4.9375 4.9375,4.9375 2.71051,0 4.9375,-2.226991 4.9375,-4.9375 0,-2.710509 -2.22699,-4.9375 -4.9375,-4.9375 z M 56,48 c 2.20914,0 4,1.790861 4,4 0,2.209139 -1.79086,4 -4,4 -2.20914,0 -4,-1.790861 -4,-4 0,-2.209139 1.79086,-4 4,-4 z"
       inkscape:connector-curvature="0"
       id="path3921"
       style="opacity:0.1;fill:#ffffff;fill-opacity:1;stroke:none;display:inline" />
    <path
       d="M 35.5,34 C 34.669,34 34,34.669 34,35.5 l 0,0.5 -5,0 c -1.662,0 -3,1.338 -3,3 l 0,24 c 0,1.662 1.338,3 3,3 l 38,0 c 1.662,0 3,-1.338 3,-3 l 0,-24 c 0,-1.662 -1.338,-3 -3,-3 l -25,0 0,-0.5 C 42,34.669 41.331,34 40.5,34 l -5,0 z m -4.5,6 10,0 c 0.554,0 1,0.446 1,1 l 0,2 c 0,0.554 -0.446,1 -1,1 l -10,0 c -0.554,0 -1,-0.446 -1,-1 l 0,-2 c 0,-0.554 0.446,-1 1,-1 z m 25,2 c 5.52285,0 10,4.477152 10,10 0,5.522848 -4.47715,10 -10,10 -5.52285,0 -10,-4.477152 -10,-10 0,-5.522848 4.47715,-10 10,-10 z m 0,6 c -2.20914,0 -4,1.790861 -4,4 0,2.209139 1.79086,4 4,4 2.20914,0 4,-1.790861 4,-4 0,-2.209139 -1.79086,-4 -4,-4 z"
       inkscape:connector-curvature="0"
       id="rect2941"
       style="opacity:0.9;fill:url(#linearGradient3100);fill-opacity:1;stroke:none;display:inline" />
    <path
       d="M 35.5,34 C 34.669,34 34,34.669 34,35.5 l 0,0.5 -5,0 c -1.662,0 -3,1.338 -3,3 l 0,24 c 0,1.662 1.338,3 3,3 l 38,0 c 1.662,0 3,-1.338 3,-3 l 0,-24 c 0,-1.662 -1.338,-3 -3,-3 l -25,0 0,-0.5 C 42,34.669 41.331,34 40.5,34 l -5,0 z m 0.59375,2.09375 3.8125,0 a 2.087552,2.087552 0 0 0 1.25,1.84375 C 41.103955,37.934709 41.052839,37.90625 41,37.90625 l -6.125,0 a 2.087552,2.087552 0 0 0 1.21875,-1.8125 z m 5.09375,1.84375 c 0.282044,0.018 0.553626,0.06398 0.8125,0.15625 l 25,0 c 0.541717,0 0.90625,0.364533 0.90625,0.90625 l 0,12.09375 C 67.415496,44.885416 62.329457,39.90625 56,39.90625 c -6.650933,0 -12.09375,5.442819 -12.09375,12.09375 0,6.329455 4.979164,11.415496 11.1875,11.90625 l -26.09375,0 c -0.541717,0 -0.90625,-0.364533 -0.90625,-0.90625 l 0,-19.5625 c 0.246496,1.446679 1.401436,2.65625 2.90625,2.65625 l 10,0 c 1.674283,0 3.09375,-1.419467 3.09375,-3.09375 l 0,-2 c 0,-1.325474 -0.892348,-2.478041 -2.09375,-2.90625 A 2.087552,2.087552 0 0 1 41.1875,37.9375 z M 29,38.09375 l 1.5625,0 c -1.283757,0.218736 -2.250014,1.184993 -2.46875,2.46875 l 0,-1.5625 c 0,-0.541717 0.364533,-0.90625 0.90625,-0.90625 z M 31,40 41,40 c 0.554,0 1,0.446 1,1 l 0,2 c 0,0.554 -0.446,1 -1,1 l -10,0 c -0.554,0 -1,-0.446 -1,-1 l 0,-2 c 0,-0.554 0.446,-1 1,-1 z m 25,2 c 5.52285,0 10,4.477152 10,10 0,5.522848 -4.47715,10 -10,10 -5.52285,0 -10,-4.477152 -10,-10 0,-5.522848 4.47715,-10 10,-10 z m 0,6 c -2.20914,0 -4,1.790861 -4,4 0,2.209139 1.79086,4 4,4 2.20914,0 4,-1.790861 4,-4 0,-2.209139 -1.79086,-4 -4,-4 z m 0,2.09375 c 1.081057,0 1.90625,0.825194 1.90625,1.90625 0,1.081056 -0.825193,1.90625 -1.90625,1.90625 -1.081057,0 -1.90625,-0.825194 -1.90625,-1.90625 0,-1.081056 0.825193,-1.90625 1.90625,-1.90625 z m 11.90625,2.8125 0,10.09375 c 0,0.541717 -0.364533,0.90625 -0.90625,0.90625 l -10.09375,0 c 5.893011,-0.465829 10.534171,-5.10699 11,-11 z"
       inkscape:connector-curvature="0"
       id="path3893"
       style="opacity:0.25;fill:url(#linearGradient3903);fill-opacity:1;stroke:none;display:inline" />
    <path
       d="M 35.5,34 C 34.669,34 34,34.669 34,35.5 l 0,0.5 -5,0 c -1.662,0 -3,1.338 -3,3 l 0,24 c 0,1.662 1.338,3 3,3 l 38,0 c 1.662,0 3,-1.338 3,-3 l 0,-24 c 0,-1.662 -1.338,-3 -3,-3 l -25,0 0,-0.5 C 42,34.669 41.331,34 40.5,34 l -5,0 z m 0,1.03125 5,0 c 0.270859,0 0.46875,0.197891 0.46875,0.46875 l 0,0.5 A 1.043776,1.043776 0 0 0 42,37.03125 l 25,0 c 1.101859,0 1.96875,0.866891 1.96875,1.96875 l 0,24 c 0,1.101859 -0.866891,1.96875 -1.96875,1.96875 l -38,0 c -1.101859,0 -1.96875,-0.866891 -1.96875,-1.96875 l 0,-24 c 0,-1.101859 0.866891,-1.96875 1.96875,-1.96875 l 5,0 A 1.043776,1.043776 0 0 0 35.03125,36 l 0,-0.5 c 0,-0.270859 0.197891,-0.46875 0.46875,-0.46875 z m -4.5,3.9375 c -1.114141,0 -2.03125,0.917109 -2.03125,2.03125 l 0,2 c 0,1.114141 0.917109,2.03125 2.03125,2.03125 l 10,0 c 1.114141,0 2.03125,-0.917109 2.03125,-2.03125 l 0,-2 c 0,-1.114141 -0.917109,-2.03125 -2.03125,-2.03125 l -10,0 z M 31,40 41,40 c 0.554,0 1,0.446 1,1 l 0,2 c 0,0.554 -0.446,1 -1,1 l -10,0 c -0.554,0 -1,-0.446 -1,-1 l 0,-2 c 0,-0.554 0.446,-1 1,-1 z m 25,0.96875 c -6.086892,0 -11.03125,4.94436 -11.03125,11.03125 0,6.08689 4.944358,11.03125 11.03125,11.03125 6.086892,0 11.03125,-4.94436 11.03125,-11.03125 C 67.03125,45.91311 62.086892,40.96875 56,40.96875 z M 56,42 c 5.52285,0 10,4.477152 10,10 0,5.522848 -4.47715,10 -10,10 -5.52285,0 -10,-4.477152 -10,-10 0,-5.522848 4.47715,-10 10,-10 z m 0,6 c -2.20914,0 -4,1.790861 -4,4 0,2.209139 1.79086,4 4,4 2.20914,0 4,-1.790861 4,-4 0,-2.209139 -1.79086,-4 -4,-4 z m 0,1.03125 c 1.645098,0 2.96875,1.323653 2.96875,2.96875 0,1.645097 -1.323652,2.96875 -2.96875,2.96875 -1.645098,0 -2.96875,-1.323653 -2.96875,-2.96875 0,-1.645097 1.323652,-2.96875 2.96875,-2.96875 z"
       inkscape:connector-curvature="0"
       id="path3880"
       style="opacity:0.5;fill:url(#linearGradient3890);fill-opacity:1;stroke:none;display:inline" />
    <path
       d="M 35.5,34 C 34.669,34 34,34.669 34,35.5 l 0,0.5 -5,0 c -1.662,0 -3,1.338 -3,3 l 0,1 c 0,-1.662 1.338,-3 3,-3 l 5,0 0,-0.5 C 34,35.669 34.669,35 35.5,35 l 5,0 c 0.831,0 1.5,0.669 1.5,1.5 l 0,0.5 25,0 c 1.662,0 3,1.338 3,3 l 0,-1 c 0,-1.662 -1.338,-3 -3,-3 l -25,0 0,-0.5 C 42,34.669 41.331,34 40.5,34 l -5,0 z m -5.5,9 0,1 c 0,0.554 0.446,1 1,1 l 10,0 c 0.554,0 1,-0.446 1,-1 l 0,-1 c 0,0.554 -0.446,1 -1,1 l -10,0 c -0.554,0 -1,-0.446 -1,-1 z m 26,5 c -2.20914,0 -4,1.790861 -4,4 0,0.17012 0.04189,0.335468 0.0625,0.5 C 52.309566,50.527954 53.96098,49 56,49 c 2.03902,0 3.690434,1.527954 3.9375,3.5 C 59.95811,52.335468 60,52.17012 60,52 60,49.790861 58.20914,48 56,48 z m -9.96875,4.5 C 46.02315,52.665362 46,52.832622 46,53 c 0,5.522848 4.47715,10 10,10 5.52285,0 10,-4.477152 10,-10 0,-0.167378 -0.02312,-0.334638 -0.03125,-0.5 C 65.708657,57.790952 61.355472,62 56,62 50.644528,62 46.291343,57.790952 46.03125,52.5 z"
       inkscape:connector-curvature="0"
       id="path3871"
       style="fill:url(#linearGradient3877-2);fill-opacity:1;stroke:none;display:inline" />
    <path
       d="m 31,40 c -0.554,0 -1,0.446 -1,1 l 0,1 c 0,-0.554 0.446,-1 1,-1 l 10,0 c 0.554,0 1,0.446 1,1 l 0,-1 c 0,-0.554 -0.446,-1 -1,-1 l -10,0 z m 25,2 c -5.52285,0 -10,4.477152 -10,10 0,0.167378 0.02312,0.334638 0.03125,0.5 C 46.291343,47.209048 50.644528,43 56,43 c 5.355472,0 9.708657,4.209048 9.96875,9.5 C 65.97685,52.334638 66,52.167378 66,52 66,46.477152 61.52285,42 56,42 z M 52.0625,52.5 C 52.04189,52.664532 52,52.82988 52,53 c 0,2.209139 1.79086,4 4,4 2.20914,0 4,-1.790861 4,-4 0,-0.17012 -0.04189,-0.335468 -0.0625,-0.5 C 59.690434,54.472046 58.03902,56 56,56 53.96098,56 52.309566,54.472046 52.0625,52.5 z M 26,63 l 0,1 c 0,1.662 1.338,3 3,3 l 38,0 c 1.662,0 3,-1.338 3,-3 l 0,-1 c 0,1.662 -1.338,3 -3,3 l -38,0 c -1.662,0 -3,-1.338 -3,-3 z"
       inkscape:connector-curvature="0"
       id="path3906"
       style="opacity:0.2;fill:#ffffff;fill-opacity:1;stroke:none;display:inline" />
  </g>
</svg>
