<?xml version="1.0" encoding="UTF-8" standalone="no"?>
<!-- Created with Inkscape (http://www.inkscape.org/) -->

<svg
   xmlns:dc="http://purl.org/dc/elements/1.1/"
   xmlns:cc="http://creativecommons.org/ns#"
   xmlns:rdf="http://www.w3.org/1999/02/22-rdf-syntax-ns#"
   xmlns:svg="http://www.w3.org/2000/svg"
   xmlns="http://www.w3.org/2000/svg"
   xmlns:xlink="http://www.w3.org/1999/xlink"
   xmlns:inkscape="http://www.inkscape.org/namespaces/inkscape"
   version="1.0"
   width="96"
   height="96"
   id="svg2408">
  <defs
     id="defs2410">
    <linearGradient
       id="linearGradient3894">
      <stop
         id="stop3901"
         style="stop-color:#c75026;stop-opacity:1"
         offset="0" />
      <stop
         id="stop3905"
         style="stop-color:#eb9d48;stop-opacity:1"
         offset="1" />
    </linearGradient>
    <linearGradient
       id="linearGradient3885">
      <stop
         id="stop3887"
         style="stop-color:#eb7731;stop-opacity:1"
         offset="0" />
      <stop
         id="stop3889"
         style="stop-color:#e59343;stop-opacity:1"
         offset="0.5" />
      <stop
         id="stop3891"
         style="stop-color:#e5b66b;stop-opacity:1"
         offset="1" />
    </linearGradient>
    <linearGradient
       id="linearGradient3874">
      <stop
         id="stop3876"
         style="stop-color:#ffa32d;stop-opacity:1"
         offset="0" />
      <stop
         id="stop3878"
         style="stop-color:#ffe4c1;stop-opacity:0"
         offset="1" />
    </linearGradient>
    <linearGradient
       x1="11.794092"
       y1="3.2126782"
       x2="11.794092"
       y2="20.137329"
       id="linearGradient3317"
       gradientUnits="userSpaceOnUse"
       gradientTransform="scale(1.0598527,0.9435274)">
      <stop
         id="stop3319"
         style="stop-color:#c6953a;stop-opacity:1"
         offset="0" />
      <stop
         id="stop3321"
         style="stop-color:#ab7a1f;stop-opacity:1"
         offset="1" />
    </linearGradient>
    <linearGradient
       x1="48.035713"
       y1="25.910715"
       x2="48.035713"
       y2="85.821426"
       id="linearGradient3361"
       xlink:href="#linearGradient3317"
       gradientUnits="userSpaceOnUse" />
    <linearGradient
       x1="45.447727"
       y1="80.471962"
       x2="45.447727"
       y2="7.0165396"
       id="ButtonShadow"
       gradientUnits="userSpaceOnUse"
       gradientTransform="matrix(1.0058652,0,0,0.994169,0,12)">
      <stop
         id="stop3750"
         style="stop-color:#000000;stop-opacity:1"
         offset="0" />
      <stop
         id="stop3752"
         style="stop-color:#000000;stop-opacity:0.58823532"
         offset="1" />
    </linearGradient>
    <linearGradient
       x1="48"
       y1="78"
       x2="48"
       y2="5.9877172"
       id="linearGradient3706"
       xlink:href="#linearGradient3885"
       gradientUnits="userSpaceOnUse"
       gradientTransform="translate(0,8)" />
    <filter
       color-interpolation-filters="sRGB"
       id="filter3174">
      <feGaussianBlur
         id="feGaussianBlur3176"
         stdDeviation="1.71" />
    </filter>
    <linearGradient
       x1="45.447727"
       y1="80.471962"
       x2="45.447727"
       y2="5.297224"
       id="linearGradient3664"
       xlink:href="#ButtonShadow"
       gradientUnits="userSpaceOnUse"
       gradientTransform="matrix(1.0058652,0,0,0.994169,0,12)" />
    <clipPath
       id="clipPath3860">
      <rect
         width="84"
         height="72"
         rx="6"
         ry="6"
         x="6"
         y="18"
         id="rect3862"
         style="fill:#ff00ff;fill-opacity:1;fill-rule:nonzero;stroke:none" />
    </clipPath>
    <filter
       x="-0.16558799"
       y="-0.19715989"
       width="1.331176"
       height="1.3943198"
       color-interpolation-filters="sRGB"
       id="filter3870">
      <feGaussianBlur
         id="feGaussianBlur3872"
         stdDeviation="5.1703125" />
    </filter>
    <linearGradient
       id="linearGradient3892">
      <stop
         id="stop3894"
         style="stop-color:#000000;stop-opacity:0.58823532"
         offset="0" />
      <stop
         id="stop3896"
         style="stop-color:#000000;stop-opacity:0.47058824"
         offset="0.11780351" />
      <stop
         id="stop3898"
         style="stop-color:#000000;stop-opacity:0.39215687"
         offset="0.23809524" />
      <stop
         id="stop3900"
         style="stop-color:#000000;stop-opacity:0.3137255"
         offset="1" />
    </linearGradient>
    <linearGradient
       id="linearGradient4384">
      <stop
         id="stop4386"
         style="stop-color:#ffffff;stop-opacity:1"
         offset="0" />
      <stop
         id="stop4388"
         style="stop-color:#ffffff;stop-opacity:0"
         offset="1" />
    </linearGradient>
    <linearGradient
       x1="48"
       y1="75.08329"
       x2="48"
       y2="-40"
       id="linearGradient3094"
       xlink:href="#linearGradient4384"
       gradientUnits="userSpaceOnUse"
       gradientTransform="matrix(1,0,0,-1,0,92)" />
    <linearGradient
       x1="48.021698"
       y1="22.933374"
       x2="48.021698"
       y2="81.481377"
       id="linearGradient3123"
       xlink:href="#linearGradient3874"
       gradientUnits="userSpaceOnUse" />
    <linearGradient
       x1="37.611111"
       y1="27.111111"
       x2="37.611111"
       y2="21.555555"
       id="linearGradient3105"
       xlink:href="#linearGradient3894"
       gradientUnits="userSpaceOnUse"
       gradientTransform="matrix(0.72,0,0,0.72,1.92,-5.52)" />
    <linearGradient
       x1="43"
       y1="91"
       x2="43"
       y2="7"
       id="linearGradient3952"
       xlink:href="#ButtonShadow"
       gradientUnits="userSpaceOnUse" />
    <linearGradient
       x1="45"
       y1="92"
       x2="45"
       y2="7"
       id="linearGradient3961"
       xlink:href="#ButtonShadow"
       gradientUnits="userSpaceOnUse" />
    <linearGradient
       x1="45"
       y1="92"
       x2="45"
       y2="7"
       id="linearGradient3969"
       xlink:href="#ButtonShadow"
       gradientUnits="userSpaceOnUse" />
    <linearGradient
       x1="45"
       y1="92"
       x2="45"
       y2="7"
       id="linearGradient3977"
       xlink:href="#ButtonShadow"
       gradientUnits="userSpaceOnUse" />
    <linearGradient
       x1="45"
       y1="92"
       x2="45"
       y2="7"
       id="linearGradient3986"
       xlink:href="#ButtonShadow"
       gradientUnits="userSpaceOnUse" />
    <linearGradient
       x1="90"
       y1="88"
       x2="48"
       y2="88"
       id="linearGradient3906"
       xlink:href="#linearGradient3892"
       gradientUnits="userSpaceOnUse"
       gradientTransform="translate(0,10)"
       spreadMethod="reflect" />
    <linearGradient
       x1="45.086735"
       y1="33.312237"
       x2="44.748363"
       y2="21.847862"
       id="linearGradient4031"
       xlink:href="#linearGradient3942"
       gradientUnits="userSpaceOnUse" />
    <linearGradient
       id="linearGradient3942">
      <stop
         id="stop3944"
         style="stop-color:#ffa800;stop-opacity:1"
         offset="0" />
      <stop
         id="stop3946"
         style="stop-color:#ffcf0e;stop-opacity:1"
         offset="1" />
    </linearGradient>
    <linearGradient
       x1="45.086735"
       y1="33.312237"
       x2="44.748363"
       y2="21.847862"
       id="linearGradient3948"
       xlink:href="#linearGradient3942"
       gradientUnits="userSpaceOnUse" />
    <linearGradient
       x1="46"
       y1="12"
       x2="46"
       y2="74"
       id="linearGradient3968"
       xlink:href="#linearGradient3179"
       gradientUnits="userSpaceOnUse"
       gradientTransform="translate(2,0)" />
    <linearGradient
       id="linearGradient3179">
      <stop
         id="stop3181"
         style="stop-color:#000000;stop-opacity:0.56910568"
         offset="0" />
      <stop
         id="stop3187"
         style="stop-color:#000000;stop-opacity:0"
         offset="0.07017544" />
      <stop
         id="stop3194"
         style="stop-color:#750202;stop-opacity:0.09019608"
         offset="0.20271669" />
      <stop
         id="stop3200"
         style="stop-color:#e47b04;stop-opacity:0.13725491"
         offset="0.26648945" />
      <stop
         id="stop3190"
         style="stop-color:#ffc906;stop-opacity:0.18431373"
         offset="0.35024518" />
      <stop
         id="stop3198"
         style="stop-color:#b76403;stop-opacity:0.13725489"
         offset="0.43899667" />
      <stop
         id="stop3192"
         style="stop-color:#700000;stop-opacity:0.09019608"
         offset="0.49777371" />
      <stop
         id="stop3196"
         style="stop-color:#fda100;stop-opacity:0.19215687"
         offset="0.65896344" />
      <stop
         id="stop3183"
         style="stop-color:#7c0000;stop-opacity:0.60975611"
         offset="1" />
    </linearGradient>
    <linearGradient
       x1="30"
       y1="46"
       x2="30"
       y2="13"
       id="linearGradient4076"
       xlink:href="#linearGradient4057"
       gradientUnits="userSpaceOnUse"
       gradientTransform="translate(2,0)" />
    <linearGradient
       id="linearGradient4057">
      <stop
         id="stop4059"
         style="stop-color:#ffa800;stop-opacity:1"
         offset="0" />
      <stop
         id="stop4061"
         style="stop-color:#ffa800;stop-opacity:0"
         offset="1" />
    </linearGradient>
    <linearGradient
       x1="43"
       y1="12"
       x2="43"
       y2="80"
       id="linearGradient4063"
       xlink:href="#linearGradient4057"
       gradientUnits="userSpaceOnUse"
       gradientTransform="translate(2,0)" />
  </defs>
  <metadata
     id="metadata2413">
    <rdf:RDF>
      <cc:Work
         rdf:about="">
        <dc:format>image/svg+xml</dc:format>
        <dc:type
           rdf:resource="http://purl.org/dc/dcmitype/StillImage" />
        <dc:title />
      </cc:Work>
    </rdf:RDF>
  </metadata>
  <g
     id="layer2"
     style="display:none">
    <path
       d="M 14.96875,8.8028918 C 13.32891,8.8028918 12,10.085142 12,11.677892 L 12,19 c -3.324,0 -7,2.676 -7,6 l 0,61 c 0,3.324 2.676,6 6,6 l 74,0 c 3.324,0 6,-2.676 6,-6 l 0,-61 c 0,-3.324 -3.74743,-6 -7.07143,-6 l 0,-0.134608 c 0,-2.389125 -1.97774,-4.3125 -4.4375,-4.3125 l -43.33482,0 -1.46875,-2.875 C 33.95414,10.253293 33.35859,8.8028918 31.71875,8.8028918 l -16.75,0 z"
       inkscape:connector-curvature="0"
       id="rect3745"
       style="opacity:0.9;fill:url(#linearGradient3664);fill-opacity:1;fill-rule:nonzero;stroke:none;filter:url(#filter3174)" />
  </g>
  <g
     id="layer4"
     style="display:inline">
    <path
       d="M 14.125,4 C 9.6910704,4 6,7.568413 6,12 l 0,2.15625 C 3.6235961,15.958367 2,18.759045 2,22 l 0,63 c 0,5.503629 4.496371,10 10,10 l 72,0 c 5.503629,0 10,-4.496371 10,-10 L 94,22 C 94,18.516601 92.146607,15.546894 89.46875,13.78125 88.481551,10.491738 85.526024,8 81.875,8 l -39.5,0 C 40.972352,6.645177 39.835329,5.4903784 38.6875,4.84375 37.192287,4.0014231 35.756649,4.0295412 34.875,4 a 0.92780092,0.92780092 0 0 0 -0.03125,0 c -0.0012,-1.73e-5 -0.03009,-1.73e-5 -0.03125,0 L 34.78125,4 14.125,4 z"
       id="path3984"
       style="opacity:0.07999998;fill:url(#linearGradient3986);fill-opacity:1;fill-rule:nonzero;stroke:none;display:inline" />
    <path
       d="M 14.125,4.9375 C 10.184407,4.9375 6.9375,8.0807925 6.9375,12 l 0,2.59375 c -2.3826099,1.622076 -4,4.293928 -4,7.40625 l 0,63 c 0,5.001444 4.0610559,9.0625 9.0625,9.0625 l 72,0 c 5.001444,0 9.0625,-4.061056 9.0625,-9.0625 l 0,-63 c 0,-3.260846 -1.77319,-6.039741 -4.34375,-7.625 C 87.957559,11.279325 85.241489,8.9375 81.875,8.9375 l -39.8125,0 C 40.465021,7.3963057 39.290438,6.2599842 38.21875,5.65625 36.945571,4.9390059 35.771277,4.9685784 34.84375,4.9375 a 1.043776,1.043776 0 0 0 -0.03125,0 c -10e-7,0 -0.03125,0 -0.03125,0 l -20.65625,0 z"
       id="path3975"
       style="opacity:0.1;fill:url(#linearGradient3977);fill-opacity:1;fill-rule:nonzero;stroke:none;display:inline" />
    <path
       d="M 14.125,5.96875 C 10.736326,5.96875 7.96875,8.6567706 7.96875,12 l 0,3.125 c -2.3751432,1.394016 -4,3.920462 -4,6.875 l 0,63 c 0,4.438141 3.5931086,8.03125 8.03125,8.03125 l 72,0 c 4.438141,0 8.03125,-3.593109 8.03125,-8.03125 l 0,-63 c 0,-3.031992 -1.712245,-5.604362 -4.1875,-6.96875 -0.491893,-2.85962 -2.928643,-5.0625 -5.96875,-5.0625 l -40.1875,0 C 39.852667,8.1939079 38.678863,7.1033787 37.71875,6.5625 36.681475,5.9781523 35.778304,6.0011109 34.8125,5.96875 a 1.043776,1.043776 0 0 0 -0.03125,0 l -20.65625,0 z"
       id="path3967"
       style="opacity:0.2;fill:url(#linearGradient3969);fill-opacity:1;fill-rule:nonzero;stroke:none;display:inline" />
    <path
       d="M 14.125,7 C 11.282105,7 9,9.23 9,12 l 0,3.6875 C 6.6359408,16.808884 5,19.200342 5,22 l 0,63 c 0,3.878 3.122,7 7,7 l 72,0 c 3.878,0 7,-3.122 7,-7 L 91,22 C 91,19.190264 89.346632,16.803629 86.96875,15.6875 86.799101,13.069075 84.606585,11 81.875,11 l -40.59375,0 c -4.220528,-4.1123102 -4.502768,-3.9330794 -6.5,-4 L 14.125,7 z"
       inkscape:connector-curvature="0"
       id="path3908-1"
       style="opacity:0.3;fill:url(#linearGradient3961);fill-opacity:1;fill-rule:nonzero;stroke:none;display:inline" />
    <path
       d="m 15,7 c -2.77,0 -5,2.23 -5,5 l 0,3.34375 C 7.6664933,16.164656 6,18.378887 6,21 l 0,64 c 0,3.324 2.676,6 6,6 l 72,0 c 3.324,0 6,-2.676 6,-6 L 90,21 C 90,18.358112 88.300137,16.148775 85.9375,15.34375 85.611464,12.893448 83.542274,11 81,11 L 40.46875,11 C 36.35644,6.8876898 36.102271,7.0669206 34.15625,7 L 15,7 z"
       inkscape:connector-curvature="0"
       id="path3941"
       style="opacity:0.45;fill:url(#linearGradient3952);fill-opacity:1;fill-rule:nonzero;stroke:none;display:inline" />
  </g>
  <g
     id="layer3"
     style="display:inline">
    <rect
       width="75"
       height="62.678574"
       rx="6"
       ry="6"
       x="10.535714"
       y="23.142857"
       id="rect3352"
       style="fill:url(#linearGradient3361);fill-opacity:1;fill-rule:nonzero;stroke:none;display:inline" />
    <path
       d="m 15,6 c -2.77,0 -5,2.23 -5,5 l 0,59.8125 c 0,2.39328 1.91922,4.3125 4.3125,4.3125 l 67.375,0 C 84.08078,75.125 86,73.20578 86,70.8125 L 86,15 c 0,-2.77 -2.23,-5 -5,-5 L 40.46875,10 C 36.35644,5.8876898 36.102271,6.0669206 34.15625,6 z"
       inkscape:connector-curvature="0"
       id="path3908"
       style="fill:url(#linearGradient3105);fill-opacity:1;fill-rule:nonzero;stroke:none;display:inline" />
    <path
       d="m 15,6 c -2.77,0 -5,2.23 -5,5 l 0,59.8125 c 0,2.39328 1.91922,4.3125 4.3125,4.3125 l 67.375,0 C 84.08078,75.125 86,73.20578 86,70.8125 L 86,15 c 0,-2.77 -2.23,-5 -5,-5 L 40.46875,10 C 36.35644,5.8876898 36.102271,6.0669206 34.15625,6 L 15,6 z m 0,1.03125 19.125,0 0.03125,0 c 0.964976,0.031157 1.192535,-0.016972 1.8125,0.34375 0.630289,0.366729 1.706808,1.3318077 3.75,3.375 a 1.043776,1.043776 0 0 0 0.75,0.28125 l 40.53125,0 c 2.209859,0 3.96875,1.758891 3.96875,3.96875 l 0,55.8125 c 0,1.835319 -1.445931,3.28125 -3.28125,3.28125 l -67.375,0 c -1.835319,0 -3.28125,-1.445931 -3.28125,-3.28125 l 0,-59.8125 c 0,-2.2098586 1.758891,-3.96875 3.96875,-3.96875 z"
       inkscape:connector-curvature="0"
       id="path3108"
       style="opacity:0.2;fill:#ffffff;fill-opacity:1;fill-rule:nonzero;stroke:none;display:inline" />
  </g>
  <g
     id="layer1"
     style="display:inline">
    <rect
       width="84"
       height="76"
       rx="6"
       ry="6"
       x="6"
       y="14"
       id="rect2419"
       style="fill:url(#linearGradient3706);fill-opacity:1;fill-rule:nonzero;stroke:none" />
    <path
       d="M 12,86 C 8.676,86 6,83.324 6,80 L 6,20 c 0,-3.324 2.676,-6 6,-6 l 72,0 c 3.324,0 6,2.676 6,6 l 0,60 c 0,3.324 -2.676,6 -6,6 z m 0,-0.96875 72,0 c 2.80489,0 5.03125,-2.22636 5.03125,-5.03125 l 0,-60 c 0,-2.80489 -2.22636,-5.03125 -5.03125,-5.03125 l -72,0 c -2.8048898,0 -5.03125,2.22636 -5.03125,5.03125 l 0,60 c 0,2.80489 2.2263602,5.03125 5.03125,5.03125 z"
       inkscape:connector-curvature="0"
       id="rect4377"
       style="opacity:0.35;fill:url(#linearGradient3094);fill-opacity:1;fill-rule:nonzero;stroke:none" />
    <path
       d="m 6,78 0,2 c 0,3.324 2.676,6 6,6 l 72,0 c 3.324,0 6,-2.676 6,-6 l 0,-2 c 0,3.324 -2.676,6 -6,6 L 12,84 C 8.676,84 6,81.324 6,78 z"
       inkscape:connector-curvature="0"
       id="rect3841"
       style="opacity:0.1;fill:#ffffff;fill-opacity:1;fill-rule:nonzero;stroke:none" />
  </g>
  <g
     id="layer7">
    <path
       d="m 6,80 0,4 c 0,3.324 2.676,6 6,6 l 72,0 c 3.324,0 6,-2.676 6,-6 l 0,-4 c 0,3.324 -2.676,6 -6,6 L 12,86 C 8.676,86 6,83.324 6,80 z"
       inkscape:connector-curvature="0"
       id="path3067"
       style="opacity:0.8;fill:#ce4f16;fill-opacity:1;fill-rule:nonzero;stroke:none;display:inline" />
    <g
       transform="translate(0,-10)"
       id="g3901">
      <path
         d="m 6,90 0,4 c 0,3.324 2.676,6 6,6 l 72,0 c 3.324,0 6,-2.676 6,-6 l 0,-4 c 0,3.324 -2.676,6 -6,6 L 12,96 C 8.676,96 6,93.324 6,90 z"
         inkscape:connector-curvature="0"
         id="path3888"
         style="opacity:0.5;fill:url(#linearGradient3906);fill-opacity:1;fill-rule:nonzero;stroke:none;display:inline" />
      <path
         d="m 6,92 0,2 c 0,3.324 2.676,6 6,6 l 72,0 c 3.324,0 6,-2.676 6,-6 l 0,-2 c 0,3.324 -2.676,6 -6,6 L 12,98 C 8.676,98 6,95.324 6,92 z"
         inkscape:connector-curvature="0"
         id="rect4345"
         style="opacity:0.1;color:#000000;fill:#000000;fill-opacity:1;fill-rule:nonzero;stroke:none;stroke-width:1.5;marker:none;visibility:visible;display:inline;overflow:visible;enable-background:accumulate" />
      <path
         d="m 6,93 0,1 c 0,3.324 2.676,6 6,6 l 72,0 c 3.324,0 6,-2.676 6,-6 l 0,-1 c 0,3.324 -2.676,6 -6,6 L 12,99 C 8.676,99 6,96.324 6,93 z"
         inkscape:connector-curvature="0"
         id="rect4336"
         style="opacity:0.15;color:#000000;fill:#000000;fill-opacity:1;fill-rule:nonzero;stroke:none;stroke-width:1.5;marker:none;visibility:visible;display:inline;overflow:visible;enable-background:accumulate" />
    </g>
  </g>
  <g
     id="layer5"
     style="display:inline">
    <path
       d="m 15.96875,22.53125 c -2.845903,0.0043 -5.433244,2.591597 -5.4375,5.4375 l 0,48.0625 c 0.0043,2.845903 2.591597,5.433244 5.4375,5.4375 l 64.0625,0 c 2.845903,-0.0043 5.433244,-2.591597 5.4375,-5.4375 l 0,-48.0625 c -0.0043,-2.845903 -2.591597,-5.433244 -5.4375,-5.4375 z"
       inkscape:connector-curvature="0"
       transform="translate(0,-4)"
       clip-path="url(#clipPath3860)"
       id="path3850"
       style="opacity:0.3;fill:url(#linearGradient3123);fill-opacity:1;fill-rule:nonzero;stroke:none;filter:url(#filter3870)" />
  </g>
  <g
     id="layer6">
    <path
       d="m 31,11.03125 c -1.184291,0 -2.289101,0.286484 -3.21875,0.90625 -0.929649,0.619766 -1.75,1.713595 -1.75,3.0625 l 0,2 0,3 0,61 c 0.0011,0.740807 0.457576,1.462312 1.126543,1.780558 0.668966,0.318246 1.516755,0.217224 2.092207,-0.249308 L 48,65.5625 66.75,82.53125 c 0.575452,0.466532 1.423241,0.567554 2.092207,0.249308 C 69.511174,82.462312 69.967663,81.740807 69.96875,81 L 70,17 c 0.0036,-0.136011 -0.0069,-0.272392 -0.03125,-0.40625 l 0,-1.59375 c 0,-1.348905 -0.820351,-2.442734 -1.75,-3.0625 C 67.289101,11.317734 66.184291,11.03125 65,11.03125 z"
       inkscape:connector-curvature="0"
       id="path4039"
       style="opacity:0.05;fill:#000000;fill-opacity:1;stroke:none;display:inline" />
    <path
       d="m 31,12.0625 c -0.998779,0 -1.930023,0.265849 -2.65625,0.75 C 27.617523,13.296651 27.0625,14.068497 27.0625,15 l 0,2 0,3 0,61 c 0.0057,0.702669 0.987044,1.163291 1.53125,0.71875 L 48,64.21875 l 19.40625,17.5 C 67.950456,82.163291 68.931781,81.70267 68.9375,81 l 0.03125,-64 c -0.004,-0.06334 -0.01453,-0.126272 -0.03125,-0.1875 0.0016,-0.03122 0.0016,-0.06253 0,-0.09375 l 0,-1.71875 c 0,-0.931503 -0.555023,-1.703349 -1.28125,-2.1875 -0.726227,-0.484151 -1.657471,-0.75 -2.65625,-0.75 z"
       inkscape:connector-curvature="0"
       id="path4037"
       style="opacity:0.1;fill:#000000;fill-opacity:1;stroke:none;display:inline" />
    <path
       d="m 31,13 c -1.662,0 -3,0.892 -3,2 l 0,2 0,3 0,61 L 48,63 68,81 68.03125,17 68,17 68,15 c 0,-1.108 -1.338,-2 -3,-2 z"
       inkscape:connector-curvature="0"
       id="path3985"
       style="opacity:0.2;fill:#000000;fill-opacity:1;stroke:none;display:inline" />
    <path
       d="m 31,12 c -1.662,0 -3,0.892 -3,2 l 0,2 0,3 0,61 L 48,62 68,80 68.03125,16 68,16 68,14 c 0,-1.108 -1.338,-2 -3,-2 z"
       inkscape:connector-curvature="0"
       id="rect3204"
       style="fill:#aa0000;fill-opacity:1;stroke:none;display:inline" />
    <path
       d="m 31,12 c -1.662,0 -3,0.892 -3,2 l 0,2 0,3 0,61 L 48,62 68,80 68.03125,16 68,16 68,14 c 0,-1.108 -1.338,-2 -3,-2 z m 0,1.03125 34,0 c 0.644286,0 1.193739,0.181243 1.53125,0.40625 0.337511,0.225007 0.4375,0.428606 0.4375,0.5625 l 0,2 c -0.0024,0.09459 0.0082,0.189495 0.03125,0.28125 L 66.96875,77.8125 48.65625,61.1875 c -0.36791,-0.297463 -0.94459,-0.297463 -1.3125,0 l -18.3125,16.625 0,-58.8125 0,-3 0,-2 c 0,-0.133894 0.09999,-0.337493 0.4375,-0.5625 C 29.806261,13.212493 30.355714,13.03125 31,13.03125 z"
       inkscape:connector-curvature="0"
       id="path4041"
       style="opacity:0.5;fill:url(#linearGradient4063);fill-opacity:1;stroke:none;display:inline" />
    <path
       d="M 31,12 31,73 48,58 65,73 65,12 64,12 64,71 48,57 32,71 32,12 z"
       inkscape:connector-curvature="0"
       id="path4065"
       style="fill:url(#linearGradient4076);fill-opacity:1;stroke:none" />
    <path
       d="m 31,12 c -1.662,0 -3,0.892 -3,2 l 0,2 0,3 0,61 L 48,62 68,80 68.0313,16 68,16 68,14 c 0,-1.108 -1.338,-2 -3,-2 z"
       inkscape:connector-curvature="0"
       id="path3960"
       style="fill:url(#linearGradient3968);fill-opacity:1;stroke:none;display:inline" />
    <path
       d="m 44.59375,19.375 a 0.63569322,0.63569322 0 0 0 -0.40625,0.34375 l -2.75,5.59375 -6.15625,1.21875 A 0.63569322,0.63569322 0 0 0 34.96875,27.625 L 39.4375,32 38.71875,38.1875 a 0.63569322,0.63569322 0 0 0 0.9375,0.625 l 5.5,-2.90625 L 50.8125,38.5 a 0.63569322,0.63569322 0 0 0 0.90625,-0.65625 L 50.6875,31.6875 54.90625,27.09375 a 0.63569322,0.63569322 0 0 0 -0.375,-1.0625 L 48.34375,25.125 45.3125,19.6875 A 0.63569322,0.63569322 0 0 0 44.59375,19.375 z"
       transform="matrix(1.3453329,0.03970747,-0.03970747,1.3453329,-11.329048,-1.560111)"
       id="path3956"
       style="opacity:0.3;color:#000000;fill:#550000;fill-opacity:1;fill-rule:nonzero;stroke:none;stroke-width:2;marker:none;visibility:visible;display:inline;overflow:visible;enable-background:accumulate" />
    <path
       d="m 51.087614,37.933533 -5.951494,-2.735315 -5.800182,3.043044 0.762326,-6.505466 -4.686461,-4.575949 6.422638,-1.285284 2.90379,-5.871136 3.207081,5.711117 6.481103,0.947387 -4.440553,4.814949 z"
       transform="matrix(1.3453329,0.03970747,-0.03970747,1.3453329,-11.329048,-1.560111)"
       id="path3172"
       style="color:#000000;fill:url(#linearGradient3948);fill-opacity:1;fill-rule:nonzero;stroke:none;stroke-width:2;marker:none;visibility:visible;display:inline;overflow:visible;enable-background:accumulate" />
    <path
       d="m 51.087614,37.933533 -5.951494,-2.735315 -5.800182,3.043044 0.762326,-6.505466 -4.686461,-4.575949 6.422638,-1.285284 2.90379,-5.871136 3.207081,5.711117 6.481103,0.947387 -4.440553,4.814949 z"
       transform="matrix(1.3453329,0.03970747,-0.03970747,1.3453329,-11.329048,-1.560111)"
       id="path3950"
       style="color:#000000;fill:url(#linearGradient4031);fill-opacity:1;fill-rule:nonzero;stroke:none;stroke-width:2;marker:none;visibility:visible;display:inline;overflow:visible;enable-background:accumulate" />
    <path
       d="m 48.058472,27.116975 -4.12721,7.798818 -8.710019,1.474003 0.723601,0.723602 7.986418,-1.340003 4.12721,-7.798818 4.100409,7.825618 7.959618,1.393603 0.723602,-0.723602 -8.68322,-1.527603 -4.100409,-7.825618 z m -6.807216,16.348037 -1.179202,7.986418 0.134,-0.0536 1.152403,-7.825618 -0.107201,-0.1072 z m 13.534031,0.0536 -0.1072,0.107201 1.072002,7.825617 0.134001,0.0536 -1.098803,-7.986419 z"
       inkscape:connector-curvature="0"
       id="path4001"
       style="opacity:0.2;color:#000000;fill:#ffff00;fill-opacity:1;fill-rule:nonzero;stroke:none;stroke-width:2;marker:none;visibility:visible;display:inline;overflow:visible;enable-background:accumulate" />
  </g>
</svg>
