<?xml version="1.0" encoding="UTF-8" standalone="no"?>
<!-- Created with Inkscape (http://www.inkscape.org/) -->

<svg
   xmlns:dc="http://purl.org/dc/elements/1.1/"
   xmlns:cc="http://creativecommons.org/ns#"
   xmlns:rdf="http://www.w3.org/1999/02/22-rdf-syntax-ns#"
   xmlns:svg="http://www.w3.org/2000/svg"
   xmlns="http://www.w3.org/2000/svg"
   xmlns:xlink="http://www.w3.org/1999/xlink"
   xmlns:sodipodi="http://sodipodi.sourceforge.net/DTD/sodipodi-0.dtd"
   xmlns:inkscape="http://www.inkscape.org/namespaces/inkscape"
   version="1.0"
   width="96"
   height="96"
   id="svg2408"
   inkscape:version="0.48.3.1 r9886"
   sodipodi:docname="distributor-logo-descent.svg">
  <sodipodi:namedview
     pagecolor="#ffffff"
     bordercolor="#666666"
     borderopacity="1"
     objecttolerance="10"
     gridtolerance="10"
     guidetolerance="10"
     inkscape:pageopacity="0"
     inkscape:pageshadow="2"
     inkscape:window-width="1484"
     inkscape:window-height="1042"
     id="namedview65"
     showgrid="false"
     inkscape:zoom="3.6203867"
     inkscape:cx="31.142432"
     inkscape:cy="51.753524"
     inkscape:window-x="75"
     inkscape:window-y="47"
     inkscape:window-maximized="0"
     inkscape:current-layer="svg2408" />
  <defs
     id="defs2410">
    <linearGradient
       id="linearGradient4423">
      <stop
         id="stop4425"
         offset="0"
         style="stop-color:#e9d70a;stop-opacity:1;" />
      <stop
         id="stop4427"
         offset="1"
         style="stop-color:#ada007;stop-opacity:1;" />
    </linearGradient>
    <linearGradient
       id="linearGradient4303">
      <stop
         style="stop-color:#f7e94c;stop-opacity:1;"
         offset="0"
         id="stop4305" />
      <stop
         style="stop-color:#bfb108;stop-opacity:1;"
         offset="1"
         id="stop4307" />
    </linearGradient>
    <linearGradient
       id="linearGradient3919">
      <stop
         id="stop3921"
         style="stop-color:#fafafa;stop-opacity:1"
         offset="0" />
      <stop
         id="stop3923"
         style="stop-color:#f0f0f0;stop-opacity:1"
         offset="1" />
    </linearGradient>
    <linearGradient
       id="linearGradient3903">
      <stop
         id="stop3905"
         style="stop-color:#1778bb;stop-opacity:1;"
         offset="0" />
      <stop
         id="stop3907"
         style="stop-color:#40a6db;stop-opacity:1;"
         offset="1" />
    </linearGradient>
    <linearGradient
       x1="45.447727"
       y1="92.539597"
       x2="45.447727"
       y2="7.0165396"
       id="ButtonShadow"
       gradientUnits="userSpaceOnUse"
       gradientTransform="scale(1.0058652,0.994169)">
      <stop
         id="stop3750"
         style="stop-color:#000000;stop-opacity:1"
         offset="0" />
      <stop
         id="stop3752"
         style="stop-color:#000000;stop-opacity:0.58823532"
         offset="1" />
    </linearGradient>
    <linearGradient
       id="linearGradient3737">
      <stop
         id="stop3739"
         style="stop-color:#ffffff;stop-opacity:1"
         offset="0" />
      <stop
         id="stop3741"
         style="stop-color:#ffffff;stop-opacity:0"
         offset="1" />
    </linearGradient>
    <filter
       color-interpolation-filters="sRGB"
       id="filter3174">
      <feGaussianBlur
         id="feGaussianBlur3176"
         stdDeviation="1.71" />
    </filter>
    <linearGradient
       x1="36.357143"
       y1="6"
       x2="36.357143"
       y2="63.893143"
       id="linearGradient3188"
       xlink:href="#linearGradient3737"
       gradientUnits="userSpaceOnUse" />
    <filter
       x="-0.192"
       y="-0.192"
       width="1.3839999"
       height="1.3839999"
       color-interpolation-filters="sRGB"
       id="filter3794">
      <feGaussianBlur
         id="feGaussianBlur3796"
         stdDeviation="5.28" />
    </filter>
    <linearGradient
       x1="48"
       y1="20.220806"
       x2="48"
       y2="138.66119"
       id="linearGradient3613"
       xlink:href="#linearGradient3737"
       gradientUnits="userSpaceOnUse" />
    <radialGradient
       cx="48"
       cy="90.171875"
       r="42"
       fx="48"
       fy="90.171875"
       id="radialGradient3619"
       xlink:href="#linearGradient3737"
       gradientUnits="userSpaceOnUse"
       gradientTransform="matrix(1.1573129,0,0,0.99590774,-7.5510206,0.19713193)" />
    <clipPath
       id="clipPath3613">
      <rect
         width="84"
         height="84"
         rx="6"
         ry="6"
         x="6"
         y="6"
         id="rect3615"
         style="fill:#ffffff;fill-opacity:1;fill-rule:nonzero;stroke:none" />
    </clipPath>
    <linearGradient
       x1="45.447727"
       y1="92.539597"
       x2="45.447727"
       y2="7.0165396"
       id="ButtonShadow-0"
       gradientUnits="userSpaceOnUse"
       gradientTransform="matrix(1.0058652,0,0,0.994169,100,0)">
      <stop
         id="stop3750-8"
         style="stop-color:#000000;stop-opacity:1"
         offset="0" />
      <stop
         id="stop3752-5"
         style="stop-color:#000000;stop-opacity:0.58823532"
         offset="1" />
    </linearGradient>
    <linearGradient
       x1="32.251034"
       y1="6.1317081"
       x2="32.251034"
       y2="90.238609"
       id="linearGradient3780"
       xlink:href="#ButtonShadow-0"
       gradientUnits="userSpaceOnUse"
       gradientTransform="matrix(1.0238095,0,0,1.0119048,-1.1428571,-98.071429)" />
    <linearGradient
       x1="32.251034"
       y1="6.1317081"
       x2="32.251034"
       y2="90.238609"
       id="linearGradient3772"
       xlink:href="#ButtonShadow-0"
       gradientUnits="userSpaceOnUse"
       gradientTransform="matrix(1.0238095,0,0,1.0119048,-1.1428571,-98.071429)" />
    <linearGradient
       x1="32.251034"
       y1="6.1317081"
       x2="32.251034"
       y2="90.238609"
       id="linearGradient3725"
       xlink:href="#ButtonShadow-0"
       gradientUnits="userSpaceOnUse"
       gradientTransform="matrix(1.0238095,0,0,1.0119048,-1.1428571,-98.071429)" />
    <linearGradient
       x1="32.251034"
       y1="6.1317081"
       x2="32.251034"
       y2="90.238609"
       id="linearGradient3721"
       xlink:href="#ButtonShadow-0"
       gradientUnits="userSpaceOnUse"
       gradientTransform="translate(0,-97)" />
    <linearGradient
       x1="32.251034"
       y1="6.1317081"
       x2="32.251034"
       y2="90.238609"
       id="linearGradient3026"
       xlink:href="#ButtonShadow-0"
       gradientUnits="userSpaceOnUse"
       gradientTransform="matrix(1.0238095,0,0,1.0119048,-1.1428571,-98.071429)" />
    <linearGradient
       x1="541.33502"
       y1="104.50665"
       x2="606.91248"
       y2="303.14029"
       id="linearGradient3060-4"
       xlink:href="#path1082_2_-8"
       gradientUnits="userSpaceOnUse"
       gradientTransform="matrix(-0.13677913,0,0,0.13677146,122.19582,8.5219823)" />
    <linearGradient
       x1="112.49854"
       y1="6.1372099"
       x2="112.49853"
       y2="129.3468"
       id="path1082_2_-8"
       gradientUnits="userSpaceOnUse"
       gradientTransform="translate(287,-83)">
      <stop
         id="stop193-9"
         style="stop-color:#ffffff;stop-opacity:0"
         offset="0" />
      <stop
         id="stop195-6"
         style="stop-color:#ffffff;stop-opacity:0.60465115"
         offset="1" />
      <midPointStop
         id="midPointStop197-7"
         style="stop-color:#FFFFFF"
         offset="0" />
      <midPointStop
         id="midPointStop199-4"
         style="stop-color:#FFFFFF"
         offset="0.5" />
      <midPointStop
         id="midPointStop201-8"
         style="stop-color:#000000"
         offset="1" />
    </linearGradient>
    <linearGradient
       x1="48"
       y1="90"
       x2="48"
       y2="5.9464455"
       id="linearGradient3909"
       xlink:href="#linearGradient3903"
       gradientUnits="userSpaceOnUse" />
    <radialGradient
       cx="48"
       cy="71.995491"
       r="32.993801"
       fx="48"
       fy="71.995491"
       id="radialGradient3925"
       xlink:href="#linearGradient3919"
       gradientUnits="userSpaceOnUse"
       gradientTransform="matrix(1,0,0,1.0001879,0,-0.00901697)" />
    <linearGradient
       inkscape:collect="always"
       xlink:href="#linearGradient4303"
       id="linearGradient4309"
       x1="48.537598"
       y1="52.952789"
       x2="57.467384"
       y2="41.010544"
       gradientUnits="userSpaceOnUse" />
    <linearGradient
       inkscape:collect="always"
       xlink:href="#linearGradient4303"
       id="linearGradient4345"
       gradientUnits="userSpaceOnUse"
       x1="48.537598"
       y1="52.952789"
       x2="57.467384"
       y2="41.010544" />
    <linearGradient
       inkscape:collect="always"
       xlink:href="#linearGradient4303"
       id="linearGradient4347"
       gradientUnits="userSpaceOnUse"
       x1="48.537598"
       y1="52.952789"
       x2="57.467384"
       y2="41.010544" />
    <linearGradient
       inkscape:collect="always"
       xlink:href="#linearGradient4303"
       id="linearGradient4349"
       gradientUnits="userSpaceOnUse"
       x1="48.537598"
       y1="52.952789"
       x2="57.467384"
       y2="41.010544" />
    <linearGradient
       inkscape:collect="always"
       xlink:href="#linearGradient4303"
       id="linearGradient4351"
       gradientUnits="userSpaceOnUse"
       x1="48.537598"
       y1="52.952789"
       x2="57.467384"
       y2="41.010544" />
    <linearGradient
       inkscape:collect="always"
       xlink:href="#linearGradient4303"
       id="linearGradient4353"
       gradientUnits="userSpaceOnUse"
       x1="48.537598"
       y1="52.952789"
       x2="57.467384"
       y2="41.010544" />
    <linearGradient
       inkscape:collect="always"
       xlink:href="#linearGradient4303"
       id="linearGradient4355"
       gradientUnits="userSpaceOnUse"
       x1="48.537598"
       y1="52.952789"
       x2="57.467384"
       y2="41.010544" />
    <linearGradient
       inkscape:collect="always"
       xlink:href="#linearGradient4303"
       id="linearGradient4357"
       gradientUnits="userSpaceOnUse"
       x1="48.537598"
       y1="52.952789"
       x2="57.467384"
       y2="41.010544" />
    <linearGradient
       inkscape:collect="always"
       xlink:href="#linearGradient4303"
       id="linearGradient4359"
       gradientUnits="userSpaceOnUse"
       x1="48.537598"
       y1="52.952789"
       x2="57.467384"
       y2="41.010544" />
    <linearGradient
       inkscape:collect="always"
       xlink:href="#linearGradient4303"
       id="linearGradient4361"
       gradientUnits="userSpaceOnUse"
       x1="48.537598"
       y1="52.952789"
       x2="57.467384"
       y2="41.010544" />
    <linearGradient
       inkscape:collect="always"
       xlink:href="#linearGradient4303"
       id="linearGradient4363"
       gradientUnits="userSpaceOnUse"
       x1="48.537598"
       y1="52.952789"
       x2="57.467384"
       y2="41.010544" />
    <linearGradient
       inkscape:collect="always"
       xlink:href="#linearGradient4303"
       id="linearGradient4365"
       gradientUnits="userSpaceOnUse"
       x1="48.537598"
       y1="52.952789"
       x2="57.467384"
       y2="41.010544" />
    <linearGradient
       inkscape:collect="always"
       xlink:href="#linearGradient4303"
       id="linearGradient4367"
       gradientUnits="userSpaceOnUse"
       x1="48.537598"
       y1="52.952789"
       x2="57.467384"
       y2="41.010544" />
    <linearGradient
       inkscape:collect="always"
       xlink:href="#linearGradient4303"
       id="linearGradient4369"
       gradientUnits="userSpaceOnUse"
       x1="48.537598"
       y1="52.952789"
       x2="57.467384"
       y2="41.010544" />
    <linearGradient
       inkscape:collect="always"
       xlink:href="#linearGradient4303"
       id="linearGradient4371"
       gradientUnits="userSpaceOnUse"
       x1="48.537598"
       y1="52.952789"
       x2="57.467384"
       y2="41.010544" />
    <linearGradient
       inkscape:collect="always"
       xlink:href="#linearGradient4303"
       id="linearGradient4373"
       gradientUnits="userSpaceOnUse"
       x1="48.537598"
       y1="52.952789"
       x2="57.467384"
       y2="41.010544" />
    <linearGradient
       inkscape:collect="always"
       xlink:href="#linearGradient4303"
       id="linearGradient4375"
       gradientUnits="userSpaceOnUse"
       x1="48.537598"
       y1="52.952789"
       x2="57.467384"
       y2="41.010544" />
    <linearGradient
       inkscape:collect="always"
       xlink:href="#linearGradient4423"
       id="linearGradient4377"
       gradientUnits="userSpaceOnUse"
       x1="48.537598"
       y1="52.952789"
       x2="57.467384"
       y2="41.010544" />
    <linearGradient
       inkscape:collect="always"
       xlink:href="#linearGradient4303"
       id="linearGradient4393"
       gradientUnits="userSpaceOnUse"
       x1="48.537598"
       y1="52.952789"
       x2="57.467384"
       y2="41.010544"
       gradientTransform="matrix(1.8904544,0,0,1.8904544,-45.385235,-49.867548)" />
    <linearGradient
       inkscape:collect="always"
       xlink:href="#linearGradient4303"
       id="linearGradient4396"
       gradientUnits="userSpaceOnUse"
       x1="48.537598"
       y1="52.952789"
       x2="57.467384"
       y2="41.010544"
       gradientTransform="matrix(1.8904544,0,0,1.8904544,-45.385235,-49.867548)" />
    <linearGradient
       inkscape:collect="always"
       xlink:href="#linearGradient4303"
       id="linearGradient4399"
       gradientUnits="userSpaceOnUse"
       x1="48.537598"
       y1="52.952789"
       x2="57.467384"
       y2="41.010544"
       gradientTransform="matrix(1.8904544,0,0,1.8904544,-45.385235,-49.867548)" />
    <linearGradient
       inkscape:collect="always"
       xlink:href="#linearGradient4303"
       id="linearGradient4402"
       gradientUnits="userSpaceOnUse"
       x1="48.537598"
       y1="52.952789"
       x2="57.467384"
       y2="41.010544"
       gradientTransform="matrix(1.8904544,0,0,1.8904544,-45.385235,-49.867548)" />
    <radialGradient
       inkscape:collect="always"
       xlink:href="#linearGradient4303"
       id="radialGradient4548"
       cx="46.796875"
       cy="48.359375"
       fx="46.796875"
       fy="48.359375"
       r="30.015625"
       gradientTransform="matrix(1.3276066,2.5923995e-8,-2.5488343e-8,1.3052962,-15.330963,-14.763935)"
       gradientUnits="userSpaceOnUse" />
  </defs>
  <metadata
     id="metadata2413">
    <rdf:RDF>
      <cc:Work
         rdf:about="">
        <dc:format>image/svg+xml</dc:format>
        <dc:type
           rdf:resource="http://purl.org/dc/dcmitype/StillImage" />
        <dc:title />
      </cc:Work>
    </rdf:RDF>
  </metadata>
  <g
     id="layer2"
     style="display:none">
    <rect
       width="86"
       height="85"
       rx="6"
       ry="6"
       x="5"
       y="7"
       id="rect3745"
       style="opacity:0.9;fill:url(#ButtonShadow);fill-opacity:1;fill-rule:nonzero;stroke:none;filter:url(#filter3174)" />
  </g>
  <g
     id="layer3">
    <path
       d="m 12,-95.03125 c -5.5110903,0 -10.03125,4.52016 -10.03125,10.03125 l 0,71 c 0,5.5110902 4.5201598,10.03125 10.03125,10.03125 l 72,0 c 5.51109,0 10.03125,-4.5201597 10.03125,-10.03125 l 0,-71 c 0,-5.51109 -4.52016,-10.03125 -10.03125,-10.03125 l -72,0 z"
       transform="scale(1,-1)"
       id="path3786"
       style="opacity:0.07999998;fill:url(#linearGradient3026);fill-opacity:1;fill-rule:nonzero;stroke:none;display:inline" />
    <path
       d="m 12,-94.03125 c -4.971633,0 -9.03125,4.059617 -9.03125,9.03125 l 0,71 c 0,4.9716329 4.0596171,9.03125 9.03125,9.03125 l 72,0 c 4.971633,0 9.03125,-4.059617 9.03125,-9.03125 l 0,-71 c 0,-4.971633 -4.059617,-9.03125 -9.03125,-9.03125 l -72,0 z"
       transform="scale(1,-1)"
       id="path3778"
       style="opacity:0.1;fill:url(#linearGradient3780);fill-opacity:1;fill-rule:nonzero;stroke:none;display:inline" />
    <path
       d="m 12,-93 c -4.4091333,0 -8,3.590867 -8,8 l 0,71 c 0,4.4091333 3.5908667,8 8,8 l 72,0 c 4.409133,0 8,-3.5908667 8,-8 l 0,-71 c 0,-4.409133 -3.590867,-8 -8,-8 l -72,0 z"
       transform="scale(1,-1)"
       id="path3770"
       style="opacity:0.2;fill:url(#linearGradient3772);fill-opacity:1;fill-rule:nonzero;stroke:none;display:inline" />
    <rect
       width="86"
       height="85"
       rx="7"
       ry="7"
       x="5"
       y="-92"
       transform="scale(1,-1)"
       id="rect3723"
       style="opacity:0.3;fill:url(#linearGradient3725);fill-opacity:1;fill-rule:nonzero;stroke:none;display:inline" />
    <rect
       width="84"
       height="84"
       rx="6"
       ry="6"
       x="6"
       y="-91"
       transform="scale(1,-1)"
       id="rect3716"
       style="opacity:0.45;fill:url(#linearGradient3721);fill-opacity:1;fill-rule:nonzero;stroke:none;display:inline" />
  </g>
  <g
     id="layer1">
    <rect
       width="84"
       height="84"
       rx="6"
       ry="6"
       x="6"
       y="6"
       id="rect2419"
       style="fill:url(#linearGradient3909);fill-opacity:1.0;fill-rule:nonzero;stroke:none" />
    <path
       d="M 12,6 C 8.676,6 6,8.676 6,12 l 0,2 0,68 0,2 c 0,0.334721 0.04135,0.6507 0.09375,0.96875 0.0487,0.295596 0.09704,0.596915 0.1875,0.875 0.00988,0.03038 0.020892,0.0636 0.03125,0.09375 0.098865,0.287771 0.2348802,0.547452 0.375,0.8125 0.1445918,0.273507 0.3156161,0.535615 0.5,0.78125 0.1843839,0.245635 0.3737765,0.473472 0.59375,0.6875 0.439947,0.428056 0.94291,0.814526 1.5,1.09375 0.278545,0.139612 0.5734731,0.246947 0.875,0.34375 -0.2562018,-0.100222 -0.4867109,-0.236272 -0.71875,-0.375 -0.00741,-0.0044 -0.023866,0.0045 -0.03125,0 -0.031933,-0.0193 -0.062293,-0.04251 -0.09375,-0.0625 -0.120395,-0.0767 -0.2310226,-0.163513 -0.34375,-0.25 -0.1061728,-0.0808 -0.2132809,-0.161112 -0.3125,-0.25 C 8.4783201,88.557317 8.3087904,88.373362 8.15625,88.1875 8.0486711,88.057245 7.9378561,87.922215 7.84375,87.78125 7.818661,87.74287 7.805304,87.69538 7.78125,87.65625 7.716487,87.553218 7.6510225,87.451733 7.59375,87.34375 7.4927417,87.149044 7.3880752,86.928049 7.3125,86.71875 7.30454,86.69694 7.288911,86.6782 7.28125,86.65625 7.2494249,86.5643 7.2454455,86.469419 7.21875,86.375 7.1884177,86.268382 7.1483606,86.171969 7.125,86.0625 7.0521214,85.720988 7,85.364295 7,85 L 7,83 7,15 7,13 C 7,10.218152 9.2181517,8 12,8 l 2,0 68,0 2,0 c 2.781848,0 5,2.218152 5,5 l 0,2 0,68 0,2 c 0,0.364295 -0.05212,0.720988 -0.125,1.0625 -0.04415,0.206893 -0.08838,0.397658 -0.15625,0.59375 -0.0077,0.02195 -0.0233,0.04069 -0.03125,0.0625 -0.06274,0.173739 -0.138383,0.367449 -0.21875,0.53125 -0.04158,0.0828 -0.07904,0.169954 -0.125,0.25 -0.0546,0.09721 -0.126774,0.18835 -0.1875,0.28125 -0.09411,0.140965 -0.204921,0.275995 -0.3125,0.40625 -0.143174,0.17445 -0.303141,0.346998 -0.46875,0.5 -0.01117,0.0102 -0.01998,0.02115 -0.03125,0.03125 -0.138386,0.125556 -0.285091,0.234436 -0.4375,0.34375 -0.102571,0.07315 -0.204318,0.153364 -0.3125,0.21875 -0.0074,0.0045 -0.02384,-0.0044 -0.03125,0 -0.232039,0.138728 -0.462548,0.274778 -0.71875,0.375 0.301527,-0.0968 0.596455,-0.204138 0.875,-0.34375 0.55709,-0.279224 1.060053,-0.665694 1.5,-1.09375 0.219973,-0.214028 0.409366,-0.441865 0.59375,-0.6875 0.184384,-0.245635 0.355408,-0.507743 0.5,-0.78125 0.14012,-0.265048 0.276135,-0.524729 0.375,-0.8125 0.01041,-0.03078 0.02133,-0.06274 0.03125,-0.09375 0.09046,-0.278085 0.1388,-0.579404 0.1875,-0.875 C 89.95865,84.6507 90,84.334721 90,84 l 0,-2 0,-68 0,-2 C 90,8.676 87.324,6 84,6 L 12,6 z"
       inkscape:connector-curvature="0"
       id="rect3728"
       style="opacity:0.4;fill:url(#linearGradient3188);fill-opacity:1;fill-rule:nonzero;stroke:none" />
    <path
       d="M 12,90 C 8.676,90 6,87.324 6,84 L 6,82 6,14 6,12 c 0,-0.334721 0.04135,-0.6507 0.09375,-0.96875 0.0487,-0.295596 0.09704,-0.596915 0.1875,-0.875 C 6.29113,10.12587 6.302142,10.09265 6.3125,10.0625 6.411365,9.774729 6.5473802,9.515048 6.6875,9.25 6.8320918,8.976493 7.0031161,8.714385 7.1875,8.46875 7.3718839,8.223115 7.5612765,7.995278 7.78125,7.78125 8.221197,7.353194 8.72416,6.966724 9.28125,6.6875 9.559795,6.547888 9.8547231,6.440553 10.15625,6.34375 9.9000482,6.443972 9.6695391,6.580022 9.4375,6.71875 c -0.00741,0.0044 -0.023866,-0.0045 -0.03125,0 -0.031933,0.0193 -0.062293,0.04251 -0.09375,0.0625 -0.120395,0.0767 -0.2310226,0.163513 -0.34375,0.25 -0.1061728,0.0808 -0.2132809,0.161112 -0.3125,0.25 C 8.4783201,7.442683 8.3087904,7.626638 8.15625,7.8125 8.0486711,7.942755 7.9378561,8.077785 7.84375,8.21875 7.818661,8.25713 7.805304,8.30462 7.78125,8.34375 7.716487,8.446782 7.6510225,8.548267 7.59375,8.65625 7.4927417,8.850956 7.3880752,9.071951 7.3125,9.28125 7.30454,9.30306 7.288911,9.3218 7.28125,9.34375 7.2494249,9.4357 7.2454455,9.530581 7.21875,9.625 7.1884177,9.731618 7.1483606,9.828031 7.125,9.9375 7.0521214,10.279012 7,10.635705 7,11 l 0,2 0,68 0,2 c 0,2.781848 2.2181517,5 5,5 l 2,0 68,0 2,0 c 2.781848,0 5,-2.218152 5,-5 l 0,-2 0,-68 0,-2 C 89,10.635705 88.94788,10.279012 88.875,9.9375 88.83085,9.730607 88.78662,9.539842 88.71875,9.34375 88.71105,9.3218 88.69545,9.30306 88.6875,9.28125 88.62476,9.107511 88.549117,8.913801 88.46875,8.75 88.42717,8.6672 88.38971,8.580046 88.34375,8.5 88.28915,8.40279 88.216976,8.31165 88.15625,8.21875 88.06214,8.077785 87.951329,7.942755 87.84375,7.8125 87.700576,7.63805 87.540609,7.465502 87.375,7.3125 87.36383,7.3023 87.35502,7.29135 87.34375,7.28125 87.205364,7.155694 87.058659,7.046814 86.90625,6.9375 86.803679,6.86435 86.701932,6.784136 86.59375,6.71875 c -0.0074,-0.0045 -0.02384,0.0044 -0.03125,0 -0.232039,-0.138728 -0.462548,-0.274778 -0.71875,-0.375 0.301527,0.0968 0.596455,0.204138 0.875,0.34375 0.55709,0.279224 1.060053,0.665694 1.5,1.09375 0.219973,0.214028 0.409366,0.441865 0.59375,0.6875 0.184384,0.245635 0.355408,0.507743 0.5,0.78125 0.14012,0.265048 0.276135,0.524729 0.375,0.8125 0.01041,0.03078 0.02133,0.06274 0.03125,0.09375 0.09046,0.278085 0.1388,0.579404 0.1875,0.875 C 89.95865,11.3493 90,11.665279 90,12 l 0,2 0,68 0,2 c 0,3.324 -2.676,6 -6,6 l -72,0 z"
       inkscape:connector-curvature="0"
       id="path3615"
       style="opacity:0.2;fill:url(#radialGradient3619);fill-opacity:1;fill-rule:nonzero;stroke:none" />
  </g>
  <g
     id="layer5">
    <rect
       width="66"
       height="66"
       rx="12"
       ry="12"
       x="15"
       y="15"
       clip-path="url(#clipPath3613)"
       id="rect3171"
       style="opacity:0.1;fill:url(#linearGradient3613);fill-opacity:1;fill-rule:nonzero;stroke:#ffffff;stroke-width:0.5;stroke-linecap:round;stroke-linejoin:miter;stroke-miterlimit:4;stroke-opacity:1;stroke-dasharray:none;stroke-dashoffset:0;filter:url(#filter3794)" />
  </g>
  <g
     transform="matrix(1.3398312,0,0,1.3398312,-15.739022,-16.591713)"
     id="g3854"
     style="fill:#474747;fill-opacity:0.68897639;stroke:none">
    <path
       inkscape:connector-curvature="0"
       style="fill:#474747;fill-opacity:0.68897639;stroke:none"
       d="m 40.9375,20 1.71875,10 1.65625,5.59375 0,7.75 c -0.521196,0.233942 -1.033568,0.547106 -1.46875,0.90625 l -8.5,-22.34375 -1.21875,13.3125 9.09375,9.625 c -0.341508,0.371721 -0.629221,0.804732 -0.875,1.25 L 32.5,35.78125 19.125,35.59375 41.0625,46.6875 c -0.06336,0.151714 -0.135858,0.311334 -0.1875,0.46875 l -11.5625,-3.96875 -4.03125,-0.28125 -8,11.125 10,-1.71875 5.59375,-1.625 7.875,0 c 0.106176,0.421892 0.251577,0.835201 0.4375,1.21875 l -21.75,8.75 13.3125,0.9375 8.96875,-8.78125 c 0.284891,0.400615 0.600622,0.769646 0.96875,1.09375 L 33.34375,62.25 33.40625,75.59375 43.5625,54.53125 c 0.304815,0.188904 0.632439,0.364192 0.96875,0.5 l -3.3125,9.6875 -0.28125,4.03125 11.15625,7.96875 -1.75,-10 -1.625,-5.5625 0,-5.9375 c 0.525552,-0.157114 1.010132,-0.376261 1.46875,-0.65625 l 10.25,20.9375 -0.03125,-13.34375 -9.34375,-8.25 c 0.364491,-0.31854 0.685002,-0.669113 0.96875,-1.0625 L 61,61.53125 74.3125,60.5 52.59375,51.90625 c 0.250009,-0.514342 0.458912,-1.075713 0.5625,-1.65625 l 11.125,3.125 4.0625,0.28125 L 76.3125,42.5 l -10,1.75 -5.5625,1.625 -8.4375,0 c -0.0073,-0.01204 -0.02389,-0.01926 -0.03125,-0.03125 l 21.625,-10.53125 -13.375,0 -8.6875,9.84375 C 51.530798,44.766531 51.176451,44.431313 50.78125,44.125 l 9.15625,-9.40625 -1.03125,-13.3125 -8.84375,22.25 C 49.537113,43.351052 48.982056,43.144693 48.375,43 L 51.8125,32.03125 52.09375,28 40.9375,20 z"
       id="path3856" />
    <g
       transform="matrix(1.8904544,0,0,1.8904544,-45.385235,-49.867548)"
       id="g3858"
       style="fill:#474747;fill-opacity:0.68897639;stroke:none" />
    <g
       transform="matrix(0.17056846,-1.8827438,1.8827438,0.17056846,-61.248582,133.04128)"
       id="g3860"
       style="fill:#474747;fill-opacity:0.68897639;stroke:none" />
    <g
       id="g3862"
       transform="matrix(-1.8857134,-0.13380133,0.13380133,-1.8857134,132.40008,154.05802)"
       style="fill:#474747;fill-opacity:0.68897639;stroke:none" />
    <g
       transform="matrix(0.00225904,1.8904531,-1.8904531,0.00225904,145.45769,-43.880305)"
       id="g3864"
       style="fill:#474747;fill-opacity:0.68897639;stroke:none" />
  </g>
  <g
     transform="matrix(1.2667829,0,0,1.2667829,-12.320593,-13.059147)"
     id="g3842"
     style="fill:#474747;fill-opacity:1;stroke:none;stroke-opacity:0.81496066000000000;stroke-width:0.76335101000000005;stroke-miterlimit:4;stroke-dasharray:none;stroke-linejoin:bevel">
    <path
       inkscape:connector-curvature="0"
       style="fill:#474747;fill-opacity:1;stroke:none;stroke-opacity:0.81496066000000000;stroke-width:0.76335101000000005;stroke-miterlimit:4;stroke-dasharray:none;stroke-linejoin:bevel"
       d="m 40.9375,20 1.71875,10 1.65625,5.59375 0,7.75 c -0.521196,0.233942 -1.033568,0.547106 -1.46875,0.90625 l -8.5,-22.34375 -1.21875,13.3125 9.09375,9.625 c -0.341508,0.371721 -0.629221,0.804732 -0.875,1.25 L 32.5,35.78125 19.125,35.59375 41.0625,46.6875 c -0.06336,0.151714 -0.135858,0.311334 -0.1875,0.46875 l -11.5625,-3.96875 -4.03125,-0.28125 -8,11.125 10,-1.71875 5.59375,-1.625 7.875,0 c 0.106176,0.421892 0.251577,0.835201 0.4375,1.21875 l -21.75,8.75 13.3125,0.9375 8.96875,-8.78125 c 0.284891,0.400615 0.600622,0.769646 0.96875,1.09375 L 33.34375,62.25 33.40625,75.59375 43.5625,54.53125 c 0.304815,0.188904 0.632439,0.364192 0.96875,0.5 l -3.3125,9.6875 -0.28125,4.03125 11.15625,7.96875 -1.75,-10 -1.625,-5.5625 0,-5.9375 c 0.525552,-0.157114 1.010132,-0.376261 1.46875,-0.65625 l 10.25,20.9375 -0.03125,-13.34375 -9.34375,-8.25 c 0.364491,-0.31854 0.685002,-0.669113 0.96875,-1.0625 L 61,61.53125 74.3125,60.5 52.59375,51.90625 c 0.250009,-0.514342 0.458912,-1.075713 0.5625,-1.65625 l 11.125,3.125 4.0625,0.28125 L 76.3125,42.5 l -10,1.75 -5.5625,1.625 -8.4375,0 c -0.0073,-0.01204 -0.02389,-0.01926 -0.03125,-0.03125 l 21.625,-10.53125 -13.375,0 -8.6875,9.84375 C 51.530798,44.766531 51.176451,44.431313 50.78125,44.125 l 9.15625,-9.40625 -1.03125,-13.3125 -8.84375,22.25 C 49.537113,43.351052 48.982056,43.144693 48.375,43 L 51.8125,32.03125 52.09375,28 40.9375,20 z"
       id="path3844" />
    <g
       transform="matrix(1.8904544,0,0,1.8904544,-45.385235,-49.867548)"
       id="g3846"
       style="fill:#474747;fill-opacity:1;stroke:none;stroke-opacity:0.81496066000000000;stroke-width:0.40379234000000003;stroke-miterlimit:4;stroke-dasharray:none;stroke-linejoin:bevel" />
    <g
       transform="matrix(0.17056846,-1.8827438,1.8827438,0.17056846,-61.248582,133.04128)"
       id="g3848"
       style="fill:#474747;fill-opacity:1;stroke:none;stroke-opacity:0.81496066000000000;stroke-width:0.40379234000000003;stroke-miterlimit:4;stroke-dasharray:none;stroke-linejoin:bevel" />
    <g
       id="g3850"
       transform="matrix(-1.8857134,-0.13380133,0.13380133,-1.8857134,132.40008,154.05802)"
       style="fill:#474747;fill-opacity:1;stroke:none;stroke-opacity:0.81496066000000000;stroke-width:0.40379234000000003;stroke-miterlimit:4;stroke-dasharray:none;stroke-linejoin:bevel" />
    <g
       transform="matrix(0.00225904,1.8904531,-1.8904531,0.00225904,145.45769,-43.880305)"
       id="g3852"
       style="fill:#474747;fill-opacity:1;stroke:none;stroke-opacity:0.81496066000000000;stroke-width:0.40379232999999998;stroke-miterlimit:4;stroke-dasharray:none;stroke-linejoin:bevel" />
  </g>
  <g
     style="fill:#474747;fill-opacity:0.68897639;stroke:none"
     id="g4528"
     transform="matrix(1.305742,0,0,1.305742,-14.143755,-14.943182)">
    <path
       id="path4530"
       d="m 40.9375,20 1.71875,10 1.65625,5.59375 0,7.75 c -0.521196,0.233942 -1.033568,0.547106 -1.46875,0.90625 l -8.5,-22.34375 -1.21875,13.3125 9.09375,9.625 c -0.341508,0.371721 -0.629221,0.804732 -0.875,1.25 L 32.5,35.78125 19.125,35.59375 41.0625,46.6875 c -0.06336,0.151714 -0.135858,0.311334 -0.1875,0.46875 l -11.5625,-3.96875 -4.03125,-0.28125 -8,11.125 10,-1.71875 5.59375,-1.625 7.875,0 c 0.106176,0.421892 0.251577,0.835201 0.4375,1.21875 l -21.75,8.75 13.3125,0.9375 8.96875,-8.78125 c 0.284891,0.400615 0.600622,0.769646 0.96875,1.09375 L 33.34375,62.25 33.40625,75.59375 43.5625,54.53125 c 0.304815,0.188904 0.632439,0.364192 0.96875,0.5 l -3.3125,9.6875 -0.28125,4.03125 11.15625,7.96875 -1.75,-10 -1.625,-5.5625 0,-5.9375 c 0.525552,-0.157114 1.010132,-0.376261 1.46875,-0.65625 l 10.25,20.9375 -0.03125,-13.34375 -9.34375,-8.25 c 0.364491,-0.31854 0.685002,-0.669113 0.96875,-1.0625 L 61,61.53125 74.3125,60.5 52.59375,51.90625 c 0.250009,-0.514342 0.458912,-1.075713 0.5625,-1.65625 l 11.125,3.125 4.0625,0.28125 L 76.3125,42.5 l -10,1.75 -5.5625,1.625 -8.4375,0 c -0.0073,-0.01204 -0.02389,-0.01926 -0.03125,-0.03125 l 21.625,-10.53125 -13.375,0 -8.6875,9.84375 C 51.530798,44.766531 51.176451,44.431313 50.78125,44.125 l 9.15625,-9.40625 -1.03125,-13.3125 -8.84375,22.25 C 49.537113,43.351052 48.982056,43.144693 48.375,43 L 51.8125,32.03125 52.09375,28 40.9375,20 z"
       style="fill:#474747;fill-opacity:0.68897639;stroke:none"
       inkscape:connector-curvature="0" />
    <g
       style="fill:#474747;fill-opacity:0.68897639;stroke:none"
       id="g4532"
       transform="matrix(1.8904544,0,0,1.8904544,-45.385235,-49.867548)" />
    <g
       style="fill:#474747;fill-opacity:0.68897639;stroke:none"
       id="g4534"
       transform="matrix(0.17056846,-1.8827438,1.8827438,0.17056846,-61.248582,133.04128)" />
    <g
       style="fill:#474747;fill-opacity:0.68897639;stroke:none"
       transform="matrix(-1.8857134,-0.13380133,0.13380133,-1.8857134,132.40008,154.05802)"
       id="g4536" />
    <g
       style="fill:#474747;fill-opacity:0.68897639;stroke:none"
       id="g4538"
       transform="matrix(0.00225904,1.8904531,-1.8904531,0.00225904,145.45769,-43.880305)" />
  </g>
  <g
     id="g4404"
     style="fill:url(#radialGradient4548);fill-opacity:1;stroke-width:0.90788911999999999;stroke-miterlimit:4;stroke-dasharray:none;stroke:none"
     transform="matrix(1.2116017,0,0,1.2116017,-9.9370063,-10.199561)">
    <path
       style="fill:url(#radialGradient4548);fill-opacity:1;stroke:none;stroke-opacity:0.25196849999999998;stroke-width:0.90788911999999999;stroke-miterlimit:4;stroke-dasharray:none"
       d="m 40.9375,20 1.71875,10 1.65625,5.59375 0,7.75 c -0.521196,0.233942 -1.033568,0.547106 -1.46875,0.90625 l -8.5,-22.34375 -1.21875,13.3125 9.09375,9.625 c -0.341508,0.371721 -0.629221,0.804732 -0.875,1.25 L 32.5,35.78125 19.125,35.59375 41.0625,46.6875 c -0.06336,0.151714 -0.135858,0.311334 -0.1875,0.46875 l -11.5625,-3.96875 -4.03125,-0.28125 -8,11.125 10,-1.71875 5.59375,-1.625 7.875,0 c 0.106176,0.421892 0.251577,0.835201 0.4375,1.21875 l -21.75,8.75 13.3125,0.9375 8.96875,-8.78125 c 0.284891,0.400615 0.600622,0.769646 0.96875,1.09375 L 33.34375,62.25 33.40625,75.59375 43.5625,54.53125 c 0.304815,0.188904 0.632439,0.364192 0.96875,0.5 l -3.3125,9.6875 -0.28125,4.03125 11.15625,7.96875 -1.75,-10 -1.625,-5.5625 0,-5.9375 c 0.525552,-0.157114 1.010132,-0.376261 1.46875,-0.65625 l 10.25,20.9375 -0.03125,-13.34375 -9.34375,-8.25 c 0.364491,-0.31854 0.685002,-0.669113 0.96875,-1.0625 L 61,61.53125 74.3125,60.5 52.59375,51.90625 c 0.250009,-0.514342 0.458912,-1.075713 0.5625,-1.65625 l 11.125,3.125 4.0625,0.28125 L 76.3125,42.5 l -10,1.75 -5.5625,1.625 -8.4375,0 c -0.0073,-0.01204 -0.02389,-0.01926 -0.03125,-0.03125 l 21.625,-10.53125 -13.375,0 -8.6875,9.84375 C 51.530798,44.766531 51.176451,44.431313 50.78125,44.125 l 9.15625,-9.40625 -1.03125,-13.3125 -8.84375,22.25 C 49.537113,43.351052 48.982056,43.144693 48.375,43 L 51.8125,32.03125 52.09375,28 40.9375,20 z"
       id="path4248"
       inkscape:connector-curvature="0" />
    <g
       transform="matrix(1.8904544,0,0,1.8904544,-45.385235,-49.867548)"
       id="g4260"
       style="fill:url(#radialGradient4548);fill-opacity:1;stroke-width:0.48024915000000001;stroke-miterlimit:4;stroke-dasharray:none;stroke:none" />
    <g
       transform="matrix(0.17056846,-1.8827438,1.8827438,0.17056846,-61.248582,133.04128)"
       id="g4264"
       style="fill:url(#radialGradient4548);fill-opacity:1;stroke-width:0.48024915000000001;stroke-miterlimit:4;stroke-dasharray:none;stroke:none" />
    <g
       id="g4270"
       transform="matrix(-1.8857134,-0.13380133,0.13380133,-1.8857134,132.40008,154.05802)"
       style="fill:url(#radialGradient4548);fill-opacity:1;stroke-width:0.48024915000000001;stroke-miterlimit:4;stroke-dasharray:none;stroke:none" />
    <g
       transform="matrix(0.00225904,1.8904531,-1.8904531,0.00225904,145.45769,-43.880305)"
       id="g4276"
       style="fill:url(#radialGradient4548);fill-opacity:1;stroke-width:0.48024914000000002;stroke-miterlimit:4;stroke-dasharray:none;stroke:none" />
  </g>
</svg>
