<?xml version="1.0" encoding="UTF-8" standalone="no"?>
<!-- Created with Inkscape (http://www.inkscape.org/) -->

<svg
   xmlns:dc="http://purl.org/dc/elements/1.1/"
   xmlns:cc="http://creativecommons.org/ns#"
   xmlns:rdf="http://www.w3.org/1999/02/22-rdf-syntax-ns#"
   xmlns:svg="http://www.w3.org/2000/svg"
   xmlns="http://www.w3.org/2000/svg"
   xmlns:xlink="http://www.w3.org/1999/xlink"
   xmlns:inkscape="http://www.inkscape.org/namespaces/inkscape"
   version="1.0"
   width="96"
   height="96"
   id="svg2408">
  <defs
     id="defs2410">
    <linearGradient
       id="linearGradient3894">
      <stop
         id="stop3901"
         style="stop-color:#c75026;stop-opacity:1"
         offset="0" />
      <stop
         id="stop3905"
         style="stop-color:#eb9d48;stop-opacity:1"
         offset="1" />
    </linearGradient>
    <linearGradient
       id="linearGradient3885">
      <stop
         id="stop3887"
         style="stop-color:#eb7731;stop-opacity:1"
         offset="0" />
      <stop
         id="stop3889"
         style="stop-color:#e59343;stop-opacity:1"
         offset="0.5" />
      <stop
         id="stop3891"
         style="stop-color:#e5b66b;stop-opacity:1"
         offset="1" />
    </linearGradient>
    <linearGradient
       id="linearGradient3874">
      <stop
         id="stop3876"
         style="stop-color:#ffa32d;stop-opacity:1"
         offset="0" />
      <stop
         id="stop3878"
         style="stop-color:#ffe4c1;stop-opacity:0"
         offset="1" />
    </linearGradient>
    <linearGradient
       x1="11.794092"
       y1="3.2126782"
       x2="11.794092"
       y2="20.137329"
       id="linearGradient3317"
       gradientUnits="userSpaceOnUse"
       gradientTransform="scale(1.0598527,0.9435274)">
      <stop
         id="stop3319"
         style="stop-color:#c6953a;stop-opacity:1"
         offset="0" />
      <stop
         id="stop3321"
         style="stop-color:#ab7a1f;stop-opacity:1"
         offset="1" />
    </linearGradient>
    <linearGradient
       x1="48.035713"
       y1="25.910715"
       x2="48.035713"
       y2="85.821426"
       id="linearGradient3361"
       xlink:href="#linearGradient3317"
       gradientUnits="userSpaceOnUse" />
    <linearGradient
       x1="45.447727"
       y1="80.471962"
       x2="45.447727"
       y2="7.0165396"
       id="ButtonShadow"
       gradientUnits="userSpaceOnUse"
       gradientTransform="matrix(1.0058652,0,0,0.994169,0,12)">
      <stop
         id="stop3750"
         style="stop-color:#000000;stop-opacity:1"
         offset="0" />
      <stop
         id="stop3752"
         style="stop-color:#000000;stop-opacity:0.58823532"
         offset="1" />
    </linearGradient>
    <linearGradient
       x1="48"
       y1="78"
       x2="48"
       y2="5.9877172"
       id="linearGradient3706"
       xlink:href="#linearGradient3885"
       gradientUnits="userSpaceOnUse"
       gradientTransform="translate(0,8)" />
    <filter
       color-interpolation-filters="sRGB"
       id="filter3174">
      <feGaussianBlur
         id="feGaussianBlur3176"
         stdDeviation="1.71" />
    </filter>
    <linearGradient
       x1="45.447727"
       y1="80.471962"
       x2="45.447727"
       y2="5.297224"
       id="linearGradient3664"
       xlink:href="#ButtonShadow"
       gradientUnits="userSpaceOnUse"
       gradientTransform="matrix(1.0058652,0,0,0.994169,0,12)" />
    <clipPath
       id="clipPath3860">
      <rect
         width="84"
         height="72"
         rx="6"
         ry="6"
         x="6"
         y="18"
         id="rect3862"
         style="fill:#ff00ff;fill-opacity:1;fill-rule:nonzero;stroke:none" />
    </clipPath>
    <filter
       x="-0.16558799"
       y="-0.19715989"
       width="1.331176"
       height="1.3943198"
       color-interpolation-filters="sRGB"
       id="filter3870">
      <feGaussianBlur
         id="feGaussianBlur3872"
         stdDeviation="5.1703125" />
    </filter>
    <linearGradient
       id="linearGradient3892">
      <stop
         id="stop3894"
         style="stop-color:#000000;stop-opacity:0.58823532"
         offset="0" />
      <stop
         id="stop3896"
         style="stop-color:#000000;stop-opacity:0.47058824"
         offset="0.11780351" />
      <stop
         id="stop3898"
         style="stop-color:#000000;stop-opacity:0.39215687"
         offset="0.23809524" />
      <stop
         id="stop3900"
         style="stop-color:#000000;stop-opacity:0.3137255"
         offset="1" />
    </linearGradient>
    <linearGradient
       id="linearGradient4384">
      <stop
         id="stop4386"
         style="stop-color:#ffffff;stop-opacity:1"
         offset="0" />
      <stop
         id="stop4388"
         style="stop-color:#ffffff;stop-opacity:0"
         offset="1" />
    </linearGradient>
    <linearGradient
       x1="48"
       y1="75.08329"
       x2="48"
       y2="-40"
       id="linearGradient3094"
       xlink:href="#linearGradient4384"
       gradientUnits="userSpaceOnUse"
       gradientTransform="matrix(1,0,0,-1,0,92)" />
    <linearGradient
       x1="48.021698"
       y1="22.933374"
       x2="48.021698"
       y2="81.481377"
       id="linearGradient3123"
       xlink:href="#linearGradient3874"
       gradientUnits="userSpaceOnUse" />
    <linearGradient
       x1="37.611111"
       y1="27.111111"
       x2="37.611111"
       y2="21.555555"
       id="linearGradient3105"
       xlink:href="#linearGradient3894"
       gradientUnits="userSpaceOnUse"
       gradientTransform="matrix(0.72,0,0,0.72,1.92,-5.52)" />
    <linearGradient
       x1="43"
       y1="91"
       x2="43"
       y2="7"
       id="linearGradient3952"
       xlink:href="#ButtonShadow"
       gradientUnits="userSpaceOnUse" />
    <linearGradient
       x1="45"
       y1="92"
       x2="45"
       y2="7"
       id="linearGradient3961"
       xlink:href="#ButtonShadow"
       gradientUnits="userSpaceOnUse" />
    <linearGradient
       x1="45"
       y1="92"
       x2="45"
       y2="7"
       id="linearGradient3969"
       xlink:href="#ButtonShadow"
       gradientUnits="userSpaceOnUse" />
    <linearGradient
       x1="45"
       y1="92"
       x2="45"
       y2="7"
       id="linearGradient3977"
       xlink:href="#ButtonShadow"
       gradientUnits="userSpaceOnUse" />
    <linearGradient
       x1="45"
       y1="92"
       x2="45"
       y2="7"
       id="linearGradient3986"
       xlink:href="#ButtonShadow"
       gradientUnits="userSpaceOnUse" />
    <linearGradient
       x1="90"
       y1="88"
       x2="48"
       y2="88"
       id="linearGradient3906"
       xlink:href="#linearGradient3892"
       gradientUnits="userSpaceOnUse"
       gradientTransform="translate(0,10)"
       spreadMethod="reflect" />
    <linearGradient
       id="linearGradient3877">
      <stop
         id="stop3879"
         style="stop-color:#da682a;stop-opacity:0.78431374"
         offset="0" />
      <stop
         id="stop3883"
         style="stop-color:#da682a;stop-opacity:0.39215687"
         offset="1" />
    </linearGradient>
    <linearGradient
       x1="51.551208"
       y1="75.56765"
       x2="51.551208"
       y2="31.732052"
       id="linearGradient4208"
       xlink:href="#linearGradient3877"
       gradientUnits="userSpaceOnUse"
       gradientTransform="translate(0,-4)" />
    <linearGradient
       x1="51.551208"
       y1="75.56765"
       x2="51.551208"
       y2="31.732052"
       id="linearGradient4195"
       xlink:href="#linearGradient3877"
       gradientUnits="userSpaceOnUse"
       gradientTransform="translate(0,-4)" />
    <linearGradient
       x1="51.551208"
       y1="75.56765"
       x2="51.551208"
       y2="31.732052"
       id="linearGradient4221"
       xlink:href="#linearGradient3877"
       gradientUnits="userSpaceOnUse"
       gradientTransform="translate(0,-4)" />
    <linearGradient
       x1="51.551208"
       y1="75.56765"
       x2="51.551208"
       y2="31.732052"
       id="linearGradient3116"
       xlink:href="#linearGradient3877"
       gradientUnits="userSpaceOnUse"
       gradientTransform="translate(0,-4)" />
  </defs>
  <metadata
     id="metadata2413">
    <rdf:RDF>
      <cc:Work
         rdf:about="">
        <dc:format>image/svg+xml</dc:format>
        <dc:type
           rdf:resource="http://purl.org/dc/dcmitype/StillImage" />
        <dc:title />
      </cc:Work>
    </rdf:RDF>
  </metadata>
  <g
     id="layer2"
     style="display:none">
    <path
       d="M 14.96875,8.8028918 C 13.32891,8.8028918 12,10.085142 12,11.677892 L 12,19 c -3.324,0 -7,2.676 -7,6 l 0,61 c 0,3.324 2.676,6 6,6 l 74,0 c 3.324,0 6,-2.676 6,-6 l 0,-61 c 0,-3.324 -3.74743,-6 -7.07143,-6 l 0,-0.134608 c 0,-2.389125 -1.97774,-4.3125 -4.4375,-4.3125 l -43.33482,0 -1.46875,-2.875 C 33.95414,10.253293 33.35859,8.8028918 31.71875,8.8028918 l -16.75,0 z"
       inkscape:connector-curvature="0"
       id="rect3745"
       style="opacity:0.9;fill:url(#linearGradient3664);fill-opacity:1;fill-rule:nonzero;stroke:none;filter:url(#filter3174)" />
  </g>
  <g
     id="layer4"
     style="display:inline">
    <path
       d="M 14.125,4 C 9.6910704,4 6,7.568413 6,12 l 0,2.15625 C 3.6235961,15.958367 2,18.759045 2,22 l 0,63 c 0,5.503629 4.496371,10 10,10 l 72,0 c 5.503629,0 10,-4.496371 10,-10 L 94,22 C 94,18.516601 92.146607,15.546894 89.46875,13.78125 88.481551,10.491738 85.526024,8 81.875,8 l -39.5,0 C 40.972352,6.645177 39.835329,5.4903784 38.6875,4.84375 37.192287,4.0014231 35.756649,4.0295412 34.875,4 a 0.92780092,0.92780092 0 0 0 -0.03125,0 c -0.0012,-1.73e-5 -0.03009,-1.73e-5 -0.03125,0 L 34.78125,4 14.125,4 z"
       id="path3984"
       style="opacity:0.07999998;fill:url(#linearGradient3986);fill-opacity:1;fill-rule:nonzero;stroke:none;display:inline" />
    <path
       d="M 14.125,4.9375 C 10.184407,4.9375 6.9375,8.0807925 6.9375,12 l 0,2.59375 c -2.3826099,1.622076 -4,4.293928 -4,7.40625 l 0,63 c 0,5.001444 4.0610559,9.0625 9.0625,9.0625 l 72,0 c 5.001444,0 9.0625,-4.061056 9.0625,-9.0625 l 0,-63 c 0,-3.260846 -1.77319,-6.039741 -4.34375,-7.625 C 87.957559,11.279325 85.241489,8.9375 81.875,8.9375 l -39.8125,0 C 40.465021,7.3963057 39.290438,6.2599842 38.21875,5.65625 36.945571,4.9390059 35.771277,4.9685784 34.84375,4.9375 a 1.043776,1.043776 0 0 0 -0.03125,0 c -10e-7,0 -0.03125,0 -0.03125,0 l -20.65625,0 z"
       id="path3975"
       style="opacity:0.1;fill:url(#linearGradient3977);fill-opacity:1;fill-rule:nonzero;stroke:none;display:inline" />
    <path
       d="M 14.125,5.96875 C 10.736326,5.96875 7.96875,8.6567706 7.96875,12 l 0,3.125 c -2.3751432,1.394016 -4,3.920462 -4,6.875 l 0,63 c 0,4.438141 3.5931086,8.03125 8.03125,8.03125 l 72,0 c 4.438141,0 8.03125,-3.593109 8.03125,-8.03125 l 0,-63 c 0,-3.031992 -1.712245,-5.604362 -4.1875,-6.96875 -0.491893,-2.85962 -2.928643,-5.0625 -5.96875,-5.0625 l -40.1875,0 C 39.852667,8.1939079 38.678863,7.1033787 37.71875,6.5625 36.681475,5.9781523 35.778304,6.0011109 34.8125,5.96875 a 1.043776,1.043776 0 0 0 -0.03125,0 l -20.65625,0 z"
       id="path3967"
       style="opacity:0.2;fill:url(#linearGradient3969);fill-opacity:1;fill-rule:nonzero;stroke:none;display:inline" />
    <path
       d="M 14.125,7 C 11.282105,7 9,9.23 9,12 l 0,3.6875 C 6.6359408,16.808884 5,19.200342 5,22 l 0,63 c 0,3.878 3.122,7 7,7 l 72,0 c 3.878,0 7,-3.122 7,-7 L 91,22 C 91,19.190264 89.346632,16.803629 86.96875,15.6875 86.799101,13.069075 84.606585,11 81.875,11 l -40.59375,0 c -4.220528,-4.1123102 -4.502768,-3.9330794 -6.5,-4 L 14.125,7 z"
       inkscape:connector-curvature="0"
       id="path3908-1"
       style="opacity:0.3;fill:url(#linearGradient3961);fill-opacity:1;fill-rule:nonzero;stroke:none;display:inline" />
    <path
       d="m 15,7 c -2.77,0 -5,2.23 -5,5 l 0,3.34375 C 7.6664933,16.164656 6,18.378887 6,21 l 0,64 c 0,3.324 2.676,6 6,6 l 72,0 c 3.324,0 6,-2.676 6,-6 L 90,21 C 90,18.358112 88.300137,16.148775 85.9375,15.34375 85.611464,12.893448 83.542274,11 81,11 L 40.46875,11 C 36.35644,6.8876898 36.102271,7.0669206 34.15625,7 L 15,7 z"
       inkscape:connector-curvature="0"
       id="path3941"
       style="opacity:0.45;fill:url(#linearGradient3952);fill-opacity:1;fill-rule:nonzero;stroke:none;display:inline" />
  </g>
  <g
     id="layer3"
     style="display:inline">
    <rect
       width="75"
       height="62.678574"
       rx="6"
       ry="6"
       x="10.535714"
       y="23.142857"
       id="rect3352"
       style="fill:url(#linearGradient3361);fill-opacity:1;fill-rule:nonzero;stroke:none;display:inline" />
    <path
       d="m 15,6 c -2.77,0 -5,2.23 -5,5 l 0,59.8125 c 0,2.39328 1.91922,4.3125 4.3125,4.3125 l 67.375,0 C 84.08078,75.125 86,73.20578 86,70.8125 L 86,15 c 0,-2.77 -2.23,-5 -5,-5 L 40.46875,10 C 36.35644,5.8876898 36.102271,6.0669206 34.15625,6 z"
       inkscape:connector-curvature="0"
       id="path3908"
       style="fill:url(#linearGradient3105);fill-opacity:1;fill-rule:nonzero;stroke:none;display:inline" />
    <path
       d="m 15,6 c -2.77,0 -5,2.23 -5,5 l 0,59.8125 c 0,2.39328 1.91922,4.3125 4.3125,4.3125 l 67.375,0 C 84.08078,75.125 86,73.20578 86,70.8125 L 86,15 c 0,-2.77 -2.23,-5 -5,-5 L 40.46875,10 C 36.35644,5.8876898 36.102271,6.0669206 34.15625,6 L 15,6 z m 0,1.03125 19.125,0 0.03125,0 c 0.964976,0.031157 1.192535,-0.016972 1.8125,0.34375 0.630289,0.366729 1.706808,1.3318077 3.75,3.375 a 1.043776,1.043776 0 0 0 0.75,0.28125 l 40.53125,0 c 2.209859,0 3.96875,1.758891 3.96875,3.96875 l 0,55.8125 c 0,1.835319 -1.445931,3.28125 -3.28125,3.28125 l -67.375,0 c -1.835319,0 -3.28125,-1.445931 -3.28125,-3.28125 l 0,-59.8125 c 0,-2.2098586 1.758891,-3.96875 3.96875,-3.96875 z"
       inkscape:connector-curvature="0"
       id="path3108"
       style="opacity:0.2;fill:#ffffff;fill-opacity:1;fill-rule:nonzero;stroke:none;display:inline" />
  </g>
  <g
     id="layer1"
     style="display:inline">
    <rect
       width="84"
       height="76"
       rx="6"
       ry="6"
       x="6"
       y="14"
       id="rect2419"
       style="fill:url(#linearGradient3706);fill-opacity:1;fill-rule:nonzero;stroke:none" />
    <path
       d="M 12,86 C 8.676,86 6,83.324 6,80 L 6,20 c 0,-3.324 2.676,-6 6,-6 l 72,0 c 3.324,0 6,2.676 6,6 l 0,60 c 0,3.324 -2.676,6 -6,6 z m 0,-0.96875 72,0 c 2.80489,0 5.03125,-2.22636 5.03125,-5.03125 l 0,-60 c 0,-2.80489 -2.22636,-5.03125 -5.03125,-5.03125 l -72,0 c -2.8048898,0 -5.03125,2.22636 -5.03125,5.03125 l 0,60 c 0,2.80489 2.2263602,5.03125 5.03125,5.03125 z"
       inkscape:connector-curvature="0"
       id="rect4377"
       style="opacity:0.35;fill:url(#linearGradient3094);fill-opacity:1;fill-rule:nonzero;stroke:none" />
    <path
       d="m 6,78 0,2 c 0,3.324 2.676,6 6,6 l 72,0 c 3.324,0 6,-2.676 6,-6 l 0,-2 c 0,3.324 -2.676,6 -6,6 L 12,84 C 8.676,84 6,81.324 6,78 z"
       inkscape:connector-curvature="0"
       id="rect3841"
       style="opacity:0.1;fill:#ffffff;fill-opacity:1;fill-rule:nonzero;stroke:none" />
  </g>
  <g
     id="layer7">
    <path
       d="m 6,80 0,4 c 0,3.324 2.676,6 6,6 l 72,0 c 3.324,0 6,-2.676 6,-6 l 0,-4 c 0,3.324 -2.676,6 -6,6 L 12,86 C 8.676,86 6,83.324 6,80 z"
       inkscape:connector-curvature="0"
       id="path3067"
       style="opacity:0.8;fill:#ce4f16;fill-opacity:1;fill-rule:nonzero;stroke:none;display:inline" />
    <g
       transform="translate(0,-10)"
       id="g3901">
      <path
         d="m 6,90 0,4 c 0,3.324 2.676,6 6,6 l 72,0 c 3.324,0 6,-2.676 6,-6 l 0,-4 c 0,3.324 -2.676,6 -6,6 L 12,96 C 8.676,96 6,93.324 6,90 z"
         inkscape:connector-curvature="0"
         id="path3888"
         style="opacity:0.5;fill:url(#linearGradient3906);fill-opacity:1;fill-rule:nonzero;stroke:none;display:inline" />
      <path
         d="m 6,92 0,2 c 0,3.324 2.676,6 6,6 l 72,0 c 3.324,0 6,-2.676 6,-6 l 0,-2 c 0,3.324 -2.676,6 -6,6 L 12,98 C 8.676,98 6,95.324 6,92 z"
         inkscape:connector-curvature="0"
         id="rect4345"
         style="opacity:0.1;color:#000000;fill:#000000;fill-opacity:1;fill-rule:nonzero;stroke:none;stroke-width:1.5;marker:none;visibility:visible;display:inline;overflow:visible;enable-background:accumulate" />
      <path
         d="m 6,93 0,1 c 0,3.324 2.676,6 6,6 l 72,0 c 3.324,0 6,-2.676 6,-6 l 0,-1 c 0,3.324 -2.676,6 -6,6 L 12,99 C 8.676,99 6,96.324 6,93 z"
         inkscape:connector-curvature="0"
         id="rect4336"
         style="opacity:0.15;color:#000000;fill:#000000;fill-opacity:1;fill-rule:nonzero;stroke:none;stroke-width:1.5;marker:none;visibility:visible;display:inline;overflow:visible;enable-background:accumulate" />
    </g>
  </g>
  <g
     id="layer5"
     style="display:inline">
    <path
       d="m 15.96875,22.53125 c -2.845903,0.0043 -5.433244,2.591597 -5.4375,5.4375 l 0,48.0625 c 0.0043,2.845903 2.591597,5.433244 5.4375,5.4375 l 64.0625,0 c 2.845903,-0.0043 5.433244,-2.591597 5.4375,-5.4375 l 0,-48.0625 c -0.0043,-2.845903 -2.591597,-5.433244 -5.4375,-5.4375 z"
       inkscape:connector-curvature="0"
       transform="translate(0,-4)"
       clip-path="url(#clipPath3860)"
       id="path3850"
       style="opacity:0.3;fill:url(#linearGradient3123);fill-opacity:1;fill-rule:nonzero;stroke:none;filter:url(#filter3870)" />
  </g>
  <g
     id="layer6">
    <path
       d="M 38.34375,26 A 2.0041028,2.0041028 0 0 0 37.5,26.28125 l -14.40625,8.750001 a 2.0041028,2.0041028 0 0 0 -0.25,3.249999 l 7.84375,6.625 -7.96875,6.4375 a 2.0041028,2.0041028 0 0 0 0.15625,3.25 l 9.1875,5.875 A 2.0041028,2.0041028 0 0 0 32,60.9375 l 0,1.25 a 2.0041028,2.0041028 0 0 0 0.84375,1.65625 l 14.0625,9.8125 a 2.0041028,2.0041028 0 0 0 2.28125,0 l 14.25,-9.8125 a 2.0041028,2.0041028 0 0 0 0.875,-1.65625 l 0,-1.40625 a 2.0041028,2.0041028 0 0 0 -0.0625,-0.5 l 8.875,-5.6875 a 2.0041028,2.0041028 0 0 0 0.15625,-3.25 L 65.4375,45 73.28125,38.3125 A 2.0041028,2.0041028 0 0 0 73,35.062501 L 58.625,26.34375 a 2.0041028,2.0041028 0 0 0 -2.34375,0.1875 l -8.1875,7.062501 -8.25,-7.125001 A 2.0041028,2.0041028 0 0 0 38.34375,26 z m 0.1875,2.000001 9.5625,8.249999 9.5,-8.187499 14.375,8.718749 -9.6875,8.25 9.75,7.875 L 57.75,62.03125 48,53.75 38.25,62.03125 23.96875,52.90625 33.78125,45 48,53.75 62.1875,45.03125 48,36.28125 33.875,45 24.125,36.75 38.53125,28.000001 z M 48,38.65625 58.34375,45.03125 48,51.375 37.6875,45.03125 48,38.65625 z m 0,16.75 9.75,8.28125 4.5625,-2.90625 0,1.40625 L 48.0625,72 34,62.1875 l 0,-1.25 4.25,2.75 9.75,-8.28125 z"
       inkscape:connector-curvature="0"
       id="path4250"
       style="opacity:0.05;fill:#ffffff;fill-opacity:1;stroke:none;display:inline" />
    <path
       d="M 38.4375,27.000001 A 1.0001,1.0001 0 0 0 38,27.156251 l -14.40625,8.75 A 1.0001,1.0001 0 0 0 23.46875,37.5 L 32.25,44.9375 23.34375,52.125 a 1.0001,1.0001 0 0 0 0.09375,1.625 l 9.96875,6.375 A 1.0001,1.0001 0 0 0 33,60.9375 l 0,1.25 A 1.0001,1.0001 0 0 0 33.4375,63 L 47.5,72.8125 a 1.0001,1.0001 0 0 0 1.125,0 L 62.875,63 a 1.0001,1.0001 0 0 0 0.4375,-0.8125 l 0,-1.40625 A 1.0001,1.0001 0 0 0 62.875,59.9375 L 72.5625,53.75 a 1.0001,1.0001 0 0 0 0.09375,-1.625 L 63.84375,45 72.625,37.53125 A 1.0001,1.0001 0 0 0 72.5,35.937501 l -14.375,-8.71875 a 1.0001,1.0001 0 0 0 -1.1875,0.09375 l -8.84375,7.625 -8.90625,-7.6875 a 1.0001,1.0001 0 0 0 -0.75,-0.25 z m 0.09375,1 9.5625,8.249999 9.5,-8.187499 14.375,8.718749 -9.6875,8.25 9.75,7.875 L 57.75,62.03125 48,53.75 38.25,62.03125 23.96875,52.90625 33.78125,45 48,53.75 62.1875,45.03125 48,36.28125 33.875,45 24.125,36.75 38.53125,28.000001 z M 48,37.4375 60.28125,45.03125 48,52.59375 35.71875,45.03125 48,37.4375 z m 0,17.96875 9.75,8.28125 4.5625,-2.90625 0,1.40625 L 48.0625,72 34,62.1875 l 0,-1.25 4.25,2.75 9.75,-8.28125 z"
       inkscape:connector-curvature="0"
       id="path4239"
       style="opacity:0.1;fill:#ffffff;fill-opacity:1;stroke:none;display:inline" />
    <path
       d="m 38.524647,27.998909 -14.388983,8.758511 9.749057,8.237171 14.128314,-8.706377 14.18045,8.732444 -14.18045,8.732444 9.74906,8.263238 14.28471,-9.123449 -9.77512,-7.872233 9.69692,-8.237171 -14.38898,-8.732444 -9.48839,8.185037 -9.566588,-8.237171 z m -4.744194,16.995682 -9.827258,7.8983 14.310782,9.123449 9.722988,-8.263238 -14.206512,-8.758511 z m 14.206512,10.426799 -9.722988,8.263238 -4.274988,-2.737035 0,1.251216 L 48.065165,72 l 14.23258,-9.801191 0,-1.407618 -4.53565,2.893437 -9.77513,-8.263238 z"
       inkscape:connector-curvature="0"
       id="path3700"
       style="opacity:0.9;fill:url(#linearGradient3116);fill-opacity:1;stroke:none;display:inline" />
    <path
       d="M 38.53125,28.000001 24.125,36.75 33.875,45 48,36.28125 62.1875,45.03125 48,53.75 l 9.75,8.28125 14.28125,-9.125 -9.75,-7.875 9.6875,-8.25 -14.375,-8.718749 -9.5,8.187499 -9.5625,-8.249999 z M 48,53.75 33.78125,45 23.96875,52.90625 38.25,62.03125 48,53.75 z M 38.375,29.937501 45.4375,36.03125 34,43.0625 26.78125,36.96875 38.375,29.937501 z M 57.75,30.000001 69.3125,37 62.125,43.125 50.6875,36.09375 57.75,30.000001 z m -23.84375,16.906249 11.4375,7.0625 -7.21875,6.125 -11.5,-7.34375 7.28125,-5.84375 z m 28.21875,0 7.25,5.84375 -11.5,7.34375 -7.21875,-6.125 11.46875,-7.0625 z m -14.125,8.5 -9.75,8.28125 -4.25,-2.75 0,1.25 14.0625,9.8125 14.25,-9.8125 0,-1.40625 L 57.75,63.6875 48,55.40625 z m 0,2.03125 8.28125,7.03125 -8.1875,5.625 -8.25,-5.71875 L 48,57.4375 z"
       inkscape:connector-curvature="0"
       id="path4211"
       style="opacity:0.25;fill:url(#linearGradient4221);fill-opacity:1;stroke:none;display:inline" />
    <path
       d="M 38.53125,28.000001 24.125,36.75 l 0.6875,0.59375 13.71875,-8.343749 8.875,7.656249 0.59375,-0.375 0.71875,0.4375 8.875,-7.656249 13.6875,8.312499 0.6875,-0.59375 -14.375,-8.718749 -9.5,8.187499 -9.5625,-8.249999 z m -5.3125,17.437499 -9.25,7.46875 0.6875,0.4375 L 33.78125,46 47.3125,54.34375 48,53.75 34.625,45.53125 33.875,46 33.21875,45.4375 z M 48,53.75 l 0.6875,0.59375 13.5,-8.3125 -0.8125,-0.5 L 48,53.75 z m 14.875,-8.21875 -0.59375,0.5 9.0625,7.3125 0.6875,-0.4375 -9.15625,-7.375 z M 48,55.40625 38.25,63.6875 34,60.9375 l 0,1 4.25,2.75 9.75,-8.28125 9.75,8.28125 4.5625,-2.90625 0,-1 L 57.75,63.6875 48,55.40625 z"
       inkscape:connector-curvature="0"
       id="path4189"
       style="fill:url(#linearGradient4195);fill-opacity:1;stroke:none;display:inline" />
    <path
       d="M 38.53125,28.000001 24.125,36.75 33.875,45 48,36.28125 62.1875,45.03125 48,53.75 l 9.75,8.28125 14.28125,-9.125 -9.75,-7.875 9.6875,-8.25 -14.375,-8.718749 -9.5,8.187499 -9.5625,-8.249999 z M 48,53.75 33.78125,45 23.96875,52.90625 38.25,62.03125 48,53.75 z M 38.4375,28.968751 46.71875,36.125 33.9375,44.03125 25.46875,36.875 38.4375,28.968751 z m 19.25,0.0625 12.9375,7.874999 -8.46875,7.1875 L 49.375,36.1875 57.6875,29.031251 z m -23.84375,16.937499 12.8125,7.90625 -8.46875,7.1875 -12.875,-8.21875 8.53125,-6.875 z m 28.34375,0 8.5,6.875 L 57.8125,61.0625 49.34375,53.875 62.1875,45.96875 z M 48,55.40625 38.25,63.6875 34,60.9375 l 0,1.25 14.0625,9.8125 14.25,-9.8125 0,-1.40625 L 57.75,63.6875 48,55.40625 z m 0,1.03125 9.25,7.84375 a 0.79620765,0.79620765 0 0 0 0.34375,0.1875 l -9.5,6.5625 -9.53125,-6.625 a 0.79620765,0.79620765 0 0 0 0.1875,-0.125 L 48,56.4375 z"
       inkscape:connector-curvature="0"
       id="path4198"
       style="opacity:0.5;fill:url(#linearGradient4208);fill-opacity:1;stroke:none;display:inline" />
    <path
       d="M 47.40625,36.65625 33.875,45 24.8125,37.34375 24.125,37.75 33.21875,45.4375 33.78125,45 34.625,45.53125 48,37.28125 l 13.375,8.25 0.8125,-0.5 -13.46875,-8.3125 -0.625,0.53125 -0.6875,-0.59375 z m 23.875,0.71875 -9,7.65625 0.59375,0.5 9.09375,-7.75 -0.6875,-0.40625 z m -46.625,15.96875 -0.6875,0.5625 L 38.25,63.03125 48,54.75 47.3125,54.34375 38.25,62.03125 24.65625,53.34375 z M 48,54.75 l 9.75,8.28125 14.28125,-9.125 -0.6875,-0.5625 L 57.75,62.03125 48.6875,54.34375 48,54.75 z m -14,7.4375 0,1 14.0625,9.8125 14.25,-9.8125 0,-1 L 48.0625,72 34,62.1875 z"
       inkscape:connector-curvature="0"
       id="path4224"
       style="opacity:0.2;fill:#ffffff;fill-opacity:1;stroke:none;display:inline" />
  </g>
</svg>
