<?xml version="1.0" encoding="UTF-8" standalone="no"?>
<!-- Created with Inkscape (http://www.inkscape.org/) -->

<svg
   xmlns:dc="http://purl.org/dc/elements/1.1/"
   xmlns:cc="http://creativecommons.org/ns#"
   xmlns:rdf="http://www.w3.org/1999/02/22-rdf-syntax-ns#"
   xmlns:svg="http://www.w3.org/2000/svg"
   xmlns="http://www.w3.org/2000/svg"
   xmlns:xlink="http://www.w3.org/1999/xlink"
   xmlns:inkscape="http://www.inkscape.org/namespaces/inkscape"
   version="1.0"
   width="96"
   height="96"
   id="svg2408">
  <defs
     id="defs2410">
    <linearGradient
       id="linearGradient3894">
      <stop
         id="stop3901"
         style="stop-color:#c75026;stop-opacity:1"
         offset="0" />
      <stop
         id="stop3905"
         style="stop-color:#eb9d48;stop-opacity:1"
         offset="1" />
    </linearGradient>
    <linearGradient
       id="linearGradient3885">
      <stop
         id="stop3887"
         style="stop-color:#eb7731;stop-opacity:1"
         offset="0" />
      <stop
         id="stop3889"
         style="stop-color:#e59343;stop-opacity:1"
         offset="0.5" />
      <stop
         id="stop3891"
         style="stop-color:#e5b66b;stop-opacity:1"
         offset="1" />
    </linearGradient>
    <linearGradient
       id="linearGradient3874">
      <stop
         id="stop3876"
         style="stop-color:#ffa32d;stop-opacity:1"
         offset="0" />
      <stop
         id="stop3878"
         style="stop-color:#ffe4c1;stop-opacity:0"
         offset="1" />
    </linearGradient>
    <linearGradient
       x1="11.794092"
       y1="3.2126782"
       x2="11.794092"
       y2="20.137329"
       id="linearGradient3317"
       gradientUnits="userSpaceOnUse"
       gradientTransform="scale(1.0598527,0.9435274)">
      <stop
         id="stop3319"
         style="stop-color:#c6953a;stop-opacity:1"
         offset="0" />
      <stop
         id="stop3321"
         style="stop-color:#ab7a1f;stop-opacity:1"
         offset="1" />
    </linearGradient>
    <linearGradient
       x1="48.035713"
       y1="25.910715"
       x2="48.035713"
       y2="85.821426"
       id="linearGradient3361"
       xlink:href="#linearGradient3317"
       gradientUnits="userSpaceOnUse" />
    <linearGradient
       x1="45.447727"
       y1="80.471962"
       x2="45.447727"
       y2="7.0165396"
       id="ButtonShadow"
       gradientUnits="userSpaceOnUse"
       gradientTransform="matrix(1.0058652,0,0,0.994169,0,12)">
      <stop
         id="stop3750"
         style="stop-color:#000000;stop-opacity:1"
         offset="0" />
      <stop
         id="stop3752"
         style="stop-color:#000000;stop-opacity:0.58823532"
         offset="1" />
    </linearGradient>
    <linearGradient
       x1="48"
       y1="78"
       x2="48"
       y2="5.9877172"
       id="linearGradient3706"
       xlink:href="#linearGradient3885"
       gradientUnits="userSpaceOnUse"
       gradientTransform="translate(0,8)" />
    <filter
       color-interpolation-filters="sRGB"
       id="filter3174">
      <feGaussianBlur
         id="feGaussianBlur3176"
         stdDeviation="1.71" />
    </filter>
    <linearGradient
       x1="45.447727"
       y1="80.471962"
       x2="45.447727"
       y2="5.297224"
       id="linearGradient3664"
       xlink:href="#ButtonShadow"
       gradientUnits="userSpaceOnUse"
       gradientTransform="matrix(1.0058652,0,0,0.994169,0,12)" />
    <clipPath
       id="clipPath3860">
      <rect
         width="84"
         height="72"
         rx="6"
         ry="6"
         x="6"
         y="18"
         id="rect3862"
         style="fill:#ff00ff;fill-opacity:1;fill-rule:nonzero;stroke:none" />
    </clipPath>
    <filter
       x="-0.16558799"
       y="-0.19715989"
       width="1.331176"
       height="1.3943198"
       color-interpolation-filters="sRGB"
       id="filter3870">
      <feGaussianBlur
         id="feGaussianBlur3872"
         stdDeviation="5.1703125" />
    </filter>
    <linearGradient
       id="linearGradient3892">
      <stop
         id="stop3894"
         style="stop-color:#000000;stop-opacity:0.58823532"
         offset="0" />
      <stop
         id="stop3896"
         style="stop-color:#000000;stop-opacity:0.47058824"
         offset="0.11780351" />
      <stop
         id="stop3898"
         style="stop-color:#000000;stop-opacity:0.39215687"
         offset="0.23809524" />
      <stop
         id="stop3900"
         style="stop-color:#000000;stop-opacity:0.3137255"
         offset="1" />
    </linearGradient>
    <linearGradient
       id="linearGradient4384">
      <stop
         id="stop4386"
         style="stop-color:#ffffff;stop-opacity:1"
         offset="0" />
      <stop
         id="stop4388"
         style="stop-color:#ffffff;stop-opacity:0"
         offset="1" />
    </linearGradient>
    <linearGradient
       x1="48"
       y1="75.08329"
       x2="48"
       y2="-40"
       id="linearGradient3094"
       xlink:href="#linearGradient4384"
       gradientUnits="userSpaceOnUse"
       gradientTransform="matrix(1,0,0,-1,0,92)" />
    <linearGradient
       x1="48.021698"
       y1="22.933374"
       x2="48.021698"
       y2="81.481377"
       id="linearGradient3123"
       xlink:href="#linearGradient3874"
       gradientUnits="userSpaceOnUse" />
    <linearGradient
       x1="37.611111"
       y1="27.111111"
       x2="37.611111"
       y2="21.555555"
       id="linearGradient3105"
       xlink:href="#linearGradient3894"
       gradientUnits="userSpaceOnUse"
       gradientTransform="matrix(0.72,0,0,0.72,1.92,-5.52)" />
    <linearGradient
       x1="43"
       y1="91"
       x2="43"
       y2="7"
       id="linearGradient3952"
       xlink:href="#ButtonShadow"
       gradientUnits="userSpaceOnUse" />
    <linearGradient
       x1="45"
       y1="92"
       x2="45"
       y2="7"
       id="linearGradient3961"
       xlink:href="#ButtonShadow"
       gradientUnits="userSpaceOnUse" />
    <linearGradient
       x1="45"
       y1="92"
       x2="45"
       y2="7"
       id="linearGradient3969"
       xlink:href="#ButtonShadow"
       gradientUnits="userSpaceOnUse" />
    <linearGradient
       x1="45"
       y1="92"
       x2="45"
       y2="7"
       id="linearGradient3977"
       xlink:href="#ButtonShadow"
       gradientUnits="userSpaceOnUse" />
    <linearGradient
       x1="45"
       y1="92"
       x2="45"
       y2="7"
       id="linearGradient3986"
       xlink:href="#ButtonShadow"
       gradientUnits="userSpaceOnUse" />
    <linearGradient
       x1="90"
       y1="88"
       x2="48"
       y2="88"
       id="linearGradient3906"
       xlink:href="#linearGradient3892"
       gradientUnits="userSpaceOnUse"
       gradientTransform="translate(0,10)"
       spreadMethod="reflect" />
    <linearGradient
       id="linearGradient3877">
      <stop
         id="stop3879"
         style="stop-color:#da682a;stop-opacity:0.78431374"
         offset="0" />
      <stop
         id="stop3883"
         style="stop-color:#da682a;stop-opacity:0.39215687"
         offset="1" />
    </linearGradient>
    <linearGradient
       x1="56"
       y1="76"
       x2="56"
       y2="32"
       id="linearGradient3117"
       xlink:href="#linearGradient3877"
       gradientUnits="userSpaceOnUse"
       gradientTransform="translate(0,-3.999995)" />
    <linearGradient
       x1="56"
       y1="76"
       x2="56"
       y2="32"
       id="linearGradient4532"
       xlink:href="#linearGradient3877"
       gradientUnits="userSpaceOnUse"
       gradientTransform="translate(0,-3.999995)" />
    <linearGradient
       x1="56"
       y1="76"
       x2="56"
       y2="32"
       id="linearGradient4506"
       xlink:href="#linearGradient3877"
       gradientUnits="userSpaceOnUse"
       gradientTransform="translate(0,-3.999995)" />
    <linearGradient
       x1="56"
       y1="76"
       x2="56"
       y2="32"
       id="linearGradient4519"
       xlink:href="#linearGradient3877"
       gradientUnits="userSpaceOnUse"
       gradientTransform="translate(0,-3.999995)" />
  </defs>
  <metadata
     id="metadata2413">
    <rdf:RDF>
      <cc:Work
         rdf:about="">
        <dc:format>image/svg+xml</dc:format>
        <dc:type
           rdf:resource="http://purl.org/dc/dcmitype/StillImage" />
        <dc:title />
      </cc:Work>
    </rdf:RDF>
  </metadata>
  <g
     id="layer2"
     style="display:none">
    <path
       d="M 14.96875,8.8028918 C 13.32891,8.8028918 12,10.085142 12,11.677892 L 12,19 c -3.324,0 -7,2.676 -7,6 l 0,61 c 0,3.324 2.676,6 6,6 l 74,0 c 3.324,0 6,-2.676 6,-6 l 0,-61 c 0,-3.324 -3.74743,-6 -7.07143,-6 l 0,-0.134608 c 0,-2.389125 -1.97774,-4.3125 -4.4375,-4.3125 l -43.33482,0 -1.46875,-2.875 C 33.95414,10.253293 33.35859,8.8028918 31.71875,8.8028918 l -16.75,0 z"
       inkscape:connector-curvature="0"
       id="rect3745"
       style="opacity:0.9;fill:url(#linearGradient3664);fill-opacity:1;fill-rule:nonzero;stroke:none;filter:url(#filter3174)" />
  </g>
  <g
     id="layer4"
     style="display:inline">
    <path
       d="M 14.125,4 C 9.6910704,4 6,7.568413 6,12 l 0,2.15625 C 3.6235961,15.958367 2,18.759045 2,22 l 0,63 c 0,5.503629 4.496371,10 10,10 l 72,0 c 5.503629,0 10,-4.496371 10,-10 L 94,22 C 94,18.516601 92.146607,15.546894 89.46875,13.78125 88.481551,10.491738 85.526024,8 81.875,8 l -39.5,0 C 40.972352,6.645177 39.835329,5.4903784 38.6875,4.84375 37.192287,4.0014231 35.756649,4.0295412 34.875,4 a 0.92780092,0.92780092 0 0 0 -0.03125,0 c -0.0012,-1.73e-5 -0.03009,-1.73e-5 -0.03125,0 L 34.78125,4 14.125,4 z"
       id="path3984"
       style="opacity:0.07999998;fill:url(#linearGradient3986);fill-opacity:1;fill-rule:nonzero;stroke:none;display:inline" />
    <path
       d="M 14.125,4.9375 C 10.184407,4.9375 6.9375,8.0807925 6.9375,12 l 0,2.59375 c -2.3826099,1.622076 -4,4.293928 -4,7.40625 l 0,63 c 0,5.001444 4.0610559,9.0625 9.0625,9.0625 l 72,0 c 5.001444,0 9.0625,-4.061056 9.0625,-9.0625 l 0,-63 c 0,-3.260846 -1.77319,-6.039741 -4.34375,-7.625 C 87.957559,11.279325 85.241489,8.9375 81.875,8.9375 l -39.8125,0 C 40.465021,7.3963057 39.290438,6.2599842 38.21875,5.65625 36.945571,4.9390059 35.771277,4.9685784 34.84375,4.9375 a 1.043776,1.043776 0 0 0 -0.03125,0 c -10e-7,0 -0.03125,0 -0.03125,0 l -20.65625,0 z"
       id="path3975"
       style="opacity:0.1;fill:url(#linearGradient3977);fill-opacity:1;fill-rule:nonzero;stroke:none;display:inline" />
    <path
       d="M 14.125,5.96875 C 10.736326,5.96875 7.96875,8.6567706 7.96875,12 l 0,3.125 c -2.3751432,1.394016 -4,3.920462 -4,6.875 l 0,63 c 0,4.438141 3.5931086,8.03125 8.03125,8.03125 l 72,0 c 4.438141,0 8.03125,-3.593109 8.03125,-8.03125 l 0,-63 c 0,-3.031992 -1.712245,-5.604362 -4.1875,-6.96875 -0.491893,-2.85962 -2.928643,-5.0625 -5.96875,-5.0625 l -40.1875,0 C 39.852667,8.1939079 38.678863,7.1033787 37.71875,6.5625 36.681475,5.9781523 35.778304,6.0011109 34.8125,5.96875 a 1.043776,1.043776 0 0 0 -0.03125,0 l -20.65625,0 z"
       id="path3967"
       style="opacity:0.2;fill:url(#linearGradient3969);fill-opacity:1;fill-rule:nonzero;stroke:none;display:inline" />
    <path
       d="M 14.125,7 C 11.282105,7 9,9.23 9,12 l 0,3.6875 C 6.6359408,16.808884 5,19.200342 5,22 l 0,63 c 0,3.878 3.122,7 7,7 l 72,0 c 3.878,0 7,-3.122 7,-7 L 91,22 C 91,19.190264 89.346632,16.803629 86.96875,15.6875 86.799101,13.069075 84.606585,11 81.875,11 l -40.59375,0 c -4.220528,-4.1123102 -4.502768,-3.9330794 -6.5,-4 L 14.125,7 z"
       inkscape:connector-curvature="0"
       id="path3908-1"
       style="opacity:0.3;fill:url(#linearGradient3961);fill-opacity:1;fill-rule:nonzero;stroke:none;display:inline" />
    <path
       d="m 15,7 c -2.77,0 -5,2.23 -5,5 l 0,3.34375 C 7.6664933,16.164656 6,18.378887 6,21 l 0,64 c 0,3.324 2.676,6 6,6 l 72,0 c 3.324,0 6,-2.676 6,-6 L 90,21 C 90,18.358112 88.300137,16.148775 85.9375,15.34375 85.611464,12.893448 83.542274,11 81,11 L 40.46875,11 C 36.35644,6.8876898 36.102271,7.0669206 34.15625,7 L 15,7 z"
       inkscape:connector-curvature="0"
       id="path3941"
       style="opacity:0.45;fill:url(#linearGradient3952);fill-opacity:1;fill-rule:nonzero;stroke:none;display:inline" />
  </g>
  <g
     id="layer3"
     style="display:inline">
    <rect
       width="75"
       height="62.678574"
       rx="6"
       ry="6"
       x="10.535714"
       y="23.142857"
       id="rect3352"
       style="fill:url(#linearGradient3361);fill-opacity:1;fill-rule:nonzero;stroke:none;display:inline" />
    <path
       d="m 15,6 c -2.77,0 -5,2.23 -5,5 l 0,59.8125 c 0,2.39328 1.91922,4.3125 4.3125,4.3125 l 67.375,0 C 84.08078,75.125 86,73.20578 86,70.8125 L 86,15 c 0,-2.77 -2.23,-5 -5,-5 L 40.46875,10 C 36.35644,5.8876898 36.102271,6.0669206 34.15625,6 z"
       inkscape:connector-curvature="0"
       id="path3908"
       style="fill:url(#linearGradient3105);fill-opacity:1;fill-rule:nonzero;stroke:none;display:inline" />
    <path
       d="m 15,6 c -2.77,0 -5,2.23 -5,5 l 0,59.8125 c 0,2.39328 1.91922,4.3125 4.3125,4.3125 l 67.375,0 C 84.08078,75.125 86,73.20578 86,70.8125 L 86,15 c 0,-2.77 -2.23,-5 -5,-5 L 40.46875,10 C 36.35644,5.8876898 36.102271,6.0669206 34.15625,6 L 15,6 z m 0,1.03125 19.125,0 0.03125,0 c 0.964976,0.031157 1.192535,-0.016972 1.8125,0.34375 0.630289,0.366729 1.706808,1.3318077 3.75,3.375 a 1.043776,1.043776 0 0 0 0.75,0.28125 l 40.53125,0 c 2.209859,0 3.96875,1.758891 3.96875,3.96875 l 0,55.8125 c 0,1.835319 -1.445931,3.28125 -3.28125,3.28125 l -67.375,0 c -1.835319,0 -3.28125,-1.445931 -3.28125,-3.28125 l 0,-59.8125 c 0,-2.2098586 1.758891,-3.96875 3.96875,-3.96875 z"
       inkscape:connector-curvature="0"
       id="path3108"
       style="opacity:0.2;fill:#ffffff;fill-opacity:1;fill-rule:nonzero;stroke:none;display:inline" />
  </g>
  <g
     id="layer1"
     style="display:inline">
    <rect
       width="84"
       height="76"
       rx="6"
       ry="6"
       x="6"
       y="14"
       id="rect2419"
       style="fill:url(#linearGradient3706);fill-opacity:1;fill-rule:nonzero;stroke:none" />
    <path
       d="M 12,86 C 8.676,86 6,83.324 6,80 L 6,20 c 0,-3.324 2.676,-6 6,-6 l 72,0 c 3.324,0 6,2.676 6,6 l 0,60 c 0,3.324 -2.676,6 -6,6 z m 0,-0.96875 72,0 c 2.80489,0 5.03125,-2.22636 5.03125,-5.03125 l 0,-60 c 0,-2.80489 -2.22636,-5.03125 -5.03125,-5.03125 l -72,0 c -2.8048898,0 -5.03125,2.22636 -5.03125,5.03125 l 0,60 c 0,2.80489 2.2263602,5.03125 5.03125,5.03125 z"
       inkscape:connector-curvature="0"
       id="rect4377"
       style="opacity:0.35;fill:url(#linearGradient3094);fill-opacity:1;fill-rule:nonzero;stroke:none" />
    <path
       d="m 6,78 0,2 c 0,3.324 2.676,6 6,6 l 72,0 c 3.324,0 6,-2.676 6,-6 l 0,-2 c 0,3.324 -2.676,6 -6,6 L 12,84 C 8.676,84 6,81.324 6,78 z"
       inkscape:connector-curvature="0"
       id="rect3841"
       style="opacity:0.1;fill:#ffffff;fill-opacity:1;fill-rule:nonzero;stroke:none" />
  </g>
  <g
     id="layer7">
    <path
       d="m 6,80 0,4 c 0,3.324 2.676,6 6,6 l 72,0 c 3.324,0 6,-2.676 6,-6 l 0,-4 c 0,3.324 -2.676,6 -6,6 L 12,86 C 8.676,86 6,83.324 6,80 z"
       inkscape:connector-curvature="0"
       id="path3067"
       style="opacity:0.8;fill:#ce4f16;fill-opacity:1;fill-rule:nonzero;stroke:none;display:inline" />
    <g
       transform="translate(0,-10)"
       id="g3901">
      <path
         d="m 6,90 0,4 c 0,3.324 2.676,6 6,6 l 72,0 c 3.324,0 6,-2.676 6,-6 l 0,-4 c 0,3.324 -2.676,6 -6,6 L 12,96 C 8.676,96 6,93.324 6,90 z"
         inkscape:connector-curvature="0"
         id="path3888"
         style="opacity:0.5;fill:url(#linearGradient3906);fill-opacity:1;fill-rule:nonzero;stroke:none;display:inline" />
      <path
         d="m 6,92 0,2 c 0,3.324 2.676,6 6,6 l 72,0 c 3.324,0 6,-2.676 6,-6 l 0,-2 c 0,3.324 -2.676,6 -6,6 L 12,98 C 8.676,98 6,95.324 6,92 z"
         inkscape:connector-curvature="0"
         id="rect4345"
         style="opacity:0.1;color:#000000;fill:#000000;fill-opacity:1;fill-rule:nonzero;stroke:none;stroke-width:1.5;marker:none;visibility:visible;display:inline;overflow:visible;enable-background:accumulate" />
      <path
         d="m 6,93 0,1 c 0,3.324 2.676,6 6,6 l 72,0 c 3.324,0 6,-2.676 6,-6 l 0,-1 c 0,3.324 -2.676,6 -6,6 L 12,99 C 8.676,99 6,96.324 6,93 z"
         inkscape:connector-curvature="0"
         id="rect4336"
         style="opacity:0.15;color:#000000;fill:#000000;fill-opacity:1;fill-rule:nonzero;stroke:none;stroke-width:1.5;marker:none;visibility:visible;display:inline;overflow:visible;enable-background:accumulate" />
    </g>
  </g>
  <g
     id="layer5"
     style="display:inline">
    <path
       d="m 15.96875,22.53125 c -2.845903,0.0043 -5.433244,2.591597 -5.4375,5.4375 l 0,48.0625 c 0.0043,2.845903 2.591597,5.433244 5.4375,5.4375 l 64.0625,0 c 2.845903,-0.0043 5.433244,-2.591597 5.4375,-5.4375 l 0,-48.0625 c -0.0043,-2.845903 -2.591597,-5.433244 -5.4375,-5.4375 z"
       inkscape:connector-curvature="0"
       transform="translate(0,-4)"
       clip-path="url(#clipPath3860)"
       id="path3850"
       style="opacity:0.3;fill:url(#linearGradient3123);fill-opacity:1;fill-rule:nonzero;stroke:none;filter:url(#filter3870)" />
  </g>
  <g
     id="layer6">
    <path
       d="m 48,25.96875 c -12.551157,0 -22.762661,9.715452 -23.8125,22 l -2.1875,0 a 2.0273462,2.0273462 0 0 0 -1.75,3.0625 l 3.5,6 3.5,6 a 2.0273462,2.0273462 0 0 0 3.5,0 l 3.5,-6 3.5,-6 A 2.0273462,2.0273462 0 0 0 36,47.96875 l -1.75,0 c 0.804894,-5.498998 4.749798,-9.911644 10,-11.375 C 44.081297,37.034205 43.96875,37.505906 43.96875,38 l 0,11.34375 0.0625,0 c -0.154893,1.010711 0.03287,2.022143 0.59375,2.84375 l -0.03125,0 c 0.02105,0.03266 0.01066,0.03264 0.03125,0.0625 0.01338,0.01941 0.01812,0.01299 0.03125,0.03125 0.224262,0.311734 0.459639,0.52214 0.5,0.5625 l 7.0625,7.09375 c 1.256134,1.256128 3.297504,1.630512 4.84375,0.625 -2.44285,2.097277 -5.575584,3.40625 -9.0625,3.40625 -2.551941,0 -4.906021,-0.679804 -6.96875,-1.875 a 2.0273462,2.0273462 0 0 0 -2.78125,0.75 l -3,5.21875 a 2.0273462,2.0273462 0 0 0 0.75,2.75 c 3.534217,2.042709 7.635234,3.21875 12,3.21875 C 61.245811,74.03125 72.03125,63.245811 72.03125,50 72.03125,36.754189 61.245811,25.96875 48,25.96875 z M 48,28 c 12.15026,0 22,9.84974 22,22 0,12.15026 -9.84974,22 -22,22 -4.00428,0 -7.76567,-1.06812 -11,-2.9375 l 3,-5.21875 C 42.35563,65.20866 45.08161,66 48,66 56.83656,66 64,58.83656 64,50 64,41.16344 56.83656,34 48,34 39.16344,34 32,41.16344 32,50 l 4,0 -3.5,6 -3.5,6 -3.5,-6 -3.5,-6 4,0 C 26,37.84974 35.84974,28 48,28 z m 0,8 c 1.108,0 2,0.892 2,2 l 0,11.1875 6.5,6.46875 c 0.783474,0.78347 0.886572,1.92593 0.25,2.5625 L 56.21875,58.75 c -0.636572,0.63657 -1.779026,0.53347 -2.5625,-0.25 l -7.0625,-7.09375 C 46.493589,51.30609 46.3896,51.21338 46.3125,51.09375 45.91094,50.53301 45.801394,49.87808 46,49.34375 L 46,38 c 0,-1.108 0.892,-2 2,-2 z m 3.75,0.59375 C 57.641086,38.235736 61.96875,43.571266 61.96875,50 c 0,3.486916 -1.308973,6.61965 -3.40625,9.0625 1.00552,-1.546248 0.631142,-3.587614 -0.625,-4.84375 l -5.90625,-5.875 0,-10.34375 c 0,-0.494094 -0.112547,-0.965795 -0.28125,-1.40625 z"
       inkscape:connector-curvature="0"
       id="path4561"
       style="opacity:0.05;color:#000000;fill:#ffffff;fill-opacity:1;stroke:none;stroke-width:1.5;marker:none;visibility:visible;display:inline;overflow:visible;enable-background:accumulate" />
    <path
       d="M 48,27 C 35.65203,27 25.62992,36.782808 25.09375,49 L 22,49 a 1.0001,1.0001 0 0 0 -0.875,1.5 l 3.5,6 3.5,6 a 1.0001,1.0001 0 0 0 1.75,0 l 3.5,-6 3.5,-6 A 1.0001,1.0001 0 0 0 36,49 l -2.90625,0 C 33.615046,41.179769 40.045662,35 48,35 c 8.29612,0 15,6.70388 15,15 0,8.29612 -6.70388,15 -15,15 -2.737619,0 -5.28886,-0.750061 -7.5,-2.03125 a 1.0001,1.0001 0 0 0 -1.375,0.375 l -3,5.21875 a 1.0001,1.0001 0 0 0 0.375,1.375 C 39.882266,71.892384 43.81789,73 48,73 60.690701,73 71,62.690701 71,50 71,37.309299 60.690701,27 48,27 z m 0,8 c -1.644703,0 -3,1.355297 -3,3 l 0,11.34375 0.03125,0 c -0.171612,0.779464 -0.02883,1.600668 0.4375,2.28125 0.01815,0.02817 0.01325,0.03712 0.03125,0.0625 0.152013,0.214303 0.309174,0.371675 0.375,0.4375 l 7.0625,7.09375 c 1.096156,1.096151 2.902238,1.347758 4,0.25 l 0.53125,-0.53125 c 1.097764,-1.097761 0.846161,-2.903845 -0.25,-4 L 51,48.75 51,38 c 0,-1.644703 -1.355297,-3 -3,-3 z m 0,-7 c 12.15026,0 22,9.84974 22,22 0,12.15026 -9.84974,22 -22,22 -4.00428,0 -7.76567,-1.06812 -11,-2.9375 l 3,-5.21875 C 42.35563,65.20866 45.08161,66 48,66 56.83656,66 64,58.83656 64,50 64,41.16344 56.83656,34 48,34 39.16344,34 32,41.16344 32,50 l 4,0 -3.5,6 -3.5,6 -3.5,-6 -3.5,-6 4,0 C 26,37.84974 35.84974,28 48,28 z m 0,8 c 1.108,0 2,0.892 2,2 l 0,11.1875 6.5,6.46875 c 0.783474,0.78347 0.886572,1.92593 0.25,2.5625 L 56.21875,58.75 c -0.636572,0.63657 -1.779026,0.53347 -2.5625,-0.25 l -7.0625,-7.09375 C 46.493589,51.30609 46.3896,51.21338 46.3125,51.09375 45.91094,50.53301 45.801394,49.87808 46,49.34375 L 46,38 c 0,-1.108 0.892,-2 2,-2 z"
       inkscape:connector-curvature="0"
       id="path4550"
       style="opacity:0.1;color:#000000;fill:#ffffff;fill-opacity:1;stroke:none;stroke-width:1.5;marker:none;visibility:visible;display:inline;overflow:visible;enable-background:accumulate" />
    <path
       d="M 48,28.000005 C 35.84974,28.000005 26,37.84974 26,50 l -4,0 3.5,6 3.5,6 3.5,-6 3.5,-6 -4,0 c 0,-8.83656 7.16344,-16 16,-16 8.83656,0 16,7.16344 16,16 0,8.83656 -7.16344,16 -16,16 -2.91839,0 -5.64437,-0.79134 -8,-2.15625 L 37,69.0625 C 40.23433,70.93188 43.99572,72 48,72 60.15026,72 70,62.15026 70,50 70,37.84974 60.15026,28.000005 48,28.000005 z M 48,36 c -1.108,0 -2,0.892 -2,2 l 0,11.34375 c -0.198606,0.53433 -0.08906,1.18926 0.3125,1.75 0.0771,0.11963 0.181089,0.21234 0.28125,0.3125 L 53.65625,58.5 c 0.783474,0.78347 1.925928,0.88657 2.5625,0.25 L 56.75,58.21875 c 0.636572,-0.63657 0.533474,-1.77903 -0.25,-2.5625 L 50,49.1875 50,38 c 0,-1.108 -0.892,-2 -2,-2 z"
       inkscape:connector-curvature="0"
       id="path4090"
       style="opacity:0.9;color:#000000;fill:url(#linearGradient3117);fill-opacity:1;stroke:none;stroke-width:1.5;marker:none;visibility:visible;display:inline;overflow:visible;enable-background:accumulate" />
    <path
       d="M 48,28 C 35.84974,28 26,37.84974 26,50 l -4,0 3.5,6 3.5,6 3.5,-6 3.5,-6 -4,0 c 0,-8.83656 7.16344,-16 16,-16 8.83656,0 16,7.16344 16,16 0,8.83656 -7.16344,16 -16,16 -2.91839,0 -5.64437,-0.79134 -8,-2.15625 L 37,69.0625 C 40.23433,70.93188 43.99572,72 48,72 60.15026,72 70,62.15026 70,50 70,37.84974 60.15026,28 48,28 z m 0,1.96875 c 11.081222,0 20.03125,8.950028 20.03125,20.03125 0,11.081222 -8.950028,20.03125 -20.03125,20.03125 -2.937295,0 -5.648554,-0.775871 -8.15625,-1.90625 L 40.875,66.34375 c 2.202319,0.967434 4.56655,1.625 7.125,1.625 9.905596,0 17.96875,-8.063154 17.96875,-17.96875 C 65.96875,40.094404 57.905596,32.03125 48,32.03125 38.094404,32.03125 30.03125,40.094404 30.03125,50 A 1.9782833,1.9782833 0 0 0 32,51.96875 l 0.5625,0 L 30.78125,55 29,58.0625 27.21875,55 25.4375,51.96875 l 0.5625,0 A 1.9782833,1.9782833 0 0 0 27.96875,50 C 27.96875,38.918778 36.918778,29.96875 48,29.96875 z M 48,36 c -1.108,0 -2,0.892 -2,2 l 0,11.34375 c -0.198606,0.53433 -0.08906,1.18926 0.3125,1.75 0.0771,0.11963 0.181089,0.21234 0.28125,0.3125 L 53.65625,58.5 c 0.783474,0.78347 1.925928,0.88657 2.5625,0.25 L 56.75,58.21875 c 0.636572,-0.63657 0.533474,-1.77903 -0.25,-2.5625 L 50,49.1875 50,38 c 0,-1.108 -0.892,-2 -2,-2 z m 0,1.96875 c 0.04636,0 0.03125,-0.01511 0.03125,0.03125 l 0,11.1875 a 1.9782833,1.9782833 0 0 0 0.4375,1.25 L 48,50 c -0.07633,-0.07633 -0.122576,-0.0994 -0.125,-0.09375 -0.0018,-0.0057 -9.64e-4,-0.03679 0,-0.03125 a 1.9782833,1.9782833 0 0 0 0.09375,-0.53125 l 0,-11.34375 c 0,-0.04636 -0.01511,-0.03125 0.03125,-0.03125 z m 0.59375,12.625 6.5,6.46875 -0.03125,0.03125 -6.46875,-6.5 z"
       inkscape:connector-curvature="0"
       id="path4522"
       style="opacity:0.25;color:#000000;fill:url(#linearGradient4532);fill-opacity:1;stroke:none;stroke-width:1.5;marker:none;visibility:visible;display:inline;overflow:visible;enable-background:accumulate" />
    <path
       d="M 48,28 C 35.84974,28 26,37.84974 26,50 l -4,0 0.59375,1 L 26,51 C 26,38.84974 35.84974,29 48,29 59.981636,29 69.731835,38.582765 70,50.5 70.0038,50.332283 70,50.168624 70,50 70,37.84974 60.15026,28 48,28 z m 0,8 c -1.108,0 -2,0.892 -2,2 l 0,1 c 0,-1.108 0.892,-2 2,-2 1.108,0 2,0.892 2,2 l 0,-1 c 0,-1.108 -0.892,-2 -2,-2 z m 2,13.1875 0,1 6.5,6.46875 c 0.293803,0.293801 0.49443,0.650842 0.59375,1 0.202832,-0.626595 -0.0061,-1.412397 -0.59375,-2 L 50,49.1875 z m -4,0.15625 c -0.12085,0.325135 -0.103707,0.696451 0,1.0625 0.0064,-0.01982 -0.0073,-0.04299 0,-0.0625 l 0,-1 z M 32.0625,50 C 32.04161,50.334696 32,50.660038 32,51 L 35.40625,51 36,50 32.0625,50 z m 31.90625,0.5 C 63.700451,59.101456 56.666579,66 48,66 45.08161,66 42.35563,65.20866 40,63.84375 l -3,5.21875 c 0.140046,0.08094 0.295501,0.140832 0.4375,0.21875 L 40,64.84375 C 42.35563,66.20866 45.08161,67 48,67 c 8.83656,0 16,-7.16344 16,-16 0,-0.169981 -0.02599,-0.331296 -0.03125,-0.5 z"
       inkscape:connector-curvature="0"
       id="path4500"
       style="color:#000000;fill:url(#linearGradient4506);fill-opacity:1;stroke:none;stroke-width:1.5;marker:none;visibility:visible;display:inline;overflow:visible;enable-background:accumulate" />
    <path
       d="M 48,28 C 35.84974,28 26,37.84974 26,50 l -4,0 3.5,6 3.5,6 3.5,-6 3.5,-6 -4,0 c 0,-8.83656 7.16344,-16 16,-16 8.83656,0 16,7.16344 16,16 0,8.83656 -7.16344,16 -16,16 -2.91839,0 -5.64437,-0.79134 -8,-2.15625 L 37,69.0625 C 40.23433,70.93188 43.99572,72 48,72 60.15026,72 70,62.15026 70,50 70,37.84974 60.15026,28 48,28 z m 0,0.9375 c 11.63894,0 21.0625,9.42356 21.0625,21.0625 0,11.63894 -9.42356,21.0625 -21.0625,21.0625 -3.498478,0 -6.755485,-0.931219 -9.65625,-2.4375 l 2.0625,-3.59375 C 42.701295,66.196505 45.249295,66.9375 48,66.9375 57.347879,66.9375 64.9375,59.347879 64.9375,50 64.9375,40.652121 57.347879,33.0625 48,33.0625 38.652121,33.0625 31.0625,40.652121 31.0625,50 A 0.94621171,0.94621171 0 0 0 32,50.9375 l 2.375,0 -2.6875,4.59375 L 29,60.125 26.3125,55.53125 23.625,50.9375 l 2.375,0 A 0.94621171,0.94621171 0 0 0 26.9375,50 C 26.9375,38.36106 36.36106,28.9375 48,28.9375 z M 48,36 c -1.108,0 -2,0.892 -2,2 l 0,11.34375 c -0.198606,0.53433 -0.08906,1.18926 0.3125,1.75 0.0771,0.11963 0.181089,0.21234 0.28125,0.3125 L 53.65625,58.5 c 0.783474,0.78347 1.925928,0.88657 2.5625,0.25 L 56.75,58.21875 c 0.636572,-0.63657 0.533474,-1.77903 -0.25,-2.5625 L 50,49.1875 50,38 c 0,-1.108 -0.892,-2 -2,-2 z m 0,0.9375 c 0.600216,0 1.0625,0.462284 1.0625,1.0625 l 0,11.1875 a 0.94621171,0.94621171 0 0 0 0.28125,0.65625 l 6.5,6.46875 c 0.487636,0.487633 0.45023,1.049771 0.25,1.25 l -0.53125,0.53125 c -0.200233,0.200232 -0.76236,0.237637 -1.25,-0.25 L 47.25,50.75 c -0.125271,-0.12527 -0.168424,-0.17514 -0.15625,-0.15625 a 0.94621171,0.94621171 0 0 0 0,-0.0625 C 46.847805,50.187811 46.803942,49.878675 46.875,49.6875 a 0.94621171,0.94621171 0 0 0 0.0625,-0.34375 L 46.9375,38 c 0,-0.600216 0.462284,-1.0625 1.0625,-1.0625 z"
       inkscape:connector-curvature="0"
       id="path4509"
       style="opacity:0.5;color:#000000;fill:url(#linearGradient4519);fill-opacity:1;stroke:none;stroke-width:1.5;marker:none;visibility:visible;display:inline;overflow:visible;enable-background:accumulate" />
    <path
       d="m 48,34 c -8.83656,0 -16,7.16344 -16,16 l 0.0625,0 C 32.584667,41.635 39.503402,35 48,35 56.666579,35 63.700451,41.898544 63.96875,50.5 63.97405,50.331296 64,50.169981 64,50 64,41.16344 56.83656,34 48,34 z m -2,16.40625 c -0.169691,0.523028 -0.0744,1.147236 0.3125,1.6875 0.0771,0.11963 0.181089,0.21234 0.28125,0.3125 L 53.65625,59.5 c 0.783474,0.78347 1.925928,0.88657 2.5625,0.25 L 56.75,59.21875 c 0.397858,-0.397856 0.509284,-0.98057 0.34375,-1.5625 -0.06761,0.208865 -0.184607,0.403357 -0.34375,0.5625 L 56.21875,58.75 c -0.636572,0.63657 -1.779026,0.53347 -2.5625,-0.25 l -7.0625,-7.09375 C 46.493589,51.30609 46.3896,51.21338 46.3125,51.09375 46.155285,50.874215 46.066726,50.64177 46,50.40625 z M 70,50.5 C 69.731835,62.417235 59.981636,72 48,72 44.169105,72 40.574941,71.002823 37.4375,69.28125 L 37,70.0625 C 40.23433,71.93188 43.99572,73 48,73 c 12.15026,0 22,-9.84974 22,-22 0,-0.168624 0.0038,-0.332283 0,-0.5 z M 22,51 25.5,57 29,63 32.5,57 36,51 35.40625,51 32.5,56 29,62 25.5,56 22.59375,51 22,51 z"
       inkscape:connector-curvature="0"
       id="path4535"
       style="opacity:0.2;color:#000000;fill:#ffffff;fill-opacity:1;stroke:none;stroke-width:1.5;marker:none;visibility:visible;display:inline;overflow:visible;enable-background:accumulate" />
  </g>
</svg>
