<?xml version="1.0" encoding="UTF-8" standalone="no"?>
<!-- Created with Inkscape (http://www.inkscape.org/) -->

<svg
   xmlns:dc="http://purl.org/dc/elements/1.1/"
   xmlns:cc="http://creativecommons.org/ns#"
   xmlns:rdf="http://www.w3.org/1999/02/22-rdf-syntax-ns#"
   xmlns:svg="http://www.w3.org/2000/svg"
   xmlns="http://www.w3.org/2000/svg"
   xmlns:xlink="http://www.w3.org/1999/xlink"
   xmlns:inkscape="http://www.inkscape.org/namespaces/inkscape"
   version="1.0"
   width="96"
   height="96"
   id="svg2408">
  <defs
     id="defs2410">
    <linearGradient
       id="linearGradient3894">
      <stop
         id="stop3901"
         style="stop-color:#c75026;stop-opacity:1"
         offset="0" />
      <stop
         id="stop3905"
         style="stop-color:#eb9d48;stop-opacity:1"
         offset="1" />
    </linearGradient>
    <linearGradient
       id="linearGradient3885">
      <stop
         id="stop3887"
         style="stop-color:#eb7731;stop-opacity:1"
         offset="0" />
      <stop
         id="stop3889"
         style="stop-color:#e59343;stop-opacity:1"
         offset="0.5" />
      <stop
         id="stop3891"
         style="stop-color:#e5b66b;stop-opacity:1"
         offset="1" />
    </linearGradient>
    <linearGradient
       id="linearGradient3874">
      <stop
         id="stop3876"
         style="stop-color:#ffa32d;stop-opacity:1"
         offset="0" />
      <stop
         id="stop3878"
         style="stop-color:#ffe4c1;stop-opacity:0"
         offset="1" />
    </linearGradient>
    <linearGradient
       x1="11.794092"
       y1="3.2126782"
       x2="11.794092"
       y2="20.137329"
       id="linearGradient3317"
       gradientUnits="userSpaceOnUse"
       gradientTransform="scale(1.0598527,0.9435274)">
      <stop
         id="stop3319"
         style="stop-color:#c6953a;stop-opacity:1"
         offset="0" />
      <stop
         id="stop3321"
         style="stop-color:#ab7a1f;stop-opacity:1"
         offset="1" />
    </linearGradient>
    <linearGradient
       x1="48.035713"
       y1="25.910715"
       x2="48.035713"
       y2="85.821426"
       id="linearGradient3361"
       xlink:href="#linearGradient3317"
       gradientUnits="userSpaceOnUse" />
    <linearGradient
       x1="45.447727"
       y1="80.471962"
       x2="45.447727"
       y2="7.0165396"
       id="ButtonShadow"
       gradientUnits="userSpaceOnUse"
       gradientTransform="matrix(1.0058652,0,0,0.994169,0,12)">
      <stop
         id="stop3750"
         style="stop-color:#000000;stop-opacity:1"
         offset="0" />
      <stop
         id="stop3752"
         style="stop-color:#000000;stop-opacity:0.58823532"
         offset="1" />
    </linearGradient>
    <linearGradient
       x1="48"
       y1="78"
       x2="48"
       y2="5.9877172"
       id="linearGradient3706"
       xlink:href="#linearGradient3885"
       gradientUnits="userSpaceOnUse"
       gradientTransform="translate(0,8)" />
    <filter
       color-interpolation-filters="sRGB"
       id="filter3174">
      <feGaussianBlur
         id="feGaussianBlur3176"
         stdDeviation="1.71" />
    </filter>
    <linearGradient
       x1="45.447727"
       y1="80.471962"
       x2="45.447727"
       y2="5.297224"
       id="linearGradient3664"
       xlink:href="#ButtonShadow"
       gradientUnits="userSpaceOnUse"
       gradientTransform="matrix(1.0058652,0,0,0.994169,0,12)" />
    <clipPath
       id="clipPath3860">
      <rect
         width="84"
         height="72"
         rx="6"
         ry="6"
         x="6"
         y="18"
         id="rect3862"
         style="fill:#ff00ff;fill-opacity:1;fill-rule:nonzero;stroke:none" />
    </clipPath>
    <filter
       x="-0.16558799"
       y="-0.19715989"
       width="1.331176"
       height="1.3943198"
       color-interpolation-filters="sRGB"
       id="filter3870">
      <feGaussianBlur
         id="feGaussianBlur3872"
         stdDeviation="5.1703125" />
    </filter>
    <linearGradient
       id="linearGradient3892">
      <stop
         id="stop3894"
         style="stop-color:#000000;stop-opacity:0.58823532"
         offset="0" />
      <stop
         id="stop3896"
         style="stop-color:#000000;stop-opacity:0.47058824"
         offset="0.11780351" />
      <stop
         id="stop3898"
         style="stop-color:#000000;stop-opacity:0.39215687"
         offset="0.23809524" />
      <stop
         id="stop3900"
         style="stop-color:#000000;stop-opacity:0.3137255"
         offset="1" />
    </linearGradient>
    <linearGradient
       id="linearGradient4384">
      <stop
         id="stop4386"
         style="stop-color:#ffffff;stop-opacity:1"
         offset="0" />
      <stop
         id="stop4388"
         style="stop-color:#ffffff;stop-opacity:0"
         offset="1" />
    </linearGradient>
    <linearGradient
       x1="48"
       y1="75.08329"
       x2="48"
       y2="-40"
       id="linearGradient3094"
       xlink:href="#linearGradient4384"
       gradientUnits="userSpaceOnUse"
       gradientTransform="matrix(1,0,0,-1,0,92)" />
    <linearGradient
       x1="48.021698"
       y1="22.933374"
       x2="48.021698"
       y2="81.481377"
       id="linearGradient3123"
       xlink:href="#linearGradient3874"
       gradientUnits="userSpaceOnUse" />
    <linearGradient
       x1="37.611111"
       y1="27.111111"
       x2="37.611111"
       y2="21.555555"
       id="linearGradient3105"
       xlink:href="#linearGradient3894"
       gradientUnits="userSpaceOnUse"
       gradientTransform="matrix(0.72,0,0,0.72,1.92,-5.52)" />
    <linearGradient
       x1="43"
       y1="91"
       x2="43"
       y2="7"
       id="linearGradient3952"
       xlink:href="#ButtonShadow"
       gradientUnits="userSpaceOnUse" />
    <linearGradient
       x1="45"
       y1="92"
       x2="45"
       y2="7"
       id="linearGradient3961"
       xlink:href="#ButtonShadow"
       gradientUnits="userSpaceOnUse" />
    <linearGradient
       x1="45"
       y1="92"
       x2="45"
       y2="7"
       id="linearGradient3969"
       xlink:href="#ButtonShadow"
       gradientUnits="userSpaceOnUse" />
    <linearGradient
       x1="45"
       y1="92"
       x2="45"
       y2="7"
       id="linearGradient3977"
       xlink:href="#ButtonShadow"
       gradientUnits="userSpaceOnUse" />
    <linearGradient
       x1="45"
       y1="92"
       x2="45"
       y2="7"
       id="linearGradient3986"
       xlink:href="#ButtonShadow"
       gradientUnits="userSpaceOnUse" />
    <linearGradient
       x1="90"
       y1="88"
       x2="48"
       y2="88"
       id="linearGradient3906"
       xlink:href="#linearGradient3892"
       gradientUnits="userSpaceOnUse"
       gradientTransform="translate(0,10)"
       spreadMethod="reflect" />
    <linearGradient
       x1="48.071056"
       y1="73.765587"
       x2="48.071056"
       y2="32.397678"
       id="linearGradient3904"
       xlink:href="#linearGradient3877"
       gradientUnits="userSpaceOnUse"
       gradientTransform="translate(0,-2)" />
    <linearGradient
       id="linearGradient3877">
      <stop
         id="stop3879"
         style="stop-color:#da682a;stop-opacity:0.78431374"
         offset="0" />
      <stop
         id="stop3883"
         style="stop-color:#da682a;stop-opacity:0.39215687"
         offset="1" />
    </linearGradient>
    <linearGradient
       x1="48.071056"
       y1="73.765587"
       x2="48.071056"
       y2="32.397678"
       id="linearGradient3917"
       xlink:href="#linearGradient3877"
       gradientUnits="userSpaceOnUse"
       gradientTransform="translate(0,-2)" />
    <linearGradient
       x1="48.071056"
       y1="73.765587"
       x2="48.071056"
       y2="32.397678"
       id="linearGradient3930"
       xlink:href="#linearGradient3877"
       gradientUnits="userSpaceOnUse"
       gradientTransform="translate(0,-2)" />
    <linearGradient
       x1="48.071056"
       y1="73.765587"
       x2="48.071056"
       y2="32.397678"
       id="linearGradient3186"
       xlink:href="#linearGradient3877"
       gradientUnits="userSpaceOnUse"
       gradientTransform="translate(0,-2)" />
  </defs>
  <metadata
     id="metadata2413">
    <rdf:RDF>
      <cc:Work
         rdf:about="">
        <dc:format>image/svg+xml</dc:format>
        <dc:type
           rdf:resource="http://purl.org/dc/dcmitype/StillImage" />
        <dc:title />
      </cc:Work>
    </rdf:RDF>
  </metadata>
  <g
     id="layer2"
     style="display:none">
    <path
       d="M 14.96875,8.8028918 C 13.32891,8.8028918 12,10.085142 12,11.677892 L 12,19 c -3.324,0 -7,2.676 -7,6 l 0,61 c 0,3.324 2.676,6 6,6 l 74,0 c 3.324,0 6,-2.676 6,-6 l 0,-61 c 0,-3.324 -3.74743,-6 -7.07143,-6 l 0,-0.134608 c 0,-2.389125 -1.97774,-4.3125 -4.4375,-4.3125 l -43.33482,0 -1.46875,-2.875 C 33.95414,10.253293 33.35859,8.8028918 31.71875,8.8028918 l -16.75,0 z"
       inkscape:connector-curvature="0"
       id="rect3745"
       style="opacity:0.9;fill:url(#linearGradient3664);fill-opacity:1;fill-rule:nonzero;stroke:none;filter:url(#filter3174)" />
  </g>
  <g
     id="layer4"
     style="display:inline">
    <path
       d="M 14.125,4 C 9.6910704,4 6,7.568413 6,12 l 0,2.15625 C 3.6235961,15.958367 2,18.759045 2,22 l 0,63 c 0,5.503629 4.496371,10 10,10 l 72,0 c 5.503629,0 10,-4.496371 10,-10 L 94,22 C 94,18.516601 92.146607,15.546894 89.46875,13.78125 88.481551,10.491738 85.526024,8 81.875,8 l -39.5,0 C 40.972352,6.645177 39.835329,5.4903784 38.6875,4.84375 37.192287,4.0014231 35.756649,4.0295412 34.875,4 a 0.92780092,0.92780092 0 0 0 -0.03125,0 c -0.0012,-1.73e-5 -0.03009,-1.73e-5 -0.03125,0 L 34.78125,4 14.125,4 z"
       id="path3984"
       style="opacity:0.07999998;fill:url(#linearGradient3986);fill-opacity:1;fill-rule:nonzero;stroke:none;display:inline" />
    <path
       d="M 14.125,4.9375 C 10.184407,4.9375 6.9375,8.0807925 6.9375,12 l 0,2.59375 c -2.3826099,1.622076 -4,4.293928 -4,7.40625 l 0,63 c 0,5.001444 4.0610559,9.0625 9.0625,9.0625 l 72,0 c 5.001444,0 9.0625,-4.061056 9.0625,-9.0625 l 0,-63 c 0,-3.260846 -1.77319,-6.039741 -4.34375,-7.625 C 87.957559,11.279325 85.241489,8.9375 81.875,8.9375 l -39.8125,0 C 40.465021,7.3963057 39.290438,6.2599842 38.21875,5.65625 36.945571,4.9390059 35.771277,4.9685784 34.84375,4.9375 a 1.043776,1.043776 0 0 0 -0.03125,0 c -10e-7,0 -0.03125,0 -0.03125,0 l -20.65625,0 z"
       id="path3975"
       style="opacity:0.1;fill:url(#linearGradient3977);fill-opacity:1;fill-rule:nonzero;stroke:none;display:inline" />
    <path
       d="M 14.125,5.96875 C 10.736326,5.96875 7.96875,8.6567706 7.96875,12 l 0,3.125 c -2.3751432,1.394016 -4,3.920462 -4,6.875 l 0,63 c 0,4.438141 3.5931086,8.03125 8.03125,8.03125 l 72,0 c 4.438141,0 8.03125,-3.593109 8.03125,-8.03125 l 0,-63 c 0,-3.031992 -1.712245,-5.604362 -4.1875,-6.96875 -0.491893,-2.85962 -2.928643,-5.0625 -5.96875,-5.0625 l -40.1875,0 C 39.852667,8.1939079 38.678863,7.1033787 37.71875,6.5625 36.681475,5.9781523 35.778304,6.0011109 34.8125,5.96875 a 1.043776,1.043776 0 0 0 -0.03125,0 l -20.65625,0 z"
       id="path3967"
       style="opacity:0.2;fill:url(#linearGradient3969);fill-opacity:1;fill-rule:nonzero;stroke:none;display:inline" />
    <path
       d="M 14.125,7 C 11.282105,7 9,9.23 9,12 l 0,3.6875 C 6.6359408,16.808884 5,19.200342 5,22 l 0,63 c 0,3.878 3.122,7 7,7 l 72,0 c 3.878,0 7,-3.122 7,-7 L 91,22 C 91,19.190264 89.346632,16.803629 86.96875,15.6875 86.799101,13.069075 84.606585,11 81.875,11 l -40.59375,0 c -4.220528,-4.1123102 -4.502768,-3.9330794 -6.5,-4 L 14.125,7 z"
       inkscape:connector-curvature="0"
       id="path3908-1"
       style="opacity:0.3;fill:url(#linearGradient3961);fill-opacity:1;fill-rule:nonzero;stroke:none;display:inline" />
    <path
       d="m 15,7 c -2.77,0 -5,2.23 -5,5 l 0,3.34375 C 7.6664933,16.164656 6,18.378887 6,21 l 0,64 c 0,3.324 2.676,6 6,6 l 72,0 c 3.324,0 6,-2.676 6,-6 L 90,21 C 90,18.358112 88.300137,16.148775 85.9375,15.34375 85.611464,12.893448 83.542274,11 81,11 L 40.46875,11 C 36.35644,6.8876898 36.102271,7.0669206 34.15625,7 L 15,7 z"
       inkscape:connector-curvature="0"
       id="path3941"
       style="opacity:0.45;fill:url(#linearGradient3952);fill-opacity:1;fill-rule:nonzero;stroke:none;display:inline" />
  </g>
  <g
     id="layer3"
     style="display:inline">
    <rect
       width="75"
       height="62.678574"
       rx="6"
       ry="6"
       x="10.535714"
       y="23.142857"
       id="rect3352"
       style="fill:url(#linearGradient3361);fill-opacity:1;fill-rule:nonzero;stroke:none;display:inline" />
    <path
       d="m 15,6 c -2.77,0 -5,2.23 -5,5 l 0,59.8125 c 0,2.39328 1.91922,4.3125 4.3125,4.3125 l 67.375,0 C 84.08078,75.125 86,73.20578 86,70.8125 L 86,15 c 0,-2.77 -2.23,-5 -5,-5 L 40.46875,10 C 36.35644,5.8876898 36.102271,6.0669206 34.15625,6 z"
       inkscape:connector-curvature="0"
       id="path3908"
       style="fill:url(#linearGradient3105);fill-opacity:1;fill-rule:nonzero;stroke:none;display:inline" />
    <path
       d="m 15,6 c -2.77,0 -5,2.23 -5,5 l 0,59.8125 c 0,2.39328 1.91922,4.3125 4.3125,4.3125 l 67.375,0 C 84.08078,75.125 86,73.20578 86,70.8125 L 86,15 c 0,-2.77 -2.23,-5 -5,-5 L 40.46875,10 C 36.35644,5.8876898 36.102271,6.0669206 34.15625,6 L 15,6 z m 0,1.03125 19.125,0 0.03125,0 c 0.964976,0.031157 1.192535,-0.016972 1.8125,0.34375 0.630289,0.366729 1.706808,1.3318077 3.75,3.375 a 1.043776,1.043776 0 0 0 0.75,0.28125 l 40.53125,0 c 2.209859,0 3.96875,1.758891 3.96875,3.96875 l 0,55.8125 c 0,1.835319 -1.445931,3.28125 -3.28125,3.28125 l -67.375,0 c -1.835319,0 -3.28125,-1.445931 -3.28125,-3.28125 l 0,-59.8125 c 0,-2.2098586 1.758891,-3.96875 3.96875,-3.96875 z"
       inkscape:connector-curvature="0"
       id="path3108"
       style="opacity:0.2;fill:#ffffff;fill-opacity:1;fill-rule:nonzero;stroke:none;display:inline" />
  </g>
  <g
     id="layer1"
     style="display:inline">
    <rect
       width="84"
       height="76"
       rx="6"
       ry="6"
       x="6"
       y="14"
       id="rect2419"
       style="fill:url(#linearGradient3706);fill-opacity:1;fill-rule:nonzero;stroke:none" />
    <path
       d="M 12,86 C 8.676,86 6,83.324 6,80 L 6,20 c 0,-3.324 2.676,-6 6,-6 l 72,0 c 3.324,0 6,2.676 6,6 l 0,60 c 0,3.324 -2.676,6 -6,6 z m 0,-0.96875 72,0 c 2.80489,0 5.03125,-2.22636 5.03125,-5.03125 l 0,-60 c 0,-2.80489 -2.22636,-5.03125 -5.03125,-5.03125 l -72,0 c -2.8048898,0 -5.03125,2.22636 -5.03125,5.03125 l 0,60 c 0,2.80489 2.2263602,5.03125 5.03125,5.03125 z"
       inkscape:connector-curvature="0"
       id="rect4377"
       style="opacity:0.35;fill:url(#linearGradient3094);fill-opacity:1;fill-rule:nonzero;stroke:none" />
    <path
       d="m 6,78 0,2 c 0,3.324 2.676,6 6,6 l 72,0 c 3.324,0 6,-2.676 6,-6 l 0,-2 c 0,3.324 -2.676,6 -6,6 L 12,84 C 8.676,84 6,81.324 6,78 z"
       inkscape:connector-curvature="0"
       id="rect3841"
       style="opacity:0.1;fill:#ffffff;fill-opacity:1;fill-rule:nonzero;stroke:none" />
  </g>
  <g
     id="layer7">
    <path
       d="m 6,80 0,4 c 0,3.324 2.676,6 6,6 l 72,0 c 3.324,0 6,-2.676 6,-6 l 0,-4 c 0,3.324 -2.676,6 -6,6 L 12,86 C 8.676,86 6,83.324 6,80 z"
       inkscape:connector-curvature="0"
       id="path3067"
       style="opacity:0.8;fill:#ce4f16;fill-opacity:1;fill-rule:nonzero;stroke:none;display:inline" />
    <g
       transform="translate(0,-10)"
       id="g3901">
      <path
         d="m 6,90 0,4 c 0,3.324 2.676,6 6,6 l 72,0 c 3.324,0 6,-2.676 6,-6 l 0,-4 c 0,3.324 -2.676,6 -6,6 L 12,96 C 8.676,96 6,93.324 6,90 z"
         inkscape:connector-curvature="0"
         id="path3888"
         style="opacity:0.5;fill:url(#linearGradient3906);fill-opacity:1;fill-rule:nonzero;stroke:none;display:inline" />
      <path
         d="m 6,92 0,2 c 0,3.324 2.676,6 6,6 l 72,0 c 3.324,0 6,-2.676 6,-6 l 0,-2 c 0,3.324 -2.676,6 -6,6 L 12,98 C 8.676,98 6,95.324 6,92 z"
         inkscape:connector-curvature="0"
         id="rect4345"
         style="opacity:0.1;color:#000000;fill:#000000;fill-opacity:1;fill-rule:nonzero;stroke:none;stroke-width:1.5;marker:none;visibility:visible;display:inline;overflow:visible;enable-background:accumulate" />
      <path
         d="m 6,93 0,1 c 0,3.324 2.676,6 6,6 l 72,0 c 3.324,0 6,-2.676 6,-6 l 0,-1 c 0,3.324 -2.676,6 -6,6 L 12,99 C 8.676,99 6,96.324 6,93 z"
         inkscape:connector-curvature="0"
         id="rect4336"
         style="opacity:0.15;color:#000000;fill:#000000;fill-opacity:1;fill-rule:nonzero;stroke:none;stroke-width:1.5;marker:none;visibility:visible;display:inline;overflow:visible;enable-background:accumulate" />
    </g>
  </g>
  <g
     id="layer5"
     style="display:inline">
    <path
       d="m 15.96875,22.53125 c -2.845903,0.0043 -5.433244,2.591597 -5.4375,5.4375 l 0,48.0625 c 0.0043,2.845903 2.591597,5.433244 5.4375,5.4375 l 64.0625,0 c 2.845903,-0.0043 5.433244,-2.591597 5.4375,-5.4375 l 0,-48.0625 c -0.0043,-2.845903 -2.591597,-5.433244 -5.4375,-5.4375 z"
       inkscape:connector-curvature="0"
       transform="translate(0,-4)"
       clip-path="url(#clipPath3860)"
       id="path3850"
       style="opacity:0.3;fill:url(#linearGradient3123);fill-opacity:1;fill-rule:nonzero;stroke:none;filter:url(#filter3870)" />
  </g>
  <g
     id="layer6">
    <path
       d="M 48,30 C 37.25126,30 26.51351,34.11149 18.3125,42.3125 L 23.25,47.25 c 13.66835,-13.66835 35.83165,-13.66835 49.5,0 l 4.9375,-4.9375 C 69.48649,34.11149 58.74874,30 48,30 z m 0,14 c -7.16583,0 -14.34516,2.72016 -19.8125,8.1875 l 4.96875,4.96875 c 8.20101,-8.20101 21.48649,-8.20101 29.6875,0 L 67.8125,52.1875 C 62.34516,46.72016 55.16582,44 48,44 z m 0,14 c -3.58291,0 -7.17258,1.36008 -9.90625,4.09375 L 48,72 57.90625,62.09375 C 55.17258,59.36008 51.58291,58 48,58 z"
       inkscape:connector-curvature="0"
       id="path3717"
       style="opacity:0.9;fill:url(#linearGradient3186);fill-opacity:1;stroke:none" />
    <path
       d="M 48,30 C 37.25126,30 26.51351,34.11149 18.3125,42.3125 L 23.25,47.25 c 13.66835,-13.66835 35.83165,-13.66835 49.5,0 l 4.9375,-4.9375 C 69.48649,34.11149 58.74874,30 48,30 z m 0,1.9375 c 9.634016,0 19.191168,3.585307 26.8125,10.5 L 72.625,44.625 c -14.004357,-12.590034 -35.245643,-12.590034 -49.25,0 L 21.1875,42.4375 C 28.808832,35.522807 38.365984,31.9375 48,31.9375 z M 48,44 c -7.16583,0 -14.34516,2.72016 -19.8125,8.1875 l 4.96875,4.96875 c 8.20101,-8.20101 21.48649,-8.20101 29.6875,0 L 67.8125,52.1875 C 62.34516,46.72016 55.16582,44 48,44 z m 0,1.9375 c 6.055974,0 12.063379,2.183175 16.9375,6.375 l -2.21875,2.21875 c -8.505192,-7.1633 -20.932308,-7.1633 -29.4375,0 L 31.0625,52.3125 C 35.93662,48.120674 41.944017,45.9375 48,45.9375 z M 48,58 c -3.58291,0 -7.17258,1.36008 -9.90625,4.09375 L 48,72 57.90625,62.09375 C 55.17258,59.36008 51.58291,58 48,58 z m 0,1.9375 c 2.450727,0 4.791706,0.957137 6.875,2.4375 L 48,69.25 41.125,62.375 C 43.208294,60.894637 45.549273,59.9375 48,59.9375 z"
       inkscape:connector-curvature="0"
       id="path3920"
       style="opacity:0.25;fill:url(#linearGradient3930);fill-opacity:1;stroke:none" />
    <path
       d="M 48,30 C 37.25126,30 26.51351,34.11149 18.3125,42.3125 L 23.25,47.25 c 13.66835,-13.66835 35.83165,-13.66835 49.5,0 l 4.9375,-4.9375 C 69.48649,34.11149 58.74874,30 48,30 z m 0,1.03125 c 10.164734,0 20.283568,3.822257 28.1875,11.34375 l -3.5,3.5 c -13.860522,-13.096513 -35.514478,-13.096513 -49.375,0 l -3.5,-3.5 C 27.716432,34.853507 37.835266,31.03125 48,31.03125 z M 48,44 c -7.16583,0 -14.34516,2.72016 -19.8125,8.1875 l 4.96875,4.96875 c 8.20101,-8.20101 21.48649,-8.20101 29.6875,0 L 67.8125,52.1875 C 62.34516,46.72016 55.16582,44 48,44 z m 0,1.03125 c 6.583583,0 13.146038,2.430754 18.3125,7.21875 l -3.53125,3.53125 c -8.381706,-7.634738 -21.180794,-7.634738 -29.5625,0 L 29.6875,52.25 C 34.853961,47.462004 41.416407,45.03125 48,45.03125 z M 48,58 c -3.58291,0 -7.17258,1.36008 -9.90625,4.09375 L 48,72 57.90625,62.09375 C 55.17258,59.36008 51.58291,58 48,58 z m 0,1.03125 c 2.999513,0 5.98577,1.060256 8.40625,3.125 L 48,70.5625 39.59375,62.15625 c 2.42048,-2.064744 5.406737,-3.125 8.40625,-3.125 z"
       inkscape:connector-curvature="0"
       id="path3907"
       style="opacity:0.5;fill:url(#linearGradient3917);fill-opacity:1;stroke:none" />
    <path
       d="M 48,30 C 37.25126,30 26.51351,34.11149 18.3125,42.3125 l 0.5,0.5 C 26.946568,34.942243 37.470531,31 48,31 c 10.529469,0 21.053432,3.942243 29.1875,11.8125 l 0.5,-0.5 C 69.48649,34.11149 58.74874,30 48,30 z m 0,14 c -7.16583,0 -14.34516,2.72016 -19.8125,8.1875 l 0.5,0.5 C 34.08716,47.552139 41.054605,45 48,45 c 6.945385,0 13.91284,2.552139 19.3125,7.6875 l 0.5,-0.5 C 62.34516,46.72016 55.16582,44 48,44 z m 0,14 c -3.58291,0 -7.17258,1.36008 -9.90625,4.09375 L 38.625,62.625 C 41.286187,60.2184 44.637743,59 48,59 c 3.362257,0 6.713813,1.2184 9.375,3.625 l 0.53125,-0.53125 C 55.17258,59.36008 51.58291,58 48,58 z"
       inkscape:connector-curvature="0"
       id="path3898"
       style="fill:url(#linearGradient3904);fill-opacity:1;stroke:none" />
    <path
       d="m 48,28 c -11.258055,0 -22.51257,4.32507 -31.09375,12.90625 -0.0015,0.0015 -0.06111,0.06096 -0.0625,0.0625 -0.0014,0.0015 -0.06119,0.09215 -0.0625,0.09375 -0.0013,0.0016 -0.06127,0.06083 -0.0625,0.0625 -0.0012,0.0017 -0.06135,0.09203 -0.0625,0.09375 -0.0012,0.0017 -0.06143,0.06072 -0.0625,0.0625 -0.0011,0.0018 -0.03027,0.09192 -0.03125,0.09375 -9.77e-4,0.0018 -0.06161,0.09188 -0.0625,0.09375 -8.86e-4,0.0019 -0.03046,0.09183 -0.03125,0.09375 -7.93e-4,0.0019 -0.03055,0.0918 -0.03125,0.09375 -6.98e-4,0.002 -0.03065,0.06052 -0.03125,0.0625 -6.01e-4,0.002 -0.03075,0.09174 -0.03125,0.09375 -5.03e-4,0.002 -0.03085,0.122967 -0.03125,0.125 -4.04e-4,0.002 3.04e-4,0.0917 0,0.09375 -3.04e-4,0.0021 -0.03105,0.09169 -0.03125,0.09375 -2.03e-4,0.0021 1.02e-4,0.09168 0,0.09375 -1.02e-4,0.0021 0,0.09168 0,0.09375 0,0.0021 -1.02e-4,0.09168 0,0.09375 1.02e-4,0.0021 -2.03e-4,0.09169 0,0.09375 2.03e-4,0.0021 0.03095,0.0917 0.03125,0.09375 3.04e-4,0.0021 -4.04e-4,0.09172 0,0.09375 4.04e-4,0.002 0.03075,0.122989 0.03125,0.125 5.03e-4,0.002 0.03065,0.09177 0.03125,0.09375 6.01e-4,0.002 0.03055,0.06055 0.03125,0.0625 6.98e-4,0.002 0.03046,0.09183 0.03125,0.09375 7.93e-4,0.0019 0.03036,0.09188 0.03125,0.09375 8.86e-4,0.0019 0.06152,0.09192 0.0625,0.09375 9.77e-4,0.0018 0.03018,0.09197 0.03125,0.09375 0.0011,0.0018 0.06135,0.06078 0.0625,0.0625 0.0012,0.0017 0.06127,0.09208 0.0625,0.09375 0.0012,0.0017 0.06119,0.0609 0.0625,0.0625 0.0013,0.0016 0.06111,0.09221 0.0625,0.09375 0.0014,0.0015 0.06104,0.06103 0.0625,0.0625 l 4.9375,4.9375 c 0.0015,0.0015 0.06096,0.06111 0.0625,0.0625 0.0015,0.0014 0.09215,0.06119 0.09375,0.0625 0.0016,0.0013 0.06083,0.06127 0.0625,0.0625 0.0017,0.0012 0.09203,0.06135 0.09375,0.0625 0.0017,0.0012 0.06072,0.06144 0.0625,0.0625 0.0018,0.0011 0.09192,0.03027 0.09375,0.03125 0.0018,9.77e-4 0.09188,0.06161 0.09375,0.0625 0.0019,8.86e-4 0.09183,0.03046 0.09375,0.03125 0.0019,7.93e-4 0.0918,0.03055 0.09375,0.03125 0.002,6.98e-4 0.06052,0.03065 0.0625,0.03125 0.002,6.01e-4 0.09174,0.03075 0.09375,0.03125 0.002,5.03e-4 0.122967,0.03085 0.125,0.03125 0.002,4.04e-4 0.0917,-3.04e-4 0.09375,0 0.0021,3.04e-4 0.09169,0.03105 0.09375,0.03125 0.0021,2.03e-4 0.09168,-1.02e-4 0.09375,0 0.0021,1.02e-4 0.09168,0 0.09375,0 0.0021,0 0.09168,1.02e-4 0.09375,0 0.0021,-1.02e-4 0.09169,2.03e-4 0.09375,0 0.0021,-2.03e-4 0.0917,-0.03095 0.09375,-0.03125 0.0021,-3.04e-4 0.09172,4.04e-4 0.09375,0 0.002,-4.04e-4 0.122989,-0.03075 0.125,-0.03125 0.002,-5.03e-4 0.09177,-0.03065 0.09375,-0.03125 0.002,-6.01e-4 0.06055,-0.03055 0.0625,-0.03125 0.002,-6.98e-4 0.09183,-0.03046 0.09375,-0.03125 0.0019,-7.93e-4 0.09188,-0.03036 0.09375,-0.03125 0.0019,-8.86e-4 0.09192,-0.06152 0.09375,-0.0625 0.0018,-9.77e-4 0.09197,-0.03019 0.09375,-0.03125 0.0018,-0.0011 0.06078,-0.06135 0.0625,-0.0625 0.0017,-0.0012 0.09208,-0.06127 0.09375,-0.0625 0.0017,-0.0012 0.0609,-0.06119 0.0625,-0.0625 0.0016,-0.0013 0.09221,-0.06111 0.09375,-0.0625 0.0015,-0.0014 0.06103,-0.06103 0.0625,-0.0625 12.906109,-12.906109 33.781391,-12.906109 46.6875,0 0.0015,0.0015 0.06096,0.06111 0.0625,0.0625 0.0015,0.0014 0.09215,0.06119 0.09375,0.0625 0.0016,0.0013 0.06083,0.06127 0.0625,0.0625 0.0017,0.0012 0.09203,0.06135 0.09375,0.0625 0.0017,0.0012 0.06072,0.06144 0.0625,0.0625 0.0018,0.0011 0.09192,0.03027 0.09375,0.03125 0.0018,9.77e-4 0.09188,0.06161 0.09375,0.0625 0.0019,8.86e-4 0.09183,0.03046 0.09375,0.03125 0.0019,7.93e-4 0.0918,0.03055 0.09375,0.03125 0.002,6.98e-4 0.06052,0.03065 0.0625,0.03125 0.002,6.01e-4 0.09174,0.03075 0.09375,0.03125 0.002,5.03e-4 0.122967,0.03085 0.125,0.03125 0.002,4.04e-4 0.0917,-3.04e-4 0.09375,0 0.0021,3.04e-4 0.09169,0.03105 0.09375,0.03125 0.0021,2.03e-4 0.09168,-1.02e-4 0.09375,0 0.0021,1.02e-4 0.09168,0 0.09375,0 0.0021,0 0.09168,1.02e-4 0.09375,0 0.0021,-1.02e-4 0.09169,2.03e-4 0.09375,0 0.0021,-2.03e-4 0.0917,-0.03095 0.09375,-0.03125 0.0021,-3.04e-4 0.09172,4.04e-4 0.09375,0 0.002,-4.04e-4 0.122989,-0.03075 0.125,-0.03125 0.002,-5.03e-4 0.09177,-0.03065 0.09375,-0.03125 0.002,-6.01e-4 0.06055,-0.03055 0.0625,-0.03125 0.002,-6.98e-4 0.09183,-0.03046 0.09375,-0.03125 0.0019,-7.93e-4 0.09188,-0.03036 0.09375,-0.03125 0.0019,-8.86e-4 0.09192,-0.06152 0.09375,-0.0625 0.0018,-9.77e-4 0.09197,-0.03019 0.09375,-0.03125 0.0018,-0.0011 0.06078,-0.06135 0.0625,-0.0625 0.0017,-0.0012 0.09208,-0.06127 0.09375,-0.0625 0.0017,-0.0012 0.0609,-0.06119 0.0625,-0.0625 0.0016,-0.0013 0.09221,-0.06111 0.09375,-0.0625 0.0015,-0.0014 0.06103,-0.06103 0.0625,-0.0625 l 4.9375,-4.9375 c 0.0015,-0.0015 0.06111,-0.06096 0.0625,-0.0625 0.0014,-0.0015 0.06119,-0.09215 0.0625,-0.09375 0.0013,-0.0016 0.06127,-0.06083 0.0625,-0.0625 0.0012,-0.0017 0.06135,-0.09203 0.0625,-0.09375 0.0012,-0.0017 0.06144,-0.06072 0.0625,-0.0625 0.0011,-0.0018 0.03027,-0.09192 0.03125,-0.09375 9.77e-4,-0.0018 0.06161,-0.09188 0.0625,-0.09375 8.86e-4,-0.0019 0.03046,-0.09183 0.03125,-0.09375 7.93e-4,-0.0019 0.03055,-0.0918 0.03125,-0.09375 6.98e-4,-0.002 0.03065,-0.06052 0.03125,-0.0625 6.01e-4,-0.002 0.03075,-0.09174 0.03125,-0.09375 5.03e-4,-0.002 0.03085,-0.122967 0.03125,-0.125 4.04e-4,-0.002 -3.04e-4,-0.0917 0,-0.09375 3.04e-4,-0.0021 0.03105,-0.09169 0.03125,-0.09375 2.03e-4,-0.0021 -1.02e-4,-0.09168 0,-0.09375 1.02e-4,-0.0021 0,-0.09168 0,-0.09375 0,-0.0021 1.02e-4,-0.09168 0,-0.09375 -1.02e-4,-0.0021 2.03e-4,-0.09169 0,-0.09375 -2.03e-4,-0.0021 -0.03095,-0.0917 -0.03125,-0.09375 -3.04e-4,-0.0021 4.04e-4,-0.09172 0,-0.09375 -4.04e-4,-0.002 -0.03075,-0.122989 -0.03125,-0.125 -5.03e-4,-0.002 -0.03065,-0.09177 -0.03125,-0.09375 -6.01e-4,-0.002 -0.03055,-0.06055 -0.03125,-0.0625 -6.98e-4,-0.002 -0.03046,-0.09183 -0.03125,-0.09375 -7.93e-4,-0.0019 -0.03036,-0.09188 -0.03125,-0.09375 -8.86e-4,-0.0019 -0.06152,-0.09192 -0.0625,-0.09375 -9.77e-4,-0.0018 -0.03019,-0.09197 -0.03125,-0.09375 -0.0011,-0.0018 -0.06135,-0.06078 -0.0625,-0.0625 -0.0012,-0.0017 -0.06127,-0.09208 -0.0625,-0.09375 -0.0012,-0.0017 -0.06119,-0.0609 -0.0625,-0.0625 -0.0013,-0.0016 -0.06111,-0.09221 -0.0625,-0.09375 -0.0014,-0.0015 -0.06104,-0.06103 -0.0625,-0.0625 C 70.51257,32.32507 59.258055,28 48,28 z m 0,2 c 10.74874,0 21.48649,4.11149 29.6875,12.3125 L 72.75,47.25 C 59.08165,33.58165 36.91835,33.58165 23.25,47.25 L 18.3125,42.3125 C 26.51351,34.11149 37.25126,30 48,30 z m 0,12 c -7.671436,0 -15.367651,2.930151 -21.21875,8.78125 -0.0015,0.0015 -0.06111,0.06096 -0.0625,0.0625 -0.0014,0.0015 -0.06119,0.09215 -0.0625,0.09375 -0.0013,0.0016 -0.06127,0.06083 -0.0625,0.0625 -0.0012,0.0017 -0.06135,0.09203 -0.0625,0.09375 -0.0012,0.0017 -0.06143,0.06072 -0.0625,0.0625 -0.0011,0.0018 -0.03027,0.09192 -0.03125,0.09375 -9.77e-4,0.0018 -0.06161,0.09188 -0.0625,0.09375 -8.86e-4,0.0019 -0.03046,0.09183 -0.03125,0.09375 -7.93e-4,0.0019 -0.03055,0.0918 -0.03125,0.09375 -6.98e-4,0.002 -0.03065,0.06052 -0.03125,0.0625 -6.01e-4,0.002 -0.03075,0.09174 -0.03125,0.09375 -5.03e-4,0.002 -0.03085,0.122967 -0.03125,0.125 -4.04e-4,0.002 3.04e-4,0.0917 0,0.09375 -3.04e-4,0.0021 -0.03105,0.09169 -0.03125,0.09375 -2.03e-4,0.0021 1.02e-4,0.09168 0,0.09375 -1.02e-4,0.0021 0,0.09168 0,0.09375 0,0.0021 -1.02e-4,0.09168 0,0.09375 1.02e-4,0.0021 -2.03e-4,0.09169 0,0.09375 2.03e-4,0.0021 0.03095,0.0917 0.03125,0.09375 3.04e-4,0.0021 -4.04e-4,0.09172 0,0.09375 4.04e-4,0.002 0.03075,0.122989 0.03125,0.125 5.03e-4,0.002 0.03065,0.09177 0.03125,0.09375 6.01e-4,0.002 0.03055,0.06055 0.03125,0.0625 6.98e-4,0.002 0.03046,0.09183 0.03125,0.09375 7.93e-4,0.0019 0.03036,0.09188 0.03125,0.09375 8.86e-4,0.0019 0.06152,0.09192 0.0625,0.09375 9.77e-4,0.0018 0.03018,0.09197 0.03125,0.09375 0.0011,0.0018 0.06135,0.06078 0.0625,0.0625 0.0012,0.0017 0.06127,0.09208 0.0625,0.09375 0.0012,0.0017 0.06119,0.0609 0.0625,0.0625 0.0013,0.0016 0.06111,0.09221 0.0625,0.09375 0.0014,0.0015 0.06104,0.06103 0.0625,0.0625 L 31.75,58.5625 c 0.0015,0.0015 0.06096,0.06111 0.0625,0.0625 0.0015,0.0014 0.09215,0.06119 0.09375,0.0625 0.0016,0.0013 0.06083,0.06127 0.0625,0.0625 0.0017,0.0012 0.09203,0.06135 0.09375,0.0625 0.0017,0.0012 0.06072,0.06144 0.0625,0.0625 0.0018,0.0011 0.09192,0.03027 0.09375,0.03125 0.0018,9.77e-4 0.09188,0.06161 0.09375,0.0625 0.0019,8.86e-4 0.09183,0.03046 0.09375,0.03125 0.0019,7.93e-4 0.0918,0.03055 0.09375,0.03125 0.002,6.98e-4 0.06052,0.03065 0.0625,0.03125 0.002,6.01e-4 0.09174,0.03075 0.09375,0.03125 0.002,5.03e-4 0.122967,0.03085 0.125,0.03125 0.002,4.04e-4 0.0917,-3.04e-4 0.09375,0 0.0021,3.04e-4 0.09169,0.03105 0.09375,0.03125 0.0021,2.03e-4 0.09168,-1.02e-4 0.09375,0 0.0021,1.02e-4 0.09168,0 0.09375,0 0.0021,0 0.09168,1.02e-4 0.09375,0 0.0021,-1.02e-4 0.09169,2.03e-4 0.09375,0 0.0021,-2.03e-4 0.0917,-0.03095 0.09375,-0.03125 0.0021,-3.04e-4 0.09172,4.04e-4 0.09375,0 0.002,-4.04e-4 0.122989,-0.03075 0.125,-0.03125 0.002,-5.03e-4 0.09177,-0.03065 0.09375,-0.03125 0.002,-6.01e-4 0.06055,-0.03055 0.0625,-0.03125 0.002,-6.98e-4 0.09183,-0.03046 0.09375,-0.03125 0.0019,-7.93e-4 0.09188,-0.03036 0.09375,-0.03125 0.0019,-8.86e-4 0.09192,-0.06152 0.09375,-0.0625 0.0018,-9.77e-4 0.09197,-0.03019 0.09375,-0.03125 0.0018,-0.0011 0.06078,-0.06135 0.0625,-0.0625 0.0017,-0.0012 0.09208,-0.06127 0.09375,-0.0625 0.0017,-0.0012 0.0609,-0.06119 0.0625,-0.0625 0.0016,-0.0013 0.09221,-0.06111 0.09375,-0.0625 0.0015,-0.0014 0.06103,-0.06103 0.0625,-0.0625 7.439906,-7.439906 19.435094,-7.439906 26.875,0 0.0015,0.0015 0.06096,0.06111 0.0625,0.0625 0.0015,0.0014 0.09215,0.06119 0.09375,0.0625 0.0016,0.0013 0.06083,0.06127 0.0625,0.0625 0.0017,0.0012 0.09203,0.06135 0.09375,0.0625 0.0017,0.0012 0.06072,0.06144 0.0625,0.0625 0.0018,0.0011 0.09192,0.03027 0.09375,0.03125 0.0018,9.77e-4 0.09188,0.06161 0.09375,0.0625 0.0019,8.86e-4 0.09183,0.03046 0.09375,0.03125 0.0019,7.93e-4 0.0918,0.03055 0.09375,0.03125 0.002,6.98e-4 0.06052,0.03065 0.0625,0.03125 0.002,6.01e-4 0.09174,0.03075 0.09375,0.03125 0.002,5.03e-4 0.122967,0.03085 0.125,0.03125 0.002,4.04e-4 0.0917,-3.04e-4 0.09375,0 0.0021,3.04e-4 0.09169,0.03105 0.09375,0.03125 0.0021,2.03e-4 0.09168,-1.02e-4 0.09375,0 0.0021,1.02e-4 0.09168,0 0.09375,0 0.0021,0 0.09168,1.02e-4 0.09375,0 0.0021,-1.02e-4 0.09169,2.03e-4 0.09375,0 0.0021,-2.03e-4 0.0917,-0.03095 0.09375,-0.03125 0.0021,-3.04e-4 0.09172,4.04e-4 0.09375,0 0.002,-4.04e-4 0.122989,-0.03075 0.125,-0.03125 0.002,-5.03e-4 0.09177,-0.03065 0.09375,-0.03125 0.002,-6.01e-4 0.06055,-0.03055 0.0625,-0.03125 0.002,-6.98e-4 0.09183,-0.03046 0.09375,-0.03125 0.0019,-7.93e-4 0.09188,-0.03036 0.09375,-0.03125 0.0019,-8.86e-4 0.09192,-0.06152 0.09375,-0.0625 0.0018,-9.77e-4 0.09197,-0.03019 0.09375,-0.03125 0.0018,-0.0011 0.06078,-0.06135 0.0625,-0.0625 0.0017,-0.0012 0.09208,-0.06127 0.09375,-0.0625 0.0017,-0.0012 0.0609,-0.06119 0.0625,-0.0625 0.0016,-0.0013 0.09221,-0.06111 0.09375,-0.0625 0.0015,-0.0014 0.06103,-0.06103 0.0625,-0.0625 l 4.96875,-4.96875 c 0.0015,-0.0015 0.06111,-0.06096 0.0625,-0.0625 0.0014,-0.0015 0.06119,-0.09215 0.0625,-0.09375 0.0013,-0.0016 0.06127,-0.06083 0.0625,-0.0625 0.0012,-0.0017 0.06135,-0.09203 0.0625,-0.09375 0.0012,-0.0017 0.06144,-0.06072 0.0625,-0.0625 0.0011,-0.0018 0.03027,-0.09192 0.03125,-0.09375 9.77e-4,-0.0018 0.06161,-0.09188 0.0625,-0.09375 8.86e-4,-0.0019 0.03046,-0.09183 0.03125,-0.09375 7.93e-4,-0.0019 0.03055,-0.0918 0.03125,-0.09375 6.98e-4,-0.002 0.03065,-0.06052 0.03125,-0.0625 6.01e-4,-0.002 0.03075,-0.09174 0.03125,-0.09375 5.03e-4,-0.002 0.03085,-0.122967 0.03125,-0.125 4.04e-4,-0.002 -3.04e-4,-0.0917 0,-0.09375 3.04e-4,-0.0021 0.03105,-0.09169 0.03125,-0.09375 2.03e-4,-0.0021 -1.02e-4,-0.09168 0,-0.09375 1.02e-4,-0.0021 0,-0.09168 0,-0.09375 0,-0.0021 1.02e-4,-0.09168 0,-0.09375 -1.02e-4,-0.0021 2.03e-4,-0.09169 0,-0.09375 -2.03e-4,-0.0021 -0.03095,-0.0917 -0.03125,-0.09375 -3.04e-4,-0.0021 4.04e-4,-0.09172 0,-0.09375 -4.04e-4,-0.002 -0.03075,-0.122989 -0.03125,-0.125 -5.03e-4,-0.002 -0.03065,-0.09177 -0.03125,-0.09375 -6.01e-4,-0.002 -0.03055,-0.06055 -0.03125,-0.0625 -6.98e-4,-0.002 -0.03046,-0.09183 -0.03125,-0.09375 -7.93e-4,-0.0019 -0.03036,-0.09188 -0.03125,-0.09375 -8.86e-4,-0.0019 -0.06152,-0.09192 -0.0625,-0.09375 -9.77e-4,-0.0018 -0.03019,-0.09197 -0.03125,-0.09375 -0.0011,-0.0018 -0.06135,-0.06078 -0.0625,-0.0625 -0.0012,-0.0017 -0.06127,-0.09208 -0.0625,-0.09375 -0.0012,-0.0017 -0.06119,-0.0609 -0.0625,-0.0625 -0.0013,-0.0016 -0.06111,-0.09221 -0.0625,-0.09375 -0.0014,-0.0015 -0.06104,-0.06103 -0.0625,-0.0625 C 63.367651,44.930151 55.671427,42 48,42 z m 0,2 c 7.16582,0 14.34516,2.72016 19.8125,8.1875 l -4.96875,4.96875 c -8.20101,-8.20101 -21.48649,-8.20101 -29.6875,0 L 28.1875,52.1875 C 33.65484,46.72016 40.83417,44 48,44 z m 0,12 c -4.089027,0 -8.194979,1.569979 -11.3125,4.6875 -0.0015,0.0015 -0.06111,0.06096 -0.0625,0.0625 -0.0014,0.0015 -0.06119,0.09215 -0.0625,0.09375 -0.0013,0.0016 -0.06127,0.06083 -0.0625,0.0625 -0.0012,0.0017 -0.06135,0.09203 -0.0625,0.09375 -0.0012,0.0017 -0.06144,0.06072 -0.0625,0.0625 -0.0011,0.0018 -0.03027,0.09192 -0.03125,0.09375 -9.77e-4,0.0018 -0.06161,0.09188 -0.0625,0.09375 -8.86e-4,0.0019 -0.03046,0.09183 -0.03125,0.09375 -7.93e-4,0.0019 -0.03055,0.0918 -0.03125,0.09375 -6.98e-4,0.002 -0.03065,0.06052 -0.03125,0.0625 -6.01e-4,0.002 -0.03075,0.09174 -0.03125,0.09375 -5.03e-4,0.002 -0.03085,0.122967 -0.03125,0.125 -4.04e-4,0.002 3.04e-4,0.0917 0,0.09375 -3.04e-4,0.0021 -0.03105,0.09169 -0.03125,0.09375 -2.03e-4,0.0021 1.02e-4,0.09168 0,0.09375 -1.02e-4,0.0021 0,0.09168 0,0.09375 0,0.0021 -1.02e-4,0.09168 0,0.09375 1.02e-4,0.0021 -2.03e-4,0.09169 0,0.09375 2.03e-4,0.0021 0.03095,0.0917 0.03125,0.09375 3.04e-4,0.0021 -4.04e-4,0.09172 0,0.09375 4.04e-4,0.002 0.03075,0.122989 0.03125,0.125 5.03e-4,0.002 0.03065,0.09177 0.03125,0.09375 6.01e-4,0.002 0.03055,0.06055 0.03125,0.0625 6.98e-4,0.002 0.03046,0.09183 0.03125,0.09375 7.93e-4,0.0019 0.03036,0.09188 0.03125,0.09375 8.86e-4,0.0019 0.06152,0.09192 0.0625,0.09375 9.77e-4,0.0018 0.03019,0.09197 0.03125,0.09375 0.0011,0.0018 0.06135,0.06078 0.0625,0.0625 0.0012,0.0017 0.06127,0.09208 0.0625,0.09375 0.0012,0.0017 0.06119,0.0609 0.0625,0.0625 0.0013,0.0016 0.06111,0.09221 0.0625,0.09375 0.0014,0.0015 0.06103,0.06103 0.0625,0.0625 l 9.90625,9.90625 c 0.0015,0.0015 0.06096,0.06111 0.0625,0.0625 0.0015,0.0014 0.09215,0.06119 0.09375,0.0625 0.0016,0.0013 0.06083,0.06127 0.0625,0.0625 0.0017,0.0012 0.09203,0.06135 0.09375,0.0625 0.0017,0.0012 0.06072,0.06144 0.0625,0.0625 0.0018,0.0011 0.09192,0.03027 0.09375,0.03125 0.0018,9.77e-4 0.09188,0.06161 0.09375,0.0625 0.0019,8.86e-4 0.09183,0.03046 0.09375,0.03125 0.0019,7.93e-4 0.0918,0.03055 0.09375,0.03125 0.002,6.98e-4 0.06052,0.03065 0.0625,0.03125 0.002,6.01e-4 0.09174,0.03075 0.09375,0.03125 0.002,5.03e-4 0.122967,0.03085 0.125,0.03125 0.002,4.04e-4 0.0917,-3.04e-4 0.09375,0 0.0021,3.04e-4 0.09169,0.03105 0.09375,0.03125 0.0021,2.03e-4 0.09168,-1.02e-4 0.09375,0 0.0021,1.02e-4 0.09168,0 0.09375,0 0.0021,0 0.09168,1.02e-4 0.09375,0 0.0021,-1.02e-4 0.09169,2.03e-4 0.09375,0 0.0021,-2.03e-4 0.0917,-0.03095 0.09375,-0.03125 0.0021,-3.04e-4 0.09172,4.04e-4 0.09375,0 0.002,-4.04e-4 0.122989,-0.03075 0.125,-0.03125 0.002,-5.03e-4 0.09177,-0.03065 0.09375,-0.03125 0.002,-6.01e-4 0.06055,-0.03055 0.0625,-0.03125 0.002,-6.98e-4 0.09183,-0.03046 0.09375,-0.03125 0.0019,-7.93e-4 0.09188,-0.03036 0.09375,-0.03125 0.0019,-8.86e-4 0.09192,-0.06152 0.09375,-0.0625 0.0018,-9.77e-4 0.09197,-0.03019 0.09375,-0.03125 0.0018,-0.0011 0.06078,-0.06135 0.0625,-0.0625 0.0017,-0.0012 0.09208,-0.06127 0.09375,-0.0625 0.0017,-0.0012 0.0609,-0.06119 0.0625,-0.0625 0.0016,-0.0013 0.09221,-0.06111 0.09375,-0.0625 0.0015,-0.0014 0.06103,-0.06104 0.0625,-0.0625 L 59.3125,63.5 c 0.0015,-0.0015 0.06111,-0.06096 0.0625,-0.0625 0.0014,-0.0015 0.06119,-0.09215 0.0625,-0.09375 0.0013,-0.0016 0.06127,-0.06083 0.0625,-0.0625 0.0012,-0.0017 0.06135,-0.09203 0.0625,-0.09375 0.0012,-0.0017 0.06144,-0.06072 0.0625,-0.0625 0.0011,-0.0018 0.03027,-0.09192 0.03125,-0.09375 9.77e-4,-0.0018 0.06161,-0.09188 0.0625,-0.09375 8.86e-4,-0.0019 0.03046,-0.09183 0.03125,-0.09375 7.93e-4,-0.0019 0.03055,-0.0918 0.03125,-0.09375 6.98e-4,-0.002 0.03065,-0.06052 0.03125,-0.0625 6.01e-4,-0.002 0.03075,-0.09174 0.03125,-0.09375 5.03e-4,-0.002 0.03085,-0.122967 0.03125,-0.125 4.04e-4,-0.002 -3.04e-4,-0.0917 0,-0.09375 3.04e-4,-0.0021 0.03105,-0.09169 0.03125,-0.09375 2.03e-4,-0.0021 -1.02e-4,-0.09168 0,-0.09375 1.02e-4,-0.0021 0,-0.09168 0,-0.09375 0,-0.0021 1.02e-4,-0.09168 0,-0.09375 -1.02e-4,-0.0021 2.03e-4,-0.09169 0,-0.09375 -2.03e-4,-0.0021 -0.03095,-0.0917 -0.03125,-0.09375 -3.04e-4,-0.0021 4.04e-4,-0.09172 0,-0.09375 -4.04e-4,-0.002 -0.03075,-0.122989 -0.03125,-0.125 C 59.843247,61.59175 59.8131,61.50198 59.8125,61.5 59.811899,61.498 59.78195,61.43945 59.78125,61.4375 59.780552,61.4355 59.75079,61.34567 59.75,61.34375 59.749207,61.34185 59.71964,61.25187 59.71875,61.25 59.717864,61.2481 59.65723,61.15808 59.65625,61.15625 59.655273,61.15445 59.62606,61.06428 59.625,61.0625 59.6239,61.0607 59.56365,61.00172 59.5625,61 59.5613,60.9983 59.50123,60.90792 59.5,60.90625 59.4988,60.90455 59.43881,60.84535 59.4375,60.84375 59.4362,60.84215 59.37639,60.75154 59.375,60.75 59.3736,60.7485 59.31397,60.68897 59.3125,60.6875 56.194979,57.569979 52.089027,56 48,56 z m 0,2 c 3.58291,0 7.17258,1.36008 9.90625,4.09375 L 48,72 38.09375,62.09375 C 40.82742,59.36008 44.41709,58 48,58 z"
       inkscape:connector-curvature="0"
       id="path3942"
       style="opacity:0.05;fill:#ffffff;fill-opacity:1;stroke:none" />
    <path
       d="m 48,28.9375 c -11.019358,0 -22.034387,4.221887 -30.4375,12.625 a 1.0613296,1.0613296 0 0 0 0,1.5 L 22.5,48 A 1.0613296,1.0613296 0 0 0 24,48 C 37.262758,34.737242 58.737242,34.737242 72,48 a 1.0613296,1.0613296 0 0 0 1.5,0 l 4.9375,-4.9375 a 1.0613296,1.0613296 0 0 0 0,-1.5 C 70.034387,33.159387 59.019358,28.9375 48,28.9375 z M 48,30 c 10.74874,0 21.48649,4.11149 29.6875,12.3125 L 72.75,47.25 C 59.08165,33.58165 36.91835,33.58165 23.25,47.25 L 18.3125,42.3125 C 26.51351,34.11149 37.25126,30 48,30 z m 0,12.9375 c -7.434391,0 -14.891151,2.828651 -20.5625,8.5 a 1.0613296,1.0613296 0 0 0 0,1.5 l 4.96875,4.96875 a 1.0613296,1.0613296 0 0 0 1.5,0 c 7.7958,-7.7958 20.3917,-7.7958 28.1875,0 a 1.0613296,1.0613296 0 0 0 1.5,0 L 68.5625,52.9375 a 1.0613296,1.0613296 0 0 0 0,-1.5 C 62.891151,45.766151 55.434382,42.9375 48,42.9375 z M 48,44 c 7.16582,0 14.34516,2.72016 19.8125,8.1875 l -4.96875,4.96875 c -8.20101,-8.20101 -21.48649,-8.20101 -29.6875,0 L 28.1875,52.1875 C 33.65484,46.72016 40.83417,44 48,44 z m 0,12.9375 c -3.851472,0 -7.718571,1.468571 -10.65625,4.40625 a 1.0613296,1.0613296 0 0 0 0,1.5 L 47.25,72.75 a 1.0613296,1.0613296 0 0 0 1.5,0 l 9.90625,-9.90625 a 1.0613296,1.0613296 0 0 0 0,-1.5 C 55.718571,58.406071 51.851472,56.9375 48,56.9375 z M 48,58 c 3.58291,0 7.17258,1.36008 9.90625,4.09375 L 48,72 38.09375,62.09375 C 40.82742,59.36008 44.41709,58 48,58 z"
       inkscape:connector-curvature="0"
       id="path3938"
       style="opacity:0.1;fill:#ffffff;fill-opacity:1;stroke:none" />
    <path
       d="m 48,37 c -8.957912,0 -17.915825,3.415825 -24.75,10.25 l -4.4375,-4.4375 c -0.169388,0.163894 -0.332702,0.332702 -0.5,0.5 L 23.25,48.25 c 13.66835,-13.66835 35.83165,-13.66835 49.5,0 l 4.9375,-4.9375 c -0.167298,-0.167298 -0.330612,-0.336106 -0.5,-0.5 L 72.75,47.25 C 65.915825,40.415825 56.957912,37 48,37 z m 0,14 c -5.371623,0 -10.743245,2.055745 -14.84375,6.15625 L 28.6875,52.6875 c -0.171376,0.162988 -0.331814,0.331814 -0.5,0.5 l 4.96875,4.96875 c 8.20101,-8.20101 21.48649,-8.20101 29.6875,0 L 67.8125,53.1875 c -0.168186,-0.168186 -0.328624,-0.337012 -0.5,-0.5 l -4.46875,4.46875 C 58.743245,53.055745 53.371623,51 48,51 z m -9.375,11.625 c -0.174644,0.157936 -0.362898,0.300398 -0.53125,0.46875 L 48,73 57.90625,63.09375 C 57.737898,62.925398 57.549644,62.782936 57.375,62.625 L 48,72 38.625,62.625 z"
       inkscape:connector-curvature="0"
       id="path3975-5"
       style="opacity:0.2;fill:#ffffff;fill-opacity:1;stroke:none" />
  </g>
</svg>
