/* XPM */
static char *google[] = {
/* columns rows colors chars-per-pixel */
"48 48 256 2",
"   c #000000",
".  c #012810",
"X  c #013917",
"o  c #013D19",
"O  c #1A3826",
"+  c #01451C",
"@  c #014A1E",
"#  c #015422",
"$  c #035926",
"%  c #1B4A2E",
"&  c #334C3D",
"*  c #0B612D",
"=  c #0A6C30",
"-  c #047731",
";  c #64500E",
":  c #7B5C06",
">  c #755706",
",  c #685B1A",
"<  c #7E6107",
"1  c #5D7434",
"2  c #737131",
"3  c #7E6837",
"4  c #267C48",
"5  c #4F5F55",
"6  c #555C45",
"7  c #4F6055",
"8  c #687959",
"9  c #6D6D6D",
"0  c #787A79",
"q  c #BD3131",
"w  c #B13A2F",
"e  c #DB2422",
"r  c #CC3A3A",
"t  c #DB3A39",
"y  c #D83B3B",
"u  c #CA392D",
"i  c #E02525",
"p  c #E12C2C",
"a  c #E23434",
"s  c #E33C3C",
"d  c #866607",
"f  c #906E07",
"g  c #947208",
"h  c #987708",
"j  c #9B7908",
"k  c #854630",
"l  c #A7583B",
"z  c #B0563C",
"x  c #9A613E",
"c  c #C5483A",
"v  c #D1433A",
"b  c #BA4D47",
"n  c #8E6F50",
"m  c #967857",
"M  c #A86E60",
"N  c #A17869",
"B  c #DC4242",
"V  c #DE5E5E",
"C  c #E34343",
"Z  c #E54C4C",
"A  c #E65454",
"S  c #C66C5C",
"D  c #E86262",
"F  c #028A37",
"G  c #048C39",
"H  c #0A8E3C",
"J  c #0A8438",
"K  c #14843C",
"L  c #158B3D",
"P  c #059339",
"I  c #0B933D",
"U  c #069B39",
"Y  c #0B9C3D",
"T  c #0F9C37",
"R  c #13903E",
"E  c #2C8C35",
"W  c #0CA23D",
"Q  c #06A038",
"!  c #11A53F",
"~  c #0D8E40",
"^  c #0E9440",
"/  c #0F9B40",
"(  c #129642",
")  c #1B9543",
"_  c #139C43",
"`  c #1D954C",
"'  c #199E48",
"]  c #189C43",
"[  c #158541",
"{  c #23934C",
"}  c #2E9542",
"|  c #3A9340",
" . c #239650",
".. c #289551",
"X. c #15A345",
"o. c #18A647",
"O. c #16A945",
"+. c #19A947",
"@. c #1CA34A",
"#. c #1AAB48",
"$. c #20A94C",
"%. c #28A246",
"&. c #508B43",
"*. c #46875F",
"=. c #5B8D6E",
"-. c #58986D",
";. c #5F9572",
":. c #7E817E",
">. c #649876",
",. c #5CA06F",
"<. c #5EA177",
"1. c #99921A",
"2. c #B69B0C",
"3. c #A59818",
"4. c #B59F18",
"5. c #BBA30F",
"6. c #B6A817",
"7. c #918C21",
"8. c #9E9321",
"9. c #929333",
"0. c #CDA10B",
"q. c #D8B60D",
"w. c #C0AE16",
"e. c #C9BE18",
"r. c #C8B717",
"t. c #D9BF13",
"y. c #D5BE13",
"u. c #D9AD0B",
"i. c #E8BC0E",
"p. c #E5B70D",
"a. c #E8BF10",
"s. c #E3BE10",
"d. c #DDB930",
"f. c #EABE29",
"g. c #E7B925",
"h. c #D2C519",
"j. c #D9C818",
"k. c #E8C20F",
"l. c #E5C412",
"z. c #E8C312",
"x. c #E3CC16",
"c. c #E9CB16",
"v. c #E2CE19",
"b. c #E6D51A",
"n. c #E9D319",
"m. c #EBC22D",
"M. c #EBC330",
"N. c #989B4A",
"B. c #909956",
"V. c #8C9650",
"C. c #A1A043",
"Z. c #B0A752",
"A. c #9D806F",
"S. c #8F9B61",
"D. c #919E62",
"F. c #9B8776",
"G. c #B68D7D",
"H. c #93A273",
"J. c #034F9E",
"K. c #05509C",
"L. c #105195",
"P. c #225887",
"I. c #2F6C92",
"U. c #346C9F",
"Y. c #387194",
"T. c #0B58A7",
"R. c #0B5BA9",
"E. c #115FAD",
"W. c #125AA4",
"Q. c #035EBD",
"!. c #085CB3",
"~. c #1966AB",
"^. c #0B62BB",
"/. c #1265BC",
"(. c #1568BE",
"). c #1866B6",
"_. c #2D7AB4",
"`. c #49778D",
"'. c #40769B",
"]. c #025FC0",
"[. c #0563C5",
"{. c #0A66C4",
"}. c #0E68C6",
"|. c #0565CB",
" X c #0B67C8",
".X c #0D69CA",
"XX c #136AC4",
"oX c #136CCA",
"OX c #186FC8",
"+X c #1671CF",
"@X c #1972CC",
"#X c #1E71C6",
"$X c #086CD5",
"%X c #0D70D7",
"&X c #0971DE",
"*X c #1573D5",
"=X c #1C75D1",
"-X c #1676DB",
";X c #1778DE",
":X c #0572E5",
">X c #0B75E4",
",X c #1077E3",
"<X c #1579E1",
"1X c #3B80A1",
"2X c #3782B4",
"3X c #598597",
"4X c #729E83",
"5X c #65939F",
"6X c #6E949A",
"7X c #4886A6",
"8X c #538DA3",
"9X c #5C93A5",
"0X c #6494A2",
"qX c #689AA4",
"wX c #78A3A7",
"eX c #878787",
"rX c #9B9C9B",
"tX c #82AB91",
"yX c #9EAD87",
"uX c #A6B697",
"iX c #ACBA91",
"pX c #86AAAA",
"aX c #97B7A3",
"sX c #89B5B5",
"dX c #96BAB6",
"fX c #A3A3A3",
"gX c #B6BFAE",
"hX c #9CC0BC",
"jX c #B0C0A7",
"kX c #AAC8B7",
"lX c #BAC7B6",
"zX c #B0D6BC",
"xX c #ADCBC3",
"cX c #BCD3CB",
"vX c #B6D1C0",
"bX c #B3C6C1",
"nX c #C0D4CA",
"mX c #CBD6CB",
"MX c #C8DCCE",
"NX c #CDDBD4",
"BX c #D2DED7",
"VX c #D6DBD8",
"CX c #D7D7D7",
"ZX c #D2E0D9",
"AX c #DEE5DF",
"SX c #DCE6E1",
"DX c #DDE8E3",
"FX c #EBEDEC",
"GX c #E4EBE6",
"HX c #ECF1EE",
"JX c #EFF4F0",
"KX c #F5F5F5",
"LX c #F6F8F7",
"PX c #F7F9F8",
"IX c #FBFBFB",
"UX c None",
/* pixels */
"UXUXUXUXUXUXUXUXUXUXUXUXUXUXUXUXUXUXUXUXUXUXUXUXUXUXUXUXUXUXUXUXUXUXUXUXUXUXUXUXUXUXUXUXUXUXUXUX",
"UXUXUXUXUXUXUXUXUXUXUXUXUXUXUXUXUXUXUXUXUXUXUXUXUXUXUXUXUXUXUXUXUXUXUXUXUXUXUXUXUXUXUXUXUXUXUXUX",
"UXUXUXUXUXUXUXUXUXUXUXUXUXUXUXUXUXUXUXUXUXUXUXUXUXUXUXUXUXUXUXUXUXUXUXUXUXUXUXUXUXUXUXUXUXUXUXUX",
"UXUXUXUX,.vXIXIXIXIXBXwX8XU.'.0XpXJXIXIXIXIXIXIXyXA D D D D D D D D D D D D D D D D S m UXUXUXUX",
"UXUXUX-.IXIXIXIXIXkXT.].|.$X|.|.[.I.HXIXIXIXIXIXFXb C Z Z Z C C C C Z C C C C C Z C C Z n UXUXUX",
"UXUXUXzXIXIXIXIXFX~.$X:X:X:X:X:X&X[.Y.JXIXIXIXIXIXlXr C C C C C C C C C C C C C C C C C S UXUXUX",
"UXUXUXIXIXIXIXIXwX|.:X:X:X:X>X>X>X&X[.5XIXIXIXIXIXIXM B C C Z C C C C C C C C s s s C s A UXUXUX",
"UXUXUXIXIXIXIXIX0X$X>X:X>X>X>X>X>X>X%XE.DXIXIXIXIXIXgXy C C C C C C C C C C C s s s a s A UXUXUX",
"UXUXUXIXIXIXIXIX9X$X>X>X>X,X,X,X,X,X,X}.0XIXIXIXIXIXIXb C C C C C C C C s s s s s a a a A UXUXUX",
"UXUXUXIXIXIXIXIX8X%X>X,X,X<X<X<X,X<X<X-X~.PXIXIXIXIXIXN v C C C s C C C C C s s s s a a Z UXUXUX",
"UXUXUXIXIXIXIXIX7X%X,X<X<X<X<X<X<X<X<X-XXXnXIXIXIXIXIXA.t C C C C C s C s s s s a a a a Z UXUXUX",
"UXUXUXIXIXIXIXIX7X%X;X;X;X<X<X<X<X<X<X<XOXpXIXIXIXIXIXF.y C s C C s C s s s s a a a a p Z UXUXUX",
"UXUXUXPXIXIXIXIXdXoX&X;X;X;X;X;X-X;X;X;X+X9XIXIXIXIXPXN t s s s s s s s s s a a a a p p C UXUXUX",
"UXUXUXPXIXIXIXIXDX/.-X;X;X;X;X-X<X;X;X-X+X9XIXIXIXPXPXw y s s s s s s s s s a a p p p p C UXUXUX",
"UXUXUXLXIXIXIXIXIX7X*X-X-X-X-X-X-X;X-X-X*X7XIXIXIXIXnXq a s s a v c z z c a t a p p p i C UXUXUX",
"UXUXUXLXIXPXIXPXPXsX.X-X-X-X-X*X-X;X=X;X+X9XPXIXIXPXF.u l &.%.#.+.#.#.#.#.#.E x u i i i s UXUXUX",
"UXUXUXVXIXIXIXPXIXHX_.=X-X*X*X-X=X-X*X-XOXdXIXIXIXmXk | #.#.#.+.+.+.+.+.+.O.O./ W 1 u e s UXUXUX",
"UXUXUX`.JXPXPXIXIXIXcXXX*X-X*X-X-X-X*X+X).AXIXIXKX8 R o.#.+.+.+.+.+.+.+.+.O.O.O.W W E q s UXUXUX",
"UXUXUX).3XIXIXPXKXIXIXdXXX*X*X*X*X*X*XXXxXPXPXKX-.L o.#.+.O.O.+.+.o.+.o.+.O._ X.! W Q T x UXUXUX",
"UXUXUX#XK.pXPXIXIXPXPXKXxX_.OX+X=XOX_.bXIXPXKX>.L ] o.o.o.o.o.+.+.o.o.o.O.O.O.X.W Q Q Q $.UXUXUX",
"UXUXUX=X].J.`.FXPXKXKXIXPXKXbXsXsXcXPXIXPXKX>.K ] o.o.o.o.o.o.o.X.o.o.o.O.X.O./ W W Q Q $.UXUXUX",
"UXUXUX=X|.].R.P.wXnXKXPXPXPXPXIXPXPXIXPXIX>.K ] X.X.o.X.o.o.X.o.O.X.o.X.X.O.X.X.! W Q Q $.UXUXUX",
"UXUXUX=X|.|.].!.T.L.P.`.`.3XpXPXIXIXPXPXCXK ] X.@.o.@.X.X.@.X.X.O.O.O.X.X.X.O.Q W W U U $.UXUXUX",
"UXUXUX=X|.|..X X}.XX/.E.).E.0XPXPXPXPXIXkXL X.X.X.X.X.X.X.X.X.X.X.X._ X.X./ O./ T T Q U $.UXUXUX",
"UXUXUX@X|.|.|. X.X.XoXoXoXXXpXLXKXIXKXIXSXL X.X._ X.X.' X.X.X.X.X.X.X.X.X./ X./ Y Y U U @.UXUXUX",
"UXUXUX@X[.|.|. X XoXoXoXoX^.0XPXIXKXIXKXPXkX) X.X.X.X.X.X._ ' X.X.X._ ' _ X./ X.Y Y Y U @.UXUXUX",
"UXUXUX@X[.[. X X X X}.oXoX/.Y.LXKXIXKXIXPXPXlX` _ _ _ X._ X._ X.X._ X._ X._ _ / Y Y U U @.UXUXUX",
"UXUXUXOX[.[.[.[.}.}.oXoXXXXXW.bXPXKXIXKXPXKXKXnX{ _ _ _ _ ' _ _ _ _ _ _ / _ / / Y Y U P @.UXUXUX",
"UXUXUXOX[.[.[.{. X}.}.}.XX/.R.`.KXIXKXPXKXKXIXIXMX{ ] _ _ _ X._ _ _ _ _ X./ / / Y P Y P ' UXUXUX",
"UXUXUXOXQ.[.^.^.^.!.~.7XqXsXxXBXPXKXKXKXIXKXKXKXKXBX{ ( _ _ _ _ _ _ _ _ _ / / ^ P Y U P ' UXUXUX",
"UXUXUXOX^.^.!.U.dXGXKXLXKXKXKXKXKXFXJXKXPXKXKXPXKXKXZX..( _ _ / _ _ _ _ / / / Y P Y P P ' UXUXUX",
"UXUXUX(.E.wXNXLXKXLXKXmXuXD.N.9.7.3.9.mXKXPXKXKXKXKXLXNX[ ( _ _ _ ^ _ ( _ / ^ ^ Y P U P ' UXUXUX",
"UXUXUXxXHXKXKXKXmXS.7.3.6.r.e.h.h.j.e.3.uXPXKXKXKXKXKXKX<.H _ ( ( / _ ^ / / ^ ^ Y P P P _ UXUXUX",
"UXUXUXLXKXKXJXH.3.6.e.j.n.b.b.b.b.b.b.h.6.S.GXKXKXKXKXKXNXK ^ ( ( ( ( ( ^ ^ ^ P P I P P ( UXUXUX",
"UXUXUXKXKXJXV.5.q.x.c.b.n.b.b.b.n.n.n.n.j.w.9.AXKXKXKXKXKX-.H ( ^ ( ^ / ^ Y ^ P I P G P _ UXUXUX",
"UXUXUXKXJXlX2.j.c.c.c.c.n.c.c.c.n.n.n.n.n.v.r.N.FXKXKXKXKXtXL ( ^ ^ ^ ^ ^ ^ ~ ~ I P P G ` UXUXUX",
"UXUXUXKXKXV.q.l.z.c.c.c.c.c.c.c.c.c.c.c.c.c.x.w.yXKXKXKXJXaXJ ^ ^ ^ ^ ~ ~ I H P P P G G ( UXUXUX",
"UXUXUXKXKX1.q.z.k.z.z.c.c.c.c.c.c.c.c.c.c.c.c.y.N.KXKXKXJXaXJ ~ ~ ^ I I I I I P G G G G ( UXUXUX",
"UXUXUXKXFX2.p.i.k.z.z.z.z.z.z.z.c.z.z.c.c.c.c.l.4.FXKXJXJX4XH I H H H H G H G G G G G G ( UXUXUX",
"UXUXUXKXKX3.p.p.i.k.a.a.a.z.a.z.z.a.z.z.l.z.l.a.5.VXKXJXKX7 J P G H H G G G G G F G F G ( UXUXUX",
"UXUXUXVXJXN.u.p.i.i.i.i.i.i.i.i.a.a.a.a.l.a.z.s.4.FXKXJXVX= F G G G G G J F G G G F G F K UXUXUX",
"UXUXUXrXJXgX0.q.i.i.p.p.i.i.i.i.i.a.i.i.i.a.i.s.C.JXJXJX=.- F ~ F F G G G F F F F F G H $ UXUXUX",
"UXUXUX7 fXCXZ.d.g.g.f.f.f.f.f.f.f.f.m.m.m.M.M.d.iXKXKXNX4  . . . . . . . . .` ` ` ` [ * X UXUXUX",
"UXUXUXO 9 N F., d f f f g g g h h h h h j j h 2 fXfXrX% @ $ $ $ # # # # # # # # @ @ + o . UXUXUX",
"UXUXUX  O 5 9 9 6 ; > : d : : : : d : d d < , eXeXeX& o @ @ @ @ @ @ @ + + + + + + o o .   UXUXUX",
"UXUXUXUXUX                                                                            UXUXUXUXUX",
"UXUXUXUXUXUXUXUXUXUXUXUXUXUXUXUXUXUXUXUXUXUXUXUXUXUXUXUXUXUXUXUXUXUXUXUXUXUXUXUXUXUXUXUXUXUXUXUX",
"UXUXUXUXUXUXUXUXUXUXUXUXUXUXUXUXUXUXUXUXUXUXUXUXUXUXUXUXUXUXUXUXUXUXUXUXUXUXUXUXUXUXUXUXUXUXUXUX"
};
