<?xml version="1.0" encoding="UTF-8" standalone="no"?>
<!-- Created with Inkscape (http://www.inkscape.org/) -->

<svg
   xmlns:dc="http://purl.org/dc/elements/1.1/"
   xmlns:cc="http://creativecommons.org/ns#"
   xmlns:rdf="http://www.w3.org/1999/02/22-rdf-syntax-ns#"
   xmlns:svg="http://www.w3.org/2000/svg"
   xmlns="http://www.w3.org/2000/svg"
   xmlns:xlink="http://www.w3.org/1999/xlink"
   xmlns:inkscape="http://www.inkscape.org/namespaces/inkscape"
   version="1.0"
   width="96"
   height="96"
   id="svg2408">
  <defs
     id="defs2410">
    <linearGradient
       id="linearGradient4384">
      <stop
         id="stop4386"
         style="stop-color:#ffffff;stop-opacity:1"
         offset="0" />
      <stop
         id="stop4388"
         style="stop-color:#ffffff;stop-opacity:0"
         offset="1" />
    </linearGradient>
    <linearGradient
       id="linearGradient4367">
      <stop
         id="stop4369"
         style="stop-color:#ffffff;stop-opacity:0.71755725"
         offset="0" />
      <stop
         id="stop4371"
         style="stop-color:#ffffff;stop-opacity:1"
         offset="1" />
    </linearGradient>
    <linearGradient
       x1="45.447727"
       y1="92.539597"
       x2="45.447727"
       y2="7.0165396"
       id="ButtonShadow"
       gradientUnits="userSpaceOnUse"
       gradientTransform="scale(1.0058652,0.994169)">
      <stop
         id="stop3750"
         style="stop-color:#000000;stop-opacity:1"
         offset="0" />
      <stop
         id="stop3752"
         style="stop-color:#000000;stop-opacity:0.58823532"
         offset="1" />
    </linearGradient>
    <linearGradient
       id="linearGradient3737">
      <stop
         id="stop3739"
         style="stop-color:#ffffff;stop-opacity:1"
         offset="0" />
      <stop
         id="stop3741"
         style="stop-color:#ffffff;stop-opacity:0"
         offset="1" />
    </linearGradient>
    <linearGradient
       id="linearGradient3700">
      <stop
         id="stop3702"
         style="stop-color:#2276c5;stop-opacity:1"
         offset="0" />
      <stop
         id="stop3704"
         style="stop-color:#68baf4;stop-opacity:1"
         offset="1" />
    </linearGradient>
    <filter
       color-interpolation-filters="sRGB"
       id="filter3174">
      <feGaussianBlur
         id="feGaussianBlur3176"
         stdDeviation="1.71" />
    </filter>
    <filter
       x="-0.192"
       y="-0.192"
       width="1.3839999"
       height="1.3839999"
       color-interpolation-filters="sRGB"
       id="filter3794">
      <feGaussianBlur
         id="feGaussianBlur3796"
         stdDeviation="5.28" />
    </filter>
    <linearGradient
       x1="48"
       y1="20.220806"
       x2="48"
       y2="138.66119"
       id="linearGradient3613"
       xlink:href="#linearGradient3737"
       gradientUnits="userSpaceOnUse" />
    <linearGradient
       x1="48"
       y1="90"
       x2="48"
       y2="5.9877172"
       id="linearGradient3617"
       xlink:href="#linearGradient3700"
       gradientUnits="userSpaceOnUse"
       gradientTransform="translate(110,0)" />
    <linearGradient
       x1="45.447727"
       y1="92.539597"
       x2="45.447727"
       y2="7.0165396"
       id="ButtonShadow-0"
       gradientUnits="userSpaceOnUse"
       gradientTransform="matrix(1.0058652,0,0,0.994169,100,0)">
      <stop
         id="stop3750-8"
         style="stop-color:#000000;stop-opacity:1"
         offset="0" />
      <stop
         id="stop3752-5"
         style="stop-color:#000000;stop-opacity:0.58823532"
         offset="1" />
    </linearGradient>
    <linearGradient
       x1="32.251034"
       y1="6.1317081"
       x2="32.251034"
       y2="90.238609"
       id="linearGradient3780"
       xlink:href="#ButtonShadow-0"
       gradientUnits="userSpaceOnUse"
       gradientTransform="matrix(1.0238095,0,0,1.0119048,-1.1428571,-98.071429)" />
    <linearGradient
       x1="32.251034"
       y1="6.1317081"
       x2="32.251034"
       y2="90.238609"
       id="linearGradient3772"
       xlink:href="#ButtonShadow-0"
       gradientUnits="userSpaceOnUse"
       gradientTransform="matrix(1.0238095,0,0,1.0119048,-1.1428571,-98.071429)" />
    <linearGradient
       x1="32.251034"
       y1="6.1317081"
       x2="32.251034"
       y2="90.238609"
       id="linearGradient3725"
       xlink:href="#ButtonShadow-0"
       gradientUnits="userSpaceOnUse"
       gradientTransform="matrix(1.0238095,0,0,1.0119048,-1.1428571,-98.071429)" />
    <linearGradient
       x1="32.251034"
       y1="6.1317081"
       x2="32.251034"
       y2="90.238609"
       id="linearGradient3721"
       xlink:href="#ButtonShadow-0"
       gradientUnits="userSpaceOnUse"
       gradientTransform="translate(0,-97)" />
    <linearGradient
       x1="32.251034"
       y1="6.1317081"
       x2="32.251034"
       y2="90.238609"
       id="linearGradient3026"
       xlink:href="#ButtonShadow-0"
       gradientUnits="userSpaceOnUse"
       gradientTransform="matrix(1.0238095,0,0,1.0119048,-1.1428571,-98.071429)" />
    <clipPath
       id="clipPath4355">
      <rect
         width="84"
         height="80"
         rx="6"
         ry="6"
         x="6"
         y="6"
         id="rect4357"
         style="fill:#ffffff;fill-opacity:1;fill-rule:nonzero;stroke:none" />
    </clipPath>
    <radialGradient
       cx="48"
       cy="87.792389"
       r="42"
       fx="48"
       fy="87.792389"
       id="radialGradient4375"
       xlink:href="#linearGradient4367"
       gradientUnits="userSpaceOnUse"
       gradientTransform="matrix(1,-6.7114942e-8,8.4282233e-8,1.2557894,109.99999,-24.505592)" />
    <linearGradient
       x1="48"
       y1="88"
       x2="48"
       y2="-40"
       id="linearGradient4390"
       xlink:href="#linearGradient4384"
       gradientUnits="userSpaceOnUse"
       gradientTransform="matrix(1,0,0,-1,0,92)" />
    <linearGradient
       x1="48"
       y1="82"
       x2="112.12357"
       y2="82.454597"
       id="linearGradient4429"
       xlink:href="#linearGradient4384"
       gradientUnits="userSpaceOnUse"
       spreadMethod="reflect" />
    <linearGradient
       id="linearGradient3843">
      <stop
         id="stop3845"
         style="stop-color:#523823;stop-opacity:1"
         offset="0" />
      <stop
         id="stop3847"
         style="stop-color:#79563a;stop-opacity:1"
         offset="0.11780351" />
      <stop
         id="stop3849"
         style="stop-color:#875c38;stop-opacity:1"
         offset="0.23809524" />
      <stop
         id="stop3851"
         style="stop-color:#a66e40;stop-opacity:1"
         offset="1" />
    </linearGradient>
    <linearGradient
       x1="8"
       y1="1033.3622"
       x2="50"
       y2="1033.3622"
       id="linearGradient3870"
       xlink:href="#linearGradient3843"
       gradientUnits="userSpaceOnUse"
       gradientTransform="translate(-2,-956.3622)"
       spreadMethod="reflect" />
    <linearGradient
       id="linearGradient4044">
      <stop
         id="stop4046"
         style="stop-color:#2f5a88;stop-opacity:1"
         offset="0" />
      <stop
         id="stop4048"
         style="stop-color:#346396;stop-opacity:0"
         offset="1" />
    </linearGradient>
    <linearGradient
       id="linearGradient3867">
      <stop
         id="stop3869"
         style="stop-color:#98bbe2;stop-opacity:1"
         offset="0" />
      <stop
         id="stop3871"
         style="stop-color:#3878bb;stop-opacity:1"
         offset="1" />
    </linearGradient>
    <linearGradient
       id="linearGradient3896">
      <stop
         id="stop3898"
         style="stop-color:#89b7e1;stop-opacity:1"
         offset="0" />
      <stop
         id="stop3974"
         style="stop-color:#85b4df;stop-opacity:1"
         offset="0.57428855" />
      <stop
         id="stop3972"
         style="stop-color:#77a9d9;stop-opacity:1"
         offset="0.75" />
      <stop
         id="stop3900"
         style="stop-color:#679cd2;stop-opacity:1"
         offset="1" />
    </linearGradient>
    <linearGradient
       id="linearGradient3904">
      <stop
         id="stop3906"
         style="stop-color:#d0e2f1;stop-opacity:1"
         offset="0" />
      <stop
         id="stop3976"
         style="stop-color:#c6dcef;stop-opacity:1"
         offset="0.60882944" />
      <stop
         id="stop3970"
         style="stop-color:#b1cfea;stop-opacity:1"
         offset="0.79731107" />
      <stop
         id="stop3908"
         style="stop-color:#92bce3;stop-opacity:1"
         offset="1" />
    </linearGradient>
    <linearGradient
       id="linearGradient3877">
      <stop
         id="stop3879"
         style="stop-color:#5f89b7;stop-opacity:1"
         offset="0" />
      <stop
         id="stop3881"
         style="stop-color:#4071a0;stop-opacity:1"
         offset="1" />
    </linearGradient>
    <linearGradient
       id="linearGradient3700-4">
      <stop
         id="stop3702-8"
         style="stop-color:#e0e0e0;stop-opacity:1"
         offset="0" />
      <stop
         id="stop3704-7"
         style="stop-color:#ffffff;stop-opacity:1"
         offset="1" />
    </linearGradient>
    <clipPath
       id="clipPath3185">
      <rect
         width="84"
         height="80"
         rx="6"
         ry="6"
         x="-104"
         y="8"
         id="rect3187"
         style="fill:url(#linearGradient3189);fill-opacity:1;fill-rule:nonzero;stroke:none" />
    </clipPath>
    <linearGradient
       x1="48"
       y1="90"
       x2="48"
       y2="5.9877172"
       id="linearGradient3189"
       xlink:href="#linearGradient3700"
       gradientUnits="userSpaceOnUse"
       gradientTransform="translate(-110,2)" />
    <linearGradient
       x1="48"
       y1="90"
       x2="48"
       y2="5.9877172"
       id="linearGradient3191"
       xlink:href="#linearGradient3700-4"
       gradientUnits="userSpaceOnUse"
       gradientTransform="matrix(1.0909091,0,0,1.0909091,-114.36364,-4.363636)" />
    <radialGradient
       cx="48"
       cy="-6.5500002"
       r="42"
       fx="48"
       fy="-6.5500002"
       id="radialGradient3193"
       xlink:href="#linearGradient3877"
       gradientUnits="userSpaceOnUse"
       gradientTransform="matrix(1.9047619,0,0,0.625,-153.42857,12.09375)" />
    <radialGradient
       cx="80.272285"
       cy="57.492752"
       r="21"
       fx="80.272285"
       fy="57.492752"
       id="radialGradient3195"
       xlink:href="#linearGradient3904"
       gradientUnits="userSpaceOnUse"
       gradientTransform="matrix(0,2.6037253,-2.4520544,0,88.1082,-168.17716)" />
    <radialGradient
       cx="30.791513"
       cy="55.203083"
       r="30.40625"
       fx="30.791513"
       fy="55.203083"
       id="radialGradient3197"
       xlink:href="#linearGradient3896"
       gradientUnits="userSpaceOnUse"
       gradientTransform="matrix(0,1.6122867,-1.6663814,0,22.20162,-1.5740113)" />
    <radialGradient
       cx="45.437672"
       cy="37.516293"
       r="16"
       fx="45.437672"
       fy="37.516293"
       id="radialGradient3199"
       xlink:href="#linearGradient3867"
       gradientUnits="userSpaceOnUse"
       gradientTransform="matrix(2.6228142e-8,1.7777777,-2.6666668,3.9342217e-8,148.04345,-47.000303)" />
    <linearGradient
       x1="49.922932"
       y1="26.065477"
       x2="55.387222"
       y2="42.517231"
       id="linearGradient3201"
       xlink:href="#linearGradient4044"
       gradientUnits="userSpaceOnUse"
       gradientTransform="translate(-110,0)" />
    <linearGradient
       x1="63.780933"
       y1="63.379192"
       x2="39.036816"
       y2="66.370422"
       id="linearGradient3203"
       xlink:href="#linearGradient4044"
       gradientUnits="userSpaceOnUse"
       gradientTransform="translate(-110,0)" />
    <linearGradient
       x1="25.870298"
       y1="51.93507"
       x2="36.988956"
       y2="30.996477"
       id="linearGradient3205"
       xlink:href="#linearGradient4044"
       gradientUnits="userSpaceOnUse"
       gradientTransform="translate(-110,0)" />
  </defs>
  <metadata
     id="metadata2413">
    <rdf:RDF>
      <cc:Work
         rdf:about="">
        <dc:format>image/svg+xml</dc:format>
        <dc:type
           rdf:resource="http://purl.org/dc/dcmitype/StillImage" />
        <dc:title />
      </cc:Work>
    </rdf:RDF>
  </metadata>
  <g
     id="layer2"
     style="display:none">
    <rect
       width="86"
       height="85"
       rx="6"
       ry="6"
       x="5"
       y="7"
       id="rect3745"
       style="opacity:0.9;fill:url(#ButtonShadow);fill-opacity:1;fill-rule:nonzero;stroke:none;filter:url(#filter3174)" />
  </g>
  <g
     id="layer3"
     style="display:inline">
    <path
       d="m 12,-95.03125 c -5.5110903,0 -10.03125,4.52016 -10.03125,10.03125 l 0,71 c 0,5.5110902 4.5201598,10.03125 10.03125,10.03125 l 72,0 c 5.51109,0 10.03125,-4.5201597 10.03125,-10.03125 l 0,-71 c 0,-5.51109 -4.52016,-10.03125 -10.03125,-10.03125 l -72,0 z"
       transform="scale(1,-1)"
       id="path3786"
       style="opacity:0.07999998;fill:url(#linearGradient3026);fill-opacity:1;fill-rule:nonzero;stroke:none;display:inline" />
    <path
       d="m 12,-94.03125 c -4.971633,0 -9.03125,4.059617 -9.03125,9.03125 l 0,71 c 0,4.9716329 4.0596171,9.03125 9.03125,9.03125 l 72,0 c 4.971633,0 9.03125,-4.059617 9.03125,-9.03125 l 0,-71 c 0,-4.971633 -4.059617,-9.03125 -9.03125,-9.03125 l -72,0 z"
       transform="scale(1,-1)"
       id="path3778"
       style="opacity:0.1;fill:url(#linearGradient3780);fill-opacity:1;fill-rule:nonzero;stroke:none;display:inline" />
    <path
       d="m 12,-93 c -4.4091333,0 -8,3.590867 -8,8 l 0,71 c 0,4.4091333 3.5908667,8 8,8 l 72,0 c 4.409133,0 8,-3.5908667 8,-8 l 0,-71 c 0,-4.409133 -3.590867,-8 -8,-8 l -72,0 z"
       transform="scale(1,-1)"
       id="path3770"
       style="opacity:0.2;fill:url(#linearGradient3772);fill-opacity:1;fill-rule:nonzero;stroke:none;display:inline" />
    <rect
       width="86"
       height="85"
       rx="7"
       ry="7"
       x="5"
       y="-92"
       transform="scale(1,-1)"
       id="rect3723"
       style="opacity:0.3;fill:url(#linearGradient3725);fill-opacity:1;fill-rule:nonzero;stroke:none;display:inline" />
    <rect
       width="84"
       height="84"
       rx="6"
       ry="6"
       x="6"
       y="-91"
       transform="scale(1,-1)"
       id="rect3716"
       style="opacity:0.45;fill:url(#linearGradient3721);fill-opacity:1;fill-rule:nonzero;stroke:none;display:inline" />
  </g>
  <g
     id="layer4">
    <rect
       width="84"
       height="26.000017"
       rx="6"
       ry="6"
       x="6"
       y="64"
       id="rect2841"
       style="color:#000000;fill:url(#linearGradient3870);fill-opacity:1;fill-rule:nonzero;stroke:none;stroke-width:1.5;marker:none;visibility:visible;display:inline;overflow:visible;enable-background:accumulate" />
    <path
       d="m 6,82 0,2 c 0,3.324 2.676,6 6,6 l 72,0 c 3.324,0 6,-2.676 6,-6 l 0,-2 c 0,3.324 -2.676,6 -6,6 L 12,88 C 8.676,88 6,85.324 6,82 z"
       inkscape:connector-curvature="0"
       id="rect4345"
       style="opacity:0.1;color:#000000;fill:#000000;fill-opacity:1;fill-rule:nonzero;stroke:none;stroke-width:1.5;marker:none;visibility:visible;display:inline;overflow:visible;enable-background:accumulate" />
    <path
       d="m 6,83 0,1 c 0,3.324 2.676,6 6,6 l 72,0 c 3.324,0 6,-2.676 6,-6 l 0,-1 c 0,3.324 -2.676,6 -6,6 L 12,89 C 8.676,89 6,86.324 6,83 z"
       inkscape:connector-curvature="0"
       id="rect4336"
       style="opacity:0.1;color:#000000;fill:#000000;fill-opacity:1;fill-rule:nonzero;stroke:none;stroke-width:1.5;marker:none;visibility:visible;display:inline;overflow:visible;enable-background:accumulate" />
    <path
       d="m 6,80 0,1 c 0,3.324 2.676,6 6,6 l 72,0 c 3.324,0 6,-2.676 6,-6 l 0,-1 c 0,3.324 -2.676,6 -6,6 L 12,86 C 8.676,86 6,83.324 6,80 z"
       inkscape:connector-curvature="0"
       id="path4412"
       style="opacity:0.2;fill:#000000;fill-opacity:1;fill-rule:nonzero;stroke:none" />
  </g>
  <g
     id="layer1">
    <g
       transform="translate(110,-2)"
       clip-path="url(#clipPath3185)"
       id="g3172">
      <path
         d="m -64,16 c -3.324,0 -6,2.676 -6,6 l 0,5.5 c 2.47995,-0.968744 5.176988,-1.5 8,-1.5 12.150264,0 22,9.849736 22,22 l 20,0 0,-22 0,-10 -44,0 z"
         inkscape:connector-curvature="0"
         id="path4012"
         style="fill:#dca325;fill-opacity:1;stroke:none" />
      <path
         d="m -40.0625,49.5 c -0.230003,3.446727 -1.239296,6.669962 -2.875,9.5 -0.08047,0.139231 -0.166586,0.268969 -0.25,0.40625 C -47.046019,65.756523 -54.026389,70 -62,70 c -2.827806,0 -5.516321,-0.529223 -8,-1.5 l 0,21.5 9.15625,0 L -38,90 -38,54 c 0,-1.806203 -0.80762,-3.401835 -2.0625,-4.5 z"
         inkscape:connector-curvature="0"
         id="path3999"
         style="fill:#3b9342;fill-opacity:1;stroke:none" />
      <path
         d="m -104,16 0,3.28125 0,52.71875 28,0 c 2.503387,0 4.629252,-1.518162 5.53125,-3.6875 C -74.93257,66.448341 -78.662781,63.151912 -81.0625,59 -81.159286,58.832543 -81.251288,58.670207 -81.34375,58.5 -83.037143,55.382748 -84,51.796958 -84,48 c 0,-9.327252 5.806228,-17.299263 14,-20.5 l 0,-5.5 c 0,-3.324 -2.676,-6 -6,-6 l -28,0 z"
         inkscape:connector-curvature="0"
         id="path3989"
         style="fill:#df2227;fill-opacity:1;stroke:none" />
      <path
         d="m -62,24 c -13.25484,0 -24,10.745164 -24,24 0,13.254836 10.74516,24 24,24 13.25484,0 24,-10.745164 24,-24 0,-13.254836 -10.74516,-24 -24,-24 z"
         inkscape:connector-curvature="0"
         id="rect3982"
         style="fill:url(#linearGradient3191);fill-opacity:1;fill-rule:nonzero;stroke:none" />
      <path
         d="m -98,6 c -3.324,0 -6,2.676 -6,6 l 0,7.28125 L -81.34375,58.5 C -83.037143,55.382748 -84,51.796958 -84,48 c 0,-12.150264 9.849736,-22 22,-22 l 42,0 0,-14 c 0,-3.324 -2.676,-6 -6,-6 l -72,0 z"
         inkscape:connector-curvature="0"
         id="path3824"
         style="fill:url(#radialGradient3193);fill-opacity:1;stroke:none" />
      <path
         d="m -62,26 c 12.150264,0 22,9.849736 22,22 0,4.004278 -1.068124,7.765671 -2.9375,11 -0.08047,0.139231 -0.166586,0.268969 -0.25,0.40625 L -60.84375,90 -26,90 c 3.324,0 6,-2.676 6,-6 l 0,-58 -42,0 z"
         inkscape:connector-curvature="0"
         id="path3847"
         style="fill:url(#radialGradient3195);fill-opacity:1;stroke:none" />
      <path
         d="M -104,19.28125 -104,84 c 0,3.324 2.676,6 6,6 l 37.15625,0 17.65625,-30.59375 C -47.046019,65.756523 -54.026389,70 -62,70 c -8.145986,0 -15.259591,-4.420337 -19.0625,-11 -0.09679,-0.167457 -0.188788,-0.329793 -0.28125,-0.5 L -104,19.28125 z"
         inkscape:connector-curvature="0"
         id="path3849"
         style="fill:url(#radialGradient3197);fill-opacity:1;stroke:none" />
      <path
         d="m 64,48 a 16,16 0 1 1 -32,0 16,16 0 1 1 32,0 z"
         transform="matrix(1.1875,0,0,1.1875,-119,-9)"
         id="path3822"
         style="color:#000000;fill:url(#radialGradient3199);fill-opacity:1;stroke:none;stroke-width:1;marker:none;visibility:visible;display:inline;overflow:visible;enable-background:accumulate" />
      <path
         d="m -62,26 c 6.945511,0 13.124331,3.223003 17.15625,8.25 L -20,28.15625 -20,26 -62,26 z"
         inkscape:connector-curvature="0"
         id="path3929"
         style="opacity:0.3;fill:url(#linearGradient3201);fill-opacity:1;stroke:none" />
      <path
         d="m -43.1875,59.40625 c -3.308282,5.444704 -8.912198,9.343326 -15.46875,10.34375 l -5.9375,20.25 3.75,0 17.65625,-30.59375 z"
         inkscape:connector-curvature="0"
         id="path3933"
         style="opacity:0.25;fill:url(#linearGradient3203);fill-opacity:1;stroke:none" />
      <path
         d="m -104,16.3125 0,2.96875 L -81.34375,58.5 C -83.037143,55.382748 -84,51.796958 -84,48 c 0,-2.872424 0.561262,-5.609468 1.5625,-8.125 L -104,16.3125 z"
         inkscape:connector-curvature="0"
         id="path3935"
         style="fill:url(#linearGradient3205);fill-opacity:1;stroke:none" />
    </g>
    <rect
       width="84"
       height="80"
       rx="6"
       ry="6"
       x="116"
       y="6"
       id="rect2419"
       style="fill:url(#linearGradient3617);fill-opacity:1;fill-rule:nonzero;stroke:none" />
    <path
       d="M 120.78125,6.125 C 118.04223,6.6826484 116,9.0915 116,12 l 0,68 c 0,3.324 2.676,6 6,6 l 72,0 c 3.324,0 6,-2.676 6,-6 l 0,-68 c 0,-2.9085 -2.04223,-5.3173516 -4.78125,-5.875 2.20512,0.5362071 3.8125,2.4908437 3.8125,4.875 l 0,68 c 0,2.80489 -2.22636,5.03125 -5.03125,5.03125 l -72,0 c -2.80489,0 -5.03125,-2.22636 -5.03125,-5.03125 l 0,-68 c 0,-2.3841563 1.60738,-4.3387929 3.8125,-4.875 z"
       inkscape:connector-curvature="0"
       id="rect4359"
       style="opacity:0.2;fill:url(#radialGradient4375);fill-opacity:1;fill-rule:nonzero;stroke:none" />
    <path
       d="M 12,86 C 8.676,86 6,83.324 6,80 L 6,12 C 6,8.676 8.676,6 12,6 l 72,0 c 3.324,0 6,2.676 6,6 l 0,68 c 0,3.324 -2.676,6 -6,6 z m 0,-0.96875 72,0 c 2.80489,0 5.03125,-2.22636 5.03125,-5.03125 l 0,-68 C 89.03125,9.19511 86.80489,6.96875 84,6.96875 l -72,0 C 9.1951102,6.96875 6.96875,9.19511 6.96875,12 l 0,68 c 0,2.80489 2.2263602,5.03125 5.03125,5.03125 z"
       inkscape:connector-curvature="0"
       id="rect4377"
       style="opacity:0.3;fill:url(#linearGradient4390);fill-opacity:1;fill-rule:nonzero;stroke:none" />
    <path
       d="m 6,78 0,2 c 0,3.324 2.676,6 6,6 l 72,0 c 3.324,0 6,-2.676 6,-6 l 0,-2 c 0,3.324 -2.676,6 -6,6 L 12,84 C 8.676,84 6,81.324 6,78 z"
       inkscape:connector-curvature="0"
       id="rect4414"
       style="opacity:0.1;fill:url(#linearGradient4429);fill-opacity:1;fill-rule:nonzero;stroke:none" />
  </g>
  <g
     id="layer5"
     style="display:inline">
    <rect
       width="66"
       height="62"
       rx="12"
       ry="12"
       x="15"
       y="15"
       clip-path="url(#clipPath4355)"
       id="rect3171"
       style="opacity:0.1;fill:url(#linearGradient3613);fill-opacity:1;fill-rule:nonzero;stroke:#ffffff;stroke-width:0.5;stroke-linecap:round;stroke-linejoin:miter;stroke-miterlimit:4;stroke-opacity:1;stroke-dasharray:none;stroke-dashoffset:0;filter:url(#filter3794)" />
  </g>
  <g
     id="layer6" />
</svg>
