<?xml version="1.0" encoding="UTF-8" standalone="no"?>
<!-- Created with Inkscape (http://www.inkscape.org/) -->

<svg
   xmlns:dc="http://purl.org/dc/elements/1.1/"
   xmlns:cc="http://creativecommons.org/ns#"
   xmlns:rdf="http://www.w3.org/1999/02/22-rdf-syntax-ns#"
   xmlns:svg="http://www.w3.org/2000/svg"
   xmlns="http://www.w3.org/2000/svg"
   xmlns:xlink="http://www.w3.org/1999/xlink"
   xmlns:inkscape="http://www.inkscape.org/namespaces/inkscape"
   version="1.0"
   width="96"
   height="96"
   id="svg2408">
  <defs
     id="defs2410">
    <linearGradient
       id="linearGradient4384">
      <stop
         id="stop4386"
         style="stop-color:#ffffff;stop-opacity:1"
         offset="0" />
      <stop
         id="stop4388"
         style="stop-color:#ffffff;stop-opacity:0"
         offset="1" />
    </linearGradient>
    <linearGradient
       id="linearGradient4367">
      <stop
         id="stop4369"
         style="stop-color:#ffffff;stop-opacity:0.71755725"
         offset="0" />
      <stop
         id="stop4371"
         style="stop-color:#ffffff;stop-opacity:1"
         offset="1" />
    </linearGradient>
    <linearGradient
       x1="45.447727"
       y1="92.539597"
       x2="45.447727"
       y2="7.0165396"
       id="ButtonShadow"
       gradientUnits="userSpaceOnUse"
       gradientTransform="scale(1.0058652,0.994169)">
      <stop
         id="stop3750"
         style="stop-color:#000000;stop-opacity:1"
         offset="0" />
      <stop
         id="stop3752"
         style="stop-color:#000000;stop-opacity:0.58823532"
         offset="1" />
    </linearGradient>
    <linearGradient
       id="linearGradient3737">
      <stop
         id="stop3739"
         style="stop-color:#ffffff;stop-opacity:1"
         offset="0" />
      <stop
         id="stop3741"
         style="stop-color:#ffffff;stop-opacity:0"
         offset="1" />
    </linearGradient>
    <filter
       color-interpolation-filters="sRGB"
       id="filter3174">
      <feGaussianBlur
         id="feGaussianBlur3176"
         stdDeviation="1.71" />
    </filter>
    <filter
       x="-0.192"
       y="-0.192"
       width="1.3839999"
       height="1.3839999"
       color-interpolation-filters="sRGB"
       id="filter3794">
      <feGaussianBlur
         id="feGaussianBlur3796"
         stdDeviation="5.28" />
    </filter>
    <linearGradient
       x1="48"
       y1="20.220806"
       x2="48"
       y2="138.66119"
       id="linearGradient3613"
       xlink:href="#linearGradient3737"
       gradientUnits="userSpaceOnUse" />
    <linearGradient
       x1="48"
       y1="90"
       x2="48"
       y2="5.9877172"
       id="linearGradient3617"
       xlink:href="#linearGradient3886"
       gradientUnits="userSpaceOnUse" />
    <linearGradient
       x1="45.447727"
       y1="92.539597"
       x2="45.447727"
       y2="7.0165396"
       id="ButtonShadow-0"
       gradientUnits="userSpaceOnUse"
       gradientTransform="matrix(1.0058652,0,0,0.994169,100,0)">
      <stop
         id="stop3750-8"
         style="stop-color:#000000;stop-opacity:1"
         offset="0" />
      <stop
         id="stop3752-5"
         style="stop-color:#000000;stop-opacity:0.58823532"
         offset="1" />
    </linearGradient>
    <linearGradient
       x1="32.251034"
       y1="6.1317081"
       x2="32.251034"
       y2="90.238609"
       id="linearGradient3780"
       xlink:href="#ButtonShadow-0"
       gradientUnits="userSpaceOnUse"
       gradientTransform="matrix(1.0238095,0,0,1.0119048,-1.1428571,-98.071429)" />
    <linearGradient
       x1="32.251034"
       y1="6.1317081"
       x2="32.251034"
       y2="90.238609"
       id="linearGradient3772"
       xlink:href="#ButtonShadow-0"
       gradientUnits="userSpaceOnUse"
       gradientTransform="matrix(1.0238095,0,0,1.0119048,-1.1428571,-98.071429)" />
    <linearGradient
       x1="32.251034"
       y1="6.1317081"
       x2="32.251034"
       y2="90.238609"
       id="linearGradient3725"
       xlink:href="#ButtonShadow-0"
       gradientUnits="userSpaceOnUse"
       gradientTransform="matrix(1.0238095,0,0,1.0119048,-1.1428571,-98.071429)" />
    <linearGradient
       x1="32.251034"
       y1="6.1317081"
       x2="32.251034"
       y2="90.238609"
       id="linearGradient3721"
       xlink:href="#ButtonShadow-0"
       gradientUnits="userSpaceOnUse"
       gradientTransform="translate(0,-97)" />
    <linearGradient
       x1="32.251034"
       y1="6.1317081"
       x2="32.251034"
       y2="90.238609"
       id="linearGradient3026"
       xlink:href="#ButtonShadow-0"
       gradientUnits="userSpaceOnUse"
       gradientTransform="matrix(1.0238095,0,0,1.0119048,-1.1428571,-98.071429)" />
    <clipPath
       id="clipPath4355">
      <rect
         width="84"
         height="80"
         rx="6"
         ry="6"
         x="6"
         y="6"
         id="rect4357"
         style="fill:#ffffff;fill-opacity:1;fill-rule:nonzero;stroke:none" />
    </clipPath>
    <radialGradient
       cx="48"
       cy="87.792389"
       r="42"
       fx="48"
       fy="87.792389"
       id="radialGradient4375"
       xlink:href="#linearGradient4367"
       gradientUnits="userSpaceOnUse"
       gradientTransform="matrix(1,-6.7114942e-8,8.4282233e-8,1.2557894,109.99999,-24.505592)" />
    <linearGradient
       x1="48"
       y1="88"
       x2="48"
       y2="-40"
       id="linearGradient4390"
       xlink:href="#linearGradient4384"
       gradientUnits="userSpaceOnUse"
       gradientTransform="matrix(1,0,0,-1,0,92)" />
    <linearGradient
       x1="48"
       y1="82"
       x2="112.12357"
       y2="82.454597"
       id="linearGradient4429"
       xlink:href="#linearGradient4384"
       gradientUnits="userSpaceOnUse"
       spreadMethod="reflect" />
    <linearGradient
       id="linearGradient3843">
      <stop
         id="stop3845"
         style="stop-color:#523823;stop-opacity:1"
         offset="0" />
      <stop
         id="stop3847"
         style="stop-color:#79563a;stop-opacity:1"
         offset="0.11780351" />
      <stop
         id="stop3849"
         style="stop-color:#875c38;stop-opacity:1"
         offset="0.23809524" />
      <stop
         id="stop3851"
         style="stop-color:#a66e40;stop-opacity:1"
         offset="1" />
    </linearGradient>
    <linearGradient
       x1="8"
       y1="1033.3622"
       x2="50"
       y2="1033.3622"
       id="linearGradient3870"
       xlink:href="#linearGradient3843"
       gradientUnits="userSpaceOnUse"
       gradientTransform="translate(-2,-956.3622)"
       spreadMethod="reflect" />
    <linearGradient
       id="linearGradient3886">
      <stop
         id="stop3888"
         style="stop-color:#0c77d1;stop-opacity:1"
         offset="0" />
      <stop
         id="stop3890"
         style="stop-color:#6fb1ee;stop-opacity:1"
         offset="1" />
    </linearGradient>
    <linearGradient
       x1="48"
       y1="59.064777"
       x2="69.017853"
       y2="59.064777"
       id="linearGradient3799"
       xlink:href="#linearGradient3801"
       gradientUnits="userSpaceOnUse"
       gradientTransform="translate(0,-2)" />
    <linearGradient
       id="linearGradient3801">
      <stop
         id="stop3803"
         style="stop-color:#107cd9;stop-opacity:1"
         offset="0" />
      <stop
         id="stop3805"
         style="stop-color:#79b8e8;stop-opacity:1"
         offset="1" />
    </linearGradient>
    <linearGradient
       x1="31.085375"
       y1="59.064777"
       x2="48.11248"
       y2="59.064777"
       id="linearGradient3790"
       xlink:href="#linearGradient3784"
       gradientUnits="userSpaceOnUse"
       gradientTransform="translate(0,-2)" />
    <linearGradient
       id="linearGradient3784">
      <stop
         id="stop3786"
         style="stop-color:#1b8cee;stop-opacity:1"
         offset="0" />
      <stop
         id="stop3788"
         style="stop-color:#79b8e8;stop-opacity:1"
         offset="1" />
    </linearGradient>
    <linearGradient
       x1="19.068768"
       y1="53.649677"
       x2="47.885559"
       y2="53.649677"
       id="linearGradient3763"
       xlink:href="#linearGradient3757"
       gradientUnits="userSpaceOnUse"
       gradientTransform="translate(0,-2)" />
    <linearGradient
       id="linearGradient3757">
      <stop
         id="stop3759"
         style="stop-color:#389bed;stop-opacity:1"
         offset="0" />
      <stop
         id="stop3761"
         style="stop-color:#c2e5fc;stop-opacity:1"
         offset="1" />
    </linearGradient>
    <linearGradient
       x1="47.916729"
       y1="53.649677"
       x2="76.733521"
       y2="53.649677"
       id="linearGradient3773"
       xlink:href="#linearGradient3757"
       gradientUnits="userSpaceOnUse"
       gradientTransform="translate(0,-2)" />
    <linearGradient
       x1="48"
       y1="59.064777"
       x2="69.017853"
       y2="59.064777"
       id="linearGradient3738"
       xlink:href="#linearGradient3724"
       gradientUnits="userSpaceOnUse"
       gradientTransform="translate(0,-2)" />
    <linearGradient
       id="linearGradient3724">
      <stop
         id="stop3726"
         style="stop-color:#0d82e4;stop-opacity:1"
         offset="0" />
      <stop
         id="stop3728"
         style="stop-color:#bcdbf7;stop-opacity:1"
         offset="1" />
    </linearGradient>
    <linearGradient
       x1="48.077351"
       y1="47.979362"
       x2="65.11248"
       y2="47.979362"
       id="linearGradient3722"
       xlink:href="#linearGradient3707"
       gradientUnits="userSpaceOnUse"
       gradientTransform="translate(0,-2)" />
    <linearGradient
       id="linearGradient3707">
      <stop
         id="stop3709"
         style="stop-color:#a8d4fb;stop-opacity:1"
         offset="0" />
      <stop
         id="stop3711"
         style="stop-color:#dff0fa;stop-opacity:1"
         offset="1" />
    </linearGradient>
    <linearGradient
       x1="27.3953"
       y1="59.064777"
       x2="48.11248"
       y2="59.064777"
       id="linearGradient3730"
       xlink:href="#linearGradient3724"
       gradientUnits="userSpaceOnUse"
       gradientTransform="translate(0,-2)" />
    <linearGradient
       x1="31"
       y1="47.979362"
       x2="48.03513"
       y2="47.979362"
       id="linearGradient3713"
       xlink:href="#linearGradient3707"
       gradientUnits="userSpaceOnUse"
       gradientTransform="translate(0,-2)" />
    <linearGradient
       x1="19.288221"
       y1="33.25"
       x2="47.995289"
       y2="33.25"
       id="linearGradient3755"
       xlink:href="#linearGradient3748"
       gradientUnits="userSpaceOnUse"
       gradientTransform="translate(0,-2)" />
    <linearGradient
       id="linearGradient3748">
      <stop
         id="stop3751"
         style="stop-color:#5aabf2;stop-opacity:1"
         offset="0" />
      <stop
         id="stop3753"
         style="stop-color:#badaf5;stop-opacity:1"
         offset="1" />
    </linearGradient>
    <linearGradient
       x1="47.916752"
       y1="33.304859"
       x2="76.623817"
       y2="33.304859"
       id="linearGradient3746"
       xlink:href="#linearGradient3740"
       gradientUnits="userSpaceOnUse"
       gradientTransform="translate(0,-2)" />
    <linearGradient
       id="linearGradient3740">
      <stop
         id="stop3742"
         style="stop-color:#5cacf5;stop-opacity:1"
         offset="0" />
      <stop
         id="stop3744"
         style="stop-color:#abd4f4;stop-opacity:1"
         offset="1" />
    </linearGradient>
    <linearGradient
       x1="47.835155"
       y1="74.687927"
       x2="48.321796"
       y2="28.007326"
       id="linearGradient3782"
       xlink:href="#linearGradient3731"
       gradientUnits="userSpaceOnUse" />
    <linearGradient
       id="linearGradient3731">
      <stop
         id="stop3733"
         style="stop-color:#552200;stop-opacity:1"
         offset="0" />
      <stop
         id="stop3735"
         style="stop-color:#552200;stop-opacity:0"
         offset="1" />
    </linearGradient>
    <linearGradient
       x1="53.245571"
       y1="77.264755"
       x2="53.245571"
       y2="21.94384"
       id="linearGradient3739"
       xlink:href="#linearGradient3731"
       gradientUnits="userSpaceOnUse" />
    <linearGradient
       x1="53.245571"
       y1="77.264755"
       x2="53.245571"
       y2="21.94384"
       id="linearGradient3764"
       xlink:href="#linearGradient3731"
       gradientUnits="userSpaceOnUse"
       gradientTransform="translate(0,-2)" />
    <linearGradient
       x1="53.245571"
       y1="77.264755"
       x2="53.245571"
       y2="21.94384"
       id="linearGradient3774"
       xlink:href="#linearGradient3731"
       gradientUnits="userSpaceOnUse" />
  </defs>
  <metadata
     id="metadata2413">
    <rdf:RDF>
      <cc:Work
         rdf:about="">
        <dc:format>image/svg+xml</dc:format>
        <dc:type
           rdf:resource="http://purl.org/dc/dcmitype/StillImage" />
        <dc:title />
      </cc:Work>
    </rdf:RDF>
  </metadata>
  <g
     id="layer2"
     style="display:none">
    <rect
       width="86"
       height="85"
       rx="6"
       ry="6"
       x="5"
       y="7"
       id="rect3745"
       style="opacity:0.9;fill:url(#ButtonShadow);fill-opacity:1;fill-rule:nonzero;stroke:none;filter:url(#filter3174)" />
  </g>
  <g
     id="layer3"
     style="display:inline">
    <path
       d="m 12,-95.03125 c -5.5110903,0 -10.03125,4.52016 -10.03125,10.03125 l 0,71 c 0,5.5110902 4.5201598,10.03125 10.03125,10.03125 l 72,0 c 5.51109,0 10.03125,-4.5201597 10.03125,-10.03125 l 0,-71 c 0,-5.51109 -4.52016,-10.03125 -10.03125,-10.03125 l -72,0 z"
       transform="scale(1,-1)"
       id="path3786"
       style="opacity:0.07999998;fill:url(#linearGradient3026);fill-opacity:1;fill-rule:nonzero;stroke:none;display:inline" />
    <path
       d="m 12,-94.03125 c -4.971633,0 -9.03125,4.059617 -9.03125,9.03125 l 0,71 c 0,4.9716329 4.0596171,9.03125 9.03125,9.03125 l 72,0 c 4.971633,0 9.03125,-4.059617 9.03125,-9.03125 l 0,-71 c 0,-4.971633 -4.059617,-9.03125 -9.03125,-9.03125 l -72,0 z"
       transform="scale(1,-1)"
       id="path3778"
       style="opacity:0.1;fill:url(#linearGradient3780);fill-opacity:1;fill-rule:nonzero;stroke:none;display:inline" />
    <path
       d="m 12,-93 c -4.4091333,0 -8,3.590867 -8,8 l 0,71 c 0,4.4091333 3.5908667,8 8,8 l 72,0 c 4.409133,0 8,-3.5908667 8,-8 l 0,-71 c 0,-4.409133 -3.590867,-8 -8,-8 l -72,0 z"
       transform="scale(1,-1)"
       id="path3770"
       style="opacity:0.2;fill:url(#linearGradient3772);fill-opacity:1;fill-rule:nonzero;stroke:none;display:inline" />
    <rect
       width="86"
       height="85"
       rx="7"
       ry="7"
       x="5"
       y="-92"
       transform="scale(1,-1)"
       id="rect3723"
       style="opacity:0.3;fill:url(#linearGradient3725);fill-opacity:1;fill-rule:nonzero;stroke:none;display:inline" />
    <rect
       width="84"
       height="84"
       rx="6"
       ry="6"
       x="6"
       y="-91"
       transform="scale(1,-1)"
       id="rect3716"
       style="opacity:0.45;fill:url(#linearGradient3721);fill-opacity:1;fill-rule:nonzero;stroke:none;display:inline" />
  </g>
  <g
     id="layer4">
    <rect
       width="84"
       height="26.000017"
       rx="6"
       ry="6"
       x="6"
       y="64"
       id="rect2841"
       style="color:#000000;fill:url(#linearGradient3870);fill-opacity:1;fill-rule:nonzero;stroke:none;stroke-width:1.5;marker:none;visibility:visible;display:inline;overflow:visible;enable-background:accumulate" />
    <path
       d="m 6,82 0,2 c 0,3.324 2.676,6 6,6 l 72,0 c 3.324,0 6,-2.676 6,-6 l 0,-2 c 0,3.324 -2.676,6 -6,6 L 12,88 C 8.676,88 6,85.324 6,82 z"
       inkscape:connector-curvature="0"
       id="rect4345"
       style="opacity:0.1;color:#000000;fill:#000000;fill-opacity:1;fill-rule:nonzero;stroke:none;stroke-width:1.5;marker:none;visibility:visible;display:inline;overflow:visible;enable-background:accumulate" />
    <path
       d="m 6,83 0,1 c 0,3.324 2.676,6 6,6 l 72,0 c 3.324,0 6,-2.676 6,-6 l 0,-1 c 0,3.324 -2.676,6 -6,6 L 12,89 C 8.676,89 6,86.324 6,83 z"
       inkscape:connector-curvature="0"
       id="rect4336"
       style="opacity:0.1;color:#000000;fill:#000000;fill-opacity:1;fill-rule:nonzero;stroke:none;stroke-width:1.5;marker:none;visibility:visible;display:inline;overflow:visible;enable-background:accumulate" />
    <path
       d="m 6,80 0,1 c 0,3.324 2.676,6 6,6 l 72,0 c 3.324,0 6,-2.676 6,-6 l 0,-1 c 0,3.324 -2.676,6 -6,6 L 12,86 C 8.676,86 6,83.324 6,80 z"
       inkscape:connector-curvature="0"
       id="path4412"
       style="opacity:0.2;fill:#000000;fill-opacity:1;fill-rule:nonzero;stroke:none" />
  </g>
  <g
     id="layer1">
    <rect
       width="84"
       height="80"
       rx="6"
       ry="6"
       x="6"
       y="6"
       id="rect2419"
       style="fill:url(#linearGradient3617);fill-opacity:1;fill-rule:nonzero;stroke:none" />
    <path
       d="M 120.78125,6.125 C 118.04223,6.6826484 116,9.0915 116,12 l 0,68 c 0,3.324 2.676,6 6,6 l 72,0 c 3.324,0 6,-2.676 6,-6 l 0,-68 c 0,-2.9085 -2.04223,-5.3173516 -4.78125,-5.875 2.20512,0.5362071 3.8125,2.4908437 3.8125,4.875 l 0,68 c 0,2.80489 -2.22636,5.03125 -5.03125,5.03125 l -72,0 c -2.80489,0 -5.03125,-2.22636 -5.03125,-5.03125 l 0,-68 c 0,-2.3841563 1.60738,-4.3387929 3.8125,-4.875 z"
       inkscape:connector-curvature="0"
       id="rect4359"
       style="opacity:0.2;fill:url(#radialGradient4375);fill-opacity:1;fill-rule:nonzero;stroke:none" />
    <path
       d="M 12,86 C 8.676,86 6,83.324 6,80 L 6,12 C 6,8.676 8.676,6 12,6 l 72,0 c 3.324,0 6,2.676 6,6 l 0,68 c 0,3.324 -2.676,6 -6,6 z m 0,-0.96875 72,0 c 2.80489,0 5.03125,-2.22636 5.03125,-5.03125 l 0,-68 C 89.03125,9.19511 86.80489,6.96875 84,6.96875 l -72,0 C 9.1951102,6.96875 6.96875,9.19511 6.96875,12 l 0,68 c 0,2.80489 2.2263602,5.03125 5.03125,5.03125 z"
       inkscape:connector-curvature="0"
       id="rect4377"
       style="opacity:0.3;fill:url(#linearGradient4390);fill-opacity:1;fill-rule:nonzero;stroke:none" />
    <path
       d="m 6,78 0,2 c 0,3.324 2.676,6 6,6 l 72,0 c 3.324,0 6,-2.676 6,-6 l 0,-2 c 0,3.324 -2.676,6 -6,6 L 12,84 C 8.676,84 6,81.324 6,78 z"
       inkscape:connector-curvature="0"
       id="rect4414"
       style="opacity:0.1;fill:url(#linearGradient4429);fill-opacity:1;fill-rule:nonzero;stroke:none" />
  </g>
  <g
     id="layer5"
     style="display:inline">
    <rect
       width="66"
       height="62"
       rx="12"
       ry="12"
       x="15"
       y="15"
       clip-path="url(#clipPath4355)"
       id="rect3171"
       style="opacity:0.1;fill:url(#linearGradient3613);fill-opacity:1;fill-rule:nonzero;stroke:#ffffff;stroke-width:0.5;stroke-linecap:round;stroke-linejoin:miter;stroke-miterlimit:4;stroke-opacity:1;stroke-dasharray:none;stroke-dashoffset:0;filter:url(#filter3794)" />
  </g>
  <g
     id="layer6">
    <path
       d="m 36.0625,20.53125 a 1.0566354,1.0566354 0 0 0 -0.375,0.09375 c -3.236851,1.54755 -6.059887,3.67115 -9,5.3125 a 1.0566354,1.0566354 0 0 0 -0.0625,0.03125 c -3.187868,2.02748 -6.654855,3.863874 -9.84375,6.15625 a 1.0566354,1.0566354 0 0 0 -0.1875,0.1875 c -0.548347,0.672318 -0.843795,1.418183 -0.84375,2.15625 4.5e-5,0.738067 0.273534,1.397495 0.625,1.9375 0.666884,1.024626 1.599926,1.732206 2.3125,2.3125 0.0357,0.0421 0.08814,0.08334 0.125,0.125 1.122089,1.268007 2.751725,2.316708 4.15625,3.375 1.243546,0.936997 1.90644,1.777735 2.1875,2.3125 -2.926183,2.395535 -6.058915,4.644332 -8.90625,7.3125 A 1.0566354,1.0566354 0 0 0 16.03125,52.125 c -0.459359,0.84228 -0.593073,1.719223 -0.40625,2.5 0.186823,0.780777 0.645536,1.39124 1.15625,1.875 1.021428,0.967519 2.316598,1.579911 3.09375,2.09375 a 1.0566354,1.0566354 0 0 0 0.03125,0 c 2.546665,1.628596 5.090532,3.224665 7.59375,4.875 -0.0587,1.185825 0.251147,2.287626 0.9375,3.0625 0.825551,0.932024 1.916649,1.547898 2.84375,2.03125 l 0,0.03125 c 0.03759,0.02635 0.08741,0.03613 0.125,0.0625 5.014154,3.51744 9.973265,7.187759 15.125,10.5625 a 1.0566354,1.0566354 0 0 0 0.3125,0.15625 c 1.513141,0.423542 2.854848,-0.21468 3.84375,-0.90625 0.988902,-0.69157 1.818779,-1.456754 2.5,-1.8125 a 1.0566354,1.0566354 0 0 0 0.125,-0.09375 C 57.98417,73.17538 62.86232,70.029199 67.53125,66.5 a 1.0566354,1.0566354 0 0 0 0.3125,-0.375 c 0.567218,-1.138897 0.675647,-2.190772 0.90625,-2.8125 0.230603,-0.621728 0.362012,-0.856583 1.375,-1.125 a 1.0566354,1.0566354 0 0 0 0.3125,-0.15625 c 2.909016,-1.924154 6.08098,-3.643556 8.96875,-5.875 a 1.0566354,1.0566354 0 0 0 0.21875,-0.25 c 0.869327,-1.263538 0.668078,-2.780629 0.03125,-3.8125 -0.594996,-0.96409 -1.495736,-1.616524 -2.3125,-2.125 L 77.375,49.9375 c -0.05337,-0.04801 -0.133313,-0.07706 -0.1875,-0.125 -2.199166,-1.945544 -4.863419,-3.816418 -6.53125,-5.5 2.906965,-2.521705 6.004433,-4.948344 8.8125,-7.6875 a 1.0566354,1.0566354 0 0 0 0.1875,-0.28125 c 0.480281,-0.93358 0.587678,-1.894688 0.3125,-2.71875 -0.275178,-0.824062 -0.836009,-1.452903 -1.4375,-1.9375 -1.202983,-0.969195 -2.719362,-1.597253 -3.46875,-2.125 A 1.0566354,1.0566354 0 0 0 75,29.53125 C 70.199637,26.648393 65.468436,23.632784 60.5625,20.84375 A 1.0566354,1.0566354 0 0 0 60.25,20.71875 C 58.636513,20.37212 57.308383,21.172774 56.375,22 c -0.933383,0.827226 -1.687782,1.705829 -2.34375,2.09375 a 1.0566354,1.0566354 0 0 0 -0.0625,0.03125 c -1.267661,0.882218 -2.434387,2.098856 -3.5625,3.125 C 49.417475,28.1494 48.502605,28.720685 47.75,29.03125 44.538143,26.397079 41.489697,23.383028 38,20.875 A 1.0566354,1.0566354 0 0 0 37.78125,20.75 c -0.685546,-0.277774 -1.281837,-0.216781 -1.625,-0.21875 a 1.0566354,1.0566354 0 0 0 -0.09375,0 z"
       transform="translate(0,-2)"
       id="path3771"
       style="opacity:0.05;color:#000000;fill:url(#linearGradient3774);fill-opacity:1;fill-rule:nonzero;stroke:none;stroke-width:1;marker:none;visibility:visible;display:inline;overflow:visible;enable-background:accumulate" />
    <path
       d="m 36.15625,19.59375 c -3.11202,1.487868 -5.947267,3.586995 -8.968666,5.273724 -3.238132,2.059448 -6.673647,3.867277 -9.781334,6.101276 -1.718019,2.106431 0.615013,3.833892 2.096332,5.054956 1.897732,2.238169 6.709048,4.47438 7.046575,6.714937 -3.16527,2.655087 -6.575957,5.07096 -9.580407,7.886357 -1.459629,2.676372 1.749738,3.931457 3.504798,5.091872 2.679286,1.713407 5.376038,3.400011 8.026452,5.158128 -0.711335,2.376744 1.565758,3.91405 3.375,4.84375 5.065088,3.550629 10.091821,7.246038 15.25,10.625 2.261001,0.632875 3.770616,-1.682764 5.554776,-2.614485 4.702616,-3.409557 9.59929,-6.575372 14.226474,-10.073015 0.930009,-1.867332 0.38408,-3.816775 2.934145,-4.49248 2.958571,-1.956932 6.110231,-3.688131 8.909605,-5.85127 1.288049,-1.872136 -0.574843,-3.689453 -2.09375,-4.59375 -2.378531,-2.139534 -5.811139,-4.272972 -7.5625,-6.40625 3.189054,-2.823848 6.59187,-5.478805 9.625,-8.4375 1.53236,-2.978632 -2.406054,-4.130045 -4.242931,-5.423641 C 69.659488,25.558913 64.906298,22.521474 60.03125,19.75 c -2.417754,-0.519413 -3.675878,2.183955 -5.47771,3.249508 -2.284176,1.589653 -4.638487,4.716994 -6.904768,5.327486 C 44.168689,25.542153 40.969067,22.301788 37.375,19.71875 c -0.392542,-0.159053 -0.808917,-0.122648 -1.21875,-0.125 z"
       inkscape:connector-curvature="0"
       id="path3746"
       style="opacity:0.1;color:#000000;fill:url(#linearGradient3764);fill-opacity:1;fill-rule:nonzero;stroke:none;stroke-width:1;marker:none;visibility:visible;display:inline;overflow:visible;enable-background:accumulate" />
    <path
       d="M 36.3125,22.53125 A 0.80774307,0.80774307 0 0 0 36,22.65625 c -5.864787,3.526154 -11.844527,7.141703 -17.6875,10.75 A 0.80774307,0.80774307 0 0 0 18.09375,33.625 c -0.279021,0.385356 -0.401754,0.921024 -0.28125,1.34375 0.120504,0.422726 0.388311,0.683668 0.625,0.90625 0.473377,0.445164 1.008184,0.778161 1.125,0.90625 A 0.80774307,0.80774307 0 0 0 19.625,36.875 c 2.958674,2.538312 5.984957,4.980459 8.875,7.53125 -0.02031,0.01581 -0.0067,0.01411 -0.03125,0.03125 -0.232119,0.161903 -0.636516,0.425729 -1,0.8125 L 27.4375,45.21875 c -3.14791,2.552255 -6.331953,5.061416 -9.46875,7.65625 a 0.80774307,0.80774307 0 0 0 -0.1875,0.21875 c -0.219363,0.383366 -0.296981,0.889951 -0.15625,1.28125 0.140731,0.391299 0.38662,0.654858 0.625,0.84375 0.47676,0.377784 1.017215,0.596198 1.1875,0.71875 a 0.80774307,0.80774307 0 0 0 0.03125,0.03125 c 3.332036,2.153237 6.708122,4.194981 9.96875,6.375 0.06811,0.426712 -0.09472,1.059797 -0.03125,1.96875 a 0.80774307,0.80774307 0 0 0 0.125,0.375 c 0.819403,1.228396 2.236272,1.687117 2.90625,2.28125 a 0.80774307,0.80774307 0 0 0 0.0625,0.0625 c 4.920145,3.434697 9.842475,6.959758 14.78125,10.34375 A 0.80774307,0.80774307 0 0 0 47.625,77.5 c 0.822244,0.136774 1.463905,-0.298514 1.90625,-0.65625 0.442345,-0.357736 0.790046,-0.657431 1,-0.75 A 0.80774307,0.80774307 0 0 0 50.6875,76 c 5.08402,-3.644668 10.302704,-7.224188 15.375,-10.8125 a 0.80774307,0.80774307 0 0 0 0.125,-0.125 c 0.319835,-0.349054 0.437226,-0.78979 0.46875,-1.15625 0.03152,-0.36646 2.02e-4,-0.659642 -0.03125,-0.9375 -0.05872,-0.518709 -0.02865,-0.770646 0.03125,-0.875 3.683539,-2.377882 7.470481,-4.691123 11.125,-7.15625 a 0.80774307,0.80774307 0 0 0 0.3125,-0.34375 C 78.27286,54.157474 78.242911,53.624457 78.0625,53.25 77.882089,52.875543 77.623488,52.633921 77.375,52.4375 76.878023,52.044658 76.381465,51.742684 76.28125,51.625 a 0.80774307,0.80774307 0 0 0 -0.125,-0.09375 c -2.926501,-2.395887 -5.899163,-4.713645 -8.75,-7.125 0.01889,-0.01522 0.0088,-0.01485 0.03125,-0.03125 0.232781,-0.170322 0.643176,-0.403401 1,-0.8125 l 0.03125,0.03125 c 3.084662,-2.662992 6.261103,-5.304508 9.3125,-8.03125 a 0.80774307,0.80774307 0 0 0 0.1875,-0.25 C 78.159459,34.902041 78.178583,34.379966 78,34 77.821417,33.620034 77.535078,33.392342 77.28125,33.21875 76.773593,32.871566 76.261936,32.63581 76.125,32.53125 A 0.80774307,0.80774307 0 0 0 76.03125,32.5 C 70.670795,29.2735 65.316055,25.921982 59.9375,22.75 a 0.80774307,0.80774307 0 0 0 -0.28125,-0.125 c -0.844755,-0.121184 -1.45979,0.410057 -1.875,0.8125 -0.41521,0.402443 -0.779328,0.797274 -0.96875,0.90625 a 0.80774307,0.80774307 0 0 0 -0.125,0.0625 c -2.928262,2.482033 -5.785773,5.030986 -8.71875,7.4375 -0.08758,-0.042 -0.137757,-0.04278 -0.3125,-0.21875 -0.238795,-0.240476 -0.549763,-0.61283 -1,-0.90625 -0.03934,-0.03327 -0.08567,-0.06043 -0.125,-0.09375 -3.063867,-2.595365 -6.128469,-5.339778 -9.25,-7.875 A 0.80774307,0.80774307 0 0 0 37,22.59375 c -0.263252,-0.07915 -0.470236,-0.06797 -0.625,-0.0625 a 0.80774307,0.80774307 0 0 0 -0.0625,0 z"
       transform="translate(0,-2)"
       id="path3728"
       style="opacity:0.15;color:#000000;fill:url(#linearGradient3739);fill-opacity:1;fill-rule:nonzero;stroke:none;stroke-width:1;marker:none;visibility:visible;display:inline;overflow:visible;enable-background:accumulate" />
    <path
       d="m 36.40625,22.34375 c -0.03257,0.0074 8.38e-4,0.02199 -0.03125,0.03125 -0.03209,0.0093 -0.03101,-0.01112 -0.0625,0 -0.03149,0.01112 -4.57e-4,0.01832 -0.03125,0.03125 -0.03079,0.01293 -0.0013,-0.0147 -0.03125,0 -0.02999,0.0147 -0.0022,0.01483 -0.03125,0.03125 -0.02908,0.01642 -0.0032,-0.01809 -0.03125,0 a 0.49998753,0.49998753 0 0 1 -0.03125,0.03125 l -17.25,10.5 c -0.02886,0.01761 -0.0035,-0.01928 -0.03125,0 -0.02777,0.01928 -0.0047,0.01037 -0.03125,0.03125 -0.02658,0.02088 -0.0059,0.0088 -0.03125,0.03125 -0.02531,0.02241 -0.0073,0.0074 -0.03125,0.03125 -0.02394,0.02387 -0.0088,0.006 -0.03125,0.03125 -0.02249,0.02524 -0.01028,0.0047 -0.03125,0.03125 -0.02097,0.02652 -0.01188,0.0035 -0.03125,0.03125 -0.01937,0.02771 0.0177,0.0024 0,0.03125 -0.0177,0.0288 -0.01528,0.0015 -0.03125,0.03125 -0.01597,0.02979 -0.01706,0.03182 -0.03125,0.0625 -0.01419,0.03068 0.01235,-2.17e-4 0,0.03125 -0.01235,0.03147 -0.02077,-8.9e-4 -0.03125,0.03125 -0.01048,0.03214 0.0086,-0.0015 0,0.03125 -0.0086,0.0327 0.0066,0.02935 0,0.0625 -0.0066,0.03315 0.0047,-0.0022 0,0.03125 -0.0047,0.03348 -0.02858,-0.0024 -0.03125,0.03125 -0.0027,0.0337 6.83e-4,0.0287 0,0.0625 -6.83e-4,0.0338 -0.0013,-0.0025 0,0.03125 0.0013,0.03378 -0.0033,0.02886 0,0.0625 0.0033,0.03364 0.02597,-0.0021 0.03125,0.03125 0.0053,0.03339 -0.0072,-0.0018 0,0.03125 0.0072,0.03302 -0.0092,0.02996 0,0.0625 0.0092,0.03254 0.02018,-6.9e-4 0.03125,0.03125 0.01107,0.03194 -0.01293,1.8e-5 0,0.03125 0.01293,0.03123 0.0165,8.35e-4 0.03125,0.03125 0.01475,0.03041 -0.01652,0.03301 0,0.0625 0.01652,0.02949 0.01302,0.0028 0.03125,0.03125 0.01823,0.02847 0.01137,0.0039 0.03125,0.03125 0.01988,0.02734 0.0098,0.0051 0.03125,0.03125 0.02145,0.02612 -0.02296,0.0064 0,0.03125 0.02296,0.02481 0.0069,0.0078 0.03125,0.03125 0.02438,0.02342 0.0055,0.0093 0.03125,0.03125 l 10.5,8.875 a 0.49998753,0.49998753 0 0 1 0,0.75 L 18.625,52.34375 c -0.02626,0.02113 -0.0063,0.0086 -0.03125,0.03125 -0.02498,0.02263 -0.0076,0.0072 -0.03125,0.03125 -0.0236,0.02406 -0.0091,0.0058 -0.03125,0.03125 -0.02215,0.02541 -0.01064,0.0046 -0.03125,0.03125 -0.02061,0.02667 -0.01224,0.0034 -0.03125,0.03125 -0.01901,0.02783 0.01734,0.0336 0,0.0625 -0.01734,0.0289 -0.01563,0.0014 -0.03125,0.03125 -0.01562,0.02987 -0.01742,5.13e-4 -0.03125,0.03125 -0.01383,0.03074 0.012,-2.46e-4 0,0.03125 -0.012,0.0315 -0.02112,-8.97e-4 -0.03125,0.03125 -0.01013,0.03215 0.0082,0.02981 0,0.0625 -0.0082,0.03269 0.0063,-0.0019 0,0.03125 -0.0063,0.03311 0.0043,-0.0022 0,0.03125 -0.0043,0.03343 -0.02889,0.02888 -0.03125,0.0625 -0.0024,0.03362 3.78e-4,-0.0025 0,0.03125 -3.78e-4,0.0337 -0.0016,0.02883 0,0.0625 0.0016,0.03367 0.02767,-0.0023 0.03125,0.03125 0.0036,0.03352 -0.0055,-0.002 0,0.03125 0.0055,0.03325 -0.0075,0.02964 0,0.0625 0.0075,0.03286 -0.0094,-0.0011 0,0.03125 0.0094,0.03237 0.01996,-5.08e-4 0.03125,0.03125 0.01129,0.03176 -0.01314,2.11e-4 0,0.03125 0.01314,0.03104 0.01631,0.03229 0.03125,0.0625 0.01494,0.03021 -0.01669,0.002 0,0.03125 0.01669,0.02928 0.01287,0.003 0.03125,0.03125 0.01838,0.02825 0.01124,0.0041 0.03125,0.03125 0.02001,0.02712 0.0097,0.0054 0.03125,0.03125 0.02157,0.0259 0.0082,0.0067 0.03125,0.03125 0.02306,0.02459 0.0068,0.0081 0.03125,0.03125 0.02446,0.02319 0.0055,0.0095 0.03125,0.03125 0.02578,0.02171 0.0042,0.01109 0.03125,0.03125 0.01351,0.01008 0.02949,-0.0012 0.03125,0 l 11.40625,7.25 a 0.49998753,0.49998753 0 0 1 0.21875,0.4375 l -0.03125,1.375 A 0.49998753,0.49998753 0 0 1 30.25,62.75 c -0.0093,0.02251 -0.02296,0.0084 -0.03125,0.03125 -0.0083,0.02288 0.0073,0.008 0,0.03125 -0.0073,0.02322 0.0063,0.0077 0,0.03125 -0.0063,0.0235 0.0053,0.0075 0,0.03125 -0.0053,0.02375 -0.02695,0.0073 -0.03125,0.03125 -0.0043,0.02396 0.0033,0.0071 0,0.03125 -0.0033,0.02412 0.0023,0.007 0,0.03125 -0.0023,0.02423 0.0012,0.0069 0,0.03125 -0.0012,0.02431 1.88e-4,0.0069 0,0.03125 -1.88e-4,0.02434 -8.45e-4,0.0069 0,0.03125 8.45e-4,0.02432 -0.0019,0.007 0,0.03125 0.0019,0.02426 -0.0029,0.0071 0,0.03125 0.0029,0.02416 -0.0039,0.0072 0,0.03125 0.0039,0.02402 0.02631,0.0074 0.03125,0.03125 0.006,0.0236 -0.0069,0.0079 0,0.03125 0.0069,0.02332 -0.0079,0.0082 0,0.03125 0.0079,0.02301 0.02235,0.0086 0.03125,0.03125 0.0089,0.02265 -0.0099,0.009 0,0.03125 0.0099,0.02225 -0.01079,0.0094 0,0.03125 0.01079,0.02181 0.01954,0.0099 0.03125,0.03125 0.01171,0.02134 -0.0126,0.01043 0,0.03125 0.0126,0.02082 0.01778,0.01098 0.03125,0.03125 0.01432,0.01968 0.0161,0.0122 0.03125,0.03125 0.01515,0.01905 0.01531,0.01286 0.03125,0.03125 0.01594,0.01839 -0.01671,0.01355 0,0.03125 0.01671,0.0177 0.01381,-0.01697 0.03125,0 0.01744,0.01697 0.0131,0.01503 0.03125,0.03125 0.01815,0.01622 -0.01882,0.01582 0,0.03125 0.01882,0.01543 0.01179,-0.01462 0.03125,0 0.01946,0.01462 0.01119,0.01747 0.03125,0.03125 l 17.0625,12 c 0.01799,0.01269 0.01279,-0.01199 0.03125,0 0.01846,0.01199 0.01234,0.01998 0.03125,0.03125 0.01933,0.01054 0.01153,0.02146 0.03125,0.03125 0.01972,0.0098 0.01117,-0.009 0.03125,0 0.02008,0.009 0.01084,-0.0082 0.03125,0 0.02041,0.0082 0.01054,0.02379 0.03125,0.03125 0.02071,0.0075 0.01027,-0.0067 0.03125,0 0.02122,0.0058 0.0098,0.02622 0.03125,0.03125 0.02143,0.005 0.0096,-0.0042 0.03125,0 0.02161,0.0042 0.0095,-0.0034 0.03125,0 0.02175,0.0034 0.0094,-0.0025 0.03125,0 0.02187,0.0025 0.0093,-0.0017 0.03125,0 0.02195,0.0017 0.0093,-8.45e-4 0.03125,0 0.022,8.45e-4 0.0092,0 0.03125,0 0.022,-8.45e-4 0.0093,0.0017 0.03125,0 0.02195,-0.0017 0.0094,0.0025 0.03125,0 0.02187,-0.0025 0.0095,0.0034 0.03125,0 0.02175,-0.0034 0.0096,0.0042 0.03125,0 0.02161,-0.0042 0.0098,0.005 0.03125,0 0.02143,-0.005 0.01003,-0.0254 0.03125,-0.03125 0.02098,-0.0067 0.01054,0.0075 0.03125,0 0.02071,-0.0075 0.01084,-0.023 0.03125,-0.03125 0.02041,-0.0082 0.01117,0.009 0.03125,0 0.02008,-0.009 0.01153,0.0098 0.03125,0 0.01972,-0.0098 0.01192,-0.02071 0.03125,-0.03125 0.01891,-0.01127 0.01279,-0.01926 0.03125,-0.03125 0.01846,-0.01199 0.01326,0.01269 0.03125,0 L 59,68.125 a 0.49998753,0.49998753 0 0 1 0.03125,0 0.49998753,0.49998753 0 0 1 0.0625,-0.0625 0.49998753,0.49998753 0 0 1 0.03125,0 l 0.0625,-0.03125 6.15625,-4.3125 A 0.49998753,0.49998753 0 0 1 65.375,63.6875 c 0.02269,-0.01366 0.0092,0.01469 0.03125,0 0.02204,-0.01469 0.0099,-0.01555 0.03125,-0.03125 A 0.49998753,0.49998753 0 0 1 65.46875,63.625 c 0.01829,-0.01034 0.01335,0.011 0.03125,0 0.0089,-0.0055 0.03012,7.24e-4 0.03125,0 0.0011,-7.24e-4 -0.0087,-0.02543 0,-0.03125 0.01704,-0.01228 0.01467,-0.01835 0.03125,-0.03125 A 0.49998753,0.49998753 0 0 1 65.625,63.5 0.49998753,0.49998753 0 0 1 65.65625,63.46875 c 0.01847,-0.01903 -0.01757,-0.01139 0,-0.03125 0.01757,-0.01986 0.01462,-0.0106 0.03125,-0.03125 0.01663,-0.02065 0.0156,-0.0098 0.03125,-0.03125 0.01465,-0.0221 0.01764,-0.0085 0.03125,-0.03125 0.01361,-0.02276 -0.01254,-0.0079 0,-0.03125 0.01254,-0.02336 0.0198,-0.0073 0.03125,-0.03125 0.01145,-0.02392 -0.01033,-0.0068 0,-0.03125 0.01033,-0.02442 0.02206,-0.0064 0.03125,-0.03125 0.0092,-0.02487 -0.008,-0.006 0,-0.03125 0.008,-0.02527 -0.0069,-0.0056 0,-0.03125 0.0069,-0.02562 -0.0057,-0.0053 0,-0.03125 0.0057,-0.0259 0.02679,-0.0051 0.03125,-0.03125 0.0045,-0.02614 -0.0032,-0.0049 0,-0.03125 0.0032,-0.02632 -0.002,-0.0048 0,-0.03125 0.002,-0.02644 -7.99e-4,-0.0047 0,-0.03125 L 65.8125,60.96875 a 0.49998753,0.49998753 0 0 1 0.21875,-0.4375 L 77.09375,53.5 c 0.0018,-0.0012 0.01774,0.01008 0.03125,0 0.02701,-0.02016 0.0055,-0.0095 0.03125,-0.03125 0.02578,-0.02171 0.0068,-0.0081 0.03125,-0.03125 0.02446,-0.02319 0.0082,-0.0067 0.03125,-0.03125 0.02306,-0.02459 0.0097,-0.0054 0.03125,-0.03125 0.02157,-0.0259 0.01124,-0.0041 0.03125,-0.03125 0.02001,-0.02712 0.01287,-0.003 0.03125,-0.03125 0.01838,-0.02825 0.01456,-0.002 0.03125,-0.03125 0.01669,-0.02928 -0.01494,-0.001 0,-0.03125 0.01494,-0.03021 0.01811,-0.03146 0.03125,-0.0625 0.01314,-0.03104 -0.01129,5.08e-4 0,-0.03125 0.01129,-0.03176 0.02184,0.0011 0.03125,-0.03125 0.0094,-0.03237 -0.0075,0.0016 0,-0.03125 0.0075,-0.03286 -0.0055,-0.02925 0,-0.0625 0.0055,-0.03325 -0.0036,0.0023 0,-0.03125 0.0036,-0.03352 0.02965,0.0024 0.03125,-0.03125 0.0016,-0.03367 3.78e-4,-0.0288 0,-0.0625 -3.78e-4,-0.0337 0.0024,0.0024 0,-0.03125 -0.0024,-0.03362 -0.02692,-0.02907 -0.03125,-0.0625 -0.0043,-0.03343 0.0063,0.0019 0,-0.03125 -0.0063,-0.03311 0.0082,0.0014 0,-0.03125 -0.0082,-0.03269 0.01013,-0.03035 0,-0.0625 -0.01013,-0.03215 -0.01925,2.46e-4 -0.03125,-0.03125 -0.012,-0.0315 0.01383,-5.13e-4 0,-0.03125 -0.01383,-0.03074 -0.01564,-0.0014 -0.03125,-0.03125 -0.01561,-0.02987 -0.01391,-0.0023 -0.03125,-0.03125 -0.01734,-0.0289 0.01901,-0.03467 0,-0.0625 -0.01901,-0.02783 -0.01063,-0.0046 -0.03125,-0.03125 -0.02062,-0.02667 -0.0091,-0.0058 -0.03125,-0.03125 -0.02215,-0.02541 -0.0076,-0.0072 -0.03125,-0.03125 -0.0236,-0.02406 -0.0063,-0.0086 -0.03125,-0.03125 -0.02497,-0.02263 -0.005,-0.01012 -0.03125,-0.03125 l -10.5625,-8.5 a 0.49998753,0.49998753 0 0 1 0,-0.75 l 10.5,-8.9375 c 0.02572,-0.02194 0.0069,-0.0078 0.03125,-0.03125 0.02438,-0.02342 0.0083,-0.0064 0.03125,-0.03125 0.02296,-0.02481 -0.02145,-0.0051 0,-0.03125 0.02145,-0.02612 0.01137,-0.0039 0.03125,-0.03125 0.01988,-0.02734 0.01302,-0.0028 0.03125,-0.03125 0.01823,-0.02847 0.01473,-0.0018 0.03125,-0.03125 0.01652,-0.02949 -0.01475,-0.03209 0,-0.0625 0.01475,-0.03041 0.01832,-1.8e-5 0.03125,-0.03125 0.01293,-0.03123 -0.01107,6.9e-4 0,-0.03125 0.01107,-0.03194 0.02208,0.0013 0.03125,-0.03125 0.0092,-0.03254 -0.0072,-0.02948 0,-0.0625 0.0072,-0.03302 -0.0053,0.0021 0,-0.03125 0.0053,-0.03339 0.02795,0.0024 0.03125,-0.03125 0.0033,-0.03364 -0.0013,-0.02872 0,-0.0625 0.0013,-0.03378 6.83e-4,0.0025 0,-0.03125 -6.83e-4,-0.0338 0.0027,-0.0288 0,-0.0625 -0.0027,-0.0337 -0.02659,0.0022 -0.03125,-0.03125 -0.0047,-0.03348 0.0066,0.0019 0,-0.03125 -0.0066,-0.03315 0.0086,-0.0298 0,-0.0625 -0.0086,-0.0327 0.01048,8.9e-4 0,-0.03125 -0.01048,-0.03214 -0.0189,2.17e-4 -0.03125,-0.03125 -0.01235,-0.03147 0.01419,-5.66e-4 0,-0.03125 -0.01419,-0.03068 -0.01528,-0.03271 -0.03125,-0.0625 -0.01597,-0.02979 -0.01355,-0.0024 -0.03125,-0.03125 -0.0177,-0.0288 0.01937,-0.0035 0,-0.03125 -0.01937,-0.02771 -0.01028,-0.0047 -0.03125,-0.03125 -0.02097,-0.02652 -0.0088,-0.006 -0.03125,-0.03125 -0.02249,-0.02524 -0.0073,-0.0074 -0.03125,-0.03125 -0.02394,-0.02387 -0.0059,-0.0088 -0.03125,-0.03125 -0.02531,-0.02241 -0.0047,-0.01037 -0.03125,-0.03125 -0.02658,-0.02088 -0.0035,-0.01197 -0.03125,-0.03125 -0.02777,-0.01928 -0.0024,0.01761 -0.03125,0 L 59.75,22.53125 c -0.01882,-0.01153 -0.012,-0.02046 -0.03125,-0.03125 -0.01925,-0.01079 -0.0116,0.01004 -0.03125,0 -0.01965,-0.01004 -0.01123,-0.02197 -0.03125,-0.03125 -0.02002,-0.0093 -0.01088,0.0085 -0.03125,0 -0.02068,-0.0077 -0.01029,-0.02434 -0.03125,-0.03125 -0.02096,-0.0069 -0.01004,0.0061 -0.03125,0 -0.02121,-0.0061 -0.0098,0.0053 -0.03125,0 -0.02143,-0.0053 -0.0096,0.0044 -0.03125,0 -0.02162,-0.0044 -0.0095,0.0036 -0.03125,0 -0.02177,-0.0036 0.02189,-0.02848 0,-0.03125 -0.02189,-0.0028 -0.0093,0.0019 -0.03125,0 -0.02199,-0.0019 -0.0092,0.0011 -0.03125,0 -0.02204,-0.0011 -0.0092,2.3e-4 -0.03125,0 -0.02207,-2.3e-4 -0.0092,-6.19e-4 -0.03125,0 -0.02206,6.19e-4 -0.0092,-0.0015 -0.03125,0 -0.02202,0.0015 -0.0093,-0.0023 -0.03125,0 -0.02195,0.0023 -0.0094,-0.0032 -0.03125,0 -0.02184,0.0032 -0.0095,0.02725 -0.03125,0.03125 -0.02153,0.0048 -0.0099,-0.0057 -0.03125,0 -0.02133,0.0057 -0.01015,-0.0065 -0.03125,0 -0.0211,0.0065 -0.01042,0.02397 -0.03125,0.03125 -0.02083,0.0073 -0.01071,-0.0081 -0.03125,0 -0.02054,0.0081 -0.01104,-0.0089 -0.03125,0 -0.02021,0.0089 0.01986,0.02162 0,0.03125 -0.01986,0.0096 -0.01178,-0.01039 -0.03125,0 -0.01947,0.01039 -0.01219,-0.01113 -0.03125,0 -0.01906,0.01113 -0.01264,0.01939 -0.03125,0.03125 -0.01814,0.01256 -0.0136,0.018 -0.03125,0.03125 -0.01765,0.01325 -0.01413,-0.01392 -0.03125,0 l -10.59375,9.125 a 0.49998753,0.49998753 0 0 1 -0.625,0 L 37,22.5 c -0.02122,-0.01778 -0.0092,0.01673 -0.03125,0 -0.02205,-0.01673 -0.0084,-0.0156 -0.03125,-0.03125 -0.02283,-0.01565 -0.0077,-0.01672 -0.03125,-0.03125 -0.02356,-0.01453 -0.007,0.01337 -0.03125,0 -0.02424,-0.01337 -0.0064,-0.01906 -0.03125,-0.03125 -0.02485,-0.01219 -0.0058,0.01097 -0.03125,0 -0.02541,-0.01097 -0.0053,-0.02152 -0.03125,-0.03125 -0.02591,-0.0097 -0.0049,0.0085 -0.03125,0 -0.02635,-0.0085 -0.0045,0.0072 -0.03125,0 -0.02673,-0.0072 -0.0042,-0.02536 -0.03125,-0.03125 -0.02705,-0.0059 -0.004,0.0046 -0.03125,0 -0.0273,-0.0046 -0.0038,0.0033 -0.03125,0 -0.02749,-0.0033 -0.0036,0.0019 -0.03125,0 -0.02761,-0.0019 -0.03482,5.87e-4 -0.0625,0 -0.02768,-5.87e-4 -0.0036,-7.49e-4 -0.03125,0 -0.0166,0.0018 -0.02913,-2.88e-4 -0.03125,0 -0.0021,2.88e-4 -0.01478,-0.0027 -0.03125,0 -0.03295,0.0055 0.0013,-0.0074 -0.03125,0 z"
       transform="translate(0,-1)"
       id="path3720"
       style="opacity:0.3;color:#000000;fill:url(#linearGradient3782);fill-opacity:1;fill-rule:nonzero;stroke:none;stroke-width:1;marker:none;visibility:visible;display:inline;overflow:visible;enable-background:accumulate" />
    <path
       d="m 36.40625,22.34375 c -0.03257,0.0074 8.38e-4,0.02199 -0.03125,0.03125 -0.03209,0.0093 -0.03101,-0.01112 -0.0625,0 -0.03149,0.01112 -4.57e-4,0.01832 -0.03125,0.03125 -0.03079,0.01293 -0.0013,-0.0147 -0.03125,0 -0.02999,0.0147 -0.0022,0.01483 -0.03125,0.03125 -0.02908,0.01642 -0.0032,-0.01809 -0.03125,0 a 0.49998753,0.49998753 0 0 1 -0.03125,0.03125 l -17.25,10.5 c -0.02886,0.01761 -0.0035,-0.01928 -0.03125,0 -0.02777,0.01928 -0.0047,0.01037 -0.03125,0.03125 -0.02658,0.02088 -0.0059,0.0088 -0.03125,0.03125 -0.02531,0.02241 -0.0073,0.0074 -0.03125,0.03125 -0.02394,0.02387 -0.0088,0.006 -0.03125,0.03125 -0.02249,0.02524 -0.01028,0.0047 -0.03125,0.03125 -0.02097,0.02652 -0.01188,0.0035 -0.03125,0.03125 -0.01937,0.02771 0.0177,0.0024 0,0.03125 -0.0177,0.0288 -0.01528,0.0015 -0.03125,0.03125 -0.01597,0.02979 -0.01706,0.03182 -0.03125,0.0625 -0.01419,0.03068 0.01235,-2.17e-4 0,0.03125 -0.01235,0.03147 -0.02077,-8.9e-4 -0.03125,0.03125 -0.01048,0.03214 0.0086,-0.0015 0,0.03125 -0.0086,0.0327 0.0066,0.02935 0,0.0625 -0.0066,0.03315 0.0047,-0.0022 0,0.03125 -0.0047,0.03348 -0.02858,-0.0024 -0.03125,0.03125 -0.0027,0.0337 6.83e-4,0.0287 0,0.0625 -6.83e-4,0.0338 -0.0013,-0.0025 0,0.03125 0.0013,0.03378 -0.0033,0.02886 0,0.0625 0.0033,0.03364 0.02597,-0.0021 0.03125,0.03125 0.0053,0.03339 -0.0072,-0.0018 0,0.03125 0.0072,0.03302 -0.0092,0.02996 0,0.0625 0.0092,0.03254 0.02018,-6.9e-4 0.03125,0.03125 0.01107,0.03194 -0.01293,1.8e-5 0,0.03125 0.01293,0.03123 0.0165,8.35e-4 0.03125,0.03125 0.01475,0.03041 -0.01652,0.03301 0,0.0625 0.01652,0.02949 0.01302,0.0028 0.03125,0.03125 0.01823,0.02847 0.01137,0.0039 0.03125,0.03125 0.01988,0.02734 0.0098,0.0051 0.03125,0.03125 0.02145,0.02612 -0.02296,0.0064 0,0.03125 0.02296,0.02481 0.0069,0.0078 0.03125,0.03125 0.02438,0.02342 0.0055,0.0093 0.03125,0.03125 l 10.5,8.875 a 0.49998753,0.49998753 0 0 1 0,0.75 L 18.625,52.34375 c -0.02626,0.02113 -0.0063,0.0086 -0.03125,0.03125 -0.02498,0.02263 -0.0076,0.0072 -0.03125,0.03125 -0.0236,0.02406 -0.0091,0.0058 -0.03125,0.03125 -0.02215,0.02541 -0.01064,0.0046 -0.03125,0.03125 -0.02061,0.02667 -0.01224,0.0034 -0.03125,0.03125 -0.01901,0.02783 0.01734,0.0336 0,0.0625 -0.01734,0.0289 -0.01563,0.0014 -0.03125,0.03125 -0.01562,0.02987 -0.01742,5.13e-4 -0.03125,0.03125 -0.01383,0.03074 0.012,-2.46e-4 0,0.03125 -0.012,0.0315 -0.02112,-8.97e-4 -0.03125,0.03125 -0.01013,0.03215 0.0082,0.02981 0,0.0625 -0.0082,0.03269 0.0063,-0.0019 0,0.03125 -0.0063,0.03311 0.0043,-0.0022 0,0.03125 -0.0043,0.03343 -0.02889,0.02888 -0.03125,0.0625 -0.0024,0.03362 3.78e-4,-0.0025 0,0.03125 -3.78e-4,0.0337 -0.0016,0.02883 0,0.0625 0.0016,0.03367 0.02767,-0.0023 0.03125,0.03125 0.0036,0.03352 -0.0055,-0.002 0,0.03125 0.0055,0.03325 -0.0075,0.02964 0,0.0625 0.0075,0.03286 -0.0094,-0.0011 0,0.03125 0.0094,0.03237 0.01996,-5.08e-4 0.03125,0.03125 0.01129,0.03176 -0.01314,2.11e-4 0,0.03125 0.01314,0.03104 0.01631,0.03229 0.03125,0.0625 0.01494,0.03021 -0.01669,0.002 0,0.03125 0.01669,0.02928 0.01287,0.003 0.03125,0.03125 0.01838,0.02825 0.01124,0.0041 0.03125,0.03125 0.02001,0.02712 0.0097,0.0054 0.03125,0.03125 0.02157,0.0259 0.0082,0.0067 0.03125,0.03125 0.02306,0.02459 0.0068,0.0081 0.03125,0.03125 0.02446,0.02319 0.0055,0.0095 0.03125,0.03125 0.02578,0.02171 0.0042,0.01109 0.03125,0.03125 0.01351,0.01008 0.02949,-0.0012 0.03125,0 l 11.40625,7.25 a 0.49998753,0.49998753 0 0 1 0.21875,0.4375 l -0.03125,1.375 A 0.49998753,0.49998753 0 0 1 30.25,62.75 c -0.0093,0.02251 -0.02296,0.0084 -0.03125,0.03125 -0.0083,0.02288 0.0073,0.008 0,0.03125 -0.0073,0.02322 0.0063,0.0077 0,0.03125 -0.0063,0.0235 0.0053,0.0075 0,0.03125 -0.0053,0.02375 -0.02695,0.0073 -0.03125,0.03125 -0.0043,0.02396 0.0033,0.0071 0,0.03125 -0.0033,0.02412 0.0023,0.007 0,0.03125 -0.0023,0.02423 0.0012,0.0069 0,0.03125 -0.0012,0.02431 1.88e-4,0.0069 0,0.03125 -1.88e-4,0.02434 -8.45e-4,0.0069 0,0.03125 8.45e-4,0.02432 -0.0019,0.007 0,0.03125 0.0019,0.02426 -0.0029,0.0071 0,0.03125 0.0029,0.02416 -0.0039,0.0072 0,0.03125 0.0039,0.02402 0.02631,0.0074 0.03125,0.03125 0.006,0.0236 -0.0069,0.0079 0,0.03125 0.0069,0.02332 -0.0079,0.0082 0,0.03125 0.0079,0.02301 0.02235,0.0086 0.03125,0.03125 0.0089,0.02265 -0.0099,0.009 0,0.03125 0.0099,0.02225 -0.01079,0.0094 0,0.03125 0.01079,0.02181 0.01954,0.0099 0.03125,0.03125 0.01171,0.02134 -0.0126,0.01043 0,0.03125 0.0126,0.02082 0.01778,0.01098 0.03125,0.03125 0.01432,0.01968 0.0161,0.0122 0.03125,0.03125 0.01515,0.01905 0.01531,0.01286 0.03125,0.03125 0.01594,0.01839 -0.01671,0.01355 0,0.03125 0.01671,0.0177 0.01381,-0.01697 0.03125,0 0.01744,0.01697 0.0131,0.01503 0.03125,0.03125 0.01815,0.01622 -0.01882,0.01582 0,0.03125 0.01882,0.01543 0.01179,-0.01462 0.03125,0 0.01946,0.01462 0.01119,0.01747 0.03125,0.03125 l 17.0625,12 c 0.01799,0.01269 0.01279,-0.01199 0.03125,0 0.01846,0.01199 0.01234,0.01998 0.03125,0.03125 0.01933,0.01054 0.01153,0.02146 0.03125,0.03125 0.01972,0.0098 0.01117,-0.009 0.03125,0 0.02008,0.009 0.01084,-0.0082 0.03125,0 0.02041,0.0082 0.01054,0.02379 0.03125,0.03125 0.02071,0.0075 0.01027,-0.0067 0.03125,0 0.02122,0.0058 0.0098,0.02622 0.03125,0.03125 0.02143,0.005 0.0096,-0.0042 0.03125,0 0.02161,0.0042 0.0095,-0.0034 0.03125,0 0.02175,0.0034 0.0094,-0.0025 0.03125,0 0.02187,0.0025 0.0093,-0.0017 0.03125,0 0.02195,0.0017 0.0093,-8.45e-4 0.03125,0 0.022,8.45e-4 0.0092,0 0.03125,0 0.022,-8.45e-4 0.0093,0.0017 0.03125,0 0.02195,-0.0017 0.0094,0.0025 0.03125,0 0.02187,-0.0025 0.0095,0.0034 0.03125,0 0.02175,-0.0034 0.0096,0.0042 0.03125,0 0.02161,-0.0042 0.0098,0.005 0.03125,0 0.02143,-0.005 0.01003,-0.0254 0.03125,-0.03125 0.02098,-0.0067 0.01054,0.0075 0.03125,0 0.02071,-0.0075 0.01084,-0.023 0.03125,-0.03125 0.02041,-0.0082 0.01117,0.009 0.03125,0 0.02008,-0.009 0.01153,0.0098 0.03125,0 0.01972,-0.0098 0.01192,-0.02071 0.03125,-0.03125 0.01891,-0.01127 0.01279,-0.01926 0.03125,-0.03125 0.01846,-0.01199 0.01326,0.01269 0.03125,0 L 59,68.125 a 0.49998753,0.49998753 0 0 1 0.03125,0 0.49998753,0.49998753 0 0 1 0.0625,-0.0625 0.49998753,0.49998753 0 0 1 0.03125,0 l 0.0625,-0.03125 6.15625,-4.3125 A 0.49998753,0.49998753 0 0 1 65.375,63.6875 c 0.02269,-0.01366 0.0092,0.01469 0.03125,0 0.02204,-0.01469 0.0099,-0.01555 0.03125,-0.03125 A 0.49998753,0.49998753 0 0 1 65.46875,63.625 c 0.01829,-0.01034 0.01335,0.011 0.03125,0 0.0089,-0.0055 0.03012,7.24e-4 0.03125,0 0.0011,-7.24e-4 -0.0087,-0.02543 0,-0.03125 0.01704,-0.01228 0.01467,-0.01835 0.03125,-0.03125 A 0.49998753,0.49998753 0 0 1 65.625,63.5 0.49998753,0.49998753 0 0 1 65.65625,63.46875 c 0.01847,-0.01903 -0.01757,-0.01139 0,-0.03125 0.01757,-0.01986 0.01462,-0.0106 0.03125,-0.03125 0.01663,-0.02065 0.0156,-0.0098 0.03125,-0.03125 0.01465,-0.0221 0.01764,-0.0085 0.03125,-0.03125 0.01361,-0.02276 -0.01254,-0.0079 0,-0.03125 0.01254,-0.02336 0.0198,-0.0073 0.03125,-0.03125 0.01145,-0.02392 -0.01033,-0.0068 0,-0.03125 0.01033,-0.02442 0.02206,-0.0064 0.03125,-0.03125 0.0092,-0.02487 -0.008,-0.006 0,-0.03125 0.008,-0.02527 -0.0069,-0.0056 0,-0.03125 0.0069,-0.02562 -0.0057,-0.0053 0,-0.03125 0.0057,-0.0259 0.02679,-0.0051 0.03125,-0.03125 0.0045,-0.02614 -0.0032,-0.0049 0,-0.03125 0.0032,-0.02632 -0.002,-0.0048 0,-0.03125 0.002,-0.02644 -7.99e-4,-0.0047 0,-0.03125 L 65.8125,60.96875 a 0.49998753,0.49998753 0 0 1 0.21875,-0.4375 L 77.09375,53.5 c 0.0018,-0.0012 0.01774,0.01008 0.03125,0 0.02701,-0.02016 0.0055,-0.0095 0.03125,-0.03125 0.02578,-0.02171 0.0068,-0.0081 0.03125,-0.03125 0.02446,-0.02319 0.0082,-0.0067 0.03125,-0.03125 0.02306,-0.02459 0.0097,-0.0054 0.03125,-0.03125 0.02157,-0.0259 0.01124,-0.0041 0.03125,-0.03125 0.02001,-0.02712 0.01287,-0.003 0.03125,-0.03125 0.01838,-0.02825 0.01456,-0.002 0.03125,-0.03125 0.01669,-0.02928 -0.01494,-0.001 0,-0.03125 0.01494,-0.03021 0.01811,-0.03146 0.03125,-0.0625 0.01314,-0.03104 -0.01129,5.08e-4 0,-0.03125 0.01129,-0.03176 0.02184,0.0011 0.03125,-0.03125 0.0094,-0.03237 -0.0075,0.0016 0,-0.03125 0.0075,-0.03286 -0.0055,-0.02925 0,-0.0625 0.0055,-0.03325 -0.0036,0.0023 0,-0.03125 0.0036,-0.03352 0.02965,0.0024 0.03125,-0.03125 0.0016,-0.03367 3.78e-4,-0.0288 0,-0.0625 -3.78e-4,-0.0337 0.0024,0.0024 0,-0.03125 -0.0024,-0.03362 -0.02692,-0.02907 -0.03125,-0.0625 -0.0043,-0.03343 0.0063,0.0019 0,-0.03125 -0.0063,-0.03311 0.0082,0.0014 0,-0.03125 -0.0082,-0.03269 0.01013,-0.03035 0,-0.0625 -0.01013,-0.03215 -0.01925,2.46e-4 -0.03125,-0.03125 -0.012,-0.0315 0.01383,-5.13e-4 0,-0.03125 -0.01383,-0.03074 -0.01564,-0.0014 -0.03125,-0.03125 -0.01561,-0.02987 -0.01391,-0.0023 -0.03125,-0.03125 -0.01734,-0.0289 0.01901,-0.03467 0,-0.0625 -0.01901,-0.02783 -0.01063,-0.0046 -0.03125,-0.03125 -0.02062,-0.02667 -0.0091,-0.0058 -0.03125,-0.03125 -0.02215,-0.02541 -0.0076,-0.0072 -0.03125,-0.03125 -0.0236,-0.02406 -0.0063,-0.0086 -0.03125,-0.03125 -0.02497,-0.02263 -0.005,-0.01012 -0.03125,-0.03125 l -10.5625,-8.5 a 0.49998753,0.49998753 0 0 1 0,-0.75 l 10.5,-8.9375 c 0.02572,-0.02194 0.0069,-0.0078 0.03125,-0.03125 0.02438,-0.02342 0.0083,-0.0064 0.03125,-0.03125 0.02296,-0.02481 -0.02145,-0.0051 0,-0.03125 0.02145,-0.02612 0.01137,-0.0039 0.03125,-0.03125 0.01988,-0.02734 0.01302,-0.0028 0.03125,-0.03125 0.01823,-0.02847 0.01473,-0.0018 0.03125,-0.03125 0.01652,-0.02949 -0.01475,-0.03209 0,-0.0625 0.01475,-0.03041 0.01832,-1.8e-5 0.03125,-0.03125 0.01293,-0.03123 -0.01107,6.9e-4 0,-0.03125 0.01107,-0.03194 0.02208,0.0013 0.03125,-0.03125 0.0092,-0.03254 -0.0072,-0.02948 0,-0.0625 0.0072,-0.03302 -0.0053,0.0021 0,-0.03125 0.0053,-0.03339 0.02795,0.0024 0.03125,-0.03125 0.0033,-0.03364 -0.0013,-0.02872 0,-0.0625 0.0013,-0.03378 6.83e-4,0.0025 0,-0.03125 -6.83e-4,-0.0338 0.0027,-0.0288 0,-0.0625 -0.0027,-0.0337 -0.02659,0.0022 -0.03125,-0.03125 -0.0047,-0.03348 0.0066,0.0019 0,-0.03125 -0.0066,-0.03315 0.0086,-0.0298 0,-0.0625 -0.0086,-0.0327 0.01048,8.9e-4 0,-0.03125 -0.01048,-0.03214 -0.0189,2.17e-4 -0.03125,-0.03125 -0.01235,-0.03147 0.01419,-5.66e-4 0,-0.03125 -0.01419,-0.03068 -0.01528,-0.03271 -0.03125,-0.0625 -0.01597,-0.02979 -0.01355,-0.0024 -0.03125,-0.03125 -0.0177,-0.0288 0.01937,-0.0035 0,-0.03125 -0.01937,-0.02771 -0.01028,-0.0047 -0.03125,-0.03125 -0.02097,-0.02652 -0.0088,-0.006 -0.03125,-0.03125 -0.02249,-0.02524 -0.0073,-0.0074 -0.03125,-0.03125 -0.02394,-0.02387 -0.0059,-0.0088 -0.03125,-0.03125 -0.02531,-0.02241 -0.0047,-0.01037 -0.03125,-0.03125 -0.02658,-0.02088 -0.0035,-0.01197 -0.03125,-0.03125 -0.02777,-0.01928 -0.0024,0.01761 -0.03125,0 L 59.75,22.53125 c -0.01882,-0.01153 -0.012,-0.02046 -0.03125,-0.03125 -0.01925,-0.01079 -0.0116,0.01004 -0.03125,0 -0.01965,-0.01004 -0.01123,-0.02197 -0.03125,-0.03125 -0.02002,-0.0093 -0.01088,0.0085 -0.03125,0 -0.02068,-0.0077 -0.01029,-0.02434 -0.03125,-0.03125 -0.02096,-0.0069 -0.01004,0.0061 -0.03125,0 -0.02121,-0.0061 -0.0098,0.0053 -0.03125,0 -0.02143,-0.0053 -0.0096,0.0044 -0.03125,0 -0.02162,-0.0044 -0.0095,0.0036 -0.03125,0 -0.02177,-0.0036 0.02189,-0.02848 0,-0.03125 -0.02189,-0.0028 -0.0093,0.0019 -0.03125,0 -0.02199,-0.0019 -0.0092,0.0011 -0.03125,0 -0.02204,-0.0011 -0.0092,2.3e-4 -0.03125,0 -0.02207,-2.3e-4 -0.0092,-6.19e-4 -0.03125,0 -0.02206,6.19e-4 -0.0092,-0.0015 -0.03125,0 -0.02202,0.0015 -0.0093,-0.0023 -0.03125,0 -0.02195,0.0023 -0.0094,-0.0032 -0.03125,0 -0.02184,0.0032 -0.0095,0.02725 -0.03125,0.03125 -0.02153,0.0048 -0.0099,-0.0057 -0.03125,0 -0.02133,0.0057 -0.01015,-0.0065 -0.03125,0 -0.0211,0.0065 -0.01042,0.02397 -0.03125,0.03125 -0.02083,0.0073 -0.01071,-0.0081 -0.03125,0 -0.02054,0.0081 -0.01104,-0.0089 -0.03125,0 -0.02021,0.0089 0.01986,0.02162 0,0.03125 -0.01986,0.0096 -0.01178,-0.01039 -0.03125,0 -0.01947,0.01039 -0.01219,-0.01113 -0.03125,0 -0.01906,0.01113 -0.01264,0.01939 -0.03125,0.03125 -0.01814,0.01256 -0.0136,0.018 -0.03125,0.03125 -0.01765,0.01325 -0.01413,-0.01392 -0.03125,0 l -10.59375,9.125 a 0.49998753,0.49998753 0 0 1 -0.625,0 L 37,22.5 c -0.02122,-0.01778 -0.0092,0.01673 -0.03125,0 -0.02205,-0.01673 -0.0084,-0.0156 -0.03125,-0.03125 -0.02283,-0.01565 -0.0077,-0.01672 -0.03125,-0.03125 -0.02356,-0.01453 -0.007,0.01337 -0.03125,0 -0.02424,-0.01337 -0.0064,-0.01906 -0.03125,-0.03125 -0.02485,-0.01219 -0.0058,0.01097 -0.03125,0 -0.02541,-0.01097 -0.0053,-0.02152 -0.03125,-0.03125 -0.02591,-0.0097 -0.0049,0.0085 -0.03125,0 -0.02635,-0.0085 -0.0045,0.0072 -0.03125,0 -0.02673,-0.0072 -0.0042,-0.02536 -0.03125,-0.03125 -0.02705,-0.0059 -0.004,0.0046 -0.03125,0 -0.0273,-0.0046 -0.0038,0.0033 -0.03125,0 -0.02749,-0.0033 -0.0036,0.0019 -0.03125,0 -0.02761,-0.0019 -0.03482,5.87e-4 -0.0625,0 -0.02768,-5.87e-4 -0.0036,-7.49e-4 -0.03125,0 -0.0166,0.0018 -0.02913,-2.88e-4 -0.03125,0 -0.0021,2.88e-4 -0.01478,-0.0027 -0.03125,0 -0.03295,0.0055 0.0013,-0.0074 -0.03125,0 z"
       transform="translate(0,-2)"
       id="path2919"
       style="color:#000000;fill:#0b5a9a;fill-opacity:1;fill-rule:nonzero;stroke:none;stroke-width:1;marker:none;visibility:visible;display:inline;overflow:visible;enable-background:accumulate" />
    <path
       d="M 47.958369,48.999999 65,61.020815 47.958368,73.041631 30.916738,61.020815 47.958369,48.999999 z"
       inkscape:connector-curvature="0"
       id="rect3683"
       style="color:#000000;fill:#fdfffe;fill-opacity:1;fill-rule:nonzero;stroke:none;stroke-width:1;marker:none;visibility:visible;display:inline;overflow:visible;enable-background:accumulate" />
    <path
       d="M 59.38401,21.109718 76.62382,31.60345 64.95838,41.5 47.91675,31.000001 59.38401,21.109718 z"
       inkscape:connector-curvature="0"
       id="rect3688"
       style="color:#000000;fill:url(#linearGradient3746);fill-opacity:1;fill-rule:nonzero;stroke:none;stroke-width:1;marker:none;visibility:visible;display:inline;overflow:visible;enable-background:accumulate" />
    <path
       d="M 36.52803,21.054859 19.288221,31.548591 30.95366,41.445141 47.99529,30.945142 36.52803,21.054859 z"
       inkscape:connector-curvature="0"
       id="path3691"
       style="color:#000000;fill:url(#linearGradient3755);fill-opacity:1;fill-rule:nonzero;stroke:none;stroke-width:1;marker:none;visibility:visible;display:inline;overflow:visible;enable-background:accumulate" />
    <path
       d="m 31,61 0.172556,-19.753556 16.862573,-10.287716 0,18.022842 L 31,61 z"
       inkscape:connector-curvature="0"
       id="path3698"
       style="fill:url(#linearGradient3713);fill-opacity:1;stroke:none" />
    <path
       d="M 47.957778,72.805756 48.11248,51.920918 31.095204,41.323796 l 0,19.72457 16.862574,11.75739 z"
       inkscape:connector-curvature="0"
       id="path3700"
       style="opacity:0.6;fill:url(#linearGradient3730);fill-opacity:1;stroke:none" />
    <path
       d="M 65.002762,61 64.939922,41.246444 48.02249,30.903869 l 0,18.297137 L 65.002762,61 z"
       inkscape:connector-curvature="0"
       id="path3702"
       style="fill:url(#linearGradient3722);fill-opacity:1;stroke:none" />
    <path
       d="M 48.154702,72.805756 48,51.920918 65.017276,41.323796 l 0,19.72457 -16.862574,11.75739 z"
       inkscape:connector-curvature="0"
       id="path3704"
       style="opacity:0.6;fill:url(#linearGradient3738);fill-opacity:1;stroke:none" />
    <path
       d="M 64.95835,41.451404 76.73352,50.90908 59.58217,61.847951 47.91673,51.951402 64.95835,41.451404 z"
       inkscape:connector-curvature="0"
       id="rect3693"
       style="color:#000000;fill:url(#linearGradient3773);fill-opacity:1;fill-rule:nonzero;stroke:none;stroke-width:1;marker:none;visibility:visible;display:inline;overflow:visible;enable-background:accumulate" />
    <path
       d="M 30.84393,41.451404 19.068767,50.90908 36.22011,61.847951 47.88556,51.951402 30.84393,41.451404 z"
       inkscape:connector-curvature="0"
       id="path3696"
       style="color:#000000;fill:url(#linearGradient3763);fill-opacity:1;fill-rule:nonzero;stroke:none;stroke-width:1;marker:none;visibility:visible;display:inline;overflow:visible;enable-background:accumulate" />
    <path
       d="M 47.958369,48.999999 65,61.020815 47.958368,73.041631 30.916738,61.020815 47.958369,48.999999 z"
       inkscape:connector-curvature="0"
       id="path3775"
       style="opacity:0.2;color:#000000;fill:#fdfffe;fill-opacity:1;fill-rule:nonzero;stroke:none;stroke-width:1;marker:none;visibility:visible;display:inline;overflow:visible;enable-background:accumulate" />
    <path
       d="m 31.09375,41.59375 0,16.96875 5.125,3.28125 L 47.875,51.9375 31.09375,41.59375 z"
       inkscape:connector-curvature="0"
       id="path3777"
       style="opacity:0.6;fill:url(#linearGradient3790);fill-opacity:1;stroke:none" />
    <path
       d="m 64.96875,41.4375 -12.96875,8 -4,2.46875 0,0.125 11.59375,9.8125 5.4375,-3.46875 0,-16.875 -0.0625,-0.0625 z"
       inkscape:connector-curvature="0"
       id="path3792"
       style="opacity:0.6;fill:url(#linearGradient3799);fill-opacity:1;stroke:none" />
  </g>
</svg>
