<?xml version="1.0" encoding="UTF-8" standalone="no"?>
<!-- Created with Inkscape (http://www.inkscape.org/) -->

<svg
   xmlns:dc="http://purl.org/dc/elements/1.1/"
   xmlns:cc="http://creativecommons.org/ns#"
   xmlns:rdf="http://www.w3.org/1999/02/22-rdf-syntax-ns#"
   xmlns:svg="http://www.w3.org/2000/svg"
   xmlns="http://www.w3.org/2000/svg"
   xmlns:xlink="http://www.w3.org/1999/xlink"
   xmlns:inkscape="http://www.inkscape.org/namespaces/inkscape"
   version="1.0"
   width="96"
   height="96"
   id="svg2408">
  <defs
     id="defs2410">
    <linearGradient
       id="linearGradient4384">
      <stop
         id="stop4386"
         style="stop-color:#ffffff;stop-opacity:1"
         offset="0" />
      <stop
         id="stop4388"
         style="stop-color:#ffffff;stop-opacity:0"
         offset="1" />
    </linearGradient>
    <linearGradient
       id="linearGradient4367">
      <stop
         id="stop4369"
         style="stop-color:#ffffff;stop-opacity:0.71755725"
         offset="0" />
      <stop
         id="stop4371"
         style="stop-color:#ffffff;stop-opacity:1"
         offset="1" />
    </linearGradient>
    <linearGradient
       x1="45.447727"
       y1="92.539597"
       x2="45.447727"
       y2="7.0165396"
       id="ButtonShadow"
       gradientUnits="userSpaceOnUse"
       gradientTransform="scale(1.0058652,0.994169)">
      <stop
         id="stop3750"
         style="stop-color:#000000;stop-opacity:1"
         offset="0" />
      <stop
         id="stop3752"
         style="stop-color:#000000;stop-opacity:0.58823532"
         offset="1" />
    </linearGradient>
    <linearGradient
       id="linearGradient3737">
      <stop
         id="stop3739"
         style="stop-color:#ffffff;stop-opacity:1"
         offset="0" />
      <stop
         id="stop3741"
         style="stop-color:#ffffff;stop-opacity:0"
         offset="1" />
    </linearGradient>
    <filter
       color-interpolation-filters="sRGB"
       id="filter3174">
      <feGaussianBlur
         id="feGaussianBlur3176"
         stdDeviation="1.71" />
    </filter>
    <filter
       x="-0.192"
       y="-0.192"
       width="1.3839999"
       height="1.3839999"
       color-interpolation-filters="sRGB"
       id="filter3794">
      <feGaussianBlur
         id="feGaussianBlur3796"
         stdDeviation="5.28" />
    </filter>
    <linearGradient
       x1="48"
       y1="20.220806"
       x2="48"
       y2="138.66119"
       id="linearGradient3613"
       xlink:href="#linearGradient3737"
       gradientUnits="userSpaceOnUse" />
    <linearGradient
       x1="45.447727"
       y1="92.539597"
       x2="45.447727"
       y2="7.0165396"
       id="ButtonShadow-0"
       gradientUnits="userSpaceOnUse"
       gradientTransform="matrix(1.0058652,0,0,0.994169,100,0)">
      <stop
         id="stop3750-8"
         style="stop-color:#000000;stop-opacity:1"
         offset="0" />
      <stop
         id="stop3752-5"
         style="stop-color:#000000;stop-opacity:0.58823532"
         offset="1" />
    </linearGradient>
    <linearGradient
       x1="32.251034"
       y1="6.1317081"
       x2="32.251034"
       y2="90.238609"
       id="linearGradient3780"
       xlink:href="#ButtonShadow-0"
       gradientUnits="userSpaceOnUse"
       gradientTransform="matrix(1.0238095,0,0,1.0119048,-1.1428571,-98.071429)" />
    <linearGradient
       x1="32.251034"
       y1="6.1317081"
       x2="32.251034"
       y2="90.238609"
       id="linearGradient3772"
       xlink:href="#ButtonShadow-0"
       gradientUnits="userSpaceOnUse"
       gradientTransform="matrix(1.0238095,0,0,1.0119048,-1.1428571,-98.071429)" />
    <linearGradient
       x1="32.251034"
       y1="6.1317081"
       x2="32.251034"
       y2="90.238609"
       id="linearGradient3725"
       xlink:href="#ButtonShadow-0"
       gradientUnits="userSpaceOnUse"
       gradientTransform="matrix(1.0238095,0,0,1.0119048,-1.1428571,-98.071429)" />
    <linearGradient
       x1="32.251034"
       y1="6.1317081"
       x2="32.251034"
       y2="90.238609"
       id="linearGradient3721"
       xlink:href="#ButtonShadow-0"
       gradientUnits="userSpaceOnUse"
       gradientTransform="translate(0,-97)" />
    <linearGradient
       x1="32.251034"
       y1="6.1317081"
       x2="32.251034"
       y2="90.238609"
       id="linearGradient3026"
       xlink:href="#ButtonShadow-0"
       gradientUnits="userSpaceOnUse"
       gradientTransform="matrix(1.0238095,0,0,1.0119048,-1.1428571,-98.071429)" />
    <clipPath
       id="clipPath4355">
      <rect
         width="84"
         height="80"
         rx="6"
         ry="6"
         x="6"
         y="6"
         id="rect4357"
         style="fill:#ffffff;fill-opacity:1;fill-rule:nonzero;stroke:none" />
    </clipPath>
    <radialGradient
       cx="48"
       cy="87.792389"
       r="42"
       fx="48"
       fy="87.792389"
       id="radialGradient4375"
       xlink:href="#linearGradient4367"
       gradientUnits="userSpaceOnUse"
       gradientTransform="matrix(1,-6.7114942e-8,8.4282233e-8,1.2557894,109.99999,-24.505592)" />
    <linearGradient
       x1="48"
       y1="88"
       x2="48"
       y2="-40"
       id="linearGradient4390"
       xlink:href="#linearGradient4384"
       gradientUnits="userSpaceOnUse"
       gradientTransform="matrix(1,0,0,-1,0,92)" />
    <linearGradient
       x1="48"
       y1="82"
       x2="112.12357"
       y2="82.454597"
       id="linearGradient4429"
       xlink:href="#linearGradient4384"
       gradientUnits="userSpaceOnUse"
       spreadMethod="reflect" />
    <linearGradient
       id="linearGradient3843">
      <stop
         id="stop3845"
         style="stop-color:#523823;stop-opacity:1"
         offset="0" />
      <stop
         id="stop3847"
         style="stop-color:#79563a;stop-opacity:1"
         offset="0.11780351" />
      <stop
         id="stop3849"
         style="stop-color:#875c38;stop-opacity:1"
         offset="0.23809524" />
      <stop
         id="stop3851"
         style="stop-color:#a66e40;stop-opacity:1"
         offset="1" />
    </linearGradient>
    <linearGradient
       x1="8"
       y1="1033.3622"
       x2="50"
       y2="1033.3622"
       id="linearGradient3870"
       xlink:href="#linearGradient3843"
       gradientUnits="userSpaceOnUse"
       gradientTransform="translate(-2,-956.3622)"
       spreadMethod="reflect" />
    <radialGradient
       cx="56"
       cy="50.518402"
       r="30.119238"
       fx="56"
       fy="50.518402"
       id="radialGradient4191"
       xlink:href="#linearGradient4171"
       gradientUnits="userSpaceOnUse"
       gradientTransform="matrix(1.5936658,0,0,1.2948535,-33.245286,-16.413928)" />
    <linearGradient
       id="linearGradient4171">
      <stop
         id="stop4173"
         style="stop-color:#8c8c8c;stop-opacity:1"
         offset="0" />
      <stop
         id="stop4175"
         style="stop-color:#303032;stop-opacity:1"
         offset="1" />
    </linearGradient>
    <linearGradient
       x1="32"
       y1="26"
       x2="25"
       y2="20"
       id="linearGradient4202"
       xlink:href="#linearGradient4171"
       gradientUnits="userSpaceOnUse"
       gradientTransform="translate(0,-2)" />
    <linearGradient
       x1="48"
       y1="64"
       x2="48"
       y2="112"
       id="linearGradient4281"
       xlink:href="#linearGradient4275"
       gradientUnits="userSpaceOnUse"
       gradientTransform="translate(0,-2)"
       spreadMethod="reflect" />
    <linearGradient
       id="linearGradient4275">
      <stop
         id="stop4277"
         style="stop-color:#e8f8c8;stop-opacity:1"
         offset="0" />
      <stop
         id="stop4279"
         style="stop-color:#e8f8c8;stop-opacity:0"
         offset="1" />
    </linearGradient>
    <filter
       color-interpolation-filters="sRGB"
       id="filter4271">
      <feGaussianBlur
         id="feGaussianBlur4273"
         stdDeviation="0.33067541" />
    </filter>
    <filter
       color-interpolation-filters="sRGB"
       id="filter4314">
      <feGaussianBlur
         id="feGaussianBlur4316"
         stdDeviation="0.82668854" />
    </filter>
    <linearGradient
       x1="6"
       y1="88"
       x2="120"
       y2="88"
       id="linearGradient4161"
       xlink:href="#linearGradient4155"
       gradientUnits="userSpaceOnUse" />
    <linearGradient
       id="linearGradient4155">
      <stop
         id="stop4157"
         style="stop-color:#36681f;stop-opacity:1"
         offset="0" />
      <stop
         id="stop4159"
         style="stop-color:#36681f;stop-opacity:0"
         offset="1" />
    </linearGradient>
    <filter
       color-interpolation-filters="sRGB"
       id="filter4167">
      <feGaussianBlur
         id="feGaussianBlur4169"
         stdDeviation="1.68" />
    </filter>
    <linearGradient
       id="linearGradient4129">
      <stop
         id="stop4131"
         style="stop-color:#effac2;stop-opacity:1"
         offset="0" />
      <stop
         id="stop4179"
         style="stop-color:#effac2;stop-opacity:0.79389316"
         offset="0.5" />
      <stop
         id="stop4133"
         style="stop-color:#effac2;stop-opacity:0"
         offset="1" />
    </linearGradient>
    <linearGradient
       id="linearGradient3700-8">
      <stop
         id="stop3702-7"
         style="stop-color:#5eb71f;stop-opacity:1"
         offset="0" />
      <stop
         id="stop3704-1"
         style="stop-color:#4e9425;stop-opacity:1"
         offset="1" />
    </linearGradient>
    <linearGradient
       x1="48"
       y1="88"
       x2="48"
       y2="5.9877172"
       id="linearGradient3142"
       xlink:href="#linearGradient3700-8"
       gradientUnits="userSpaceOnUse" />
    <clipPath
       id="clipPath3170">
      <rect
         width="80"
         height="84"
         rx="6"
         ry="6"
         x="6"
         y="46"
         id="rect3172"
         style="fill:#ff00ff;fill-opacity:1;fill-rule:nonzero;stroke:none" />
    </clipPath>
    <radialGradient
       cx="48"
       cy="46.25"
       r="42"
       fx="48"
       fy="46.25"
       id="radialGradient3174"
       xlink:href="#linearGradient4129"
       gradientUnits="userSpaceOnUse"
       gradientTransform="matrix(1.1428572,0,0,1.1190476,-6.85715,-5.7559522)" />
  </defs>
  <metadata
     id="metadata2413">
    <rdf:RDF>
      <cc:Work
         rdf:about="">
        <dc:format>image/svg+xml</dc:format>
        <dc:type
           rdf:resource="http://purl.org/dc/dcmitype/StillImage" />
        <dc:title />
      </cc:Work>
    </rdf:RDF>
  </metadata>
  <g
     id="layer2"
     style="display:none">
    <rect
       width="86"
       height="85"
       rx="6"
       ry="6"
       x="5"
       y="7"
       id="rect3745"
       style="opacity:0.9;fill:url(#ButtonShadow);fill-opacity:1;fill-rule:nonzero;stroke:none;filter:url(#filter3174)" />
  </g>
  <g
     id="layer3"
     style="display:inline">
    <path
       d="m 12,-95.03125 c -5.5110903,0 -10.03125,4.52016 -10.03125,10.03125 l 0,71 c 0,5.5110902 4.5201598,10.03125 10.03125,10.03125 l 72,0 c 5.51109,0 10.03125,-4.5201597 10.03125,-10.03125 l 0,-71 c 0,-5.51109 -4.52016,-10.03125 -10.03125,-10.03125 l -72,0 z"
       transform="scale(1,-1)"
       id="path3786"
       style="opacity:0.07999998;fill:url(#linearGradient3026);fill-opacity:1;fill-rule:nonzero;stroke:none;display:inline" />
    <path
       d="m 12,-94.03125 c -4.971633,0 -9.03125,4.059617 -9.03125,9.03125 l 0,71 c 0,4.9716329 4.0596171,9.03125 9.03125,9.03125 l 72,0 c 4.971633,0 9.03125,-4.059617 9.03125,-9.03125 l 0,-71 c 0,-4.971633 -4.059617,-9.03125 -9.03125,-9.03125 l -72,0 z"
       transform="scale(1,-1)"
       id="path3778"
       style="opacity:0.1;fill:url(#linearGradient3780);fill-opacity:1;fill-rule:nonzero;stroke:none;display:inline" />
    <path
       d="m 12,-93 c -4.4091333,0 -8,3.590867 -8,8 l 0,71 c 0,4.4091333 3.5908667,8 8,8 l 72,0 c 4.409133,0 8,-3.5908667 8,-8 l 0,-71 c 0,-4.409133 -3.590867,-8 -8,-8 l -72,0 z"
       transform="scale(1,-1)"
       id="path3770"
       style="opacity:0.2;fill:url(#linearGradient3772);fill-opacity:1;fill-rule:nonzero;stroke:none;display:inline" />
    <rect
       width="86"
       height="85"
       rx="7"
       ry="7"
       x="5"
       y="-92"
       transform="scale(1,-1)"
       id="rect3723"
       style="opacity:0.3;fill:url(#linearGradient3725);fill-opacity:1;fill-rule:nonzero;stroke:none;display:inline" />
    <rect
       width="84"
       height="84"
       rx="6"
       ry="6"
       x="6"
       y="-91"
       transform="scale(1,-1)"
       id="rect3716"
       style="opacity:0.45;fill:url(#linearGradient3721);fill-opacity:1;fill-rule:nonzero;stroke:none;display:inline" />
  </g>
  <g
     id="layer4">
    <rect
       width="84"
       height="26.000017"
       rx="6"
       ry="6"
       x="6"
       y="64"
       id="rect2841"
       style="color:#000000;fill:url(#linearGradient3870);fill-opacity:1;fill-rule:nonzero;stroke:none;stroke-width:1.5;marker:none;visibility:visible;display:inline;overflow:visible;enable-background:accumulate" />
    <path
       d="m 6,82 0,2 c 0,3.324 2.676,6 6,6 l 72,0 c 3.324,0 6,-2.676 6,-6 l 0,-2 c 0,3.324 -2.676,6 -6,6 L 12,88 C 8.676,88 6,85.324 6,82 z"
       inkscape:connector-curvature="0"
       id="rect4345"
       style="opacity:0.1;color:#000000;fill:#000000;fill-opacity:1;fill-rule:nonzero;stroke:none;stroke-width:1.5;marker:none;visibility:visible;display:inline;overflow:visible;enable-background:accumulate" />
    <path
       d="m 6,83 0,1 c 0,3.324 2.676,6 6,6 l 72,0 c 3.324,0 6,-2.676 6,-6 l 0,-1 c 0,3.324 -2.676,6 -6,6 L 12,89 C 8.676,89 6,86.324 6,83 z"
       inkscape:connector-curvature="0"
       id="rect4336"
       style="opacity:0.1;color:#000000;fill:#000000;fill-opacity:1;fill-rule:nonzero;stroke:none;stroke-width:1.5;marker:none;visibility:visible;display:inline;overflow:visible;enable-background:accumulate" />
    <path
       d="m 6,80 0,1 c 0,3.324 2.676,6 6,6 l 72,0 c 3.324,0 6,-2.676 6,-6 l 0,-1 c 0,3.324 -2.676,6 -6,6 L 12,86 C 8.676,86 6,83.324 6,80 z"
       inkscape:connector-curvature="0"
       id="path4412"
       style="opacity:0.2;fill:#000000;fill-opacity:1;fill-rule:nonzero;stroke:none" />
  </g>
  <g
     id="layer1">
    <rect
       width="84"
       height="80"
       rx="6"
       ry="6"
       x="6"
       y="6"
       id="rect2419-7"
       style="fill:url(#linearGradient3142);fill-opacity:1;fill-rule:nonzero;stroke:none" />
    <rect
       width="84"
       height="80"
       rx="6"
       ry="6"
       x="6"
       y="6"
       id="rect3359"
       style="fill:url(#radialGradient3174);fill-opacity:1;fill-rule:nonzero;stroke:none" />
    <rect
       width="80"
       height="84"
       rx="6"
       ry="6"
       x="6"
       y="46"
       transform="matrix(0,1,-1,0,136,0)"
       clip-path="url(#clipPath3170)"
       id="rect4141"
       style="fill:none;stroke:url(#linearGradient4161);stroke-width:6;stroke-miterlimit:4;stroke-opacity:1;stroke-dasharray:none;filter:url(#filter4167)" />
    <path
       d="M 120.78125,6.125 C 118.04223,6.6826484 116,9.0915 116,12 l 0,68 c 0,3.324 2.676,6 6,6 l 72,0 c 3.324,0 6,-2.676 6,-6 l 0,-68 c 0,-2.9085 -2.04223,-5.3173516 -4.78125,-5.875 2.20512,0.5362071 3.8125,2.4908437 3.8125,4.875 l 0,68 c 0,2.80489 -2.22636,5.03125 -5.03125,5.03125 l -72,0 c -2.80489,0 -5.03125,-2.22636 -5.03125,-5.03125 l 0,-68 c 0,-2.3841563 1.60738,-4.3387929 3.8125,-4.875 z"
       inkscape:connector-curvature="0"
       id="rect4359"
       style="opacity:0.2;fill:url(#radialGradient4375);fill-opacity:1;fill-rule:nonzero;stroke:none" />
    <path
       d="M 12,86 C 8.676,86 6,83.324 6,80 L 6,12 C 6,8.676 8.676,6 12,6 l 72,0 c 3.324,0 6,2.676 6,6 l 0,68 c 0,3.324 -2.676,6 -6,6 z m 0,-0.96875 72,0 c 2.80489,0 5.03125,-2.22636 5.03125,-5.03125 l 0,-68 C 89.03125,9.19511 86.80489,6.96875 84,6.96875 l -72,0 C 9.1951102,6.96875 6.96875,9.19511 6.96875,12 l 0,68 c 0,2.80489 2.2263602,5.03125 5.03125,5.03125 z"
       inkscape:connector-curvature="0"
       id="rect4377"
       style="opacity:0.2;fill:url(#linearGradient4390);fill-opacity:1;fill-rule:nonzero;stroke:none" />
    <path
       d="m 6,78 0,2 c 0,3.324 2.676,6 6,6 l 72,0 c 3.324,0 6,-2.676 6,-6 l 0,-2 c 0,3.324 -2.676,6 -6,6 L 12,84 C 8.676,84 6,81.324 6,78 z"
       inkscape:connector-curvature="0"
       id="rect4414"
       style="opacity:0.2;fill:url(#linearGradient4429);fill-opacity:1;fill-rule:nonzero;stroke:none" />
  </g>
  <g
     id="layer5"
     style="display:inline">
    <rect
       width="66"
       height="62"
       rx="12"
       ry="12"
       x="15"
       y="15"
       clip-path="url(#clipPath4355)"
       id="rect3171"
       style="opacity:0.1;fill:url(#linearGradient3613);fill-opacity:1;fill-rule:nonzero;stroke:#ffffff;stroke-width:0.5;stroke-linecap:round;stroke-linejoin:miter;stroke-miterlimit:4;stroke-opacity:1;stroke-dasharray:none;stroke-dashoffset:0;filter:url(#filter3794)" />
  </g>
  <g
     id="layer6">
    <path
       d="m 41.53125,9.5 c -1.594102,0.05066 -2.879908,0.232472 -3.5,0.40625 -1.313902,0.36723 -2.784333,1.121484 -3.59375,2.28125 -0.542837,0.774663 -0.872271,1.769745 -0.875,3.15625 0,0.784718 0.01126,2.607593 0.03125,4.25 0.0199,1.647498 0.03125,3.146202 0.03125,3.15625 -9.34e-4,1.466803 -1.182998,2.65439 -2.65625,2.65625 l -6.75,0 c -1.441598,0 -2.533565,0.242754 -3.375,0.625 -0.842677,0.382615 -1.452768,0.889773 -1.90625,1.5 -0.90262,1.211765 -1.066227,2.69275 -1.0625,4.21875 0,0 0.01204,1.273902 0.3125,3.6875 0.249818,1.867537 2.295126,14.907229 4.21875,18.875 0.745877,1.543743 1.222189,2.194534 2.6875,2.875 3.264834,1.397799 10.723569,2.929715 14.21875,3.375 3.488848,0.446408 5.69503,1.392398 7,-1.34375 0.0046,-0.0068 0.240179,-0.667631 0.59375,-1.65625 1.132958,-3.433126 1.3125,-6.483142 1.3125,-8.6875 0,-0.224133 0.3125,-0.234435 0.3125,0 0,1.55628 -0.285121,7.053774 3.875,8.53125 1.642293,0.582425 5.038332,1.094299 8.5,1.5 3.130055,0.359657 5.40625,1.59465 5.40625,9.625 0,4.885653 -1.041679,5.5625 -6.40625,5.5625 -4.34864,0 -6,0.111085 -6,-3.34375 0,-2.792244 2.765765,-2.5 4.8125,-2.5 0.914168,0 0.25,-0.683542 0.25,-2.40625 0,-1.713643 1.076151,-2.693685 0.0625,-2.71875 -7.077476,-0.194724 -11.25,-0.0075 -11.25,8.84375 0,8.035443 3.080165,9.53125 13.125,9.53125 7.875718,0 10.654318,-0.253618 13.90625,-10.34375 0.643731,-1.991882 2.214418,-8.074833 3.15625,-18.28125 0.595577,-6.45335 -0.582376,-25.92769 -1.5,-30.84375 -0.536764,-2.873283 -2.236758,-4.318263 -3.78125,-4.875 -1.666351,-0.602281 -5.035857,-1.218359 -9.28125,-1.71875 -3.415497,-0.402225 -7.450095,-0.35621 -9.875,-0.28125 -0.291019,-1.993377 -1.685534,-3.807045 -3.25,-4.4375 C 47.676048,9.670139 44.188087,9.415576 41.53125,9.5 z m -9.25,1.9375 c -0.02588,0.0044 -0.06805,0.0054 -0.09375,0.03125 L 19.0625,24.5 c -0.02569,0.02112 -0.05512,0.03432 -0.0625,0.0625 0.271539,-0.134407 0.666253,-0.320664 0.71875,-0.34375 1.143385,-0.515906 2.527849,-0.78125 4.1875,-0.78125 l 6.75,0 c 0.387213,0 0.686753,-0.303268 0.6875,-0.6875 0,-0.0025 -0.0625,-5.79574 -0.0625,-7.40625 l 0,-0.03125 c 0,-1.322714 0.26648,-2.471093 0.75,-3.4375 l 0.25,-0.4375 z m 31.125,27.96875 c 0.165377,-0.01271 0.349979,-0.0064 0.53125,0 3.210608,0.110454 3.644833,3.13207 3.65625,5.1875 -1.353739,-0.603648 -3.018414,-0.998339 -4.84375,-1.0625 -0.972991,-0.03402 -1.908537,0.04726 -2.78125,0.1875 0.230255,-1.859598 0.956845,-4.121789 3.4375,-4.3125 z"
       inkscape:connector-curvature="0"
       id="path4318"
       style="opacity:0.1;fill:#000000;fill-opacity:1" />
    <path
       d="m 41.53125,9.0625 c -1.594102,0.05066 -2.879908,0.232472 -3.5,0.40625 -1.313902,0.36723 -2.784333,1.121484 -3.59375,2.28125 -0.542837,0.774663 -0.872271,1.769745 -0.875,3.15625 0,0.784718 0.01126,2.607593 0.03125,4.25 0.0199,1.647498 0.03125,3.146202 0.03125,3.15625 -9.34e-4,1.466803 -1.182998,2.65439 -2.65625,2.65625 l -6.75,0 c -1.441598,0 -2.533565,0.242754 -3.375,0.625 -0.842677,0.382615 -1.452768,0.889773 -1.90625,1.5 -0.90262,1.211765 -1.066227,2.69275 -1.0625,4.21875 0,0 0.01204,1.273902 0.3125,3.6875 0.249818,1.867537 2.295126,14.907229 4.21875,18.875 0.745877,1.543743 1.222189,2.194534 2.6875,2.875 3.264834,1.397799 10.723569,2.929715 14.21875,3.375 3.488848,0.446408 5.69503,1.392398 7,-1.34375 0.0046,-0.0068 0.240179,-0.667631 0.59375,-1.65625 1.132958,-3.433126 1.3125,-6.483142 1.3125,-8.6875 0,-0.224133 0.3125,-0.234435 0.3125,0 0,1.55628 -0.285121,7.053774 3.875,8.53125 1.642293,0.582425 5.038332,1.094299 8.5,1.5 3.130055,0.359657 5.40625,1.59465 5.40625,9.625 0,4.885653 -1.041679,5.5625 -6.40625,5.5625 -4.34864,0 -6,0.111085 -6,-3.34375 0,-2.792244 2.765765,-2.5 4.8125,-2.5 0.914168,0 0.25,-0.683542 0.25,-2.40625 0,-1.713643 1.076151,-2.693685 0.0625,-2.71875 -7.077476,-0.194724 -11.25,-0.0075 -11.25,8.84375 0,8.035443 3.080165,9.53125 13.125,9.53125 7.875718,0 10.654318,-0.253618 13.90625,-10.34375 0.643731,-1.991882 2.214418,-8.074833 3.15625,-18.28125 0.595577,-6.45335 -0.582376,-25.92769 -1.5,-30.84375 -0.536764,-2.873283 -2.236758,-4.318263 -3.78125,-4.875 C 71.021149,16.116469 67.651643,15.500391 63.40625,15 c -3.415497,-0.402225 -7.450095,-0.35621 -9.875,-0.28125 -0.291019,-1.993377 -1.685534,-3.807045 -3.25,-4.4375 -2.605202,-1.048611 -6.093163,-1.303174 -8.75,-1.21875 z M 32.28125,11 c -0.02588,0.0044 -0.06805,0.0054 -0.09375,0.03125 L 19.0625,24.0625 C 19.03681,24.08362 19.00738,24.09682 19,24.125 19.271539,23.990593 19.666253,23.804336 19.71875,23.78125 20.862135,23.265344 22.246599,23 23.90625,23 l 6.75,0 c 0.387213,0 0.686753,-0.303268 0.6875,-0.6875 0,-0.0025 -0.0625,-5.79574 -0.0625,-7.40625 l 0,-0.03125 c 0,-1.322714 0.26648,-2.471093 0.75,-3.4375 L 32.28125,11 z m 31.125,27.96875 c 0.165377,-0.01271 0.349979,-0.0064 0.53125,0 3.210608,0.110454 3.644833,3.13207 3.65625,5.1875 -1.353739,-0.603648 -3.018414,-0.998339 -4.84375,-1.0625 -0.972991,-0.03402 -1.908537,0.04726 -2.78125,0.1875 0.230255,-1.859598 0.956845,-4.121789 3.4375,-4.3125 z"
       inkscape:connector-curvature="0"
       id="path4301"
       style="opacity:0.8;fill:#37820f;fill-opacity:1;filter:url(#filter4314)" />
    <path
       d="m 41.53125,11.0625 c -1.594102,0.05066 -2.879908,0.232472 -3.5,0.40625 -1.313902,0.36723 -2.784333,1.121484 -3.59375,2.28125 -0.542837,0.774663 -0.872271,1.769745 -0.875,3.15625 0,0.784718 0.01126,2.607593 0.03125,4.25 0.0199,1.647498 0.03125,3.146202 0.03125,3.15625 -9.34e-4,1.466803 -1.182998,2.65439 -2.65625,2.65625 l -6.75,0 c -1.441598,0 -2.533565,0.242754 -3.375,0.625 -0.842677,0.382615 -1.452768,0.889773 -1.90625,1.5 -0.90262,1.211765 -1.066227,2.69275 -1.0625,4.21875 0,0 0.01204,1.273902 0.3125,3.6875 0.249818,1.867537 2.295126,14.907229 4.21875,18.875 0.745877,1.543743 1.222189,2.194534 2.6875,2.875 3.264834,1.397799 10.723569,2.929715 14.21875,3.375 3.488848,0.446408 5.69503,1.392398 7,-1.34375 0.0046,-0.0068 0.240179,-0.667631 0.59375,-1.65625 1.132958,-3.433126 1.3125,-6.483142 1.3125,-8.6875 0,-0.224133 0.3125,-0.234435 0.3125,0 0,1.55628 -0.285121,7.053774 3.875,8.53125 1.642293,0.582425 5.038332,1.094299 8.5,1.5 3.130055,0.359657 5.40625,1.59465 5.40625,9.625 0,4.885653 -1.041679,5.5625 -6.40625,5.5625 -4.34864,0 -6,0.111085 -6,-3.34375 0,-2.792244 2.765765,-2.5 4.8125,-2.5 0.914168,0 0.25,-0.683542 0.25,-2.40625 0,-1.713643 1.076151,-2.693685 0.0625,-2.71875 -7.077476,-0.194724 -11.25,-0.0075 -11.25,8.84375 0,8.035443 3.080165,9.53125 13.125,9.53125 7.875718,0 10.654318,-0.253618 13.90625,-10.34375 0.643731,-1.991882 2.214418,-8.074833 3.15625,-18.28125 0.595577,-6.45335 -0.582376,-25.92769 -1.5,-30.84375 -0.536764,-2.873283 -2.236758,-4.318263 -3.78125,-4.875 C 71.021149,18.116469 67.651643,17.500391 63.40625,17 c -3.415497,-0.402225 -7.450095,-0.35621 -9.875,-0.28125 -0.291019,-1.993377 -1.685534,-3.807045 -3.25,-4.4375 -2.605202,-1.048611 -6.093163,-1.303174 -8.75,-1.21875 z M 32.28125,13 c -0.02588,0.0044 -0.06805,0.0054 -0.09375,0.03125 L 19.0625,26.0625 C 19.03681,26.08362 19.00738,26.09682 19,26.125 19.271539,25.990593 19.666253,25.804336 19.71875,25.78125 20.862135,25.265344 22.246599,25 23.90625,25 l 6.75,0 c 0.387213,0 0.686753,-0.303268 0.6875,-0.6875 0,-0.0025 -0.0625,-5.79574 -0.0625,-7.40625 l 0,-0.03125 c 0,-1.322714 0.26648,-2.471093 0.75,-3.4375 L 32.28125,13 z m 31.125,27.96875 c 0.165377,-0.01271 0.349979,-0.0064 0.53125,0 3.210608,0.110454 3.644833,3.13207 3.65625,5.1875 -1.353739,-0.603648 -3.018414,-0.998339 -4.84375,-1.0625 -0.972991,-0.03402 -1.908537,0.04726 -2.78125,0.1875 0.230255,-1.859598 0.956845,-4.121789 3.4375,-4.3125 z"
       inkscape:connector-curvature="0"
       id="path4254"
       style="fill:url(#linearGradient4281);fill-opacity:1;filter:url(#filter4271)" />
    <path
       d="m 23.897518,23.997122 c 0,0 0,0 0.0046,0 h 6.757157 c 0.387213,0 0.698591,-0.315351 0.699338,-0.699583 0,-0.0025 -0.08203,-5.793853 -0.08203,-7.404363 v -0.01911 c 0,-1.322714 0.277613,-2.475901 0.761133,-3.442308 l 0.231086,-0.433995 c -0.02588,0.0044 -0.05175,0.01699 -0.07745,0.04282 L 19.062078,25.06022 c -0.02569,0.02112 -0.04176,0.04852 -0.04914,0.0767 0.271539,-0.134407 0.642862,-0.318082 0.695359,-0.341168 1.143385,-0.515906 2.529769,-0.798617 4.18942,-0.798617 z"
       inkscape:connector-curvature="0"
       id="path4185"
       style="fill:url(#linearGradient4202);fill-opacity:1" />
    <path
       d="m 41.53125,10.0625 c -1.594102,0.05066 -2.879908,0.232472 -3.5,0.40625 -1.313902,0.36723 -2.784333,1.121484 -3.59375,2.28125 -0.542837,0.774663 -0.872271,1.769745 -0.875,3.15625 0,0.784718 0.01126,2.607593 0.03125,4.25 0.0199,1.647498 0.03125,3.146202 0.03125,3.15625 -9.34e-4,1.466803 -1.182998,2.65439 -2.65625,2.65625 l -6.75,0 c -1.441598,0 -2.533565,0.242754 -3.375,0.625 -0.842677,0.382615 -1.452768,0.889773 -1.90625,1.5 -0.90262,1.211765 -1.066227,2.69275 -1.0625,4.21875 0,0 0.01204,1.273902 0.3125,3.6875 0.249818,1.867537 2.295126,14.907229 4.21875,18.875 0.745877,1.543743 1.222189,2.194534 2.6875,2.875 3.264834,1.397799 10.723569,2.929715 14.21875,3.375 3.488848,0.446408 5.69503,1.392398 7,-1.34375 0.0046,-0.0068 0.240179,-0.667631 0.59375,-1.65625 1.132958,-3.433126 1.3125,-6.483142 1.3125,-8.6875 0,-0.224133 0.3125,-0.234435 0.3125,0 0,1.55628 -0.285121,7.053774 3.875,8.53125 1.642293,0.582425 5.038332,1.094299 8.5,1.5 3.130055,0.359657 5.40625,1.59465 5.40625,9.625 0,4.885653 -1.041679,5.5625 -6.40625,5.5625 -4.34864,0 -6,0.111085 -6,-3.34375 0,-2.792244 2.765765,-2.5 4.8125,-2.5 0.914168,0 0.25,-0.683542 0.25,-2.40625 0,-1.713643 1.076151,-2.693685 0.0625,-2.71875 -7.077476,-0.194724 -11.25,-0.0075 -11.25,8.84375 0,8.035443 3.080165,9.53125 13.125,9.53125 7.875718,0 10.654318,-0.253618 13.90625,-10.34375 0.643731,-1.991882 2.214418,-8.074833 3.15625,-18.28125 0.595577,-6.45335 -0.582376,-25.92769 -1.5,-30.84375 -0.536764,-2.873283 -2.236758,-4.318263 -3.78125,-4.875 C 71.021149,17.116469 67.651643,16.500391 63.40625,16 c -3.415497,-0.402225 -7.450095,-0.35621 -9.875,-0.28125 -0.291019,-1.993377 -1.685534,-3.807045 -3.25,-4.4375 -2.605202,-1.048611 -6.093163,-1.303174 -8.75,-1.21875 z m 21.875,29.90625 c 0.165377,-0.01271 0.349979,-0.0064 0.53125,0 3.210608,0.110454 3.644833,3.13207 3.65625,5.1875 -1.353739,-0.603648 -3.018414,-0.998339 -4.84375,-1.0625 -0.972991,-0.03402 -1.908537,0.04726 -2.78125,0.1875 0.230255,-1.859598 0.956845,-4.121789 3.4375,-4.3125 z"
       inkscape:connector-curvature="0"
       id="path4183"
       style="fill:url(#radialGradient4191);fill-opacity:1" />
    <path
       d="m 41.53125,10.0625 c -1.594102,0.05066 -2.879908,0.232472 -3.5,0.40625 -1.313902,0.36723 -2.784333,1.121484 -3.59375,2.28125 -0.542837,0.774663 -0.872271,1.769745 -0.875,3.15625 0,0.784718 0.01126,2.607593 0.03125,4.25 0.0199,1.647498 0.03125,3.146202 0.03125,3.15625 -9.34e-4,1.466803 -1.182998,2.65439 -2.65625,2.65625 l -6.75,0 c -1.441598,0 -2.533565,0.242754 -3.375,0.625 -0.842677,0.382615 -1.452768,0.889773 -1.90625,1.5 -0.90262,1.211765 -1.066227,2.69275 -1.0625,4.21875 0,0 0.01204,1.273902 0.3125,3.6875 0.249818,1.867537 2.295126,14.907229 4.21875,18.875 0.745877,1.543743 1.222189,2.194534 2.6875,2.875 3.264834,1.397799 10.723569,2.929715 14.21875,3.375 3.488848,0.446408 5.69503,1.392398 7,-1.34375 0.0046,-0.0068 0.240179,-0.667631 0.59375,-1.65625 1.132958,-3.433126 1.3125,-6.483142 1.3125,-8.6875 0,-0.224133 0.3125,-0.234435 0.3125,0 0,1.55628 -0.285121,7.053774 3.875,8.53125 1.642293,0.582425 5.038332,1.094299 8.5,1.5 3.130055,0.359657 5.40625,1.59465 5.40625,9.625 0,4.885653 -1.041679,5.5625 -6.40625,5.5625 -4.34864,0 -6,0.111085 -6,-3.34375 0,-2.792244 2.765765,-2.5 4.8125,-2.5 0.914168,0 0.25,-0.683542 0.25,-2.40625 0,-1.713643 1.076151,-2.693685 0.0625,-2.71875 -7.077476,-0.194724 -11.25,-0.0075 -11.25,8.84375 0,8.035443 3.080165,9.53125 13.125,9.53125 7.875718,0 10.654318,-0.253618 13.90625,-10.34375 0.643731,-1.991882 2.214418,-8.074833 3.15625,-18.28125 0.595577,-6.45335 -0.582376,-25.92769 -1.5,-30.84375 -0.536764,-2.873283 -2.236758,-4.318263 -3.78125,-4.875 C 71.021149,17.116469 67.651643,16.500391 63.40625,16 c -3.415497,-0.402225 -7.450095,-0.35621 -9.875,-0.28125 -0.291019,-1.993377 -1.685534,-3.807045 -3.25,-4.4375 -2.605202,-1.048611 -6.093163,-1.303174 -8.75,-1.21875 z m 0.03125,0.96875 c 2.567395,-0.08158 5.967952,0.199975 8.34375,1.15625 1.148649,0.462887 2.417444,2.051763 2.65625,3.6875 a 0.97708905,0.97708905 0 0 0 1,0.8125 c 2.403795,-0.07431 6.400603,-0.109511 9.71875,0.28125 4.212494,0.496513 7.591804,1.124686 9.0625,1.65625 1.252309,0.451415 2.677008,1.590879 3.15625,4.15625 0.859902,4.606821 2.068214,24.40564 1.5,30.5625 -0.935963,10.142818 -2.517249,16.18195 -3.125,18.0625 -1.601778,4.970015 -3.032766,7.307104 -4.8125,8.4375 -1.779734,1.130396 -4.228878,1.25 -8.15625,1.25 -4.973922,0 -8.093353,-0.445194 -9.78125,-1.59375 C 50.281051,78.925722 49.733689,78.205012 49.34375,77.09375 48.953811,75.982488 48.75,74.477694 48.75,72.53125 c 0,-2.136053 0.25269,-3.690049 0.6875,-4.78125 0.43481,-1.091201 1.027574,-1.72787 1.8125,-2.1875 1.457741,-0.85361 3.935929,-0.970456 7.09375,-0.90625 C 58.198014,65.102951 58,65.591375 58,66.40625 c 0,0.735884 0.08785,1.108154 0.15625,1.46875 -0.88818,-0.01713 -1.867067,-0.106139 -2.875,0.1875 -0.602508,0.175527 -1.239876,0.501167 -1.6875,1.0625 -0.447624,0.561333 -0.65625,1.328151 -0.65625,2.1875 0,0.94154 0.08956,1.730371 0.40625,2.40625 0.316688,0.675879 0.908228,1.192323 1.5625,1.46875 1.308543,0.552854 2.833999,0.4375 5,0.4375 2.723374,0 4.543276,-0.06681 5.84375,-1.15625 0.650237,-0.544722 1.036408,-1.335449 1.25,-2.21875 0.213592,-0.883301 0.28125,-1.900119 0.28125,-3.15625 0,-4.107484 -0.529676,-6.613287 -1.6875,-8.25 C 64.435926,59.207037 62.695586,58.691239 61.03125,58.5 57.590572,58.096759 54.131113,57.563382 52.71875,57.0625 51.00544,56.454014 50.247328,55.077124 49.84375,53.5 49.440172,51.922876 49.5,50.275304 49.5,49.4375 c 0,-0.275662 -0.115386,-0.621601 -0.34375,-0.84375 -0.228364,-0.222149 -0.534592,-0.317081 -0.8125,-0.3125 -0.555815,0.0092 -1.09375,0.590123 -1.09375,1.15625 0,2.151308 -0.192631,5.076233 -1.28125,8.375 -0.169621,0.474309 -0.305982,0.90736 -0.40625,1.1875 -0.04549,0.127088 -0.06665,0.205974 -0.09375,0.28125 -0.0037,0.01033 -0.02791,0.02199 -0.03125,0.03125 -0.0045,0.0078 -1.3e-5,0.03128 0,0.03125 a 0.97708905,0.97708905 0 0 0 0,0.03125 c -0.0039,0.0106 -0.0287,0.0243 -0.03125,0.03125 -0.0035,0.0088 1.15e-4,0.03095 0,0.03125 -0.519683,1.055553 -0.916927,1.180056 -1.8125,1.21875 -0.919582,0.03973 -2.351364,-0.26906 -4.15625,-0.5 C 36.048128,59.724445 28.476081,58.131302 25.46875,56.84375 24.193983,56.245667 23.993306,55.911245 23.28125,54.4375 22.443421,52.709348 21.403232,48.433759 20.625,44.46875 19.846768,40.503741 19.274322,36.757657 19.15625,35.875 c -0.295649,-2.374954 -0.3125,-3.5625 -0.3125,-3.5625 -0.0036,-1.454626 0.166404,-2.673712 0.875,-3.625 0.357836,-0.481521 0.822861,-0.897108 1.53125,-1.21875 0.693456,-0.315022 1.636831,-0.53125 2.96875,-0.53125 l 6.75,0 c 1.997625,-0.0025 3.623732,-1.633643 3.625,-3.625 0,-0.09322 3.51e-4,-0.04841 0,-0.09375 -3.51e-4,-0.04534 6.89e-4,-0.103526 0,-0.1875 -0.0014,-0.167947 0.0027,-0.396222 0,-0.6875 -0.0053,-0.582557 -0.02128,-1.362416 -0.03125,-2.1875 -0.01994,-1.638075 -0.03125,-3.474628 -0.03125,-4.25 0.0024,-1.23267 0.294953,-1.988965 0.71875,-2.59375 0.605379,-0.867411 1.86936,-1.581507 3.03125,-1.90625 0.452675,-0.12686 1.744651,-0.326167 3.28125,-0.375 z M 32.28125,12 c -0.02588,0.0044 -0.06805,0.0054 -0.09375,0.03125 L 19.0625,25.0625 C 19.03681,25.08362 19.00738,25.09682 19,25.125 19.271539,24.990593 19.666253,24.804336 19.71875,24.78125 20.862135,24.265344 22.246599,24 23.90625,24 l 6.75,0 c 0.387213,0 0.686753,-0.303268 0.6875,-0.6875 0,-0.0025 -0.0625,-5.79574 -0.0625,-7.40625 l 0,-0.03125 c 0,-1.322714 0.26648,-2.471093 0.75,-3.4375 L 32.28125,12 z m -1.8125,3.09375 C 30.44518,15.3735 30.3125,15.582949 30.3125,15.875 l 0,0.03125 c 0,1.573672 0.05811,6.715098 0.0625,7.125 l -6.46875,0 c -0.557737,0 -1.05184,0.06793 -1.5625,0.125 l 8.125,-8.0625 z M 63.34375,39 c -1.527429,0.117428 -2.666866,0.949358 -3.3125,1.96875 C 59.385616,41.988142 59.124591,43.150024 59,44.15625 A 0.97708905,0.97708905 0 0 0 60.125,45.25 c 0.823108,-0.132269 1.696926,-0.218857 2.59375,-0.1875 1.705601,0.05995 3.242424,0.453167 4.46875,1 a 0.97708905,0.97708905 0 0 0 1.375,-0.90625 c -0.0061,-1.093852 -0.08928,-2.486726 -0.71875,-3.75 -0.62947,-1.263274 -1.965258,-2.340549 -3.875,-2.40625 -0.182016,-0.0064 -0.379605,-0.01886 -0.625,0 z m 0.0625,0.96875 c 0.165377,-0.01271 0.349979,-0.0064 0.53125,0 3.210608,0.110454 3.644833,3.13207 3.65625,5.1875 -1.353739,-0.603648 -3.018414,-0.998339 -4.84375,-1.0625 -0.972991,-0.03402 -1.908537,0.04726 -2.78125,0.1875 0.230255,-1.859598 0.956845,-4.121789 3.4375,-4.3125 z"
       inkscape:connector-curvature="0"
       id="path4329"
       style="opacity:0.1;fill:#000000;fill-opacity:1" />
    <path
       d="m 32.28125,12 c -0.02588,0.0044 -0.06805,0.0054 -0.09375,0.03125 l -0.375,0.375 c -0.333604,0.848337 -0.53125,1.817359 -0.53125,2.90625 l 0,0.03125 c 0,0.101924 -4.69e-4,0.335849 0,0.46875 0.0084,-1.295956 0.274246,-2.424116 0.75,-3.375 L 32.28125,12 z m -0.9375,10.78125 c -0.01598,0.369737 -0.310537,0.65625 -0.6875,0.65625 l -6.75,0 c -1.515596,0 -2.792406,0.224947 -3.875,0.65625 L 19.0625,25.0625 C 19.03681,25.08362 19.00738,25.09682 19,25.125 19.271539,24.990593 19.666253,24.804336 19.71875,24.78125 20.862135,24.265344 22.246599,24 23.90625,24 l 6.75,0 c 0.387213,0 0.686753,-0.303268 0.6875,-0.6875 0,-1.79e-4 5.97e-4,-0.47517 0,-0.53125 z M 17.875,32 c -0.0015,0.105382 -2.59e-4,0.206609 0,0.3125 0,0 0.01204,1.273902 0.3125,3.6875 0.249818,1.867537 2.295126,14.907229 4.21875,18.875 0.745877,1.543743 1.222189,2.194534 2.6875,2.875 3.264834,1.397799 10.723569,2.929715 14.21875,3.375 3.488848,0.446408 5.69503,1.392398 7,-1.34375 0.0046,-0.0068 0.240179,-0.667631 0.59375,-1.65625 0.937594,-2.841129 1.210965,-5.383282 1.28125,-7.4375 -0.103604,1.948708 -0.431531,4.300156 -1.28125,6.875 -0.353571,0.988619 -0.58915,1.64945 -0.59375,1.65625 -1.30497,2.736148 -3.511152,1.790158 -7,1.34375 -3.495181,-0.445285 -10.953916,-1.977201 -14.21875,-3.375 -1.465311,-0.680466 -1.941623,-1.331257 -2.6875,-2.875 C 20.482626,50.344729 18.437318,37.305037 18.1875,35.4375 17.927057,33.345358 17.88203,32.292073 17.875,32 z m 45.53125,7.40625 c -2.480655,0.190711 -3.207245,2.452902 -3.4375,4.3125 0.03004,-0.0048 0.06356,0.0047 0.09375,0 0.306105,-1.727577 1.105471,-3.577923 3.34375,-3.75 0.165377,-0.01271 0.349979,-0.0064 0.53125,0 2.932585,0.100889 3.531566,2.621274 3.625,4.625 0.0087,0.0039 0.02257,-0.0039 0.03125,0 -0.01142,-2.05543 -0.445642,-5.077046 -3.65625,-5.1875 -0.181271,-0.0064 -0.365873,-0.01271 -0.53125,0 z M 48.375,48.6875 c -0.07813,0.0013 -0.15625,0.07543 -0.15625,0.1875 0,0.170977 0.0025,0.381564 0,0.5625 0,-0.224133 0.3125,-0.234435 0.3125,0 0.0012,-0.168011 0,-0.439674 0,-0.5625 0,-0.117217 -0.07813,-0.188788 -0.15625,-0.1875 z m 29.75,1.21875 C 78.102,51.065959 78.0432,52.068331 77.96875,52.875 77.026918,63.081417 75.456231,69.164368 74.8125,71.15625 71.560568,81.246382 68.781968,81.5 60.90625,81.5 c -9.417033,0 -12.718568,-1.308415 -13.09375,-8.09375 0.230922,7.25789 3.431172,8.65625 13.09375,8.65625 7.875718,0 10.654318,-0.253618 13.90625,-10.34375 0.643731,-1.991882 2.214418,-8.074833 3.15625,-18.28125 0.08525,-0.923766 0.137712,-2.154763 0.15625,-3.53125 z m -29.5625,0.75 c 0.03389,2.214698 0.39533,6.087786 3.84375,7.3125 1.642293,0.582425 5.038332,1.094299 8.5,1.5 2.934427,0.337178 5.113467,1.433698 5.375,8.1875 -0.164667,-7.235489 -2.364059,-8.40403 -5.375,-8.75 -3.461668,-0.405701 -6.857707,-0.917575 -8.5,-1.5 -3.120091,-1.108107 -3.728935,-4.478017 -3.84375,-6.75 z m 10.8125,13.1875 c -0.142331,0.462349 -0.40625,1.143179 -0.40625,2 0,0.101721 -0.0042,0.186702 0,0.28125 0.08562,-1.199884 0.624127,-1.983248 0.40625,-2.28125 z M 59.15625,68.125 c -0.06629,0.091 -0.208958,0.125 -0.4375,0.125 -2.046735,0 -4.8125,-0.292244 -4.8125,2.5 0,0.0963 0.02866,0.159163 0.03125,0.25 0.202967,-2.45581 2.814652,-2.1875 4.78125,-2.1875 0.495689,0 0.512408,-0.228865 0.4375,-0.6875 z"
       inkscape:connector-curvature="0"
       id="path4204"
       style="opacity:0.6;fill:#000000;fill-opacity:1" />
    <path
       d="m 41.5625,11.03125 c -1.536447,0.04883 -2.829019,0.248264 -3.28125,0.375 -1.161487,0.324631 -2.426412,1.039613 -3.03125,1.90625 -0.423482,0.604335 -0.716325,1.361487 -0.71875,2.59375 0,0.08551 -2.72e-4,0.359112 0,0.46875 0.0077,-1.212273 0.299168,-1.96373 0.71875,-2.5625 0.604838,-0.866637 1.869763,-1.581619 3.03125,-1.90625 0.452231,-0.126736 1.744803,-0.326172 3.28125,-0.375 2.567158,-0.08157 5.968559,0.20022 8.34375,1.15625 1.147547,0.462443 2.417582,2.052711 2.65625,3.6875 a 0.97967735,0.97967735 0 0 0 1,0.8125 c 2.403739,-0.07431 6.400861,-0.10948 9.71875,0.28125 4.212406,0.496503 7.592322,1.124873 9.0625,1.65625 1.251535,0.451136 2.67716,1.591695 3.15625,4.15625 0.537343,2.878751 1.209121,11.697572 1.5,19.40625 C 76.720461,34.859796 76.049443,25.724823 75.5,22.78125 75.02091,20.216695 73.595285,19.076136 72.34375,18.625 70.873572,18.093623 67.493656,17.465253 63.28125,16.96875 59.963361,16.57802 55.966239,16.613194 53.5625,16.6875 a 0.97967735,0.97967735 0 0 1 -1,-0.8125 C 52.323832,14.240211 51.053797,12.649943 49.90625,12.1875 47.531059,11.23147 44.129658,10.949676 41.5625,11.03125 z m -11.09375,4.0625 -8.125,8.0625 c 0.19121,-0.02137 0.371777,-0.04222 0.5625,-0.0625 l 7.4375,-7.375 c 0.03412,-0.214327 0.105987,-0.399361 0.125,-0.625 z m 4.125,8.21875 c -0.0013,1.992747 -1.625985,3.622476 -3.625,3.625 l -6.75,0 c -1.331629,0 -2.275686,0.247656 -2.96875,0.5625 -0.708033,0.32148 -1.173668,0.70632 -1.53125,1.1875 -0.616811,0.828067 -0.802502,1.879949 -0.84375,3.09375 0.07964,-1.001265 0.312689,-1.880802 0.84375,-2.59375 C 20.076332,28.70632 20.541967,28.32148 21.25,28 c 0.693064,-0.314844 1.637121,-0.5625 2.96875,-0.5625 l 6.75,0 c 1.999015,-0.0025 3.623731,-1.632253 3.625,-3.625 0,-0.09346 3.51e-4,-0.04841 0,-0.09375 -3.51e-4,-0.04534 6.89e-4,-0.103526 0,-0.1875 -4.38e-4,-0.05344 -2.69e-4,-0.153011 0,-0.21875 z M 59.03125,44.5 C 59.02425,44.55138 59.00627,44.605615 59,44.65625 A 0.97967735,0.97967735 0 0 0 60.125,45.75 c 0.822976,-0.132248 1.697127,-0.21885 2.59375,-0.1875 1.705284,0.05994 3.242761,0.453317 4.46875,1 a 0.97967735,0.97967735 0 0 0 1.375,-0.90625 c -6.5e-4,-0.117068 0.003,-0.251629 0,-0.375 a 0.97967735,0.97967735 0 0 1 -1.375,0.78125 c -1.225989,-0.546683 -2.763466,-0.940059 -4.46875,-1 C 61.822127,45.03115 60.947976,45.11775 60.125,45.25 A 0.97967735,0.97967735 0 0 1 59.03125,44.5 z m -2.9375,20.15625 C 53.996028,64.70216 52.342646,64.922679 51.25,65.5625 50.465548,66.021852 49.903383,66.659244 49.46875,67.75 49.034117,68.840756 48.75,70.395401 48.75,72.53125 c 0,0.110527 -0.0013,0.204808 0,0.3125 0.01705,-2.034199 0.297676,-3.537021 0.71875,-4.59375 0.434633,-1.090756 0.996798,-1.728148 1.78125,-2.1875 1.431568,-0.838284 3.857838,-0.962961 6.9375,-0.90625 0.05117,-0.169787 0.107392,-0.35025 0.15625,-0.5 -0.789435,-0.01605 -1.550759,-0.0153 -2.25,0 z M 58,66.625 c -0.0057,0.09198 0,0.179652 0,0.28125 0,0.424768 0.02461,0.718687 0.0625,0.96875 0.02979,7.14e-4 0.06416,-5.71e-4 0.09375,0 C 58.09636,67.559276 58.01768,67.195062 58,66.625 z m 9.25,4.1875 c -0.03579,0.521578 -0.111911,0.995674 -0.21875,1.4375 -0.213677,0.883653 -0.630524,1.673618 -1.28125,2.21875 -1.301453,1.090265 -3.120267,1.15625 -5.84375,1.15625 -2.165979,0 -3.690524,0.115748 -5,-0.4375 -0.654738,-0.276624 -1.245563,-0.79234 -1.5625,-1.46875 -0.288184,-0.615045 -0.39048,-1.324977 -0.40625,-2.15625 -0.0042,0.08379 0,0.164237 0,0.25 0,0.941746 0.08931,1.72984 0.40625,2.40625 0.316937,0.67641 0.907762,1.192126 1.5625,1.46875 1.309476,0.553248 2.834021,0.4375 5,0.4375 2.723483,0 4.542297,-0.06598 5.84375,-1.15625 0.650726,-0.545132 1.067573,-1.335097 1.28125,-2.21875 0.137909,-0.570315 0.19068,-1.227814 0.21875,-1.9375 z"
       inkscape:connector-curvature="0"
       id="path4348"
       style="opacity:0.1;fill:#ffffff;fill-opacity:1" />
  </g>
</svg>
