<?xml version="1.0" encoding="UTF-8" standalone="no"?>
<!-- Created with Inkscape (http://www.inkscape.org/) -->

<svg
   xmlns:dc="http://purl.org/dc/elements/1.1/"
   xmlns:cc="http://creativecommons.org/ns#"
   xmlns:rdf="http://www.w3.org/1999/02/22-rdf-syntax-ns#"
   xmlns:svg="http://www.w3.org/2000/svg"
   xmlns="http://www.w3.org/2000/svg"
   xmlns:xlink="http://www.w3.org/1999/xlink"
   xmlns:inkscape="http://www.inkscape.org/namespaces/inkscape"
   version="1.0"
   width="96"
   height="96"
   id="svg2408">
  <defs
     id="defs2410">
    <linearGradient
       id="linearGradient4384">
      <stop
         id="stop4386"
         style="stop-color:#ffffff;stop-opacity:1"
         offset="0" />
      <stop
         id="stop4388"
         style="stop-color:#ffffff;stop-opacity:0"
         offset="1" />
    </linearGradient>
    <linearGradient
       id="linearGradient4367">
      <stop
         id="stop4369"
         style="stop-color:#ffffff;stop-opacity:0.71755725"
         offset="0" />
      <stop
         id="stop4371"
         style="stop-color:#ffffff;stop-opacity:1"
         offset="1" />
    </linearGradient>
    <linearGradient
       x1="45.447727"
       y1="92.539597"
       x2="45.447727"
       y2="7.0165396"
       id="ButtonShadow"
       gradientUnits="userSpaceOnUse"
       gradientTransform="scale(1.0058652,0.994169)">
      <stop
         id="stop3750"
         style="stop-color:#000000;stop-opacity:1"
         offset="0" />
      <stop
         id="stop3752"
         style="stop-color:#000000;stop-opacity:0.58823532"
         offset="1" />
    </linearGradient>
    <linearGradient
       id="linearGradient3737">
      <stop
         id="stop3739"
         style="stop-color:#ffffff;stop-opacity:1"
         offset="0" />
      <stop
         id="stop3741"
         style="stop-color:#ffffff;stop-opacity:0"
         offset="1" />
    </linearGradient>
    <filter
       color-interpolation-filters="sRGB"
       id="filter3174">
      <feGaussianBlur
         id="feGaussianBlur3176"
         stdDeviation="1.71" />
    </filter>
    <filter
       x="-0.192"
       y="-0.192"
       width="1.3839999"
       height="1.3839999"
       color-interpolation-filters="sRGB"
       id="filter3794">
      <feGaussianBlur
         id="feGaussianBlur3796"
         stdDeviation="5.28" />
    </filter>
    <linearGradient
       x1="48"
       y1="20.220806"
       x2="48"
       y2="138.66119"
       id="linearGradient3613"
       xlink:href="#linearGradient3737"
       gradientUnits="userSpaceOnUse" />
    <linearGradient
       x1="45.447727"
       y1="92.539597"
       x2="45.447727"
       y2="7.0165396"
       id="ButtonShadow-0"
       gradientUnits="userSpaceOnUse"
       gradientTransform="matrix(1.0058652,0,0,0.994169,100,0)">
      <stop
         id="stop3750-8"
         style="stop-color:#000000;stop-opacity:1"
         offset="0" />
      <stop
         id="stop3752-5"
         style="stop-color:#000000;stop-opacity:0.58823532"
         offset="1" />
    </linearGradient>
    <linearGradient
       x1="32.251034"
       y1="6.1317081"
       x2="32.251034"
       y2="90.238609"
       id="linearGradient3780"
       xlink:href="#ButtonShadow-0"
       gradientUnits="userSpaceOnUse"
       gradientTransform="matrix(1.0238095,0,0,1.0119048,-1.1428571,-98.071429)" />
    <linearGradient
       x1="32.251034"
       y1="6.1317081"
       x2="32.251034"
       y2="90.238609"
       id="linearGradient3772"
       xlink:href="#ButtonShadow-0"
       gradientUnits="userSpaceOnUse"
       gradientTransform="matrix(1.0238095,0,0,1.0119048,-1.1428571,-98.071429)" />
    <linearGradient
       x1="32.251034"
       y1="6.1317081"
       x2="32.251034"
       y2="90.238609"
       id="linearGradient3725"
       xlink:href="#ButtonShadow-0"
       gradientUnits="userSpaceOnUse"
       gradientTransform="matrix(1.0238095,0,0,1.0119048,-1.1428571,-98.071429)" />
    <linearGradient
       x1="32.251034"
       y1="6.1317081"
       x2="32.251034"
       y2="90.238609"
       id="linearGradient3721"
       xlink:href="#ButtonShadow-0"
       gradientUnits="userSpaceOnUse"
       gradientTransform="translate(0,-97)" />
    <linearGradient
       x1="32.251034"
       y1="6.1317081"
       x2="32.251034"
       y2="90.238609"
       id="linearGradient3026"
       xlink:href="#ButtonShadow-0"
       gradientUnits="userSpaceOnUse"
       gradientTransform="matrix(1.0238095,0,0,1.0119048,-1.1428571,-98.071429)" />
    <clipPath
       id="clipPath4355">
      <rect
         width="84"
         height="80"
         rx="6"
         ry="6"
         x="6"
         y="6"
         id="rect4357"
         style="fill:#ffffff;fill-opacity:1;fill-rule:nonzero;stroke:none" />
    </clipPath>
    <radialGradient
       cx="48"
       cy="87.792389"
       r="42"
       fx="48"
       fy="87.792389"
       id="radialGradient4375"
       xlink:href="#linearGradient4367"
       gradientUnits="userSpaceOnUse"
       gradientTransform="matrix(1,-6.7114942e-8,8.4282233e-8,1.2557894,109.99999,-24.505592)" />
    <linearGradient
       x1="48"
       y1="88"
       x2="48"
       y2="-40"
       id="linearGradient4390"
       xlink:href="#linearGradient4384"
       gradientUnits="userSpaceOnUse"
       gradientTransform="matrix(1,0,0,-1,0,92)" />
    <linearGradient
       x1="48"
       y1="82"
       x2="112.12357"
       y2="82.454597"
       id="linearGradient4429"
       xlink:href="#linearGradient4384"
       gradientUnits="userSpaceOnUse"
       spreadMethod="reflect" />
    <linearGradient
       id="linearGradient3843">
      <stop
         id="stop3845"
         style="stop-color:#523823;stop-opacity:1"
         offset="0" />
      <stop
         id="stop3847"
         style="stop-color:#79563a;stop-opacity:1"
         offset="0.11780351" />
      <stop
         id="stop3849"
         style="stop-color:#875c38;stop-opacity:1"
         offset="0.23809524" />
      <stop
         id="stop3851"
         style="stop-color:#a66e40;stop-opacity:1"
         offset="1" />
    </linearGradient>
    <linearGradient
       x1="8"
       y1="1033.3622"
       x2="50"
       y2="1033.3622"
       id="linearGradient3870"
       xlink:href="#linearGradient3843"
       gradientUnits="userSpaceOnUse"
       gradientTransform="translate(-2,-956.3622)"
       spreadMethod="reflect" />
    <linearGradient
       id="linearGradient3700-8">
      <stop
         id="stop3702-1"
         style="stop-color:#2e4f84;stop-opacity:1"
         offset="0" />
      <stop
         id="stop3704-8"
         style="stop-color:#4c77c5;stop-opacity:1"
         offset="1" />
    </linearGradient>
    <linearGradient
       x1="48"
       y1="90"
       x2="48"
       y2="5.9877172"
       id="linearGradient3054"
       xlink:href="#linearGradient3700-8"
       gradientUnits="userSpaceOnUse" />
  </defs>
  <metadata
     id="metadata2413">
    <rdf:RDF>
      <cc:Work
         rdf:about="">
        <dc:format>image/svg+xml</dc:format>
        <dc:type
           rdf:resource="http://purl.org/dc/dcmitype/StillImage" />
        <dc:title />
      </cc:Work>
    </rdf:RDF>
  </metadata>
  <g
     id="layer2"
     style="display:none">
    <rect
       width="86"
       height="85"
       rx="6"
       ry="6"
       x="5"
       y="7"
       id="rect3745"
       style="opacity:0.9;fill:url(#ButtonShadow);fill-opacity:1;fill-rule:nonzero;stroke:none;filter:url(#filter3174)" />
  </g>
  <g
     id="layer3"
     style="display:inline">
    <path
       d="m 12,-95.03125 c -5.5110903,0 -10.03125,4.52016 -10.03125,10.03125 l 0,71 c 0,5.5110902 4.5201598,10.03125 10.03125,10.03125 l 72,0 c 5.51109,0 10.03125,-4.5201597 10.03125,-10.03125 l 0,-71 c 0,-5.51109 -4.52016,-10.03125 -10.03125,-10.03125 l -72,0 z"
       transform="scale(1,-1)"
       id="path3786"
       style="opacity:0.07999998;fill:url(#linearGradient3026);fill-opacity:1;fill-rule:nonzero;stroke:none;display:inline" />
    <path
       d="m 12,-94.03125 c -4.971633,0 -9.03125,4.059617 -9.03125,9.03125 l 0,71 c 0,4.9716329 4.0596171,9.03125 9.03125,9.03125 l 72,0 c 4.971633,0 9.03125,-4.059617 9.03125,-9.03125 l 0,-71 c 0,-4.971633 -4.059617,-9.03125 -9.03125,-9.03125 l -72,0 z"
       transform="scale(1,-1)"
       id="path3778"
       style="opacity:0.1;fill:url(#linearGradient3780);fill-opacity:1;fill-rule:nonzero;stroke:none;display:inline" />
    <path
       d="m 12,-93 c -4.4091333,0 -8,3.590867 -8,8 l 0,71 c 0,4.4091333 3.5908667,8 8,8 l 72,0 c 4.409133,0 8,-3.5908667 8,-8 l 0,-71 c 0,-4.409133 -3.590867,-8 -8,-8 l -72,0 z"
       transform="scale(1,-1)"
       id="path3770"
       style="opacity:0.2;fill:url(#linearGradient3772);fill-opacity:1;fill-rule:nonzero;stroke:none;display:inline" />
    <rect
       width="86"
       height="85"
       rx="7"
       ry="7"
       x="5"
       y="-92"
       transform="scale(1,-1)"
       id="rect3723"
       style="opacity:0.3;fill:url(#linearGradient3725);fill-opacity:1;fill-rule:nonzero;stroke:none;display:inline" />
    <rect
       width="84"
       height="84"
       rx="6"
       ry="6"
       x="6"
       y="-91"
       transform="scale(1,-1)"
       id="rect3716"
       style="opacity:0.45;fill:url(#linearGradient3721);fill-opacity:1;fill-rule:nonzero;stroke:none;display:inline" />
  </g>
  <g
     id="layer4">
    <rect
       width="84"
       height="26.000017"
       rx="6"
       ry="6"
       x="6"
       y="64"
       id="rect2841"
       style="color:#000000;fill:url(#linearGradient3870);fill-opacity:1;fill-rule:nonzero;stroke:none;stroke-width:1.5;marker:none;visibility:visible;display:inline;overflow:visible;enable-background:accumulate" />
    <path
       d="m 6,82 0,2 c 0,3.324 2.676,6 6,6 l 72,0 c 3.324,0 6,-2.676 6,-6 l 0,-2 c 0,3.324 -2.676,6 -6,6 L 12,88 C 8.676,88 6,85.324 6,82 z"
       inkscape:connector-curvature="0"
       id="rect4345"
       style="opacity:0.1;color:#000000;fill:#000000;fill-opacity:1;fill-rule:nonzero;stroke:none;stroke-width:1.5;marker:none;visibility:visible;display:inline;overflow:visible;enable-background:accumulate" />
    <path
       d="m 6,83 0,1 c 0,3.324 2.676,6 6,6 l 72,0 c 3.324,0 6,-2.676 6,-6 l 0,-1 c 0,3.324 -2.676,6 -6,6 L 12,89 C 8.676,89 6,86.324 6,83 z"
       inkscape:connector-curvature="0"
       id="rect4336"
       style="opacity:0.1;color:#000000;fill:#000000;fill-opacity:1;fill-rule:nonzero;stroke:none;stroke-width:1.5;marker:none;visibility:visible;display:inline;overflow:visible;enable-background:accumulate" />
    <path
       d="m 6,80 0,1 c 0,3.324 2.676,6 6,6 l 72,0 c 3.324,0 6,-2.676 6,-6 l 0,-1 c 0,3.324 -2.676,6 -6,6 L 12,86 C 8.676,86 6,83.324 6,80 z"
       inkscape:connector-curvature="0"
       id="path4412"
       style="opacity:0.2;fill:#000000;fill-opacity:1;fill-rule:nonzero;stroke:none" />
  </g>
  <g
     id="layer1">
    <rect
       width="84"
       height="80"
       rx="6"
       ry="6"
       x="6"
       y="6"
       id="rect2419"
       style="fill:url(#linearGradient3054);fill-opacity:1;fill-rule:nonzero;stroke:none" />
    <path
       d="M 120.78125,6.125 C 118.04223,6.6826484 116,9.0915 116,12 l 0,68 c 0,3.324 2.676,6 6,6 l 72,0 c 3.324,0 6,-2.676 6,-6 l 0,-68 c 0,-2.9085 -2.04223,-5.3173516 -4.78125,-5.875 2.20512,0.5362071 3.8125,2.4908437 3.8125,4.875 l 0,68 c 0,2.80489 -2.22636,5.03125 -5.03125,5.03125 l -72,0 c -2.80489,0 -5.03125,-2.22636 -5.03125,-5.03125 l 0,-68 c 0,-2.3841563 1.60738,-4.3387929 3.8125,-4.875 z"
       inkscape:connector-curvature="0"
       id="rect4359"
       style="opacity:0.2;fill:url(#radialGradient4375);fill-opacity:1;fill-rule:nonzero;stroke:none" />
    <path
       d="M 12,86 C 8.676,86 6,83.324 6,80 L 6,12 C 6,8.676 8.676,6 12,6 l 72,0 c 3.324,0 6,2.676 6,6 l 0,68 c 0,3.324 -2.676,6 -6,6 z m 0,-0.96875 72,0 c 2.80489,0 5.03125,-2.22636 5.03125,-5.03125 l 0,-68 C 89.03125,9.19511 86.80489,6.96875 84,6.96875 l -72,0 C 9.1951102,6.96875 6.96875,9.19511 6.96875,12 l 0,68 c 0,2.80489 2.2263602,5.03125 5.03125,5.03125 z"
       inkscape:connector-curvature="0"
       id="rect4377"
       style="opacity:0.2;fill:url(#linearGradient4390);fill-opacity:1;fill-rule:nonzero;stroke:none" />
    <path
       d="m 6,78 0,2 c 0,3.324 2.676,6 6,6 l 72,0 c 3.324,0 6,-2.676 6,-6 l 0,-2 c 0,3.324 -2.676,6 -6,6 L 12,84 C 8.676,84 6,81.324 6,78 z"
       inkscape:connector-curvature="0"
       id="rect4414"
       style="opacity:0.05;fill:url(#linearGradient4429);fill-opacity:1;fill-rule:nonzero;stroke:none" />
    <path
       d="m 10,68 0,11 c 0,1.662 1.338,3 3,3 l 70,0 c 1.662,0 3,-1.338 3,-3 l 0,-11 -76,0 z"
       inkscape:connector-curvature="0"
       id="rect3809"
       style="color:#000000;fill:#6683b3;fill-opacity:1;fill-rule:nonzero;stroke:none;stroke-width:3;marker:none;visibility:visible;display:inline;overflow:visible;enable-background:accumulate" />
    <path
       d="m 62.125,12.0625 c -6.285379,0 -10.947088,1.650914 -13.9375,4.90625 -2.987294,3.251942 -4.125,7.828644 -4.125,13.15625 l 0,4.9375 -6.03125,0 -0.03125,0 c -0.0386,0.0014 -0.191145,0.03156 -0.1875,0.03125 0.0042,-3.57e-4 -0.191682,7.79e-4 -0.1875,0 0.0042,-7.79e-4 -0.191583,0.06369 -0.1875,0.0625 0.0041,-0.0012 -0.160193,0.0641 -0.15625,0.0625 0.0039,-0.0016 -0.191264,0.06448 -0.1875,0.0625 0.0038,-0.002 -0.159796,0.127349 -0.15625,0.125 0.0035,-0.0023 -0.159544,0.09644 -0.15625,0.09375 0.0033,-0.0027 -0.159258,0.128008 -0.15625,0.125 0.003,-0.003 -0.127692,0.159544 -0.125,0.15625 0.0027,-0.0033 -0.0961,0.159796 -0.09375,0.15625 0.0023,-0.0035 -0.126982,0.160014 -0.125,0.15625 0.002,-0.0038 -0.0641,0.191443 -0.0625,0.1875 0.0016,-0.0039 -0.06369,0.160333 -0.0625,0.15625 0.0012,-0.0041 -0.06328,0.191682 -0.0625,0.1875 7.79e-4,-0.0042 -3.57e-4,0.191739 0,0.1875 3.07e-4,-0.0036 -0.02981,0.1489 -0.03125,0.1875 -2.35e-4,0.0063 1e-5,0.03184 0,0.03125 l 0,12.9375 0,0.03125 c 0.0014,0.0386 0.03156,0.191145 0.03125,0.1875 -3.57e-4,-0.0042 7.79e-4,0.191682 0,0.1875 -7.79e-4,-0.0042 0.06369,0.191583 0.0625,0.1875 -0.0012,-0.0041 0.0641,0.160193 0.0625,0.15625 -0.0016,-0.0039 0.06448,0.191264 0.0625,0.1875 -0.002,-0.0038 0.127349,0.159796 0.125,0.15625 -0.0023,-0.0035 0.09644,0.159544 0.09375,0.15625 -0.0027,-0.0033 0.128008,0.159258 0.125,0.15625 -0.003,-0.003 0.159544,0.127692 0.15625,0.125 -0.0033,-0.0027 0.159796,0.0961 0.15625,0.09375 -0.0035,-0.0023 0.160014,0.126982 0.15625,0.125 -0.0038,-0.002 0.191443,0.0641 0.1875,0.0625 -0.0039,-0.0016 0.160333,0.06369 0.15625,0.0625 -0.0041,-0.0012 0.191682,0.06328 0.1875,0.0625 -0.0042,-7.79e-4 0.191739,3.57e-4 0.1875,0 -0.0036,-3.07e-4 0.1489,0.02981 0.1875,0.03125 0.0063,2.35e-4 0.03184,-1e-5 0.03125,0 l 6.03125,0 0,32.03125 0,0.03125 18.75,0 c 2.35e-4,-0.0063 -1e-5,-0.03185 0,-0.03125 l 0,-32.03125 8,0 c -0.0039,5.8e-5 0.19137,-0.03166 0.1875,-0.03125 -0.0039,4.14e-4 0.191315,-0.03202 0.1875,-0.03125 -0.0038,7.67e-4 0.159979,-0.03236 0.15625,-0.03125 -0.0037,0.0011 0.159862,-0.06395 0.15625,-0.0625 -0.0036,0.0014 0.159714,-0.06427 0.15625,-0.0625 -0.0035,0.0018 0.159537,-0.09583 0.15625,-0.09375 -0.0033,0.0021 0.159332,-0.09613 0.15625,-0.09375 -0.0031,0.0024 0.127852,-0.127648 0.125,-0.125 -0.0029,0.0026 0.127597,-0.127898 0.125,-0.125 -0.0026,0.0029 0.127321,-0.128124 0.125,-0.125 -0.0023,0.0031 0.09578,-0.159573 0.09375,-0.15625 -0.002,0.0033 0.06421,-0.159744 0.0625,-0.15625 -0.0017,0.0035 0.09514,-0.159887 0.09375,-0.15625 -0.0014,0.0036 0.0323,-0.159998 0.03125,-0.15625 -0.001,0.0037 0.0632,-0.191328 0.0625,-0.1875 -6.99e-4,0.0038 3.46e-4,-0.160126 0,-0.15625 L 74,37.21875 74,37.1875 c 0.0028,-0.02978 0.03136,-0.06406 0.03125,-0.0625 -1.54e-4,0.0022 3.7e-5,-0.09598 0,-0.09375 -3.7e-5,0.0022 -8e-5,-0.127228 0,-0.125 8e-5,0.0022 -1.97e-4,-0.09597 0,-0.09375 1.97e-4,0.0022 -0.03156,-0.09596 -0.03125,-0.09375 3.14e-4,0.0022 -4.29e-4,-0.09594 0,-0.09375 4.29e-4,0.0022 -0.03179,-0.09591 -0.03125,-0.09375 5.43e-4,0.0022 -0.03191,-0.09588 -0.03125,-0.09375 6.56e-4,0.0021 -0.03202,-0.09584 -0.03125,-0.09375 7.67e-4,0.0021 -0.03213,-0.0958 -0.03125,-0.09375 8.76e-4,0.0021 -0.03223,-0.09575 -0.03125,-0.09375 9.82e-4,0.002 -0.06359,-0.0957 -0.0625,-0.09375 0.0011,0.0019 -0.06369,-0.09564 -0.0625,-0.09375 0.0012,0.0019 -0.03253,-0.09557 -0.03125,-0.09375 0.0013,0.0018 -0.06388,-0.06425 -0.0625,-0.0625 0.0014,0.0018 -0.06397,-0.09543 -0.0625,-0.09375 0.0015,0.0017 -0.06405,-0.0641 -0.0625,-0.0625 0.0016,0.0016 -0.09539,-0.06401 -0.09375,-0.0625 0.0016,0.0015 -0.06421,-0.06393 -0.0625,-0.0625 0.0017,0.0014 -0.09554,-0.06383 -0.09375,-0.0625 0.0018,0.0013 -0.06435,-0.06374 -0.0625,-0.0625 0.0019,0.0012 -0.09567,-0.06364 -0.09375,-0.0625 0.0019,0.0011 -0.09572,-0.06354 -0.09375,-0.0625 0.002,10e-4 -0.09578,-0.03218 -0.09375,-0.03125 0.002,9.33e-4 -0.09582,-0.03208 -0.09375,-0.03125 0.0021,8.26e-4 -0.09586,-0.03197 -0.09375,-0.03125 0.0021,7.16e-4 -0.0959,-0.03185 -0.09375,-0.03125 0.0021,6.04e-4 -0.09592,-0.03174 -0.09375,-0.03125 0.0022,4.9e-4 -0.09595,-0.03162 -0.09375,-0.03125 0.0022,3.75e-4 -0.09597,-2.59e-4 -0.09375,0 0.0022,2.59e-4 -0.09597,-1.43e-4 -0.09375,0 0.0022,1.43e-4 -0.12723,-0.03128 -0.125,-0.03125 l -9.3125,0 0.03125,-3.6875 c 0,-1.539638 0.24274,-2.441919 0.3125,-2.53125 0.06174,-0.07906 0.159677,-0.194177 0.5625,-0.3125 0.402823,-0.118323 1.078403,-0.1875 2.125,-0.1875 l 6.15625,0 c -5.95e-4,-10e-6 0.02497,2.35e-4 0.03125,0 0.0386,-0.0014 0.191145,-0.03156 0.1875,-0.03125 -0.0042,3.57e-4 0.191682,-7.79e-4 0.1875,0 -0.0042,7.79e-4 0.191583,-0.06369 0.1875,-0.0625 -0.0041,0.0012 0.160193,-0.0641 0.15625,-0.0625 -0.0039,0.0016 0.191264,-0.06448 0.1875,-0.0625 -0.0038,0.002 0.159796,-0.127349 0.15625,-0.125 -0.0035,0.0023 0.159544,-0.09644 0.15625,-0.09375 -0.0033,0.0027 0.159258,-0.128008 0.15625,-0.125 -0.003,0.003 0.127692,-0.159544 0.125,-0.15625 -0.0027,0.0033 0.0961,-0.159796 0.09375,-0.15625 -0.0023,0.0035 0.126982,-0.160014 0.125,-0.15625 -0.002,0.0038 0.0641,-0.191443 0.0625,-0.1875 -0.0016,0.0039 0.06369,-0.160333 0.0625,-0.15625 -0.0012,0.0041 0.06328,-0.191682 0.0625,-0.1875 -7.79e-4,0.0042 3.57e-4,-0.191739 0,-0.1875 -3.07e-4,0.0036 0.02981,-0.1489 0.03125,-0.1875 2.35e-4,-0.0063 -1e-5,-0.03185 0,-0.03125 l 0,-12.34375 c -1e-5,5.95e-4 2.35e-4,-0.02497 0,-0.03125 -0.0014,-0.0386 -0.03156,-0.191145 -0.03125,-0.1875 3.57e-4,0.0042 -7.79e-4,-0.191682 0,-0.1875 7.79e-4,0.0042 -0.06369,-0.191583 -0.0625,-0.1875 0.0012,0.0041 -0.0641,-0.160193 -0.0625,-0.15625 0.0016,0.0039 -0.06448,-0.191264 -0.0625,-0.1875 0.002,0.0038 -0.127349,-0.159796 -0.125,-0.15625 0.0023,0.0035 -0.09644,-0.159544 -0.09375,-0.15625 0.0027,0.0033 -0.128008,-0.159258 -0.125,-0.15625 0.003,0.003 -0.159544,-0.127692 -0.15625,-0.125 0.0033,0.0027 -0.159796,-0.0961 -0.15625,-0.09375 0.0035,0.0023 -0.160014,-0.126982 -0.15625,-0.125 0.0038,0.002 -0.191443,-0.0641 -0.1875,-0.0625 0.0039,0.0016 -0.160333,-0.06369 -0.15625,-0.0625 0.0041,0.0012 -0.191682,-0.06328 -0.1875,-0.0625 0.0042,7.79e-4 -0.191739,-3.57e-4 -0.1875,0 0.0036,3.07e-4 -0.1489,-0.02981 -0.1875,-0.03125 l -0.03125,0 z"
       inkscape:connector-curvature="0"
       id="path3863"
       style="opacity:0.15;fill:#2c4775;fill-opacity:0.97647059" />
    <path
       d="m 62.125,13.09375 c -6.11094,0 -10.437373,1.568736 -13.1875,4.5625 -2.750127,2.993764 -3.84375,7.284489 -3.84375,12.46875 l 0,5.96875 -7.09375,0 C 37.523423,36.08603 37.08603,36.523423 37.09375,37 l 0,13 c -0.0077,0.476577 0.429673,0.91397 0.90625,0.90625 l 7.09375,0 0,32.09375 16.6875,0 0,-32.09375 9.03125,0 c 0.436022,-0.0065 0.836219,-0.378157 0.875,-0.8125 l 1.3125,-13 c 0.06059,-0.496011 -0.375337,-0.994207 -0.875,-1 l -10.34375,0 0.03125,-4.71875 c 0,-1.591024 0.120315,-2.630026 0.53125,-3.15625 0.410935,-0.526224 1.289959,-0.90625 3.5,-0.90625 l 6.1875,0 c 0.476577,0.0077 0.91397,-0.429673 0.90625,-0.90625 L 72.9375,14 c 0.0077,-0.476577 -0.429673,-0.91397 -0.90625,-0.90625 z"
       inkscape:connector-curvature="0"
       id="path3859"
       style="opacity:0.4;fill:#2c4775;fill-opacity:0.97647059" />
    <path
       d="M 60.874072,82 46,82 l 0,-32.00414 -8,0 L 38,37 l 8,0 0,-6.859772 C 46,20.018564 50.195296,14 62.1178,14 l 9.926568,0 0,12.409056 -6.204516,0 c -4.641972,0 -4.947504,1.73358 -4.947504,4.96992 L 60.874348,37 l 11.240028,0 -1.315128,12.99586 -9.925176,0 z"
       inkscape:connector-curvature="0"
       id="path3835"
       style="fill:#ffffff" />
  </g>
  <g
     id="layer5"
     style="display:inline">
    <rect
       width="66"
       height="62"
       rx="12"
       ry="12"
       x="15"
       y="15"
       clip-path="url(#clipPath4355)"
       id="rect3171"
       style="opacity:0.1;fill:url(#linearGradient3613);fill-opacity:1;fill-rule:nonzero;stroke:#ffffff;stroke-width:0.5;stroke-linecap:round;stroke-linejoin:miter;stroke-miterlimit:4;stroke-opacity:1;stroke-dasharray:none;stroke-dashoffset:0;filter:url(#filter3794)" />
  </g>
  <g
     id="layer6" />
</svg>
