<?xml version="1.0" encoding="UTF-8" standalone="no"?>
<!-- Created with Inkscape (http://www.inkscape.org/) -->

<svg
   xmlns:dc="http://purl.org/dc/elements/1.1/"
   xmlns:cc="http://creativecommons.org/ns#"
   xmlns:rdf="http://www.w3.org/1999/02/22-rdf-syntax-ns#"
   xmlns:svg="http://www.w3.org/2000/svg"
   xmlns="http://www.w3.org/2000/svg"
   xmlns:xlink="http://www.w3.org/1999/xlink"
   xmlns:inkscape="http://www.inkscape.org/namespaces/inkscape"
   version="1.0"
   width="96"
   height="96"
   id="svg2408">
  <defs
     id="defs2410">
    <linearGradient
       id="linearGradient4384">
      <stop
         id="stop4386"
         style="stop-color:#ffffff;stop-opacity:1"
         offset="0" />
      <stop
         id="stop4388"
         style="stop-color:#ffffff;stop-opacity:0"
         offset="1" />
    </linearGradient>
    <linearGradient
       id="linearGradient4367">
      <stop
         id="stop4369"
         style="stop-color:#ffffff;stop-opacity:0.71755725"
         offset="0" />
      <stop
         id="stop4371"
         style="stop-color:#ffffff;stop-opacity:1"
         offset="1" />
    </linearGradient>
    <linearGradient
       x1="45.447727"
       y1="92.539597"
       x2="45.447727"
       y2="7.0165396"
       id="ButtonShadow"
       gradientUnits="userSpaceOnUse"
       gradientTransform="scale(1.0058652,0.994169)">
      <stop
         id="stop3750"
         style="stop-color:#000000;stop-opacity:1"
         offset="0" />
      <stop
         id="stop3752"
         style="stop-color:#000000;stop-opacity:0.58823532"
         offset="1" />
    </linearGradient>
    <linearGradient
       id="linearGradient3737">
      <stop
         id="stop3739"
         style="stop-color:#ffffff;stop-opacity:1"
         offset="0" />
      <stop
         id="stop3741"
         style="stop-color:#ffffff;stop-opacity:0"
         offset="1" />
    </linearGradient>
    <filter
       color-interpolation-filters="sRGB"
       id="filter3174">
      <feGaussianBlur
         id="feGaussianBlur3176"
         stdDeviation="1.71" />
    </filter>
    <filter
       x="-0.192"
       y="-0.192"
       width="1.3839999"
       height="1.3839999"
       color-interpolation-filters="sRGB"
       id="filter3794">
      <feGaussianBlur
         id="feGaussianBlur3796"
         stdDeviation="5.28" />
    </filter>
    <linearGradient
       x1="48"
       y1="20.220806"
       x2="48"
       y2="138.66119"
       id="linearGradient3613"
       xlink:href="#linearGradient3737"
       gradientUnits="userSpaceOnUse" />
    <linearGradient
       x1="45.447727"
       y1="92.539597"
       x2="45.447727"
       y2="7.0165396"
       id="ButtonShadow-0"
       gradientUnits="userSpaceOnUse"
       gradientTransform="matrix(1.0058652,0,0,0.994169,100,0)">
      <stop
         id="stop3750-8"
         style="stop-color:#000000;stop-opacity:1"
         offset="0" />
      <stop
         id="stop3752-5"
         style="stop-color:#000000;stop-opacity:0.58823532"
         offset="1" />
    </linearGradient>
    <linearGradient
       x1="32.251034"
       y1="6.1317081"
       x2="32.251034"
       y2="90.238609"
       id="linearGradient3780"
       xlink:href="#ButtonShadow-0"
       gradientUnits="userSpaceOnUse"
       gradientTransform="matrix(1.0238095,0,0,1.0119048,-1.1428571,-98.071429)" />
    <linearGradient
       x1="32.251034"
       y1="6.1317081"
       x2="32.251034"
       y2="90.238609"
       id="linearGradient3772"
       xlink:href="#ButtonShadow-0"
       gradientUnits="userSpaceOnUse"
       gradientTransform="matrix(1.0238095,0,0,1.0119048,-1.1428571,-98.071429)" />
    <linearGradient
       x1="32.251034"
       y1="6.1317081"
       x2="32.251034"
       y2="90.238609"
       id="linearGradient3725"
       xlink:href="#ButtonShadow-0"
       gradientUnits="userSpaceOnUse"
       gradientTransform="matrix(1.0238095,0,0,1.0119048,-1.1428571,-98.071429)" />
    <linearGradient
       x1="32.251034"
       y1="6.1317081"
       x2="32.251034"
       y2="90.238609"
       id="linearGradient3721"
       xlink:href="#ButtonShadow-0"
       gradientUnits="userSpaceOnUse"
       gradientTransform="translate(0,-97)" />
    <linearGradient
       x1="32.251034"
       y1="6.1317081"
       x2="32.251034"
       y2="90.238609"
       id="linearGradient3026"
       xlink:href="#ButtonShadow-0"
       gradientUnits="userSpaceOnUse"
       gradientTransform="matrix(1.0238095,0,0,1.0119048,-1.1428571,-98.071429)" />
    <clipPath
       id="clipPath4355">
      <rect
         width="84"
         height="80"
         rx="6"
         ry="6"
         x="6"
         y="6"
         id="rect4357"
         style="fill:#ffffff;fill-opacity:1;fill-rule:nonzero;stroke:none" />
    </clipPath>
    <radialGradient
       cx="48"
       cy="87.792389"
       r="42"
       fx="48"
       fy="87.792389"
       id="radialGradient4375"
       xlink:href="#linearGradient4367"
       gradientUnits="userSpaceOnUse"
       gradientTransform="matrix(1,-6.7114942e-8,8.4282233e-8,1.2557894,109.99999,-24.505592)" />
    <linearGradient
       x1="48"
       y1="88"
       x2="48"
       y2="-40"
       id="linearGradient4390"
       xlink:href="#linearGradient4384"
       gradientUnits="userSpaceOnUse"
       gradientTransform="matrix(1,0,0,-1,0,92)" />
    <linearGradient
       x1="48"
       y1="82"
       x2="112.12357"
       y2="82.454597"
       id="linearGradient4429"
       xlink:href="#linearGradient4384"
       gradientUnits="userSpaceOnUse"
       spreadMethod="reflect" />
    <linearGradient
       id="linearGradient3892">
      <stop
         id="stop3894"
         style="stop-color:#000000;stop-opacity:0.58823532"
         offset="0" />
      <stop
         id="stop3896"
         style="stop-color:#000000;stop-opacity:0.47058824"
         offset="0.11780351" />
      <stop
         id="stop3898"
         style="stop-color:#000000;stop-opacity:0.39215687"
         offset="0.23809524" />
      <stop
         id="stop3900"
         style="stop-color:#000000;stop-opacity:0.3137255"
         offset="1" />
    </linearGradient>
    <linearGradient
       x1="90"
       y1="88"
       x2="48"
       y2="88"
       id="linearGradient3228"
       xlink:href="#linearGradient3892"
       gradientUnits="userSpaceOnUse"
       spreadMethod="reflect" />
    <radialGradient
       cx="-55.999996"
       cy="29"
       r="17.5"
       fx="-55.999996"
       fy="29"
       id="radialGradient3847"
       xlink:href="#linearGradient3849"
       gradientUnits="userSpaceOnUse"
       gradientTransform="matrix(1.2571429,0,0,0.97142857,14.4,0.82857156)" />
    <linearGradient
       id="linearGradient3849">
      <stop
         id="stop3851"
         style="stop-color:#e5e5e5;stop-opacity:1"
         offset="0" />
      <stop
         id="stop3853"
         style="stop-color:#ffffff;stop-opacity:1"
         offset="1" />
    </linearGradient>
    <radialGradient
       cx="-67.361107"
       cy="30.722223"
       r="17.5"
       fx="-67.361107"
       fy="30.722223"
       id="radialGradient3839"
       xlink:href="#linearGradient3833"
       gradientUnits="userSpaceOnUse"
       gradientTransform="matrix(1.2777774,-1.5934198e-8,1.3855826e-8,1.1111109,18.711391,-3.4135747)" />
    <linearGradient
       id="linearGradient3833">
      <stop
         id="stop3835"
         style="stop-color:#d9d9d9;stop-opacity:1"
         offset="0" />
      <stop
         id="stop3837"
         style="stop-color:#ffffff;stop-opacity:1"
         offset="1" />
    </linearGradient>
    <radialGradient
       cx="-69.643715"
       cy="31.597223"
       r="17.5"
       fx="-69.643715"
       fy="31.597223"
       id="radialGradient3857"
       xlink:href="#linearGradient3833"
       gradientUnits="userSpaceOnUse"
       gradientTransform="matrix(1.2777774,-1.5934198e-8,1.3855826e-8,1.1111109,18.711391,-3.4135747)" />
    <clipPath
       id="clipPath4882">
      <path
         d="m 44,58 0,-16 13,8 z"
         inkscape:connector-curvature="0"
         id="path4884"
         style="fill:#ff00ff;fill-opacity:1;stroke:none" />
    </clipPath>
    <filter
       color-interpolation-filters="sRGB"
       id="filter4890">
      <feGaussianBlur
         id="feGaussianBlur4892"
         stdDeviation="0.2175" />
    </filter>
    <linearGradient
       id="linearGradient3700-37">
      <stop
         id="stop3702-8"
         style="stop-color:#53aec2;stop-opacity:1"
         offset="0" />
      <stop
         id="stop3704-2"
         style="stop-color:#80c3d2;stop-opacity:1"
         offset="1" />
    </linearGradient>
    <linearGradient
       x1="48"
       y1="90"
       x2="48"
       y2="5.9877172"
       id="linearGradient3125-1"
       xlink:href="#linearGradient3700-37"
       gradientUnits="userSpaceOnUse" />
  </defs>
  <metadata
     id="metadata2413">
    <rdf:RDF>
      <cc:Work
         rdf:about="">
        <dc:format>image/svg+xml</dc:format>
        <dc:type
           rdf:resource="http://purl.org/dc/dcmitype/StillImage" />
        <dc:title />
      </cc:Work>
    </rdf:RDF>
  </metadata>
  <g
     id="layer2"
     style="display:none">
    <rect
       width="86"
       height="85"
       rx="6"
       ry="6"
       x="5"
       y="7"
       id="rect3745"
       style="opacity:0.9;fill:url(#ButtonShadow);fill-opacity:1;fill-rule:nonzero;stroke:none;filter:url(#filter3174)" />
  </g>
  <g
     id="layer3"
     style="display:inline">
    <path
       d="m 12,-95.03125 c -5.5110903,0 -10.03125,4.52016 -10.03125,10.03125 l 0,71 c 0,5.5110902 4.5201598,10.03125 10.03125,10.03125 l 72,0 c 5.51109,0 10.03125,-4.5201597 10.03125,-10.03125 l 0,-71 c 0,-5.51109 -4.52016,-10.03125 -10.03125,-10.03125 l -72,0 z"
       transform="scale(1,-1)"
       id="path3786"
       style="opacity:0.07999998;fill:url(#linearGradient3026);fill-opacity:1;fill-rule:nonzero;stroke:none;display:inline" />
    <path
       d="m 12,-94.03125 c -4.971633,0 -9.03125,4.059617 -9.03125,9.03125 l 0,71 c 0,4.9716329 4.0596171,9.03125 9.03125,9.03125 l 72,0 c 4.971633,0 9.03125,-4.059617 9.03125,-9.03125 l 0,-71 c 0,-4.971633 -4.059617,-9.03125 -9.03125,-9.03125 l -72,0 z"
       transform="scale(1,-1)"
       id="path3778"
       style="opacity:0.1;fill:url(#linearGradient3780);fill-opacity:1;fill-rule:nonzero;stroke:none;display:inline" />
    <path
       d="m 12,-93 c -4.4091333,0 -8,3.590867 -8,8 l 0,71 c 0,4.4091333 3.5908667,8 8,8 l 72,0 c 4.409133,0 8,-3.5908667 8,-8 l 0,-71 c 0,-4.409133 -3.590867,-8 -8,-8 l -72,0 z"
       transform="scale(1,-1)"
       id="path3770"
       style="opacity:0.2;fill:url(#linearGradient3772);fill-opacity:1;fill-rule:nonzero;stroke:none;display:inline" />
    <rect
       width="86"
       height="85"
       rx="7"
       ry="7"
       x="5"
       y="-92"
       transform="scale(1,-1)"
       id="rect3723"
       style="opacity:0.3;fill:url(#linearGradient3725);fill-opacity:1;fill-rule:nonzero;stroke:none;display:inline" />
    <rect
       width="84"
       height="84"
       rx="6"
       ry="6"
       x="6"
       y="-91"
       transform="scale(1,-1)"
       id="rect3716"
       style="opacity:0.45;fill:url(#linearGradient3721);fill-opacity:1;fill-rule:nonzero;stroke:none;display:inline" />
  </g>
  <g
     id="layer1">
    <rect
       width="84"
       height="84"
       rx="6"
       ry="6"
       x="6"
       y="6"
       id="rect2419"
       style="fill:url(#linearGradient3125-1);fill-opacity:1;fill-rule:nonzero;stroke:none" />
    <path
       d="M 120.78125,6.125 C 118.04223,6.6826484 116,9.0915 116,12 l 0,68 c 0,3.324 2.676,6 6,6 l 72,0 c 3.324,0 6,-2.676 6,-6 l 0,-68 c 0,-2.9085 -2.04223,-5.3173516 -4.78125,-5.875 2.20512,0.5362071 3.8125,2.4908437 3.8125,4.875 l 0,68 c 0,2.80489 -2.22636,5.03125 -5.03125,5.03125 l -72,0 c -2.80489,0 -5.03125,-2.22636 -5.03125,-5.03125 l 0,-68 c 0,-2.3841563 1.60738,-4.3387929 3.8125,-4.875 z"
       inkscape:connector-curvature="0"
       id="rect4359"
       style="opacity:0.2;fill:url(#radialGradient4375);fill-opacity:1;fill-rule:nonzero;stroke:none" />
    <path
       d="M 12,86 C 8.676,86 6,83.324 6,80 L 6,12 C 6,8.676 8.676,6 12,6 l 72,0 c 3.324,0 6,2.676 6,6 l 0,68 c 0,3.324 -2.676,6 -6,6 z m 0,-0.96875 72,0 c 2.80489,0 5.03125,-2.22636 5.03125,-5.03125 l 0,-68 C 89.03125,9.19511 86.80489,6.96875 84,6.96875 l -72,0 C 9.1951102,6.96875 6.96875,9.19511 6.96875,12 l 0,68 c 0,2.80489 2.2263602,5.03125 5.03125,5.03125 z"
       inkscape:connector-curvature="0"
       id="rect4377"
       style="opacity:0.35;fill:url(#linearGradient4390);fill-opacity:1;fill-rule:nonzero;stroke:none" />
    <path
       d="m 6,78 0,2 c 0,3.324 2.676,6 6,6 l 72,0 c 3.324,0 6,-2.676 6,-6 l 0,-2 c 0,3.324 -2.676,6 -6,6 L 12,84 C 8.676,84 6,81.324 6,78 z"
       inkscape:connector-curvature="0"
       id="rect4414"
       style="opacity:0.12000002;fill:url(#linearGradient4429);fill-opacity:1;fill-rule:nonzero;stroke:none" />
    <path
       d="m 6,100 0,1 c 0,3.324 2.676,6 6,6 l 72,0 c 3.324,0 6,-2.676 6,-6 l 0,-1 c 0,3.324 -2.676,6 -6,6 l -72,0 c -3.324,0 -6,-2.676 -6,-6 z"
       inkscape:connector-curvature="0"
       id="path4412"
       style="opacity:0.15;fill:#000000;fill-opacity:1;fill-rule:nonzero;stroke:none" />
  </g>
  <g
     id="layer4"
     style="display:inline">
    <path
       d="m 6,80 0,4 c 0,3.324 2.676,6 6,6 l 72,0 c 3.324,0 6,-2.676 6,-6 l 0,-4 c 0,3.324 -2.676,6 -6,6 L 12,86 C 8.676,86 6,83.324 6,80 z"
       inkscape:connector-curvature="0"
       id="path3888"
       style="fill:url(#linearGradient3228);fill-opacity:1;fill-rule:nonzero;stroke:none;display:inline" />
    <path
       d="m 6,82 0,2 c 0,3.324 2.676,6 6,6 l 72,0 c 3.324,0 6,-2.676 6,-6 l 0,-2 c 0,3.324 -2.676,6 -6,6 L 12,88 C 8.676,88 6,85.324 6,82 z"
       inkscape:connector-curvature="0"
       id="rect4345"
       style="opacity:0.1;color:#000000;fill:#000000;fill-opacity:1;fill-rule:nonzero;stroke:none;stroke-width:1.5;marker:none;visibility:visible;display:inline;overflow:visible;enable-background:accumulate" />
    <path
       d="m 6,83 0,1 c 0,3.324 2.676,6 6,6 l 72,0 c 3.324,0 6,-2.676 6,-6 l 0,-1 c 0,3.324 -2.676,6 -6,6 L 12,89 C 8.676,89 6,86.324 6,83 z"
       inkscape:connector-curvature="0"
       id="rect4336"
       style="opacity:0.15;color:#000000;fill:#000000;fill-opacity:1;fill-rule:nonzero;stroke:none;stroke-width:1.5;marker:none;visibility:visible;display:inline;overflow:visible;enable-background:accumulate" />
  </g>
  <g
     id="layer5"
     style="display:inline">
    <rect
       width="66"
       height="62"
       rx="12"
       ry="12"
       x="15"
       y="15"
       clip-path="url(#clipPath4355)"
       id="rect3171"
       style="opacity:0.1;fill:url(#linearGradient3613);fill-opacity:1;fill-rule:nonzero;stroke:#ffffff;stroke-width:0.5;stroke-linecap:round;stroke-linejoin:miter;stroke-miterlimit:4;stroke-opacity:1;stroke-dasharray:none;stroke-dashoffset:0;filter:url(#filter3794)" />
  </g>
  <g
     id="layer6">
    <path
       d="m 38,59.96875 c -5.163712,0 -9.807038,0.45712 -13.375,1.25 -1.786319,0.39696 -3.338473,0.88432 -4.625,1.5625 -0.602703,0.31771 -1.254128,0.73143 -1.84375,1.375 -0.60617,0.66163 -1.1875,1.62727 -1.1875,2.84375 0,1.21648 0.58133,2.18212 1.1875,2.84375 0.589622,0.64357 1.241047,1.05729 1.84375,1.375 1.286527,0.67818 2.838681,1.16554 4.625,1.5625 3.567962,0.79288 8.211288,1.25 13.375,1.25 l 22,0 c 5.163712,0 9.807038,-0.45712 13.375,-1.25 1.786319,-0.39696 3.338473,-0.88432 4.625,-1.5625 0.602703,-0.31771 1.254128,-0.73143 1.84375,-1.375 0.60617,-0.66163 1.1875,-1.62727 1.1875,-2.84375 0,-1.21648 -0.58133,-2.18212 -1.1875,-2.84375 -0.589622,-0.64357 -1.241047,-1.05729 -1.84375,-1.375 -1.286527,-0.67818 -2.838681,-1.16554 -4.625,-1.5625 -3.567962,-0.79288 -8.211288,-1.25 -13.375,-1.25 l -22,0 z"
       inkscape:connector-curvature="0"
       id="path3834"
       style="opacity:0.05;color:#000000;fill:#000000;fill-opacity:1;fill-rule:nonzero;stroke:none;stroke-width:1.5;marker:none;visibility:visible;display:inline;overflow:visible;enable-background:accumulate" />
    <path
       d="m 38,62.96875 c -5.105708,0 -9.689364,0.448331 -13.15625,1.21875 -1.736389,0.385864 -3.209309,0.854267 -4.375,1.46875 -0.564443,0.297541 -1.117288,0.636194 -1.59375,1.15625 -0.486861,0.531407 -0.90625,1.274424 -0.90625,2.1875 0,0.913076 0.419389,1.656093 0.90625,2.1875 0.476462,0.520056 1.029307,0.858709 1.59375,1.15625 1.165691,0.614483 2.638611,1.082886 4.375,1.46875 3.466886,0.770419 8.050542,1.21875 13.15625,1.21875 l 22,0 c 5.105708,0 9.689364,-0.448331 13.15625,-1.21875 1.736389,-0.385864 3.209309,-0.854267 4.375,-1.46875 0.564443,-0.297541 1.117288,-0.636194 1.59375,-1.15625 0.486861,-0.531407 0.90625,-1.274424 0.90625,-2.1875 0,-0.913076 -0.419389,-1.656093 -0.90625,-2.1875 -0.476462,-0.520056 -1.029307,-0.858709 -1.59375,-1.15625 -1.165691,-0.614483 -2.638611,-1.082886 -4.375,-1.46875 C 69.689364,63.417081 65.105708,62.96875 60,62.96875 l -22,0 z"
       transform="translate(0,-2)"
       id="path3830"
       style="opacity:0.1;color:#000000;fill:#000000;fill-opacity:1;fill-rule:nonzero;stroke:none;stroke-width:1.5;marker:none;visibility:visible;display:inline;overflow:visible;enable-background:accumulate" />
    <path
       d="m 38,64.03125 c -5.043374,0 -9.5824,0.441922 -12.9375,1.1875 -1.67755,0.372789 -3.057006,0.82849 -4.09375,1.375 -0.518372,0.273255 -0.963195,0.556235 -1.3125,0.9375 -0.349305,0.381265 -0.625,0.901292 -0.625,1.46875 0,0.567458 0.275695,1.087485 0.625,1.46875 0.349305,0.381265 0.794128,0.664245 1.3125,0.9375 1.036744,0.54651 2.4162,1.002211 4.09375,1.375 3.3551,0.745578 7.894126,1.1875 12.9375,1.1875 l 22,0 c 5.043374,0 9.5824,-0.441922 12.9375,-1.1875 1.67755,-0.372789 3.057006,-0.82849 4.09375,-1.375 0.518372,-0.273255 0.963195,-0.556235 1.3125,-0.9375 0.349305,-0.381265 0.625,-0.901292 0.625,-1.46875 0,-0.567458 -0.275695,-1.087485 -0.625,-1.46875 -0.349305,-0.381265 -0.794128,-0.664245 -1.3125,-0.9375 -1.036744,-0.54651 -2.4162,-1.002211 -4.09375,-1.375 C 69.5824,64.473172 65.043374,64.03125 60,64.03125 l -22,0 z"
       transform="translate(0,-2)"
       id="path3826"
       style="opacity:0.15;color:#000000;fill:#000000;fill-opacity:1;fill-rule:nonzero;stroke:none;stroke-width:1.5;marker:none;visibility:visible;display:inline;overflow:visible;enable-background:accumulate" />
    <rect
       width="58"
       height="8"
       rx="18"
       ry="4"
       x="20"
       y="63"
       id="rect3869"
       style="opacity:0.3;color:#000000;fill:#000000;fill-opacity:1;fill-rule:nonzero;stroke:none;stroke-width:1.5;marker:none;visibility:visible;display:inline;overflow:visible;enable-background:accumulate" />
    <rect
       width="36"
       height="14.000006"
       x="31"
       y="54"
       id="rect3831"
       style="color:#000000;fill:#ffffff;fill-opacity:1;fill-rule:nonzero;stroke:none;stroke-width:1.5;marker:none;visibility:visible;display:inline;overflow:visible;enable-background:accumulate" />
    <path
       d="m -45,38.5 a 17.5,17.5 0 1 1 -35,0 17.5,17.5 0 1 1 35,0 z"
       transform="translate(110,-1)"
       id="path3823"
       style="color:#000000;fill:url(#radialGradient3847);fill-opacity:1;fill-rule:nonzero;stroke:none;stroke-width:1.5;marker:none;visibility:visible;display:inline;overflow:visible;enable-background:accumulate" />
    <path
       d="m -45,38.5 a 17.5,17.5 0 1 1 -35,0 17.5,17.5 0 1 1 35,0 z"
       transform="matrix(1.0285716,0,0,1.0285716,94.285725,10.39999)"
       id="path3825"
       style="color:#000000;fill:url(#radialGradient3839);fill-opacity:1;fill-rule:nonzero;stroke:none;stroke-width:1.5;marker:none;visibility:visible;display:inline;overflow:visible;enable-background:accumulate" />
    <path
       d="m -45,38.5 a 17.5,17.5 0 1 1 -35,0 17.5,17.5 0 1 1 35,0 z"
       transform="matrix(-1.0285716,0,0,1.0285716,3.71428,10.39999)"
       id="path3855"
       style="color:#000000;fill:url(#radialGradient3857);fill-opacity:1;fill-rule:nonzero;stroke:none;stroke-width:1.5;marker:none;visibility:visible;display:inline;overflow:visible;enable-background:accumulate" />
    <path
       d="m 0,-110 0,1 1,-1 z m 3,0 -3,3 0,1 4,-4 z m 3,0 -6,6 0,1 7,-7 z m 3,0 -9,9 0,1 10,-10 z m 3,0 -12,12 0,1 13,-13 z m 3,0 -15,15 0,1 16,-16 z m 3,0 -18,18 0,1 19,-19 z m 3,0 -21,21 0,1 22,-22 z m 3,0 -24,24 0,1 25,-25 z m 3,0 -27,27 0,1 28,-28 z m 3,0 -30,30 0,1 31,-31 z m 3,0 -33,33 0,1 34,-34 z m 3,0 -36,36 0,1 37,-37 z m 3,0 -39,39 0,1 40,-40 z m 3,0 -42,42 0,1 43,-43 z m 3,0 -45,45 0,1 46,-46 z m 3,0 -48,48 0,1 49,-49 z m 3,0 -51,51 0,1 52,-52 z m 3,0 -54,54 0,1 55,-55 z m 3,0 -57,57 0,1 58,-58 z m 3,0 -60,60 0,1 61,-61 z m 3,0 -63,63 0,1 64,-64 z m 3,0 -66,66 0,1 67,-67 z m 3,0 -69,69 0,1 70,-70 z m 3,0 -72,72 0,1 73,-73 z m 3,0 -75,75 0,1 76,-76 z m 3,0 -78,78 0,1 79,-79 z m 3,0 -81,81 0,1 82,-82 z m 3,0 -84,84 0,1 85,-85 z m 3,0 -87,87 0,1 88,-88 z m 3,0 -90,90 0,1 91,-91 z m 3,0 -93,93 0,1 94,-94 z m 3,0 -96,96 1,0 95,-95 z m 0,3 -93,93 1,0 92,-92 z m 0,3 -90,90 1,0 89,-89 z m 0,3 -87,87 1,0 86,-86 z m 0,3 -84,84 1,0 83,-83 z m 0,3 -81,81 1,0 80,-80 z m 0,3 -78,78 1,0 77,-77 z m 0,3 -75,75 1,0 74,-74 z m 0,3 -72,72 1,0 71,-71 z m 0,3 -69,69 1,0 68,-68 z m 0,3 -66,66 1,0 65,-65 z m 0,3 -63,63 1,0 62,-62 z m 0,3 -60,60 1,0 59,-59 z m 0,3 -57,57 1,0 56,-56 z m 0,3 -54,54 1,0 53,-53 z m 0,3 -51,51 1,0 50,-50 z m 0,3 -48,48 1,0 47,-47 z m 0,3 -45,45 1,0 44,-44 z m 0,3 -42,42 1,0 41,-41 z m 0,3 -39,39 1,0 38,-38 z m 0,3 -36,36 1,0 35,-35 z m 0,3 -33,33 1,0 32,-32 z m 0,3 -30,30 1,0 29,-29 z m 0,3 -27,27 1,0 26,-26 z m 0,3 -24,24 1,0 23,-23 z m 0,3 -21,21 1,0 20,-20 z m 0,3 -18,18 1,0 17,-17 z m 0,3 -15,15 1,0 14,-14 z m 0,3 -12,12 1,0 11,-11 z m 0,3 -9,9 1,0 8,-8 z m 0,3 -6,6 1,0 5,-5 z m 0,3 -3,3 1,0 2,-2 z"
       inkscape:connector-curvature="0"
       id="path4865"
       style="fill:#000000;stroke:none" />
    <path
       d="M 43.84375,41.03125 A 0.97909614,0.97909614 0 0 0 43.03125,42 l 0,16 A 0.97909614,0.97909614 0 0 0 44.5,58.84375 l 13,-8 a 0.97909614,0.97909614 0 0 0 0,-1.6875 l -13,-8 a 0.97909614,0.97909614 0 0 0 -0.65625,-0.125 z"
       transform="translate(0,-2)"
       id="path4872"
       style="fill:#ffffff;fill-opacity:1;stroke:none" />
    <path
       d="m 44,56 0,-16 13,8 z"
       inkscape:connector-curvature="0"
       id="path4868"
       style="fill:#f5954e;fill-opacity:1;stroke:none" />
    <path
       d="m 44,58 0,-16 13,8 z"
       inkscape:connector-curvature="0"
       transform="translate(0,-2)"
       clip-path="url(#clipPath4882)"
       id="path4874"
       style="opacity:0.4;fill:none;stroke:#000000;filter:url(#filter4890)" />
    <path
       d="m 12,6 -6,6 0,1 7,-7 -1,0 z M 15,6 6,15 6,16 16,6 15,6 z M 18,6 6,18 6,19 19,6 18,6 z M 21,6 6,21 6,22 22,6 21,6 z M 24,6 6,24 6,25 25,6 24,6 z M 27,6 6,27 6,28 28,6 27,6 z M 30,6 6,30 6,31 31,6 30,6 z M 33,6 6,33 6,34 34,6 33,6 z M 36,6 6,36 6,37 37,6 36,6 z M 39,6 6,39 6,40 40,6 39,6 z M 42,6 6,42 6,43 43,6 42,6 z M 45,6 6,45 6,46 46,6 45,6 z m 3,0 -42,42 0,1 9.25,-9.25 c 1.26083,-1.818096 2.8282,-3.410468 4.65625,-4.65625 L 49,6 48,6 z m 3,0 -27.0625,27.0625 c 0.49654,-0.178256 0.98423,-0.365365 1.5,-0.5 L 52,6 51,6 z m 3,0 -26.125,26.125 c 0.36242,-0.04278 0.725,-0.07288 1.09375,-0.09375 l 3.5,-3.5 c 1.48674,-2.492461 3.57228,-4.573627 6.0625,-6.0625 L 55,6 54,6 z M 57,6 42.15625,20.84375 C 42.6134,20.697676 43.08982,20.546164 43.5625,20.4375 L 58,6 57,6 z m 3,0 -14.0625,14.0625 c 0.34026,-0.03012 0.68565,-0.02087 1.03125,-0.03125 L 61,6 60,6 z m 3,0 -14.03125,14.0625 c 0.28429,0.02352 0.56349,0.08807 0.84375,0.125 L 64,6 63,6 z m 3,0 -14.46875,14.46875 c 0.26224,0.06184 0.52371,0.145273 0.78125,0.21875 L 67,6 66,6 z m 3,0 -15.1875,15.1875 c 0.24331,0.09401 0.48085,0.176829 0.71875,0.28125 L 70,6 69,6 z m 3,0 -16.125,16.125 c 0.21487,0.117289 0.41572,0.249083 0.625,0.375 L 73,6 72,6 z m 3,0 -17.28125,17.28125 c 0.19145,0.137734 0.37696,0.292326 0.5625,0.4375 L 76,6 75,6 z m 3,0 -18.625,18.625 c 0.17628,0.162584 0.33054,0.330368 0.5,0.5 L 79,6 78,6 z m 3,0 -20.15625,20.15625 c 0.15389,0.180803 0.29096,0.375456 0.4375,0.5625 L 82,6 81,6 z M 84,6 62.09375,27.90625 C 62.22543,28.106365 62.37643,28.294255 62.5,28.5 L 84.9375,6.0625 C 84.63485,6.0158394 84.31612,6 84,6 z m 2.46875,0.53125 -23.25,23.25 c 0.004,0.0082 -0.004,0.023 0,0.03125 C 63.32657,30.03286 63.4013,30.274537 63.5,30.5 L 87.125,6.875 C 86.91336,6.7460211 86.69673,6.6336833 86.46875,6.53125 z M 9.40625,6.59375 C 8.17161,7.183368 7.18337,8.1716132 6.59375,9.40625 l 2.8125,-2.8125 z M 88.25,7.75 64.0625,31.9375 c 0.0538,0.160538 0.13823,0.306162 0.1875,0.46875 0.13309,-0.02824 0.2722,-0.03691 0.40625,-0.0625 L 88.71875,8.28125 C 88.57304,8.0965398 88.41612,7.9161228 88.25,7.75 z m 1.21875,1.78125 -22.5,22.5 C 67.30678,32.010825 67.65669,32 68,32 L 89.71875,10.28125 c -0.0756,-0.253376 -0.1431,-0.5120828 -0.25,-0.75 z M 90,12 69.90625,32.09375 c 0.29743,0.03136 0.58212,0.07931 0.875,0.125 L 90,13 90,12 z m 0,3 -17.5625,17.5625 c 0.26437,0.06711 0.52172,0.140056 0.78125,0.21875 L 90,16 90,15 z m 0,3 -15.3125,15.3125 c 0.23824,0.09584 0.48571,0.175612 0.71875,0.28125 L 90,19 90,18 z m 0,3 -13.25,13.25 c 0.21461,0.11971 0.41592,0.246853 0.625,0.375 L 90,22 90,21 z m 0,3 -11.4375,11.4375 c 0.19143,0.139693 0.3769,0.290522 0.5625,0.4375 L 90,25 90,24 z m 0,3 -9.78125,9.78125 c 0.17147,0.15924 0.33485,0.334246 0.5,0.5 L 90,28 90,27 z m 0,3 -8.34375,8.34375 c 0.15558,0.182634 0.32043,0.342423 0.46875,0.53125 L 90,31 90,30 z m 0,3 -7.03125,7.03125 c 0.13388,0.201312 0.2491,0.418099 0.375,0.625 L 90,34 90,33 z m 0,3 -5.9375,5.9375 c 0.1122,0.223984 0.20946,0.45831 0.3125,0.6875 L 90,37 90,36 z m 0,3 -5.0625,5.0625 c 0.0868,0.247661 0.17383,0.497541 0.25,0.75 L 90,40 90,39 z m 0,3 -4.65625,4.65625 C 85.21005,47.154797 85.0493,47.644468 84.875,48.125 L 90,43 90,42 z M 13.125,43.875 6,51 6,52 12.65625,45.34375 C 12.78995,44.845203 12.9507,44.355532 13.125,43.875 z M 90,45 82.75,52.25 c -1.26083,1.818096 -2.8282,3.410468 -4.65625,4.65625 L 45,90 46,90 90,46 90,45 z M 12.8125,47.1875 6,54 l 0,1 7.0625,-7.0625 c -0.0868,-0.247661 -0.17383,-0.497541 -0.25,-0.75 z M 90,48 48,90 49,90 90,49 90,48 z M 13.625,49.375 6,57 6,58 13.9375,50.0625 C 13.8253,49.838516 13.72804,49.60419 13.625,49.375 z M 90,51 51,90 52,90 90,52 90,51 z M 14.65625,51.34375 6,60 l 0,1 9.03125,-9.03125 c -0.13388,-0.201312 -0.2491,-0.418099 -0.375,-0.625 z M 15.875,53.125 6,63 6,64 16.34375,53.65625 C 16.18817,53.473616 16.02332,53.313827 15.875,53.125 z M 90,54 54,90 55,90 90,55 90,54 z M 17.28125,54.71875 6,66 6,67 17.78125,55.21875 c -0.17147,-0.15924 -0.33485,-0.334246 -0.5,-0.5 z M 18.875,56.125 6,69 6,70 19.4375,56.5625 C 19.24607,56.422807 19.0606,56.271978 18.875,56.125 z M 90,57 57,90 58,90 90,58 90,57 z M 20.625,57.375 6,72 6,73 21.25,57.75 C 21.03539,57.63029 20.83408,57.503147 20.625,57.375 z M 22.59375,58.40625 6,75 6,76 23.3125,58.6875 C 23.07426,58.59166 22.82679,58.511888 22.59375,58.40625 z M 74.0625,58.9375 c -0.49654,0.178256 -0.98423,0.365365 -1.5,0.5 L 42,90 43,90 74.0625,58.9375 z M 24.78125,59.21875 6,78 6,79 25.5625,59.4375 c -0.26437,-0.06711 -0.52172,-0.140056 -0.78125,-0.21875 z m 2.4375,0.5625 L 6,81 6,82 28.09375,59.90625 c -0.29743,-0.03136 -0.58212,-0.07931 -0.875,-0.125 z M 70.125,59.875 c -0.36242,0.04278 -0.725,0.07288 -1.09375,0.09375 L 39,90 40,90 70.125,59.875 z M 31,59.9375 C 30.66738,59.9558 30.33719,60 30,60 L 6,84 c 0,0.316117 0.01584,0.634849 0.0625,0.9375 L 31,60 31,59.9375 z m 36,0 0,0.0625 0.0625,-0.0625 c -0.0207,-0.0013 -0.0418,0.0011 -0.0625,0 z M 67,60 66,60 36,90 37,90 67,60 z M 33,60 6.53125,86.46875 C 6.63368,86.696733 6.74602,86.913359 6.875,87.125 L 34,60 33,60 z m 3,0 -28.25,28.25 c 0.16612,0.166123 0.34654,0.323037 0.53125,0.46875 L 37,60 36,60 z m 3,0 -29.46875,29.46875 c 0.23792,0.106897 0.49662,0.174351 0.75,0.25 L 40,60 39,60 z m 3,0 -30,30 1,0 30,-30 -1,0 z m 3,0 -30,30 1,0 30,-30 -1,0 z m 3,0 -30,30 1,0 30,-30 -1,0 z m 3,0 -30,30 1,0 30,-30 -1,0 z m 3,0 -30,30 1,0 30,-30 -1,0 z m 3,0 -30,30 1,0 30,-30 -1,0 z m 3,0 -30,30 1,0 30,-30 -1,0 z m 3,0 -30,30 1,0 30,-30 -1,0 z m 27,0 -30,30 1,0 29,-29 0,-1 z m 0,3 -27,27 1,0 26,-26 0,-1 z m 0,3 -24,24 1,0 23,-23 0,-1 z m 0,3 -21,21 1,0 20,-20 0,-1 z m 0,3 -18,18 1,0 17,-17 0,-1 z m 0,3 -15,15 1,0 14,-14 0,-1 z m 0,3 -12,12 1,0 11,-11 0,-1 z m 0,3 -9,9 1,0 8,-8 0,-1 z m 0,3 -6,6 c 0.37114,0 0.74159,-0.02985 1.09375,-0.09375 l 4.8125,-4.8125 C 89.97015,84.741588 90,84.371143 90,84 z"
       inkscape:connector-curvature="0"
       id="path4865-6"
       style="opacity:0.1;fill:#000000;stroke:none" />
  </g>
</svg>
