<?xml version="1.0" encoding="UTF-8" standalone="no"?>
<!-- Created with Inkscape (http://www.inkscape.org/) -->

<svg
   xmlns:dc="http://purl.org/dc/elements/1.1/"
   xmlns:cc="http://creativecommons.org/ns#"
   xmlns:rdf="http://www.w3.org/1999/02/22-rdf-syntax-ns#"
   xmlns:svg="http://www.w3.org/2000/svg"
   xmlns="http://www.w3.org/2000/svg"
   xmlns:xlink="http://www.w3.org/1999/xlink"
   xmlns:inkscape="http://www.inkscape.org/namespaces/inkscape"
   version="1.0"
   width="96"
   height="96"
   id="svg2408">
  <defs
     id="defs2410">
    <linearGradient
       id="linearGradient4384">
      <stop
         id="stop4386"
         style="stop-color:#ffffff;stop-opacity:1"
         offset="0" />
      <stop
         id="stop4388"
         style="stop-color:#ffffff;stop-opacity:0"
         offset="1" />
    </linearGradient>
    <linearGradient
       id="linearGradient4367">
      <stop
         id="stop4369"
         style="stop-color:#ffffff;stop-opacity:0.71755725"
         offset="0" />
      <stop
         id="stop4371"
         style="stop-color:#ffffff;stop-opacity:1"
         offset="1" />
    </linearGradient>
    <linearGradient
       x1="45.447727"
       y1="92.539597"
       x2="45.447727"
       y2="7.0165396"
       id="ButtonShadow"
       gradientUnits="userSpaceOnUse"
       gradientTransform="scale(1.0058652,0.994169)">
      <stop
         id="stop3750"
         style="stop-color:#000000;stop-opacity:1"
         offset="0" />
      <stop
         id="stop3752"
         style="stop-color:#000000;stop-opacity:0.58823532"
         offset="1" />
    </linearGradient>
    <linearGradient
       id="linearGradient3737">
      <stop
         id="stop3739"
         style="stop-color:#ffffff;stop-opacity:1"
         offset="0" />
      <stop
         id="stop3741"
         style="stop-color:#ffffff;stop-opacity:0"
         offset="1" />
    </linearGradient>
    <linearGradient
       id="linearGradient3700">
      <stop
         id="stop3702"
         style="stop-color:#2276c5;stop-opacity:1"
         offset="0" />
      <stop
         id="stop3704"
         style="stop-color:#68baf4;stop-opacity:1"
         offset="1" />
    </linearGradient>
    <filter
       color-interpolation-filters="sRGB"
       id="filter3174">
      <feGaussianBlur
         id="feGaussianBlur3176"
         stdDeviation="1.71" />
    </filter>
    <filter
       x="-0.192"
       y="-0.192"
       width="1.3839999"
       height="1.3839999"
       color-interpolation-filters="sRGB"
       id="filter3794">
      <feGaussianBlur
         id="feGaussianBlur3796"
         stdDeviation="5.28" />
    </filter>
    <linearGradient
       x1="48"
       y1="20.220806"
       x2="48"
       y2="138.66119"
       id="linearGradient3613"
       xlink:href="#linearGradient3737"
       gradientUnits="userSpaceOnUse" />
    <linearGradient
       x1="48"
       y1="90"
       x2="48"
       y2="5.9877172"
       id="linearGradient3617"
       xlink:href="#linearGradient3700"
       gradientUnits="userSpaceOnUse"
       gradientTransform="translate(-130,0)" />
    <linearGradient
       x1="45.447727"
       y1="92.539597"
       x2="45.447727"
       y2="7.0165396"
       id="ButtonShadow-0"
       gradientUnits="userSpaceOnUse"
       gradientTransform="matrix(1.0058652,0,0,0.994169,100,0)">
      <stop
         id="stop3750-8"
         style="stop-color:#000000;stop-opacity:1"
         offset="0" />
      <stop
         id="stop3752-5"
         style="stop-color:#000000;stop-opacity:0.58823532"
         offset="1" />
    </linearGradient>
    <linearGradient
       x1="32.251034"
       y1="6.1317081"
       x2="32.251034"
       y2="90.238609"
       id="linearGradient3780"
       xlink:href="#ButtonShadow-0"
       gradientUnits="userSpaceOnUse"
       gradientTransform="matrix(1.0238095,0,0,1.0119048,-1.1428571,-98.071429)" />
    <linearGradient
       x1="32.251034"
       y1="6.1317081"
       x2="32.251034"
       y2="90.238609"
       id="linearGradient3772"
       xlink:href="#ButtonShadow-0"
       gradientUnits="userSpaceOnUse"
       gradientTransform="matrix(1.0238095,0,0,1.0119048,-1.1428571,-98.071429)" />
    <linearGradient
       x1="32.251034"
       y1="6.1317081"
       x2="32.251034"
       y2="90.238609"
       id="linearGradient3725"
       xlink:href="#ButtonShadow-0"
       gradientUnits="userSpaceOnUse"
       gradientTransform="matrix(1.0238095,0,0,1.0119048,-1.1428571,-98.071429)" />
    <linearGradient
       x1="32.251034"
       y1="6.1317081"
       x2="32.251034"
       y2="90.238609"
       id="linearGradient3721"
       xlink:href="#ButtonShadow-0"
       gradientUnits="userSpaceOnUse"
       gradientTransform="translate(0,-97)" />
    <linearGradient
       x1="32.251034"
       y1="6.1317081"
       x2="32.251034"
       y2="90.238609"
       id="linearGradient3026"
       xlink:href="#ButtonShadow-0"
       gradientUnits="userSpaceOnUse"
       gradientTransform="matrix(1.0238095,0,0,1.0119048,-1.1428571,-98.071429)" />
    <clipPath
       id="clipPath4355">
      <rect
         width="84"
         height="80"
         rx="6"
         ry="6"
         x="6"
         y="6"
         id="rect4357"
         style="fill:#ffffff;fill-opacity:1;fill-rule:nonzero;stroke:none" />
    </clipPath>
    <radialGradient
       cx="48"
       cy="87.792389"
       r="42"
       fx="48"
       fy="87.792389"
       id="radialGradient4375"
       xlink:href="#linearGradient4367"
       gradientUnits="userSpaceOnUse"
       gradientTransform="matrix(1,-6.7114942e-8,8.4282233e-8,1.2557894,109.99999,-24.505592)" />
    <linearGradient
       x1="48"
       y1="88"
       x2="48"
       y2="-40"
       id="linearGradient4390"
       xlink:href="#linearGradient4384"
       gradientUnits="userSpaceOnUse"
       gradientTransform="matrix(1,0,0,-1,0,92)" />
    <linearGradient
       x1="48"
       y1="82"
       x2="112.12357"
       y2="82.454597"
       id="linearGradient4429"
       xlink:href="#linearGradient4384"
       gradientUnits="userSpaceOnUse"
       spreadMethod="reflect" />
    <linearGradient
       id="linearGradient3892">
      <stop
         id="stop3894"
         style="stop-color:#000000;stop-opacity:0.58823532"
         offset="0" />
      <stop
         id="stop3896"
         style="stop-color:#000000;stop-opacity:0.47058824"
         offset="0.11780351" />
      <stop
         id="stop3898"
         style="stop-color:#000000;stop-opacity:0.39215687"
         offset="0.23809524" />
      <stop
         id="stop3900"
         style="stop-color:#000000;stop-opacity:0.3137255"
         offset="1" />
    </linearGradient>
    <linearGradient
       x1="90"
       y1="88"
       x2="48"
       y2="88"
       id="linearGradient3228"
       xlink:href="#linearGradient3892"
       gradientUnits="userSpaceOnUse"
       spreadMethod="reflect" />
    <linearGradient
       id="linearGradient3700-0">
      <stop
         id="stop3702-4"
         style="stop-color:#1a1818;stop-opacity:1"
         offset="0" />
      <stop
         id="stop3704-8"
         style="stop-color:#403d3d;stop-opacity:1"
         offset="1" />
    </linearGradient>
    <clipPath
       id="clipPath3981">
      <rect
         width="96"
         height="82"
         x="0"
         y="34"
         id="rect3983"
         style="opacity:0.5;color:#000000;fill:#ff00ff;fill-opacity:1;fill-rule:nonzero;stroke:none;stroke-width:2;marker:none;visibility:visible;display:inline;overflow:visible;enable-background:accumulate" />
    </clipPath>
    <linearGradient
       x1="48"
       y1="90"
       x2="48"
       y2="5.9877172"
       id="linearGradient3076"
       xlink:href="#linearGradient3700-0"
       gradientUnits="userSpaceOnUse"
       gradientTransform="translate(0,20)" />
    <linearGradient
       x1="40"
       y1="6"
       x2="40"
       y2="14"
       id="linearGradient4000"
       xlink:href="#linearGradient3994"
       gradientUnits="userSpaceOnUse" />
    <linearGradient
       id="linearGradient3994">
      <stop
         id="stop3996"
         style="stop-color:#ffffff;stop-opacity:1"
         offset="0" />
      <stop
         id="stop3998"
         style="stop-color:#ffffff;stop-opacity:0"
         offset="1" />
    </linearGradient>
    <linearGradient
       x1="31"
       y1="16"
       x2="31"
       y2="18"
       id="linearGradient3887"
       xlink:href="#linearGradient3881"
       gradientUnits="userSpaceOnUse"
       gradientTransform="matrix(1,0,0,1.5,0,-8)" />
    <linearGradient
       id="linearGradient3881">
      <stop
         id="stop3883"
         style="stop-color:#000000;stop-opacity:1"
         offset="0" />
      <stop
         id="stop3885"
         style="stop-color:#000000;stop-opacity:0"
         offset="1" />
    </linearGradient>
  </defs>
  <metadata
     id="metadata2413">
    <rdf:RDF>
      <cc:Work
         rdf:about="">
        <dc:format>image/svg+xml</dc:format>
        <dc:type
           rdf:resource="http://purl.org/dc/dcmitype/StillImage" />
        <dc:title />
      </cc:Work>
    </rdf:RDF>
  </metadata>
  <g
     id="layer2"
     style="display:none">
    <rect
       width="86"
       height="85"
       rx="6"
       ry="6"
       x="5"
       y="7"
       id="rect3745"
       style="opacity:0.9;fill:url(#ButtonShadow);fill-opacity:1;fill-rule:nonzero;stroke:none;filter:url(#filter3174)" />
  </g>
  <g
     id="layer3"
     style="display:inline">
    <path
       d="m 12,-95.03125 c -5.5110903,0 -10.03125,4.52016 -10.03125,10.03125 l 0,71 c 0,5.5110902 4.5201598,10.03125 10.03125,10.03125 l 72,0 c 5.51109,0 10.03125,-4.5201597 10.03125,-10.03125 l 0,-71 c 0,-5.51109 -4.52016,-10.03125 -10.03125,-10.03125 l -72,0 z"
       transform="scale(1,-1)"
       id="path3786"
       style="opacity:0.07999998;fill:url(#linearGradient3026);fill-opacity:1;fill-rule:nonzero;stroke:none;display:inline" />
    <path
       d="m 12,-94.03125 c -4.971633,0 -9.03125,4.059617 -9.03125,9.03125 l 0,71 c 0,4.9716329 4.0596171,9.03125 9.03125,9.03125 l 72,0 c 4.971633,0 9.03125,-4.059617 9.03125,-9.03125 l 0,-71 c 0,-4.971633 -4.059617,-9.03125 -9.03125,-9.03125 l -72,0 z"
       transform="scale(1,-1)"
       id="path3778"
       style="opacity:0.1;fill:url(#linearGradient3780);fill-opacity:1;fill-rule:nonzero;stroke:none;display:inline" />
    <path
       d="m 12,-93 c -4.4091333,0 -8,3.590867 -8,8 l 0,71 c 0,4.4091333 3.5908667,8 8,8 l 72,0 c 4.409133,0 8,-3.5908667 8,-8 l 0,-71 c 0,-4.409133 -3.590867,-8 -8,-8 l -72,0 z"
       transform="scale(1,-1)"
       id="path3770"
       style="opacity:0.2;fill:url(#linearGradient3772);fill-opacity:1;fill-rule:nonzero;stroke:none;display:inline" />
    <rect
       width="86"
       height="85"
       rx="7"
       ry="7"
       x="5"
       y="-92"
       transform="scale(1,-1)"
       id="rect3723"
       style="opacity:0.3;fill:url(#linearGradient3725);fill-opacity:1;fill-rule:nonzero;stroke:none;display:inline" />
    <rect
       width="84"
       height="84"
       rx="6"
       ry="6"
       x="6"
       y="-91"
       transform="scale(1,-1)"
       id="rect3716"
       style="opacity:0.45;fill:url(#linearGradient3721);fill-opacity:1;fill-rule:nonzero;stroke:none;display:inline" />
  </g>
  <g
     id="layer1">
    <rect
       width="84"
       height="84"
       rx="6.0999999"
       ry="6"
       x="6"
       y="26"
       transform="translate(0,-20)"
       clip-path="url(#clipPath3981)"
       id="rect2419-7"
       style="fill:url(#linearGradient3076);fill-opacity:1;fill-rule:nonzero;stroke:none" />
    <rect
       width="84"
       height="84"
       rx="6"
       ry="6"
       x="-124"
       y="6"
       id="rect2419"
       style="fill:url(#linearGradient3617);fill-opacity:1;fill-rule:nonzero;stroke:none" />
    <path
       d="M 120.78125,6.125 C 118.04223,6.6826484 116,9.0915 116,12 l 0,68 c 0,3.324 2.676,6 6,6 l 72,0 c 3.324,0 6,-2.676 6,-6 l 0,-68 c 0,-2.9085 -2.04223,-5.3173516 -4.78125,-5.875 2.20512,0.5362071 3.8125,2.4908437 3.8125,4.875 l 0,68 c 0,2.80489 -2.22636,5.03125 -5.03125,5.03125 l -72,0 c -2.80489,0 -5.03125,-2.22636 -5.03125,-5.03125 l 0,-68 c 0,-2.3841563 1.60738,-4.3387929 3.8125,-4.875 z"
       inkscape:connector-curvature="0"
       id="rect4359"
       style="opacity:0.2;fill:url(#radialGradient4375);fill-opacity:1;fill-rule:nonzero;stroke:none" />
    <path
       d="M 12,86 C 8.676,86 6,83.324 6,80 L 6,12 C 6,8.676 8.676,6 12,6 l 72,0 c 3.324,0 6,2.676 6,6 l 0,68 c 0,3.324 -2.676,6 -6,6 z m 0,-0.96875 72,0 c 2.80489,0 5.03125,-2.22636 5.03125,-5.03125 l 0,-68 C 89.03125,9.19511 86.80489,6.96875 84,6.96875 l -72,0 C 9.1951102,6.96875 6.96875,9.19511 6.96875,12 l 0,68 c 0,2.80489 2.2263602,5.03125 5.03125,5.03125 z"
       inkscape:connector-curvature="0"
       id="rect4377"
       style="opacity:0.12000002;fill:url(#linearGradient4390);fill-opacity:1;fill-rule:nonzero;stroke:none" />
    <path
       d="m 6,78 0,2 c 0,3.324 2.676,6 6,6 l 72,0 c 3.324,0 6,-2.676 6,-6 l 0,-2 c 0,3.324 -2.676,6 -6,6 L 12,84 C 8.676,84 6,81.324 6,78 z"
       inkscape:connector-curvature="0"
       id="rect4414"
       style="opacity:0.05;fill:url(#linearGradient4429);fill-opacity:1;fill-rule:nonzero;stroke:none" />
    <path
       d="m 6,100 0,1 c 0,3.324 2.676,6 6,6 l 72,0 c 3.324,0 6,-2.676 6,-6 l 0,-1 c 0,3.324 -2.676,6 -6,6 l -72,0 c -3.324,0 -6,-2.676 -6,-6 z"
       inkscape:connector-curvature="0"
       id="path4412"
       style="opacity:0.15;fill:#000000;fill-opacity:1;fill-rule:nonzero;stroke:none" />
    <path
       d="M 12,6 C 8.676,6 6,8.676 6,12 l 0,4 20,0 0,-10 -14,0 z"
       inkscape:connector-curvature="0"
       id="rect3822"
       style="fill:#d91f1c;fill-opacity:1;fill-rule:nonzero;stroke:none" />
    <path
       d="M 26,6 26,16 48,16 48,6 26,6 z"
       inkscape:connector-curvature="0"
       id="path3829"
       style="fill:#4776ec;fill-opacity:1;fill-rule:nonzero;stroke:none" />
    <path
       d="M 48,6 48,16 70,16 70,6 48,6 z"
       inkscape:connector-curvature="0"
       id="path3831"
       style="fill:#22a938;fill-opacity:1;fill-rule:nonzero;stroke:none" />
    <path
       d="m 70,6 0,10 20,0 0,-4 C 90,8.676 87.324,6 84,6 z"
       inkscape:connector-curvature="0"
       id="path3833"
       style="fill:#eeb91c;fill-opacity:1;fill-rule:nonzero;stroke:none" />
    <rect
       width="84"
       height="3"
       x="6"
       y="16"
       id="rect3879"
       style="opacity:0.1;color:#000000;fill:url(#linearGradient3887);fill-opacity:1;fill-rule:nonzero;stroke:none;stroke-width:2;marker:none;visibility:visible;display:inline;overflow:visible;enable-background:accumulate" />
    <path
       d="M 12,6 C 8.676,6 6,8.676 6,12 l 0,2 20,0 22,0 22,0 20,0 0,-2 C 90,8.676 87.324,6 84,6 L 70,6 48,6 26,6 z"
       inkscape:connector-curvature="0"
       id="path3985"
       style="opacity:0.3;fill:url(#linearGradient4000);fill-opacity:1;fill-rule:nonzero;stroke:none" />
    <path
       d="M 12,6 C 8.676,6 6,8.676 6,12 l 0,4 1.03125,0 0,-4 C 7.03125,9.2272295 9.2272295,7.03125 12,7.03125 l 72,0 c 2.772771,0 4.96875,2.1959795 4.96875,4.96875 l 0,4 L 90,16 90,12 C 90,8.676 87.324,6 84,6 L 70,6 48,6 26,6 12,6 z"
       inkscape:connector-curvature="0"
       id="path3890"
       style="opacity:0.2;fill:#ffffff;fill-opacity:1;fill-rule:nonzero;stroke:none" />
  </g>
  <g
     id="layer4"
     style="display:inline">
    <path
       d="m 6,80 0,4 c 0,3.324 2.676,6 6,6 l 72,0 c 3.324,0 6,-2.676 6,-6 l 0,-4 c 0,3.324 -2.676,6 -6,6 L 12,86 C 8.676,86 6,83.324 6,80 z"
       inkscape:connector-curvature="0"
       id="path3888"
       style="fill:url(#linearGradient3228);fill-opacity:1;fill-rule:nonzero;stroke:none;display:inline" />
    <path
       d="m 6,82 0,2 c 0,3.324 2.676,6 6,6 l 72,0 c 3.324,0 6,-2.676 6,-6 l 0,-2 c 0,3.324 -2.676,6 -6,6 L 12,88 C 8.676,88 6,85.324 6,82 z"
       inkscape:connector-curvature="0"
       id="rect4345"
       style="opacity:0.1;color:#000000;fill:#000000;fill-opacity:1;fill-rule:nonzero;stroke:none;stroke-width:1.5;marker:none;visibility:visible;display:inline;overflow:visible;enable-background:accumulate" />
    <path
       d="m 6,83 0,1 c 0,3.324 2.676,6 6,6 l 72,0 c 3.324,0 6,-2.676 6,-6 l 0,-1 c 0,3.324 -2.676,6 -6,6 L 12,89 C 8.676,89 6,86.324 6,83 z"
       inkscape:connector-curvature="0"
       id="rect4336"
       style="opacity:0.15;color:#000000;fill:#000000;fill-opacity:1;fill-rule:nonzero;stroke:none;stroke-width:1.5;marker:none;visibility:visible;display:inline;overflow:visible;enable-background:accumulate" />
  </g>
  <g
     id="layer5"
     style="display:inline">
    <rect
       width="66"
       height="62"
       rx="12"
       ry="12"
       x="15"
       y="15"
       clip-path="url(#clipPath4355)"
       id="rect3171"
       style="opacity:0.1;fill:url(#linearGradient3613);fill-opacity:1;fill-rule:nonzero;stroke:#ffffff;stroke-width:0.5;stroke-linecap:round;stroke-linejoin:miter;stroke-miterlimit:4;stroke-opacity:1;stroke-dasharray:none;stroke-dashoffset:0;filter:url(#filter3794)" />
  </g>
  <g
     id="layer6">
    <path
       d="m 43.4375,29.0625 c -3.59288,0 -8.413622,0.536054 -12.5,3.90625 a 0.96731774,0.96731774 0 0 0 -0.21875,0.28125 0.96731774,0.96731774 0 0 0 -0.0625,0.09375 c -2.919307,2.669211 -4.437506,6.199479 -4.4375,9.5625 0,5.79217 4.57999,11.503505 11.9375,11.75 -0.034,0.185816 -0.09375,0.236939 -0.09375,0.46875 0,1.082942 0.272697,1.943901 0.625,2.71875 -2.802258,0.260239 -6.235232,0.792048 -9.46875,2.65625 A 0.96731774,0.96731774 0 0 0 29.125,60.53125 0.96731774,0.96731774 0 0 0 28.84375,60.625 C 24.55672,63.166749 23.0625,67.085515 23.0625,70 c 0,2.944497 1.449999,5.822345 4.125,7.8125 2.667151,1.984315 6.47158,3.124995 11.34375,3.125 11.556494,0 18.53125,-6.667972 18.53125,-13.84375 0,-2.562336 -0.824218,-4.64214 -2,-6.28125 -1.166035,-1.625522 -2.61131,-2.86367 -4,-4.03125 A 0.96731774,0.96731774 0 0 0 50.90625,56.6875 0.96731774,0.96731774 0 0 0 50.8125,56.625 l -2,-1.625 c -5e-5,-4.1e-5 -0.02833,0.0014 -0.03125,0 -0.01536,-0.01257 -0.01624,-0.01894 -0.03125,-0.03125 -0.339081,-0.278193 -0.625841,-0.497785 -0.75,-0.65625 -0.129654,-0.165478 -0.156249,-0.234823 -0.15625,-0.5 0,-0.241376 0.05401,-0.41242 0.25,-0.6875 0.195988,-0.27508 0.544777,-0.606082 0.96875,-1.03125 2.657057,-2.099335 5.84375,-5.016631 5.84375,-10.3125 l 0,-0.4375 0,-0.03125 c 0,-0.03515 0,-0.09375 0,-0.09375 a 0.96731774,0.96731774 0 0 0 0,-0.03125 L 54.875,40.78125 54.84375,40.4375 c 0,-2e-6 0,-0.03975 0,-0.09375 0,-0.036 0,-0.0625 0,-0.0625 a 0.96731774,0.96731774 0 0 0 0,-0.125 L 54.78125,39.75 A 0.96731774,0.96731774 0 0 0 54.75,39.65625 c 0,-10e-7 -0.02277,-0.0347 -0.03125,-0.0625 l 0,-0.03125 c -10e-7,-2e-6 -0.03125,-0.09375 -0.03125,-0.09375 l -0.03125,-0.125 0,-0.03125 A 0.96731774,0.96731774 0 0 0 54.625,39.21875 l 0,-0.15625 a 0.96731774,0.96731774 0 0 0 -0.03125,-0.15625 c 0,-2e-6 -0.03125,-0.09375 -0.03125,-0.09375 -10e-7,-2e-6 -0.03125,-0.09375 -0.03125,-0.09375 l -0.0625,-0.28125 c 0,-2e-6 -0.03125,-0.09375 -0.03125,-0.09375 -10e-7,-2e-6 -0.03125,-0.09375 -0.03125,-0.09375 l -0.125,-0.34375 -0.125,-0.34375 -0.125,-0.34375 L 53.9375,37 c 0,-2e-6 -0.03125,-0.09375 -0.03125,-0.09375 -10e-7,-2e-6 -0.03125,-0.09375 -0.03125,-0.09375 a 0.96731774,0.96731774 0 0 0 -0.03125,-0.09375 l -0.15625,-0.3125 a 0.96731774,0.96731774 0 0 0 -0.0625,-0.0625 l 0,-0.03125 A 0.96731774,0.96731774 0 0 0 53.5625,36.25 l -0.09375,-0.1875 -0.125,-0.21875 c 0,-10e-7 -0.01563,-0.03125 -0.03125,-0.0625 -0.01562,-0.03125 -0.03125,-0.0625 -0.03125,-0.0625 A 0.96731774,0.96731774 0 0 0 53.21875,35.625 L 53.15625,35.53125 53.125,35.46875 A 0.96731774,0.96731774 0 0 0 53.09375,35.4375 L 53.0625,35.40625 53.03125,35.3125 c -10e-7,-2e-6 -0.04766,-0.06117 -0.0625,-0.09375 -0.0037,-0.0081 0,-0.03125 0,-0.03125 -10e-7,-10e-7 -0.0145,-0.03182 -0.03125,-0.0625 0.03451,-0.01038 0.0625,-0.03125 0.0625,-0.03125 2e-6,-10e-7 0.124998,-0.0625 0.125,-0.0625 2e-6,-10e-7 0.124998,-0.03125 0.125,-0.03125 2e-6,-10e-7 0.09375,-0.0625 0.09375,-0.0625 l 4.03125,-2.25 c 2e-6,-10e-7 0.124998,-0.09375 0.125,-0.09375 2e-6,-10e-7 0.156248,-0.09375 0.15625,-0.09375 2e-6,-2e-6 0.09375,-0.09375 0.09375,-0.09375 2e-6,-2e-6 0.124998,-0.124998 0.125,-0.125 2e-6,-2e-6 0.09375,-0.124998 0.09375,-0.125 2e-6,-2e-6 0.09375,-0.124998 0.09375,-0.125 10e-7,-2e-6 0.09375,-0.124998 0.09375,-0.125 10e-7,-2e-6 0.0625,-0.156248 0.0625,-0.15625 10e-7,-2e-6 0.0625,-0.124997 0.0625,-0.125 10e-7,-3e-6 0.03125,-0.156247 0.03125,-0.15625 10e-7,-3e-6 0.03125,-0.156247 0.03125,-0.15625 0,-3e-6 0.03125,-0.156247 0.03125,-0.15625 0,-3e-6 0,-0.156247 0,-0.15625 0,-3e-6 0,-0.187497 0,-0.1875 0,-3e-6 -0.03125,-0.156247 -0.03125,-0.15625 0,-3e-6 -0.03125,-0.156247 -0.03125,-0.15625 -10e-7,-3e-6 -0.0625,-0.124997 -0.0625,-0.125 -10e-7,-3e-6 -0.03125,-0.156248 -0.03125,-0.15625 -10e-7,-2e-6 -0.09375,-0.156248 -0.09375,-0.15625 -10e-7,-2e-6 -0.0625,-0.124998 -0.0625,-0.125 -10e-7,-2e-6 -0.09375,-0.124998 -0.09375,-0.125 -2e-6,-2e-6 -0.124998,-0.124998 -0.125,-0.125 -2e-6,-2e-6 -0.09375,-0.124998 -0.09375,-0.125 -2e-6,-2e-6 -0.124998,-0.09375 -0.125,-0.09375 -2e-6,-2e-6 -0.124998,-0.09375 -0.125,-0.09375 -2e-6,-1e-6 -0.156248,-0.09375 -0.15625,-0.09375 -2e-6,-1e-6 -0.124998,-0.0625 -0.125,-0.0625 -2e-6,-1e-6 -0.156247,-0.0625 -0.15625,-0.0625 -3e-6,-1e-6 -0.156247,-0.03125 -0.15625,-0.03125 -3e-6,-1e-6 -0.156247,-0.03125 -0.15625,-0.03125 -3e-6,0 -0.156247,-0.03125 -0.15625,-0.03125 -3e-6,0 -0.156247,0 -0.15625,0 l -13,0 z m 22.21875,0 A 0.96731774,0.96731774 0 0 0 65.625,29.09375 c -3e-6,1e-6 -0.156247,0.03125 -0.15625,0.03125 -3e-6,1e-6 -0.156247,0.0625 -0.15625,0.0625 -3e-6,1e-6 -0.156247,0.0625 -0.15625,0.0625 -3e-6,1e-6 -0.156248,0.0625 -0.15625,0.0625 -2e-6,1e-6 -0.156248,0.09375 -0.15625,0.09375 -2e-6,2e-6 -0.124998,0.124998 -0.125,0.125 -2e-6,2e-6 -0.124998,0.09375 -0.125,0.09375 -2e-6,2e-6 -0.09375,0.156248 -0.09375,0.15625 -2e-6,2e-6 -0.09375,0.124998 -0.09375,0.125 -2e-6,2e-6 -0.09375,0.124998 -0.09375,0.125 -10e-7,2e-6 -0.09375,0.156247 -0.09375,0.15625 -10e-7,3e-6 -0.0625,0.156247 -0.0625,0.15625 -10e-7,3e-6 -0.03125,0.187497 -0.03125,0.1875 -10e-7,3e-6 -0.03125,0.156247 -0.03125,0.15625 0,3e-6 -0.03125,0.156247 -0.03125,0.15625 0,2e-6 9.21e-4,0.117158 0,0.15625 -1.84e-4,0.0078 0,0.03125 0,0.03125 l 0,6.03125 -6.0625,0 c -2e-6,0 -0.09375,0 -0.09375,0 -2e-6,0 -0.09375,0 -0.09375,0 -2e-6,0 -0.09375,0.03125 -0.09375,0.03125 -2e-6,0 -0.09375,0 -0.09375,0 -2e-6,0 -0.09375,0.03125 -0.09375,0.03125 -2e-6,0 -0.09375,0.03125 -0.09375,0.03125 -2e-6,0 -0.09375,0.03125 -0.09375,0.03125 -10e-7,10e-7 -0.09375,0.03125 -0.09375,0.03125 -10e-7,10e-7 -0.0625,0.03125 -0.0625,0.03125 -10e-7,10e-7 -0.09375,0.03125 -0.09375,0.03125 -10e-7,10e-7 -0.09375,0.0625 -0.09375,0.0625 -10e-7,10e-7 -0.0625,0.03125 -0.0625,0.03125 -10e-7,10e-7 -0.09375,0.0625 -0.09375,0.0625 -10e-7,10e-7 -0.0625,0.0625 -0.0625,0.0625 -10e-7,10e-7 -0.09375,0.0625 -0.09375,0.0625 -10e-7,10e-7 -0.0625,0.0625 -0.0625,0.0625 -10e-7,10e-7 -0.0625,0.0625 -0.0625,0.0625 -10e-7,10e-7 -0.0625,0.09375 -0.0625,0.09375 -10e-7,10e-7 -0.0625,0.0625 -0.0625,0.0625 -10e-7,10e-7 -0.0625,0.09375 -0.0625,0.09375 -10e-7,10e-7 -0.03125,0.0625 -0.03125,0.0625 -10e-7,10e-7 -0.0625,0.09375 -0.0625,0.09375 -10e-7,10e-7 -0.03125,0.09375 -0.03125,0.09375 -10e-7,10e-7 -0.03125,0.0625 -0.03125,0.0625 -10e-7,10e-7 -0.03125,0.09375 -0.03125,0.09375 -10e-7,10e-7 -0.03125,0.09375 -0.03125,0.09375 0,2e-6 -0.03125,0.09375 -0.03125,0.09375 0,2e-6 -0.03125,0.09375 -0.03125,0.09375 0,2e-6 0,0.09375 0,0.09375 0,2e-6 -0.03125,0.09375 -0.03125,0.09375 0,2e-6 0,0.09375 0,0.09375 0,2e-6 0,0.09375 0,0.09375 l 0,2 c 0,2e-6 0,0.09375 0,0.09375 0,2e-6 0,0.09375 0,0.09375 0,2e-6 0.03125,0.09375 0.03125,0.09375 0,2e-6 0,0.09375 0,0.09375 0,2e-6 0.03125,0.09375 0.03125,0.09375 0,2e-6 0.03125,0.09375 0.03125,0.09375 0,2e-6 0.03125,0.09375 0.03125,0.09375 10e-7,10e-7 0.03125,0.09375 0.03125,0.09375 10e-7,10e-7 0.03125,0.0625 0.03125,0.0625 10e-7,10e-7 0.03125,0.09375 0.03125,0.09375 10e-7,10e-7 0.0625,0.09375 0.0625,0.09375 10e-7,10e-7 0.03125,0.0625 0.03125,0.0625 10e-7,10e-7 0.0625,0.09375 0.0625,0.09375 10e-7,10e-7 0.0625,0.0625 0.0625,0.0625 10e-7,10e-7 0.0625,0.09375 0.0625,0.09375 10e-7,10e-7 0.0625,0.0625 0.0625,0.0625 10e-7,10e-7 0.0625,0.0625 0.0625,0.0625 10e-7,10e-7 0.09375,0.0625 0.09375,0.0625 10e-7,10e-7 0.0625,0.0625 0.0625,0.0625 10e-7,10e-7 0.09375,0.0625 0.09375,0.0625 10e-7,10e-7 0.0625,0.03125 0.0625,0.03125 10e-7,10e-7 0.09375,0.0625 0.09375,0.0625 10e-7,10e-7 0.09375,0.03125 0.09375,0.03125 10e-7,10e-7 0.0625,0.03125 0.0625,0.03125 10e-7,10e-7 0.09375,0.03125 0.09375,0.03125 10e-7,10e-7 0.09375,0.03125 0.09375,0.03125 2e-6,0 0.09375,0.03125 0.09375,0.03125 2e-6,0 0.09375,0.03125 0.09375,0.03125 2e-6,0 0.09375,0 0.09375,0 2e-6,0 0.09375,0.03125 0.09375,0.03125 2e-6,0 0.09375,0 0.09375,0 2e-6,0 0.09375,0 0.09375,0 l 6.0625,0 0,6.0625 c 0,2e-6 0,0.09375 0,0.09375 0,2e-6 0,0.09375 0,0.09375 0,2e-6 0.03125,0.09375 0.03125,0.09375 0,2e-6 0,0.09375 0,0.09375 0,2e-6 0.03125,0.09375 0.03125,0.09375 0,2e-6 0.03125,0.09375 0.03125,0.09375 0,2e-6 0.03125,0.09375 0.03125,0.09375 10e-7,10e-7 0.03125,0.09375 0.03125,0.09375 10e-7,10e-7 0.03125,0.0625 0.03125,0.0625 10e-7,10e-7 0.03125,0.09375 0.03125,0.09375 10e-7,10e-7 0.0625,0.09375 0.0625,0.09375 10e-7,10e-7 0.03125,0.0625 0.03125,0.0625 10e-7,10e-7 0.0625,0.09375 0.0625,0.09375 10e-7,10e-7 0.0625,0.0625 0.0625,0.0625 10e-7,10e-7 0.0625,0.09375 0.0625,0.09375 10e-7,10e-7 0.0625,0.0625 0.0625,0.0625 10e-7,10e-7 0.0625,0.0625 0.0625,0.0625 10e-7,10e-7 0.09375,0.0625 0.09375,0.0625 10e-7,10e-7 0.0625,0.0625 0.0625,0.0625 10e-7,10e-7 0.09375,0.0625 0.09375,0.0625 10e-7,10e-7 0.0625,0.03125 0.0625,0.03125 10e-7,10e-7 0.09375,0.0625 0.09375,0.0625 10e-7,10e-7 0.09375,0.03125 0.09375,0.03125 10e-7,10e-7 0.0625,0.03125 0.0625,0.03125 10e-7,10e-7 0.09375,0.03125 0.09375,0.03125 10e-7,10e-7 0.09375,0.03125 0.09375,0.03125 2e-6,0 0.09375,0.03125 0.09375,0.03125 2e-6,0 0.09375,0.03125 0.09375,0.03125 2e-6,0 0.09375,0 0.09375,0 2e-6,0 0.09375,0.03125 0.09375,0.03125 2e-6,0 0.09375,0 0.09375,0 2e-6,0 0.09375,0 0.09375,0 l 2,0 c 2e-6,0 0.09375,0 0.09375,0 2e-6,0 0.09375,0 0.09375,0 2e-6,0 0.09375,-0.03125 0.09375,-0.03125 2e-6,0 0.09375,0 0.09375,0 2e-6,0 0.09375,-0.03125 0.09375,-0.03125 2e-6,0 0.09375,-0.03125 0.09375,-0.03125 2e-6,0 0.09375,-0.03125 0.09375,-0.03125 10e-7,-10e-7 0.09375,-0.03125 0.09375,-0.03125 10e-7,-10e-7 0.0625,-0.03125 0.0625,-0.03125 10e-7,-10e-7 0.09375,-0.03125 0.09375,-0.03125 10e-7,-10e-7 0.09375,-0.0625 0.09375,-0.0625 10e-7,-10e-7 0.0625,-0.03125 0.0625,-0.03125 10e-7,-10e-7 0.09375,-0.0625 0.09375,-0.0625 10e-7,-10e-7 0.0625,-0.0625 0.0625,-0.0625 10e-7,-10e-7 0.09375,-0.0625 0.09375,-0.0625 10e-7,-10e-7 0.0625,-0.0625 0.0625,-0.0625 10e-7,-10e-7 0.0625,-0.0625 0.0625,-0.0625 10e-7,-10e-7 0.0625,-0.09375 0.0625,-0.09375 10e-7,-10e-7 0.0625,-0.0625 0.0625,-0.0625 10e-7,-10e-7 0.0625,-0.09375 0.0625,-0.09375 10e-7,-10e-7 0.03125,-0.0625 0.03125,-0.0625 10e-7,-10e-7 0.0625,-0.09375 0.0625,-0.09375 10e-7,-10e-7 0.03125,-0.09375 0.03125,-0.09375 10e-7,-10e-7 0.03125,-0.0625 0.03125,-0.0625 10e-7,-10e-7 0.03125,-0.09375 0.03125,-0.09375 10e-7,-10e-7 0.03125,-0.09375 0.03125,-0.09375 0,-2e-6 0.03125,-0.09375 0.03125,-0.09375 0,-2e-6 0.03125,-0.09375 0.03125,-0.09375 0,-2e-6 0,-0.09375 0,-0.09375 0,-2e-6 0.03125,-0.09375 0.03125,-0.09375 0,-2e-6 0,-0.09375 0,-0.09375 0,-2e-6 0,-0.09375 0,-0.09375 l 0,-6.0625 6.0625,0 c 2e-6,0 0.09375,0 0.09375,0 2e-6,0 0.09375,0 0.09375,0 2e-6,0 0.09375,-0.03125 0.09375,-0.03125 2e-6,0 0.09375,0 0.09375,0 2e-6,0 0.09375,-0.03125 0.09375,-0.03125 2e-6,0 0.09375,-0.03125 0.09375,-0.03125 2e-6,0 0.09375,-0.03125 0.09375,-0.03125 10e-7,-10e-7 0.09375,-0.03125 0.09375,-0.03125 10e-7,-10e-7 0.0625,-0.03125 0.0625,-0.03125 10e-7,-10e-7 0.09375,-0.03125 0.09375,-0.03125 10e-7,-10e-7 0.09375,-0.0625 0.09375,-0.0625 10e-7,-10e-7 0.0625,-0.03125 0.0625,-0.03125 10e-7,-10e-7 0.09375,-0.0625 0.09375,-0.0625 10e-7,-10e-7 0.0625,-0.0625 0.0625,-0.0625 10e-7,-10e-7 0.09375,-0.0625 0.09375,-0.0625 10e-7,-10e-7 0.0625,-0.0625 0.0625,-0.0625 10e-7,-10e-7 0.0625,-0.0625 0.0625,-0.0625 10e-7,-10e-7 0.0625,-0.09375 0.0625,-0.09375 10e-7,-10e-7 0.0625,-0.0625 0.0625,-0.0625 10e-7,-10e-7 0.0625,-0.09375 0.0625,-0.09375 10e-7,-10e-7 0.03125,-0.0625 0.03125,-0.0625 10e-7,-10e-7 0.0625,-0.09375 0.0625,-0.09375 10e-7,-10e-7 0.03125,-0.09375 0.03125,-0.09375 10e-7,-10e-7 0.03125,-0.0625 0.03125,-0.0625 10e-7,-10e-7 0.03125,-0.09375 0.03125,-0.09375 10e-7,-10e-7 0.03125,-0.09375 0.03125,-0.09375 0,-2e-6 0.03125,-0.09375 0.03125,-0.09375 0,-2e-6 0.03125,-0.09375 0.03125,-0.09375 0,-2e-6 0,-0.09375 0,-0.09375 0,-2e-6 0.03125,-0.09375 0.03125,-0.09375 0,-2e-6 0,-0.09375 0,-0.09375 0,-2e-6 0,-0.09375 0,-0.09375 l 0,-2 c 0,-2e-6 0,-0.09375 0,-0.09375 0,-2e-6 0,-0.09375 0,-0.09375 0,-2e-6 -0.03125,-0.09375 -0.03125,-0.09375 0,-2e-6 0,-0.09375 0,-0.09375 0,-2e-6 -0.03125,-0.09375 -0.03125,-0.09375 0,-2e-6 -0.03125,-0.09375 -0.03125,-0.09375 0,-2e-6 -0.03125,-0.09375 -0.03125,-0.09375 -10e-7,-10e-7 -0.03125,-0.09375 -0.03125,-0.09375 -10e-7,-10e-7 -0.03125,-0.0625 -0.03125,-0.0625 -10e-7,-10e-7 -0.03125,-0.09375 -0.03125,-0.09375 -10e-7,-10e-7 -0.0625,-0.09375 -0.0625,-0.09375 -10e-7,-10e-7 -0.03125,-0.0625 -0.03125,-0.0625 -10e-7,-10e-7 -0.0625,-0.09375 -0.0625,-0.09375 -10e-7,-10e-7 -0.0625,-0.0625 -0.0625,-0.0625 -10e-7,-10e-7 -0.0625,-0.09375 -0.0625,-0.09375 -10e-7,-10e-7 -0.0625,-0.0625 -0.0625,-0.0625 -10e-7,-10e-7 -0.0625,-0.0625 -0.0625,-0.0625 -10e-7,-10e-7 -0.09375,-0.0625 -0.09375,-0.0625 -10e-7,-10e-7 -0.0625,-0.0625 -0.0625,-0.0625 -10e-7,-10e-7 -0.09375,-0.0625 -0.09375,-0.0625 -10e-7,-10e-7 -0.0625,-0.03125 -0.0625,-0.03125 -10e-7,-10e-7 -0.09375,-0.0625 -0.09375,-0.0625 -10e-7,-10e-7 -0.09375,-0.03125 -0.09375,-0.03125 -10e-7,-10e-7 -0.0625,-0.03125 -0.0625,-0.03125 -10e-7,-10e-7 -0.09375,-0.03125 -0.09375,-0.03125 -10e-7,-10e-7 -0.09375,-0.03125 -0.09375,-0.03125 -2e-6,0 -0.09375,-0.03125 -0.09375,-0.03125 -2e-6,0 -0.09375,-0.03125 -0.09375,-0.03125 -2e-6,0 -0.09375,0 -0.09375,0 -2e-6,0 -0.09375,-0.03125 -0.09375,-0.03125 -2e-6,0 -0.09375,0 -0.09375,0 -2e-6,0 -0.09375,0 -0.09375,0 l -6.0625,0 0,-6.0625 c 0,-2e-6 0,-0.09375 0,-0.09375 0,-2e-6 0,-0.09375 0,-0.09375 0,-2e-6 -0.03125,-0.09375 -0.03125,-0.09375 0,-2e-6 0,-0.09375 0,-0.09375 0,-2e-6 -0.03125,-0.09375 -0.03125,-0.09375 0,-2e-6 -0.03125,-0.09375 -0.03125,-0.09375 0,-2e-6 -0.03125,-0.09375 -0.03125,-0.09375 -10e-7,-1e-6 -0.03125,-0.09375 -0.03125,-0.09375 -10e-7,-1e-6 -0.03125,-0.0625 -0.03125,-0.0625 -10e-7,-1e-6 -0.03125,-0.09375 -0.03125,-0.09375 -10e-7,-1e-6 -0.0625,-0.09375 -0.0625,-0.09375 -10e-7,-1e-6 -0.03125,-0.0625 -0.03125,-0.0625 -10e-7,-1e-6 -0.0625,-0.09375 -0.0625,-0.09375 -10e-7,-1e-6 -0.0625,-0.0625 -0.0625,-0.0625 -10e-7,-1e-6 -0.0625,-0.09375 -0.0625,-0.09375 -10e-7,-1e-6 -0.0625,-0.0625 -0.0625,-0.0625 -10e-7,-1e-6 -0.0625,-0.0625 -0.0625,-0.0625 -10e-7,-1e-6 -0.09375,-0.0625 -0.09375,-0.0625 -10e-7,-1e-6 -0.0625,-0.0625 -0.0625,-0.0625 -10e-7,-1e-6 -0.09375,-0.0625 -0.09375,-0.0625 -10e-7,-1e-6 -0.0625,-0.03125 -0.0625,-0.03125 -10e-7,-1e-6 -0.09375,-0.0625 -0.09375,-0.0625 -10e-7,-1e-6 -0.09375,-0.03125 -0.09375,-0.03125 -10e-7,-1e-6 -0.0625,-0.03125 -0.0625,-0.03125 -10e-7,-1e-6 -0.09375,-0.03125 -0.09375,-0.03125 -10e-7,-1e-6 -0.09375,-0.03125 -0.09375,-0.03125 -2e-6,0 -0.09375,-0.03125 -0.09375,-0.03125 -2e-6,0 -0.09375,-0.03125 -0.09375,-0.03125 -2e-6,0 -0.09375,0 -0.09375,0 -2e-6,0 -0.09375,-0.03125 -0.09375,-0.03125 -2e-6,0 -0.09375,0 -0.09375,0 -2e-6,0 -0.09375,0 -0.09375,0 l -1.96875,0 c -10e-7,0 -0.01925,0 -0.03125,0 -0.024,0 -0.0265,0 -0.0625,0 -10e-7,0 -0.0265,0 -0.0625,0 -0.054,0 -0.09375,0 -0.09375,0 a 0.96731774,0.96731774 0 0 0 -0.125,0 z M 39.5,35 c 1.754868,0 3.117083,1.108378 4.25,3.09375 1.122771,1.967591 1.750005,4.688208 1.75,6.5625 l 0,0.09375 0,0.03125 c -0.0056,0.03509 0,0.09375 0,0.09375 0,2e-6 -0.03125,0.124998 -0.03125,0.125 0,2e-6 0,0.124998 0,0.125 l 0,0.125 c -0.0021,0.0091 0,0.03125 0,0.03125 l 0,0.09375 0,0.03125 c -0.0011,0.0093 0.0015,0.01835 0,0.03125 -0.0033,0.02902 -0.03125,0.0625 -0.03125,0.0625 -0.0065,0.02889 0,0.0625 0,0.0625 -9.19e-4,0.01637 0,0.03125 0,0.03125 a 0.96731774,0.96731774 0 0 0 0,0.03125 c -0.0025,0.01559 0.0019,0.01955 0,0.03125 -0.0019,0.0117 0,0.03125 0,0.03125 0,2e-6 -0.03125,0.124998 -0.03125,0.125 a 0.96731774,0.96731774 0 0 0 0,0.0625 c -8.34e-4,0.03156 0,0.0625 0,0.0625 a 0.96731774,0.96731774 0 0 0 -0.03125,0.125 0.96731774,0.96731774 0 0 0 0,0.03125 l 0,0.0625 c 0,0.03125 0,0.0625 0,0.0625 l -0.03125,0.09375 -0.0625,0.15625 -0.0625,0.15625 a 0.96731774,0.96731774 0 0 0 -0.03125,0.0625 c 0,10e-7 0.0069,0.03429 0,0.0625 l -0.03125,0.03125 a 0.96731774,0.96731774 0 0 0 -0.03125,0.0625 c -10e-7,3e-6 -0.0625,0.156247 -0.0625,0.15625 -10e-7,2e-6 -0.01541,0.04854 -0.03125,0.09375 C 45.020071,47.125661 45,47.156249 45,47.15625 L 44.9375,47.25 44.84375,47.40625 a 0.96731774,0.96731774 0 0 0 0,0.03125 0.96731774,0.96731774 0 0 0 -0.03125,0.03125 l -0.03125,0.0625 A 0.96731774,0.96731774 0 0 0 44.75,47.59375 c -0.0045,0.0042 0,0.03125 0,0.03125 l -0.03125,0.03125 A 0.96731774,0.96731774 0 0 0 44.6875,47.6875 l -0.03125,0.03125 a 0.96731774,0.96731774 0 0 0 -0.0625,0.0625 c -10e-7,10e-7 -0.03268,0.02982 -0.0625,0.0625 a 0.96731774,0.96731774 0 0 0 0,0.03125 l -0.0625,0.03125 c -0.548354,0.547414 -1.978681,1.1875 -2.90625,1.1875 -1.888551,0 -3.188259,-1.104021 -4.28125,-3.03125 -1.080436,-1.90509 -1.65625,-4.526998 -1.65625,-6.25 0,-1.372578 0.289999,-2.629255 0.96875,-3.46875 C 37.148571,35.650304 38.550355,35 39.5,35 z m 3.0625,28.125 0.0625,0 0.0625,0 0.0625,0 0.0625,0 0.03125,0 0.0625,0 0.03125,0 0.0625,0 0.0625,0 0.03125,0 0.09375,0 0.09375,0 c 0.01455,0.0035 0.01714,-0.0034 0.03125,0 0.01411,0.0034 0.02199,-0.0023 0.03125,0 2.067582,1.484272 3.651283,2.743355 4.46875,3.65625 0.921059,1.02858 1.156248,1.5662 1.15625,2.78125 0,1.435705 -0.485441,2.433238 -1.625,3.3125 -1.122281,0.865931 -3.00128,1.53125 -5.71875,1.53125 -3.058575,0 -5.436734,-0.748909 -6.9375,-1.8125 C 33.170463,71.518628 32.5,70.285194 32.5,68.65625 c 0,-1.675278 0.618271,-2.505248 1.5,-3.25 0.845843,-0.714441 1.917836,-1.16035 2.59375,-1.40625 0.0063,-0.0023 0.02501,0.0023 0.03125,0 2.207943,-0.730012 5.706266,-0.875 5.9375,-0.875 z"
       transform="translate(0,-2)"
       id="path3977"
       style="font-style:normal;font-variant:normal;font-weight:normal;font-stretch:normal;letter-spacing:normal;word-spacing:normal;text-anchor:start;opacity:0.05;fill:#000000;fill-opacity:1;fill-rule:nonzero;stroke:#0099ff;stroke-width:0;stroke-linecap:butt;stroke-linejoin:miter;stroke-miterlimit:10.43299961;stroke-opacity:1;stroke-dasharray:none;stroke-dashoffset:0;display:inline" />
    <path
       d="m 43.4375,30.03125 c -3.496553,0 -8.037229,0.52234 -11.875,3.6875 a 0.96731774,0.96731774 0 0 0 0,0.03125 c -2.922426,2.514775 -4.375006,5.964932 -4.375,9.15625 0,5.409841 4.281369,10.843761 11.4375,10.84375 0.248838,0 0.500604,-0.01723 0.75,-0.03125 -0.134649,0.458936 -0.343747,0.78471 -0.34375,1.40625 0,1.497889 0.551358,2.568998 1.15625,3.5 -2.996307,0.223068 -7.238919,0.665392 -10.84375,2.875 l 0,-0.03125 c -4.000399,2.371808 -5.3125,5.943744 -5.3125,8.53125 0,2.634955 1.264905,5.205631 3.71875,7.03125 2.453845,1.825619 6.060967,2.937495 10.78125,2.9375 11.191999,0 17.5625,-6.32651 17.5625,-12.875 0,-2.361614 -0.735139,-4.216845 -1.8125,-5.71875 -1.077361,-1.501905 -2.458384,-2.678964 -3.84375,-3.84375 a 0.96731774,0.96731774 0 0 0 -0.03125,0 L 48.1875,55.75 c -0.0066,-0.0054 -0.02467,0.0054 -0.03125,0 -0.707944,-0.579532 -1.281247,-1.009004 -1.28125,-1.9375 0,-0.937764 0.661733,-1.565621 1.5,-2.40625 2.640617,-2.07843 5.5625,-4.652689 5.5625,-9.625 l 0,-0.46875 a 0.96731774,0.96731774 0 0 0 0,-0.0625 L 53.90625,40.84375 53.875,40.40625 a 0.96731774,0.96731774 0 0 0 0,-0.09375 L 53.8125,39.90625 A 0.96731774,0.96731774 0 0 0 53.78125,39.8125 L 53.71875,39.53125 53.6875,39.4375 53.65625,39.15625 A 0.96731774,0.96731774 0 0 0 53.625,39.0625 l -0.09375,-0.375 A 0.96731774,0.96731774 0 0 0 53.5,38.59375 L 53.375,38.25 53.25,37.90625 53.125,37.5625 53,37.25 A 0.96731774,0.96731774 0 0 0 52.96875,37.15625 L 52.8125,36.84375 A 0.96731774,0.96731774 0 0 0 52.78125,36.8125 L 52.625,36.53125 52.46875,36.25 A 0.96731774,0.96731774 0 0 0 52.4375,36.1875 L 52.28125,35.96875 52.25,35.90625 52.125,35.6875 a 0.96731774,0.96731774 0 0 0 -0.0625,-0.125 l -0.1875,-0.25 -0.1875,-0.21875 0,-0.03125 -0.15625,-0.1875 a 0.96731774,0.96731774 0 0 0 -0.0625,-0.0625 L 51.28125,34.59375 51.09375,34.375 A 0.96731774,0.96731774 0 0 0 51.0625,34.3125 l -0.09375,-0.09375 1.4375,0 a 0.96731774,0.96731774 0 0 0 0.46875,-0.125 l 4.03125,-2.25 a 0.96731774,0.96731774 0 0 0 -0.46875,-1.8125 l -13,0 z m 22.46875,0 A 0.96731774,0.96731774 0 0 0 65.03125,31 l 0,7.03125 -7.03125,0 A 0.96731774,0.96731774 0 0 0 57.03125,39 l 0,2 A 0.96731774,0.96731774 0 0 0 58,41.96875 l 7.03125,0 0,7.03125 A 0.96731774,0.96731774 0 0 0 66,49.96875 l 2,0 A 0.96731774,0.96731774 0 0 0 68.96875,49 l 0,-7.03125 7.03125,0 A 0.96731774,0.96731774 0 0 0 76.96875,41 l 0,-2 A 0.96731774,0.96731774 0 0 0 76,38.03125 l -7.03125,0 0,-7.03125 A 0.96731774,0.96731774 0 0 0 68,30.03125 l -2,0 a 0.96731774,0.96731774 0 0 0 -0.09375,0 z m -26.40625,4 c 2.180481,0 3.864316,1.439238 5.09375,3.59375 1.229434,2.154512 1.875005,4.956334 1.875,7.03125 l 0,0.125 0,0.09375 a 0.96731774,0.96731774 0 0 0 -0.03125,0.25 l 0,0.125 0,0.125 0,0.03125 a 0.96731774,0.96731774 0 0 0 -0.03125,0.21875 0.96731774,0.96731774 0 0 0 0,0.03125 l 0,0.03125 a 0.96731774,0.96731774 0 0 0 -0.03125,0.25 l 0,0.0625 0,0.0625 -0.03125,0.0625 a 0.96731774,0.96731774 0 0 0 0,0.0625 L 46.3125,46.34375 46.28125,46.5 46.25,46.65625 46.1875,46.8125 46.125,46.96875 A 0.96731774,0.96731774 0 0 0 46.09375,47.125 L 46,47.28125 a 0.96731774,0.96731774 0 0 0 -0.0625,0.15625 l -0.0625,0.15625 -0.09375,0.15625 -0.09375,0.15625 -0.03125,0.0625 -0.0625,0.09375 0,0.03125 -0.125,0.15625 A 0.96731774,0.96731774 0 0 0 45.375,48.34375 l 0,0.03125 -0.03125,0.03125 a 0.96731774,0.96731774 0 0 0 -0.125,0.125 l -0.0625,0.0625 c -0.793278,0.791919 -2.322794,1.46875 -3.59375,1.46875 -2.292448,0 -3.936683,-1.435937 -5.125,-3.53125 -1.188317,-2.095313 -1.78125,-4.796817 -1.78125,-6.71875 0,-1.505355 0.309976,-2.977157 1.1875,-4.0625 0.795446,-0.994194 2.349165,-1.71875 3.65625,-1.71875 z m 3.0625,28.125 0.0625,0 0.0625,0 0.0625,0 0.0625,0 0.03125,0 0.0625,0 0.03125,0 0.0625,0 0.0625,0 0.03125,0 0.09375,0 0.09375,0 0.0625,0 0.09375,0 a 0.96731774,0.96731774 0 0 0 0.0625,0 0.96731774,0.96731774 0 0 0 0.15625,0.03125 c 0.0087,0.0062 0.02256,-0.0062 0.03125,0 2.232083,1.592169 3.875381,2.856087 4.84375,3.9375 1.009998,1.127901 1.406248,2.039663 1.40625,3.4375 0,1.686116 -0.654796,3.055816 -2,4.09375 -1.345204,1.037934 -3.44209,1.71875 -6.3125,1.71875 -3.216216,0 -5.787404,-0.786286 -7.5,-2 -1.712596,-1.213714 -2.59375,-2.794528 -2.59375,-4.71875 0,-1.947634 0.82264,-3.13752 1.84375,-4 1.012643,-0.855329 2.215977,-1.312025 2.90625,-1.5625 0.0094,-0.0031 0.02179,0.0031 0.03125,0 2.431814,-0.80403 5.819057,-0.9375 6.25,-0.9375 z"
       transform="translate(0,-2)"
       id="path3973"
       style="font-style:normal;font-variant:normal;font-weight:normal;font-stretch:normal;letter-spacing:normal;word-spacing:normal;text-anchor:start;opacity:0.15;fill:#000000;fill-opacity:1;fill-rule:nonzero;stroke:#0099ff;stroke-width:0;stroke-linecap:butt;stroke-linejoin:miter;stroke-miterlimit:10.43299961;stroke-opacity:1;stroke-dasharray:none;stroke-dashoffset:0;display:inline" />
    <path
       d="m 43.4375,29 c -3.400216,0 -7.660082,0.508004 -11.25,3.46875 -2.707528,2.329853 -4.031255,5.540854 -4.03125,8.4375 0,4.912071 3.791914,9.87501 10.46875,9.875 0.629457,0 1.307313,-0.06439 2,-0.125 -0.316164,0.755635 -0.624995,1.398734 -0.625,2.46875 0,1.951325 0.992606,3.147278 1.875,4.28125 -2.833995,0.189753 -8.12804,0.513748 -12.03125,2.90625 C 26.124494,62.51762 25,65.732231 25,68 c 0,4.661722 4.396932,8.99999 13.53125,9 10.835861,0 16.59375,-5.984759 16.59375,-11.90625 0,-4.346122 -2.541741,-6.482906 -5.3125,-8.8125 L 47.5625,54.5 c -0.692688,-0.568128 -1.656245,-1.301951 -1.65625,-2.6875 0,-1.386528 0.964967,-2.275167 1.78125,-3.09375 2.647168,-2.078064 5.28125,-4.275779 5.28125,-8.9375 l 0,-0.46875 -0.03125,-0.40625 -0.03125,-0.4375 -0.0625,-0.40625 -0.09375,-0.375 -0.0625,-0.375 -0.09375,-0.375 -0.125,-0.34375 -0.125,-0.34375 -0.125,-0.34375 -0.125,-0.3125 L 51.9375,35.28125 51.78125,35 51.625,34.71875 51.4375,34.4375 l -0.15625,-0.28125 -0.1875,-0.25 -0.1875,-0.25 L 50.75,33.4375 50.5625,33.21875 50.375,33 50.1875,32.8125 50,32.59375 49.8125,32.40625 49.625,32.25 49.4375,32.09375 49.28125,31.9375 49.09375,31.78125 48.9375,31.625 48.78125,31.5 48.65625,31.375 48.5,31.25 l 3.90625,0 4.03125,-2.25 -13,0 z M 66,29 l 0,8 -8,0 0,2 8,0 0,8 2,0 0,-8 8,0 0,-2 -8,0 0,-8 -2,0 z m -26.5,2.0625 c 5.231102,0 7.93751,7.059075 7.9375,11.59375 l 0,0.125 0,0.09375 0,0.125 -0.03125,0.125 0,0.125 0,0.125 0,0.15625 -0.03125,0.125 0,0.15625 -0.03125,0.125 0,0.15625 L 47.3125,44.25 47.28125,44.375 47.25,44.53125 47.21875,44.6875 47.1875,44.84375 47.15625,45 47.09375,45.15625 47.03125,45.3125 47,45.46875 46.9375,45.625 l -0.09375,0.15625 -0.0625,0.15625 -0.0625,0.15625 -0.09375,0.15625 -0.09375,0.15625 -0.09375,0.15625 -0.09375,0.125 -0.125,0.15625 L 46.125,47 l -0.15625,0.125 -0.125,0.15625 c -1.008855,1.007126 -2.706172,1.75 -4.28125,1.75 -5.417928,0 -7.875,-6.999387 -7.875,-11.21875 0,-1.638029 0.337034,-3.333817 1.40625,-4.65625 C 36.102607,31.895323 37.864554,31.0625 39.5,31.0625 z m 3.0625,28.125 0.0625,0 0.0625,0 0.0625,0 0.0625,0 0.03125,0 0.0625,0 0.03125,0 0.0625,0 0.0625,0 0.03125,0 0.09375,0 0.09375,0 0.0625,0 0.09375,0 0.0625,0 0.09375,0 0.09375,0 0.0625,0.03125 0.09375,0 0.09375,0 0.03125,0 0.0625,0.03125 c 4.788471,3.403095 6.874995,5.098247 6.875,8.3125 0,3.906077 -3.23386,6.78125 -9.28125,6.78125 -6.740081,0 -11.0625,-3.215772 -11.0625,-7.6875 0,-4.47432 4.018,-5.965758 5.40625,-6.46875 2.644298,-0.882682 6.027529,-1 6.59375,-1 z"
       inkscape:connector-curvature="0"
       id="path3969"
       style="font-style:normal;font-variant:normal;font-weight:normal;font-stretch:normal;letter-spacing:normal;word-spacing:normal;text-anchor:start;opacity:0.3;fill:#000000;fill-opacity:1;fill-rule:nonzero;stroke:#0099ff;stroke-width:0;stroke-linecap:butt;stroke-linejoin:miter;stroke-miterlimit:10.43299961;stroke-opacity:1;stroke-dasharray:none;stroke-dashoffset:0;display:inline" />
    <path
       d="m 43.4375,28 c -3.400216,0 -7.660082,0.508004 -11.25,3.46875 -2.707528,2.329853 -4.031255,5.540854 -4.03125,8.4375 0,4.912071 3.791914,9.87501 10.46875,9.875 0.629457,0 1.307313,-0.06439 2,-0.125 -0.316164,0.755635 -0.624995,1.398734 -0.625,2.46875 0,1.951325 0.992606,3.147278 1.875,4.28125 -2.833995,0.189753 -8.12804,0.513748 -12.03125,2.90625 C 26.124494,61.51762 25,64.732231 25,67 c 0,4.661722 4.396932,8.99999 13.53125,9 10.835861,0 16.59375,-5.984759 16.59375,-11.90625 0,-4.346122 -2.541741,-6.482906 -5.3125,-8.8125 L 47.5625,53.5 c -0.692688,-0.568128 -1.656245,-1.301951 -1.65625,-2.6875 0,-1.386528 0.964967,-2.275167 1.78125,-3.09375 2.647168,-2.078064 5.28125,-4.275779 5.28125,-8.9375 l 0,-0.46875 -0.03125,-0.40625 -0.03125,-0.4375 -0.0625,-0.40625 -0.09375,-0.375 -0.0625,-0.375 -0.09375,-0.375 -0.125,-0.34375 -0.125,-0.34375 -0.125,-0.34375 -0.125,-0.3125 L 51.9375,34.28125 51.78125,34 51.625,33.71875 51.4375,33.4375 l -0.15625,-0.28125 -0.1875,-0.25 -0.1875,-0.25 L 50.75,32.4375 50.5625,32.21875 50.375,32 50.1875,31.8125 50,31.59375 49.8125,31.40625 49.625,31.25 49.4375,31.09375 49.28125,30.9375 49.09375,30.78125 48.9375,30.625 48.78125,30.5 48.65625,30.375 48.5,30.25 l 3.90625,0 4.03125,-2.25 -13,0 z M 66,28 l 0,8 -8,0 0,2 8,0 0,8 2,0 0,-8 8,0 0,-2 -8,0 0,-8 -2,0 z m -26.5,2.0625 c 5.231102,0 7.93751,7.059075 7.9375,11.59375 l 0,0.125 0,0.09375 0,0.125 -0.03125,0.125 0,0.125 0,0.125 0,0.15625 -0.03125,0.125 0,0.15625 -0.03125,0.125 0,0.15625 L 47.3125,43.25 47.28125,43.375 47.25,43.53125 47.21875,43.6875 47.1875,43.84375 47.15625,44 47.09375,44.15625 47.03125,44.3125 47,44.46875 46.9375,44.625 l -0.09375,0.15625 -0.0625,0.15625 -0.0625,0.15625 -0.09375,0.15625 -0.09375,0.15625 -0.09375,0.15625 -0.09375,0.125 -0.125,0.15625 L 46.125,46 l -0.15625,0.125 -0.125,0.15625 c -1.008855,1.007126 -2.706172,1.75 -4.28125,1.75 -5.417928,0 -7.875,-6.999387 -7.875,-11.21875 0,-1.638029 0.337034,-3.333817 1.40625,-4.65625 C 36.102607,30.895323 37.864554,30.0625 39.5,30.0625 z m 3.0625,28.125 0.0625,0 0.0625,0 0.0625,0 0.0625,0 0.03125,0 0.0625,0 0.03125,0 0.0625,0 0.0625,0 0.03125,0 0.09375,0 0.09375,0 0.0625,0 0.09375,0 0.0625,0 0.09375,0 0.09375,0 0.0625,0.03125 0.09375,0 0.09375,0 0.03125,0 0.0625,0.03125 c 4.788471,3.403095 6.874995,5.098247 6.875,8.3125 0,3.906077 -3.23386,6.78125 -9.28125,6.78125 -6.740081,0 -11.0625,-3.215772 -11.0625,-7.6875 0,-4.47432 4.018,-5.965758 5.40625,-6.46875 2.644298,-0.882682 6.027529,-1 6.59375,-1 z"
       inkscape:connector-curvature="0"
       id="path208"
       style="font-style:normal;font-variant:normal;font-weight:normal;font-stretch:normal;letter-spacing:normal;word-spacing:normal;text-anchor:start;fill:#ffffff;fill-opacity:1;fill-rule:nonzero;stroke:#0099ff;stroke-width:0;stroke-linecap:butt;stroke-linejoin:miter;stroke-miterlimit:10.43299961;stroke-opacity:1;stroke-dasharray:none;stroke-dashoffset:0;display:inline" />
  </g>
</svg>
