<?xml version="1.0" encoding="UTF-8" standalone="no"?>
<!-- Created with Inkscape (http://www.inkscape.org/) -->

<svg
   xmlns:dc="http://purl.org/dc/elements/1.1/"
   xmlns:cc="http://creativecommons.org/ns#"
   xmlns:rdf="http://www.w3.org/1999/02/22-rdf-syntax-ns#"
   xmlns:svg="http://www.w3.org/2000/svg"
   xmlns="http://www.w3.org/2000/svg"
   xmlns:xlink="http://www.w3.org/1999/xlink"
   xmlns:inkscape="http://www.inkscape.org/namespaces/inkscape"
   version="1.0"
   width="96"
   height="96"
   id="svg2408">
  <defs
     id="defs2410">
    <linearGradient
       id="linearGradient4384">
      <stop
         id="stop4386"
         style="stop-color:#ffffff;stop-opacity:1"
         offset="0" />
      <stop
         id="stop4388"
         style="stop-color:#ffffff;stop-opacity:0"
         offset="1" />
    </linearGradient>
    <linearGradient
       id="linearGradient4367">
      <stop
         id="stop4369"
         style="stop-color:#ffffff;stop-opacity:0.71755725"
         offset="0" />
      <stop
         id="stop4371"
         style="stop-color:#ffffff;stop-opacity:1"
         offset="1" />
    </linearGradient>
    <linearGradient
       x1="45.447727"
       y1="92.539597"
       x2="45.447727"
       y2="7.0165396"
       id="ButtonShadow"
       gradientUnits="userSpaceOnUse"
       gradientTransform="scale(1.0058652,0.994169)">
      <stop
         id="stop3750"
         style="stop-color:#000000;stop-opacity:1"
         offset="0" />
      <stop
         id="stop3752"
         style="stop-color:#000000;stop-opacity:0.58823532"
         offset="1" />
    </linearGradient>
    <linearGradient
       id="linearGradient3737">
      <stop
         id="stop3739"
         style="stop-color:#ffffff;stop-opacity:1"
         offset="0" />
      <stop
         id="stop3741"
         style="stop-color:#ffffff;stop-opacity:0"
         offset="1" />
    </linearGradient>
    <filter
       color-interpolation-filters="sRGB"
       id="filter3174">
      <feGaussianBlur
         id="feGaussianBlur3176"
         stdDeviation="1.71" />
    </filter>
    <filter
       x="-0.192"
       y="-0.192"
       width="1.3839999"
       height="1.3839999"
       color-interpolation-filters="sRGB"
       id="filter3794">
      <feGaussianBlur
         id="feGaussianBlur3796"
         stdDeviation="5.28" />
    </filter>
    <linearGradient
       x1="48"
       y1="20.220806"
       x2="48"
       y2="138.66119"
       id="linearGradient3613"
       xlink:href="#linearGradient3737"
       gradientUnits="userSpaceOnUse" />
    <linearGradient
       x1="45.447727"
       y1="92.539597"
       x2="45.447727"
       y2="7.0165396"
       id="ButtonShadow-0"
       gradientUnits="userSpaceOnUse"
       gradientTransform="matrix(1.0058652,0,0,0.994169,100,0)">
      <stop
         id="stop3750-8"
         style="stop-color:#000000;stop-opacity:1"
         offset="0" />
      <stop
         id="stop3752-5"
         style="stop-color:#000000;stop-opacity:0.58823532"
         offset="1" />
    </linearGradient>
    <linearGradient
       x1="32.251034"
       y1="6.1317081"
       x2="32.251034"
       y2="90.238609"
       id="linearGradient3780"
       xlink:href="#ButtonShadow-0"
       gradientUnits="userSpaceOnUse"
       gradientTransform="matrix(1.0238095,0,0,1.0119048,-1.1428571,-98.071429)" />
    <linearGradient
       x1="32.251034"
       y1="6.1317081"
       x2="32.251034"
       y2="90.238609"
       id="linearGradient3772"
       xlink:href="#ButtonShadow-0"
       gradientUnits="userSpaceOnUse"
       gradientTransform="matrix(1.0238095,0,0,1.0119048,-1.1428571,-98.071429)" />
    <linearGradient
       x1="32.251034"
       y1="6.1317081"
       x2="32.251034"
       y2="90.238609"
       id="linearGradient3725"
       xlink:href="#ButtonShadow-0"
       gradientUnits="userSpaceOnUse"
       gradientTransform="matrix(1.0238095,0,0,1.0119048,-1.1428571,-98.071429)" />
    <linearGradient
       x1="32.251034"
       y1="6.1317081"
       x2="32.251034"
       y2="90.238609"
       id="linearGradient3721"
       xlink:href="#ButtonShadow-0"
       gradientUnits="userSpaceOnUse"
       gradientTransform="translate(0,-97)" />
    <linearGradient
       x1="32.251034"
       y1="6.1317081"
       x2="32.251034"
       y2="90.238609"
       id="linearGradient3026"
       xlink:href="#ButtonShadow-0"
       gradientUnits="userSpaceOnUse"
       gradientTransform="matrix(1.0238095,0,0,1.0119048,-1.1428571,-98.071429)" />
    <clipPath
       id="clipPath4355">
      <rect
         width="84"
         height="80"
         rx="6"
         ry="6"
         x="6"
         y="6"
         id="rect4357"
         style="fill:#ffffff;fill-opacity:1;fill-rule:nonzero;stroke:none" />
    </clipPath>
    <radialGradient
       cx="48"
       cy="87.792389"
       r="42"
       fx="48"
       fy="87.792389"
       id="radialGradient4375"
       xlink:href="#linearGradient4367"
       gradientUnits="userSpaceOnUse"
       gradientTransform="matrix(1,-6.7114942e-8,8.4282233e-8,1.2557894,109.99999,-24.505592)" />
    <linearGradient
       x1="48"
       y1="88"
       x2="48"
       y2="-40"
       id="linearGradient4390"
       xlink:href="#linearGradient4384"
       gradientUnits="userSpaceOnUse"
       gradientTransform="matrix(1,0,0,-1,0,92)" />
    <linearGradient
       x1="48"
       y1="82"
       x2="112.12357"
       y2="82.454597"
       id="linearGradient4429"
       xlink:href="#linearGradient4384"
       gradientUnits="userSpaceOnUse"
       spreadMethod="reflect" />
    <linearGradient
       id="linearGradient3843">
      <stop
         id="stop3845"
         style="stop-color:#523823;stop-opacity:1"
         offset="0" />
      <stop
         id="stop3847"
         style="stop-color:#79563a;stop-opacity:1"
         offset="0.11780351" />
      <stop
         id="stop3849"
         style="stop-color:#875c38;stop-opacity:1"
         offset="0.23809524" />
      <stop
         id="stop3851"
         style="stop-color:#a66e40;stop-opacity:1"
         offset="1" />
    </linearGradient>
    <linearGradient
       x1="8"
       y1="1033.3622"
       x2="50"
       y2="1033.3622"
       id="linearGradient3870"
       xlink:href="#linearGradient3843"
       gradientUnits="userSpaceOnUse"
       gradientTransform="translate(-2,-956.3622)"
       spreadMethod="reflect" />
    <linearGradient
       x1="53.194679"
       y1="89.16983"
       x2="53.194679"
       y2="8.3280878"
       id="linearGradient3156"
       xlink:href="#linearGradient4146-2-3"
       gradientUnits="userSpaceOnUse"
       gradientTransform="translate(0,-92)" />
    <linearGradient
       id="linearGradient4146-2-3">
      <stop
         id="stop4148-2-7"
         style="stop-color:#3abef0;stop-opacity:1"
         offset="0" />
      <stop
         id="stop4150-8-4"
         style="stop-color:#0f96c9;stop-opacity:1"
         offset="1" />
    </linearGradient>
  </defs>
  <metadata
     id="metadata2413">
    <rdf:RDF>
      <cc:Work
         rdf:about="">
        <dc:format>image/svg+xml</dc:format>
        <dc:type
           rdf:resource="http://purl.org/dc/dcmitype/StillImage" />
        <dc:title />
      </cc:Work>
    </rdf:RDF>
  </metadata>
  <g
     id="layer2"
     style="display:none">
    <rect
       width="86"
       height="85"
       rx="6"
       ry="6"
       x="5"
       y="7"
       id="rect3745"
       style="opacity:0.9;fill:url(#ButtonShadow);fill-opacity:1;fill-rule:nonzero;stroke:none;filter:url(#filter3174)" />
  </g>
  <g
     id="layer3"
     style="display:inline">
    <path
       d="m 12,-95.03125 c -5.5110903,0 -10.03125,4.52016 -10.03125,10.03125 l 0,71 c 0,5.5110902 4.5201598,10.03125 10.03125,10.03125 l 72,0 c 5.51109,0 10.03125,-4.5201597 10.03125,-10.03125 l 0,-71 c 0,-5.51109 -4.52016,-10.03125 -10.03125,-10.03125 l -72,0 z"
       transform="scale(1,-1)"
       id="path3786"
       style="opacity:0.07999998;fill:url(#linearGradient3026);fill-opacity:1;fill-rule:nonzero;stroke:none;display:inline" />
    <path
       d="m 12,-94.03125 c -4.971633,0 -9.03125,4.059617 -9.03125,9.03125 l 0,71 c 0,4.9716329 4.0596171,9.03125 9.03125,9.03125 l 72,0 c 4.971633,0 9.03125,-4.059617 9.03125,-9.03125 l 0,-71 c 0,-4.971633 -4.059617,-9.03125 -9.03125,-9.03125 l -72,0 z"
       transform="scale(1,-1)"
       id="path3778"
       style="opacity:0.1;fill:url(#linearGradient3780);fill-opacity:1;fill-rule:nonzero;stroke:none;display:inline" />
    <path
       d="m 12,-93 c -4.4091333,0 -8,3.590867 -8,8 l 0,71 c 0,4.4091333 3.5908667,8 8,8 l 72,0 c 4.409133,0 8,-3.5908667 8,-8 l 0,-71 c 0,-4.409133 -3.590867,-8 -8,-8 l -72,0 z"
       transform="scale(1,-1)"
       id="path3770"
       style="opacity:0.2;fill:url(#linearGradient3772);fill-opacity:1;fill-rule:nonzero;stroke:none;display:inline" />
    <rect
       width="86"
       height="85"
       rx="7"
       ry="7"
       x="5"
       y="-92"
       transform="scale(1,-1)"
       id="rect3723"
       style="opacity:0.3;fill:url(#linearGradient3725);fill-opacity:1;fill-rule:nonzero;stroke:none;display:inline" />
    <rect
       width="84"
       height="84"
       rx="6"
       ry="6"
       x="6"
       y="-91"
       transform="scale(1,-1)"
       id="rect3716"
       style="opacity:0.45;fill:url(#linearGradient3721);fill-opacity:1;fill-rule:nonzero;stroke:none;display:inline" />
  </g>
  <g
     id="layer4">
    <rect
       width="84"
       height="26.000017"
       rx="6"
       ry="6"
       x="6"
       y="64"
       id="rect2841"
       style="color:#000000;fill:url(#linearGradient3870);fill-opacity:1;fill-rule:nonzero;stroke:none;stroke-width:1.5;marker:none;visibility:visible;display:inline;overflow:visible;enable-background:accumulate" />
    <path
       d="m 6,82 0,2 c 0,3.324 2.676,6 6,6 l 72,0 c 3.324,0 6,-2.676 6,-6 l 0,-2 c 0,3.324 -2.676,6 -6,6 L 12,88 C 8.676,88 6,85.324 6,82 z"
       inkscape:connector-curvature="0"
       id="rect4345"
       style="opacity:0.1;color:#000000;fill:#000000;fill-opacity:1;fill-rule:nonzero;stroke:none;stroke-width:1.5;marker:none;visibility:visible;display:inline;overflow:visible;enable-background:accumulate" />
    <path
       d="m 6,83 0,1 c 0,3.324 2.676,6 6,6 l 72,0 c 3.324,0 6,-2.676 6,-6 l 0,-1 c 0,3.324 -2.676,6 -6,6 L 12,89 C 8.676,89 6,86.324 6,83 z"
       inkscape:connector-curvature="0"
       id="rect4336"
       style="opacity:0.1;color:#000000;fill:#000000;fill-opacity:1;fill-rule:nonzero;stroke:none;stroke-width:1.5;marker:none;visibility:visible;display:inline;overflow:visible;enable-background:accumulate" />
    <path
       d="m 6,80 0,1 c 0,3.324 2.676,6 6,6 l 72,0 c 3.324,0 6,-2.676 6,-6 l 0,-1 c 0,3.324 -2.676,6 -6,6 L 12,86 C 8.676,86 6,83.324 6,80 z"
       inkscape:connector-curvature="0"
       id="path4412"
       style="opacity:0.2;fill:#000000;fill-opacity:1;fill-rule:nonzero;stroke:none" />
  </g>
  <g
     id="layer1">
    <rect
       width="84"
       height="80"
       rx="6"
       ry="6"
       x="6"
       y="-86"
       transform="scale(1,-1)"
       id="rect2419-8"
       style="fill:url(#linearGradient3156);fill-opacity:1;fill-rule:nonzero;stroke:none;display:inline" />
    <path
       d="M 120.78125,6.125 C 118.04223,6.6826484 116,9.0915 116,12 l 0,68 c 0,3.324 2.676,6 6,6 l 72,0 c 3.324,0 6,-2.676 6,-6 l 0,-68 c 0,-2.9085 -2.04223,-5.3173516 -4.78125,-5.875 2.20512,0.5362071 3.8125,2.4908437 3.8125,4.875 l 0,68 c 0,2.80489 -2.22636,5.03125 -5.03125,5.03125 l -72,0 c -2.80489,0 -5.03125,-2.22636 -5.03125,-5.03125 l 0,-68 c 0,-2.3841563 1.60738,-4.3387929 3.8125,-4.875 z"
       inkscape:connector-curvature="0"
       id="rect4359"
       style="opacity:0.2;fill:url(#radialGradient4375);fill-opacity:1;fill-rule:nonzero;stroke:none" />
    <path
       d="M 12,86 C 8.676,86 6,83.324 6,80 L 6,12 C 6,8.676 8.676,6 12,6 l 72,0 c 3.324,0 6,2.676 6,6 l 0,68 c 0,3.324 -2.676,6 -6,6 z m 0,-0.96875 72,0 c 2.80489,0 5.03125,-2.22636 5.03125,-5.03125 l 0,-68 C 89.03125,9.19511 86.80489,6.96875 84,6.96875 l -72,0 C 9.1951102,6.96875 6.96875,9.19511 6.96875,12 l 0,68 c 0,2.80489 2.2263602,5.03125 5.03125,5.03125 z"
       inkscape:connector-curvature="0"
       id="rect4377"
       style="opacity:0.35;fill:url(#linearGradient4390);fill-opacity:1;fill-rule:nonzero;stroke:none" />
    <path
       d="m 6,78 0,2 c 0,3.324 2.676,6 6,6 l 72,0 c 3.324,0 6,-2.676 6,-6 l 0,-2 c 0,3.324 -2.676,6 -6,6 L 12,84 C 8.676,84 6,81.324 6,78 z"
       inkscape:connector-curvature="0"
       id="rect4414"
       style="opacity:0.15;fill:url(#linearGradient4429);fill-opacity:1;fill-rule:nonzero;stroke:none" />
  </g>
  <g
     id="layer5"
     style="display:inline">
    <rect
       width="66"
       height="62"
       rx="12"
       ry="12"
       x="15"
       y="15"
       clip-path="url(#clipPath4355)"
       id="rect3171"
       style="opacity:0.1;fill:url(#linearGradient3613);fill-opacity:1;fill-rule:nonzero;stroke:#ffffff;stroke-width:0.5;stroke-linecap:round;stroke-linejoin:miter;stroke-miterlimit:4;stroke-opacity:1;stroke-dasharray:none;stroke-dashoffset:0;filter:url(#filter3794)" />
  </g>
  <g
     id="layer6">
    <path
       d="m 59.65625,25.0625 c -0.885902,-0.0858 -1.776557,-0.06314 -2.625,0.03125 -1.194723,0.132917 -2.36465,0.414898 -3.46875,0.75 -4.568724,1.38656 -8.013933,6.426409 -8.03125,12.375 C 34.54372,36.881989 29.757727,31.137272 26.25,27.75 c 0.0024,0.0023 -0.09632,-0.09594 -0.09375,-0.09375 0.0026,0.0022 -0.09644,-0.06454 -0.09375,-0.0625 0.0027,0.002 -0.09655,-0.09564 -0.09375,-0.09375 0.0028,0.0019 -0.09665,-0.06422 -0.09375,-0.0625 0.0029,0.0017 -0.09675,-0.03281 -0.09375,-0.03125 0.003,0.0016 -0.128081,-0.06388 -0.125,-0.0625 0.0031,0.0014 -0.0969,-0.06371 -0.09375,-0.0625 0.0032,0.0012 -0.128218,-0.03228 -0.125,-0.03125 0.0032,0.001 -0.09702,-0.03209 -0.09375,-0.03125 0.0033,8.43e-4 -0.128313,-0.03191 -0.125,-0.03125 0.0033,6.56e-4 -0.128345,-4.67e-4 -0.125,0 0.0033,4.67e-4 -0.128366,-0.03153 -0.125,-0.03125 0.0034,2.77e-4 -0.128376,-8.6e-5 -0.125,0 0.0034,8.6e-5 -0.09713,1.06e-4 -0.09375,0 0.0034,-1.06e-4 -0.128364,2.97e-4 -0.125,0 0.0034,-2.97e-4 -0.128342,0.03174 -0.125,0.03125 0.0033,-4.87e-4 -0.128309,6.76e-4 -0.125,0 0.0033,-6.76e-4 -0.09701,0.03211 -0.09375,0.03125 0.0033,-8.63e-4 -0.128211,0.0323 -0.125,0.03125 0.0032,-0.001 -0.128147,0.06373 -0.125,0.0625 0.0031,-0.0012 -0.09682,0.03265 -0.09375,0.03125 0.0031,-0.0014 -0.127988,0.06407 -0.125,0.0625 0.003,-0.0016 -0.09664,0.06424 -0.09375,0.0625 0.0029,-0.0017 -0.09654,0.0644 -0.09375,0.0625 0.0028,-0.0019 -0.09643,0.06456 -0.09375,0.0625 0.0027,-0.0021 -0.09631,0.06471 -0.09375,0.0625 0.0026,-0.0022 -0.09618,0.0961 -0.09375,0.09375 0.0024,-0.0023 -0.09604,0.09623 -0.09375,0.09375 0.0023,-0.0025 -0.06465,0.06511 -0.0625,0.0625 0.0021,-0.0026 -0.09575,0.127725 -0.09375,0.125 0.002,-0.0027 -0.06434,0.09658 -0.0625,0.09375 0.0018,-0.0028 -0.06417,0.09668 -0.0625,0.09375 -2.100655,3.70835 -2.099876,7.54792 -1.0625,10.625 0.210952,0.625728 0.592779,1.086653 0.875,1.65625 -0.01118,0.0028 -0.03212,2.48e-4 -0.03125,0 0.0037,-0.0011 -0.128609,0.06379 -0.125,0.0625 0.0036,-0.0013 -0.128519,0.03277 -0.125,0.03125 0.0035,-0.0015 -0.128414,0.06424 -0.125,0.0625 0.0034,-0.0017 -0.128295,0.06446 -0.125,0.0625 0.0033,-0.002 -0.09691,0.09592 -0.09375,0.09375 0.0032,-0.0022 -0.128016,0.06487 -0.125,0.0625 0.003,-0.0024 -0.09661,0.09631 -0.09375,0.09375 0.0029,-0.0026 -0.09644,0.09648 -0.09375,0.09375 0.0027,-0.0027 -0.09626,0.09665 -0.09375,0.09375 0.0025,-0.0029 -0.09606,0.128056 -0.09375,0.125 0.0023,-0.0031 -0.06461,0.09695 -0.0625,0.09375 0.0021,-0.0032 -0.09565,0.128328 -0.09375,0.125 0.0019,-0.0033 -0.06418,0.128443 -0.0625,0.125 0.0017,-0.0034 -0.06396,0.09729 -0.0625,0.09375 0.0015,-0.0035 -0.03248,0.159881 -0.03125,0.15625 0.0012,-0.0036 -0.03224,0.128702 -0.03125,0.125 9.93e-4,-0.0037 -0.032,0.128758 -0.03125,0.125 7.52e-4,-0.0038 -0.03176,0.128799 -0.03125,0.125 5.09e-4,-0.0038 -2.64e-4,0.128824 0,0.125 a 1.1406851,1.1406851 0 0 0 0,0.03125 c -0.234449,3.540476 1.130404,6.588875 3.09375,8.8125 0.386091,0.437274 0.827058,0.706725 1.25,1.0625 -0.02511,0.03072 -0.06401,0.06446 -0.0625,0.0625 0.0023,-0.0029 -0.06457,0.128082 -0.0625,0.125 0.0021,-0.0031 -0.06438,0.09696 -0.0625,0.09375 0.0019,-0.0032 -0.06417,0.128316 -0.0625,0.125 0.0017,-0.0033 -0.06396,0.128414 -0.0625,0.125 0.0015,-0.0034 -0.06375,0.128499 -0.0625,0.125 0.0012,-0.0035 -0.03228,0.12857 -0.03125,0.125 0.001,-0.0036 -0.03205,0.128627 -0.03125,0.125 8.03e-4,-0.0036 -0.03183,0.12867 -0.03125,0.125 5.76e-4,-0.0037 -3.46e-4,0.128699 0,0.125 3.46e-4,-0.0037 -0.03136,0.128713 -0.03125,0.125 1.14e-4,-0.0037 1.17e-4,0.159963 0,0.15625 -1.17e-4,-0.0037 0.0316,0.128698 0.03125,0.125 -3.48e-4,-0.0037 5.78e-4,0.12867 0,0.125 -5.78e-4,-0.0037 0.03206,0.128626 0.03125,0.125 -8.06e-4,-0.0036 0.03228,0.128569 0.03125,0.125 a 1.1406851,1.1406851 0 0 0 0,0.03125 c 1.029318,3.40508 3.04678,5.741675 5.3125,7.15625 0.545037,0.340287 1.075517,0.42799 1.625,0.65625 -3.193217,1.491576 -6.741209,1.978709 -10.78125,1.78125 0.0049,3.18e-4 -0.161196,-0.03116 -0.15625,-0.03125 0.0049,-9.3e-5 -0.192421,0.03175 -0.1875,0.03125 0.0049,-5.03e-4 -0.161113,0.03216 -0.15625,0.03125 0.0049,-9.1e-4 -0.19227,0.03256 -0.1875,0.03125 0.0048,-0.0013 -0.160895,0.0642 -0.15625,0.0625 0.0046,-0.0017 -0.160738,0.06458 -0.15625,0.0625 0.0045,-0.0021 -0.16055,0.06495 -0.15625,0.0625 0.0043,-0.0024 -0.160332,0.09655 -0.15625,0.09375 0.0041,-0.0028 -0.128836,0.128124 -0.125,0.125 0.0038,-0.0031 -0.159814,0.09718 -0.15625,0.09375 0.0036,-0.0034 -0.128267,0.128715 -0.125,0.125 0.0033,-0.0037 -0.0967,0.160223 -0.09375,0.15625 0.0029,-0.004 -0.09636,0.129204 -0.09375,0.125 0.0026,-0.0042 -0.096,0.160656 -0.09375,0.15625 0.0022,-0.0044 -0.06438,0.160828 -0.0625,0.15625 0.0019,-0.0046 -0.06399,0.160967 -0.0625,0.15625 0.0015,-0.0047 -0.06359,0.192325 -0.0625,0.1875 0.0011,-0.0048 -0.03194,0.161149 -0.03125,0.15625 6.89e-4,-0.0049 -2.8e-4,0.192439 0,0.1875 2.8e-4,-0.0049 1.31e-4,0.161195 0,0.15625 -1.31e-4,-0.0049 5.41e-4,0.192417 0,0.1875 -5.41e-4,-0.0049 0.0322,0.192356 0.03125,0.1875 -9.47e-4,-0.0049 0.0326,0.16101 0.03125,0.15625 -0.0013,-0.0048 0.06424,0.160882 0.0625,0.15625 -0.0017,-0.0046 0.06461,0.160722 0.0625,0.15625 -0.0021,-0.0045 0.09623,0.160531 0.09375,0.15625 -0.0025,-0.0043 0.09658,0.160311 0.09375,0.15625 -0.0028,-0.0041 0.0969,0.160062 0.09375,0.15625 -0.0032,-0.0038 0.128458,0.128537 0.125,0.125 -0.0035,-0.0035 0.12874,0.128238 0.125,0.125 -0.0037,-0.0032 0.128996,0.09667 0.125,0.09375 -0.004,-0.0029 0.160474,0.09632 0.15625,0.09375 16.422557,10.047553 33.215715,3.998783 41.5,-4.09375 6.685284,-6.530758 9.596936,-15.933043 9.90625,-24.53125 0.695077,-0.576686 1.508946,-1.223606 2.375,-2.09375 1.0905,-1.095649 2.194649,-2.323496 2.8125,-3.8125 0.0055,-0.01337 0.02578,-0.01784 0.03125,-0.03125 0.01646,-0.04077 0.0324,-0.128174 0.03125,-0.125 -0.0015,0.0042 0.0637,-0.129285 0.0625,-0.125 -0.0012,0.0043 0.03213,-0.160613 0.03125,-0.15625 -8.77e-4,0.0044 0.0318,-0.160666 0.03125,-0.15625 -5.49e-4,0.0044 2.18e-4,-0.160695 0,-0.15625 -2.18e-4,0.0044 -1.15e-4,-0.160698 0,-0.15625 1.15e-4,0.0044 -4.47e-4,-0.160677 0,-0.15625 4.47e-4,0.0044 -0.03203,-0.160632 -0.03125,-0.15625 7.76e-4,0.0044 -0.03235,-0.160562 -0.03125,-0.15625 0.0011,0.0043 -0.03267,-0.160467 -0.03125,-0.15625 0.0014,0.0042 -0.06423,-0.16035 -0.0625,-0.15625 0.0017,0.0041 -0.06453,-0.128959 -0.0625,-0.125 0.002,0.004 -0.09607,-0.160046 -0.09375,-0.15625 0.0023,0.0038 -0.0651,-0.128612 -0.0625,-0.125 0.0026,0.0036 -0.127861,-0.128408 -0.125,-0.125 0.0029,0.0034 -0.09686,-0.128185 -0.09375,-0.125 0.0031,0.0032 -0.128337,-0.09669 -0.125,-0.09375 0.0033,0.0029 -0.0973,-0.09644 -0.09375,-0.09375 0.0035,0.0027 -0.159988,-0.09616 -0.15625,-0.09375 0.0037,0.0024 -0.128908,-0.09588 -0.125,-0.09375 0.0039,0.0021 -0.129056,-0.06433 -0.125,-0.0625 0.0041,0.0018 -0.160431,-0.06402 -0.15625,-0.0625 0.0042,0.0015 -0.160533,-0.03246 -0.15625,-0.03125 0.0043,0.0012 -0.160611,-0.06338 -0.15625,-0.0625 0.0044,8.84e-4 -0.160665,-5.56e-4 -0.15625,0 0.0044,5.56e-4 -0.160694,-0.03148 -0.15625,-0.03125 0.0018,9e-5 -0.03156,3.93e-4 -0.0625,0 0.28301,-0.611626 0.539753,-1.240313 0.625,-1.9375 0.0012,-0.01022 -0.0012,-0.02101 0,-0.03125 0.0044,-0.04059 0.03149,-0.09693 0.03125,-0.09375 -3.1e-4,0.0042 1.7e-5,-0.160427 0,-0.15625 -1.7e-5,0.0042 -2.76e-4,-0.160418 0,-0.15625 2.76e-4,0.0042 -0.03182,-0.160388 -0.03125,-0.15625 5.67e-4,0.0041 -0.03211,-0.129088 -0.03125,-0.125 8.56e-4,0.0041 -0.03239,-0.160268 -0.03125,-0.15625 0.0011,0.004 -0.03267,-0.128928 -0.03125,-0.125 0.0014,0.0039 -0.06419,-0.160069 -0.0625,-0.15625 0.0017,0.0038 -0.06445,-0.128691 -0.0625,-0.125 0.002,0.0037 -0.06471,-0.128545 -0.0625,-0.125 0.0022,0.0035 -0.0962,-0.128382 -0.09375,-0.125 0.0025,0.0034 -0.09643,-0.128202 -0.09375,-0.125 0.0027,0.0032 -0.09665,-0.09676 -0.09375,-0.09375 0.0029,0.003 -0.09685,-0.09654 -0.09375,-0.09375 0.0031,0.0028 -0.128291,-0.09632 -0.125,-0.09375 0.0033,0.0026 -0.128464,-0.09608 -0.125,-0.09375 0.0035,0.0023 -0.128619,-0.09584 -0.125,-0.09375 0.0036,0.0021 -0.128756,-0.06433 -0.125,-0.0625 0.0038,0.0018 -0.128875,-0.06406 -0.125,-0.0625 0.0039,0.0016 -0.160224,-0.03253 -0.15625,-0.03125 0.004,0.0013 -0.129055,-0.0635 -0.125,-0.0625 0.0041,0.001 -0.160365,-0.03197 -0.15625,-0.03125 0.0041,7.16e-4 -0.160405,-4.26e-4 -0.15625,0 0.0042,4.26e-4 -0.129174,-0.03138 -0.125,-0.03125 0.0042,1.33e-4 -0.160424,1.6e-4 -0.15625,0 0.0042,-1.6e-4 -0.160402,0.0317 -0.15625,0.03125 0.0042,-4.52e-4 -0.12911,7.42e-4 -0.125,0 0.0041,-7.42e-4 -0.160298,0.03228 -0.15625,0.03125 0.004,-0.001 -0.160216,0.06381 -0.15625,0.0625 0.004,-0.0013 -0.128865,0.03283 -0.125,0.03125 0.0039,-0.0016 -0.128744,0.06435 -0.125,0.0625 0.003,-0.0015 -0.06061,0.04473 -0.09375,0.0625 -0.0083,0.0044 -0.03197,4.22e-4 -0.03125,0 -1.824953,0.991277 -3.880445,1.790738 -5.5625,2.15625 -2.317349,-1.907414 -4.707079,-3.015815 -7.125,-3.25 z"
       transform="translate(0,-2)"
       id="path3920"
       style="opacity:0.05;fill:#095471;fill-opacity:1;stroke:none;display:inline" />
    <path
       d="m 57.15625,26.21875 c -1.0908,0.121355 -2.182043,0.394618 -3.25,0.71875 C 49.613188,28.240399 45.994301,33.444953 46.5625,39.5 34.356996,38.415849 28.998165,31.970716 25.46875,28.5625 a 0.96191899,0.96191899 0 0 0 -1.5,0.21875 c -1.936624,3.418781 -1.917324,6.873826 -0.96875,9.6875 0.474287,1.406837 1.163419,2.67477 1.96875,3.71875 -0.403931,-0.159325 -0.885071,-0.318462 -1.125,-0.46875 a 0.96191899,0.96191899 0 0 0 -1.46875,0.75 c -0.212432,3.207989 1.016885,5.966342 2.8125,8 0.802292,0.908651 1.753765,1.619588 2.71875,2.25 -0.210825,-0.02569 -0.326127,0.0039 -0.5625,-0.03125 a 0.96191899,0.96191899 0 0 0 -1.0625,1.21875 c 0.954088,3.156212 2.765846,5.253446 4.8125,6.53125 1.223181,0.763678 2.501997,1.175566 3.75,1.46875 -3.963238,2.604407 -8.48273,3.310776 -13.5625,3.0625 A 0.96191899,0.96191899 0 0 0 20.71875,66.75 c 15.953455,9.76055 32.156024,3.816496 40.09375,-3.9375 6.543177,-6.391936 9.457355,-15.784265 9.65625,-24.28125 0.735644,-0.605614 1.676973,-1.391246 2.625,-2.34375 1.067593,-1.072634 2.088548,-2.229182 2.59375,-3.46875 a 0.96191899,0.96191899 0 0 0 -1.25,-1.28125 c -0.627686,0.241473 -1.495751,0.618219 -2.46875,0.9375 0.176833,-0.19979 0.39786,-0.322384 0.5625,-0.53125 0.912641,-1.157797 1.657674,-2.394637 1.8125,-3.71875 a 0.96191899,0.96191899 0 0 0 -1.4375,-0.96875 c -2.021036,1.100751 -4.317468,2.045741 -6.25,2.40625 -3.129498,-2.820024 -6.365029,-3.692526 -9.5,-3.34375 z"
       transform="translate(0,-2)"
       id="path3916"
       style="opacity:0.15;fill:#095471;fill-opacity:1;stroke:none;display:inline" />
    <path
       d="m 54.198005,25.847927 c -4.010038,1.217004 -7.868792,6.632458 -6.658274,12.758872 -13.30905,-0.801473 -19.186646,-7.93339 -22.721063,-11.346436 -3.602289,6.35923 0.09183,12.540133 3.318598,14.540849 -1.702919,0.09373 -3.762688,-0.642431 -4.785035,-1.282812 -0.388493,5.866743 4.391957,9.933598 8.458977,10.987654 -1.300135,0.387805 -2.525393,0.439944 -4.619905,0.128297 1.783632,5.900424 6.575506,7.479654 10.145026,7.73954 -4.595336,3.987711 -10.113808,4.85712 -16.114248,4.563846 15.55777,9.518464 31.268687,3.662414 38.915523,-3.807425 6.421253,-6.27283 9.291879,-15.665829 9.391219,-24.070352 1.469723,-1.194459 4.441492,-3.726231 5.249096,-5.707773 -1.172101,0.450911 -3.490836,1.523602 -5.910421,1.620045 1.992723,-1.305741 4.276338,-3.922339 4.515526,-5.967944 -2.206411,1.201715 -4.759668,2.24293 -6.946495,2.57497 -4.122527,-3.979699 -8.136783,-3.976237 -12.238524,-2.731331 z"
       inkscape:connector-curvature="0"
       id="path3912"
       style="opacity:0.3;fill:#095471;fill-opacity:1;stroke:none;display:inline" />
    <path
       d="m 54.198005,24.847927 c -4.010038,1.217004 -7.868792,6.632458 -6.658274,12.758872 -13.30905,-0.801473 -19.186646,-7.93339 -22.721063,-11.346436 -3.602289,6.35923 0.09183,12.540133 3.318598,14.540849 -1.702919,0.09373 -3.762688,-0.642431 -4.785035,-1.282812 -0.388493,5.866743 4.391957,9.933598 8.458977,10.987654 -1.300135,0.387805 -2.525393,0.439944 -4.619905,0.128297 1.783632,5.900424 6.575506,7.479654 10.145026,7.73954 -4.595336,3.987711 -10.113808,4.85712 -16.114248,4.563846 15.55777,9.518464 31.268687,3.662414 38.915523,-3.807425 6.421253,-6.27283 9.291879,-15.665829 9.391219,-24.070352 1.469723,-1.194459 4.441492,-3.726231 5.249096,-5.707773 -1.172101,0.450911 -3.490836,1.523602 -5.910421,1.620045 1.992723,-1.305741 4.276338,-3.922339 4.515526,-5.967944 -2.206411,1.201715 -4.759668,2.24293 -6.946495,2.57497 -4.122527,-3.979699 -8.136783,-3.976237 -12.238524,-2.731331 z"
       inkscape:connector-curvature="0"
       id="path6437"
       style="fill:#ffffff;fill-opacity:1;stroke:none;display:inline" />
  </g>
</svg>
