<?xml version="1.0" encoding="UTF-8" standalone="no"?>
<!-- Created with Inkscape (http://www.inkscape.org/) -->

<svg
   xmlns:dc="http://purl.org/dc/elements/1.1/"
   xmlns:cc="http://creativecommons.org/ns#"
   xmlns:rdf="http://www.w3.org/1999/02/22-rdf-syntax-ns#"
   xmlns:svg="http://www.w3.org/2000/svg"
   xmlns="http://www.w3.org/2000/svg"
   xmlns:xlink="http://www.w3.org/1999/xlink"
   xmlns:inkscape="http://www.inkscape.org/namespaces/inkscape"
   version="1.0"
   width="96"
   height="96"
   id="svg2408">
  <defs
     id="defs2410">
    <linearGradient
       id="linearGradient4384">
      <stop
         id="stop4386"
         style="stop-color:#ffffff;stop-opacity:1"
         offset="0" />
      <stop
         id="stop4388"
         style="stop-color:#ffffff;stop-opacity:0"
         offset="1" />
    </linearGradient>
    <linearGradient
       id="linearGradient4367">
      <stop
         id="stop4369"
         style="stop-color:#ffffff;stop-opacity:0.71755725"
         offset="0" />
      <stop
         id="stop4371"
         style="stop-color:#ffffff;stop-opacity:1"
         offset="1" />
    </linearGradient>
    <linearGradient
       x1="45.447727"
       y1="92.539597"
       x2="45.447727"
       y2="7.0165396"
       id="ButtonShadow"
       gradientUnits="userSpaceOnUse"
       gradientTransform="scale(1.0058652,0.994169)">
      <stop
         id="stop3750"
         style="stop-color:#000000;stop-opacity:1"
         offset="0" />
      <stop
         id="stop3752"
         style="stop-color:#000000;stop-opacity:0.58823532"
         offset="1" />
    </linearGradient>
    <linearGradient
       id="linearGradient3737">
      <stop
         id="stop3739"
         style="stop-color:#ffffff;stop-opacity:1"
         offset="0" />
      <stop
         id="stop3741"
         style="stop-color:#ffffff;stop-opacity:0"
         offset="1" />
    </linearGradient>
    <filter
       color-interpolation-filters="sRGB"
       id="filter3174">
      <feGaussianBlur
         id="feGaussianBlur3176"
         stdDeviation="1.71" />
    </filter>
    <filter
       x="-0.192"
       y="-0.192"
       width="1.3839999"
       height="1.3839999"
       color-interpolation-filters="sRGB"
       id="filter3794">
      <feGaussianBlur
         id="feGaussianBlur3796"
         stdDeviation="5.28" />
    </filter>
    <linearGradient
       x1="48"
       y1="20.220806"
       x2="48"
       y2="138.66119"
       id="linearGradient3613"
       xlink:href="#linearGradient3737"
       gradientUnits="userSpaceOnUse" />
    <linearGradient
       x1="45.447727"
       y1="92.539597"
       x2="45.447727"
       y2="7.0165396"
       id="ButtonShadow-0"
       gradientUnits="userSpaceOnUse"
       gradientTransform="matrix(1.0058652,0,0,0.994169,100,0)">
      <stop
         id="stop3750-8"
         style="stop-color:#000000;stop-opacity:1"
         offset="0" />
      <stop
         id="stop3752-5"
         style="stop-color:#000000;stop-opacity:0.58823532"
         offset="1" />
    </linearGradient>
    <linearGradient
       x1="32.251034"
       y1="6.1317081"
       x2="32.251034"
       y2="90.238609"
       id="linearGradient3780"
       xlink:href="#ButtonShadow-0"
       gradientUnits="userSpaceOnUse"
       gradientTransform="matrix(1.0238095,0,0,1.0119048,-1.1428571,-98.071429)" />
    <linearGradient
       x1="32.251034"
       y1="6.1317081"
       x2="32.251034"
       y2="90.238609"
       id="linearGradient3772"
       xlink:href="#ButtonShadow-0"
       gradientUnits="userSpaceOnUse"
       gradientTransform="matrix(1.0238095,0,0,1.0119048,-1.1428571,-98.071429)" />
    <linearGradient
       x1="32.251034"
       y1="6.1317081"
       x2="32.251034"
       y2="90.238609"
       id="linearGradient3725"
       xlink:href="#ButtonShadow-0"
       gradientUnits="userSpaceOnUse"
       gradientTransform="matrix(1.0238095,0,0,1.0119048,-1.1428571,-98.071429)" />
    <linearGradient
       x1="32.251034"
       y1="6.1317081"
       x2="32.251034"
       y2="90.238609"
       id="linearGradient3721"
       xlink:href="#ButtonShadow-0"
       gradientUnits="userSpaceOnUse"
       gradientTransform="translate(0,-97)" />
    <linearGradient
       x1="32.251034"
       y1="6.1317081"
       x2="32.251034"
       y2="90.238609"
       id="linearGradient3026"
       xlink:href="#ButtonShadow-0"
       gradientUnits="userSpaceOnUse"
       gradientTransform="matrix(1.0238095,0,0,1.0119048,-1.1428571,-98.071429)" />
    <clipPath
       id="clipPath4355">
      <rect
         width="84"
         height="80"
         rx="6"
         ry="6"
         x="6"
         y="6"
         id="rect4357"
         style="fill:#ffffff;fill-opacity:1;fill-rule:nonzero;stroke:none" />
    </clipPath>
    <radialGradient
       cx="48"
       cy="87.792389"
       r="42"
       fx="48"
       fy="87.792389"
       id="radialGradient4375"
       xlink:href="#linearGradient4367"
       gradientUnits="userSpaceOnUse"
       gradientTransform="matrix(1,-6.7114942e-8,8.4282233e-8,1.2557894,109.99999,-24.505592)" />
    <linearGradient
       x1="48"
       y1="88"
       x2="48"
       y2="-40"
       id="linearGradient4390"
       xlink:href="#linearGradient4384"
       gradientUnits="userSpaceOnUse"
       gradientTransform="matrix(1,0,0,-1,0,92)" />
    <linearGradient
       x1="48"
       y1="82"
       x2="112.12357"
       y2="82.454597"
       id="linearGradient4429"
       xlink:href="#linearGradient4384"
       gradientUnits="userSpaceOnUse"
       spreadMethod="reflect" />
    <linearGradient
       id="linearGradient3892">
      <stop
         id="stop3894"
         style="stop-color:#000000;stop-opacity:0.58823532"
         offset="0" />
      <stop
         id="stop3896"
         style="stop-color:#000000;stop-opacity:0.47058824"
         offset="0.11780351" />
      <stop
         id="stop3898"
         style="stop-color:#000000;stop-opacity:0.39215687"
         offset="0.23809524" />
      <stop
         id="stop3900"
         style="stop-color:#000000;stop-opacity:0.3137255"
         offset="1" />
    </linearGradient>
    <linearGradient
       x1="90"
       y1="88"
       x2="48"
       y2="88"
       id="linearGradient3228"
       xlink:href="#linearGradient3892"
       gradientUnits="userSpaceOnUse"
       spreadMethod="reflect" />
    <linearGradient
       x1="16.626165"
       y1="15.298182"
       x2="20.054544"
       y2="24.627615"
       id="linearGradient3114"
       xlink:href="#linearGradient8265-821-176-38-919-66-249-7-7-6-5-0"
       gradientUnits="userSpaceOnUse"
       gradientTransform="matrix(1.8236425,0,0,2.8764142,4.1473022,-10.570708)" />
    <linearGradient
       id="linearGradient8265-821-176-38-919-66-249-7-7-6-5-0">
      <stop
         id="stop2687-1-9-3-0-3"
         style="stop-color:#ffffff;stop-opacity:1"
         offset="0" />
      <stop
         id="stop2689-5-4-9-8-5"
         style="stop-color:#ffffff;stop-opacity:0"
         offset="1" />
    </linearGradient>
    <linearGradient
       x1="48"
       y1="90"
       x2="48"
       y2="5.9877172"
       id="linearGradient3201"
       xlink:href="#linearGradient3700-79"
       gradientUnits="userSpaceOnUse" />
    <linearGradient
       id="linearGradient5105-8">
      <stop
         id="stop5107-4"
         style="stop-color:#f5f5f5;stop-opacity:1"
         offset="0" />
      <stop
         id="stop5109-4"
         style="stop-color:#ebebeb;stop-opacity:1"
         offset="1" />
    </linearGradient>
    <linearGradient
       x1="48"
       y1="16"
       x2="48"
       y2="80"
       id="linearGradient3888"
       xlink:href="#linearGradient5105-8"
       gradientUnits="userSpaceOnUse" />
    <linearGradient
       id="linearGradient3700-79">
      <stop
         id="stop3702-15"
         style="stop-color:#da4714;stop-opacity:1"
         offset="0" />
      <stop
         id="stop3704-7"
         style="stop-color:#ee743e;stop-opacity:1"
         offset="1" />
    </linearGradient>
  </defs>
  <metadata
     id="metadata2413">
    <rdf:RDF>
      <cc:Work
         rdf:about="">
        <dc:format>image/svg+xml</dc:format>
        <dc:type
           rdf:resource="http://purl.org/dc/dcmitype/StillImage" />
        <dc:title />
      </cc:Work>
    </rdf:RDF>
  </metadata>
  <g
     id="layer2"
     style="display:none">
    <rect
       width="86"
       height="85"
       rx="6"
       ry="6"
       x="5"
       y="7"
       id="rect3745"
       style="opacity:0.9;fill:url(#ButtonShadow);fill-opacity:1;fill-rule:nonzero;stroke:none;filter:url(#filter3174)" />
  </g>
  <g
     id="layer3"
     style="display:inline">
    <path
       d="m 12,-95.03125 c -5.5110903,0 -10.03125,4.52016 -10.03125,10.03125 l 0,71 c 0,5.5110902 4.5201598,10.03125 10.03125,10.03125 l 72,0 c 5.51109,0 10.03125,-4.5201597 10.03125,-10.03125 l 0,-71 c 0,-5.51109 -4.52016,-10.03125 -10.03125,-10.03125 l -72,0 z"
       transform="scale(1,-1)"
       id="path3786"
       style="opacity:0.07999998;fill:url(#linearGradient3026);fill-opacity:1;fill-rule:nonzero;stroke:none;display:inline" />
    <path
       d="m 12,-94.03125 c -4.971633,0 -9.03125,4.059617 -9.03125,9.03125 l 0,71 c 0,4.9716329 4.0596171,9.03125 9.03125,9.03125 l 72,0 c 4.971633,0 9.03125,-4.059617 9.03125,-9.03125 l 0,-71 c 0,-4.971633 -4.059617,-9.03125 -9.03125,-9.03125 l -72,0 z"
       transform="scale(1,-1)"
       id="path3778"
       style="opacity:0.1;fill:url(#linearGradient3780);fill-opacity:1;fill-rule:nonzero;stroke:none;display:inline" />
    <path
       d="m 12,-93 c -4.4091333,0 -8,3.590867 -8,8 l 0,71 c 0,4.4091333 3.5908667,8 8,8 l 72,0 c 4.409133,0 8,-3.5908667 8,-8 l 0,-71 c 0,-4.409133 -3.590867,-8 -8,-8 l -72,0 z"
       transform="scale(1,-1)"
       id="path3770"
       style="opacity:0.2;fill:url(#linearGradient3772);fill-opacity:1;fill-rule:nonzero;stroke:none;display:inline" />
    <rect
       width="86"
       height="85"
       rx="7"
       ry="7"
       x="5"
       y="-92"
       transform="scale(1,-1)"
       id="rect3723"
       style="opacity:0.3;fill:url(#linearGradient3725);fill-opacity:1;fill-rule:nonzero;stroke:none;display:inline" />
    <rect
       width="84"
       height="84"
       rx="6"
       ry="6"
       x="6"
       y="-91"
       transform="scale(1,-1)"
       id="rect3716"
       style="opacity:0.45;fill:url(#linearGradient3721);fill-opacity:1;fill-rule:nonzero;stroke:none;display:inline" />
  </g>
  <g
     id="layer1">
    <rect
       width="84"
       height="84"
       rx="6"
       ry="6"
       x="6"
       y="6"
       id="rect2419-6"
       style="fill:url(#linearGradient3201);fill-opacity:1;fill-rule:nonzero;stroke:none" />
    <path
       d="M 12,6 C 8.6863616,6 6.0166116,8.6591585 6,11.96875 5.9999481,11.979099 6,11.989638 6,12 L 6.03125,58.90625 C 8.4477741,58.853361 88.165837,39.375647 90,38.4375 L 90,12 C 90,8.676 87.324,6 84,6 L 12,6 z"
       inkscape:connector-curvature="0"
       id="path5237-7"
       style="opacity:0.2;fill:url(#linearGradient3114);fill-opacity:1;fill-rule:evenodd;stroke:none;display:inline;enable-background:new" />
    <path
       d="M 120.78125,6.125 C 118.04223,6.6826484 116,9.0915 116,12 l 0,68 c 0,3.324 2.676,6 6,6 l 72,0 c 3.324,0 6,-2.676 6,-6 l 0,-68 c 0,-2.9085 -2.04223,-5.3173516 -4.78125,-5.875 2.20512,0.5362071 3.8125,2.4908437 3.8125,4.875 l 0,68 c 0,2.80489 -2.22636,5.03125 -5.03125,5.03125 l -72,0 c -2.80489,0 -5.03125,-2.22636 -5.03125,-5.03125 l 0,-68 c 0,-2.3841563 1.60738,-4.3387929 3.8125,-4.875 z"
       inkscape:connector-curvature="0"
       id="rect4359"
       style="opacity:0.2;fill:url(#radialGradient4375);fill-opacity:1;fill-rule:nonzero;stroke:none" />
    <path
       d="M 12,86 C 8.676,86 6,83.324 6,80 L 6,12 C 6,8.676 8.676,6 12,6 l 72,0 c 3.324,0 6,2.676 6,6 l 0,68 c 0,3.324 -2.676,6 -6,6 z m 0,-0.96875 72,0 c 2.80489,0 5.03125,-2.22636 5.03125,-5.03125 l 0,-68 C 89.03125,9.19511 86.80489,6.96875 84,6.96875 l -72,0 C 9.1951102,6.96875 6.96875,9.19511 6.96875,12 l 0,68 c 0,2.80489 2.2263602,5.03125 5.03125,5.03125 z"
       inkscape:connector-curvature="0"
       id="rect4377"
       style="opacity:0.3;fill:url(#linearGradient4390);fill-opacity:1;fill-rule:nonzero;stroke:none" />
    <path
       d="m 6,78 0,2 c 0,3.324 2.676,6 6,6 l 72,0 c 3.324,0 6,-2.676 6,-6 l 0,-2 c 0,3.324 -2.676,6 -6,6 L 12,84 C 8.676,84 6,81.324 6,78 z"
       inkscape:connector-curvature="0"
       id="rect4414"
       style="opacity:0.1;fill:url(#linearGradient4429);fill-opacity:1;fill-rule:nonzero;stroke:none" />
    <path
       d="m 6,100 0,1 c 0,3.324 2.676,6 6,6 l 72,0 c 3.324,0 6,-2.676 6,-6 l 0,-1 c 0,3.324 -2.676,6 -6,6 l -72,0 c -3.324,0 -6,-2.676 -6,-6 z"
       inkscape:connector-curvature="0"
       id="path4412"
       style="opacity:0.15;fill:#000000;fill-opacity:1;fill-rule:nonzero;stroke:none" />
  </g>
  <g
     id="layer4"
     style="display:inline">
    <path
       d="m 6,80 0,4 c 0,3.324 2.676,6 6,6 l 72,0 c 3.324,0 6,-2.676 6,-6 l 0,-4 c 0,3.324 -2.676,6 -6,6 L 12,86 C 8.676,86 6,83.324 6,80 z"
       inkscape:connector-curvature="0"
       id="path3888"
       style="fill:url(#linearGradient3228);fill-opacity:1;fill-rule:nonzero;stroke:none;display:inline" />
    <path
       d="m 6,82 0,2 c 0,3.324 2.676,6 6,6 l 72,0 c 3.324,0 6,-2.676 6,-6 l 0,-2 c 0,3.324 -2.676,6 -6,6 L 12,88 C 8.676,88 6,85.324 6,82 z"
       inkscape:connector-curvature="0"
       id="rect4345"
       style="opacity:0.1;color:#000000;fill:#000000;fill-opacity:1;fill-rule:nonzero;stroke:none;stroke-width:1.5;marker:none;visibility:visible;display:inline;overflow:visible;enable-background:accumulate" />
    <path
       d="m 6,83 0,1 c 0,3.324 2.676,6 6,6 l 72,0 c 3.324,0 6,-2.676 6,-6 l 0,-1 c 0,3.324 -2.676,6 -6,6 L 12,89 C 8.676,89 6,86.324 6,83 z"
       inkscape:connector-curvature="0"
       id="rect4336"
       style="opacity:0.15;color:#000000;fill:#000000;fill-opacity:1;fill-rule:nonzero;stroke:none;stroke-width:1.5;marker:none;visibility:visible;display:inline;overflow:visible;enable-background:accumulate" />
  </g>
  <g
     id="layer5"
     style="display:inline">
    <rect
       width="66"
       height="62"
       rx="12"
       ry="12"
       x="15"
       y="15"
       clip-path="url(#clipPath4355)"
       id="rect3171"
       style="opacity:0.1;fill:url(#linearGradient3613);fill-opacity:1;fill-rule:nonzero;stroke:#ffffff;stroke-width:0.5;stroke-linecap:round;stroke-linejoin:miter;stroke-miterlimit:4;stroke-opacity:1;stroke-dasharray:none;stroke-dashoffset:0;filter:url(#filter3794)" />
  </g>
  <g
     id="layer6">
    <path
       d="m 42,18.03125 c -6.115331,0.03095 -12.240828,-0.01967 -18.375,0.0625 -0.06331,0.0044 -0.12619,0.01487 -0.1875,0.03125 -1.196327,0.224784 -1.954294,1.188211 -2.21875,2.09375 -0.257882,0.883027 -0.234989,1.738152 -0.1875,2.4375 0.0012,0.01783 -0.0012,0.04491 0,0.0625 0.08708,11.519873 -0.288543,23.094032 0.4375,34.6875 0.423824,8.392102 4.516023,17.058283 12.28125,21.1875 7.956884,4.44195 17.215869,3.562774 25.5625,2.71875 0.01042,1.64e-4 0.02083,1.64e-4 0.03125,0 4.642296,-0.574915 9.334547,-1.284704 13.90625,-2.5 0.09947,-0.02674 0.194741,-0.06908 0.28125,-0.125 1.088623,-0.7167 1.437005,-1.938843 1.46875,-2.90625 0.03175,-0.967407 -0.09595,-1.849186 -0.03125,-2.40625 0.0026,-0.04161 0.0026,-0.08339 0,-0.125 -0.02081,-17.52595 0.04165,-35.063852 -0.03125,-52.59375 -0.0044,-0.06331 -0.01487,-0.12619 -0.03125,-0.1875 -0.23887,-1.238619 -1.25329,-2.006429 -2.1875,-2.25 -0.92272,-0.240575 -1.810826,-0.188602 -2.5,-0.15625 -0.01039,2.5e-5 -0.02086,-2.4e-5 -0.03125,0 -4.842457,0.01105 -9.693358,-0.06482 -14.5625,0 -0.06331,0.0044 -0.12619,0.01487 -0.1875,0.03125 -1.196327,0.224784 -1.954294,1.188211 -2.21875,2.09375 -0.257882,0.883027 -0.234989,1.738152 -0.1875,2.4375 0.0012,0.01783 -0.0012,0.04491 0,0.0625 l 0,39.34375 -10.0625,0 C 42.953893,52.567843 43.007958,44.097592 42.9375,34.625 42.933106,34.561693 42.922626,34.49881 42.90625,34.4375 42.681466,33.241173 41.718039,32.483206 40.8125,32.21875 40.246327,32.053403 35.517016,33.996903 35,34 c 0.06685,-0.101261 4.376447,-3.122832 4.4375,-3.25 0.02357,-0.0393 0.03887,-0.0857 0.0625,-0.125 0.0063,-0.01532 0.02512,-0.01543 0.03125,-0.03125 1.698907,-2.822077 3.57444,-5.597321 5.21875,-8.53125 0.03986,-0.06881 0.07141,-0.142431 0.09375,-0.21875 C 45.370017,19.99596 43.974109,18.018056 42,18.03125 z"
       inkscape:connector-curvature="0"
       transform="translate(0,-2)"
       id="path3884"
       style="opacity:0.05;fill:#932d00;fill-opacity:1;display:inline" />
    <path
       d="m 42,17.03125 c -6.124141,0.031 -12.255168,-0.01948 -18.375,0.0625 -1.687428,0.317059 -1.687136,2.202548 -1.59375,3.554244 0.08912,11.567061 -0.273226,23.149817 0.450205,34.701574 0.40928,8.10412 4.349778,16.44828 11.729743,20.372631 7.617668,4.252582 16.673456,3.433122 25.012356,2.58988 C 63.848635,77.739296 68.49973,77.040057 73,75.84375 74.541597,74.828832 73.790737,72.778702 73.96875,71.246111 73.94794,53.717017 74.01038,36.181034 73.9375,18.65625 c -0.340157,-1.763823 -2.324885,-1.661318 -3.715915,-1.597223 -4.864694,0.01148 -9.736191,-0.0612 -14.596585,0.0035 -1.687428,0.317059 -1.687136,2.202548 -1.59375,3.554244 0,13.471502 0,25.943004 0,39.414506 -4.020833,0 -8.041667,0 -12.0625,0 -0.0208,-9.801224 0.04162,-17.609336 -0.03125,-27.40625 -0.317059,-1.687428 -2.202548,-1.687136 -3.554244,-1.59375 -1.652772,0.36748 -0.05624,-2.080365 0.218587,-2.789795 C 40.341719,25.340332 42.225706,22.505322 43.875,19.5625 44.222457,18.342535 43.297707,17.022577 42,17.03125 z"
       inkscape:connector-curvature="0"
       id="path3878"
       style="opacity:0.1;fill:#932d00;fill-opacity:1;display:inline" />
    <path
       d="M 42,20.03125 24,20.0625 c -0.507889,-0.0024 -0.971152,0.460861 -0.96875,0.96875 l 0,18.96875 c 0,15.787572 0.551107,19.678343 1.1875,22.34375 2.389721,10.008877 9.092836,15.992282 19.4375,17.375 5.708315,0.763002 16.634578,-0.146935 25.375,-1.96875 l 3.15625,-0.65625 c 0.432452,-0.08355 0.77705,-0.497071 0.78125,-0.9375 l 0,-55.125 C 72.971152,20.523361 72.507889,20.060098 72,20.0625 L 56,20.03125 C 55.492111,20.028848 55.028848,20.492111 55.03125,21 l 0,43.03125 -14.0625,0 0,-29.03125 C 40.971152,34.492111 40.507889,34.028848 40,34.03125 l -4.28125,0 L 42.8125,21.5 C 43.167747,20.921553 42.678793,20.037675 42,20.03125 z"
       inkscape:connector-curvature="0"
       transform="translate(0,-2)"
       id="path3874"
       style="opacity:0.15;fill:#932d00;fill-opacity:1;display:inline" />
    <path
       d="M 24,19.039682 24,38 c 0,15.765571 0.553809,19.539944 1.1704,22.122415 2.318062,9.708749 8.55424,15.274008 18.603912,16.617296 5.440084,0.727149 16.427378,-0.118791 25.06833,-1.919873 L 72,74.171229 72,19.03968 56,19 l 0,44 -16,0 0,-31 -6,0 8,-13 z"
       inkscape:connector-curvature="0"
       id="path3870"
       style="opacity:0.3;fill:#932d00;fill-opacity:1;display:inline" />
    <path
       d="M 24,18.039682 24,37 c 0,15.765571 0.553809,19.539944 1.1704,22.122415 2.318062,9.708749 8.55424,15.274008 18.603912,16.617296 5.440084,0.727149 16.427378,-0.118791 25.06833,-1.919873 L 72,73.171229 72,18.03968 56,18 l 0,42 -16,0 0,-28 -6,0 8,-14 z"
       inkscape:connector-curvature="0"
       id="path3865"
       style="fill:url(#linearGradient3888);fill-opacity:1;display:inline" />
    <path
       d="m 42,18 -18,0.03125 0,1 L 41.4375,19 42,18 z m 14,0 0,1 16,0.03125 0,-1 L 56,18 z M 34.5625,32 34,33 l 6,0 0,-1 -5.4375,0 z M 40,60 l 0,1 16,0 0,-1 -16,0 z"
       inkscape:connector-curvature="0"
       id="path3890"
       style="fill:#ffffff;fill-opacity:1;display:inline" />
  </g>
</svg>
