<?xml version="1.0" encoding="UTF-8" standalone="no"?>
<!-- Created with Inkscape (http://www.inkscape.org/) -->

<svg
   xmlns:dc="http://purl.org/dc/elements/1.1/"
   xmlns:cc="http://creativecommons.org/ns#"
   xmlns:rdf="http://www.w3.org/1999/02/22-rdf-syntax-ns#"
   xmlns:svg="http://www.w3.org/2000/svg"
   xmlns="http://www.w3.org/2000/svg"
   xmlns:xlink="http://www.w3.org/1999/xlink"
   xmlns:inkscape="http://www.inkscape.org/namespaces/inkscape"
   version="1.0"
   width="96"
   height="96"
   id="svg2408">
  <defs
     id="defs2410">
    <linearGradient
       id="linearGradient4384">
      <stop
         id="stop4386"
         style="stop-color:#ffffff;stop-opacity:1"
         offset="0" />
      <stop
         id="stop4388"
         style="stop-color:#ffffff;stop-opacity:0"
         offset="1" />
    </linearGradient>
    <linearGradient
       id="linearGradient4367">
      <stop
         id="stop4369"
         style="stop-color:#ffffff;stop-opacity:0.71755725"
         offset="0" />
      <stop
         id="stop4371"
         style="stop-color:#ffffff;stop-opacity:1"
         offset="1" />
    </linearGradient>
    <linearGradient
       x1="45.447727"
       y1="92.539597"
       x2="45.447727"
       y2="7.0165396"
       id="ButtonShadow"
       gradientUnits="userSpaceOnUse"
       gradientTransform="scale(1.0058652,0.994169)">
      <stop
         id="stop3750"
         style="stop-color:#000000;stop-opacity:1"
         offset="0" />
      <stop
         id="stop3752"
         style="stop-color:#000000;stop-opacity:0.58823532"
         offset="1" />
    </linearGradient>
    <linearGradient
       id="linearGradient3737">
      <stop
         id="stop3739"
         style="stop-color:#ffffff;stop-opacity:1"
         offset="0" />
      <stop
         id="stop3741"
         style="stop-color:#ffffff;stop-opacity:0"
         offset="1" />
    </linearGradient>
    <filter
       color-interpolation-filters="sRGB"
       id="filter3174">
      <feGaussianBlur
         id="feGaussianBlur3176"
         stdDeviation="1.71" />
    </filter>
    <filter
       x="-0.192"
       y="-0.192"
       width="1.3839999"
       height="1.3839999"
       color-interpolation-filters="sRGB"
       id="filter3794">
      <feGaussianBlur
         id="feGaussianBlur3796"
         stdDeviation="5.28" />
    </filter>
    <linearGradient
       x1="48"
       y1="20.220806"
       x2="48"
       y2="138.66119"
       id="linearGradient3613"
       xlink:href="#linearGradient3737"
       gradientUnits="userSpaceOnUse" />
    <linearGradient
       x1="45.447727"
       y1="92.539597"
       x2="45.447727"
       y2="7.0165396"
       id="ButtonShadow-0"
       gradientUnits="userSpaceOnUse"
       gradientTransform="matrix(1.0058652,0,0,0.994169,100,0)">
      <stop
         id="stop3750-8"
         style="stop-color:#000000;stop-opacity:1"
         offset="0" />
      <stop
         id="stop3752-5"
         style="stop-color:#000000;stop-opacity:0.58823532"
         offset="1" />
    </linearGradient>
    <linearGradient
       x1="32.251034"
       y1="6.1317081"
       x2="32.251034"
       y2="90.238609"
       id="linearGradient3780"
       xlink:href="#ButtonShadow-0"
       gradientUnits="userSpaceOnUse"
       gradientTransform="matrix(1.0238095,0,0,1.0119048,-1.1428571,-98.071429)" />
    <linearGradient
       x1="32.251034"
       y1="6.1317081"
       x2="32.251034"
       y2="90.238609"
       id="linearGradient3772"
       xlink:href="#ButtonShadow-0"
       gradientUnits="userSpaceOnUse"
       gradientTransform="matrix(1.0238095,0,0,1.0119048,-1.1428571,-98.071429)" />
    <linearGradient
       x1="32.251034"
       y1="6.1317081"
       x2="32.251034"
       y2="90.238609"
       id="linearGradient3725"
       xlink:href="#ButtonShadow-0"
       gradientUnits="userSpaceOnUse"
       gradientTransform="matrix(1.0238095,0,0,1.0119048,-1.1428571,-98.071429)" />
    <linearGradient
       x1="32.251034"
       y1="6.1317081"
       x2="32.251034"
       y2="90.238609"
       id="linearGradient3721"
       xlink:href="#ButtonShadow-0"
       gradientUnits="userSpaceOnUse"
       gradientTransform="translate(0,-97)" />
    <linearGradient
       x1="32.251034"
       y1="6.1317081"
       x2="32.251034"
       y2="90.238609"
       id="linearGradient3026"
       xlink:href="#ButtonShadow-0"
       gradientUnits="userSpaceOnUse"
       gradientTransform="matrix(1.0238095,0,0,1.0119048,-1.1428571,-98.071429)" />
    <clipPath
       id="clipPath4355">
      <rect
         width="84"
         height="80"
         rx="6"
         ry="6"
         x="6"
         y="6"
         id="rect4357"
         style="fill:#ffffff;fill-opacity:1;fill-rule:nonzero;stroke:none" />
    </clipPath>
    <radialGradient
       cx="48"
       cy="87.792389"
       r="42"
       fx="48"
       fy="87.792389"
       id="radialGradient4375"
       xlink:href="#linearGradient4367"
       gradientUnits="userSpaceOnUse"
       gradientTransform="matrix(1,-6.7114942e-8,8.4282233e-8,1.2557894,109.99999,-24.505592)" />
    <linearGradient
       x1="48"
       y1="88"
       x2="48"
       y2="-40"
       id="linearGradient4390"
       xlink:href="#linearGradient4384"
       gradientUnits="userSpaceOnUse"
       gradientTransform="matrix(1,0,0,-1,0,92)" />
    <linearGradient
       x1="48"
       y1="82"
       x2="112.12357"
       y2="82.454597"
       id="linearGradient4429"
       xlink:href="#linearGradient4384"
       gradientUnits="userSpaceOnUse"
       spreadMethod="reflect" />
    <linearGradient
       id="linearGradient3892">
      <stop
         id="stop3894"
         style="stop-color:#000000;stop-opacity:0.58823532"
         offset="0" />
      <stop
         id="stop3896"
         style="stop-color:#000000;stop-opacity:0.47058824"
         offset="0.11780351" />
      <stop
         id="stop3898"
         style="stop-color:#000000;stop-opacity:0.39215687"
         offset="0.23809524" />
      <stop
         id="stop3900"
         style="stop-color:#000000;stop-opacity:0.3137255"
         offset="1" />
    </linearGradient>
    <linearGradient
       x1="90"
       y1="88"
       x2="48"
       y2="88"
       id="linearGradient3228"
       xlink:href="#linearGradient3892"
       gradientUnits="userSpaceOnUse"
       spreadMethod="reflect" />
    <linearGradient
       id="linearGradient3187">
      <stop
         id="stop3189"
         style="stop-color:#b4b4b4;stop-opacity:1"
         offset="0" />
      <stop
         id="stop3191"
         style="stop-color:#e6e6e6;stop-opacity:1"
         offset="1" />
    </linearGradient>
    <linearGradient
       x1="43.17857"
       y1="13"
       x2="43.17857"
       y2="83.294571"
       id="linearGradient3436-4"
       xlink:href="#linearGradient3465-9"
       gradientUnits="userSpaceOnUse"
       gradientTransform="matrix(1.0294118,0,0,1.0294118,-1.4117647,-1.4117647)" />
    <linearGradient
       id="linearGradient3465-9">
      <stop
         id="stop3467-0"
         style="stop-color:#919191;stop-opacity:1"
         offset="0" />
      <stop
         id="stop3469-9"
         style="stop-color:#fdfdfd;stop-opacity:1"
         offset="1" />
    </linearGradient>
    <linearGradient
       x1="48"
       y1="90"
       x2="48"
       y2="5.9877172"
       id="linearGradient3388"
       xlink:href="#linearGradient3187"
       gradientUnits="userSpaceOnUse" />
    <linearGradient
       id="linearGradient3687">
      <stop
         id="stop3689"
         style="stop-color:#ffffff;stop-opacity:1"
         offset="0" />
      <stop
         id="stop3691"
         style="stop-color:#ffffff;stop-opacity:0"
         offset="1" />
    </linearGradient>
    <linearGradient
       x1="76.45089"
       y1="8.0625"
       x2="76.45089"
       y2="72.765785"
       id="linearGradient3483"
       xlink:href="#linearGradient3687"
       gradientUnits="userSpaceOnUse" />
    <linearGradient
       id="linearGradient4134">
      <stop
         id="stop4136"
         style="stop-color:#ffffff;stop-opacity:1"
         offset="0" />
      <stop
         id="stop4138"
         style="stop-color:#ffffff;stop-opacity:0"
         offset="1" />
    </linearGradient>
    <linearGradient
       x1="32"
       y1="46"
       x2="32"
       y2="-24"
       id="linearGradient4140"
       xlink:href="#linearGradient4134"
       gradientUnits="userSpaceOnUse"
       gradientTransform="translate(0,-62)" />
    <linearGradient
       x1="32"
       y1="46"
       x2="32"
       y2="-24"
       id="linearGradient3522"
       xlink:href="#linearGradient4134"
       gradientUnits="userSpaceOnUse"
       gradientTransform="translate(0,-62)" />
    <linearGradient
       x1="32"
       y1="46"
       x2="32"
       y2="-24"
       id="linearGradient3548"
       xlink:href="#linearGradient4134"
       gradientUnits="userSpaceOnUse"
       gradientTransform="translate(0,-62)" />
    <linearGradient
       x1="32"
       y1="46"
       x2="32"
       y2="-24"
       id="linearGradient3550"
       xlink:href="#linearGradient4134"
       gradientUnits="userSpaceOnUse"
       gradientTransform="translate(0,-62)" />
    <linearGradient
       x1="65.15625"
       y1="16.125"
       x2="65.15625"
       y2="69.687508"
       id="linearGradient2675-3"
       xlink:href="#linearGradient3737-0-9"
       gradientUnits="userSpaceOnUse" />
    <linearGradient
       id="linearGradient3737-0-9">
      <stop
         id="stop3739-6-0"
         style="stop-color:#ffffff;stop-opacity:1"
         offset="0" />
      <stop
         id="stop3741-4-8"
         style="stop-color:#ffffff;stop-opacity:0"
         offset="1" />
    </linearGradient>
    <linearGradient
       id="linearGradient4199">
      <stop
         id="stop4201"
         style="stop-color:#f2cdd8;stop-opacity:0.81679392"
         offset="0" />
      <stop
         id="stop4203"
         style="stop-color:#ffffff;stop-opacity:0"
         offset="1" />
    </linearGradient>
    <linearGradient
       x1="65.15625"
       y1="16.125"
       x2="65.15625"
       y2="69.687508"
       id="linearGradient3386"
       xlink:href="#linearGradient4199"
       gradientUnits="userSpaceOnUse" />
    <radialGradient
       cx="26.617001"
       cy="-2.0645001"
       r="23"
       id="radialGradient2446"
       gradientUnits="userSpaceOnUse"
       gradientTransform="matrix(-2.4655e-8,-1.4401,1.8933,0,48.22,78.499)">
      <stop
         id="stop2749"
         style="stop-color:#d78ec1;stop-opacity:1"
         offset="0" />
      <stop
         id="stop2751"
         style="stop-color:#c564be;stop-opacity:1"
         offset="0.26238" />
      <stop
         id="stop2753"
         style="stop-color:#9d3ea4;stop-opacity:1"
         offset="0.66093999" />
      <stop
         id="stop2755"
         style="stop-color:#5e2c73;stop-opacity:1"
         offset="1" />
    </radialGradient>
    <radialGradient
       cx="56.065952"
       cy="-15.871236"
       r="35.9375"
       fx="56.065952"
       fy="-15.871236"
       id="radialGradient3407"
       xlink:href="#radialGradient2446"
       gradientUnits="userSpaceOnUse"
       gradientTransform="matrix(0.00225966,0.925477,-1.3844339,0,25.901984,-30.21143)" />
  </defs>
  <metadata
     id="metadata2413">
    <rdf:RDF>
      <cc:Work
         rdf:about="">
        <dc:format>image/svg+xml</dc:format>
        <dc:type
           rdf:resource="http://purl.org/dc/dcmitype/StillImage" />
        <dc:title />
      </cc:Work>
    </rdf:RDF>
  </metadata>
  <g
     id="layer2"
     style="display:none">
    <rect
       width="86"
       height="85"
       rx="6"
       ry="6"
       x="5"
       y="7"
       id="rect3745"
       style="opacity:0.9;fill:url(#ButtonShadow);fill-opacity:1;fill-rule:nonzero;stroke:none;filter:url(#filter3174)" />
  </g>
  <g
     id="layer3"
     style="display:inline">
    <path
       d="m 12,-95.03125 c -5.5110903,0 -10.03125,4.52016 -10.03125,10.03125 l 0,71 c 0,5.5110902 4.5201598,10.03125 10.03125,10.03125 l 72,0 c 5.51109,0 10.03125,-4.5201597 10.03125,-10.03125 l 0,-71 c 0,-5.51109 -4.52016,-10.03125 -10.03125,-10.03125 l -72,0 z"
       transform="scale(1,-1)"
       id="path3786"
       style="opacity:0.07999998;fill:url(#linearGradient3026);fill-opacity:1;fill-rule:nonzero;stroke:none;display:inline" />
    <path
       d="m 12,-94.03125 c -4.971633,0 -9.03125,4.059617 -9.03125,9.03125 l 0,71 c 0,4.9716329 4.0596171,9.03125 9.03125,9.03125 l 72,0 c 4.971633,0 9.03125,-4.059617 9.03125,-9.03125 l 0,-71 c 0,-4.971633 -4.059617,-9.03125 -9.03125,-9.03125 l -72,0 z"
       transform="scale(1,-1)"
       id="path3778"
       style="opacity:0.1;fill:url(#linearGradient3780);fill-opacity:1;fill-rule:nonzero;stroke:none;display:inline" />
    <path
       d="m 12,-93 c -4.4091333,0 -8,3.590867 -8,8 l 0,71 c 0,4.4091333 3.5908667,8 8,8 l 72,0 c 4.409133,0 8,-3.5908667 8,-8 l 0,-71 c 0,-4.409133 -3.590867,-8 -8,-8 l -72,0 z"
       transform="scale(1,-1)"
       id="path3770"
       style="opacity:0.2;fill:url(#linearGradient3772);fill-opacity:1;fill-rule:nonzero;stroke:none;display:inline" />
    <rect
       width="86"
       height="85"
       rx="7"
       ry="7"
       x="5"
       y="-92"
       transform="scale(1,-1)"
       id="rect3723"
       style="opacity:0.3;fill:url(#linearGradient3725);fill-opacity:1;fill-rule:nonzero;stroke:none;display:inline" />
    <rect
       width="84"
       height="84"
       rx="6"
       ry="6"
       x="6"
       y="-91"
       transform="scale(1,-1)"
       id="rect3716"
       style="opacity:0.45;fill:url(#linearGradient3721);fill-opacity:1;fill-rule:nonzero;stroke:none;display:inline" />
  </g>
  <g
     id="layer1">
    <path
       d="m 12.0625,12.0625 0,53.875 71.875,0 0,-53.875 -71.875,0 z"
       transform="matrix(-1.0008688,0,0,-1.3339699,96.010451,99.96593)"
       id="path3215"
       style="fill:url(#radialGradient3407);fill-opacity:1;fill-rule:nonzero;stroke:none;display:inline" />
    <path
       d="m 19,13 c -3.289406,0 -6,2.71059 -6,6 l 0,54 c 0,3.28941 2.710594,6 6,6 l 58,0 c 3.289411,0 6.000001,-2.71059 6.000001,-6 l 0,-54 c 0,-3.28941 -2.71059,-6 -6.000001,-6 z m 0,4 58,0 c 1.142594,0 2,0.85741 2,2 l 0,54 c 0,1.14259 -0.857406,2 -2,2 l -58,0 c -1.142594,0 -2,-0.85741 -2,-2 l 0,-54 c 0,-1.14259 0.857406,-2 2,-2 z"
       inkscape:connector-curvature="0"
       id="rect3222"
       style="font-size:medium;font-style:normal;font-variant:normal;font-weight:normal;font-stretch:normal;text-indent:0;text-align:start;text-decoration:none;line-height:normal;letter-spacing:normal;word-spacing:normal;text-transform:none;direction:ltr;block-progression:tb;writing-mode:lr-tb;text-anchor:start;opacity:0.07999998;color:#000000;fill:#000000;fill-opacity:1;stroke:none;stroke-width:4;marker:none;visibility:visible;display:inline;overflow:visible;enable-background:accumulate;font-family:Abandoned Bitplane;-inkscape-font-specification:Abandoned Bitplane" />
    <path
       d="m 17,14 c -1.662,0 -3,1.338 -3,3 l 0,58 c 0,1.662 1.338,3 3,3 l 62,0 c 1.662001,0 3.000001,-1.338 3.000001,-3 l 0,-58 c 0,-1.662 -1.338,-3 -3.000001,-3 z m 0,1.9375 62,0 c 0.618163,0 1.062501,0.44434 1.062501,1.0625 l 0,58 c 0,0.61816 -0.444338,1.0625 -1.062501,1.0625 l -62,0 c -0.618163,0 -1.0625,-0.44434 -1.0625,-1.0625 l 0,-58 c 0,-0.61816 0.444337,-1.0625 1.0625,-1.0625 z"
       inkscape:connector-curvature="0"
       id="rect3981"
       style="opacity:0.1;color:#000000;fill:#000000;fill-opacity:1;fill-rule:nonzero;stroke:none;stroke-width:1;marker:none;visibility:visible;display:inline;overflow:visible;enable-background:accumulate" />
    <path
       d="m 17,14 c -1.662,0 -3,1.338 -3,3 l 0,58 c 0,1.662 1.338,3 3,3 l 62,0 c 1.662001,0 3.000001,-1.338 3.000001,-3 l 0,-58 c 0,-1.662 -1.338,-3 -3.000001,-3 z m 0,0.96875 62,0 c 1.140081,0 2.031251,0.89117 2.031251,2.03125 l 0,58 c 0,1.14008 -0.89117,2.03125 -2.031251,2.03125 l -62,0 c -1.140081,0 -2.03125,-0.89117 -2.03125,-2.03125 l 0,-58 c 0,-1.14008 0.891169,-2.03125 2.03125,-2.03125 z"
       inkscape:connector-curvature="0"
       id="rect3977"
       style="opacity:0.25;color:#000000;fill:#000000;fill-opacity:1;fill-rule:nonzero;stroke:none;stroke-width:1;marker:none;visibility:visible;display:inline;overflow:visible;enable-background:accumulate" />
    <path
       d="M 12,6 C 8.676,6 6,8.676 6,12 l 0,72 c 0,3.324 2.676,6 6,6 l 72,0 c 3.324,0 6,-2.676 6,-6 L 90,12 C 90,8.676 87.324,6 84,6 z m 5,8 1,0 60,0 1,0 c 1.683774,0 3,1.316227 3,3 l 0,1 c 0,20.333333 0,36.666667 0,57 10e-7,1.683774 -1.316227,3 -3,3 -21.545716,0 -43.541072,0 -62,0 -1.683771,0 -3,-1.316227 -3,-3 0,-20.333333 0,-36.666667 0,-57 l 0,-1 c 0,-1.683772 1.316227,-3 3,-3 z"
       inkscape:connector-curvature="0"
       id="rect2419"
       style="fill:url(#linearGradient3388);fill-opacity:1;fill-rule:nonzero;stroke:none;display:inline" />
    <rect
       width="70"
       height="66"
       rx="4"
       ry="4"
       x="13.000001"
       y="13.000001"
       id="rect3425"
       style="fill:none;stroke:url(#linearGradient3436-4);stroke-width:2;stroke-linecap:square;stroke-linejoin:round;stroke-miterlimit:4;stroke-opacity:0.69658119;stroke-dasharray:none;stroke-dashoffset:0;display:inline" />
    <path
       d="M 120.78125,6.125 C 118.04223,6.6826484 116,9.0915 116,12 l 0,68 c 0,3.324 2.676,6 6,6 l 72,0 c 3.324,0 6,-2.676 6,-6 l 0,-68 c 0,-2.9085 -2.04223,-5.3173516 -4.78125,-5.875 2.20512,0.5362071 3.8125,2.4908437 3.8125,4.875 l 0,68 c 0,2.80489 -2.22636,5.03125 -5.03125,5.03125 l -72,0 c -2.80489,0 -5.03125,-2.22636 -5.03125,-5.03125 l 0,-68 c 0,-2.3841563 1.60738,-4.3387929 3.8125,-4.875 z"
       inkscape:connector-curvature="0"
       id="rect4359"
       style="opacity:0.2;fill:url(#radialGradient4375);fill-opacity:1;fill-rule:nonzero;stroke:none" />
    <path
       d="M 12,86 C 8.676,86 6,83.324 6,80 L 6,12 C 6,8.676 8.676,6 12,6 l 72,0 c 3.324,0 6,2.676 6,6 l 0,68 c 0,3.324 -2.676,6 -6,6 z m 0,-0.96875 72,0 c 2.80489,0 5.03125,-2.22636 5.03125,-5.03125 l 0,-68 C 89.03125,9.19511 86.80489,6.96875 84,6.96875 l -72,0 C 9.1951102,6.96875 6.96875,9.19511 6.96875,12 l 0,68 c 0,2.80489 2.2263602,5.03125 5.03125,5.03125 z"
       inkscape:connector-curvature="0"
       id="rect4377"
       style="opacity:0.45;fill:url(#linearGradient4390);fill-opacity:1;fill-rule:nonzero;stroke:none" />
    <path
       d="m 6,78 0,2 c 0,3.324 2.676,6 6,6 l 72,0 c 3.324,0 6,-2.676 6,-6 l 0,-2 c 0,3.324 -2.676,6 -6,6 L 12,84 C 8.676,84 6,81.324 6,78 z"
       inkscape:connector-curvature="0"
       id="rect4414"
       style="opacity:0.15;fill:url(#linearGradient4429);fill-opacity:1;fill-rule:nonzero;stroke:none" />
    <path
       d="m 6,100 0,1 c 0,3.324 2.676,6 6,6 l 72,0 c 3.324,0 6,-2.676 6,-6 l 0,-1 c 0,3.324 -2.676,6 -6,6 l -72,0 c -3.324,0 -6,-2.676 -6,-6 z"
       inkscape:connector-curvature="0"
       id="path4412"
       style="opacity:0.15;fill:#000000;fill-opacity:1;fill-rule:nonzero;stroke:none" />
    <g
       id="g3503">
      <g
         id="g4128"
         style="display:inline;enable-background:new">
        <rect
           width="28"
           height="26"
           rx="2"
           ry="2"
           x="18"
           y="-44"
           transform="scale(1,-1)"
           id="rect3889"
           style="opacity:0.3;fill:url(#linearGradient4140);fill-opacity:1;stroke:none" />
        <path
           d="m 20,16 c -2.180674,0 -4,1.819326 -4,4 l 0,22 c 0,2.180674 1.819326,4 4,4 l 24,0 c 2.180674,0 4,-1.819326 4,-4 l 0,-22 c 0,-2.180674 -1.819326,-4 -4,-4 z m 0,2 24,0 c 1.108,0 2,0.892 2,2 l 0,22 c 0,1.108 -0.892,2 -2,2 l -24,0 c -1.108,0 -2,-0.892 -2,-2 l 0,-22 c 0,-1.108 0.892,-2 2,-2 z"
           inkscape:connector-curvature="0"
           id="path4125"
           style="opacity:0.15;fill:#0f2e61;fill-opacity:1;stroke:none" />
        <path
           d="m 20,18 c -1.108,0 -2,0.892 -2,2 l 0,22 c 0,1.108 0.892,2 2,2 l 24,0 c 1.108,0 2,-0.892 2,-2 l 0,-22 c 0,-1.108 -0.892,-2 -2,-2 z m 0,1.03125 24,0 c 0.54712,0 0.96875,0.42163 0.96875,0.96875 l 0,22 c 0,0.54712 -0.42163,0.96875 -0.96875,0.96875 l -24,0 c -0.54712,0 -0.96875,-0.42163 -0.96875,-0.96875 l 0,-22 c 0,-0.54712 0.42163,-0.96875 0.96875,-0.96875 z"
           inkscape:connector-curvature="0"
           id="rect4107"
           style="opacity:0.3;fill:#ffffff;fill-opacity:1;stroke:none" />
        <path
           d="m 20,16.96875 c -1.660251,0 -3.03125,1.370999 -3.03125,3.03125 l 0,22 c 0,1.660251 1.370999,3.03125 3.03125,3.03125 l 24,0 c 1.660251,0 3.03125,-1.370999 3.03125,-3.03125 l 0,-22 c 0,-1.660251 -1.370999,-3.03125 -3.03125,-3.03125 z M 20,18 44,18 c 1.108,0 2,0.892 2,2 l 0,22 c 0,1.108 -0.892,2 -2,2 l -24,0 c -1.108,0 -2,-0.892 -2,-2 l 0,-22 c 0,-1.108 0.892,-2 2,-2 z"
           inkscape:connector-curvature="0"
           id="path4118"
           style="opacity:0.3;fill:#220b28;fill-opacity:1;stroke:none" />
      </g>
    </g>
    <g
       transform="translate(32,0)"
       id="g3510">
      <g
         id="g3512"
         style="display:inline;enable-background:new">
        <rect
           width="28"
           height="26"
           rx="2"
           ry="2"
           x="18"
           y="-44"
           transform="scale(1,-1)"
           id="rect3514"
           style="opacity:0.2;fill:url(#linearGradient3522);fill-opacity:1;stroke:none" />
        <path
           d="m 20,16 c -2.180674,0 -4,1.819326 -4,4 l 0,22 c 0,2.180674 1.819326,4 4,4 l 24,0 c 2.180674,0 4,-1.819326 4,-4 l 0,-22 c 0,-2.180674 -1.819326,-4 -4,-4 z m 0,2 24,0 c 1.108,0 2,0.892 2,2 l 0,22 c 0,1.108 -0.892,2 -2,2 l -24,0 c -1.108,0 -2,-0.892 -2,-2 l 0,-22 c 0,-1.108 0.892,-2 2,-2 z"
           inkscape:connector-curvature="0"
           id="path3516"
           style="opacity:0.15;fill:#0f2e61;fill-opacity:1;stroke:none" />
        <path
           d="m 20,18 c -1.108,0 -2,0.892 -2,2 l 0,22 c 0,1.108 0.892,2 2,2 l 24,0 c 1.108,0 2,-0.892 2,-2 l 0,-22 c 0,-1.108 -0.892,-2 -2,-2 z m 0,1.03125 24,0 c 0.54712,0 0.96875,0.42163 0.96875,0.96875 l 0,22 c 0,0.54712 -0.42163,0.96875 -0.96875,0.96875 l -24,0 c -0.54712,0 -0.96875,-0.42163 -0.96875,-0.96875 l 0,-22 c 0,-0.54712 0.42163,-0.96875 0.96875,-0.96875 z"
           inkscape:connector-curvature="0"
           id="path3518"
           style="opacity:0.3;fill:#ffffff;fill-opacity:1;stroke:none" />
        <path
           d="m 20,16.96875 c -1.660251,0 -3.03125,1.370999 -3.03125,3.03125 l 0,22 c 0,1.660251 1.370999,3.03125 3.03125,3.03125 l 24,0 c 1.660251,0 3.03125,-1.370999 3.03125,-3.03125 l 0,-22 c 0,-1.660251 -1.370999,-3.03125 -3.03125,-3.03125 z M 20,18 44,18 c 1.108,0 2,0.892 2,2 l 0,22 c 0,1.108 -0.892,2 -2,2 l -24,0 c -1.108,0 -2,-0.892 -2,-2 l 0,-22 c 0,-1.108 0.892,-2 2,-2 z"
           inkscape:connector-curvature="0"
           id="path3520"
           style="opacity:0.3;fill:#220b28;fill-opacity:1;stroke:none" />
      </g>
    </g>
    <g
       transform="translate(0,30)"
       id="g3524">
      <g
         id="g3526"
         style="display:inline;enable-background:new">
        <rect
           width="28"
           height="26"
           rx="2"
           ry="2"
           x="18"
           y="-44"
           transform="scale(1,-1)"
           id="rect3528"
           style="opacity:0.2;fill:url(#linearGradient3548);fill-opacity:1;stroke:none" />
        <path
           d="m 20,16 c -2.180674,0 -4,1.819326 -4,4 l 0,22 c 0,2.180674 1.819326,4 4,4 l 24,0 c 2.180674,0 4,-1.819326 4,-4 l 0,-22 c 0,-2.180674 -1.819326,-4 -4,-4 z m 0,2 24,0 c 1.108,0 2,0.892 2,2 l 0,22 c 0,1.108 -0.892,2 -2,2 l -24,0 c -1.108,0 -2,-0.892 -2,-2 l 0,-22 c 0,-1.108 0.892,-2 2,-2 z"
           inkscape:connector-curvature="0"
           id="path3530"
           style="opacity:0.15;fill:#0f2e61;fill-opacity:1;stroke:none" />
        <path
           d="m 20,18 c -1.108,0 -2,0.892 -2,2 l 0,22 c 0,1.108 0.892,2 2,2 l 24,0 c 1.108,0 2,-0.892 2,-2 l 0,-22 c 0,-1.108 -0.892,-2 -2,-2 z m 0,1.03125 24,0 c 0.54712,0 0.96875,0.42163 0.96875,0.96875 l 0,22 c 0,0.54712 -0.42163,0.96875 -0.96875,0.96875 l -24,0 c -0.54712,0 -0.96875,-0.42163 -0.96875,-0.96875 l 0,-22 c 0,-0.54712 0.42163,-0.96875 0.96875,-0.96875 z"
           inkscape:connector-curvature="0"
           id="path3532"
           style="opacity:0.3;fill:#ffffff;fill-opacity:1;stroke:none" />
        <path
           d="m 20,16.96875 c -1.660251,0 -3.03125,1.370999 -3.03125,3.03125 l 0,22 c 0,1.660251 1.370999,3.03125 3.03125,3.03125 l 24,0 c 1.660251,0 3.03125,-1.370999 3.03125,-3.03125 l 0,-22 c 0,-1.660251 -1.370999,-3.03125 -3.03125,-3.03125 z M 20,18 44,18 c 1.108,0 2,0.892 2,2 l 0,22 c 0,1.108 -0.892,2 -2,2 l -24,0 c -1.108,0 -2,-0.892 -2,-2 l 0,-22 c 0,-1.108 0.892,-2 2,-2 z"
           inkscape:connector-curvature="0"
           id="path3534"
           style="opacity:0.3;fill:#220b28;fill-opacity:1;stroke:none" />
      </g>
    </g>
    <g
       transform="translate(32,30)"
       id="g3536">
      <g
         id="g3538"
         style="display:inline;enable-background:new">
        <rect
           width="28"
           height="26"
           rx="2"
           ry="2"
           x="18"
           y="-44"
           transform="scale(1,-1)"
           id="rect3540"
           style="opacity:0.2;fill:url(#linearGradient3550);fill-opacity:1;stroke:none" />
        <path
           d="m 20,16 c -2.180674,0 -4,1.819326 -4,4 l 0,22 c 0,2.180674 1.819326,4 4,4 l 24,0 c 2.180674,0 4,-1.819326 4,-4 l 0,-22 c 0,-2.180674 -1.819326,-4 -4,-4 z m 0,2 24,0 c 1.108,0 2,0.892 2,2 l 0,22 c 0,1.108 -0.892,2 -2,2 l -24,0 c -1.108,0 -2,-0.892 -2,-2 l 0,-22 c 0,-1.108 0.892,-2 2,-2 z"
           inkscape:connector-curvature="0"
           id="path3542"
           style="opacity:0.15;fill:#0f2e61;fill-opacity:1;stroke:none" />
        <path
           d="m 20,18 c -1.108,0 -2,0.892 -2,2 l 0,22 c 0,1.108 0.892,2 2,2 l 24,0 c 1.108,0 2,-0.892 2,-2 l 0,-22 c 0,-1.108 -0.892,-2 -2,-2 z m 0,1.03125 24,0 c 0.54712,0 0.96875,0.42163 0.96875,0.96875 l 0,22 c 0,0.54712 -0.42163,0.96875 -0.96875,0.96875 l -24,0 c -0.54712,0 -0.96875,-0.42163 -0.96875,-0.96875 l 0,-22 c 0,-0.54712 0.42163,-0.96875 0.96875,-0.96875 z"
           inkscape:connector-curvature="0"
           id="path3544"
           style="opacity:0.3;fill:#ffffff;fill-opacity:1;stroke:none" />
        <path
           d="m 20,16.96875 c -1.660251,0 -3.03125,1.370999 -3.03125,3.03125 l 0,22 c 0,1.660251 1.370999,3.03125 3.03125,3.03125 l 24,0 c 1.660251,0 3.03125,-1.370999 3.03125,-3.03125 l 0,-22 c 0,-1.660251 -1.370999,-3.03125 -3.03125,-3.03125 z M 20,18 44,18 c 1.108,0 2,0.892 2,2 l 0,22 c 0,1.108 -0.892,2 -2,2 l -24,0 c -1.108,0 -2,-0.892 -2,-2 l 0,-22 c 0,-1.108 0.892,-2 2,-2 z"
           inkscape:connector-curvature="0"
           id="path3546"
           style="opacity:0.3;fill:#220b28;fill-opacity:1;stroke:none" />
      </g>
    </g>
  </g>
  <g
     id="layer4"
     style="display:inline">
    <path
       d="m 6,80 0,4 c 0,3.324 2.676,6 6,6 l 72,0 c 3.324,0 6,-2.676 6,-6 l 0,-4 c 0,3.324 -2.676,6 -6,6 L 12,86 C 8.676,86 6,83.324 6,80 z"
       inkscape:connector-curvature="0"
       id="path3888"
       style="fill:url(#linearGradient3228);fill-opacity:1;fill-rule:nonzero;stroke:none;display:inline" />
    <path
       d="m 6,82 0,2 c 0,3.324 2.676,6 6,6 l 72,0 c 3.324,0 6,-2.676 6,-6 l 0,-2 c 0,3.324 -2.676,6 -6,6 L 12,88 C 8.676,88 6,85.324 6,82 z"
       inkscape:connector-curvature="0"
       id="rect4345"
       style="opacity:0.1;color:#000000;fill:#000000;fill-opacity:1;fill-rule:nonzero;stroke:none;stroke-width:1.5;marker:none;visibility:visible;display:inline;overflow:visible;enable-background:accumulate" />
    <path
       d="m 6,83 0,1 c 0,3.324 2.676,6 6,6 l 72,0 c 3.324,0 6,-2.676 6,-6 l 0,-1 c 0,3.324 -2.676,6 -6,6 L 12,89 C 8.676,89 6,86.324 6,83 z"
       inkscape:connector-curvature="0"
       id="rect4336"
       style="opacity:0.15;color:#000000;fill:#000000;fill-opacity:1;fill-rule:nonzero;stroke:none;stroke-width:1.5;marker:none;visibility:visible;display:inline;overflow:visible;enable-background:accumulate" />
  </g>
  <g
     id="layer5"
     style="display:none">
    <rect
       width="66"
       height="62"
       rx="12"
       ry="12"
       x="15"
       y="15"
       clip-path="url(#clipPath4355)"
       id="rect3171"
       style="opacity:0.1;fill:url(#linearGradient3613);fill-opacity:1;fill-rule:nonzero;stroke:#ffffff;stroke-width:0.5;stroke-linecap:round;stroke-linejoin:miter;stroke-miterlimit:4;stroke-opacity:1;stroke-dasharray:none;stroke-dashoffset:0;filter:url(#filter3794)" />
  </g>
  <g
     id="layer6">
    <path
       d="m 44.84375,8.0625 1.34375,3.875 31.8125,0 1,0 c 2.753976,0 5.0625,2.308526 5.0625,5.0625 l 0,1 0,56 0,1 c 0,2.753977 -3.115146,3.115146 -5.0625,5.0625 l -1,0 -6.875,0 1.34375,3.875 11.53125,0 c 2.221843,0 3.9375,-1.715657 3.9375,-3.9375 l 0,-68 C 87.9375,9.7781575 86.221843,8.0625 84,8.0625 z"
       inkscape:connector-curvature="0"
       id="path3660"
       style="opacity:0.4;fill:url(#linearGradient3483);fill-opacity:1;fill-rule:evenodd;stroke:none;display:inline" />
    <path
       d="m 47.65625,16.125 22.03125,59.75 9.3125,0 c 0.538805,0 0.875,-0.336196 0.875,-0.875 l 0,-58 c 0,-0.538805 -0.336194,-0.875 -0.875,-0.875 z"
       inkscape:connector-curvature="0"
       id="path3664"
       style="opacity:0.5;fill:url(#linearGradient3386);fill-opacity:1;fill-rule:evenodd;stroke:none;display:inline" />
    <path
       d="m 47.65625,16.125 22.03125,59.75 1,0 -22.03125,-59.75 z"
       inkscape:connector-curvature="0"
       id="path2669"
       style="opacity:0.5;fill:url(#linearGradient2675-3);fill-opacity:1;fill-rule:evenodd;stroke:none;display:inline" />
  </g>
</svg>
